<?xml version="1.0" encoding="UTF-8" standalone="no"?><svg xmlns="http://www.w3.org/2000/svg" xmlns:xlink="http://www.w3.org/1999/xlink" contentScriptType="application/ecmascript" contentStyleType="text/css" height="145px" preserveAspectRatio="none" style="width:88px;height:145px;background:#00000000;" version="1.1" viewBox="0 0 88 145" width="88px" zoomAndPan="magnify"><defs><filter height="300%" id="f6bkcwkwknqdf" width="300%" x="-1" y="-1"><feGaussianBlur result="blurOut" stdDeviation="2.0"/><feColorMatrix in="blurOut" result="blurOut2" type="matrix" values="0 0 0 0 0 0 0 0 0 0 0 0 0 0 0 0 0 0 .4 0"/><feOffset dx="4.0" dy="4.0" in="blurOut2" result="blurOut3"/><feBlend in="SourceGraphic" in2="blurOut3" mode="normal"/></filter></defs><g><!--MD5=[6a27c20b92d3f9c7e017ccad1b71cd6d]
class AABB--><rect codeLine="6" fill="#FEFECE" filter="url(#f6bkcwkwknqdf)" height="32" id="AABB" style="stroke:#FF0000;stroke-width:1.5;" width="62" x="9.5" y="99"/><ellipse cx="24.5" cy="115" fill="#ADD1B2" rx="11" ry="11" style="stroke:#FF0000;stroke-width:1.0;"/><path d="M26.9731,121.1431 Q26.3921,121.4419 25.7529,121.5913 Q25.1138,121.7407 24.4082,121.7407 Q21.9014,121.7407 20.5815,120.0889 Q19.2617,118.437 19.2617,115.3159 Q19.2617,112.1865 20.5815,110.5347 Q21.9014,108.8828 24.4082,108.8828 Q25.1138,108.8828 25.7612,109.0322 Q26.4087,109.1816 26.9731,109.4805 L26.9731,112.2031 Q26.3423,111.6221 25.7488,111.3523 Q25.1553,111.0825 24.5244,111.0825 Q23.1797,111.0825 22.4949,112.1492 Q21.8101,113.2158 21.8101,115.3159 Q21.8101,117.4077 22.4949,118.4744 Q23.1797,119.541 24.5244,119.541 Q25.1553,119.541 25.7488,119.2712 Q26.3423,119.0015 26.9731,118.4204 Z " fill="#000000"/><text fill="#000000" font-family="sans-serif" font-size="12" lengthAdjust="spacing" textLength="30" x="38.5" y="119.5352">AABB</text><!--MD5=[426e75666daf533f17226ff4c87e20fd]
class Shape--><rect codeLine="8" fill="#FEFECE" filter="url(#f6bkcwkwknqdf)" height="32" id="Shape" style="stroke:#FF0000;stroke-width:1.5;" width="67" x="7" y="7"/><ellipse cx="22" cy="23" fill="#A9DCDF" rx="11" ry="11" style="stroke:#FF0000;stroke-width:1.0;"/><path d="M21.8633,18.3481 L20.7095,23.4199 L23.0254,23.4199 Z M20.3691,16.1069 L23.3657,16.1069 L26.7109,28.5 L24.2622,28.5 L23.4985,25.437 L20.2197,25.437 L19.4727,28.5 L17.0239,28.5 Z " fill="#000000"/><text fill="#000000" font-family="sans-serif" font-size="12" font-style="italic" lengthAdjust="spacing" textLength="35" x="36" y="27.5352">Shape</text><!--MD5=[351ce946835daa7178fb606e6b9f9bff]
reverse link Shape to AABB--><path codeLine="10" d="M40.5,59.61 C40.5,73.31 40.5,88.22 40.5,98.96 " fill="none" id="Shape-backto-AABB" style="stroke:#FF0000;stroke-width:1.0;"/><polygon fill="none" points="33.5,59.27,40.5,39.27,47.5,59.27,33.5,59.27" style="stroke:#FF0000;stroke-width:1.0;"/><!--MD5=[6c9525527764f985926e568006336d4f]
@startuml
skinparam ClassArrowColor #ff0000
skinparam ClassBorderColor #ff0000
skinparam BackgroundColor transparent
hide empty methods
hide empty fields
class "AABB" {
}
abstract class "Shape" {
}
"Shape" <|- - "AABB"
@enduml

PlantUML version 1.2021.14(Fri Nov 12 11:46:50 EST 2021)
(GPL source distribution)
Java Runtime: Java(TM) SE Runtime Environment
JVM: Java HotSpot(TM) 64-Bit Server VM
Default Encoding: UTF-8
Language: en
Country: US
--></g></svg>