<?xml version="1.0" encoding="UTF-8" standalone="no"?><svg xmlns="http://www.w3.org/2000/svg" xmlns:xlink="http://www.w3.org/1999/xlink" contentScriptType="application/ecmascript" contentStyleType="text/css" height="506px" preserveAspectRatio="none" style="width:611px;height:506px;background:#00000000;" version="1.1" viewBox="0 0 611 506" width="611px" zoomAndPan="magnify"><defs><filter height="300%" id="fmcggf1d81kmk" width="300%" x="-1" y="-1"><feGaussianBlur result="blurOut" stdDeviation="2.0"/><feColorMatrix in="blurOut" result="blurOut2" type="matrix" values="0 0 0 0 0 0 0 0 0 0 0 0 0 0 0 0 0 0 .4 0"/><feOffset dx="4.0" dy="4.0" in="blurOut2" result="blurOut3"/><feBlend in="SourceGraphic" in2="blurOut3" mode="normal"/></filter></defs><g><!--MD5=[6a27c20b92d3f9c7e017ccad1b71cd6d]
class AABB--><rect codeLine="6" fill="#FEFECE" filter="url(#fmcggf1d81kmk)" height="294.1465" id="AABB" style="stroke:#FF0000;stroke-width:1.5;" width="526" x="39" y="198"/><ellipse cx="282.75" cy="214" fill="#ADD1B2" rx="11" ry="11" style="stroke:#FF0000;stroke-width:1.0;"/><path d="M285.2231,220.1431 Q284.6421,220.4419 284.0029,220.5913 Q283.3638,220.7407 282.6582,220.7407 Q280.1514,220.7407 278.8315,219.0889 Q277.5117,217.437 277.5117,214.3159 Q277.5117,211.1865 278.8315,209.5347 Q280.1514,207.8828 282.6582,207.8828 Q283.3638,207.8828 284.0112,208.0322 Q284.6587,208.1816 285.2231,208.4805 L285.2231,211.2031 Q284.5923,210.6221 283.9988,210.3523 Q283.4053,210.0825 282.7744,210.0825 Q281.4297,210.0825 280.7449,211.1492 Q280.0601,212.2158 280.0601,214.3159 Q280.0601,216.4077 280.7449,217.4744 Q281.4297,218.541 282.7744,218.541 Q283.4053,218.541 283.9988,218.2712 Q284.5923,218.0015 285.2231,217.4204 Z " fill="#000000"/><text fill="#000000" font-family="sans-serif" font-size="12" lengthAdjust="spacing" textLength="30" x="303.25" y="218.5352">AABB</text><line style="stroke:#FF0000;stroke-width:1.5;" x1="40" x2="564" y1="230" y2="230"/><ellipse cx="50" cy="241" rx="3" ry="3" style="stroke:#038048;stroke-width:1.0;fill:none;"/><text fill="#000000" font-family="sans-serif" font-size="11" lengthAdjust="spacing" textLength="69" x="59" y="244.6348">center : Vec2</text><ellipse cx="50" cy="253.9551" rx="3" ry="3" style="stroke:#038048;stroke-width:1.0;fill:none;"/><text fill="#000000" font-family="sans-serif" font-size="11" lengthAdjust="spacing" textLength="76" x="59" y="257.5898">halfSize : Vec2</text><line style="stroke:#FF0000;stroke-width:1.5;" x1="40" x2="564" y1="263.9102" y2="263.9102"/><ellipse cx="50" cy="274.9102" fill="#84BE84" rx="3" ry="3" style="stroke:#038048;stroke-width:1.0;"/><text fill="#000000" font-family="sans-serif" font-size="11" lengthAdjust="spacing" textLength="74" x="59" y="278.5449">clone() : AABB</text><ellipse cx="50" cy="287.8652" fill="#84BE84" rx="3" ry="3" style="stroke:#038048;stroke-width:1.0;"/><text fill="#000000" font-family="sans-serif" font-size="11" lengthAdjust="spacing" textLength="193" x="59" y="291.5">containsPoint(point: Vec2) : boolean</text><ellipse cx="50" cy="300.8203" fill="#84BE84" rx="3" ry="3" style="stroke:#038048;stroke-width:1.0;"/><text fill="#000000" font-family="sans-serif" font-size="11" lengthAdjust="spacing" textLength="214" x="59" y="304.4551">containsPointSoft(point: Vec2) : boolean</text><ellipse cx="50" cy="313.7754" fill="#84BE84" rx="3" ry="3" style="stroke:#038048;stroke-width:1.0;"/><text fill="#000000" font-family="sans-serif" font-size="11" lengthAdjust="spacing" textLength="147" x="59" y="317.4102">getBoundingCircle() : Circle</text><ellipse cx="50" cy="326.7305" fill="#84BE84" rx="3" ry="3" style="stroke:#038048;stroke-width:1.0;"/><text fill="#000000" font-family="sans-serif" font-size="11" lengthAdjust="spacing" textLength="136" x="59" y="330.3652">getBoundingRect() : AABB</text><ellipse cx="50" cy="339.6855" fill="#84BE84" rx="3" ry="3" style="stroke:#038048;stroke-width:1.0;"/><text fill="#000000" font-family="sans-serif" font-size="11" lengthAdjust="spacing" textLength="102" x="59" y="343.3203">getHalfSize() : Vec2</text><ellipse cx="50" cy="352.6406" fill="#84BE84" rx="3" ry="3" style="stroke:#038048;stroke-width:1.0;"/><text fill="#000000" font-family="sans-serif" font-size="11" lengthAdjust="spacing" text-decoration="underline" textLength="500" x="59" y="356.2754">getTimeOfCollision(A: Shape, velA: Vec2, B: Shape, velB: Vec2) : [Vec2, Vec2, boolean, boolean]</text><ellipse cx="50" cy="365.5957" fill="#84BE84" rx="3" ry="3" style="stroke:#038048;stroke-width:1.0;"/><text fill="#000000" font-family="sans-serif" font-size="11" lengthAdjust="spacing" textLength="194" x="59" y="369.2305">intersectPoint(point: Vec2) : boolean</text><ellipse cx="50" cy="378.5508" fill="#84BE84" rx="3" ry="3" style="stroke:#038048;stroke-width:1.0;"/><text fill="#000000" font-family="sans-serif" font-size="11" lengthAdjust="spacing" textLength="331" x="59" y="382.1855">intersectSegment(point: Vec2, delta: Vec2, padding: Vec2) : Hit</text><ellipse cx="50" cy="391.5059" fill="#84BE84" rx="3" ry="3" style="stroke:#038048;stroke-width:1.0;"/><text fill="#000000" font-family="sans-serif" font-size="11" lengthAdjust="spacing" textLength="187" x="59" y="395.1406">overlapArea(other: AABB) : number</text><ellipse cx="50" cy="404.4609" fill="#84BE84" rx="3" ry="3" style="stroke:#038048;stroke-width:1.0;"/><text fill="#000000" font-family="sans-serif" font-size="11" lengthAdjust="spacing" textLength="173" x="59" y="408.0957">overlaps(other: Shape) : boolean</text><ellipse cx="50" cy="417.416" fill="#84BE84" rx="3" ry="3" style="stroke:#038048;stroke-width:1.0;"/><text fill="#000000" font-family="sans-serif" font-size="11" lengthAdjust="spacing" textLength="171" x="59" y="421.0508">setHalfSize(halfSize: Vec2) : void</text><ellipse cx="50" cy="430.3711" fill="#84BE84" rx="3" ry="3" style="stroke:#038048;stroke-width:1.0;"/><text fill="#000000" font-family="sans-serif" font-size="11" lengthAdjust="spacing" textLength="332" x="59" y="434.0059">sweep(velocity: Vec2, fromPosition: Vec2, halfSize: Vec2) : void</text><ellipse cx="50" cy="443.3262" fill="#84BE84" rx="3" ry="3" style="stroke:#038048;stroke-width:1.0;"/><text fill="#000000" font-family="sans-serif" font-size="11" lengthAdjust="spacing" textLength="92" x="59" y="446.9609">toString() : string</text><ellipse cx="50" cy="456.2813" fill="#84BE84" rx="3" ry="3" style="stroke:#038048;stroke-width:1.0;"/><text fill="#000000" font-family="sans-serif" font-size="11" lengthAdjust="spacing" textLength="177" x="59" y="459.916">touchesAABB(other: AABB) : Vec2</text><ellipse cx="50" cy="469.2363" fill="#84BE84" rx="3" ry="3" style="stroke:#038048;stroke-width:1.0;"/><text fill="#000000" font-family="sans-serif" font-size="11" lengthAdjust="spacing" textLength="262" x="59" y="472.8711">touchesAABBWithoutCorners(other: AABB) : Vec2</text><polygon fill="#FFFF44" points="50,477.1914,54,481.1914,50,485.1914,46,481.1914" style="stroke:#B38D22;stroke-width:1.0;"/><text fill="#000000" font-family="sans-serif" font-size="11" lengthAdjust="spacing" textLength="197" x="59" y="485.8262">overlapsAABB(other: AABB) : boolean</text><!--MD5=[426e75666daf533f17226ff4c87e20fd]
class Shape--><rect codeLine="27" fill="#FEFECE" filter="url(#fmcggf1d81kmk)" height="130.6855" id="Shape" style="stroke:#FF0000;stroke-width:1.5;" width="590" x="7" y="7"/><ellipse cx="280.25" cy="23" fill="#A9DCDF" rx="11" ry="11" style="stroke:#FF0000;stroke-width:1.0;"/><path d="M280.1133,18.3481 L278.9595,23.4199 L281.2754,23.4199 Z M278.6191,16.1069 L281.6157,16.1069 L284.9609,28.5 L282.5122,28.5 L281.7485,25.437 L278.4697,25.437 L277.7227,28.5 L275.2739,28.5 Z " fill="#000000"/><text fill="#000000" font-family="sans-serif" font-size="12" font-style="italic" lengthAdjust="spacing" textLength="35" x="300.75" y="27.5352">Shape</text><line style="stroke:#FF0000;stroke-width:1.5;" x1="8" x2="596" y1="39" y2="39"/><ellipse cx="18" cy="50" fill="#84BE84" rx="3" ry="3" style="stroke:#038048;stroke-width:1.0;"/><text fill="#000000" font-family="sans-serif" font-size="11" font-style="italic" lengthAdjust="spacing" textLength="78" x="27" y="53.6348">clone() : Shape</text><ellipse cx="18" cy="62.9551" fill="#84BE84" rx="3" ry="3" style="stroke:#038048;stroke-width:1.0;"/><text fill="#000000" font-family="sans-serif" font-size="11" font-style="italic" lengthAdjust="spacing" textLength="193" x="27" y="66.5898">containsPoint(point: Vec2) : boolean</text><ellipse cx="18" cy="75.9102" fill="#84BE84" rx="3" ry="3" style="stroke:#038048;stroke-width:1.0;"/><text fill="#000000" font-family="sans-serif" font-size="11" font-style="italic" lengthAdjust="spacing" textLength="147" x="27" y="79.5449">getBoundingCircle() : Circle</text><ellipse cx="18" cy="88.8652" fill="#84BE84" rx="3" ry="3" style="stroke:#038048;stroke-width:1.0;"/><text fill="#000000" font-family="sans-serif" font-size="11" font-style="italic" lengthAdjust="spacing" textLength="136" x="27" y="92.5">getBoundingRect() : AABB</text><ellipse cx="18" cy="101.8203" fill="#84BE84" rx="3" ry="3" style="stroke:#038048;stroke-width:1.0;"/><text fill="#000000" font-family="sans-serif" font-size="11" lengthAdjust="spacing" text-decoration="underline" textLength="500" x="27" y="105.4551">getTimeOfCollision(A: Shape, velA: Vec2, B: Shape, velB: Vec2) : [Vec2, Vec2, boolean, boolean]</text><ellipse cx="18" cy="114.7754" fill="#84BE84" rx="3" ry="3" style="stroke:#038048;stroke-width:1.0;"/><text fill="#000000" font-family="sans-serif" font-size="11" font-style="italic" lengthAdjust="spacing" textLength="173" x="27" y="118.4102">overlaps(other: Shape) : boolean</text><rect fill="#F24D5C" height="6" style="stroke:#C82930;stroke-width:1.0;" width="6" x="15" y="124.7305"/><text fill="#000000" font-family="sans-serif" font-size="11" lengthAdjust="spacing" text-decoration="underline" textLength="564" x="27" y="131.3652">getTimeOfCollision_AABB_AABB(A: AABB, velA: Vec2, B: Shape, velB: Vec2) : [Vec2, Vec2, boolean, boolean]</text><!--MD5=[351ce946835daa7178fb606e6b9f9bff]
reverse link Shape to AABB--><path codeLine="36" d="M302,158.75 C302,171.33 302,184.59 302,197.99 " fill="none" id="Shape-backto-AABB" style="stroke:#FF0000;stroke-width:1.0;"/><polygon fill="none" points="295,158.29,302,138.29,309,158.29,295,158.29" style="stroke:#FF0000;stroke-width:1.0;"/><!--MD5=[e9d3f9886fb4783096e94683c0317b4a]
@startuml
skinparam ClassArrowColor #ff0000
skinparam ClassBorderColor #ff0000
skinparam BackgroundColor transparent
hide empty methods
hide empty fields
class "AABB" {
    +center : Vec2
    +halfSize : Vec2
    +clone() : AABB
    +containsPoint(point: Vec2) : boolean
    +containsPointSoft(point: Vec2) : boolean
    +getBoundingCircle() : Circle
    +getBoundingRect() : AABB
    +getHalfSize() : Vec2
    {static} +getTimeOfCollision(A: Shape, velA: Vec2, B: Shape, velB: Vec2) : [Vec2, Vec2, boolean, boolean]
    +intersectPoint(point: Vec2) : boolean
    +intersectSegment(point: Vec2, delta: Vec2, padding: Vec2) : Hit
    +overlapArea(other: AABB) : number
    +overlaps(other: Shape) : boolean
    +setHalfSize(halfSize: Vec2) : void
    +sweep(velocity: Vec2, fromPosition: Vec2, halfSize: Vec2) : void
    +toString() : string
    +touchesAABB(other: AABB) : Vec2
    +touchesAABBWithoutCorners(other: AABB) : Vec2
    #overlapsAABB(other: AABB) : boolean
}
abstract class "Shape" {
    {abstract} +clone() : Shape
    {abstract} +containsPoint(point: Vec2) : boolean
    {abstract} +getBoundingCircle() : Circle
    {abstract} +getBoundingRect() : AABB
    {static} +getTimeOfCollision(A: Shape, velA: Vec2, B: Shape, velB: Vec2) : [Vec2, Vec2, boolean, boolean]
    {abstract} +overlaps(other: Shape) : boolean
    {static} -getTimeOfCollision_AABB_AABB(A: AABB, velA: Vec2, B: Shape, velB: Vec2) : [Vec2, Vec2, boolean, boolean]
}
"Shape" <|- - "AABB"
@enduml

PlantUML version 1.2021.14(Fri Nov 12 11:46:50 EST 2021)
(GPL source distribution)
Java Runtime: Java(TM) SE Runtime Environment
JVM: Java HotSpot(TM) 64-Bit Server VM
Default Encoding: UTF-8
Language: en
Country: US
--></g></svg>