<?xml version="1.0" encoding="UTF-8" standalone="no"?><svg xmlns="http://www.w3.org/2000/svg" xmlns:xlink="http://www.w3.org/1999/xlink" contentScriptType="application/ecmascript" contentStyleType="text/css" height="237px" preserveAspectRatio="none" style="width:273px;height:237px;background:#00000000;" version="1.1" viewBox="0 0 273 237" width="273px" zoomAndPan="magnify"><defs><filter height="300%" id="f16ceih8934s4h" width="300%" x="-1" y="-1"><feGaussianBlur result="blurOut" stdDeviation="2.0"/><feColorMatrix in="blurOut" result="blurOut2" type="matrix" values="0 0 0 0 0 0 0 0 0 0 0 0 0 0 0 0 0 0 .4 0"/><feOffset dx="4.0" dy="4.0" in="blurOut2" result="blurOut3"/><feBlend in="SourceGraphic" in2="blurOut3" mode="normal"/></filter></defs><g><!--MD5=[d755c5174fbc4166a0b82a39f0ad1a0e]
class AI--><rect codeLine="6" fill="#FEFECE" filter="url(#f16ceih8934s4h)" height="32" id="AI" style="stroke:#FF0000;stroke-width:1.5;" width="43" x="107" y="99"/><ellipse cx="122" cy="115" fill="#B4A7E5" rx="11" ry="11" style="stroke:#FF0000;stroke-width:1.0;"/><path d="M118.4277,111.2651 L118.4277,109.1069 L125.8071,109.1069 L125.8071,111.2651 L123.3418,111.2651 L123.3418,119.3418 L125.8071,119.3418 L125.8071,121.5 L118.4277,121.5 L118.4277,119.3418 L120.8931,119.3418 L120.8931,111.2651 Z " fill="#000000"/><text fill="#000000" font-family="sans-serif" font-size="12" font-style="italic" lengthAdjust="spacing" textLength="11" x="136" y="119.5352">AI</text><!--MD5=[8336922478991a54f539d469b4e48cc0]
class Updateable--><rect codeLine="8" fill="#FEFECE" filter="url(#f16ceih8934s4h)" height="32" id="Updateable" style="stroke:#FF0000;stroke-width:1.5;" width="99" x="79" y="7"/><ellipse cx="94" cy="23" fill="#B4A7E5" rx="11" ry="11" style="stroke:#FF0000;stroke-width:1.0;"/><path d="M90.4277,19.2651 L90.4277,17.1069 L97.8071,17.1069 L97.8071,19.2651 L95.3418,19.2651 L95.3418,27.3418 L97.8071,27.3418 L97.8071,29.5 L90.4277,29.5 L90.4277,27.3418 L92.8931,27.3418 L92.8931,19.2651 Z " fill="#000000"/><text fill="#000000" font-family="sans-serif" font-size="12" font-style="italic" lengthAdjust="spacing" textLength="67" x="108" y="27.5352">Updateable</text><!--MD5=[d1e13e6651c8934d9fc1bb5bc0810f7c]
class ControllerAI--><rect codeLine="11" fill="#FEFECE" filter="url(#f16ceih8934s4h)" height="32" id="ControllerAI" style="stroke:#FF0000;stroke-width:1.5;" width="99" x="7" y="191"/><ellipse cx="22" cy="207" fill="#A9DCDF" rx="11" ry="11" style="stroke:#FF0000;stroke-width:1.0;"/><path d="M21.8633,202.3481 L20.7095,207.4199 L23.0254,207.4199 Z M20.3691,200.1069 L23.3657,200.1069 L26.7109,212.5 L24.2622,212.5 L23.4985,209.437 L20.2197,209.437 L19.4727,212.5 L17.0239,212.5 Z " fill="#000000"/><text fill="#000000" font-family="sans-serif" font-size="12" font-style="italic" lengthAdjust="spacing" textLength="67" x="36" y="211.5352">ControllerAI</text><!--MD5=[0cdd0e7ebd704d8f60acc0b0008ba0ae]
class StateMachineAI--><rect codeLine="14" fill="#FEFECE" filter="url(#f16ceih8934s4h)" height="32" id="StateMachineAI" style="stroke:#FF0000;stroke-width:1.5;" width="118" x="141.5" y="191"/><ellipse cx="156.5" cy="207" fill="#ADD1B2" rx="11" ry="11" style="stroke:#FF0000;stroke-width:1.0;"/><path d="M158.9731,213.1431 Q158.3921,213.4419 157.7529,213.5913 Q157.1138,213.7407 156.4082,213.7407 Q153.9014,213.7407 152.5815,212.0889 Q151.2617,210.437 151.2617,207.3159 Q151.2617,204.1865 152.5815,202.5347 Q153.9014,200.8828 156.4082,200.8828 Q157.1138,200.8828 157.7612,201.0322 Q158.4087,201.1816 158.9731,201.4805 L158.9731,204.2031 Q158.3423,203.6221 157.7488,203.3523 Q157.1553,203.0825 156.5244,203.0825 Q155.1797,203.0825 154.4949,204.1492 Q153.8101,205.2158 153.8101,207.3159 Q153.8101,209.4077 154.4949,210.4744 Q155.1797,211.541 156.5244,211.541 Q157.1553,211.541 157.7488,211.2712 Q158.3423,211.0015 158.9731,210.4204 Z " fill="#000000"/><text fill="#000000" font-family="sans-serif" font-size="12" lengthAdjust="spacing" textLength="86" x="170.5" y="211.5352">StateMachineAI</text><!--MD5=[c5e8ac391f407d9b8396aceaeb34a98c]
reverse link Updateable to AI--><path codeLine="10" d="M128.5,59.61 C128.5,73.31 128.5,88.22 128.5,98.96 " fill="none" id="Updateable-backto-AI" style="stroke:#FF0000;stroke-width:1.0;"/><polygon fill="none" points="121.5,59.27,128.5,39.27,135.5,59.27,121.5,59.27" style="stroke:#FF0000;stroke-width:1.0;"/><!--MD5=[20ce14433150aa56afc93d0ab0afcf45]
reverse link AI to ControllerAI--><path codeLine="13" d="M103.53,147.21 C91.68,162.03 78.06,179.06 68.53,190.96 " fill="none" id="AI-backto-ControllerAI" style="stroke:#FF0000;stroke-width:1.0;stroke-dasharray:7.0,7.0;"/><polygon fill="none" points="98.33,142.51,116.29,131.27,109.26,151.26,98.33,142.51" style="stroke:#FF0000;stroke-width:1.0;"/><!--MD5=[34bfc0b12665d3d2eb2a193a65710028]
reverse link AI to StateMachineAI--><path codeLine="16" d="M153.47,147.21 C165.32,162.03 178.94,179.06 188.47,190.96 " fill="none" id="AI-backto-StateMachineAI" style="stroke:#FF0000;stroke-width:1.0;stroke-dasharray:7.0,7.0;"/><polygon fill="none" points="147.74,151.26,140.71,131.27,158.67,142.51,147.74,151.26" style="stroke:#FF0000;stroke-width:1.0;"/><!--MD5=[9bb7d678450a9c7d7e5ee934e60d8faf]
@startuml
skinparam ClassArrowColor #ff0000
skinparam ClassBorderColor #ff0000
skinparam BackgroundColor transparent
hide empty methods
hide empty fields
interface "AI" {
}
interface "Updateable" {
}
"Updateable" <|- - "AI"
abstract class "ControllerAI" {
}
"AI" <|.. "ControllerAI"
class "StateMachineAI" {
}
"AI" <|.. "StateMachineAI"
@enduml

PlantUML version 1.2021.14(Fri Nov 12 11:46:50 EST 2021)
(GPL source distribution)
Java Runtime: Java(TM) SE Runtime Environment
JVM: Java HotSpot(TM) 64-Bit Server VM
Default Encoding: UTF-8
Language: en
Country: US
--></g></svg>