<?xml version="1.0" encoding="UTF-8" standalone="no"?><svg xmlns="http://www.w3.org/2000/svg" xmlns:xlink="http://www.w3.org/1999/xlink" contentScriptType="application/ecmascript" contentStyleType="text/css" height="606px" preserveAspectRatio="none" style="width:823px;height:606px;background:#00000000;" version="1.1" viewBox="0 0 823 606" width="823px" zoomAndPan="magnify"><defs><filter height="300%" id="frw93u2zxdy90" width="300%" x="-1" y="-1"><feGaussianBlur result="blurOut" stdDeviation="2.0"/><feColorMatrix in="blurOut" result="blurOut2" type="matrix" values="0 0 0 0 0 0 0 0 0 0 0 0 0 0 0 0 0 0 .4 0"/><feOffset dx="4.0" dy="4.0" in="blurOut2" result="blurOut3"/><feBlend in="SourceGraphic" in2="blurOut3" mode="normal"/></filter></defs><g><!--MD5=[d755c5174fbc4166a0b82a39f0ad1a0e]
class AI--><rect codeLine="6" fill="#FEFECE" filter="url(#frw93u2zxdy90)" height="104.7754" id="AI" style="stroke:#FF0000;stroke-width:1.5;" width="384" x="218" y="120"/><ellipse cx="400.25" cy="136" fill="#B4A7E5" rx="11" ry="11" style="stroke:#FF0000;stroke-width:1.0;"/><path d="M396.6777,132.2651 L396.6777,130.1069 L404.0571,130.1069 L404.0571,132.2651 L401.5918,132.2651 L401.5918,140.3418 L404.0571,140.3418 L404.0571,142.5 L396.6777,142.5 L396.6777,140.3418 L399.1431,140.3418 L399.1431,132.2651 Z " fill="#000000"/><text fill="#000000" font-family="sans-serif" font-size="12" font-style="italic" lengthAdjust="spacing" textLength="11" x="420.75" y="140.5352">AI</text><line style="stroke:#FF0000;stroke-width:1.5;" x1="219" x2="601" y1="152" y2="152"/><ellipse cx="229" cy="163" fill="#84BE84" rx="3" ry="3" style="stroke:#038048;stroke-width:1.0;"/><text fill="#000000" font-family="sans-serif" font-size="11" lengthAdjust="spacing" textLength="241" x="238" y="166.6348">activate(options: Record&lt;string, any&gt;) : void</text><ellipse cx="229" cy="175.9551" fill="#84BE84" rx="3" ry="3" style="stroke:#038048;stroke-width:1.0;"/><text fill="#000000" font-family="sans-serif" font-size="11" lengthAdjust="spacing" textLength="81" x="238" y="179.5898">destroy() : void</text><ellipse cx="229" cy="188.9102" fill="#84BE84" rx="3" ry="3" style="stroke:#038048;stroke-width:1.0;"/><text fill="#000000" font-family="sans-serif" font-size="11" lengthAdjust="spacing" textLength="199" x="238" y="192.5449">handleEvent(event: GameEvent) : void</text><ellipse cx="229" cy="201.8652" fill="#84BE84" rx="3" ry="3" style="stroke:#038048;stroke-width:1.0;"/><text fill="#000000" font-family="sans-serif" font-size="11" lengthAdjust="spacing" textLength="358" x="238" y="205.5">initializeAI(owner: GameNode, options: Record&lt;string, any&gt;) : void</text><ellipse cx="229" cy="214.8203" fill="#84BE84" rx="3" ry="3" style="stroke:#038048;stroke-width:1.0;"/><text fill="#000000" font-family="sans-serif" font-size="11" lengthAdjust="spacing" textLength="158" x="238" y="218.4551">update(deltaT: number) : void</text><!--MD5=[8336922478991a54f539d469b4e48cc0]
class Updateable--><rect codeLine="13" fill="#FEFECE" filter="url(#frw93u2zxdy90)" height="52.9551" id="Updateable" style="stroke:#FF0000;stroke-width:1.5;" width="184" x="318" y="7"/><ellipse cx="372.25" cy="23" fill="#B4A7E5" rx="11" ry="11" style="stroke:#FF0000;stroke-width:1.0;"/><path d="M368.6777,19.2651 L368.6777,17.1069 L376.0571,17.1069 L376.0571,19.2651 L373.5918,19.2651 L373.5918,27.3418 L376.0571,27.3418 L376.0571,29.5 L368.6777,29.5 L368.6777,27.3418 L371.1431,27.3418 L371.1431,19.2651 Z " fill="#000000"/><text fill="#000000" font-family="sans-serif" font-size="12" font-style="italic" lengthAdjust="spacing" textLength="67" x="392.75" y="27.5352">Updateable</text><line style="stroke:#FF0000;stroke-width:1.5;" x1="319" x2="501" y1="39" y2="39"/><ellipse cx="329" cy="50" fill="#84BE84" rx="3" ry="3" style="stroke:#038048;stroke-width:1.0;"/><text fill="#000000" font-family="sans-serif" font-size="11" lengthAdjust="spacing" textLength="158" x="338" y="53.6348">update(deltaT: number) : void</text><!--MD5=[d1e13e6651c8934d9fc1bb5bc0810f7c]
class ControllerAI--><rect codeLine="17" fill="#FEFECE" filter="url(#frw93u2zxdy90)" height="125.7305" id="ControllerAI" style="stroke:#FF0000;stroke-width:1.5;" width="384" x="9" y="375.5"/><ellipse cx="163.25" cy="391.5" fill="#A9DCDF" rx="11" ry="11" style="stroke:#FF0000;stroke-width:1.0;"/><path d="M163.1133,386.8481 L161.9595,391.9199 L164.2754,391.9199 Z M161.6191,384.6069 L164.6157,384.6069 L167.9609,397 L165.5122,397 L164.7485,393.937 L161.4697,393.937 L160.7227,397 L158.2739,397 Z " fill="#000000"/><text fill="#000000" font-family="sans-serif" font-size="12" font-style="italic" lengthAdjust="spacing" textLength="67" x="183.75" y="396.0352">ControllerAI</text><line style="stroke:#FF0000;stroke-width:1.5;" x1="10" x2="392" y1="407.5" y2="407.5"/><polygon fill="none" points="20,413.5,24,417.5,20,421.5,16,417.5" style="stroke:#B38D22;stroke-width:1.0;"/><text fill="#000000" font-family="sans-serif" font-size="11" lengthAdjust="spacing" textLength="100" x="29" y="422.1348">owner : GameNode</text><line style="stroke:#FF0000;stroke-width:1.5;" x1="10" x2="392" y1="428.4551" y2="428.4551"/><ellipse cx="20" cy="439.4551" fill="#84BE84" rx="3" ry="3" style="stroke:#038048;stroke-width:1.0;"/><text fill="#000000" font-family="sans-serif" font-size="11" font-style="italic" lengthAdjust="spacing" textLength="241" x="29" y="443.0898">activate(options: Record&lt;string, any&gt;) : void</text><ellipse cx="20" cy="452.4102" fill="#84BE84" rx="3" ry="3" style="stroke:#038048;stroke-width:1.0;"/><text fill="#000000" font-family="sans-serif" font-size="11" lengthAdjust="spacing" textLength="81" x="29" y="456.0449">destroy() : void</text><ellipse cx="20" cy="465.3652" fill="#84BE84" rx="3" ry="3" style="stroke:#038048;stroke-width:1.0;"/><text fill="#000000" font-family="sans-serif" font-size="11" font-style="italic" lengthAdjust="spacing" textLength="199" x="29" y="469">handleEvent(event: GameEvent) : void</text><ellipse cx="20" cy="478.3203" fill="#84BE84" rx="3" ry="3" style="stroke:#038048;stroke-width:1.0;"/><text fill="#000000" font-family="sans-serif" font-size="11" font-style="italic" lengthAdjust="spacing" textLength="358" x="29" y="481.9551">initializeAI(owner: GameNode, options: Record&lt;string, any&gt;) : void</text><ellipse cx="20" cy="491.2754" fill="#84BE84" rx="3" ry="3" style="stroke:#038048;stroke-width:1.0;"/><text fill="#000000" font-family="sans-serif" font-size="11" font-style="italic" lengthAdjust="spacing" textLength="158" x="29" y="494.9102">update(deltaT: number) : void</text><!--MD5=[0cdd0e7ebd704d8f60acc0b0008ba0ae]
class StateMachineAI--><rect codeLine="26" fill="#FEFECE" filter="url(#frw93u2zxdy90)" height="307.1016" id="StateMachineAI" style="stroke:#FF0000;stroke-width:1.5;" width="381" x="428.5" y="285"/><ellipse cx="571.75" cy="301" fill="#ADD1B2" rx="11" ry="11" style="stroke:#FF0000;stroke-width:1.0;"/><path d="M574.2231,307.1431 Q573.6421,307.4419 573.0029,307.5913 Q572.3638,307.7407 571.6582,307.7407 Q569.1514,307.7407 567.8315,306.0889 Q566.5117,304.437 566.5117,301.3159 Q566.5117,298.1865 567.8315,296.5347 Q569.1514,294.8828 571.6582,294.8828 Q572.3638,294.8828 573.0112,295.0322 Q573.6587,295.1816 574.2231,295.4805 L574.2231,298.2031 Q573.5923,297.6221 572.9988,297.3523 Q572.4053,297.0825 571.7744,297.0825 Q570.4297,297.0825 569.7449,298.1492 Q569.0601,299.2158 569.0601,301.3159 Q569.0601,303.4077 569.7449,304.4744 Q570.4297,305.541 571.7744,305.541 Q572.4053,305.541 572.9988,305.2712 Q573.5923,305.0015 574.2231,304.4204 Z " fill="#000000"/><text fill="#000000" font-family="sans-serif" font-size="12" lengthAdjust="spacing" textLength="86" x="592.25" y="305.5352">StateMachineAI</text><line style="stroke:#FF0000;stroke-width:1.5;" x1="429.5" x2="808.5" y1="317" y2="317"/><polygon fill="none" points="439.5,323,443.5,327,439.5,331,435.5,327" style="stroke:#B38D22;stroke-width:1.0;"/><text fill="#000000" font-family="sans-serif" font-size="11" lengthAdjust="spacing" textLength="83" x="448.5" y="331.6348">active : boolean</text><polygon fill="none" points="439.5,335.9551,443.5,339.9551,439.5,343.9551,435.5,339.9551" style="stroke:#B38D22;stroke-width:1.0;"/><text fill="#000000" font-family="sans-serif" font-size="11" lengthAdjust="spacing" textLength="101" x="448.5" y="344.5898">currentState : State</text><polygon fill="none" points="439.5,348.9102,443.5,352.9102,439.5,356.9102,435.5,352.9102" style="stroke:#B38D22;stroke-width:1.0;"/><text fill="#000000" font-family="sans-serif" font-size="11" lengthAdjust="spacing" textLength="187" x="448.5" y="357.5449">emitEventOnStateChange : boolean</text><polygon fill="none" points="439.5,361.8652,443.5,365.8652,439.5,369.8652,435.5,365.8652" style="stroke:#B38D22;stroke-width:1.0;"/><text fill="#000000" font-family="sans-serif" font-size="11" lengthAdjust="spacing" textLength="85" x="448.5" y="370.5">emitter : Emitter</text><polygon fill="none" points="439.5,374.8203,443.5,378.8203,439.5,382.8203,435.5,378.8203" style="stroke:#B38D22;stroke-width:1.0;"/><text fill="#000000" font-family="sans-serif" font-size="11" lengthAdjust="spacing" textLength="100" x="448.5" y="383.4551">owner : GameNode</text><polygon fill="none" points="439.5,387.7754,443.5,391.7754,439.5,395.7754,435.5,391.7754" style="stroke:#B38D22;stroke-width:1.0;"/><text fill="#000000" font-family="sans-serif" font-size="11" lengthAdjust="spacing" textLength="97" x="448.5" y="396.4102">receiver : Receiver</text><polygon fill="none" points="439.5,400.7305,443.5,404.7305,439.5,408.7305,435.5,404.7305" style="stroke:#B38D22;stroke-width:1.0;"/><text fill="#000000" font-family="sans-serif" font-size="11" lengthAdjust="spacing" textLength="109" x="448.5" y="409.3652">stack : Stack&lt;State&gt;</text><polygon fill="none" points="439.5,413.6855,443.5,417.6855,439.5,421.6855,435.5,417.6855" style="stroke:#B38D22;stroke-width:1.0;"/><text fill="#000000" font-family="sans-serif" font-size="11" lengthAdjust="spacing" textLength="167" x="448.5" y="422.3203">stateChangeEventName : string</text><polygon fill="none" points="439.5,426.6406,443.5,430.6406,439.5,434.6406,435.5,430.6406" style="stroke:#B38D22;stroke-width:1.0;"/><text fill="#000000" font-family="sans-serif" font-size="11" lengthAdjust="spacing" textLength="123" x="448.5" y="435.2754">stateMap : Map&lt;State&gt;</text><line style="stroke:#FF0000;stroke-width:1.5;" x1="429.5" x2="808.5" y1="441.5957" y2="441.5957"/><ellipse cx="439.5" cy="452.5957" fill="#84BE84" rx="3" ry="3" style="stroke:#038048;stroke-width:1.0;"/><text fill="#000000" font-family="sans-serif" font-size="11" lengthAdjust="spacing" textLength="241" x="448.5" y="456.2305">activate(options: Record&lt;string, any&gt;) : void</text><ellipse cx="439.5" cy="465.5508" fill="#84BE84" rx="3" ry="3" style="stroke:#038048;stroke-width:1.0;"/><text fill="#000000" font-family="sans-serif" font-size="11" lengthAdjust="spacing" textLength="244" x="448.5" y="469.1855">addState(stateName: string, state: State) : void</text><ellipse cx="439.5" cy="478.5059" fill="#84BE84" rx="3" ry="3" style="stroke:#038048;stroke-width:1.0;"/><text fill="#000000" font-family="sans-serif" font-size="11" lengthAdjust="spacing" textLength="209" x="448.5" y="482.1406">cancelEmitEventOnStateChange() : void</text><ellipse cx="439.5" cy="491.4609" fill="#84BE84" rx="3" ry="3" style="stroke:#038048;stroke-width:1.0;"/><text fill="#000000" font-family="sans-serif" font-size="11" lengthAdjust="spacing" textLength="169" x="448.5" y="495.0957">changeState(state: string) : void</text><ellipse cx="439.5" cy="504.416" fill="#84BE84" rx="3" ry="3" style="stroke:#038048;stroke-width:1.0;"/><text fill="#000000" font-family="sans-serif" font-size="11" lengthAdjust="spacing" textLength="81" x="448.5" y="508.0508">destroy() : void</text><ellipse cx="439.5" cy="517.3711" fill="#84BE84" rx="3" ry="3" style="stroke:#038048;stroke-width:1.0;"/><text fill="#000000" font-family="sans-serif" font-size="11" lengthAdjust="spacing" textLength="199" x="448.5" y="521.0059">handleEvent(event: GameEvent) : void</text><ellipse cx="439.5" cy="530.3262" fill="#84BE84" rx="3" ry="3" style="stroke:#038048;stroke-width:1.0;"/><text fill="#000000" font-family="sans-serif" font-size="11" lengthAdjust="spacing" textLength="343" x="448.5" y="533.9609">initialize(initialState: string, options: Record&lt;string, any&gt;) : void</text><ellipse cx="439.5" cy="543.2813" fill="#84BE84" rx="3" ry="3" style="stroke:#038048;stroke-width:1.0;"/><text fill="#000000" font-family="sans-serif" font-size="11" lengthAdjust="spacing" textLength="351" x="448.5" y="546.916">initializeAI(owner: GameNode, config: Record&lt;string, any&gt;) : void</text><ellipse cx="439.5" cy="556.2363" fill="#84BE84" rx="3" ry="3" style="stroke:#038048;stroke-width:1.0;"/><text fill="#000000" font-family="sans-serif" font-size="11" lengthAdjust="spacing" textLength="158" x="448.5" y="559.8711">setActive(flag: boolean) : void</text><ellipse cx="439.5" cy="569.1914" fill="#84BE84" rx="3" ry="3" style="stroke:#038048;stroke-width:1.0;"/><text fill="#000000" font-family="sans-serif" font-size="11" lengthAdjust="spacing" textLength="355" x="448.5" y="572.8262">setEmitEventOnStateChange(stateChangeEventName: string) : void</text><ellipse cx="439.5" cy="582.1465" fill="#84BE84" rx="3" ry="3" style="stroke:#038048;stroke-width:1.0;"/><text fill="#000000" font-family="sans-serif" font-size="11" lengthAdjust="spacing" textLength="158" x="448.5" y="585.7813">update(deltaT: number) : void</text><!--MD5=[c5e8ac391f407d9b8396aceaeb34a98c]
reverse link Updateable to AI--><path codeLine="16" d="M410,80.62 C410,93.19 410,106.88 410,119.74 " fill="none" id="Updateable-backto-AI" style="stroke:#FF0000;stroke-width:1.0;"/><polygon fill="none" points="403,80.27,410,60.27,417,80.27,403,80.27" style="stroke:#FF0000;stroke-width:1.0;"/><!--MD5=[20ce14433150aa56afc93d0ab0afcf45]
reverse link AI to ControllerAI--><path codeLine="25" d="M356.66,240.88 C323.86,282.3 282.14,335.01 250.15,375.42 " fill="none" id="AI-backto-ControllerAI" style="stroke:#FF0000;stroke-width:1.0;stroke-dasharray:7.0,7.0;"/><polygon fill="none" points="351.3,236.36,369.21,225.03,362.28,245.05,351.3,236.36" style="stroke:#FF0000;stroke-width:1.0;"/><!--MD5=[34bfc0b12665d3d2eb2a193a65710028]
reverse link AI to StateMachineAI--><path codeLine="48" d="M463.47,241.04 C474.29,254.71 486.08,269.6 498.16,284.87 " fill="none" id="AI-backto-StateMachineAI" style="stroke:#FF0000;stroke-width:1.0;stroke-dasharray:7.0,7.0;"/><polygon fill="none" points="457.72,245.05,450.79,225.03,468.7,236.36,457.72,245.05" style="stroke:#FF0000;stroke-width:1.0;"/><!--MD5=[6743f9d1fde4fa79ef1d13f136fd4f8a]
@startuml
skinparam ClassArrowColor #ff0000
skinparam ClassBorderColor #ff0000
skinparam BackgroundColor transparent
hide empty methods
hide empty fields
interface "AI" {
    +activate(options: Record<string, any>) : void
    +destroy() : void
    +handleEvent(event: GameEvent) : void
    +initializeAI(owner: GameNode, options: Record<string, any>) : void
    +update(deltaT: number) : void
}
interface "Updateable" {
    +update(deltaT: number) : void
}
"Updateable" <|- - "AI"
abstract class "ControllerAI" {
    #owner : GameNode
    {abstract} +activate(options: Record<string, any>) : void
    +destroy() : void
    {abstract} +handleEvent(event: GameEvent) : void
    {abstract} +initializeAI(owner: GameNode, options: Record<string, any>) : void
    {abstract} +update(deltaT: number) : void
}
"AI" <|.. "ControllerAI"
class "StateMachineAI" {
    #active : boolean
    #currentState : State
    #emitEventOnStateChange : boolean
    #emitter : Emitter
    #owner : GameNode
    #receiver : Receiver
    #stack : Stack<State>
    #stateChangeEventName : string
    #stateMap : Map<State>
    +activate(options: Record<string, any>) : void
    +addState(stateName: string, state: State) : void
    +cancelEmitEventOnStateChange() : void
    +changeState(state: string) : void
    +destroy() : void
    +handleEvent(event: GameEvent) : void
    +initialize(initialState: string, options: Record<string, any>) : void
    +initializeAI(owner: GameNode, config: Record<string, any>) : void
    +setActive(flag: boolean) : void
    +setEmitEventOnStateChange(stateChangeEventName: string) : void
    +update(deltaT: number) : void
}
"AI" <|.. "StateMachineAI"
@enduml

PlantUML version 1.2021.14(Fri Nov 12 11:46:50 EST 2021)
(GPL source distribution)
Java Runtime: Java(TM) SE Runtime Environment
JVM: Java HotSpot(TM) 64-Bit Server VM
Default Encoding: UTF-8
Language: en
Country: US
--></g></svg>