<?xml version="1.0" encoding="UTF-8" standalone="no"?><svg xmlns="http://www.w3.org/2000/svg" xmlns:xlink="http://www.w3.org/1999/xlink" contentScriptType="application/ecmascript" contentStyleType="text/css" height="272px" preserveAspectRatio="none" style="width:301px;height:272px;background:#00000000;" version="1.1" viewBox="0 0 301 272" width="301px" zoomAndPan="magnify"><defs><filter height="300%" id="f1syqtqemug1lg" width="300%" x="-1" y="-1"><feGaussianBlur result="blurOut" stdDeviation="2.0"/><feColorMatrix in="blurOut" result="blurOut2" type="matrix" values="0 0 0 0 0 0 0 0 0 0 0 0 0 0 0 0 0 0 .4 0"/><feOffset dx="4.0" dy="4.0" in="blurOut2" result="blurOut3"/><feBlend in="SourceGraphic" in2="blurOut3" mode="normal"/></filter></defs><g><!--MD5=[2f952d4aa9e2b4b658a5bf7b7ae30090]
class AIManager--><rect codeLine="6" fill="#FEFECE" filter="url(#f1syqtqemug1lg)" height="138.6855" id="AIManager" style="stroke:#FF0000;stroke-width:1.5;" width="280" x="7" y="120"/><ellipse cx="112.25" cy="136" fill="#ADD1B2" rx="11" ry="11" style="stroke:#FF0000;stroke-width:1.0;"/><path d="M114.7231,142.1431 Q114.1421,142.4419 113.5029,142.5913 Q112.8638,142.7407 112.1582,142.7407 Q109.6514,142.7407 108.3315,141.0889 Q107.0117,139.437 107.0117,136.3159 Q107.0117,133.1865 108.3315,131.5347 Q109.6514,129.8828 112.1582,129.8828 Q112.8638,129.8828 113.5112,130.0322 Q114.1587,130.1816 114.7231,130.4805 L114.7231,133.2031 Q114.0923,132.6221 113.4988,132.3523 Q112.9053,132.0825 112.2744,132.0825 Q110.9297,132.0825 110.2449,133.1492 Q109.5601,134.2158 109.5601,136.3159 Q109.5601,138.4077 110.2449,139.4744 Q110.9297,140.541 112.2744,140.541 Q112.9053,140.541 113.4988,140.2712 Q114.0923,140.0015 114.7231,139.4204 Z " fill="#000000"/><text fill="#000000" font-family="sans-serif" font-size="12" lengthAdjust="spacing" textLength="61" x="132.75" y="140.5352">AIManager</text><line style="stroke:#FF0000;stroke-width:1.5;" x1="8" x2="286" y1="152" y2="152"/><ellipse cx="18" cy="163" rx="3" ry="3" style="stroke:#038048;stroke-width:1.0;fill:none;"/><text fill="#000000" font-family="sans-serif" font-size="11" lengthAdjust="spacing" textLength="81" x="27" y="166.6348">actors : Actor[]</text><ellipse cx="18" cy="175.9551" rx="3" ry="3" style="stroke:#038048;stroke-width:1.0;fill:none;"/><text fill="#000000" font-family="sans-serif" font-size="11" lengthAdjust="spacing" textLength="192" x="27" y="179.5898">registeredAI : Map&lt;AIConstructor&gt;</text><line style="stroke:#FF0000;stroke-width:1.5;" x1="8" x2="286" y1="185.9102" y2="185.9102"/><ellipse cx="18" cy="196.9102" fill="#84BE84" rx="3" ry="3" style="stroke:#038048;stroke-width:1.0;"/><text fill="#000000" font-family="sans-serif" font-size="11" lengthAdjust="spacing" textLength="202" x="27" y="200.5449">generateAI(name: string) : AI | GoapAI</text><ellipse cx="18" cy="209.8652" fill="#84BE84" rx="3" ry="3" style="stroke:#038048;stroke-width:1.0;"/><text fill="#000000" font-family="sans-serif" font-size="11" lengthAdjust="spacing" textLength="176" x="27" y="213.5">registerActor(actor: Actor) : void</text><ellipse cx="18" cy="222.8203" fill="#84BE84" rx="3" ry="3" style="stroke:#038048;stroke-width:1.0;"/><text fill="#000000" font-family="sans-serif" font-size="11" lengthAdjust="spacing" textLength="254" x="27" y="226.4551">registerAI(name: string, constr: Function) : void</text><ellipse cx="18" cy="235.7754" fill="#84BE84" rx="3" ry="3" style="stroke:#038048;stroke-width:1.0;"/><text fill="#000000" font-family="sans-serif" font-size="11" lengthAdjust="spacing" textLength="174" x="27" y="239.4102">removeActor(actor: Actor) : void</text><ellipse cx="18" cy="248.7305" fill="#84BE84" rx="3" ry="3" style="stroke:#038048;stroke-width:1.0;"/><text fill="#000000" font-family="sans-serif" font-size="11" lengthAdjust="spacing" textLength="158" x="27" y="252.3652">update(deltaT: number) : void</text><!--MD5=[8336922478991a54f539d469b4e48cc0]
class Updateable--><rect codeLine="15" fill="#FEFECE" filter="url(#f1syqtqemug1lg)" height="52.9551" id="Updateable" style="stroke:#FF0000;stroke-width:1.5;" width="184" x="55" y="7"/><ellipse cx="109.25" cy="23" fill="#B4A7E5" rx="11" ry="11" style="stroke:#FF0000;stroke-width:1.0;"/><path d="M105.6777,19.2651 L105.6777,17.1069 L113.0571,17.1069 L113.0571,19.2651 L110.5918,19.2651 L110.5918,27.3418 L113.0571,27.3418 L113.0571,29.5 L105.6777,29.5 L105.6777,27.3418 L108.1431,27.3418 L108.1431,19.2651 Z " fill="#000000"/><text fill="#000000" font-family="sans-serif" font-size="12" font-style="italic" lengthAdjust="spacing" textLength="67" x="129.75" y="27.5352">Updateable</text><line style="stroke:#FF0000;stroke-width:1.5;" x1="56" x2="238" y1="39" y2="39"/><ellipse cx="66" cy="50" fill="#84BE84" rx="3" ry="3" style="stroke:#038048;stroke-width:1.0;"/><text fill="#000000" font-family="sans-serif" font-size="11" lengthAdjust="spacing" textLength="158" x="75" y="53.6348">update(deltaT: number) : void</text><!--MD5=[52c0d270cfdc9e964512c93fec264120]
reverse link Updateable to AIManager--><path codeLine="18" d="M147,80.71 C147,93.01 147,106.56 147,119.78 " fill="none" id="Updateable-backto-AIManager" style="stroke:#FF0000;stroke-width:1.0;stroke-dasharray:7.0,7.0;"/><polygon fill="none" points="140,80.28,147,60.28,154,80.28,140,80.28" style="stroke:#FF0000;stroke-width:1.0;"/><!--MD5=[64b5324078da90393d018e218d04833c]
@startuml
skinparam ClassArrowColor #ff0000
skinparam ClassBorderColor #ff0000
skinparam BackgroundColor transparent
hide empty methods
hide empty fields
class "AIManager" {
    +actors : Actor[]
    +registeredAI : Map<AIConstructor>
    +generateAI(name: string) : AI | GoapAI
    +registerActor(actor: Actor) : void
    +registerAI(name: string, constr: Function) : void
    +removeActor(actor: Actor) : void
    +update(deltaT: number) : void
}
interface "Updateable" {
    +update(deltaT: number) : void
}
"Updateable" <|.. "AIManager"
@enduml

PlantUML version 1.2021.14(Fri Nov 12 11:46:50 EST 2021)
(GPL source distribution)
Java Runtime: Java(TM) SE Runtime Environment
JVM: Java HotSpot(TM) 64-Bit Server VM
Default Encoding: UTF-8
Language: en
Country: US
--></g></svg>