<?xml version="1.0" encoding="UTF-8" standalone="no"?><svg xmlns="http://www.w3.org/2000/svg" xmlns:xlink="http://www.w3.org/1999/xlink" contentScriptType="application/ecmascript" contentStyleType="text/css" height="145px" preserveAspectRatio="none" style="width:125px;height:145px;background:#00000000;" version="1.1" viewBox="0 0 125 145" width="125px" zoomAndPan="magnify"><defs><filter height="300%" id="f1drejjw4itzqc" width="300%" x="-1" y="-1"><feGaussianBlur result="blurOut" stdDeviation="2.0"/><feColorMatrix in="blurOut" result="blurOut2" type="matrix" values="0 0 0 0 0 0 0 0 0 0 0 0 0 0 0 0 0 0 .4 0"/><feOffset dx="4.0" dy="4.0" in="blurOut2" result="blurOut3"/><feBlend in="SourceGraphic" in2="blurOut3" mode="normal"/></filter></defs><g><!--MD5=[ae502c27f70242ed1e04d7ee725c894e]
class BattleSystem--><rect codeLine="6" fill="#FEFECE" filter="url(#f1drejjw4itzqc)" height="32" id="BattleSystem" style="stroke:#FF0000;stroke-width:1.5;" width="104" x="7" y="99"/><ellipse cx="22" cy="115" fill="#A9DCDF" rx="11" ry="11" style="stroke:#FF0000;stroke-width:1.0;"/><path d="M21.8633,110.3481 L20.7095,115.4199 L23.0254,115.4199 Z M20.3691,108.1069 L23.3657,108.1069 L26.7109,120.5 L24.2622,120.5 L23.4985,117.437 L20.2197,117.437 L19.4727,120.5 L17.0239,120.5 Z " fill="#000000"/><text fill="#000000" font-family="sans-serif" font-size="12" font-style="italic" lengthAdjust="spacing" textLength="72" x="36" y="119.5352">BattleSystem</text><!--MD5=[8336922478991a54f539d469b4e48cc0]
class Updateable--><rect codeLine="8" fill="#FEFECE" filter="url(#f1drejjw4itzqc)" height="32" id="Updateable" style="stroke:#FF0000;stroke-width:1.5;" width="99" x="9.5" y="7"/><ellipse cx="24.5" cy="23" fill="#B4A7E5" rx="11" ry="11" style="stroke:#FF0000;stroke-width:1.0;"/><path d="M20.9277,19.2651 L20.9277,17.1069 L28.3071,17.1069 L28.3071,19.2651 L25.8418,19.2651 L25.8418,27.3418 L28.3071,27.3418 L28.3071,29.5 L20.9277,29.5 L20.9277,27.3418 L23.3931,27.3418 L23.3931,19.2651 Z " fill="#000000"/><text fill="#000000" font-family="sans-serif" font-size="12" font-style="italic" lengthAdjust="spacing" textLength="67" x="38.5" y="27.5352">Updateable</text><!--MD5=[116a87e6de8842d7780aca7d13997841]
reverse link Updateable to BattleSystem--><path codeLine="10" d="M59,59.61 C59,73.31 59,88.22 59,98.96 " fill="none" id="Updateable-backto-BattleSystem" style="stroke:#FF0000;stroke-width:1.0;stroke-dasharray:7.0,7.0;"/><polygon fill="none" points="52,59.27,59,39.27,66,59.27,52,59.27" style="stroke:#FF0000;stroke-width:1.0;"/><!--MD5=[62131bb685ad77e90f05e4463c113c12]
@startuml
skinparam ClassArrowColor #ff0000
skinparam ClassBorderColor #ff0000
skinparam BackgroundColor transparent
hide empty methods
hide empty fields
abstract class "BattleSystem" {
}
interface "Updateable" {
}
"Updateable" <|.. "BattleSystem"
@enduml

PlantUML version 1.2021.14(Fri Nov 12 11:46:50 EST 2021)
(GPL source distribution)
Java Runtime: Java(TM) SE Runtime Environment
JVM: Java HotSpot(TM) 64-Bit Server VM
Default Encoding: UTF-8
Language: en
Country: US
--></g></svg>