<?xml version="1.0" encoding="UTF-8" standalone="no"?><svg xmlns="http://www.w3.org/2000/svg" xmlns:xlink="http://www.w3.org/1999/xlink" contentScriptType="application/ecmascript" contentStyleType="text/css" height="145px" preserveAspectRatio="none" style="width:89px;height:145px;background:#00000000;" version="1.1" viewBox="0 0 89 145" width="89px" zoomAndPan="magnify"><defs><filter height="300%" id="fwp1pynmhhgud" width="300%" x="-1" y="-1"><feGaussianBlur result="blurOut" stdDeviation="2.0"/><feColorMatrix in="blurOut" result="blurOut2" type="matrix" values="0 0 0 0 0 0 0 0 0 0 0 0 0 0 0 0 0 0 .4 0"/><feOffset dx="4.0" dy="4.0" in="blurOut2" result="blurOut3"/><feBlend in="SourceGraphic" in2="blurOut3" mode="normal"/></filter></defs><g><!--MD5=[90ba54f54370e77ef24813dec6818fa3]
class Button--><rect codeLine="6" fill="#FEFECE" filter="url(#fwp1pynmhhgud)" height="32" id="Button" style="stroke:#FF0000;stroke-width:1.5;" width="68" x="7" y="99"/><ellipse cx="22" cy="115" fill="#ADD1B2" rx="11" ry="11" style="stroke:#FF0000;stroke-width:1.0;"/><path d="M24.4731,121.1431 Q23.8921,121.4419 23.2529,121.5913 Q22.6138,121.7407 21.9082,121.7407 Q19.4014,121.7407 18.0815,120.0889 Q16.7617,118.437 16.7617,115.3159 Q16.7617,112.1865 18.0815,110.5347 Q19.4014,108.8828 21.9082,108.8828 Q22.6138,108.8828 23.2612,109.0322 Q23.9087,109.1816 24.4731,109.4805 L24.4731,112.2031 Q23.8423,111.6221 23.2488,111.3523 Q22.6553,111.0825 22.0244,111.0825 Q20.6797,111.0825 19.9949,112.1492 Q19.3101,113.2158 19.3101,115.3159 Q19.3101,117.4077 19.9949,118.4744 Q20.6797,119.541 22.0244,119.541 Q22.6553,119.541 23.2488,119.2712 Q23.8423,119.0015 24.4731,118.4204 Z " fill="#000000"/><text fill="#000000" font-family="sans-serif" font-size="12" lengthAdjust="spacing" textLength="36" x="36" y="119.5352">Button</text><!--MD5=[e84c991d4d3bbf916ee1653c86a9249d]
class Label--><rect codeLine="8" fill="#FEFECE" filter="url(#fwp1pynmhhgud)" height="32" id="Label" style="stroke:#FF0000;stroke-width:1.5;" width="63" x="9.5" y="7"/><ellipse cx="24.5" cy="23" fill="#ADD1B2" rx="11" ry="11" style="stroke:#FF0000;stroke-width:1.0;"/><path d="M26.9731,29.1431 Q26.3921,29.4419 25.7529,29.5913 Q25.1138,29.7407 24.4082,29.7407 Q21.9014,29.7407 20.5815,28.0889 Q19.2617,26.437 19.2617,23.3159 Q19.2617,20.1865 20.5815,18.5347 Q21.9014,16.8828 24.4082,16.8828 Q25.1138,16.8828 25.7612,17.0322 Q26.4087,17.1816 26.9731,17.4805 L26.9731,20.2031 Q26.3423,19.6221 25.7488,19.3523 Q25.1553,19.0825 24.5244,19.0825 Q23.1797,19.0825 22.4949,20.1492 Q21.8101,21.2158 21.8101,23.3159 Q21.8101,25.4077 22.4949,26.4744 Q23.1797,27.541 24.5244,27.541 Q25.1553,27.541 25.7488,27.2712 Q26.3423,27.0015 26.9731,26.4204 Z " fill="#000000"/><text fill="#000000" font-family="sans-serif" font-size="12" lengthAdjust="spacing" textLength="31" x="38.5" y="27.5352">Label</text><!--MD5=[b846ab01a60b6cd7dedb4b6bba98bdb5]
reverse link Label to Button--><path codeLine="10" d="M41,59.61 C41,73.31 41,88.22 41,98.96 " fill="none" id="Label-backto-Button" style="stroke:#FF0000;stroke-width:1.0;"/><polygon fill="none" points="34,59.27,41,39.27,48,59.27,34,59.27" style="stroke:#FF0000;stroke-width:1.0;"/><!--MD5=[3f9597ee2aad58016e5938bda7990949]
@startuml
skinparam ClassArrowColor #ff0000
skinparam ClassBorderColor #ff0000
skinparam BackgroundColor transparent
hide empty methods
hide empty fields
class "Button" {
}
class "Label" {
}
"Label" <|- - "Button"
@enduml

PlantUML version 1.2021.14(Fri Nov 12 11:46:50 EST 2021)
(GPL source distribution)
Java Runtime: Java(TM) SE Runtime Environment
JVM: Java HotSpot(TM) 64-Bit Server VM
Default Encoding: UTF-8
Language: en
Country: US
--></g></svg>