<?xml version="1.0" encoding="UTF-8" standalone="no"?><svg xmlns="http://www.w3.org/2000/svg" xmlns:xlink="http://www.w3.org/1999/xlink" contentScriptType="application/ecmascript" contentStyleType="text/css" height="145px" preserveAspectRatio="none" style="width:162px;height:145px;background:#00000000;" version="1.1" viewBox="0 0 162 145" width="162px" zoomAndPan="magnify"><defs><filter height="300%" id="fk71vuafis9q9" width="300%" x="-1" y="-1"><feGaussianBlur result="blurOut" stdDeviation="2.0"/><feColorMatrix in="blurOut" result="blurOut2" type="matrix" values="0 0 0 0 0 0 0 0 0 0 0 0 0 0 0 0 0 0 .4 0"/><feOffset dx="4.0" dy="4.0" in="blurOut2" result="blurOut3"/><feBlend in="SourceGraphic" in2="blurOut3" mode="normal"/></filter></defs><g><!--MD5=[fa8ecb3e39b35324ad6f36cae2f42f75]
class CanvasRenderer--><rect codeLine="6" fill="#FEFECE" filter="url(#fk71vuafis9q9)" height="32" id="CanvasRenderer" style="stroke:#FF0000;stroke-width:1.5;" width="127" x="14" y="99"/><ellipse cx="29" cy="115" fill="#ADD1B2" rx="11" ry="11" style="stroke:#FF0000;stroke-width:1.0;"/><path d="M31.4731,121.1431 Q30.8921,121.4419 30.2529,121.5913 Q29.6138,121.7407 28.9082,121.7407 Q26.4014,121.7407 25.0815,120.0889 Q23.7617,118.437 23.7617,115.3159 Q23.7617,112.1865 25.0815,110.5347 Q26.4014,108.8828 28.9082,108.8828 Q29.6138,108.8828 30.2612,109.0322 Q30.9087,109.1816 31.4731,109.4805 L31.4731,112.2031 Q30.8423,111.6221 30.2488,111.3523 Q29.6553,111.0825 29.0244,111.0825 Q27.6797,111.0825 26.9949,112.1492 Q26.3101,113.2158 26.3101,115.3159 Q26.3101,117.4077 26.9949,118.4744 Q27.6797,119.541 29.0244,119.541 Q29.6553,119.541 30.2488,119.2712 Q30.8423,119.0015 31.4731,118.4204 Z " fill="#000000"/><text fill="#000000" font-family="sans-serif" font-size="12" lengthAdjust="spacing" textLength="95" x="43" y="119.5352">CanvasRenderer</text><!--MD5=[b2ada768cd946f90616e4aa0cdf316b8]
class RenderingManager--><rect codeLine="8" fill="#FEFECE" filter="url(#fk71vuafis9q9)" height="32" id="RenderingManager" style="stroke:#FF0000;stroke-width:1.5;" width="141" x="7" y="7"/><ellipse cx="22" cy="23" fill="#A9DCDF" rx="11" ry="11" style="stroke:#FF0000;stroke-width:1.0;"/><path d="M21.8633,18.3481 L20.7095,23.4199 L23.0254,23.4199 Z M20.3691,16.1069 L23.3657,16.1069 L26.7109,28.5 L24.2622,28.5 L23.4985,25.437 L20.2197,25.437 L19.4727,28.5 L17.0239,28.5 Z " fill="#000000"/><text fill="#000000" font-family="sans-serif" font-size="12" font-style="italic" lengthAdjust="spacing" textLength="109" x="36" y="27.5352">RenderingManager</text><!--MD5=[5f169679acda06eae839159278597325]
reverse link RenderingManager to CanvasRenderer--><path codeLine="10" d="M77.5,59.61 C77.5,73.31 77.5,88.22 77.5,98.96 " fill="none" id="RenderingManager-backto-CanvasRenderer" style="stroke:#FF0000;stroke-width:1.0;"/><polygon fill="none" points="70.5,59.27,77.5,39.27,84.5,59.27,70.5,59.27" style="stroke:#FF0000;stroke-width:1.0;"/><!--MD5=[6b0d3206c869cbad9bea125ffbdbd3dc]
@startuml
skinparam ClassArrowColor #ff0000
skinparam ClassBorderColor #ff0000
skinparam BackgroundColor transparent
hide empty methods
hide empty fields
class "CanvasRenderer" {
}
abstract class "RenderingManager" {
}
"RenderingManager" <|- - "CanvasRenderer"
@enduml

PlantUML version 1.2021.14(Fri Nov 12 11:46:50 EST 2021)
(GPL source distribution)
Java Runtime: Java(TM) SE Runtime Environment
JVM: Java HotSpot(TM) 64-Bit Server VM
Default Encoding: UTF-8
Language: en
Country: US
--></g></svg>