<?xml version="1.0" encoding="UTF-8" standalone="no"?><svg xmlns="http://www.w3.org/2000/svg" xmlns:xlink="http://www.w3.org/1999/xlink" contentScriptType="application/ecmascript" contentStyleType="text/css" height="237px" preserveAspectRatio="none" style="width:436px;height:237px;background:#00000000;" version="1.1" viewBox="0 0 436 237" width="436px" zoomAndPan="magnify"><defs><filter height="300%" id="f1g708a4gw5n5b" width="300%" x="-1" y="-1"><feGaussianBlur result="blurOut" stdDeviation="2.0"/><feColorMatrix in="blurOut" result="blurOut2" type="matrix" values="0 0 0 0 0 0 0 0 0 0 0 0 0 0 0 0 0 0 .4 0"/><feOffset dx="4.0" dy="4.0" in="blurOut2" result="blurOut3"/><feBlend in="SourceGraphic" in2="blurOut3" mode="normal"/></filter></defs><g><!--MD5=[2e70b9baf931f95a6b812c993ae5d283]
class CanvasNode--><rect codeLine="6" fill="#FEFECE" filter="url(#f1g708a4gw5n5b)" height="32" id="CanvasNode" style="stroke:#FF0000;stroke-width:1.5;" width="104" x="152.5" y="99"/><ellipse cx="167.5" cy="115" fill="#A9DCDF" rx="11" ry="11" style="stroke:#FF0000;stroke-width:1.0;"/><path d="M167.3633,110.3481 L166.2095,115.4199 L168.5254,115.4199 Z M165.8691,108.1069 L168.8657,108.1069 L172.2109,120.5 L169.7622,120.5 L168.9985,117.437 L165.7197,117.437 L164.9727,120.5 L162.5239,120.5 Z " fill="#000000"/><text fill="#000000" font-family="sans-serif" font-size="12" font-style="italic" lengthAdjust="spacing" textLength="72" x="181.5" y="119.5352">CanvasNode</text><!--MD5=[372f7354164cd38fc5cfe01cbfd4962a]
class GameNode--><rect codeLine="8" fill="#FEFECE" filter="url(#f1g708a4gw5n5b)" height="32" id="GameNode" style="stroke:#FF0000;stroke-width:1.5;" width="97" x="156" y="7"/><ellipse cx="171" cy="23" fill="#A9DCDF" rx="11" ry="11" style="stroke:#FF0000;stroke-width:1.0;"/><path d="M170.8633,18.3481 L169.7095,23.4199 L172.0254,23.4199 Z M169.3691,16.1069 L172.3657,16.1069 L175.7109,28.5 L173.2622,28.5 L172.4985,25.437 L169.2197,25.437 L168.4727,28.5 L166.0239,28.5 Z " fill="#000000"/><text fill="#000000" font-family="sans-serif" font-size="12" font-style="italic" lengthAdjust="spacing" textLength="65" x="185" y="27.5352">GameNode</text><!--MD5=[7340ddc93ee3d3f5fef34806a115f504]
class Graphic--><rect codeLine="11" fill="#FEFECE" filter="url(#f1g708a4gw5n5b)" height="32" id="Graphic" style="stroke:#FF0000;stroke-width:1.5;" width="77" x="7" y="191"/><ellipse cx="22" cy="207" fill="#A9DCDF" rx="11" ry="11" style="stroke:#FF0000;stroke-width:1.0;"/><path d="M21.8633,202.3481 L20.7095,207.4199 L23.0254,207.4199 Z M20.3691,200.1069 L23.3657,200.1069 L26.7109,212.5 L24.2622,212.5 L23.4985,209.437 L20.2197,209.437 L19.4727,212.5 L17.0239,212.5 Z " fill="#000000"/><text fill="#000000" font-family="sans-serif" font-size="12" font-style="italic" lengthAdjust="spacing" textLength="45" x="36" y="211.5352">Graphic</text><!--MD5=[85c2ed8dbf494cb60783de624603a7dd]
class Sprite--><rect codeLine="14" fill="#FEFECE" filter="url(#f1g708a4gw5n5b)" height="32" id="Sprite" style="stroke:#FF0000;stroke-width:1.5;" width="65" x="119" y="191"/><ellipse cx="134" cy="207" fill="#ADD1B2" rx="11" ry="11" style="stroke:#FF0000;stroke-width:1.0;"/><path d="M136.4731,213.1431 Q135.8921,213.4419 135.2529,213.5913 Q134.6138,213.7407 133.9082,213.7407 Q131.4014,213.7407 130.0815,212.0889 Q128.7617,210.437 128.7617,207.3159 Q128.7617,204.1865 130.0815,202.5347 Q131.4014,200.8828 133.9082,200.8828 Q134.6138,200.8828 135.2612,201.0322 Q135.9087,201.1816 136.4731,201.4805 L136.4731,204.2031 Q135.8423,203.6221 135.2488,203.3523 Q134.6553,203.0825 134.0244,203.0825 Q132.6797,203.0825 131.9949,204.1492 Q131.3101,205.2158 131.3101,207.3159 Q131.3101,209.4077 131.9949,210.4744 Q132.6797,211.541 134.0244,211.541 Q134.6553,211.541 135.2488,211.2712 Q135.8423,211.0015 136.4731,210.4204 Z " fill="#000000"/><text fill="#000000" font-family="sans-serif" font-size="12" lengthAdjust="spacing" textLength="33" x="148" y="211.5352">Sprite</text><!--MD5=[7364a416b8b32844308807b3cb580f4a]
class Tilemap--><rect codeLine="17" fill="#FEFECE" filter="url(#f1g708a4gw5n5b)" height="32" id="Tilemap" style="stroke:#FF0000;stroke-width:1.5;" width="79" x="219" y="191"/><ellipse cx="234" cy="207" fill="#A9DCDF" rx="11" ry="11" style="stroke:#FF0000;stroke-width:1.0;"/><path d="M233.8633,202.3481 L232.7095,207.4199 L235.0254,207.4199 Z M232.3691,200.1069 L235.3657,200.1069 L238.7109,212.5 L236.2622,212.5 L235.4985,209.437 L232.2197,209.437 L231.4727,212.5 L229.0239,212.5 Z " fill="#000000"/><text fill="#000000" font-family="sans-serif" font-size="12" font-style="italic" lengthAdjust="spacing" textLength="47" x="248" y="211.5352">Tilemap</text><!--MD5=[a49b7276910d6619e9702881d69ae75a]
class UIElement--><rect codeLine="20" fill="#FEFECE" filter="url(#f1g708a4gw5n5b)" height="32" id="UIElement" style="stroke:#FF0000;stroke-width:1.5;" width="89" x="333" y="191"/><ellipse cx="348" cy="207" fill="#A9DCDF" rx="11" ry="11" style="stroke:#FF0000;stroke-width:1.0;"/><path d="M347.8633,202.3481 L346.7095,207.4199 L349.0254,207.4199 Z M346.3691,200.1069 L349.3657,200.1069 L352.7109,212.5 L350.2622,212.5 L349.4985,209.437 L346.2197,209.437 L345.4727,212.5 L343.0239,212.5 Z " fill="#000000"/><text fill="#000000" font-family="sans-serif" font-size="12" font-style="italic" lengthAdjust="spacing" textLength="57" x="362" y="211.5352">UIElement</text><!--MD5=[3479c302f3db370c517a2738c0ce18e8]
reverse link GameNode to CanvasNode--><path codeLine="10" d="M204.5,59.61 C204.5,73.31 204.5,88.22 204.5,98.96 " fill="none" id="GameNode-backto-CanvasNode" style="stroke:#FF0000;stroke-width:1.0;"/><polygon fill="none" points="197.5,59.27,204.5,39.27,211.5,59.27,197.5,59.27" style="stroke:#FF0000;stroke-width:1.0;"/><!--MD5=[d003a9a1065af00df050b0f80ad30ecb]
reverse link CanvasNode to Graphic--><path codeLine="13" d="M160.16,141.1 C131.89,157.1 96.19,177.31 72.2,190.89 " fill="none" id="CanvasNode-backto-Graphic" style="stroke:#FF0000;stroke-width:1.0;"/><polygon fill="none" points="157.03,134.82,177.89,131.06,163.93,147.01,157.03,134.82" style="stroke:#FF0000;stroke-width:1.0;"/><!--MD5=[ac1e2172c441ef3447e8a56f16d2940c]
reverse link CanvasNode to Sprite--><path codeLine="16" d="M185.26,148.67 C176.74,163.13 167.14,179.44 160.36,190.96 " fill="none" id="CanvasNode-backto-Sprite" style="stroke:#FF0000;stroke-width:1.0;"/><polygon fill="none" points="179.33,144.95,195.51,131.27,191.39,152.05,179.33,144.95" style="stroke:#FF0000;stroke-width:1.0;"/><!--MD5=[1977314f01eff6be06d0263f5e169415]
reverse link CanvasNode to Tilemap--><path codeLine="19" d="M224.1,148.67 C232.78,163.13 242.57,179.44 249.47,190.96 " fill="none" id="CanvasNode-backto-Tilemap" style="stroke:#FF0000;stroke-width:1.0;"/><polygon fill="none" points="217.95,152.02,213.66,131.27,229.95,144.82,217.95,152.02" style="stroke:#FF0000;stroke-width:1.0;"/><!--MD5=[b1aed5b7c77024fa1b37236a68add774]
reverse link CanvasNode to UIElement--><path codeLine="22" d="M251.43,140.41 C282.39,156.52 321.97,177.11 348.45,190.89 " fill="none" id="CanvasNode-backto-UIElement" style="stroke:#FF0000;stroke-width:1.0;"/><polygon fill="none" points="247.97,146.5,233.46,131.06,254.43,134.08,247.97,146.5" style="stroke:#FF0000;stroke-width:1.0;"/><!--MD5=[9a52b074913db5c59c501e470ded3362]
@startuml
skinparam ClassArrowColor #ff0000
skinparam ClassBorderColor #ff0000
skinparam BackgroundColor transparent
hide empty methods
hide empty fields
abstract class "CanvasNode" {
}
abstract class "GameNode" {
}
"GameNode" <|- - "CanvasNode"
abstract class "Graphic" {
}
"CanvasNode" <|- - "Graphic"
class "Sprite" {
}
"CanvasNode" <|- - "Sprite"
abstract class "Tilemap" {
}
"CanvasNode" <|- - "Tilemap"
abstract class "UIElement" {
}
"CanvasNode" <|- - "UIElement"
@enduml

PlantUML version 1.2021.14(Fri Nov 12 11:46:50 EST 2021)
(GPL source distribution)
Java Runtime: Java(TM) SE Runtime Environment
JVM: Java HotSpot(TM) 64-Bit Server VM
Default Encoding: UTF-8
Language: en
Country: US
--></g></svg>