<?xml version="1.0" encoding="UTF-8" standalone="no"?><svg xmlns="http://www.w3.org/2000/svg" xmlns:xlink="http://www.w3.org/1999/xlink" contentScriptType="application/ecmascript" contentStyleType="text/css" height="566px" preserveAspectRatio="none" style="width:626px;height:566px;background:#00000000;" version="1.1" viewBox="0 0 626 566" width="626px" zoomAndPan="magnify"><defs><filter height="300%" id="fhhp6xbny1ty1" width="300%" x="-1" y="-1"><feGaussianBlur result="blurOut" stdDeviation="2.0"/><feColorMatrix in="blurOut" result="blurOut2" type="matrix" values="0 0 0 0 0 0 0 0 0 0 0 0 0 0 0 0 0 0 .4 0"/><feOffset dx="4.0" dy="4.0" in="blurOut2" result="blurOut3"/><feBlend in="SourceGraphic" in2="blurOut3" mode="normal"/></filter></defs><g><!--MD5=[fa8ecb3e39b35324ad6f36cae2f42f75]
class CanvasRenderer--><rect codeLine="6" fill="#FEFECE" filter="url(#fhhp6xbny1ty1)" height="294.1465" id="CanvasRenderer" style="stroke:#FF0000;stroke-width:1.5;" width="603" x="9" y="258"/><ellipse cx="258.75" cy="274" fill="#ADD1B2" rx="11" ry="11" style="stroke:#FF0000;stroke-width:1.0;"/><path d="M261.2231,280.1431 Q260.6421,280.4419 260.0029,280.5913 Q259.3638,280.7407 258.6582,280.7407 Q256.1514,280.7407 254.8315,279.0889 Q253.5117,277.437 253.5117,274.3159 Q253.5117,271.1865 254.8315,269.5347 Q256.1514,267.8828 258.6582,267.8828 Q259.3638,267.8828 260.0112,268.0322 Q260.6587,268.1816 261.2231,268.4805 L261.2231,271.2031 Q260.5923,270.6221 259.9988,270.3523 Q259.4053,270.0825 258.7744,270.0825 Q257.4297,270.0825 256.7449,271.1492 Q256.0601,272.2158 256.0601,274.3159 Q256.0601,276.4077 256.7449,277.4744 Q257.4297,278.541 258.7744,278.541 Q259.4053,278.541 259.9988,278.2712 Q260.5923,278.0015 261.2231,277.4204 Z " fill="#000000"/><text fill="#000000" font-family="sans-serif" font-size="12" lengthAdjust="spacing" textLength="95" x="279.25" y="278.5352">CanvasRenderer</text><line style="stroke:#FF0000;stroke-width:1.5;" x1="10" x2="611" y1="290" y2="290"/><polygon fill="none" points="20,296,24,300,20,304,16,300" style="stroke:#B38D22;stroke-width:1.0;"/><text fill="#000000" font-family="sans-serif" font-size="11" lengthAdjust="spacing" textLength="178" x="29" y="304.6348">ctx : CanvasRenderingContext2D</text><polygon fill="none" points="20,308.9551,24,312.9551,20,316.9551,16,312.9551" style="stroke:#B38D22;stroke-width:1.0;"/><text fill="#000000" font-family="sans-serif" font-size="11" lengthAdjust="spacing" textLength="190" x="29" y="317.5898">graphicRenderer : GraphicRenderer</text><polygon fill="none" points="20,321.9102,24,325.9102,20,329.9102,16,325.9102" style="stroke:#B38D22;stroke-width:1.0;"/><text fill="#000000" font-family="sans-serif" font-size="11" lengthAdjust="spacing" textLength="67" x="29" y="330.5449">origin : Vec2</text><polygon fill="none" points="20,334.8652,24,338.8652,20,342.8652,16,338.8652" style="stroke:#B38D22;stroke-width:1.0;"/><text fill="#000000" font-family="sans-serif" font-size="11" lengthAdjust="spacing" textLength="199" x="29" y="343.5">resourceManager : ResourceManager</text><polygon fill="none" points="20,347.8203,24,351.8203,20,355.8203,16,351.8203" style="stroke:#B38D22;stroke-width:1.0;"/><text fill="#000000" font-family="sans-serif" font-size="11" lengthAdjust="spacing" textLength="71" x="29" y="356.4551">scene : Scene</text><polygon fill="none" points="20,360.7754,24,364.7754,20,368.7754,16,364.7754" style="stroke:#B38D22;stroke-width:1.0;"/><text fill="#000000" font-family="sans-serif" font-size="11" lengthAdjust="spacing" textLength="188" x="29" y="369.4102">tilemapRenderer : TilemapRenderer</text><polygon fill="none" points="20,373.7305,24,377.7305,20,381.7305,16,377.7305" style="stroke:#B38D22;stroke-width:1.0;"/><text fill="#000000" font-family="sans-serif" font-size="11" lengthAdjust="spacing" textLength="212" x="29" y="382.3652">uiElementRenderer : UIElementRenderer</text><polygon fill="none" points="20,386.6855,24,390.6855,20,394.6855,16,390.6855" style="stroke:#B38D22;stroke-width:1.0;"/><text fill="#000000" font-family="sans-serif" font-size="11" lengthAdjust="spacing" textLength="86" x="29" y="395.3203">worldSize : Vec2</text><polygon fill="none" points="20,399.6406,24,403.6406,20,407.6406,16,403.6406" style="stroke:#B38D22;stroke-width:1.0;"/><text fill="#000000" font-family="sans-serif" font-size="11" lengthAdjust="spacing" textLength="81" x="29" y="408.2754">zoom : number</text><line style="stroke:#FF0000;stroke-width:1.5;" x1="10" x2="611" y1="414.5957" y2="414.5957"/><ellipse cx="20" cy="425.5957" fill="#84BE84" rx="3" ry="3" style="stroke:#038048;stroke-width:1.0;"/><text fill="#000000" font-family="sans-serif" font-size="11" lengthAdjust="spacing" textLength="158" x="29" y="429.2305">clear(clearColor: Color) : void</text><ellipse cx="20" cy="438.5508" fill="#84BE84" rx="3" ry="3" style="stroke:#038048;stroke-width:1.0;"/><text fill="#000000" font-family="sans-serif" font-size="11" lengthAdjust="spacing" textLength="577" x="29" y="442.1855">initializeCanvas(canvas: HTMLCanvasElement, width: number, height: number) : CanvasRenderingContext2D</text><ellipse cx="20" cy="451.5059" fill="#84BE84" rx="3" ry="3" style="stroke:#038048;stroke-width:1.0;"/><text fill="#000000" font-family="sans-serif" font-size="11" lengthAdjust="spacing" textLength="451" x="29" y="455.1406">render(visibleSet: CanvasNode[], tilemaps: Tilemap[], uiLayers: Map&lt;UILayer&gt;) : void</text><ellipse cx="20" cy="464.4609" fill="#84BE84" rx="3" ry="3" style="stroke:#038048;stroke-width:1.0;"/><text fill="#000000" font-family="sans-serif" font-size="11" lengthAdjust="spacing" textLength="155" x="29" y="468.0957">setScene(scene: Scene) : void</text><polygon fill="#FFFF44" points="20,472.416,24,476.416,20,480.416,16,476.416" style="stroke:#B38D22;stroke-width:1.0;"/><text fill="#000000" font-family="sans-serif" font-size="11" lengthAdjust="spacing" textLength="277" x="29" y="481.0508">renderAnimatedSprite(sprite: AnimatedSprite) : void</text><polygon fill="#FFFF44" points="20,485.3711,24,489.3711,20,493.3711,16,489.3711" style="stroke:#B38D22;stroke-width:1.0;"/><text fill="#000000" font-family="sans-serif" font-size="11" lengthAdjust="spacing" textLength="207" x="29" y="494.0059">renderGraphic(graphic: Graphic) : void</text><polygon fill="#FFFF44" points="20,498.3262,24,502.3262,20,506.3262,16,502.3262" style="stroke:#B38D22;stroke-width:1.0;"/><text fill="#000000" font-family="sans-serif" font-size="11" lengthAdjust="spacing" textLength="204" x="29" y="506.9609">renderNode(node: CanvasNode) : void</text><polygon fill="#FFFF44" points="20,511.2813,24,515.2813,20,519.2813,16,515.2813" style="stroke:#B38D22;stroke-width:1.0;"/><text fill="#000000" font-family="sans-serif" font-size="11" lengthAdjust="spacing" textLength="175" x="29" y="519.916">renderSprite(sprite: Sprite) : void</text><polygon fill="#FFFF44" points="20,524.2363,24,528.2363,20,532.2363,16,528.2363" style="stroke:#B38D22;stroke-width:1.0;"/><text fill="#000000" font-family="sans-serif" font-size="11" lengthAdjust="spacing" textLength="205" x="29" y="532.8711">renderTilemap(tilemap: Tilemap) : void</text><polygon fill="#FFFF44" points="20,537.1914,24,541.1914,20,545.1914,16,541.1914" style="stroke:#B38D22;stroke-width:1.0;"/><text fill="#000000" font-family="sans-serif" font-size="11" lengthAdjust="spacing" textLength="240" x="29" y="545.8262">renderUIElement(uiElement: UIElement) : void</text><!--MD5=[b2ada768cd946f90616e4aa0cdf316b8]
class RenderingManager--><rect codeLine="27" fill="#FEFECE" filter="url(#fhhp6xbny1ty1)" height="190.5059" id="RenderingManager" style="stroke:#FF0000;stroke-width:1.5;" width="477" x="72" y="7"/><ellipse cx="251.75" cy="23" fill="#A9DCDF" rx="11" ry="11" style="stroke:#FF0000;stroke-width:1.0;"/><path d="M251.6133,18.3481 L250.4595,23.4199 L252.7754,23.4199 Z M250.1191,16.1069 L253.1157,16.1069 L256.4609,28.5 L254.0122,28.5 L253.2485,25.437 L249.9697,25.437 L249.2227,28.5 L246.7739,28.5 Z " fill="#000000"/><text fill="#000000" font-family="sans-serif" font-size="12" font-style="italic" lengthAdjust="spacing" textLength="109" x="272.25" y="27.5352">RenderingManager</text><line style="stroke:#FF0000;stroke-width:1.5;" x1="73" x2="548" y1="39" y2="39"/><polygon fill="none" points="83,45,87,49,83,53,79,49" style="stroke:#B38D22;stroke-width:1.0;"/><text fill="#000000" font-family="sans-serif" font-size="11" lengthAdjust="spacing" textLength="199" x="92" y="53.6348">resourceManager : ResourceManager</text><polygon fill="none" points="83,57.9551,87,61.9551,83,65.9551,79,61.9551" style="stroke:#B38D22;stroke-width:1.0;"/><text fill="#000000" font-family="sans-serif" font-size="11" lengthAdjust="spacing" textLength="71" x="92" y="66.5898">scene : Scene</text><line style="stroke:#FF0000;stroke-width:1.5;" x1="73" x2="548" y1="72.9102" y2="72.9102"/><ellipse cx="83" cy="83.9102" fill="#84BE84" rx="3" ry="3" style="stroke:#038048;stroke-width:1.0;"/><text fill="#000000" font-family="sans-serif" font-size="11" font-style="italic" lengthAdjust="spacing" textLength="130" x="92" y="87.5449">clear(color: Color) : void</text><ellipse cx="83" cy="96.8652" fill="#84BE84" rx="3" ry="3" style="stroke:#038048;stroke-width:1.0;"/><text fill="#000000" font-family="sans-serif" font-size="11" font-style="italic" lengthAdjust="spacing" textLength="444" x="92" y="100.5">initializeCanvas(canvas: HTMLCanvasElement, width: number, height: number) : any</text><ellipse cx="83" cy="109.8203" fill="#84BE84" rx="3" ry="3" style="stroke:#038048;stroke-width:1.0;"/><text fill="#000000" font-family="sans-serif" font-size="11" font-style="italic" lengthAdjust="spacing" textLength="451" x="92" y="113.4551">render(visibleSet: CanvasNode[], tilemaps: Tilemap[], uiLayers: Map&lt;UILayer&gt;) : void</text><ellipse cx="83" cy="122.7754" fill="#84BE84" rx="3" ry="3" style="stroke:#038048;stroke-width:1.0;"/><text fill="#000000" font-family="sans-serif" font-size="11" lengthAdjust="spacing" textLength="155" x="92" y="126.4102">setScene(scene: Scene) : void</text><polygon fill="#FFFF44" points="83,130.7305,87,134.7305,83,138.7305,79,134.7305" style="stroke:#B38D22;stroke-width:1.0;"/><text fill="#000000" font-family="sans-serif" font-size="11" font-style="italic" lengthAdjust="spacing" textLength="277" x="92" y="139.3652">renderAnimatedSprite(sprite: AnimatedSprite) : void</text><polygon fill="#FFFF44" points="83,143.6855,87,147.6855,83,151.6855,79,147.6855" style="stroke:#B38D22;stroke-width:1.0;"/><text fill="#000000" font-family="sans-serif" font-size="11" font-style="italic" lengthAdjust="spacing" textLength="207" x="92" y="152.3203">renderGraphic(graphic: Graphic) : void</text><polygon fill="#FFFF44" points="83,156.6406,87,160.6406,83,164.6406,79,160.6406" style="stroke:#B38D22;stroke-width:1.0;"/><text fill="#000000" font-family="sans-serif" font-size="11" font-style="italic" lengthAdjust="spacing" textLength="175" x="92" y="165.2754">renderSprite(sprite: Sprite) : void</text><polygon fill="#FFFF44" points="83,169.5957,87,173.5957,83,177.5957,79,173.5957" style="stroke:#B38D22;stroke-width:1.0;"/><text fill="#000000" font-family="sans-serif" font-size="11" font-style="italic" lengthAdjust="spacing" textLength="205" x="92" y="178.2305">renderTilemap(tilemap: Tilemap) : void</text><polygon fill="#FFFF44" points="83,182.5508,87,186.5508,83,190.5508,79,186.5508" style="stroke:#B38D22;stroke-width:1.0;"/><text fill="#000000" font-family="sans-serif" font-size="11" font-style="italic" lengthAdjust="spacing" textLength="240" x="92" y="191.1855">renderUIElement(uiElement: UIElement) : void</text><!--MD5=[5f169679acda06eae839159278597325]
reverse link RenderingManager to CanvasRenderer--><path codeLine="40" d="M310.5,218.2 C310.5,231.19 310.5,244.54 310.5,257.86 " fill="none" id="RenderingManager-backto-CanvasRenderer" style="stroke:#FF0000;stroke-width:1.0;"/><polygon fill="none" points="303.5,218.17,310.5,198.17,317.5,218.17,303.5,218.17" style="stroke:#FF0000;stroke-width:1.0;"/><!--MD5=[c3f13070d9c972c38af7d8867b842a8e]
@startuml
skinparam ClassArrowColor #ff0000
skinparam ClassBorderColor #ff0000
skinparam BackgroundColor transparent
hide empty methods
hide empty fields
class "CanvasRenderer" {
    #ctx : CanvasRenderingContext2D
    #graphicRenderer : GraphicRenderer
    #origin : Vec2
    #resourceManager : ResourceManager
    #scene : Scene
    #tilemapRenderer : TilemapRenderer
    #uiElementRenderer : UIElementRenderer
    #worldSize : Vec2
    #zoom : number
    +clear(clearColor: Color) : void
    +initializeCanvas(canvas: HTMLCanvasElement, width: number, height: number) : CanvasRenderingContext2D
    +render(visibleSet: CanvasNode[], tilemaps: Tilemap[], uiLayers: Map<UILayer>) : void
    +setScene(scene: Scene) : void
    #renderAnimatedSprite(sprite: AnimatedSprite) : void
    #renderGraphic(graphic: Graphic) : void
    #renderNode(node: CanvasNode) : void
    #renderSprite(sprite: Sprite) : void
    #renderTilemap(tilemap: Tilemap) : void
    #renderUIElement(uiElement: UIElement) : void
}
abstract class "RenderingManager" {
    #resourceManager : ResourceManager
    #scene : Scene
    {abstract} +clear(color: Color) : void
    {abstract} +initializeCanvas(canvas: HTMLCanvasElement, width: number, height: number) : any
    {abstract} +render(visibleSet: CanvasNode[], tilemaps: Tilemap[], uiLayers: Map<UILayer>) : void
    +setScene(scene: Scene) : void
    {abstract} #renderAnimatedSprite(sprite: AnimatedSprite) : void
    {abstract} #renderGraphic(graphic: Graphic) : void
    {abstract} #renderSprite(sprite: Sprite) : void
    {abstract} #renderTilemap(tilemap: Tilemap) : void
    {abstract} #renderUIElement(uiElement: UIElement) : void
}
"RenderingManager" <|- - "CanvasRenderer"
@enduml

PlantUML version 1.2021.14(Fri Nov 12 11:46:50 EST 2021)
(GPL source distribution)
Java Runtime: Java(TM) SE Runtime Environment
JVM: Java HotSpot(TM) 64-Bit Server VM
Default Encoding: UTF-8
Language: en
Country: US
--></g></svg>