<?xml version="1.0" encoding="UTF-8" standalone="no"?><svg xmlns="http://www.w3.org/2000/svg" xmlns:xlink="http://www.w3.org/1999/xlink" contentScriptType="application/ecmascript" contentStyleType="text/css" height="376px" preserveAspectRatio="none" style="width:611px;height:376px;background:#00000000;" version="1.1" viewBox="0 0 611 376" width="611px" zoomAndPan="magnify"><defs><filter height="300%" id="fnsgd1vtc5krh" width="300%" x="-1" y="-1"><feGaussianBlur result="blurOut" stdDeviation="2.0"/><feColorMatrix in="blurOut" result="blurOut2" type="matrix" values="0 0 0 0 0 0 0 0 0 0 0 0 0 0 0 0 0 0 .4 0"/><feOffset dx="4.0" dy="4.0" in="blurOut2" result="blurOut3"/><feBlend in="SourceGraphic" in2="blurOut3" mode="normal"/></filter></defs><g><!--MD5=[a7f9118cae7621dd25d25149752faef0]
class Circle--><rect codeLine="6" fill="#FEFECE" filter="url(#fnsgd1vtc5krh)" height="164.5957" id="Circle" style="stroke:#FF0000;stroke-width:1.5;" width="526" x="39" y="198"/><ellipse cx="281.75" cy="214" fill="#ADD1B2" rx="11" ry="11" style="stroke:#FF0000;stroke-width:1.0;"/><path d="M284.2231,220.1431 Q283.6421,220.4419 283.0029,220.5913 Q282.3638,220.7407 281.6582,220.7407 Q279.1514,220.7407 277.8315,219.0889 Q276.5117,217.437 276.5117,214.3159 Q276.5117,211.1865 277.8315,209.5347 Q279.1514,207.8828 281.6582,207.8828 Q282.3638,207.8828 283.0112,208.0322 Q283.6587,208.1816 284.2231,208.4805 L284.2231,211.2031 Q283.5923,210.6221 282.9988,210.3523 Q282.4053,210.0825 281.7744,210.0825 Q280.4297,210.0825 279.7449,211.1492 Q279.0601,212.2158 279.0601,214.3159 Q279.0601,216.4077 279.7449,217.4744 Q280.4297,218.541 281.7744,218.541 Q282.4053,218.541 282.9988,218.2712 Q283.5923,218.0015 284.2231,217.4204 Z " fill="#000000"/><text fill="#000000" font-family="sans-serif" font-size="12" lengthAdjust="spacing" textLength="32" x="302.25" y="218.5352">Circle</text><line style="stroke:#FF0000;stroke-width:1.5;" x1="40" x2="564" y1="230" y2="230"/><ellipse cx="50" cy="241" rx="3" ry="3" style="stroke:#038048;stroke-width:1.0;fill:none;"/><text fill="#000000" font-family="sans-serif" font-size="11" lengthAdjust="spacing" textLength="85" x="59" y="244.6348">radius : number</text><rect fill="none" height="6" style="stroke:#C82930;stroke-width:1.0;" width="6" x="47" y="250.9551"/><text fill="#000000" font-family="sans-serif" font-size="11" lengthAdjust="spacing" textLength="75" x="59" y="257.5898">_center : Vec2</text><line style="stroke:#FF0000;stroke-width:1.5;" x1="40" x2="564" y1="263.9102" y2="263.9102"/><ellipse cx="50" cy="274.9102" fill="#84BE84" rx="3" ry="3" style="stroke:#038048;stroke-width:1.0;"/><text fill="#000000" font-family="sans-serif" font-size="11" lengthAdjust="spacing" textLength="77" x="59" y="278.5449">clone() : Circle</text><ellipse cx="50" cy="287.8652" fill="#84BE84" rx="3" ry="3" style="stroke:#038048;stroke-width:1.0;"/><text fill="#000000" font-family="sans-serif" font-size="11" lengthAdjust="spacing" textLength="193" x="59" y="291.5">containsPoint(point: Vec2) : boolean</text><ellipse cx="50" cy="300.8203" fill="#84BE84" rx="3" ry="3" style="stroke:#038048;stroke-width:1.0;"/><text fill="#000000" font-family="sans-serif" font-size="11" lengthAdjust="spacing" textLength="147" x="59" y="304.4551">getBoundingCircle() : Circle</text><ellipse cx="50" cy="313.7754" fill="#84BE84" rx="3" ry="3" style="stroke:#038048;stroke-width:1.0;"/><text fill="#000000" font-family="sans-serif" font-size="11" lengthAdjust="spacing" textLength="136" x="59" y="317.4102">getBoundingRect() : AABB</text><ellipse cx="50" cy="326.7305" fill="#84BE84" rx="3" ry="3" style="stroke:#038048;stroke-width:1.0;"/><text fill="#000000" font-family="sans-serif" font-size="11" lengthAdjust="spacing" text-decoration="underline" textLength="500" x="59" y="330.3652">getTimeOfCollision(A: Shape, velA: Vec2, B: Shape, velB: Vec2) : [Vec2, Vec2, boolean, boolean]</text><ellipse cx="50" cy="339.6855" fill="#84BE84" rx="3" ry="3" style="stroke:#038048;stroke-width:1.0;"/><text fill="#000000" font-family="sans-serif" font-size="11" lengthAdjust="spacing" textLength="173" x="59" y="343.3203">overlaps(other: Shape) : boolean</text><ellipse cx="50" cy="352.6406" fill="#84BE84" rx="3" ry="3" style="stroke:#038048;stroke-width:1.0;"/><text fill="#000000" font-family="sans-serif" font-size="11" lengthAdjust="spacing" textLength="92" x="59" y="356.2754">toString() : string</text><!--MD5=[426e75666daf533f17226ff4c87e20fd]
class Shape--><rect codeLine="17" fill="#FEFECE" filter="url(#fnsgd1vtc5krh)" height="130.6855" id="Shape" style="stroke:#FF0000;stroke-width:1.5;" width="590" x="7" y="7"/><ellipse cx="280.25" cy="23" fill="#A9DCDF" rx="11" ry="11" style="stroke:#FF0000;stroke-width:1.0;"/><path d="M280.1133,18.3481 L278.9595,23.4199 L281.2754,23.4199 Z M278.6191,16.1069 L281.6157,16.1069 L284.9609,28.5 L282.5122,28.5 L281.7485,25.437 L278.4697,25.437 L277.7227,28.5 L275.2739,28.5 Z " fill="#000000"/><text fill="#000000" font-family="sans-serif" font-size="12" font-style="italic" lengthAdjust="spacing" textLength="35" x="300.75" y="27.5352">Shape</text><line style="stroke:#FF0000;stroke-width:1.5;" x1="8" x2="596" y1="39" y2="39"/><ellipse cx="18" cy="50" fill="#84BE84" rx="3" ry="3" style="stroke:#038048;stroke-width:1.0;"/><text fill="#000000" font-family="sans-serif" font-size="11" font-style="italic" lengthAdjust="spacing" textLength="78" x="27" y="53.6348">clone() : Shape</text><ellipse cx="18" cy="62.9551" fill="#84BE84" rx="3" ry="3" style="stroke:#038048;stroke-width:1.0;"/><text fill="#000000" font-family="sans-serif" font-size="11" font-style="italic" lengthAdjust="spacing" textLength="193" x="27" y="66.5898">containsPoint(point: Vec2) : boolean</text><ellipse cx="18" cy="75.9102" fill="#84BE84" rx="3" ry="3" style="stroke:#038048;stroke-width:1.0;"/><text fill="#000000" font-family="sans-serif" font-size="11" font-style="italic" lengthAdjust="spacing" textLength="147" x="27" y="79.5449">getBoundingCircle() : Circle</text><ellipse cx="18" cy="88.8652" fill="#84BE84" rx="3" ry="3" style="stroke:#038048;stroke-width:1.0;"/><text fill="#000000" font-family="sans-serif" font-size="11" font-style="italic" lengthAdjust="spacing" textLength="136" x="27" y="92.5">getBoundingRect() : AABB</text><ellipse cx="18" cy="101.8203" fill="#84BE84" rx="3" ry="3" style="stroke:#038048;stroke-width:1.0;"/><text fill="#000000" font-family="sans-serif" font-size="11" lengthAdjust="spacing" text-decoration="underline" textLength="500" x="27" y="105.4551">getTimeOfCollision(A: Shape, velA: Vec2, B: Shape, velB: Vec2) : [Vec2, Vec2, boolean, boolean]</text><ellipse cx="18" cy="114.7754" fill="#84BE84" rx="3" ry="3" style="stroke:#038048;stroke-width:1.0;"/><text fill="#000000" font-family="sans-serif" font-size="11" font-style="italic" lengthAdjust="spacing" textLength="173" x="27" y="118.4102">overlaps(other: Shape) : boolean</text><rect fill="#F24D5C" height="6" style="stroke:#C82930;stroke-width:1.0;" width="6" x="15" y="124.7305"/><text fill="#000000" font-family="sans-serif" font-size="11" lengthAdjust="spacing" text-decoration="underline" textLength="564" x="27" y="131.3652">getTimeOfCollision_AABB_AABB(A: AABB, velA: Vec2, B: Shape, velB: Vec2) : [Vec2, Vec2, boolean, boolean]</text><!--MD5=[d637a7d0c5b779627461b5a6979d5756]
reverse link Shape to Circle--><path codeLine="26" d="M302,158.17 C302,171.22 302,184.69 302,197.68 " fill="none" id="Shape-backto-Circle" style="stroke:#FF0000;stroke-width:1.0;"/><polygon fill="none" points="295,158.11,302,138.11,309,158.11,295,158.11" style="stroke:#FF0000;stroke-width:1.0;"/><!--MD5=[55b30f9854721b6701c1c4066970d848]
@startuml
skinparam ClassArrowColor #ff0000
skinparam ClassBorderColor #ff0000
skinparam BackgroundColor transparent
hide empty methods
hide empty fields
class "Circle" {
    +radius : number
    -_center : Vec2
    +clone() : Circle
    +containsPoint(point: Vec2) : boolean
    +getBoundingCircle() : Circle
    +getBoundingRect() : AABB
    {static} +getTimeOfCollision(A: Shape, velA: Vec2, B: Shape, velB: Vec2) : [Vec2, Vec2, boolean, boolean]
    +overlaps(other: Shape) : boolean
    +toString() : string
}
abstract class "Shape" {
    {abstract} +clone() : Shape
    {abstract} +containsPoint(point: Vec2) : boolean
    {abstract} +getBoundingCircle() : Circle
    {abstract} +getBoundingRect() : AABB
    {static} +getTimeOfCollision(A: Shape, velA: Vec2, B: Shape, velB: Vec2) : [Vec2, Vec2, boolean, boolean]
    {abstract} +overlaps(other: Shape) : boolean
    {static} -getTimeOfCollision_AABB_AABB(A: AABB, velA: Vec2, B: Shape, velB: Vec2) : [Vec2, Vec2, boolean, boolean]
}
"Shape" <|- - "Circle"
@enduml

PlantUML version 1.2021.14(Fri Nov 12 11:46:50 EST 2021)
(GPL source distribution)
Java Runtime: Java(TM) SE Runtime Environment
JVM: Java HotSpot(TM) 64-Bit Server VM
Default Encoding: UTF-8
Language: en
Country: US
--></g></svg>