<?xml version="1.0" encoding="UTF-8" standalone="no"?><svg xmlns="http://www.w3.org/2000/svg" xmlns:xlink="http://www.w3.org/1999/xlink" contentScriptType="application/ecmascript" contentStyleType="text/css" height="1825px" preserveAspectRatio="none" style="width:732px;height:1825px;background:#00000000;" version="1.1" viewBox="0 0 732 1825" width="732px" zoomAndPan="magnify"><defs><filter height="300%" id="f8bsbeczhl6m5" width="300%" x="-1" y="-1"><feGaussianBlur result="blurOut" stdDeviation="2.0"/><feColorMatrix in="blurOut" result="blurOut2" type="matrix" values="0 0 0 0 0 0 0 0 0 0 0 0 0 0 0 0 0 0 .4 0"/><feOffset dx="4.0" dy="4.0" in="blurOut2" result="blurOut3"/><feBlend in="SourceGraphic" in2="blurOut3" mode="normal"/></filter></defs><g><!--MD5=[c160724f8e3bb89ca8141a12554ac2e3]
class Collection--><rect codeLine="7" fill="#FEFECE" filter="url(#f8bsbeczhl6m5)" height="65.9102" id="Collection" style="stroke:#FF0000;stroke-width:1.5;" width="184" x="7" y="831"/><ellipse cx="67.25" cy="847" fill="#B4A7E5" rx="11" ry="11" style="stroke:#FF0000;stroke-width:1.0;"/><path d="M63.6777,843.2651 L63.6777,841.1069 L71.0571,841.1069 L71.0571,843.2651 L68.5918,843.2651 L68.5918,851.3418 L71.0571,851.3418 L71.0571,853.5 L63.6777,853.5 L63.6777,851.3418 L66.1431,851.3418 L66.1431,843.2651 Z " fill="#000000"/><text fill="#000000" font-family="sans-serif" font-size="12" font-style="italic" lengthAdjust="spacing" textLength="55" x="87.75" y="851.5352">Collection</text><line style="stroke:#FF0000;stroke-width:1.5;" x1="8" x2="190" y1="863" y2="863"/><ellipse cx="18" cy="874" fill="#84BE84" rx="3" ry="3" style="stroke:#038048;stroke-width:1.0;"/><text fill="#000000" font-family="sans-serif" font-size="11" lengthAdjust="spacing" textLength="66" x="27" y="877.6348">clear() : void</text><ellipse cx="18" cy="886.9551" fill="#84BE84" rx="3" ry="3" style="stroke:#038048;stroke-width:1.0;"/><text fill="#000000" font-family="sans-serif" font-size="11" lengthAdjust="spacing" textLength="158" x="27" y="890.5898">forEach(func: Function) : void</text><!--MD5=[fd8d39f213df5fb9b4018799c2b6469e]
class Heap<T>--><rect codeLine="11" fill="#FEFECE" filter="url(#f8bsbeczhl6m5)" height="320.0566" id="Heap&lt;T&gt;" style="stroke:#FF0000;stroke-width:1.5;" width="263" x="353" y="7"/><ellipse cx="450.75" cy="23" fill="#ADD1B2" rx="11" ry="11" style="stroke:#FF0000;stroke-width:1.0;"/><path d="M453.2231,29.1431 Q452.6421,29.4419 452.0029,29.5913 Q451.3638,29.7407 450.6582,29.7407 Q448.1514,29.7407 446.8315,28.0889 Q445.5117,26.437 445.5117,23.3159 Q445.5117,20.1865 446.8315,18.5347 Q448.1514,16.8828 450.6582,16.8828 Q451.3638,16.8828 452.0112,17.0322 Q452.6587,17.1816 453.2231,17.4805 L453.2231,20.2031 Q452.5923,19.6221 451.9988,19.3523 Q451.4053,19.0825 450.7744,19.0825 Q449.4297,19.0825 448.7449,20.1492 Q448.0601,21.2158 448.0601,23.3159 Q448.0601,25.4077 448.7449,26.4744 Q449.4297,27.541 450.7744,27.541 Q451.4053,27.541 451.9988,27.2712 Q452.5923,27.0015 453.2231,26.4204 Z " fill="#000000"/><text fill="#000000" font-family="sans-serif" font-size="12" lengthAdjust="spacing" textLength="59" x="471.25" y="27.5352">Heap&lt;T&gt;</text><line style="stroke:#FF0000;stroke-width:1.5;" x1="354" x2="615" y1="39" y2="39"/><rect fill="none" height="6" style="stroke:#C82930;stroke-width:1.0;" width="6" x="361" y="47"/><text fill="#000000" font-family="sans-serif" font-size="11" lengthAdjust="spacing" textLength="86" x="373" y="53.6348">comp : Function</text><rect fill="none" height="6" style="stroke:#C82930;stroke-width:1.0;" width="6" x="361" y="59.9551"/><text fill="#000000" font-family="sans-serif" font-size="11" lengthAdjust="spacing" textLength="50" x="373" y="66.5898">heap : T[]</text><rect fill="none" height="6" style="stroke:#C82930;stroke-width:1.0;" width="6" x="361" y="72.9102"/><text fill="#000000" font-family="sans-serif" font-size="11" lengthAdjust="spacing" textLength="127" x="373" y="79.5449">map : Map&lt;T, number&gt;</text><rect fill="none" height="6" style="stroke:#C82930;stroke-width:1.0;" width="6" x="361" y="85.8652"/><text fill="#000000" font-family="sans-serif" font-size="11" lengthAdjust="spacing" textLength="135" x="373" y="92.5">MAX_ELEMENTS : number</text><rect fill="none" height="6" style="stroke:#C82930;stroke-width:1.0;" width="6" x="361" y="98.8203"/><text fill="#000000" font-family="sans-serif" font-size="11" lengthAdjust="spacing" textLength="83" x="373" y="105.4551">ROOT : number</text><rect fill="none" height="6" style="stroke:#C82930;stroke-width:1.0;" width="6" x="361" y="111.7754"/><text fill="#000000" font-family="sans-serif" font-size="11" lengthAdjust="spacing" textLength="72" x="373" y="118.4102">size : number</text><line style="stroke:#FF0000;stroke-width:1.5;" x1="354" x2="615" y1="124.7305" y2="124.7305"/><ellipse cx="364" cy="135.7305" fill="#84BE84" rx="3" ry="3" style="stroke:#038048;stroke-width:1.0;"/><text fill="#000000" font-family="sans-serif" font-size="11" lengthAdjust="spacing" textLength="66" x="373" y="139.3652">clear() : void</text><ellipse cx="364" cy="148.6855" fill="#84BE84" rx="3" ry="3" style="stroke:#038048;stroke-width:1.0;"/><text fill="#000000" font-family="sans-serif" font-size="11" lengthAdjust="spacing" textLength="158" x="373" y="152.3203">forEach(func: Function) : void</text><ellipse cx="364" cy="161.6406" fill="#84BE84" rx="3" ry="3" style="stroke:#038048;stroke-width:1.0;"/><text fill="#000000" font-family="sans-serif" font-size="11" lengthAdjust="spacing" textLength="120" x="373" y="165.2754">has(value: T) : boolean</text><ellipse cx="364" cy="174.5957" fill="#84BE84" rx="3" ry="3" style="stroke:#038048;stroke-width:1.0;"/><text fill="#000000" font-family="sans-serif" font-size="11" lengthAdjust="spacing" textLength="102" x="373" y="178.2305">isEmpty() : boolean</text><ellipse cx="364" cy="187.5508" fill="#84BE84" rx="3" ry="3" style="stroke:#038048;stroke-width:1.0;"/><text fill="#000000" font-family="sans-serif" font-size="11" lengthAdjust="spacing" textLength="49" x="373" y="191.1855">peek() : T</text><ellipse cx="364" cy="200.5059" fill="#84BE84" rx="3" ry="3" style="stroke:#038048;stroke-width:1.0;"/><text fill="#000000" font-family="sans-serif" font-size="11" lengthAdjust="spacing" textLength="45" x="373" y="204.1406">pop() : T</text><ellipse cx="364" cy="213.4609" fill="#84BE84" rx="3" ry="3" style="stroke:#038048;stroke-width:1.0;"/><text fill="#000000" font-family="sans-serif" font-size="11" lengthAdjust="spacing" textLength="86" x="373" y="217.0957">push(e: T) : void</text><ellipse cx="364" cy="226.416" fill="#84BE84" rx="3" ry="3" style="stroke:#038048;stroke-width:1.0;"/><text fill="#000000" font-family="sans-serif" font-size="11" lengthAdjust="spacing" textLength="120" x="373" y="230.0508">restore(value: T) : void</text><ellipse cx="364" cy="239.3711" fill="#84BE84" rx="3" ry="3" style="stroke:#038048;stroke-width:1.0;"/><text fill="#000000" font-family="sans-serif" font-size="11" lengthAdjust="spacing" textLength="92" x="373" y="243.0059">toString() : string</text><polygon fill="#FFFF44" points="364,247.3262,368,251.3262,364,255.3262,360,251.3262" style="stroke:#B38D22;stroke-width:1.0;"/><text fill="#000000" font-family="sans-serif" font-size="11" lengthAdjust="spacing" textLength="163" x="373" y="255.9609">lchild(node: number) : number</text><polygon fill="#FFFF44" points="364,260.2813,368,264.2813,364,268.2813,360,264.2813" style="stroke:#B38D22;stroke-width:1.0;"/><text fill="#000000" font-family="sans-serif" font-size="11" lengthAdjust="spacing" textLength="169" x="373" y="268.916">parent(node: number) : number</text><polygon fill="#FFFF44" points="364,273.2363,368,277.2363,364,281.2363,360,277.2363" style="stroke:#B38D22;stroke-width:1.0;"/><text fill="#000000" font-family="sans-serif" font-size="11" lengthAdjust="spacing" textLength="168" x="373" y="281.8711">percdown(node: number) : void</text><polygon fill="#FFFF44" points="364,286.1914,368,290.1914,364,294.1914,360,290.1914" style="stroke:#B38D22;stroke-width:1.0;"/><text fill="#000000" font-family="sans-serif" font-size="11" lengthAdjust="spacing" textLength="153" x="373" y="294.8262">percup(node: number) : void</text><polygon fill="#FFFF44" points="364,299.1465,368,303.1465,364,307.1465,360,303.1465" style="stroke:#B38D22;stroke-width:1.0;"/><text fill="#000000" font-family="sans-serif" font-size="11" lengthAdjust="spacing" textLength="165" x="373" y="307.7813">rchild(node: number) : number</text><polygon fill="#FFFF44" points="364,312.1016,368,316.1016,364,320.1016,360,316.1016" style="stroke:#B38D22;stroke-width:1.0;"/><text fill="#000000" font-family="sans-serif" font-size="11" lengthAdjust="spacing" textLength="237" x="373" y="320.7363">swap(node1: number, node2: number) : void</text><!--MD5=[4dcd53ac5be50d67f3d64d956c655d59]
class List<T>--><rect codeLine="35" fill="#FEFECE" filter="url(#f8bsbeczhl6m5)" height="125.7305" id="List&lt;T&gt;" style="stroke:#FF0000;stroke-width:1.5;" width="184" x="392.5" y="362"/><ellipse cx="456.75" cy="378" fill="#ADD1B2" rx="11" ry="11" style="stroke:#FF0000;stroke-width:1.0;"/><path d="M459.2231,384.1431 Q458.6421,384.4419 458.0029,384.5913 Q457.3638,384.7407 456.6582,384.7407 Q454.1514,384.7407 452.8315,383.0889 Q451.5117,381.437 451.5117,378.3159 Q451.5117,375.1865 452.8315,373.5347 Q454.1514,371.8828 456.6582,371.8828 Q457.3638,371.8828 458.0112,372.0322 Q458.6587,372.1816 459.2231,372.4805 L459.2231,375.2031 Q458.5923,374.6221 457.9988,374.3523 Q457.4053,374.0825 456.7744,374.0825 Q455.4297,374.0825 454.7449,375.1492 Q454.0601,376.2158 454.0601,378.3159 Q454.0601,380.4077 454.7449,381.4744 Q455.4297,382.541 456.7744,382.541 Q457.4053,382.541 457.9988,382.2712 Q458.5923,382.0015 459.2231,381.4204 Z " fill="#000000"/><text fill="#000000" font-family="sans-serif" font-size="12" lengthAdjust="spacing" textLength="47" x="477.25" y="382.5352">List&lt;T&gt;</text><line style="stroke:#FF0000;stroke-width:1.5;" x1="393.5" x2="575.5" y1="394" y2="394"/><rect fill="none" height="6" style="stroke:#C82930;stroke-width:1.0;" width="6" x="400.5" y="402"/><text fill="#000000" font-family="sans-serif" font-size="11" lengthAdjust="spacing" textLength="102" x="412.5" y="408.6348">head : ListItem&lt;T&gt;</text><rect fill="none" height="6" style="stroke:#C82930;stroke-width:1.0;" width="6" x="400.5" y="414.9551"/><text fill="#000000" font-family="sans-serif" font-size="11" lengthAdjust="spacing" textLength="92" x="412.5" y="421.5898">tail : ListItem&lt;T&gt;</text><rect fill="none" height="6" style="stroke:#C82930;stroke-width:1.0;" width="6" x="400.5" y="427.9102"/><text fill="#000000" font-family="sans-serif" font-size="11" lengthAdjust="spacing" textLength="78" x="412.5" y="434.5449">_size : number</text><line style="stroke:#FF0000;stroke-width:1.5;" x1="393.5" x2="575.5" y1="440.8652" y2="440.8652"/><ellipse cx="403.5" cy="451.8652" fill="#84BE84" rx="3" ry="3" style="stroke:#038048;stroke-width:1.0;"/><text fill="#000000" font-family="sans-serif" font-size="11" lengthAdjust="spacing" textLength="101" x="412.5" y="455.5">add(value: T) : void</text><ellipse cx="403.5" cy="464.8203" fill="#84BE84" rx="3" ry="3" style="stroke:#038048;stroke-width:1.0;"/><text fill="#000000" font-family="sans-serif" font-size="11" lengthAdjust="spacing" textLength="66" x="412.5" y="468.4551">clear() : void</text><ellipse cx="403.5" cy="477.7754" fill="#84BE84" rx="3" ry="3" style="stroke:#038048;stroke-width:1.0;"/><text fill="#000000" font-family="sans-serif" font-size="11" lengthAdjust="spacing" textLength="158" x="412.5" y="481.4102">forEach(func: Function) : void</text><!--MD5=[8e786d5ad0a1f26ce02b3732d670e3a1]
class Map<T>--><rect codeLine="44" fill="#FEFECE" filter="url(#f8bsbeczhl6m5)" height="177.5508" id="Map&lt;T&gt;" style="stroke:#FF0000;stroke-width:1.5;" width="189" x="390" y="523"/><ellipse cx="453.75" cy="539" fill="#ADD1B2" rx="11" ry="11" style="stroke:#FF0000;stroke-width:1.0;"/><path d="M456.2231,545.1431 Q455.6421,545.4419 455.0029,545.5913 Q454.3638,545.7407 453.6582,545.7407 Q451.1514,545.7407 449.8315,544.0889 Q448.5117,542.437 448.5117,539.3159 Q448.5117,536.1865 449.8315,534.5347 Q451.1514,532.8828 453.6582,532.8828 Q454.3638,532.8828 455.0112,533.0322 Q455.6587,533.1816 456.2231,533.4805 L456.2231,536.2031 Q455.5923,535.6221 454.9988,535.3523 Q454.4053,535.0825 453.7744,535.0825 Q452.4297,535.0825 451.7449,536.1492 Q451.0601,537.2158 451.0601,539.3159 Q451.0601,541.4077 451.7449,542.4744 Q452.4297,543.541 453.7744,543.541 Q454.4053,543.541 454.9988,543.2712 Q455.5923,543.0015 456.2231,542.4204 Z " fill="#000000"/><text fill="#000000" font-family="sans-serif" font-size="12" lengthAdjust="spacing" textLength="53" x="474.25" y="543.5352">Map&lt;T&gt;</text><line style="stroke:#FF0000;stroke-width:1.5;" x1="391" x2="578" y1="555" y2="555"/><rect fill="none" height="6" style="stroke:#C82930;stroke-width:1.0;" width="6" x="398" y="563"/><text fill="#000000" font-family="sans-serif" font-size="11" lengthAdjust="spacing" textLength="133" x="410" y="569.6348">map : Record&lt;string, T&gt;</text><line style="stroke:#FF0000;stroke-width:1.5;" x1="391" x2="578" y1="575.9551" y2="575.9551"/><ellipse cx="401" cy="586.9551" fill="#84BE84" rx="3" ry="3" style="stroke:#038048;stroke-width:1.0;"/><text fill="#000000" font-family="sans-serif" font-size="11" lengthAdjust="spacing" textLength="163" x="410" y="590.5898">add(key: string, value: T) : void</text><ellipse cx="401" cy="599.9102" fill="#84BE84" rx="3" ry="3" style="stroke:#038048;stroke-width:1.0;"/><text fill="#000000" font-family="sans-serif" font-size="11" lengthAdjust="spacing" textLength="66" x="410" y="603.5449">clear() : void</text><ellipse cx="401" cy="612.8652" fill="#84BE84" rx="3" ry="3" style="stroke:#038048;stroke-width:1.0;"/><text fill="#000000" font-family="sans-serif" font-size="11" lengthAdjust="spacing" textLength="128" x="410" y="616.5">delete(key: string) : void</text><ellipse cx="401" cy="625.8203" fill="#84BE84" rx="3" ry="3" style="stroke:#038048;stroke-width:1.0;"/><text fill="#000000" font-family="sans-serif" font-size="11" lengthAdjust="spacing" textLength="158" x="410" y="629.4551">forEach(func: Function) : void</text><ellipse cx="401" cy="638.7754" fill="#84BE84" rx="3" ry="3" style="stroke:#038048;stroke-width:1.0;"/><text fill="#000000" font-family="sans-serif" font-size="11" lengthAdjust="spacing" textLength="97" x="410" y="642.4102">get(key: string) : T</text><ellipse cx="401" cy="651.7305" fill="#84BE84" rx="3" ry="3" style="stroke:#038048;stroke-width:1.0;"/><text fill="#000000" font-family="sans-serif" font-size="11" lengthAdjust="spacing" textLength="135" x="410" y="655.3652">has(key: string) : boolean</text><ellipse cx="401" cy="664.6855" fill="#84BE84" rx="3" ry="3" style="stroke:#038048;stroke-width:1.0;"/><text fill="#000000" font-family="sans-serif" font-size="11" lengthAdjust="spacing" textLength="81" x="410" y="668.3203">keys() : string[]</text><ellipse cx="401" cy="677.6406" fill="#84BE84" rx="3" ry="3" style="stroke:#038048;stroke-width:1.0;"/><text fill="#000000" font-family="sans-serif" font-size="11" lengthAdjust="spacing" textLength="159" x="410" y="681.2754">set(key: string, value: T) : void</text><ellipse cx="401" cy="690.5957" fill="#84BE84" rx="3" ry="3" style="stroke:#038048;stroke-width:1.0;"/><text fill="#000000" font-family="sans-serif" font-size="11" lengthAdjust="spacing" textLength="92" x="410" y="694.2305">toString() : string</text><!--MD5=[51b30b53d746c08f9b2f1f5a55712f3a]
class QuadTree<T>--><rect codeLine="57" fill="#FEFECE" filter="url(#f8bsbeczhl6m5)" height="255.2813" id="QuadTree&lt;T&gt;" style="stroke:#FF0000;stroke-width:1.5;" width="313" x="328" y="736.5"/><ellipse cx="437.25" cy="752.5" fill="#ADD1B2" rx="11" ry="11" style="stroke:#FF0000;stroke-width:1.0;"/><path d="M439.7231,758.6431 Q439.1421,758.9419 438.5029,759.0913 Q437.8638,759.2407 437.1582,759.2407 Q434.6514,759.2407 433.3315,757.5889 Q432.0117,755.937 432.0117,752.8159 Q432.0117,749.6865 433.3315,748.0347 Q434.6514,746.3828 437.1582,746.3828 Q437.8638,746.3828 438.5112,746.5322 Q439.1587,746.6816 439.7231,746.9805 L439.7231,749.7031 Q439.0923,749.1221 438.4988,748.8523 Q437.9053,748.5825 437.2744,748.5825 Q435.9297,748.5825 435.2449,749.6492 Q434.5601,750.7158 434.5601,752.8159 Q434.5601,754.9077 435.2449,755.9744 Q435.9297,757.041 437.2744,757.041 Q437.9053,757.041 438.4988,756.7712 Q439.0923,756.5015 439.7231,755.9204 Z " fill="#000000"/><text fill="#000000" font-family="sans-serif" font-size="12" lengthAdjust="spacing" textLength="86" x="457.75" y="757.0352">QuadTree&lt;T&gt;</text><line style="stroke:#FF0000;stroke-width:1.5;" x1="329" x2="640" y1="768.5" y2="768.5"/><polygon fill="none" points="339,774.5,343,778.5,339,782.5,335,778.5" style="stroke:#B38D22;stroke-width:1.0;"/><text fill="#000000" font-family="sans-serif" font-size="11" lengthAdjust="spacing" textLength="89" x="348" y="783.1348">boundary : AABB</text><polygon fill="none" points="339,787.4551,343,791.4551,339,795.4551,335,791.4551" style="stroke:#B38D22;stroke-width:1.0;"/><text fill="#000000" font-family="sans-serif" font-size="11" lengthAdjust="spacing" textLength="95" x="348" y="796.0898">capacity : number</text><polygon fill="none" points="339,800.4102,343,804.4102,339,808.4102,335,804.4102" style="stroke:#B38D22;stroke-width:1.0;"/><text fill="#000000" font-family="sans-serif" font-size="11" lengthAdjust="spacing" textLength="91" x="348" y="809.0449">divided : boolean</text><polygon fill="none" points="339,813.3652,343,817.3652,339,821.3652,335,817.3652" style="stroke:#B38D22;stroke-width:1.0;"/><text fill="#000000" font-family="sans-serif" font-size="11" lengthAdjust="spacing" textLength="53" x="348" y="822">items : T[]</text><polygon fill="none" points="339,826.3203,343,830.3203,339,834.3203,335,830.3203" style="stroke:#B38D22;stroke-width:1.0;"/><text fill="#000000" font-family="sans-serif" font-size="11" lengthAdjust="spacing" textLength="106" x="348" y="834.9551">maxDepth : number</text><polygon fill="none" points="339,839.2754,343,843.2754,339,847.2754,335,843.2754" style="stroke:#B38D22;stroke-width:1.0;"/><text fill="#000000" font-family="sans-serif" font-size="11" lengthAdjust="spacing" textLength="100" x="348" y="847.9102">ne : QuadTree&lt;T&gt;</text><polygon fill="none" points="339,852.2305,343,856.2305,339,860.2305,335,856.2305" style="stroke:#B38D22;stroke-width:1.0;"/><text fill="#000000" font-family="sans-serif" font-size="11" lengthAdjust="spacing" textLength="102" x="348" y="860.8652">nw : QuadTree&lt;T&gt;</text><polygon fill="none" points="339,865.1855,343,869.1855,339,873.1855,335,869.1855" style="stroke:#B38D22;stroke-width:1.0;"/><text fill="#000000" font-family="sans-serif" font-size="11" lengthAdjust="spacing" textLength="99" x="348" y="873.8203">se : QuadTree&lt;T&gt;</text><polygon fill="none" points="339,878.1406,343,882.1406,339,886.1406,335,882.1406" style="stroke:#B38D22;stroke-width:1.0;"/><text fill="#000000" font-family="sans-serif" font-size="11" lengthAdjust="spacing" textLength="101" x="348" y="886.7754">sw : QuadTree&lt;T&gt;</text><line style="stroke:#FF0000;stroke-width:1.5;" x1="329" x2="640" y1="893.0957" y2="893.0957"/><ellipse cx="339" cy="904.0957" fill="#84BE84" rx="3" ry="3" style="stroke:#038048;stroke-width:1.0;"/><text fill="#000000" font-family="sans-serif" font-size="11" lengthAdjust="spacing" textLength="66" x="348" y="907.7305">clear() : void</text><ellipse cx="339" cy="917.0508" fill="#84BE84" rx="3" ry="3" style="stroke:#038048;stroke-width:1.0;"/><text fill="#000000" font-family="sans-serif" font-size="11" lengthAdjust="spacing" textLength="158" x="348" y="920.6855">forEach(func: Function) : void</text><ellipse cx="339" cy="930.0059" fill="#84BE84" rx="3" ry="3" style="stroke:#038048;stroke-width:1.0;"/><text fill="#000000" font-family="sans-serif" font-size="11" lengthAdjust="spacing" textLength="107" x="348" y="933.6406">insert(item: T) : void</text><ellipse cx="339" cy="942.9609" fill="#84BE84" rx="3" ry="3" style="stroke:#038048;stroke-width:1.0;"/><text fill="#000000" font-family="sans-serif" font-size="11" lengthAdjust="spacing" textLength="287" x="348" y="946.5957">render_demo(ctx: CanvasRenderingContext2D) : void</text><polygon fill="#FFFF44" points="339,950.916,343,954.916,339,958.916,335,954.916" style="stroke:#B38D22;stroke-width:1.0;"/><text fill="#000000" font-family="sans-serif" font-size="11" lengthAdjust="spacing" textLength="135" x="348" y="959.5508">deferInsert(item: T) : void</text><polygon fill="#FFFF44" points="339,963.8711,343,967.8711,339,971.8711,335,967.8711" style="stroke:#B38D22;stroke-width:1.0;"/><text fill="#000000" font-family="sans-serif" font-size="11" lengthAdjust="spacing" textLength="121" x="348" y="972.5059">distributeItems() : void</text><polygon fill="#FFFF44" points="339,976.8262,343,980.8262,339,984.8262,335,980.8262" style="stroke:#B38D22;stroke-width:1.0;"/><text fill="#000000" font-family="sans-serif" font-size="11" lengthAdjust="spacing" textLength="92" x="348" y="985.4609">subdivide() : void</text><!--MD5=[4cf8791f059241ba487a2a3cb7a4983d]
class Queue<T>--><rect codeLine="76" fill="#FEFECE" filter="url(#f8bsbeczhl6m5)" height="216.416" id="Queue&lt;T&gt;" style="stroke:#FF0000;stroke-width:1.5;" width="184" x="392.5" y="1027"/><ellipse cx="447.75" cy="1043" fill="#ADD1B2" rx="11" ry="11" style="stroke:#FF0000;stroke-width:1.0;"/><path d="M450.2231,1049.1431 Q449.6421,1049.4419 449.0029,1049.5913 Q448.3638,1049.7407 447.6582,1049.7407 Q445.1514,1049.7407 443.8315,1048.0889 Q442.5117,1046.437 442.5117,1043.3159 Q442.5117,1040.1865 443.8315,1038.5347 Q445.1514,1036.8828 447.6582,1036.8828 Q448.3638,1036.8828 449.0112,1037.0322 Q449.6587,1037.1816 450.2231,1037.4805 L450.2231,1040.2031 Q449.5923,1039.6221 448.9988,1039.3523 Q448.4053,1039.0825 447.7744,1039.0825 Q446.4297,1039.0825 445.7449,1040.1492 Q445.0601,1041.2158 445.0601,1043.3159 Q445.0601,1045.4077 445.7449,1046.4744 Q446.4297,1047.541 447.7744,1047.541 Q448.4053,1047.541 448.9988,1047.2712 Q449.5923,1047.0015 450.2231,1046.4204 Z " fill="#000000"/><text fill="#000000" font-family="sans-serif" font-size="12" lengthAdjust="spacing" textLength="65" x="468.25" y="1047.5352">Queue&lt;T&gt;</text><line style="stroke:#FF0000;stroke-width:1.5;" x1="393.5" x2="575.5" y1="1059" y2="1059"/><rect fill="none" height="6" style="stroke:#C82930;stroke-width:1.0;" width="6" x="400.5" y="1067"/><text fill="#000000" font-family="sans-serif" font-size="11" lengthAdjust="spacing" textLength="77" x="412.5" y="1073.6348">head : number</text><rect fill="none" height="6" style="stroke:#C82930;stroke-width:1.0;" width="6" x="400.5" y="1079.9551"/><text fill="#000000" font-family="sans-serif" font-size="11" lengthAdjust="spacing" textLength="135" x="412.5" y="1086.5898">MAX_ELEMENTS : number</text><rect fill="none" height="6" style="stroke:#C82930;stroke-width:1.0;" width="6" x="400.5" y="1092.9102"/><text fill="#000000" font-family="sans-serif" font-size="11" lengthAdjust="spacing" textLength="31" x="412.5" y="1099.5449">q : T[]</text><rect fill="none" height="6" style="stroke:#C82930;stroke-width:1.0;" width="6" x="400.5" y="1105.8652"/><text fill="#000000" font-family="sans-serif" font-size="11" lengthAdjust="spacing" textLength="72" x="412.5" y="1112.5">size : number</text><rect fill="none" height="6" style="stroke:#C82930;stroke-width:1.0;" width="6" x="400.5" y="1118.8203"/><text fill="#000000" font-family="sans-serif" font-size="11" lengthAdjust="spacing" textLength="67" x="412.5" y="1125.4551">tail : number</text><line style="stroke:#FF0000;stroke-width:1.5;" x1="393.5" x2="575.5" y1="1131.7754" y2="1131.7754"/><ellipse cx="403.5" cy="1142.7754" fill="#84BE84" rx="3" ry="3" style="stroke:#038048;stroke-width:1.0;"/><text fill="#000000" font-family="sans-serif" font-size="11" lengthAdjust="spacing" textLength="66" x="412.5" y="1146.4102">clear() : void</text><ellipse cx="403.5" cy="1155.7305" fill="#84BE84" rx="3" ry="3" style="stroke:#038048;stroke-width:1.0;"/><text fill="#000000" font-family="sans-serif" font-size="11" lengthAdjust="spacing" textLength="70" x="412.5" y="1159.3652">dequeue() : T</text><ellipse cx="403.5" cy="1168.6855" fill="#84BE84" rx="3" ry="3" style="stroke:#038048;stroke-width:1.0;"/><text fill="#000000" font-family="sans-serif" font-size="11" lengthAdjust="spacing" textLength="122" x="412.5" y="1172.3203">enqueue(item: T) : void</text><ellipse cx="403.5" cy="1181.6406" fill="#84BE84" rx="3" ry="3" style="stroke:#038048;stroke-width:1.0;"/><text fill="#000000" font-family="sans-serif" font-size="11" lengthAdjust="spacing" textLength="158" x="412.5" y="1185.2754">forEach(func: Function) : void</text><ellipse cx="403.5" cy="1194.5957" fill="#84BE84" rx="3" ry="3" style="stroke:#038048;stroke-width:1.0;"/><text fill="#000000" font-family="sans-serif" font-size="11" lengthAdjust="spacing" textLength="97" x="412.5" y="1198.2305">getSize() : number</text><ellipse cx="403.5" cy="1207.5508" fill="#84BE84" rx="3" ry="3" style="stroke:#038048;stroke-width:1.0;"/><text fill="#000000" font-family="sans-serif" font-size="11" lengthAdjust="spacing" textLength="108" x="412.5" y="1211.1855">hasItems() : boolean</text><ellipse cx="403.5" cy="1220.5059" fill="#84BE84" rx="3" ry="3" style="stroke:#038048;stroke-width:1.0;"/><text fill="#000000" font-family="sans-serif" font-size="11" lengthAdjust="spacing" textLength="74" x="412.5" y="1224.1406">peekNext() : T</text><ellipse cx="403.5" cy="1233.4609" fill="#84BE84" rx="3" ry="3" style="stroke:#038048;stroke-width:1.0;"/><text fill="#000000" font-family="sans-serif" font-size="11" lengthAdjust="spacing" textLength="92" x="412.5" y="1237.0957">toString() : string</text><!--MD5=[436d0f1cf037ffca600a8f8d2870c506]
class RegionQuadTree<T>--><rect codeLine="92" fill="#FEFECE" filter="url(#f8bsbeczhl6m5)" height="307.1016" id="RegionQuadTree&lt;T&gt;" style="stroke:#FF0000;stroke-width:1.5;" width="467" x="251" y="1278.5"/><ellipse cx="417.75" cy="1294.5" fill="#ADD1B2" rx="11" ry="11" style="stroke:#FF0000;stroke-width:1.0;"/><path d="M420.2231,1300.6431 Q419.6421,1300.9419 419.0029,1301.0913 Q418.3638,1301.2407 417.6582,1301.2407 Q415.1514,1301.2407 413.8315,1299.5889 Q412.5117,1297.937 412.5117,1294.8159 Q412.5117,1291.6865 413.8315,1290.0347 Q415.1514,1288.3828 417.6582,1288.3828 Q418.3638,1288.3828 419.0112,1288.5322 Q419.6587,1288.6816 420.2231,1288.9805 L420.2231,1291.7031 Q419.5923,1291.1221 418.9988,1290.8523 Q418.4053,1290.5825 417.7744,1290.5825 Q416.4297,1290.5825 415.7449,1291.6492 Q415.0601,1292.7158 415.0601,1294.8159 Q415.0601,1296.9077 415.7449,1297.9744 Q416.4297,1299.041 417.7744,1299.041 Q418.4053,1299.041 418.9988,1298.7712 Q419.5923,1298.5015 420.2231,1297.9204 Z " fill="#000000"/><text fill="#000000" font-family="sans-serif" font-size="12" lengthAdjust="spacing" textLength="125" x="438.25" y="1299.0352">RegionQuadTree&lt;T&gt;</text><line style="stroke:#FF0000;stroke-width:1.5;" x1="252" x2="717" y1="1310.5" y2="1310.5"/><polygon fill="none" points="262,1316.5,266,1320.5,262,1324.5,258,1320.5" style="stroke:#B38D22;stroke-width:1.0;"/><text fill="#000000" font-family="sans-serif" font-size="11" lengthAdjust="spacing" textLength="89" x="271" y="1325.1348">boundary : AABB</text><polygon fill="none" points="262,1329.4551,266,1333.4551,262,1337.4551,258,1333.4551" style="stroke:#B38D22;stroke-width:1.0;"/><text fill="#000000" font-family="sans-serif" font-size="11" lengthAdjust="spacing" textLength="95" x="271" y="1338.0898">capacity : number</text><polygon fill="none" points="262,1342.4102,266,1346.4102,262,1350.4102,258,1346.4102" style="stroke:#B38D22;stroke-width:1.0;"/><text fill="#000000" font-family="sans-serif" font-size="11" lengthAdjust="spacing" textLength="91" x="271" y="1351.0449">divided : boolean</text><polygon fill="none" points="262,1355.3652,266,1359.3652,262,1363.3652,258,1359.3652" style="stroke:#B38D22;stroke-width:1.0;"/><text fill="#000000" font-family="sans-serif" font-size="11" lengthAdjust="spacing" textLength="53" x="271" y="1364">items : T[]</text><polygon fill="none" points="262,1368.3203,266,1372.3203,262,1376.3203,258,1372.3203" style="stroke:#B38D22;stroke-width:1.0;"/><text fill="#000000" font-family="sans-serif" font-size="11" lengthAdjust="spacing" textLength="106" x="271" y="1376.9551">maxDepth : number</text><polygon fill="none" points="262,1381.2754,266,1385.2754,262,1389.2754,258,1385.2754" style="stroke:#B38D22;stroke-width:1.0;"/><text fill="#000000" font-family="sans-serif" font-size="11" lengthAdjust="spacing" textLength="137" x="271" y="1389.9102">ne : RegionQuadTree&lt;T&gt;</text><polygon fill="none" points="262,1394.2305,266,1398.2305,262,1402.2305,258,1398.2305" style="stroke:#B38D22;stroke-width:1.0;"/><text fill="#000000" font-family="sans-serif" font-size="11" lengthAdjust="spacing" textLength="139" x="271" y="1402.8652">nw : RegionQuadTree&lt;T&gt;</text><polygon fill="none" points="262,1407.1855,266,1411.1855,262,1415.1855,258,1411.1855" style="stroke:#B38D22;stroke-width:1.0;"/><text fill="#000000" font-family="sans-serif" font-size="11" lengthAdjust="spacing" textLength="136" x="271" y="1415.8203">se : RegionQuadTree&lt;T&gt;</text><polygon fill="none" points="262,1420.1406,266,1424.1406,262,1428.1406,258,1424.1406" style="stroke:#B38D22;stroke-width:1.0;"/><text fill="#000000" font-family="sans-serif" font-size="11" lengthAdjust="spacing" textLength="138" x="271" y="1428.7754">sw : RegionQuadTree&lt;T&gt;</text><line style="stroke:#FF0000;stroke-width:1.5;" x1="252" x2="717" y1="1435.0957" y2="1435.0957"/><ellipse cx="262" cy="1446.0957" fill="#84BE84" rx="3" ry="3" style="stroke:#038048;stroke-width:1.0;"/><text fill="#000000" font-family="sans-serif" font-size="11" lengthAdjust="spacing" textLength="66" x="271" y="1449.7305">clear() : void</text><ellipse cx="262" cy="1459.0508" fill="#84BE84" rx="3" ry="3" style="stroke:#038048;stroke-width:1.0;"/><text fill="#000000" font-family="sans-serif" font-size="11" lengthAdjust="spacing" textLength="158" x="271" y="1462.6855">forEach(func: Function) : void</text><ellipse cx="262" cy="1472.0059" fill="#84BE84" rx="3" ry="3" style="stroke:#038048;stroke-width:1.0;"/><text fill="#000000" font-family="sans-serif" font-size="11" lengthAdjust="spacing" textLength="107" x="271" y="1475.6406">insert(item: T) : void</text><ellipse cx="262" cy="1484.9609" fill="#84BE84" rx="3" ry="3" style="stroke:#038048;stroke-width:1.0;"/><text fill="#000000" font-family="sans-serif" font-size="11" lengthAdjust="spacing" textLength="150" x="271" y="1488.5957">queryPoint(point: Vec2) : T[]</text><ellipse cx="262" cy="1497.916" fill="#84BE84" rx="3" ry="3" style="stroke:#038048;stroke-width:1.0;"/><text fill="#000000" font-family="sans-serif" font-size="11" lengthAdjust="spacing" textLength="186" x="271" y="1501.5508">queryRegion(boundary: AABB) : T[]</text><ellipse cx="262" cy="1510.8711" fill="#84BE84" rx="3" ry="3" style="stroke:#038048;stroke-width:1.0;"/><text fill="#000000" font-family="sans-serif" font-size="11" lengthAdjust="spacing" textLength="441" x="271" y="1514.5059">render_demo(ctx: CanvasRenderingContext2D, origin: Vec2, zoom: number) : void</text><polygon fill="#FFFF44" points="262,1518.8262,266,1522.8262,262,1526.8262,258,1522.8262" style="stroke:#B38D22;stroke-width:1.0;"/><text fill="#000000" font-family="sans-serif" font-size="11" lengthAdjust="spacing" textLength="135" x="271" y="1527.4609">deferInsert(item: T) : void</text><polygon fill="#FFFF44" points="262,1531.7813,266,1535.7813,262,1539.7813,258,1535.7813" style="stroke:#B38D22;stroke-width:1.0;"/><text fill="#000000" font-family="sans-serif" font-size="11" lengthAdjust="spacing" textLength="121" x="271" y="1540.416">distributeItems() : void</text><polygon fill="#FFFF44" points="262,1544.7363,266,1548.7363,262,1552.7363,258,1548.7363" style="stroke:#B38D22;stroke-width:1.0;"/><text fill="#000000" font-family="sans-serif" font-size="11" lengthAdjust="spacing" textLength="92" x="271" y="1553.3711">subdivide() : void</text><polygon fill="#FFFF44" points="262,1557.6914,266,1561.6914,262,1565.6914,258,1561.6914" style="stroke:#B38D22;stroke-width:1.0;"/><text fill="#000000" font-family="sans-serif" font-size="11" lengthAdjust="spacing" textLength="346" x="271" y="1566.3262">_queryPoint(point: Vec2, results: T[], uniqueMap: Map&lt;T&gt;) : void</text><polygon fill="#FFFF44" points="262,1570.6465,266,1574.6465,262,1578.6465,258,1574.6465" style="stroke:#B38D22;stroke-width:1.0;"/><text fill="#000000" font-family="sans-serif" font-size="11" lengthAdjust="spacing" textLength="386" x="271" y="1579.2813">_queryRegion(boundary: AABB, results: T[], uniqueMap: boolean[]) : void</text><!--MD5=[fb7006540e733b1a9ab65208252ddbb8]
class Stack<T>--><rect codeLine="115" fill="#FEFECE" filter="url(#f8bsbeczhl6m5)" height="190.5059" id="Stack&lt;T&gt;" style="stroke:#FF0000;stroke-width:1.5;" width="184" x="392.5" y="1620.5"/><ellipse cx="451.25" cy="1636.5" fill="#ADD1B2" rx="11" ry="11" style="stroke:#FF0000;stroke-width:1.0;"/><path d="M453.7231,1642.6431 Q453.1421,1642.9419 452.5029,1643.0913 Q451.8638,1643.2407 451.1582,1643.2407 Q448.6514,1643.2407 447.3315,1641.5889 Q446.0117,1639.937 446.0117,1636.8159 Q446.0117,1633.6865 447.3315,1632.0347 Q448.6514,1630.3828 451.1582,1630.3828 Q451.8638,1630.3828 452.5112,1630.5322 Q453.1587,1630.6816 453.7231,1630.9805 L453.7231,1633.7031 Q453.0923,1633.1221 452.4988,1632.8523 Q451.9053,1632.5825 451.2744,1632.5825 Q449.9297,1632.5825 449.2449,1633.6492 Q448.5601,1634.7158 448.5601,1636.8159 Q448.5601,1638.9077 449.2449,1639.9744 Q449.9297,1641.041 451.2744,1641.041 Q451.9053,1641.041 452.4988,1640.7712 Q453.0923,1640.5015 453.7231,1639.9204 Z " fill="#000000"/><text fill="#000000" font-family="sans-serif" font-size="12" lengthAdjust="spacing" textLength="58" x="471.75" y="1641.0352">Stack&lt;T&gt;</text><line style="stroke:#FF0000;stroke-width:1.5;" x1="393.5" x2="575.5" y1="1652.5" y2="1652.5"/><rect fill="none" height="6" style="stroke:#C82930;stroke-width:1.0;" width="6" x="400.5" y="1660.5"/><text fill="#000000" font-family="sans-serif" font-size="11" lengthAdjust="spacing" textLength="77" x="412.5" y="1667.1348">head : number</text><rect fill="none" height="6" style="stroke:#C82930;stroke-width:1.0;" width="6" x="400.5" y="1673.4551"/><text fill="#000000" font-family="sans-serif" font-size="11" lengthAdjust="spacing" textLength="135" x="412.5" y="1680.0898">MAX_ELEMENTS : number</text><rect fill="none" height="6" style="stroke:#C82930;stroke-width:1.0;" width="6" x="400.5" y="1686.4102"/><text fill="#000000" font-family="sans-serif" font-size="11" lengthAdjust="spacing" textLength="52" x="412.5" y="1693.0449">stack : T[]</text><line style="stroke:#FF0000;stroke-width:1.5;" x1="393.5" x2="575.5" y1="1699.3652" y2="1699.3652"/><ellipse cx="403.5" cy="1710.3652" fill="#84BE84" rx="3" ry="3" style="stroke:#038048;stroke-width:1.0;"/><text fill="#000000" font-family="sans-serif" font-size="11" lengthAdjust="spacing" textLength="66" x="412.5" y="1714">clear() : void</text><ellipse cx="403.5" cy="1723.3203" fill="#84BE84" rx="3" ry="3" style="stroke:#038048;stroke-width:1.0;"/><text fill="#000000" font-family="sans-serif" font-size="11" lengthAdjust="spacing" textLength="158" x="412.5" y="1726.9551">forEach(func: Function) : void</text><ellipse cx="403.5" cy="1736.2754" fill="#84BE84" rx="3" ry="3" style="stroke:#038048;stroke-width:1.0;"/><text fill="#000000" font-family="sans-serif" font-size="11" lengthAdjust="spacing" textLength="102" x="412.5" y="1739.9102">isEmpty() : boolean</text><ellipse cx="403.5" cy="1749.2305" fill="#84BE84" rx="3" ry="3" style="stroke:#038048;stroke-width:1.0;"/><text fill="#000000" font-family="sans-serif" font-size="11" lengthAdjust="spacing" textLength="49" x="412.5" y="1752.8652">peek() : T</text><ellipse cx="403.5" cy="1762.1855" fill="#84BE84" rx="3" ry="3" style="stroke:#038048;stroke-width:1.0;"/><text fill="#000000" font-family="sans-serif" font-size="11" lengthAdjust="spacing" textLength="45" x="412.5" y="1765.8203">pop() : T</text><ellipse cx="403.5" cy="1775.1406" fill="#84BE84" rx="3" ry="3" style="stroke:#038048;stroke-width:1.0;"/><text fill="#000000" font-family="sans-serif" font-size="11" lengthAdjust="spacing" textLength="103" x="412.5" y="1778.7754">push(item: T) : void</text><ellipse cx="403.5" cy="1788.0957" fill="#84BE84" rx="3" ry="3" style="stroke:#038048;stroke-width:1.0;"/><text fill="#000000" font-family="sans-serif" font-size="11" lengthAdjust="spacing" textLength="80" x="412.5" y="1791.7305">size() : number</text><ellipse cx="403.5" cy="1801.0508" fill="#84BE84" rx="3" ry="3" style="stroke:#038048;stroke-width:1.0;"/><text fill="#000000" font-family="sans-serif" font-size="11" lengthAdjust="spacing" textLength="92" x="412.5" y="1804.6855">toString() : string</text><!--MD5=[a8f009b32ab35c33472062813fbe045f]
reverse link Collection to Heap<T>--><path codeLine="34" d="M104.42,810.89 C114.95,711.26 148.8,492.95 251,344 C277.62,305.2 315.47,271.28 352.92,243.8 " fill="none" id="Collection-backto-Heap&lt;T&gt;" style="stroke:#FF0000;stroke-width:1.0;stroke-dasharray:7.0,7.0;"/><polygon fill="none" points="111.38,811.61,102.46,830.83,97.45,810.24,111.38,811.61" style="stroke:#FF0000;stroke-width:1.0;"/><!--MD5=[4eb1729ebd56ae2608f414e26e76dc86]
reverse link Collection to List<T>--><path codeLine="43" d="M108.33,810.83 C123.25,733.06 161.74,588.49 251,505 C289.58,468.91 345.19,449.02 392.35,438.1 " fill="none" id="Collection-backto-List&lt;T&gt;" style="stroke:#FF0000;stroke-width:1.0;stroke-dasharray:7.0,7.0;"/><polygon fill="none" points="115.16,812.44,104.73,830.88,101.38,809.96,115.16,812.44" style="stroke:#FF0000;stroke-width:1.0;"/><!--MD5=[ddff44a63bd43d18e710a8badc48b93c]
reverse link Collection to Map<T>--><path codeLine="56" d="M142.43,815.65 C170.95,785.18 210.59,746.54 251,719 C293.78,689.85 345.77,665.07 389.73,646.72 " fill="none" id="Collection-backto-Map&lt;T&gt;" style="stroke:#FF0000;stroke-width:1.0;stroke-dasharray:7.0,7.0;"/><polygon fill="none" points="147.26,820.74,128.58,830.74,136.95,811.27,147.26,820.74" style="stroke:#FF0000;stroke-width:1.0;"/><!--MD5=[21eceea7aaf237daefa3b2a5e48b6806]
reverse link Collection to QuadTree<T>--><path codeLine="75" d="M211.56,864 C247.82,864 288.74,864 327.63,864 " fill="none" id="Collection-backto-QuadTree&lt;T&gt;" style="stroke:#FF0000;stroke-width:1.0;stroke-dasharray:7.0,7.0;"/><polygon fill="none" points="211.37,871,191.37,864,211.37,857,211.37,871" style="stroke:#FF0000;stroke-width:1.0;"/><!--MD5=[af29c0f9b332e8adfb7dde84f08603cf]
reverse link Collection to Queue<T>--><path codeLine="91" d="M143.6,912.04 C172.32,942.07 211.76,980.34 251,1009 C294.93,1041.09 348.01,1070.47 392.35,1092.77 " fill="none" id="Collection-backto-Queue&lt;T&gt;" style="stroke:#FF0000;stroke-width:1.0;stroke-dasharray:7.0,7.0;"/><polygon fill="none" points="138.22,916.54,129.61,897.18,148.41,906.94,138.22,916.54" style="stroke:#FF0000;stroke-width:1.0;"/><!--MD5=[24ee9484d373c81dcf9aa3a2df39bef6]
reverse link Collection to RegionQuadTree<T>--><path codeLine="114" d="M110.14,916.8 C127.68,997.41 169.86,1153.06 251,1260 C255.7,1266.2 260.69,1272.28 265.91,1278.23 " fill="none" id="Collection-backto-RegionQuadTree&lt;T&gt;" style="stroke:#FF0000;stroke-width:1.0;stroke-dasharray:7.0,7.0;"/><polygon fill="none" points="103.25,918.09,106.02,897.08,116.96,915.22,103.25,918.09" style="stroke:#FF0000;stroke-width:1.0;"/><!--MD5=[61f25ba62b4e6d47c88d6f463867a92a]
reverse link Collection to Stack<T>--><path codeLine="128" d="M104.82,917.67 C119.35,1068.92 166.92,1494.66 251,1603 C285.88,1647.94 343.21,1676.08 392.22,1693.04 " fill="none" id="Collection-backto-Stack&lt;T&gt;" style="stroke:#FF0000;stroke-width:1.0;stroke-dasharray:7.0,7.0;"/><polygon fill="none" points="97.82,917.99,102.92,897.42,111.76,916.68,97.82,917.99" style="stroke:#FF0000;stroke-width:1.0;"/><!--MD5=[5bf2a9a4093c65bbbef4a436dbe39e69]
@startuml
skinparam ClassArrowColor #ff0000
skinparam ClassBorderColor #ff0000
skinparam BackgroundColor transparent
left to right direction
hide empty methods
hide empty fields
interface "Collection" {
    +clear() : void
    +forEach(func: Function) : void
}
class "Heap<T>" {
    -comp : Function
    -heap : T[]
    -map : Map<T, number>
    -MAX_ELEMENTS : number
    -ROOT : number
    -size : number
    +clear() : void
    +forEach(func: Function) : void
    +has(value: T) : boolean
    +isEmpty() : boolean
    +peek() : T
    +pop() : T
    +push(e: T) : void
    +restore(value: T) : void
    +toString() : string
    #lchild(node: number) : number
    #parent(node: number) : number
    #percdown(node: number) : void
    #percup(node: number) : void
    #rchild(node: number) : number
    #swap(node1: number, node2: number) : void
}
"Collection" <|.. "Heap<T>"
class "List<T>" {
    -head : ListItem<T>
    -tail : ListItem<T>
    -_size : number
    +add(value: T) : void
    +clear() : void
    +forEach(func: Function) : void
}
"Collection" <|.. "List<T>"
class "Map<T>" {
    -map : Record<string, T>
    +add(key: string, value: T) : void
    +clear() : void
    +delete(key: string) : void
    +forEach(func: Function) : void
    +get(key: string) : T
    +has(key: string) : boolean
    +keys() : string[]
    +set(key: string, value: T) : void
    +toString() : string
}
"Collection" <|.. "Map<T>"
class "QuadTree<T>" {
    #boundary : AABB
    #capacity : number
    #divided : boolean
    #items : T[]
    #maxDepth : number
    #ne : QuadTree<T>
    #nw : QuadTree<T>
    #se : QuadTree<T>
    #sw : QuadTree<T>
    +clear() : void
    +forEach(func: Function) : void
    +insert(item: T) : void
    +render_demo(ctx: CanvasRenderingContext2D) : void
    #deferInsert(item: T) : void
    #distributeItems() : void
    #subdivide() : void
}
"Collection" <|.. "QuadTree<T>"
class "Queue<T>" {
    -head : number
    -MAX_ELEMENTS : number
    -q : T[]
    -size : number
    -tail : number
    +clear() : void
    +dequeue() : T
    +enqueue(item: T) : void
    +forEach(func: Function) : void
    +getSize() : number
    +hasItems() : boolean
    +peekNext() : T
    +toString() : string
}
"Collection" <|.. "Queue<T>"
class "RegionQuadTree<T>" {
    #boundary : AABB
    #capacity : number
    #divided : boolean
    #items : T[]
    #maxDepth : number
    #ne : RegionQuadTree<T>
    #nw : RegionQuadTree<T>
    #se : RegionQuadTree<T>
    #sw : RegionQuadTree<T>
    +clear() : void
    +forEach(func: Function) : void
    +insert(item: T) : void
    +queryPoint(point: Vec2) : T[]
    +queryRegion(boundary: AABB) : T[]
    +render_demo(ctx: CanvasRenderingContext2D, origin: Vec2, zoom: number) : void
    #deferInsert(item: T) : void
    #distributeItems() : void
    #subdivide() : void
    #_queryPoint(point: Vec2, results: T[], uniqueMap: Map<T>) : void
    #_queryRegion(boundary: AABB, results: T[], uniqueMap: boolean[]) : void
}
"Collection" <|.. "RegionQuadTree<T>"
class "Stack<T>" {
    -head : number
    -MAX_ELEMENTS : number
    -stack : T[]
    +clear() : void
    +forEach(func: Function) : void
    +isEmpty() : boolean
    +peek() : T
    +pop() : T
    +push(item: T) : void
    +size() : number
    +toString() : string
}
"Collection" <|.. "Stack<T>"
@enduml

PlantUML version 1.2021.14(Fri Nov 12 11:46:50 EST 2021)
(GPL source distribution)
Java Runtime: Java(TM) SE Runtime Environment
JVM: Java HotSpot(TM) 64-Bit Server VM
Default Encoding: UTF-8
Language: en
Country: US
--></g></svg>