<?xml version="1.0" encoding="UTF-8" standalone="no"?><svg xmlns="http://www.w3.org/2000/svg" xmlns:xlink="http://www.w3.org/1999/xlink" contentScriptType="application/ecmascript" contentStyleType="text/css" height="455px" preserveAspectRatio="none" style="width:325px;height:455px;background:#00000000;" version="1.1" viewBox="0 0 325 455" width="325px" zoomAndPan="magnify"><defs><filter height="300%" id="f1le3zmevmdh2k" width="300%" x="-1" y="-1"><feGaussianBlur result="blurOut" stdDeviation="2.0"/><feColorMatrix in="blurOut" result="blurOut2" type="matrix" values="0 0 0 0 0 0 0 0 0 0 0 0 0 0 0 0 0 0 .4 0"/><feOffset dx="4.0" dy="4.0" in="blurOut2" result="blurOut3"/><feBlend in="SourceGraphic" in2="blurOut3" mode="normal"/></filter></defs><g><!--MD5=[c160724f8e3bb89ca8141a12554ac2e3]
class Collection--><rect codeLine="7" fill="#FEFECE" filter="url(#f1le3zmevmdh2k)" height="32" id="Collection" style="stroke:#FF0000;stroke-width:1.5;" width="87" x="7" y="208"/><ellipse cx="22" cy="224" fill="#B4A7E5" rx="11" ry="11" style="stroke:#FF0000;stroke-width:1.0;"/><path d="M18.4277,220.2651 L18.4277,218.1069 L25.8071,218.1069 L25.8071,220.2651 L23.3418,220.2651 L23.3418,228.3418 L25.8071,228.3418 L25.8071,230.5 L18.4277,230.5 L18.4277,228.3418 L20.8931,228.3418 L20.8931,220.2651 Z " fill="#000000"/><text fill="#000000" font-family="sans-serif" font-size="12" font-style="italic" lengthAdjust="spacing" textLength="55" x="36" y="228.5352">Collection</text><!--MD5=[fd8d39f213df5fb9b4018799c2b6469e]
class Heap<T>--><rect codeLine="9" fill="#FEFECE" filter="url(#f1le3zmevmdh2k)" height="32" id="Heap&lt;T&gt;" style="stroke:#FF0000;stroke-width:1.5;" width="91" x="187" y="7"/><ellipse cx="202" cy="23" fill="#ADD1B2" rx="11" ry="11" style="stroke:#FF0000;stroke-width:1.0;"/><path d="M204.4731,29.1431 Q203.8921,29.4419 203.2529,29.5913 Q202.6138,29.7407 201.9082,29.7407 Q199.4014,29.7407 198.0815,28.0889 Q196.7617,26.437 196.7617,23.3159 Q196.7617,20.1865 198.0815,18.5347 Q199.4014,16.8828 201.9082,16.8828 Q202.6138,16.8828 203.2612,17.0322 Q203.9087,17.1816 204.4731,17.4805 L204.4731,20.2031 Q203.8423,19.6221 203.2488,19.3523 Q202.6553,19.0825 202.0244,19.0825 Q200.6797,19.0825 199.9949,20.1492 Q199.3101,21.2158 199.3101,23.3159 Q199.3101,25.4077 199.9949,26.4744 Q200.6797,27.541 202.0244,27.541 Q202.6553,27.541 203.2488,27.2712 Q203.8423,27.0015 204.4731,26.4204 Z " fill="#000000"/><text fill="#000000" font-family="sans-serif" font-size="12" lengthAdjust="spacing" textLength="59" x="216" y="27.5352">Heap&lt;T&gt;</text><!--MD5=[4dcd53ac5be50d67f3d64d956c655d59]
class List<T>--><rect codeLine="12" fill="#FEFECE" filter="url(#f1le3zmevmdh2k)" height="32" id="List&lt;T&gt;" style="stroke:#FF0000;stroke-width:1.5;" width="79" x="193" y="74"/><ellipse cx="208" cy="90" fill="#ADD1B2" rx="11" ry="11" style="stroke:#FF0000;stroke-width:1.0;"/><path d="M210.4731,96.1431 Q209.8921,96.4419 209.2529,96.5913 Q208.6138,96.7407 207.9082,96.7407 Q205.4014,96.7407 204.0815,95.0889 Q202.7617,93.437 202.7617,90.3159 Q202.7617,87.1865 204.0815,85.5347 Q205.4014,83.8828 207.9082,83.8828 Q208.6138,83.8828 209.2612,84.0322 Q209.9087,84.1816 210.4731,84.4805 L210.4731,87.2031 Q209.8423,86.6221 209.2488,86.3523 Q208.6553,86.0825 208.0244,86.0825 Q206.6797,86.0825 205.9949,87.1492 Q205.3101,88.2158 205.3101,90.3159 Q205.3101,92.4077 205.9949,93.4744 Q206.6797,94.541 208.0244,94.541 Q208.6553,94.541 209.2488,94.2712 Q209.8423,94.0015 210.4731,93.4204 Z " fill="#000000"/><text fill="#000000" font-family="sans-serif" font-size="12" lengthAdjust="spacing" textLength="47" x="222" y="94.5352">List&lt;T&gt;</text><!--MD5=[8e786d5ad0a1f26ce02b3732d670e3a1]
class Map<T>--><rect codeLine="15" fill="#FEFECE" filter="url(#f1le3zmevmdh2k)" height="32" id="Map&lt;T&gt;" style="stroke:#FF0000;stroke-width:1.5;" width="85" x="190" y="141"/><ellipse cx="205" cy="157" fill="#ADD1B2" rx="11" ry="11" style="stroke:#FF0000;stroke-width:1.0;"/><path d="M207.4731,163.1431 Q206.8921,163.4419 206.2529,163.5913 Q205.6138,163.7407 204.9082,163.7407 Q202.4014,163.7407 201.0815,162.0889 Q199.7617,160.437 199.7617,157.3159 Q199.7617,154.1865 201.0815,152.5347 Q202.4014,150.8828 204.9082,150.8828 Q205.6138,150.8828 206.2612,151.0322 Q206.9087,151.1816 207.4731,151.4805 L207.4731,154.2031 Q206.8423,153.6221 206.2488,153.3523 Q205.6553,153.0825 205.0244,153.0825 Q203.6797,153.0825 202.9949,154.1492 Q202.3101,155.2158 202.3101,157.3159 Q202.3101,159.4077 202.9949,160.4744 Q203.6797,161.541 205.0244,161.541 Q205.6553,161.541 206.2488,161.2712 Q206.8423,161.0015 207.4731,160.4204 Z " fill="#000000"/><text fill="#000000" font-family="sans-serif" font-size="12" lengthAdjust="spacing" textLength="53" x="219" y="161.5352">Map&lt;T&gt;</text><!--MD5=[51b30b53d746c08f9b2f1f5a55712f3a]
class QuadTree<T>--><rect codeLine="18" fill="#FEFECE" filter="url(#f1le3zmevmdh2k)" height="32" id="QuadTree&lt;T&gt;" style="stroke:#FF0000;stroke-width:1.5;" width="118" x="173.5" y="208"/><ellipse cx="188.5" cy="224" fill="#ADD1B2" rx="11" ry="11" style="stroke:#FF0000;stroke-width:1.0;"/><path d="M190.9731,230.1431 Q190.3921,230.4419 189.7529,230.5913 Q189.1138,230.7407 188.4082,230.7407 Q185.9014,230.7407 184.5815,229.0889 Q183.2617,227.437 183.2617,224.3159 Q183.2617,221.1865 184.5815,219.5347 Q185.9014,217.8828 188.4082,217.8828 Q189.1138,217.8828 189.7612,218.0322 Q190.4087,218.1816 190.9731,218.4805 L190.9731,221.2031 Q190.3423,220.6221 189.7488,220.3523 Q189.1553,220.0825 188.5244,220.0825 Q187.1797,220.0825 186.4949,221.1492 Q185.8101,222.2158 185.8101,224.3159 Q185.8101,226.4077 186.4949,227.4744 Q187.1797,228.541 188.5244,228.541 Q189.1553,228.541 189.7488,228.2712 Q190.3423,228.0015 190.9731,227.4204 Z " fill="#000000"/><text fill="#000000" font-family="sans-serif" font-size="12" lengthAdjust="spacing" textLength="86" x="202.5" y="228.5352">QuadTree&lt;T&gt;</text><!--MD5=[4cf8791f059241ba487a2a3cb7a4983d]
class Queue<T>--><rect codeLine="21" fill="#FEFECE" filter="url(#f1le3zmevmdh2k)" height="32" id="Queue&lt;T&gt;" style="stroke:#FF0000;stroke-width:1.5;" width="97" x="184" y="275"/><ellipse cx="199" cy="291" fill="#ADD1B2" rx="11" ry="11" style="stroke:#FF0000;stroke-width:1.0;"/><path d="M201.4731,297.1431 Q200.8921,297.4419 200.2529,297.5913 Q199.6138,297.7407 198.9082,297.7407 Q196.4014,297.7407 195.0815,296.0889 Q193.7617,294.437 193.7617,291.3159 Q193.7617,288.1865 195.0815,286.5347 Q196.4014,284.8828 198.9082,284.8828 Q199.6138,284.8828 200.2612,285.0322 Q200.9087,285.1816 201.4731,285.4805 L201.4731,288.2031 Q200.8423,287.6221 200.2488,287.3523 Q199.6553,287.0825 199.0244,287.0825 Q197.6797,287.0825 196.9949,288.1492 Q196.3101,289.2158 196.3101,291.3159 Q196.3101,293.4077 196.9949,294.4744 Q197.6797,295.541 199.0244,295.541 Q199.6553,295.541 200.2488,295.2712 Q200.8423,295.0015 201.4731,294.4204 Z " fill="#000000"/><text fill="#000000" font-family="sans-serif" font-size="12" lengthAdjust="spacing" textLength="65" x="213" y="295.5352">Queue&lt;T&gt;</text><!--MD5=[436d0f1cf037ffca600a8f8d2870c506]
class RegionQuadTree<T>--><rect codeLine="24" fill="#FEFECE" filter="url(#f1le3zmevmdh2k)" height="32" id="RegionQuadTree&lt;T&gt;" style="stroke:#FF0000;stroke-width:1.5;" width="157" x="154" y="342"/><ellipse cx="169" cy="358" fill="#ADD1B2" rx="11" ry="11" style="stroke:#FF0000;stroke-width:1.0;"/><path d="M171.4731,364.1431 Q170.8921,364.4419 170.2529,364.5913 Q169.6138,364.7407 168.9082,364.7407 Q166.4014,364.7407 165.0815,363.0889 Q163.7617,361.437 163.7617,358.3159 Q163.7617,355.1865 165.0815,353.5347 Q166.4014,351.8828 168.9082,351.8828 Q169.6138,351.8828 170.2612,352.0322 Q170.9087,352.1816 171.4731,352.4805 L171.4731,355.2031 Q170.8423,354.6221 170.2488,354.3523 Q169.6553,354.0825 169.0244,354.0825 Q167.6797,354.0825 166.9949,355.1492 Q166.3101,356.2158 166.3101,358.3159 Q166.3101,360.4077 166.9949,361.4744 Q167.6797,362.541 169.0244,362.541 Q169.6553,362.541 170.2488,362.2712 Q170.8423,362.0015 171.4731,361.4204 Z " fill="#000000"/><text fill="#000000" font-family="sans-serif" font-size="12" lengthAdjust="spacing" textLength="125" x="183" y="362.5352">RegionQuadTree&lt;T&gt;</text><!--MD5=[fb7006540e733b1a9ab65208252ddbb8]
class Stack<T>--><rect codeLine="27" fill="#FEFECE" filter="url(#f1le3zmevmdh2k)" height="32" id="Stack&lt;T&gt;" style="stroke:#FF0000;stroke-width:1.5;" width="90" x="187.5" y="409"/><ellipse cx="202.5" cy="425" fill="#ADD1B2" rx="11" ry="11" style="stroke:#FF0000;stroke-width:1.0;"/><path d="M204.9731,431.1431 Q204.3921,431.4419 203.7529,431.5913 Q203.1138,431.7407 202.4082,431.7407 Q199.9014,431.7407 198.5815,430.0889 Q197.2617,428.437 197.2617,425.3159 Q197.2617,422.1865 198.5815,420.5347 Q199.9014,418.8828 202.4082,418.8828 Q203.1138,418.8828 203.7612,419.0322 Q204.4087,419.1816 204.9731,419.4805 L204.9731,422.2031 Q204.3423,421.6221 203.7488,421.3523 Q203.1553,421.0825 202.5244,421.0825 Q201.1797,421.0825 200.4949,422.1492 Q199.8101,423.2158 199.8101,425.3159 Q199.8101,427.4077 200.4949,428.4744 Q201.1797,429.541 202.5244,429.541 Q203.1553,429.541 203.7488,429.2712 Q204.3423,429.0015 204.9731,428.4204 Z " fill="#000000"/><text fill="#000000" font-family="sans-serif" font-size="12" lengthAdjust="spacing" textLength="58" x="216.5" y="429.5352">Stack&lt;T&gt;</text><!--MD5=[a8f009b32ab35c33472062813fbe045f]
reverse link Collection to Heap<T>--><path codeLine="11" d="M65.09,189.12 C81.24,151.72 111.45,92.78 154,56 C163.51,47.78 175.38,41.35 186.95,36.45 " fill="none" id="Collection-backto-Heap&lt;T&gt;" style="stroke:#FF0000;stroke-width:1.0;stroke-dasharray:7.0,7.0;"/><polygon fill="none" points="71.47,192.01,57.4,207.86,58.52,186.7,71.47,192.01" style="stroke:#FF0000;stroke-width:1.0;"/><!--MD5=[4eb1729ebd56ae2608f414e26e76dc86]
reverse link Collection to List<T>--><path codeLine="14" d="M77.85,192.37 C97.19,170.67 125.03,142.41 154,123 C165.91,115.02 180.05,108.32 192.98,103.08 " fill="none" id="Collection-backto-List&lt;T&gt;" style="stroke:#FF0000;stroke-width:1.0;stroke-dasharray:7.0,7.0;"/><polygon fill="none" points="82.94,197.18,64.57,207.74,72.34,188.03,82.94,197.18" style="stroke:#FF0000;stroke-width:1.0;"/><!--MD5=[ddff44a63bd43d18e710a8badc48b93c]
reverse link Collection to Map<T>--><path codeLine="17" d="M113.12,201.07 C138.4,191.65 167.01,181.01 189.77,172.53 " fill="none" id="Collection-backto-Map&lt;T&gt;" style="stroke:#FF0000;stroke-width:1.0;stroke-dasharray:7.0,7.0;"/><polygon fill="none" points="115.34,207.71,94.16,208.12,110.46,194.58,115.34,207.71" style="stroke:#FF0000;stroke-width:1.0;"/><!--MD5=[21eceea7aaf237daefa3b2a5e48b6806]
reverse link Collection to QuadTree<T>--><path codeLine="20" d="M114.46,224 C133.65,224 154.64,224 173.49,224 " fill="none" id="Collection-backto-QuadTree&lt;T&gt;" style="stroke:#FF0000;stroke-width:1.0;stroke-dasharray:7.0,7.0;"/><polygon fill="none" points="114.16,231,94.16,224,114.16,217,114.16,231" style="stroke:#FF0000;stroke-width:1.0;"/><!--MD5=[af29c0f9b332e8adfb7dde84f08603cf]
reverse link Collection to Queue<T>--><path codeLine="23" d="M113.13,246.94 C137.83,256.13 165.72,266.51 188.21,274.89 " fill="none" id="Collection-backto-Queue&lt;T&gt;" style="stroke:#FF0000;stroke-width:1.0;stroke-dasharray:7.0,7.0;"/><polygon fill="none" points="110.46,253.42,94.16,239.88,115.34,240.29,110.46,253.42" style="stroke:#FF0000;stroke-width:1.0;"/><!--MD5=[24ee9484d373c81dcf9aa3a2df39bef6]
reverse link Collection to RegionQuadTree<T>--><path codeLine="26" d="M77.97,255.21 C97.37,276.63 125.23,304.6 154,324 C164.23,330.9 176.09,336.93 187.41,341.92 " fill="none" id="Collection-backto-RegionQuadTree&lt;T&gt;" style="stroke:#FF0000;stroke-width:1.0;stroke-dasharray:7.0,7.0;"/><polygon fill="none" points="72.58,259.67,64.64,240.03,83.1,250.44,72.58,259.67" style="stroke:#FF0000;stroke-width:1.0;"/><!--MD5=[61f25ba62b4e6d47c88d6f463867a92a]
reverse link Collection to Stack<T>--><path codeLine="29" d="M65.22,258.59 C81.48,295.68 111.79,354.21 154,391 C163.64,399.4 175.67,406.02 187.37,411.09 " fill="none" id="Collection-backto-Stack&lt;T&gt;" style="stroke:#FF0000;stroke-width:1.0;stroke-dasharray:7.0,7.0;"/><polygon fill="none" points="58.71,261.15,57.47,240,71.63,255.76,58.71,261.15" style="stroke:#FF0000;stroke-width:1.0;"/><!--MD5=[5e7627c85ebaca5d9ee6ff7a07bba8e5]
@startuml
skinparam ClassArrowColor #ff0000
skinparam ClassBorderColor #ff0000
skinparam BackgroundColor transparent
left to right direction
hide empty methods
hide empty fields
interface "Collection" {
}
class "Heap<T>" {
}
"Collection" <|.. "Heap<T>"
class "List<T>" {
}
"Collection" <|.. "List<T>"
class "Map<T>" {
}
"Collection" <|.. "Map<T>"
class "QuadTree<T>" {
}
"Collection" <|.. "QuadTree<T>"
class "Queue<T>" {
}
"Collection" <|.. "Queue<T>"
class "RegionQuadTree<T>" {
}
"Collection" <|.. "RegionQuadTree<T>"
class "Stack<T>" {
}
"Collection" <|.. "Stack<T>"
@enduml

PlantUML version 1.2021.14(Fri Nov 12 11:46:50 EST 2021)
(GPL source distribution)
Java Runtime: Java(TM) SE Runtime Environment
JVM: Java HotSpot(TM) 64-Bit Server VM
Default Encoding: UTF-8
Language: en
Country: US
--></g></svg>