<?xml version="1.0" encoding="UTF-8" standalone="no"?><svg xmlns="http://www.w3.org/2000/svg" xmlns:xlink="http://www.w3.org/1999/xlink" contentScriptType="application/ecmascript" contentStyleType="text/css" height="145px" preserveAspectRatio="none" style="width:120px;height:145px;background:#00000000;" version="1.1" viewBox="0 0 120 145" width="120px" zoomAndPan="magnify"><defs><filter height="300%" id="fqiqambp5ma66" width="300%" x="-1" y="-1"><feGaussianBlur result="blurOut" stdDeviation="2.0"/><feColorMatrix in="blurOut" result="blurOut2" type="matrix" values="0 0 0 0 0 0 0 0 0 0 0 0 0 0 0 0 0 0 .4 0"/><feOffset dx="4.0" dy="4.0" in="blurOut2" result="blurOut3"/><feBlend in="SourceGraphic" in2="blurOut3" mode="normal"/></filter></defs><g><!--MD5=[d1e13e6651c8934d9fc1bb5bc0810f7c]
class ControllerAI--><rect codeLine="6" fill="#FEFECE" filter="url(#fqiqambp5ma66)" height="32" id="ControllerAI" style="stroke:#FF0000;stroke-width:1.5;" width="99" x="7" y="99"/><ellipse cx="22" cy="115" fill="#A9DCDF" rx="11" ry="11" style="stroke:#FF0000;stroke-width:1.0;"/><path d="M21.8633,110.3481 L20.7095,115.4199 L23.0254,115.4199 Z M20.3691,108.1069 L23.3657,108.1069 L26.7109,120.5 L24.2622,120.5 L23.4985,117.437 L20.2197,117.437 L19.4727,120.5 L17.0239,120.5 Z " fill="#000000"/><text fill="#000000" font-family="sans-serif" font-size="12" font-style="italic" lengthAdjust="spacing" textLength="67" x="36" y="119.5352">ControllerAI</text><!--MD5=[d755c5174fbc4166a0b82a39f0ad1a0e]
class AI--><rect codeLine="8" fill="#FEFECE" filter="url(#fqiqambp5ma66)" height="32" id="AI" style="stroke:#FF0000;stroke-width:1.5;" width="43" x="35" y="7"/><ellipse cx="50" cy="23" fill="#B4A7E5" rx="11" ry="11" style="stroke:#FF0000;stroke-width:1.0;"/><path d="M46.4277,19.2651 L46.4277,17.1069 L53.8071,17.1069 L53.8071,19.2651 L51.3418,19.2651 L51.3418,27.3418 L53.8071,27.3418 L53.8071,29.5 L46.4277,29.5 L46.4277,27.3418 L48.8931,27.3418 L48.8931,19.2651 Z " fill="#000000"/><text fill="#000000" font-family="sans-serif" font-size="12" font-style="italic" lengthAdjust="spacing" textLength="11" x="64" y="27.5352">AI</text><!--MD5=[20ce14433150aa56afc93d0ab0afcf45]
reverse link AI to ControllerAI--><path codeLine="10" d="M56.5,59.61 C56.5,73.31 56.5,88.22 56.5,98.96 " fill="none" id="AI-backto-ControllerAI" style="stroke:#FF0000;stroke-width:1.0;stroke-dasharray:7.0,7.0;"/><polygon fill="none" points="49.5,59.27,56.5,39.27,63.5,59.27,49.5,59.27" style="stroke:#FF0000;stroke-width:1.0;"/><!--MD5=[1ff797d450031d1838cb84fe8ad41ce0]
@startuml
skinparam ClassArrowColor #ff0000
skinparam ClassBorderColor #ff0000
skinparam BackgroundColor transparent
hide empty methods
hide empty fields
abstract class "ControllerAI" {
}
interface "AI" {
}
"AI" <|.. "ControllerAI"
@enduml

PlantUML version 1.2021.14(Fri Nov 12 11:46:50 EST 2021)
(GPL source distribution)
Java Runtime: Java(TM) SE Runtime Environment
JVM: Java HotSpot(TM) 64-Bit Server VM
Default Encoding: UTF-8
Language: en
Country: US
--></g></svg>