<?xml version="1.0" encoding="UTF-8" standalone="no"?><svg xmlns="http://www.w3.org/2000/svg" xmlns:xlink="http://www.w3.org/1999/xlink" contentScriptType="application/ecmascript" contentStyleType="text/css" height="145px" preserveAspectRatio="none" style="width:265px;height:145px;background:#00000000;" version="1.1" viewBox="0 0 265 145" width="265px" zoomAndPan="magnify"><defs><filter height="300%" id="f6p0r207om8ii" width="300%" x="-1" y="-1"><feGaussianBlur result="blurOut" stdDeviation="2.0"/><feColorMatrix in="blurOut" result="blurOut2" type="matrix" values="0 0 0 0 0 0 0 0 0 0 0 0 0 0 0 0 0 0 .4 0"/><feOffset dx="4.0" dy="4.0" in="blurOut2" result="blurOut3"/><feBlend in="SourceGraphic" in2="blurOut3" mode="normal"/></filter></defs><g><!--MD5=[412067033dd25c37850800261ed04026]
class DebugRenderable--><rect codeLine="6" fill="#FEFECE" filter="url(#f6p0r207om8ii)" height="32" id="DebugRenderable" style="stroke:#FF0000;stroke-width:1.5;" width="137" x="57" y="7"/><ellipse cx="72" cy="23" fill="#B4A7E5" rx="11" ry="11" style="stroke:#FF0000;stroke-width:1.0;"/><path d="M68.4277,19.2651 L68.4277,17.1069 L75.8071,17.1069 L75.8071,19.2651 L73.3418,19.2651 L73.3418,27.3418 L75.8071,27.3418 L75.8071,29.5 L68.4277,29.5 L68.4277,27.3418 L70.8931,27.3418 L70.8931,19.2651 Z " fill="#000000"/><text fill="#000000" font-family="sans-serif" font-size="12" font-style="italic" lengthAdjust="spacing" textLength="105" x="86" y="27.5352">DebugRenderable</text><!--MD5=[372f7354164cd38fc5cfe01cbfd4962a]
class GameNode--><rect codeLine="8" fill="#FEFECE" filter="url(#f6p0r207om8ii)" height="32" id="GameNode" style="stroke:#FF0000;stroke-width:1.5;" width="97" x="7" y="99"/><ellipse cx="22" cy="115" fill="#A9DCDF" rx="11" ry="11" style="stroke:#FF0000;stroke-width:1.0;"/><path d="M21.8633,110.3481 L20.7095,115.4199 L23.0254,115.4199 Z M20.3691,108.1069 L23.3657,108.1069 L26.7109,120.5 L24.2622,120.5 L23.4985,117.437 L20.2197,117.437 L19.4727,120.5 L17.0239,120.5 Z " fill="#000000"/><text fill="#000000" font-family="sans-serif" font-size="12" font-style="italic" lengthAdjust="spacing" textLength="65" x="36" y="119.5352">GameNode</text><!--MD5=[0461493972edc2eae6aadcaef93917de]
class PositionGraph--><rect codeLine="11" fill="#FEFECE" filter="url(#f6p0r207om8ii)" height="32" id="PositionGraph" style="stroke:#FF0000;stroke-width:1.5;" width="112" x="139.5" y="99"/><ellipse cx="154.5" cy="115" fill="#ADD1B2" rx="11" ry="11" style="stroke:#FF0000;stroke-width:1.0;"/><path d="M156.9731,121.1431 Q156.3921,121.4419 155.7529,121.5913 Q155.1138,121.7407 154.4082,121.7407 Q151.9014,121.7407 150.5815,120.0889 Q149.2617,118.437 149.2617,115.3159 Q149.2617,112.1865 150.5815,110.5347 Q151.9014,108.8828 154.4082,108.8828 Q155.1138,108.8828 155.7612,109.0322 Q156.4087,109.1816 156.9731,109.4805 L156.9731,112.2031 Q156.3423,111.6221 155.7488,111.3523 Q155.1553,111.0825 154.5244,111.0825 Q153.1797,111.0825 152.4949,112.1492 Q151.8101,113.2158 151.8101,115.3159 Q151.8101,117.4077 152.4949,118.4744 Q153.1797,119.541 154.5244,119.541 Q155.1553,119.541 155.7488,119.2712 Q156.3423,119.0015 156.9731,118.4204 Z " fill="#000000"/><text fill="#000000" font-family="sans-serif" font-size="12" lengthAdjust="spacing" textLength="80" x="168.5" y="119.5352">PositionGraph</text><!--MD5=[f00aaf58760a6f305a1b952cdae1bbc3]
reverse link DebugRenderable to GameNode--><path codeLine="10" d="M101.23,55.21 C89.7,70.03 76.46,87.06 67.2,98.96 " fill="none" id="DebugRenderable-backto-GameNode" style="stroke:#FF0000;stroke-width:1.0;stroke-dasharray:7.0,7.0;"/><polygon fill="none" points="95.82,50.76,113.63,39.27,106.87,59.35,95.82,50.76" style="stroke:#FF0000;stroke-width:1.0;"/><!--MD5=[b51fbd1b94acc6a3cab3e95dd21a3d46]
reverse link DebugRenderable to PositionGraph--><path codeLine="13" d="M149.77,55.21 C161.3,70.03 174.54,87.06 183.8,98.96 " fill="none" id="DebugRenderable-backto-PositionGraph" style="stroke:#FF0000;stroke-width:1.0;stroke-dasharray:7.0,7.0;"/><polygon fill="none" points="144.13,59.35,137.37,39.27,155.18,50.76,144.13,59.35" style="stroke:#FF0000;stroke-width:1.0;"/><!--MD5=[0648663afefb4c110a778239fa55b56f]
@startuml
skinparam ClassArrowColor #ff0000
skinparam ClassBorderColor #ff0000
skinparam BackgroundColor transparent
hide empty methods
hide empty fields
interface "DebugRenderable" {
}
abstract class "GameNode" {
}
"DebugRenderable" <|.. "GameNode"
class "PositionGraph" {
}
"DebugRenderable" <|.. "PositionGraph"
@enduml

PlantUML version 1.2021.14(Fri Nov 12 11:46:50 EST 2021)
(GPL source distribution)
Java Runtime: Java(TM) SE Runtime Environment
JVM: Java HotSpot(TM) 64-Bit Server VM
Default Encoding: UTF-8
Language: en
Country: US
--></g></svg>