<?xml version="1.0" encoding="UTF-8" standalone="no"?><svg xmlns="http://www.w3.org/2000/svg" xmlns:xlink="http://www.w3.org/1999/xlink" contentScriptType="application/ecmascript" contentStyleType="text/css" height="669px" preserveAspectRatio="none" style="width:270px;height:669px;background:#00000000;" version="1.1" viewBox="0 0 270 669" width="270px" zoomAndPan="magnify"><defs><filter height="300%" id="f1n2kwcamnigm" width="300%" x="-1" y="-1"><feGaussianBlur result="blurOut" stdDeviation="2.0"/><feColorMatrix in="blurOut" result="blurOut2" type="matrix" values="0 0 0 0 0 0 0 0 0 0 0 0 0 0 0 0 0 0 .4 0"/><feOffset dx="4.0" dy="4.0" in="blurOut2" result="blurOut3"/><feBlend in="SourceGraphic" in2="blurOut3" mode="normal"/></filter></defs><g><!--MD5=[cbc760d2de1d5c683b08a1445cb940a3]
class FixedUpdateGameLoop--><rect codeLine="6" fill="#FEFECE" filter="url(#f1n2kwcamnigm)" height="410.7422" id="FixedUpdateGameLoop" style="stroke:#FF0000;stroke-width:1.5;" width="247" x="9" y="245"/><ellipse cx="60.75" cy="261" fill="#ADD1B2" rx="11" ry="11" style="stroke:#FF0000;stroke-width:1.0;"/><path d="M63.2231,267.1431 Q62.6421,267.4419 62.0029,267.5913 Q61.3638,267.7407 60.6582,267.7407 Q58.1514,267.7407 56.8315,266.0889 Q55.5117,264.437 55.5117,261.3159 Q55.5117,258.1865 56.8315,256.5347 Q58.1514,254.8828 60.6582,254.8828 Q61.3638,254.8828 62.0112,255.0322 Q62.6587,255.1816 63.2231,255.4805 L63.2231,258.2031 Q62.5923,257.6221 61.9988,257.3523 Q61.4053,257.0825 60.7744,257.0825 Q59.4297,257.0825 58.7449,258.1492 Q58.0601,259.2158 58.0601,261.3159 Q58.0601,263.4077 58.7449,264.4744 Q59.4297,265.541 60.7744,265.541 Q61.4053,265.541 61.9988,265.2712 Q62.5923,265.0015 63.2231,264.4204 Z " fill="#000000"/><text fill="#000000" font-family="sans-serif" font-size="12" lengthAdjust="spacing" textLength="135" x="81.25" y="265.5352">FixedUpdateGameLoop</text><line style="stroke:#FF0000;stroke-width:1.5;" x1="10" x2="255" y1="277" y2="277"/><polygon fill="none" points="20,283,24,287,20,291,16,287" style="stroke:#B38D22;stroke-width:1.0;"/><text fill="#000000" font-family="sans-serif" font-size="11" lengthAdjust="spacing" textLength="114" x="29" y="291.6348">_doRender : Function</text><polygon fill="none" points="20,295.9551,24,299.9551,20,303.9551,16,299.9551" style="stroke:#B38D22;stroke-width:1.0;"/><text fill="#000000" font-family="sans-serif" font-size="11" lengthAdjust="spacing" textLength="114" x="29" y="304.5898">_doUpdate : Function</text><rect fill="none" height="6" style="stroke:#C82930;stroke-width:1.0;" width="6" x="17" y="310.9102"/><text fill="#000000" font-family="sans-serif" font-size="11" lengthAdjust="spacing" textLength="68" x="29" y="317.5449">fps : number</text><rect fill="none" height="6" style="stroke:#C82930;stroke-width:1.0;" width="6" x="17" y="323.8652"/><text fill="#000000" font-family="sans-serif" font-size="11" lengthAdjust="spacing" textLength="146" x="29" y="330.5">fpsUpdateInterval : number</text><rect fill="none" height="6" style="stroke:#C82930;stroke-width:1.0;" width="6" x="17" y="336.8203"/><text fill="#000000" font-family="sans-serif" font-size="11" lengthAdjust="spacing" textLength="82" x="29" y="343.4551">frame : number</text><rect fill="none" height="6" style="stroke:#C82930;stroke-width:1.0;" width="6" x="17" y="349.7754"/><text fill="#000000" font-family="sans-serif" font-size="11" lengthAdjust="spacing" textLength="109" x="29" y="356.4102">frameDelta : number</text><rect fill="none" height="6" style="stroke:#C82930;stroke-width:1.0;" width="6" x="17" y="362.7305"/><text fill="#000000" font-family="sans-serif" font-size="11" lengthAdjust="spacing" textLength="195" x="29" y="369.3652">framesSinceLastFpsUpdate : number</text><rect fill="none" height="6" style="stroke:#C82930;stroke-width:1.0;" width="6" x="17" y="375.6855"/><text fill="#000000" font-family="sans-serif" font-size="11" lengthAdjust="spacing" textLength="127" x="29" y="382.3203">lastFpsUpdate : number</text><rect fill="none" height="6" style="stroke:#C82930;stroke-width:1.0;" width="6" x="17" y="388.6406"/><text fill="#000000" font-family="sans-serif" font-size="11" lengthAdjust="spacing" textLength="129" x="29" y="395.2754">lastFrameTime : number</text><rect fill="none" height="6" style="stroke:#C82930;stroke-width:1.0;" width="6" x="17" y="401.5957"/><text fill="#000000" font-family="sans-serif" font-size="11" lengthAdjust="spacing" textLength="130" x="29" y="408.2305">maxUpdateFPS : number</text><rect fill="none" height="6" style="stroke:#C82930;stroke-width:1.0;" width="6" x="17" y="414.5508"/><text fill="#000000" font-family="sans-serif" font-size="11" lengthAdjust="spacing" textLength="133" x="29" y="421.1855">minFrameDelay : number</text><rect fill="none" height="6" style="stroke:#C82930;stroke-width:1.0;" width="6" x="17" y="427.5059"/><text fill="#000000" font-family="sans-serif" font-size="11" lengthAdjust="spacing" textLength="142" x="29" y="434.1406">numUpdateSteps : number</text><rect fill="none" height="6" style="stroke:#C82930;stroke-width:1.0;" width="6" x="17" y="440.4609"/><text fill="#000000" font-family="sans-serif" font-size="11" lengthAdjust="spacing" textLength="91" x="29" y="447.0957">paused : boolean</text><rect fill="none" height="6" style="stroke:#C82930;stroke-width:1.0;" width="6" x="17" y="453.416"/><text fill="#000000" font-family="sans-serif" font-size="11" lengthAdjust="spacing" textLength="95" x="29" y="460.0508">running : boolean</text><rect fill="none" height="6" style="stroke:#C82930;stroke-width:1.0;" width="6" x="17" y="466.3711"/><text fill="#000000" font-family="sans-serif" font-size="11" lengthAdjust="spacing" textLength="90" x="29" y="473.0059">started : boolean</text><rect fill="none" height="6" style="stroke:#C82930;stroke-width:1.0;" width="6" x="17" y="479.3262"/><text fill="#000000" font-family="sans-serif" font-size="11" lengthAdjust="spacing" textLength="137" x="29" y="485.9609">updateTimestep : number</text><line style="stroke:#FF0000;stroke-width:1.5;" x1="10" x2="255" y1="492.2813" y2="492.2813"/><ellipse cx="20" cy="503.2813" fill="#84BE84" rx="3" ry="3" style="stroke:#038048;stroke-width:1.0;"/><text fill="#000000" font-family="sans-serif" font-size="11" lengthAdjust="spacing" textLength="94" x="29" y="506.916">getFPS() : number</text><ellipse cx="20" cy="516.2363" fill="#84BE84" rx="3" ry="3" style="stroke:#038048;stroke-width:1.0;"/><text fill="#000000" font-family="sans-serif" font-size="11" lengthAdjust="spacing" textLength="72" x="29" y="519.8711">pause() : void</text><ellipse cx="20" cy="529.1914" fill="#84BE84" rx="3" ry="3" style="stroke:#038048;stroke-width:1.0;"/><text fill="#000000" font-family="sans-serif" font-size="11" lengthAdjust="spacing" textLength="146" x="29" y="532.8262">resetFrameDelta() : number</text><ellipse cx="20" cy="542.1465" fill="#84BE84" rx="3" ry="3" style="stroke:#038048;stroke-width:1.0;"/><text fill="#000000" font-family="sans-serif" font-size="11" lengthAdjust="spacing" textLength="80" x="29" y="545.7813">resume() : void</text><ellipse cx="20" cy="555.1016" fill="#84BE84" rx="3" ry="3" style="stroke:#038048;stroke-width:1.0;"/><text fill="#000000" font-family="sans-serif" font-size="11" lengthAdjust="spacing" textLength="185" x="29" y="558.7363">setMaxFPS(maxFPS: number) : void</text><ellipse cx="20" cy="568.0566" fill="#84BE84" rx="3" ry="3" style="stroke:#038048;stroke-width:1.0;"/><text fill="#000000" font-family="sans-serif" font-size="11" lengthAdjust="spacing" textLength="221" x="29" y="571.6914">setMaxUpdateFPS(initMax: number) : void</text><ellipse cx="20" cy="581.0117" fill="#84BE84" rx="3" ry="3" style="stroke:#038048;stroke-width:1.0;"/><text fill="#000000" font-family="sans-serif" font-size="11" lengthAdjust="spacing" textLength="65" x="29" y="584.6465">start() : void</text><polygon fill="#FFFF44" points="20,588.9668,24,592.9668,20,596.9668,16,592.9668" style="stroke:#B38D22;stroke-width:1.0;"/><text fill="#000000" font-family="sans-serif" font-size="11" lengthAdjust="spacing" textLength="215" x="29" y="597.6016">doFirstFrame(timestamp: number) : void</text><polygon fill="#FFFF44" points="20,601.9219,24,605.9219,20,609.9219,16,605.9219" style="stroke:#B38D22;stroke-width:1.0;"/><text fill="#000000" font-family="sans-serif" font-size="11" lengthAdjust="spacing" textLength="191" x="29" y="610.5566">doFrame(timestamp: number) : void</text><polygon fill="#FFFF44" points="20,614.877,24,618.877,20,622.877,16,618.877" style="stroke:#B38D22;stroke-width:1.0;"/><text fill="#000000" font-family="sans-serif" font-size="11" lengthAdjust="spacing" textLength="181" x="29" y="623.5117">finishFrame(panic: boolean) : void</text><polygon fill="#FFFF44" points="20,627.832,24,631.832,20,635.832,16,631.832" style="stroke:#B38D22;stroke-width:1.0;"/><text fill="#000000" font-family="sans-serif" font-size="11" lengthAdjust="spacing" textLength="202" x="29" y="636.4668">startFrame(timestamp: number) : void</text><polygon fill="#FFFF44" points="20,640.7871,24,644.7871,20,648.7871,16,644.7871" style="stroke:#B38D22;stroke-width:1.0;"/><text fill="#000000" font-family="sans-serif" font-size="11" lengthAdjust="spacing" textLength="199" x="29" y="649.4219">updateFPS(timestamp: number) : void</text><!--MD5=[125155bbbdbd597e8725b48d1b3b0825]
class GameLoop--><rect codeLine="36" fill="#FEFECE" filter="url(#f1n2kwcamnigm)" height="177.5508" id="GameLoop" style="stroke:#FF0000;stroke-width:1.5;" width="241" x="12" y="7"/><ellipse cx="97.25" cy="23" fill="#A9DCDF" rx="11" ry="11" style="stroke:#FF0000;stroke-width:1.0;"/><path d="M97.1133,18.3481 L95.9595,23.4199 L98.2754,23.4199 Z M95.6191,16.1069 L98.6157,16.1069 L101.9609,28.5 L99.5122,28.5 L98.7485,25.437 L95.4697,25.437 L94.7227,28.5 L92.2739,28.5 Z " fill="#000000"/><text fill="#000000" font-family="sans-serif" font-size="12" font-style="italic" lengthAdjust="spacing" textLength="62" x="117.75" y="27.5352">GameLoop</text><line style="stroke:#FF0000;stroke-width:1.5;" x1="13" x2="252" y1="39" y2="39"/><polygon fill="none" points="23,45,27,49,23,53,19,49" style="stroke:#B38D22;stroke-width:1.0;"/><text fill="#000000" font-family="sans-serif" font-size="11" lengthAdjust="spacing" textLength="114" x="32" y="53.6348">_doRender : Function</text><polygon fill="none" points="23,57.9551,27,61.9551,23,65.9551,19,61.9551" style="stroke:#B38D22;stroke-width:1.0;"/><text fill="#000000" font-family="sans-serif" font-size="11" lengthAdjust="spacing" textLength="114" x="32" y="66.5898">_doUpdate : Function</text><line style="stroke:#FF0000;stroke-width:1.5;" x1="13" x2="252" y1="72.9102" y2="72.9102"/><ellipse cx="23" cy="83.9102" fill="#84BE84" rx="3" ry="3" style="stroke:#038048;stroke-width:1.0;"/><text fill="#000000" font-family="sans-serif" font-size="11" font-style="italic" lengthAdjust="spacing" textLength="94" x="32" y="87.5449">getFPS() : number</text><ellipse cx="23" cy="96.8652" fill="#84BE84" rx="3" ry="3" style="stroke:#038048;stroke-width:1.0;"/><text fill="#000000" font-family="sans-serif" font-size="11" font-style="italic" lengthAdjust="spacing" textLength="72" x="32" y="100.5">pause() : void</text><ellipse cx="23" cy="109.8203" fill="#84BE84" rx="3" ry="3" style="stroke:#038048;stroke-width:1.0;"/><text fill="#000000" font-family="sans-serif" font-size="11" font-style="italic" lengthAdjust="spacing" textLength="80" x="32" y="113.4551">resume() : void</text><ellipse cx="23" cy="122.7754" fill="#84BE84" rx="3" ry="3" style="stroke:#038048;stroke-width:1.0;"/><text fill="#000000" font-family="sans-serif" font-size="11" font-style="italic" lengthAdjust="spacing" textLength="65" x="32" y="126.4102">start() : void</text><polygon fill="#FFFF44" points="23,130.7305,27,134.7305,23,138.7305,19,134.7305" style="stroke:#B38D22;stroke-width:1.0;"/><text fill="#000000" font-family="sans-serif" font-size="11" font-style="italic" lengthAdjust="spacing" textLength="215" x="32" y="139.3652">doFirstFrame(timestamp: number) : void</text><polygon fill="#FFFF44" points="23,143.6855,27,147.6855,23,151.6855,19,147.6855" style="stroke:#B38D22;stroke-width:1.0;"/><text fill="#000000" font-family="sans-serif" font-size="11" font-style="italic" lengthAdjust="spacing" textLength="191" x="32" y="152.3203">doFrame(timestamp: number) : void</text><polygon fill="#FFFF44" points="23,156.6406,27,160.6406,23,164.6406,19,160.6406" style="stroke:#B38D22;stroke-width:1.0;"/><text fill="#000000" font-family="sans-serif" font-size="11" font-style="italic" lengthAdjust="spacing" textLength="181" x="32" y="165.2754">finishFrame(panic: boolean) : void</text><polygon fill="#FFFF44" points="23,169.5957,27,173.5957,23,177.5957,19,173.5957" style="stroke:#B38D22;stroke-width:1.0;"/><text fill="#000000" font-family="sans-serif" font-size="11" font-style="italic" lengthAdjust="spacing" textLength="202" x="32" y="178.2305">startFrame(timestamp: number) : void</text><!--MD5=[fc5006bf68855095f52c76d0b77cd9e8]
reverse link GameLoop to FixedUpdateGameLoop--><path codeLine="48" d="M132.5,205.21 C132.5,217.95 132.5,231.25 132.5,244.77 " fill="none" id="GameLoop-backto-FixedUpdateGameLoop" style="stroke:#FF0000;stroke-width:1.0;"/><polygon fill="none" points="125.5,205.04,132.5,185.04,139.5,205.04,125.5,205.04" style="stroke:#FF0000;stroke-width:1.0;"/><!--MD5=[c7900adfbe7c916929391b708831b179]
@startuml
skinparam ClassArrowColor #ff0000
skinparam ClassBorderColor #ff0000
skinparam BackgroundColor transparent
hide empty methods
hide empty fields
class "FixedUpdateGameLoop" {
    #_doRender : Function
    #_doUpdate : Function
    -fps : number
    -fpsUpdateInterval : number
    -frame : number
    -frameDelta : number
    -framesSinceLastFpsUpdate : number
    -lastFpsUpdate : number
    -lastFrameTime : number
    -maxUpdateFPS : number
    -minFrameDelay : number
    -numUpdateSteps : number
    -paused : boolean
    -running : boolean
    -started : boolean
    -updateTimestep : number
    +getFPS() : number
    +pause() : void
    +resetFrameDelta() : number
    +resume() : void
    +setMaxFPS(maxFPS: number) : void
    +setMaxUpdateFPS(initMax: number) : void
    +start() : void
    #doFirstFrame(timestamp: number) : void
    #doFrame(timestamp: number) : void
    #finishFrame(panic: boolean) : void
    #startFrame(timestamp: number) : void
    #updateFPS(timestamp: number) : void
}
abstract class "GameLoop" {
    #_doRender : Function
    #_doUpdate : Function
    {abstract} +getFPS() : number
    {abstract} +pause() : void
    {abstract} +resume() : void
    {abstract} +start() : void
    {abstract} #doFirstFrame(timestamp: number) : void
    {abstract} #doFrame(timestamp: number) : void
    {abstract} #finishFrame(panic: boolean) : void
    {abstract} #startFrame(timestamp: number) : void
}
"GameLoop" <|- - "FixedUpdateGameLoop"
@enduml

PlantUML version 1.2021.14(Fri Nov 12 11:46:50 EST 2021)
(GPL source distribution)
Java Runtime: Java(TM) SE Runtime Environment
JVM: Java HotSpot(TM) 64-Bit Server VM
Default Encoding: UTF-8
Language: en
Country: US
--></g></svg>