<?xml version="1.0" encoding="UTF-8" standalone="no"?><svg xmlns="http://www.w3.org/2000/svg" xmlns:xlink="http://www.w3.org/1999/xlink" contentScriptType="application/ecmascript" contentStyleType="text/css" height="769px" preserveAspectRatio="none" style="width:405px;height:769px;background:#00000000;" version="1.1" viewBox="0 0 405 769" width="405px" zoomAndPan="magnify"><defs><filter height="300%" id="f16p3g5pzg6n4k" width="300%" x="-1" y="-1"><feGaussianBlur result="blurOut" stdDeviation="2.0"/><feColorMatrix in="blurOut" result="blurOut2" type="matrix" values="0 0 0 0 0 0 0 0 0 0 0 0 0 0 0 0 0 0 .4 0"/><feOffset dx="4.0" dy="4.0" in="blurOut2" result="blurOut3"/><feBlend in="SourceGraphic" in2="blurOut3" mode="normal"/></filter></defs><g><!--MD5=[3fb99073a4a5a190dfd5e05004425094]
class GoapAI--><rect codeLine="6" fill="#FEFECE" filter="url(#f16p3g5pzg6n4k)" height="190.5059" id="GoapAI" style="stroke:#FF0000;stroke-width:1.5;" width="384" x="7.5" y="120"/><ellipse cx="174.25" cy="136" fill="#B4A7E5" rx="11" ry="11" style="stroke:#FF0000;stroke-width:1.0;"/><path d="M170.6777,132.2651 L170.6777,130.1069 L178.0571,130.1069 L178.0571,132.2651 L175.5918,132.2651 L175.5918,140.3418 L178.0571,140.3418 L178.0571,142.5 L170.6777,142.5 L170.6777,140.3418 L173.1431,140.3418 L173.1431,132.2651 Z " fill="#000000"/><text fill="#000000" font-family="sans-serif" font-size="12" font-style="italic" lengthAdjust="spacing" textLength="42" x="194.75" y="140.5352">GoapAI</text><line style="stroke:#FF0000;stroke-width:1.5;" x1="8.5" x2="390.5" y1="152" y2="152"/><ellipse cx="18.5" cy="163" rx="3" ry="3" style="stroke:#038048;stroke-width:1.0;fill:none;"/><text fill="#000000" font-family="sans-serif" font-size="11" lengthAdjust="spacing" textLength="122" x="27.5" y="166.6348">currentStatus : string[]</text><ellipse cx="18.5" cy="175.9551" rx="3" ry="3" style="stroke:#038048;stroke-width:1.0;fill:none;"/><text fill="#000000" font-family="sans-serif" font-size="11" lengthAdjust="spacing" textLength="64" x="27.5" y="179.5898">goal : string</text><ellipse cx="18.5" cy="188.9102" rx="3" ry="3" style="stroke:#038048;stroke-width:1.0;fill:none;"/><text fill="#000000" font-family="sans-serif" font-size="11" lengthAdjust="spacing" textLength="141" x="27.5" y="192.5449">plan : Stack&lt;GoapAction&gt;</text><ellipse cx="18.5" cy="201.8652" rx="3" ry="3" style="stroke:#038048;stroke-width:1.0;fill:none;"/><text fill="#000000" font-family="sans-serif" font-size="11" lengthAdjust="spacing" textLength="153" x="27.5" y="205.5">planner : GoapActionPlanner</text><ellipse cx="18.5" cy="214.8203" rx="3" ry="3" style="stroke:#038048;stroke-width:1.0;fill:none;"/><text fill="#000000" font-family="sans-serif" font-size="11" lengthAdjust="spacing" textLength="166" x="27.5" y="218.4551">possibleActions : GoapAction[]</text><line style="stroke:#FF0000;stroke-width:1.5;" x1="8.5" x2="390.5" y1="224.7754" y2="224.7754"/><ellipse cx="18.5" cy="235.7754" fill="#84BE84" rx="3" ry="3" style="stroke:#038048;stroke-width:1.0;"/><text fill="#000000" font-family="sans-serif" font-size="11" lengthAdjust="spacing" textLength="241" x="27.5" y="239.4102">activate(options: Record&lt;string, any&gt;) : void</text><ellipse cx="18.5" cy="248.7305" fill="#84BE84" rx="3" ry="3" style="stroke:#038048;stroke-width:1.0;"/><text fill="#000000" font-family="sans-serif" font-size="11" lengthAdjust="spacing" textLength="164" x="27.5" y="252.3652">changeGoal(goal: string) : void</text><ellipse cx="18.5" cy="261.6855" fill="#84BE84" rx="3" ry="3" style="stroke:#038048;stroke-width:1.0;"/><text fill="#000000" font-family="sans-serif" font-size="11" lengthAdjust="spacing" textLength="81" x="27.5" y="265.3203">destroy() : void</text><ellipse cx="18.5" cy="274.6406" fill="#84BE84" rx="3" ry="3" style="stroke:#038048;stroke-width:1.0;"/><text fill="#000000" font-family="sans-serif" font-size="11" lengthAdjust="spacing" textLength="199" x="27.5" y="278.2754">handleEvent(event: GameEvent) : void</text><ellipse cx="18.5" cy="287.5957" fill="#84BE84" rx="3" ry="3" style="stroke:#038048;stroke-width:1.0;"/><text fill="#000000" font-family="sans-serif" font-size="11" lengthAdjust="spacing" textLength="358" x="27.5" y="291.2305">initializeAI(owner: GameNode, options: Record&lt;string, any&gt;) : void</text><ellipse cx="18.5" cy="300.5508" fill="#84BE84" rx="3" ry="3" style="stroke:#038048;stroke-width:1.0;"/><text fill="#000000" font-family="sans-serif" font-size="11" lengthAdjust="spacing" textLength="158" x="27.5" y="304.1855">update(deltaT: number) : void</text><!--MD5=[8336922478991a54f539d469b4e48cc0]
class Updateable--><rect codeLine="19" fill="#FEFECE" filter="url(#f16p3g5pzg6n4k)" height="52.9551" id="Updateable" style="stroke:#FF0000;stroke-width:1.5;" width="184" x="107.5" y="7"/><ellipse cx="161.75" cy="23" fill="#B4A7E5" rx="11" ry="11" style="stroke:#FF0000;stroke-width:1.0;"/><path d="M158.1777,19.2651 L158.1777,17.1069 L165.5571,17.1069 L165.5571,19.2651 L163.0918,19.2651 L163.0918,27.3418 L165.5571,27.3418 L165.5571,29.5 L158.1777,29.5 L158.1777,27.3418 L160.6431,27.3418 L160.6431,19.2651 Z " fill="#000000"/><text fill="#000000" font-family="sans-serif" font-size="12" font-style="italic" lengthAdjust="spacing" textLength="67" x="182.25" y="27.5352">Updateable</text><line style="stroke:#FF0000;stroke-width:1.5;" x1="108.5" x2="290.5" y1="39" y2="39"/><ellipse cx="118.5" cy="50" fill="#84BE84" rx="3" ry="3" style="stroke:#038048;stroke-width:1.0;"/><text fill="#000000" font-family="sans-serif" font-size="11" lengthAdjust="spacing" textLength="158" x="127.5" y="53.6348">update(deltaT: number) : void</text><!--MD5=[211aa72133353d37f87d1079ee8085e3]
class StateMachineGoapAI--><rect codeLine="23" fill="#FEFECE" filter="url(#f16p3g5pzg6n4k)" height="384.832" id="StateMachineGoapAI" style="stroke:#FF0000;stroke-width:1.5;" width="381" x="9" y="371"/><ellipse cx="136.75" cy="387" fill="#ADD1B2" rx="11" ry="11" style="stroke:#FF0000;stroke-width:1.0;"/><path d="M139.2231,393.1431 Q138.6421,393.4419 138.0029,393.5913 Q137.3638,393.7407 136.6582,393.7407 Q134.1514,393.7407 132.8315,392.0889 Q131.5117,390.437 131.5117,387.3159 Q131.5117,384.1865 132.8315,382.5347 Q134.1514,380.8828 136.6582,380.8828 Q137.3638,380.8828 138.0112,381.0322 Q138.6587,381.1816 139.2231,381.4805 L139.2231,384.2031 Q138.5923,383.6221 137.9988,383.3523 Q137.4053,383.0825 136.7744,383.0825 Q135.4297,383.0825 134.7449,384.1492 Q134.0601,385.2158 134.0601,387.3159 Q134.0601,389.4077 134.7449,390.4744 Q135.4297,391.541 136.7744,391.541 Q137.4053,391.541 137.9988,391.2712 Q138.5923,391.0015 139.2231,390.4204 Z " fill="#000000"/><text fill="#000000" font-family="sans-serif" font-size="12" lengthAdjust="spacing" textLength="117" x="157.25" y="391.5352">StateMachineGoapAI</text><line style="stroke:#FF0000;stroke-width:1.5;" x1="10" x2="389" y1="403" y2="403"/><ellipse cx="20" cy="414" rx="3" ry="3" style="stroke:#038048;stroke-width:1.0;fill:none;"/><text fill="#000000" font-family="sans-serif" font-size="11" lengthAdjust="spacing" textLength="122" x="29" y="417.6348">currentStatus : string[]</text><ellipse cx="20" cy="426.9551" rx="3" ry="3" style="stroke:#038048;stroke-width:1.0;fill:none;"/><text fill="#000000" font-family="sans-serif" font-size="11" lengthAdjust="spacing" textLength="64" x="29" y="430.5898">goal : string</text><ellipse cx="20" cy="439.9102" rx="3" ry="3" style="stroke:#038048;stroke-width:1.0;fill:none;"/><text fill="#000000" font-family="sans-serif" font-size="11" lengthAdjust="spacing" textLength="141" x="29" y="443.5449">plan : Stack&lt;GoapAction&gt;</text><ellipse cx="20" cy="452.8652" rx="3" ry="3" style="stroke:#038048;stroke-width:1.0;fill:none;"/><text fill="#000000" font-family="sans-serif" font-size="11" lengthAdjust="spacing" textLength="153" x="29" y="456.5">planner : GoapActionPlanner</text><ellipse cx="20" cy="465.8203" rx="3" ry="3" style="stroke:#038048;stroke-width:1.0;fill:none;"/><text fill="#000000" font-family="sans-serif" font-size="11" lengthAdjust="spacing" textLength="166" x="29" y="469.4551">possibleActions : GoapAction[]</text><polygon fill="none" points="20,473.7754,24,477.7754,20,481.7754,16,477.7754" style="stroke:#B38D22;stroke-width:1.0;"/><text fill="#000000" font-family="sans-serif" font-size="11" lengthAdjust="spacing" textLength="83" x="29" y="482.4102">active : boolean</text><polygon fill="none" points="20,486.7305,24,490.7305,20,494.7305,16,490.7305" style="stroke:#B38D22;stroke-width:1.0;"/><text fill="#000000" font-family="sans-serif" font-size="11" lengthAdjust="spacing" textLength="101" x="29" y="495.3652">currentState : State</text><polygon fill="none" points="20,499.6855,24,503.6855,20,507.6855,16,503.6855" style="stroke:#B38D22;stroke-width:1.0;"/><text fill="#000000" font-family="sans-serif" font-size="11" lengthAdjust="spacing" textLength="187" x="29" y="508.3203">emitEventOnStateChange : boolean</text><polygon fill="none" points="20,512.6406,24,516.6406,20,520.6406,16,516.6406" style="stroke:#B38D22;stroke-width:1.0;"/><text fill="#000000" font-family="sans-serif" font-size="11" lengthAdjust="spacing" textLength="85" x="29" y="521.2754">emitter : Emitter</text><polygon fill="none" points="20,525.5957,24,529.5957,20,533.5957,16,529.5957" style="stroke:#B38D22;stroke-width:1.0;"/><text fill="#000000" font-family="sans-serif" font-size="11" lengthAdjust="spacing" textLength="100" x="29" y="534.2305">owner : GameNode</text><polygon fill="none" points="20,538.5508,24,542.5508,20,546.5508,16,542.5508" style="stroke:#B38D22;stroke-width:1.0;"/><text fill="#000000" font-family="sans-serif" font-size="11" lengthAdjust="spacing" textLength="97" x="29" y="547.1855">receiver : Receiver</text><polygon fill="none" points="20,551.5059,24,555.5059,20,559.5059,16,555.5059" style="stroke:#B38D22;stroke-width:1.0;"/><text fill="#000000" font-family="sans-serif" font-size="11" lengthAdjust="spacing" textLength="109" x="29" y="560.1406">stack : Stack&lt;State&gt;</text><polygon fill="none" points="20,564.4609,24,568.4609,20,572.4609,16,568.4609" style="stroke:#B38D22;stroke-width:1.0;"/><text fill="#000000" font-family="sans-serif" font-size="11" lengthAdjust="spacing" textLength="167" x="29" y="573.0957">stateChangeEventName : string</text><polygon fill="none" points="20,577.416,24,581.416,20,585.416,16,581.416" style="stroke:#B38D22;stroke-width:1.0;"/><text fill="#000000" font-family="sans-serif" font-size="11" lengthAdjust="spacing" textLength="123" x="29" y="586.0508">stateMap : Map&lt;State&gt;</text><line style="stroke:#FF0000;stroke-width:1.5;" x1="10" x2="389" y1="592.3711" y2="592.3711"/><ellipse cx="20" cy="603.3711" fill="#84BE84" rx="3" ry="3" style="stroke:#038048;stroke-width:1.0;"/><text fill="#000000" font-family="sans-serif" font-size="11" lengthAdjust="spacing" textLength="241" x="29" y="607.0059">activate(options: Record&lt;string, any&gt;) : void</text><ellipse cx="20" cy="616.3262" fill="#84BE84" rx="3" ry="3" style="stroke:#038048;stroke-width:1.0;"/><text fill="#000000" font-family="sans-serif" font-size="11" lengthAdjust="spacing" textLength="244" x="29" y="619.9609">addState(stateName: string, state: State) : void</text><ellipse cx="20" cy="629.2813" fill="#84BE84" rx="3" ry="3" style="stroke:#038048;stroke-width:1.0;"/><text fill="#000000" font-family="sans-serif" font-size="11" lengthAdjust="spacing" textLength="209" x="29" y="632.916">cancelEmitEventOnStateChange() : void</text><ellipse cx="20" cy="642.2363" fill="#84BE84" rx="3" ry="3" style="stroke:#038048;stroke-width:1.0;"/><text fill="#000000" font-family="sans-serif" font-size="11" lengthAdjust="spacing" textLength="164" x="29" y="645.8711">changeGoal(goal: string) : void</text><ellipse cx="20" cy="655.1914" fill="#84BE84" rx="3" ry="3" style="stroke:#038048;stroke-width:1.0;"/><text fill="#000000" font-family="sans-serif" font-size="11" lengthAdjust="spacing" textLength="169" x="29" y="658.8262">changeState(state: string) : void</text><ellipse cx="20" cy="668.1465" fill="#84BE84" rx="3" ry="3" style="stroke:#038048;stroke-width:1.0;"/><text fill="#000000" font-family="sans-serif" font-size="11" lengthAdjust="spacing" textLength="81" x="29" y="671.7813">destroy() : void</text><ellipse cx="20" cy="681.1016" fill="#84BE84" rx="3" ry="3" style="stroke:#038048;stroke-width:1.0;"/><text fill="#000000" font-family="sans-serif" font-size="11" lengthAdjust="spacing" textLength="199" x="29" y="684.7363">handleEvent(event: GameEvent) : void</text><ellipse cx="20" cy="694.0566" fill="#84BE84" rx="3" ry="3" style="stroke:#038048;stroke-width:1.0;"/><text fill="#000000" font-family="sans-serif" font-size="11" lengthAdjust="spacing" textLength="343" x="29" y="697.6914">initialize(initialState: string, options: Record&lt;string, any&gt;) : void</text><ellipse cx="20" cy="707.0117" fill="#84BE84" rx="3" ry="3" style="stroke:#038048;stroke-width:1.0;"/><text fill="#000000" font-family="sans-serif" font-size="11" lengthAdjust="spacing" textLength="351" x="29" y="710.6465">initializeAI(owner: GameNode, config: Record&lt;string, any&gt;) : void</text><ellipse cx="20" cy="719.9668" fill="#84BE84" rx="3" ry="3" style="stroke:#038048;stroke-width:1.0;"/><text fill="#000000" font-family="sans-serif" font-size="11" lengthAdjust="spacing" textLength="158" x="29" y="723.6016">setActive(flag: boolean) : void</text><ellipse cx="20" cy="732.9219" fill="#84BE84" rx="3" ry="3" style="stroke:#038048;stroke-width:1.0;"/><text fill="#000000" font-family="sans-serif" font-size="11" lengthAdjust="spacing" textLength="355" x="29" y="736.5566">setEmitEventOnStateChange(stateChangeEventName: string) : void</text><ellipse cx="20" cy="745.877" fill="#84BE84" rx="3" ry="3" style="stroke:#038048;stroke-width:1.0;"/><text fill="#000000" font-family="sans-serif" font-size="11" lengthAdjust="spacing" textLength="158" x="29" y="749.5117">update(deltaT: number) : void</text><!--MD5=[c0768d1f10b828a0078072e007f6536b]
reverse link Updateable to GoapAI--><path codeLine="22" d="M199.5,80.32 C199.5,92.45 199.5,106.01 199.5,119.71 " fill="none" id="Updateable-backto-GoapAI" style="stroke:#FF0000;stroke-width:1.0;"/><polygon fill="none" points="192.5,80.29,199.5,60.29,206.5,80.29,192.5,80.29" style="stroke:#FF0000;stroke-width:1.0;"/><!--MD5=[6b3d3a752f61219e4c72bac317a7e5c1]
reverse link GoapAI to StateMachineGoapAI--><path codeLine="51" d="M199.5,331.41 C199.5,344.23 199.5,357.52 199.5,370.97 " fill="none" id="GoapAI-backto-StateMachineGoapAI" style="stroke:#FF0000;stroke-width:1.0;stroke-dasharray:7.0,7.0;"/><polygon fill="none" points="192.5,331.05,199.5,311.05,206.5,331.05,192.5,331.05" style="stroke:#FF0000;stroke-width:1.0;"/><!--MD5=[bb61ea9fd32d53cbf67520fc3fb07f7c]
@startuml
skinparam ClassArrowColor #ff0000
skinparam ClassBorderColor #ff0000
skinparam BackgroundColor transparent
hide empty methods
hide empty fields
interface "GoapAI" {
    +currentStatus : string[]
    +goal : string
    +plan : Stack<GoapAction>
    +planner : GoapActionPlanner
    +possibleActions : GoapAction[]
    +activate(options: Record<string, any>) : void
    +changeGoal(goal: string) : void
    +destroy() : void
    +handleEvent(event: GameEvent) : void
    +initializeAI(owner: GameNode, options: Record<string, any>) : void
    +update(deltaT: number) : void
}
interface "Updateable" {
    +update(deltaT: number) : void
}
"Updateable" <|- - "GoapAI"
class "StateMachineGoapAI" {
    +currentStatus : string[]
    +goal : string
    +plan : Stack<GoapAction>
    +planner : GoapActionPlanner
    +possibleActions : GoapAction[]
    #active : boolean
    #currentState : State
    #emitEventOnStateChange : boolean
    #emitter : Emitter
    #owner : GameNode
    #receiver : Receiver
    #stack : Stack<State>
    #stateChangeEventName : string
    #stateMap : Map<State>
    +activate(options: Record<string, any>) : void
    +addState(stateName: string, state: State) : void
    +cancelEmitEventOnStateChange() : void
    +changeGoal(goal: string) : void
    +changeState(state: string) : void
    +destroy() : void
    +handleEvent(event: GameEvent) : void
    +initialize(initialState: string, options: Record<string, any>) : void
    +initializeAI(owner: GameNode, config: Record<string, any>) : void
    +setActive(flag: boolean) : void
    +setEmitEventOnStateChange(stateChangeEventName: string) : void
    +update(deltaT: number) : void
}
"GoapAI" <|.. "StateMachineGoapAI"
@enduml

PlantUML version 1.2021.14(Fri Nov 12 11:46:50 EST 2021)
(GPL source distribution)
Java Runtime: Java(TM) SE Runtime Environment
JVM: Java HotSpot(TM) 64-Bit Server VM
Default Encoding: UTF-8
Language: en
Country: US
--></g></svg>