<?xml version="1.0" encoding="UTF-8" standalone="no"?><svg xmlns="http://www.w3.org/2000/svg" xmlns:xlink="http://www.w3.org/1999/xlink" contentScriptType="application/ecmascript" contentStyleType="text/css" height="237px" preserveAspectRatio="none" style="width:170px;height:237px;background:#00000000;" version="1.1" viewBox="0 0 170 237" width="170px" zoomAndPan="magnify"><defs><filter height="300%" id="fwuoeer83wbix" width="300%" x="-1" y="-1"><feGaussianBlur result="blurOut" stdDeviation="2.0"/><feColorMatrix in="blurOut" result="blurOut2" type="matrix" values="0 0 0 0 0 0 0 0 0 0 0 0 0 0 0 0 0 0 .4 0"/><feOffset dx="4.0" dy="4.0" in="blurOut2" result="blurOut3"/><feBlend in="SourceGraphic" in2="blurOut3" mode="normal"/></filter></defs><g><!--MD5=[3fb99073a4a5a190dfd5e05004425094]
class GoapAI--><rect codeLine="6" fill="#FEFECE" filter="url(#fwuoeer83wbix)" height="32" id="GoapAI" style="stroke:#FF0000;stroke-width:1.5;" width="74" x="44.5" y="99"/><ellipse cx="59.5" cy="115" fill="#B4A7E5" rx="11" ry="11" style="stroke:#FF0000;stroke-width:1.0;"/><path d="M55.9277,111.2651 L55.9277,109.1069 L63.3071,109.1069 L63.3071,111.2651 L60.8418,111.2651 L60.8418,119.3418 L63.3071,119.3418 L63.3071,121.5 L55.9277,121.5 L55.9277,119.3418 L58.3931,119.3418 L58.3931,111.2651 Z " fill="#000000"/><text fill="#000000" font-family="sans-serif" font-size="12" font-style="italic" lengthAdjust="spacing" textLength="42" x="73.5" y="119.5352">GoapAI</text><!--MD5=[8336922478991a54f539d469b4e48cc0]
class Updateable--><rect codeLine="8" fill="#FEFECE" filter="url(#fwuoeer83wbix)" height="32" id="Updateable" style="stroke:#FF0000;stroke-width:1.5;" width="99" x="32" y="7"/><ellipse cx="47" cy="23" fill="#B4A7E5" rx="11" ry="11" style="stroke:#FF0000;stroke-width:1.0;"/><path d="M43.4277,19.2651 L43.4277,17.1069 L50.8071,17.1069 L50.8071,19.2651 L48.3418,19.2651 L48.3418,27.3418 L50.8071,27.3418 L50.8071,29.5 L43.4277,29.5 L43.4277,27.3418 L45.8931,27.3418 L45.8931,19.2651 Z " fill="#000000"/><text fill="#000000" font-family="sans-serif" font-size="12" font-style="italic" lengthAdjust="spacing" textLength="67" x="61" y="27.5352">Updateable</text><!--MD5=[211aa72133353d37f87d1079ee8085e3]
class StateMachineGoapAI--><rect codeLine="11" fill="#FEFECE" filter="url(#fwuoeer83wbix)" height="32" id="StateMachineGoapAI" style="stroke:#FF0000;stroke-width:1.5;" width="149" x="7" y="191"/><ellipse cx="22" cy="207" fill="#ADD1B2" rx="11" ry="11" style="stroke:#FF0000;stroke-width:1.0;"/><path d="M24.4731,213.1431 Q23.8921,213.4419 23.2529,213.5913 Q22.6138,213.7407 21.9082,213.7407 Q19.4014,213.7407 18.0815,212.0889 Q16.7617,210.437 16.7617,207.3159 Q16.7617,204.1865 18.0815,202.5347 Q19.4014,200.8828 21.9082,200.8828 Q22.6138,200.8828 23.2612,201.0322 Q23.9087,201.1816 24.4731,201.4805 L24.4731,204.2031 Q23.8423,203.6221 23.2488,203.3523 Q22.6553,203.0825 22.0244,203.0825 Q20.6797,203.0825 19.9949,204.1492 Q19.3101,205.2158 19.3101,207.3159 Q19.3101,209.4077 19.9949,210.4744 Q20.6797,211.541 22.0244,211.541 Q22.6553,211.541 23.2488,211.2712 Q23.8423,211.0015 24.4731,210.4204 Z " fill="#000000"/><text fill="#000000" font-family="sans-serif" font-size="12" lengthAdjust="spacing" textLength="117" x="36" y="211.5352">StateMachineGoapAI</text><!--MD5=[c0768d1f10b828a0078072e007f6536b]
reverse link Updateable to GoapAI--><path codeLine="10" d="M81.5,59.61 C81.5,73.31 81.5,88.22 81.5,98.96 " fill="none" id="Updateable-backto-GoapAI" style="stroke:#FF0000;stroke-width:1.0;"/><polygon fill="none" points="74.5,59.27,81.5,39.27,88.5,59.27,74.5,59.27" style="stroke:#FF0000;stroke-width:1.0;"/><!--MD5=[6b3d3a752f61219e4c72bac317a7e5c1]
reverse link GoapAI to StateMachineGoapAI--><path codeLine="13" d="M81.5,151.61 C81.5,165.31 81.5,180.22 81.5,190.96 " fill="none" id="GoapAI-backto-StateMachineGoapAI" style="stroke:#FF0000;stroke-width:1.0;stroke-dasharray:7.0,7.0;"/><polygon fill="none" points="74.5,151.27,81.5,131.27,88.5,151.27,74.5,151.27" style="stroke:#FF0000;stroke-width:1.0;"/><!--MD5=[63a5ad47933682b8fa6070c6d343c71a]
@startuml
skinparam ClassArrowColor #ff0000
skinparam ClassBorderColor #ff0000
skinparam BackgroundColor transparent
hide empty methods
hide empty fields
interface "GoapAI" {
}
interface "Updateable" {
}
"Updateable" <|- - "GoapAI"
class "StateMachineGoapAI" {
}
"GoapAI" <|.. "StateMachineGoapAI"
@enduml

PlantUML version 1.2021.14(Fri Nov 12 11:46:50 EST 2021)
(GPL source distribution)
Java Runtime: Java(TM) SE Runtime Environment
JVM: Java HotSpot(TM) 64-Bit Server VM
Default Encoding: UTF-8
Language: en
Country: US
--></g></svg>