<?xml version="1.0" encoding="UTF-8" standalone="no"?><svg xmlns="http://www.w3.org/2000/svg" xmlns:xlink="http://www.w3.org/1999/xlink" contentScriptType="application/ecmascript" contentStyleType="text/css" height="467px" preserveAspectRatio="none" style="width:286px;height:467px;background:#00000000;" version="1.1" viewBox="0 0 286 467" width="286px" zoomAndPan="magnify"><defs><filter height="300%" id="fad48bjlcwe79" width="300%" x="-1" y="-1"><feGaussianBlur result="blurOut" stdDeviation="2.0"/><feColorMatrix in="blurOut" result="blurOut2" type="matrix" values="0 0 0 0 0 0 0 0 0 0 0 0 0 0 0 0 0 0 .4 0"/><feOffset dx="4.0" dy="4.0" in="blurOut2" result="blurOut3"/><feBlend in="SourceGraphic" in2="blurOut3" mode="normal"/></filter></defs><g><!--MD5=[fd8d39f213df5fb9b4018799c2b6469e]
class Heap<T>--><rect codeLine="6" fill="#FEFECE" filter="url(#fad48bjlcwe79)" height="320.0566" id="Heap&lt;T&gt;" style="stroke:#FF0000;stroke-width:1.5;" width="263" x="9" y="133"/><ellipse cx="106.75" cy="149" fill="#ADD1B2" rx="11" ry="11" style="stroke:#FF0000;stroke-width:1.0;"/><path d="M109.2231,155.1431 Q108.6421,155.4419 108.0029,155.5913 Q107.3638,155.7407 106.6582,155.7407 Q104.1514,155.7407 102.8315,154.0889 Q101.5117,152.437 101.5117,149.3159 Q101.5117,146.1865 102.8315,144.5347 Q104.1514,142.8828 106.6582,142.8828 Q107.3638,142.8828 108.0112,143.0322 Q108.6587,143.1816 109.2231,143.4805 L109.2231,146.2031 Q108.5923,145.6221 107.9988,145.3523 Q107.4053,145.0825 106.7744,145.0825 Q105.4297,145.0825 104.7449,146.1492 Q104.0601,147.2158 104.0601,149.3159 Q104.0601,151.4077 104.7449,152.4744 Q105.4297,153.541 106.7744,153.541 Q107.4053,153.541 107.9988,153.2712 Q108.5923,153.0015 109.2231,152.4204 Z " fill="#000000"/><text fill="#000000" font-family="sans-serif" font-size="12" lengthAdjust="spacing" textLength="59" x="127.25" y="153.5352">Heap&lt;T&gt;</text><line style="stroke:#FF0000;stroke-width:1.5;" x1="10" x2="271" y1="165" y2="165"/><rect fill="none" height="6" style="stroke:#C82930;stroke-width:1.0;" width="6" x="17" y="173"/><text fill="#000000" font-family="sans-serif" font-size="11" lengthAdjust="spacing" textLength="86" x="29" y="179.6348">comp : Function</text><rect fill="none" height="6" style="stroke:#C82930;stroke-width:1.0;" width="6" x="17" y="185.9551"/><text fill="#000000" font-family="sans-serif" font-size="11" lengthAdjust="spacing" textLength="50" x="29" y="192.5898">heap : T[]</text><rect fill="none" height="6" style="stroke:#C82930;stroke-width:1.0;" width="6" x="17" y="198.9102"/><text fill="#000000" font-family="sans-serif" font-size="11" lengthAdjust="spacing" textLength="127" x="29" y="205.5449">map : Map&lt;T, number&gt;</text><rect fill="none" height="6" style="stroke:#C82930;stroke-width:1.0;" width="6" x="17" y="211.8652"/><text fill="#000000" font-family="sans-serif" font-size="11" lengthAdjust="spacing" textLength="135" x="29" y="218.5">MAX_ELEMENTS : number</text><rect fill="none" height="6" style="stroke:#C82930;stroke-width:1.0;" width="6" x="17" y="224.8203"/><text fill="#000000" font-family="sans-serif" font-size="11" lengthAdjust="spacing" textLength="83" x="29" y="231.4551">ROOT : number</text><rect fill="none" height="6" style="stroke:#C82930;stroke-width:1.0;" width="6" x="17" y="237.7754"/><text fill="#000000" font-family="sans-serif" font-size="11" lengthAdjust="spacing" textLength="72" x="29" y="244.4102">size : number</text><line style="stroke:#FF0000;stroke-width:1.5;" x1="10" x2="271" y1="250.7305" y2="250.7305"/><ellipse cx="20" cy="261.7305" fill="#84BE84" rx="3" ry="3" style="stroke:#038048;stroke-width:1.0;"/><text fill="#000000" font-family="sans-serif" font-size="11" lengthAdjust="spacing" textLength="66" x="29" y="265.3652">clear() : void</text><ellipse cx="20" cy="274.6855" fill="#84BE84" rx="3" ry="3" style="stroke:#038048;stroke-width:1.0;"/><text fill="#000000" font-family="sans-serif" font-size="11" lengthAdjust="spacing" textLength="158" x="29" y="278.3203">forEach(func: Function) : void</text><ellipse cx="20" cy="287.6406" fill="#84BE84" rx="3" ry="3" style="stroke:#038048;stroke-width:1.0;"/><text fill="#000000" font-family="sans-serif" font-size="11" lengthAdjust="spacing" textLength="120" x="29" y="291.2754">has(value: T) : boolean</text><ellipse cx="20" cy="300.5957" fill="#84BE84" rx="3" ry="3" style="stroke:#038048;stroke-width:1.0;"/><text fill="#000000" font-family="sans-serif" font-size="11" lengthAdjust="spacing" textLength="102" x="29" y="304.2305">isEmpty() : boolean</text><ellipse cx="20" cy="313.5508" fill="#84BE84" rx="3" ry="3" style="stroke:#038048;stroke-width:1.0;"/><text fill="#000000" font-family="sans-serif" font-size="11" lengthAdjust="spacing" textLength="49" x="29" y="317.1855">peek() : T</text><ellipse cx="20" cy="326.5059" fill="#84BE84" rx="3" ry="3" style="stroke:#038048;stroke-width:1.0;"/><text fill="#000000" font-family="sans-serif" font-size="11" lengthAdjust="spacing" textLength="45" x="29" y="330.1406">pop() : T</text><ellipse cx="20" cy="339.4609" fill="#84BE84" rx="3" ry="3" style="stroke:#038048;stroke-width:1.0;"/><text fill="#000000" font-family="sans-serif" font-size="11" lengthAdjust="spacing" textLength="86" x="29" y="343.0957">push(e: T) : void</text><ellipse cx="20" cy="352.416" fill="#84BE84" rx="3" ry="3" style="stroke:#038048;stroke-width:1.0;"/><text fill="#000000" font-family="sans-serif" font-size="11" lengthAdjust="spacing" textLength="120" x="29" y="356.0508">restore(value: T) : void</text><ellipse cx="20" cy="365.3711" fill="#84BE84" rx="3" ry="3" style="stroke:#038048;stroke-width:1.0;"/><text fill="#000000" font-family="sans-serif" font-size="11" lengthAdjust="spacing" textLength="92" x="29" y="369.0059">toString() : string</text><polygon fill="#FFFF44" points="20,373.3262,24,377.3262,20,381.3262,16,377.3262" style="stroke:#B38D22;stroke-width:1.0;"/><text fill="#000000" font-family="sans-serif" font-size="11" lengthAdjust="spacing" textLength="163" x="29" y="381.9609">lchild(node: number) : number</text><polygon fill="#FFFF44" points="20,386.2813,24,390.2813,20,394.2813,16,390.2813" style="stroke:#B38D22;stroke-width:1.0;"/><text fill="#000000" font-family="sans-serif" font-size="11" lengthAdjust="spacing" textLength="169" x="29" y="394.916">parent(node: number) : number</text><polygon fill="#FFFF44" points="20,399.2363,24,403.2363,20,407.2363,16,403.2363" style="stroke:#B38D22;stroke-width:1.0;"/><text fill="#000000" font-family="sans-serif" font-size="11" lengthAdjust="spacing" textLength="168" x="29" y="407.8711">percdown(node: number) : void</text><polygon fill="#FFFF44" points="20,412.1914,24,416.1914,20,420.1914,16,416.1914" style="stroke:#B38D22;stroke-width:1.0;"/><text fill="#000000" font-family="sans-serif" font-size="11" lengthAdjust="spacing" textLength="153" x="29" y="420.8262">percup(node: number) : void</text><polygon fill="#FFFF44" points="20,425.1465,24,429.1465,20,433.1465,16,429.1465" style="stroke:#B38D22;stroke-width:1.0;"/><text fill="#000000" font-family="sans-serif" font-size="11" lengthAdjust="spacing" textLength="165" x="29" y="433.7813">rchild(node: number) : number</text><polygon fill="#FFFF44" points="20,438.1016,24,442.1016,20,446.1016,16,442.1016" style="stroke:#B38D22;stroke-width:1.0;"/><text fill="#000000" font-family="sans-serif" font-size="11" lengthAdjust="spacing" textLength="237" x="29" y="446.7363">swap(node1: number, node2: number) : void</text><!--MD5=[c160724f8e3bb89ca8141a12554ac2e3]
class Collection--><rect codeLine="29" fill="#FEFECE" filter="url(#fad48bjlcwe79)" height="65.9102" id="Collection" style="stroke:#FF0000;stroke-width:1.5;" width="184" x="48.5" y="7"/><ellipse cx="108.75" cy="23" fill="#B4A7E5" rx="11" ry="11" style="stroke:#FF0000;stroke-width:1.0;"/><path d="M105.1777,19.2651 L105.1777,17.1069 L112.5571,17.1069 L112.5571,19.2651 L110.0918,19.2651 L110.0918,27.3418 L112.5571,27.3418 L112.5571,29.5 L105.1777,29.5 L105.1777,27.3418 L107.6431,27.3418 L107.6431,19.2651 Z " fill="#000000"/><text fill="#000000" font-family="sans-serif" font-size="12" font-style="italic" lengthAdjust="spacing" textLength="55" x="129.25" y="27.5352">Collection</text><line style="stroke:#FF0000;stroke-width:1.5;" x1="49.5" x2="231.5" y1="39" y2="39"/><ellipse cx="59.5" cy="50" fill="#84BE84" rx="3" ry="3" style="stroke:#038048;stroke-width:1.0;"/><text fill="#000000" font-family="sans-serif" font-size="11" lengthAdjust="spacing" textLength="66" x="68.5" y="53.6348">clear() : void</text><ellipse cx="59.5" cy="62.9551" fill="#84BE84" rx="3" ry="3" style="stroke:#038048;stroke-width:1.0;"/><text fill="#000000" font-family="sans-serif" font-size="11" lengthAdjust="spacing" textLength="158" x="68.5" y="66.5898">forEach(func: Function) : void</text><!--MD5=[a8f009b32ab35c33472062813fbe045f]
reverse link Collection to Heap<T>--><path codeLine="33" d="M140.5,93.11 C140.5,105.19 140.5,118.67 140.5,132.76 " fill="none" id="Collection-backto-Heap&lt;T&gt;" style="stroke:#FF0000;stroke-width:1.0;stroke-dasharray:7.0,7.0;"/><polygon fill="none" points="133.5,93.04,140.5,73.04,147.5,93.04,133.5,93.04" style="stroke:#FF0000;stroke-width:1.0;"/><!--MD5=[7a196f352e13c689dc20952a6340ceff]
@startuml
skinparam ClassArrowColor #ff0000
skinparam ClassBorderColor #ff0000
skinparam BackgroundColor transparent
hide empty methods
hide empty fields
class "Heap<T>" {
    -comp : Function
    -heap : T[]
    -map : Map<T, number>
    -MAX_ELEMENTS : number
    -ROOT : number
    -size : number
    +clear() : void
    +forEach(func: Function) : void
    +has(value: T) : boolean
    +isEmpty() : boolean
    +peek() : T
    +pop() : T
    +push(e: T) : void
    +restore(value: T) : void
    +toString() : string
    #lchild(node: number) : number
    #parent(node: number) : number
    #percdown(node: number) : void
    #percup(node: number) : void
    #rchild(node: number) : number
    #swap(node1: number, node2: number) : void
}
interface "Collection" {
    +clear() : void
    +forEach(func: Function) : void
}
"Collection" <|.. "Heap<T>"
@enduml

PlantUML version 1.2021.14(Fri Nov 12 11:46:50 EST 2021)
(GPL source distribution)
Java Runtime: Java(TM) SE Runtime Environment
JVM: Java HotSpot(TM) 64-Bit Server VM
Default Encoding: UTF-8
Language: en
Country: US
--></g></svg>