<?xml version="1.0" encoding="UTF-8" standalone="no"?><svg xmlns="http://www.w3.org/2000/svg" xmlns:xlink="http://www.w3.org/1999/xlink" contentScriptType="application/ecmascript" contentStyleType="text/css" height="449px" preserveAspectRatio="none" style="width:441px;height:449px;background:#00000000;" version="1.1" viewBox="0 0 441 449" width="441px" zoomAndPan="magnify"><defs><filter height="300%" id="f2mcopj8stepw" width="300%" x="-1" y="-1"><feGaussianBlur result="blurOut" stdDeviation="2.0"/><feColorMatrix in="blurOut" result="blurOut2" type="matrix" values="0 0 0 0 0 0 0 0 0 0 0 0 0 0 0 0 0 0 .4 0"/><feOffset dx="4.0" dy="4.0" in="blurOut2" result="blurOut3"/><feBlend in="SourceGraphic" in2="blurOut3" mode="normal"/></filter></defs><g><!--MD5=[4907cf6d5446b10e82631247fe678365]
class LabelShaderType--><rect codeLine="6" fill="#FEFECE" filter="url(#f2mcopj8stepw)" height="190.5059" id="LabelShaderType" style="stroke:#FF0000;stroke-width:1.5;" width="418" x="9" y="245"/><ellipse cx="163.75" cy="261" fill="#ADD1B2" rx="11" ry="11" style="stroke:#FF0000;stroke-width:1.0;"/><path d="M166.2231,267.1431 Q165.6421,267.4419 165.0029,267.5913 Q164.3638,267.7407 163.6582,267.7407 Q161.1514,267.7407 159.8315,266.0889 Q158.5117,264.437 158.5117,261.3159 Q158.5117,258.1865 159.8315,256.5347 Q161.1514,254.8828 163.6582,254.8828 Q164.3638,254.8828 165.0112,255.0322 Q165.6587,255.1816 166.2231,255.4805 L166.2231,258.2031 Q165.5923,257.6221 164.9988,257.3523 Q164.4053,257.0825 163.7744,257.0825 Q162.4297,257.0825 161.7449,258.1492 Q161.0601,259.2158 161.0601,261.3159 Q161.0601,263.4077 161.7449,264.4744 Q162.4297,265.541 163.7744,265.541 Q164.4053,265.541 164.9988,265.2712 Q165.5923,265.0015 166.2231,264.4204 Z " fill="#000000"/><text fill="#000000" font-family="sans-serif" font-size="12" lengthAdjust="spacing" textLength="100" x="184.25" y="265.5352">LabelShaderType</text><line style="stroke:#FF0000;stroke-width:1.5;" x1="10" x2="426" y1="277" y2="277"/><polygon fill="none" points="20,283,24,287,20,291,16,287" style="stroke:#B38D22;stroke-width:1.0;"/><text fill="#000000" font-family="sans-serif" font-size="11" lengthAdjust="spacing" textLength="128" x="29" y="291.6348">bufferObjectKey : string</text><polygon fill="none" points="20,295.9551,24,299.9551,20,303.9551,16,299.9551" style="stroke:#B38D22;stroke-width:1.0;"/><text fill="#000000" font-family="sans-serif" font-size="11" lengthAdjust="spacing" textLength="70" x="29" y="304.5898">name : string</text><polygon fill="none" points="20,308.9102,24,312.9102,20,316.9102,16,312.9102" style="stroke:#B38D22;stroke-width:1.0;"/><text fill="#000000" font-family="sans-serif" font-size="11" lengthAdjust="spacing" textLength="107" x="29" y="317.5449">programKey : string</text><polygon fill="none" points="20,321.8652,24,325.8652,20,329.8652,16,325.8652" style="stroke:#B38D22;stroke-width:1.0;"/><text fill="#000000" font-family="sans-serif" font-size="11" lengthAdjust="spacing" textLength="199" x="29" y="330.5">resourceManager : ResourceManager</text><polygon fill="none" points="20,334.8203,24,338.8203,20,342.8203,16,338.8203" style="stroke:#B38D22;stroke-width:1.0;"/><text fill="#000000" font-family="sans-serif" font-size="11" lengthAdjust="spacing" textLength="92" x="29" y="343.4551">rotation : Mat4x4</text><polygon fill="none" points="20,347.7754,24,351.7754,20,355.7754,16,351.7754" style="stroke:#B38D22;stroke-width:1.0;"/><text fill="#000000" font-family="sans-serif" font-size="11" lengthAdjust="spacing" textLength="76" x="29" y="356.4102">scale : Mat4x4</text><polygon fill="none" points="20,360.7305,24,364.7305,20,368.7305,16,364.7305" style="stroke:#B38D22;stroke-width:1.0;"/><text fill="#000000" font-family="sans-serif" font-size="11" lengthAdjust="spacing" textLength="107" x="29" y="369.3652">translation : Mat4x4</text><line style="stroke:#FF0000;stroke-width:1.5;" x1="10" x2="426" y1="375.6855" y2="375.6855"/><ellipse cx="20" cy="386.6855" fill="#84BE84" rx="3" ry="3" style="stroke:#038048;stroke-width:1.0;"/><text fill="#000000" font-family="sans-serif" font-size="11" lengthAdjust="spacing" textLength="245" x="29" y="390.3203">getOptions(rect: Label) : Record&lt;string, any&gt;</text><ellipse cx="20" cy="399.6406" fill="#84BE84" rx="3" ry="3" style="stroke:#038048;stroke-width:1.0;"/><text fill="#000000" font-family="sans-serif" font-size="11" lengthAdjust="spacing" textLength="264" x="29" y="403.2754">getVertices(w: number, h: number) : Float32Array</text><ellipse cx="20" cy="412.5957" fill="#84BE84" rx="3" ry="3" style="stroke:#038048;stroke-width:1.0;"/><text fill="#000000" font-family="sans-serif" font-size="11" lengthAdjust="spacing" textLength="124" x="29" y="416.2305">initBufferObject() : void</text><ellipse cx="20" cy="425.5508" fill="#84BE84" rx="3" ry="3" style="stroke:#038048;stroke-width:1.0;"/><text fill="#000000" font-family="sans-serif" font-size="11" lengthAdjust="spacing" textLength="392" x="29" y="429.1855">render(gl: WebGLRenderingContext, options: Record&lt;string, any&gt;) : void</text><!--MD5=[a20a8f5c719dd0b14625af93e214cb5b]
class QuadShaderType--><rect codeLine="19" fill="#FEFECE" filter="url(#f2mcopj8stepw)" height="177.5508" id="QuadShaderType" style="stroke:#FF0000;stroke-width:1.5;" width="418" x="9" y="7"/><ellipse cx="163.75" cy="23" fill="#A9DCDF" rx="11" ry="11" style="stroke:#FF0000;stroke-width:1.0;"/><path d="M163.6133,18.3481 L162.4595,23.4199 L164.7754,23.4199 Z M162.1191,16.1069 L165.1157,16.1069 L168.4609,28.5 L166.0122,28.5 L165.2485,25.437 L161.9697,25.437 L161.2227,28.5 L158.7739,28.5 Z " fill="#000000"/><text fill="#000000" font-family="sans-serif" font-size="12" font-style="italic" lengthAdjust="spacing" textLength="100" x="184.25" y="27.5352">QuadShaderType</text><line style="stroke:#FF0000;stroke-width:1.5;" x1="10" x2="426" y1="39" y2="39"/><polygon fill="none" points="20,45,24,49,20,53,16,49" style="stroke:#B38D22;stroke-width:1.0;"/><text fill="#000000" font-family="sans-serif" font-size="11" lengthAdjust="spacing" textLength="128" x="29" y="53.6348">bufferObjectKey : string</text><polygon fill="none" points="20,57.9551,24,61.9551,20,65.9551,16,61.9551" style="stroke:#B38D22;stroke-width:1.0;"/><text fill="#000000" font-family="sans-serif" font-size="11" lengthAdjust="spacing" textLength="70" x="29" y="66.5898">name : string</text><polygon fill="none" points="20,70.9102,24,74.9102,20,78.9102,16,74.9102" style="stroke:#B38D22;stroke-width:1.0;"/><text fill="#000000" font-family="sans-serif" font-size="11" lengthAdjust="spacing" textLength="107" x="29" y="79.5449">programKey : string</text><polygon fill="none" points="20,83.8652,24,87.8652,20,91.8652,16,87.8652" style="stroke:#B38D22;stroke-width:1.0;"/><text fill="#000000" font-family="sans-serif" font-size="11" lengthAdjust="spacing" textLength="199" x="29" y="92.5">resourceManager : ResourceManager</text><polygon fill="none" points="20,96.8203,24,100.8203,20,104.8203,16,100.8203" style="stroke:#B38D22;stroke-width:1.0;"/><text fill="#000000" font-family="sans-serif" font-size="11" lengthAdjust="spacing" textLength="92" x="29" y="105.4551">rotation : Mat4x4</text><polygon fill="none" points="20,109.7754,24,113.7754,20,117.7754,16,113.7754" style="stroke:#B38D22;stroke-width:1.0;"/><text fill="#000000" font-family="sans-serif" font-size="11" lengthAdjust="spacing" textLength="76" x="29" y="118.4102">scale : Mat4x4</text><polygon fill="none" points="20,122.7305,24,126.7305,20,130.7305,16,126.7305" style="stroke:#B38D22;stroke-width:1.0;"/><text fill="#000000" font-family="sans-serif" font-size="11" lengthAdjust="spacing" textLength="107" x="29" y="131.3652">translation : Mat4x4</text><line style="stroke:#FF0000;stroke-width:1.5;" x1="10" x2="426" y1="137.6855" y2="137.6855"/><ellipse cx="20" cy="148.6855" fill="#84BE84" rx="3" ry="3" style="stroke:#038048;stroke-width:1.0;"/><text fill="#000000" font-family="sans-serif" font-size="11" lengthAdjust="spacing" textLength="290" x="29" y="152.3203">getOptions(node: CanvasNode) : Record&lt;string, any&gt;</text><ellipse cx="20" cy="161.6406" fill="#84BE84" rx="3" ry="3" style="stroke:#038048;stroke-width:1.0;"/><text fill="#000000" font-family="sans-serif" font-size="11" font-style="italic" lengthAdjust="spacing" textLength="124" x="29" y="165.2754">initBufferObject() : void</text><ellipse cx="20" cy="174.5957" fill="#84BE84" rx="3" ry="3" style="stroke:#038048;stroke-width:1.0;"/><text fill="#000000" font-family="sans-serif" font-size="11" font-style="italic" lengthAdjust="spacing" textLength="392" x="29" y="178.2305">render(gl: WebGLRenderingContext, options: Record&lt;string, any&gt;) : void</text><!--MD5=[41ad66983abf82946cfbe229c70ab90c]
reverse link QuadShaderType to LabelShaderType--><path codeLine="31" d="M218,205.55 C218,218.63 218,231.92 218,244.79 " fill="none" id="QuadShaderType-backto-LabelShaderType" style="stroke:#FF0000;stroke-width:1.0;"/><polygon fill="none" points="211,205.23,218,185.23,225,205.23,211,205.23" style="stroke:#FF0000;stroke-width:1.0;"/><!--MD5=[7d6c9fcecdb193a40a1364203b318050]
@startuml
skinparam ClassArrowColor #ff0000
skinparam ClassBorderColor #ff0000
skinparam BackgroundColor transparent
hide empty methods
hide empty fields
class "LabelShaderType" {
    #bufferObjectKey : string
    #name : string
    #programKey : string
    #resourceManager : ResourceManager
    #rotation : Mat4x4
    #scale : Mat4x4
    #translation : Mat4x4
    +getOptions(rect: Label) : Record<string, any>
    +getVertices(w: number, h: number) : Float32Array
    +initBufferObject() : void
    +render(gl: WebGLRenderingContext, options: Record<string, any>) : void
}
abstract class "QuadShaderType" {
    #bufferObjectKey : string
    #name : string
    #programKey : string
    #resourceManager : ResourceManager
    #rotation : Mat4x4
    #scale : Mat4x4
    #translation : Mat4x4
    +getOptions(node: CanvasNode) : Record<string, any>
    {abstract} +initBufferObject() : void
    {abstract} +render(gl: WebGLRenderingContext, options: Record<string, any>) : void
}
"QuadShaderType" <|- - "LabelShaderType"
@enduml

PlantUML version 1.2021.14(Fri Nov 12 11:46:50 EST 2021)
(GPL source distribution)
Java Runtime: Java(TM) SE Runtime Environment
JVM: Java HotSpot(TM) 64-Bit Server VM
Default Encoding: UTF-8
Language: en
Country: US
--></g></svg>