<?xml version="1.0" encoding="UTF-8" standalone="no"?><svg xmlns="http://www.w3.org/2000/svg" xmlns:xlink="http://www.w3.org/1999/xlink" contentScriptType="application/ecmascript" contentStyleType="text/css" height="237px" preserveAspectRatio="none" style="width:211px;height:237px;background:#00000000;" version="1.1" viewBox="0 0 211 237" width="211px" zoomAndPan="magnify"><defs><filter height="300%" id="f1ehp7n6opldft" width="300%" x="-1" y="-1"><feGaussianBlur result="blurOut" stdDeviation="2.0"/><feColorMatrix in="blurOut" result="blurOut2" type="matrix" values="0 0 0 0 0 0 0 0 0 0 0 0 0 0 0 0 0 0 .4 0"/><feOffset dx="4.0" dy="4.0" in="blurOut2" result="blurOut3"/><feBlend in="SourceGraphic" in2="blurOut3" mode="normal"/></filter></defs><g><!--MD5=[e84c991d4d3bbf916ee1653c86a9249d]
class Label--><rect codeLine="6" fill="#FEFECE" filter="url(#f1ehp7n6opldft)" height="32" id="Label" style="stroke:#FF0000;stroke-width:1.5;" width="63" x="65.5" y="99"/><ellipse cx="80.5" cy="115" fill="#ADD1B2" rx="11" ry="11" style="stroke:#FF0000;stroke-width:1.0;"/><path d="M82.9731,121.1431 Q82.3921,121.4419 81.7529,121.5913 Q81.1138,121.7407 80.4082,121.7407 Q77.9014,121.7407 76.5815,120.0889 Q75.2617,118.437 75.2617,115.3159 Q75.2617,112.1865 76.5815,110.5347 Q77.9014,108.8828 80.4082,108.8828 Q81.1138,108.8828 81.7612,109.0322 Q82.4087,109.1816 82.9731,109.4805 L82.9731,112.2031 Q82.3423,111.6221 81.7488,111.3523 Q81.1553,111.0825 80.5244,111.0825 Q79.1797,111.0825 78.4949,112.1492 Q77.8101,113.2158 77.8101,115.3159 Q77.8101,117.4077 78.4949,118.4744 Q79.1797,119.541 80.5244,119.541 Q81.1553,119.541 81.7488,119.2712 Q82.3423,119.0015 82.9731,118.4204 Z " fill="#000000"/><text fill="#000000" font-family="sans-serif" font-size="12" lengthAdjust="spacing" textLength="31" x="94.5" y="119.5352">Label</text><!--MD5=[a49b7276910d6619e9702881d69ae75a]
class UIElement--><rect codeLine="8" fill="#FEFECE" filter="url(#f1ehp7n6opldft)" height="32" id="UIElement" style="stroke:#FF0000;stroke-width:1.5;" width="89" x="52.5" y="7"/><ellipse cx="67.5" cy="23" fill="#A9DCDF" rx="11" ry="11" style="stroke:#FF0000;stroke-width:1.0;"/><path d="M67.3633,18.3481 L66.2095,23.4199 L68.5254,23.4199 Z M65.8691,16.1069 L68.8657,16.1069 L72.2109,28.5 L69.7622,28.5 L68.9985,25.437 L65.7197,25.437 L64.9727,28.5 L62.5239,28.5 Z " fill="#000000"/><text fill="#000000" font-family="sans-serif" font-size="12" font-style="italic" lengthAdjust="spacing" textLength="57" x="81.5" y="27.5352">UIElement</text><!--MD5=[90ba54f54370e77ef24813dec6818fa3]
class Button--><rect codeLine="11" fill="#FEFECE" filter="url(#f1ehp7n6opldft)" height="32" id="Button" style="stroke:#FF0000;stroke-width:1.5;" width="68" x="7" y="191"/><ellipse cx="22" cy="207" fill="#ADD1B2" rx="11" ry="11" style="stroke:#FF0000;stroke-width:1.0;"/><path d="M24.4731,213.1431 Q23.8921,213.4419 23.2529,213.5913 Q22.6138,213.7407 21.9082,213.7407 Q19.4014,213.7407 18.0815,212.0889 Q16.7617,210.437 16.7617,207.3159 Q16.7617,204.1865 18.0815,202.5347 Q19.4014,200.8828 21.9082,200.8828 Q22.6138,200.8828 23.2612,201.0322 Q23.9087,201.1816 24.4731,201.4805 L24.4731,204.2031 Q23.8423,203.6221 23.2488,203.3523 Q22.6553,203.0825 22.0244,203.0825 Q20.6797,203.0825 19.9949,204.1492 Q19.3101,205.2158 19.3101,207.3159 Q19.3101,209.4077 19.9949,210.4744 Q20.6797,211.541 22.0244,211.541 Q22.6553,211.541 23.2488,211.2712 Q23.8423,211.0015 24.4731,210.4204 Z " fill="#000000"/><text fill="#000000" font-family="sans-serif" font-size="12" lengthAdjust="spacing" textLength="36" x="36" y="211.5352">Button</text><!--MD5=[fcea0092393042f826e3b3f0c822b801]
class TextInput--><rect codeLine="14" fill="#FEFECE" filter="url(#f1ehp7n6opldft)" height="32" id="TextInput" style="stroke:#FF0000;stroke-width:1.5;" width="87" x="110.5" y="191"/><ellipse cx="125.5" cy="207" fill="#ADD1B2" rx="11" ry="11" style="stroke:#FF0000;stroke-width:1.0;"/><path d="M127.9731,213.1431 Q127.3921,213.4419 126.7529,213.5913 Q126.1138,213.7407 125.4082,213.7407 Q122.9014,213.7407 121.5815,212.0889 Q120.2617,210.437 120.2617,207.3159 Q120.2617,204.1865 121.5815,202.5347 Q122.9014,200.8828 125.4082,200.8828 Q126.1138,200.8828 126.7612,201.0322 Q127.4087,201.1816 127.9731,201.4805 L127.9731,204.2031 Q127.3423,203.6221 126.7488,203.3523 Q126.1553,203.0825 125.5244,203.0825 Q124.1797,203.0825 123.4949,204.1492 Q122.8101,205.2158 122.8101,207.3159 Q122.8101,209.4077 123.4949,210.4744 Q124.1797,211.541 125.5244,211.541 Q126.1553,211.541 126.7488,211.2712 Q127.3423,211.0015 127.9731,210.4204 Z " fill="#000000"/><text fill="#000000" font-family="sans-serif" font-size="12" lengthAdjust="spacing" textLength="55" x="139.5" y="211.5352">TextInput</text><!--MD5=[797316f0eefbfe1ff2d2a5a8a9b2a433]
reverse link UIElement to Label--><path codeLine="10" d="M97,59.61 C97,73.31 97,88.22 97,98.96 " fill="none" id="UIElement-backto-Label" style="stroke:#FF0000;stroke-width:1.0;"/><polygon fill="none" points="90,59.27,97,39.27,104,59.27,90,59.27" style="stroke:#FF0000;stroke-width:1.0;"/><!--MD5=[b846ab01a60b6cd7dedb4b6bba98bdb5]
reverse link Label to Button--><path codeLine="13" d="M76.67,148.67 C67.67,163.13 57.52,179.44 50.36,190.96 " fill="none" id="Label-backto-Button" style="stroke:#FF0000;stroke-width:1.0;"/><polygon fill="none" points="70.99,144.55,87.5,131.27,82.88,151.95,70.99,144.55" style="stroke:#FF0000;stroke-width:1.0;"/><!--MD5=[c76cb81d8ca0421b9314a47e227d6e62]
reverse link Label to TextInput--><path codeLine="16" d="M117.38,148.18 C126.62,162.77 137.1,179.31 144.47,190.96 " fill="none" id="Label-backto-TextInput" style="stroke:#FF0000;stroke-width:1.0;"/><polygon fill="none" points="111.46,151.91,106.67,131.27,123.28,144.42,111.46,151.91" style="stroke:#FF0000;stroke-width:1.0;"/><!--MD5=[0c79c7e94a737b610c0c611d7d153b00]
@startuml
skinparam ClassArrowColor #ff0000
skinparam ClassBorderColor #ff0000
skinparam BackgroundColor transparent
hide empty methods
hide empty fields
class "Label" {
}
abstract class "UIElement" {
}
"UIElement" <|- - "Label"
class "Button" {
}
"Label" <|- - "Button"
class "TextInput" {
}
"Label" <|- - "TextInput"
@enduml

PlantUML version 1.2021.14(Fri Nov 12 11:46:50 EST 2021)
(GPL source distribution)
Java Runtime: Java(TM) SE Runtime Environment
JVM: Java HotSpot(TM) 64-Bit Server VM
Default Encoding: UTF-8
Language: en
Country: US
--></g></svg>