<?xml version="1.0" encoding="UTF-8" standalone="no"?><svg xmlns="http://www.w3.org/2000/svg" xmlns:xlink="http://www.w3.org/1999/xlink" contentScriptType="application/ecmascript" contentStyleType="text/css" height="145px" preserveAspectRatio="none" style="width:130px;height:145px;background:#00000000;" version="1.1" viewBox="0 0 130 145" width="130px" zoomAndPan="magnify"><defs><filter height="300%" id="f1a1v2gov0ehov" width="300%" x="-1" y="-1"><feGaussianBlur result="blurOut" stdDeviation="2.0"/><feColorMatrix in="blurOut" result="blurOut2" type="matrix" values="0 0 0 0 0 0 0 0 0 0 0 0 0 0 0 0 0 0 .4 0"/><feOffset dx="4.0" dy="4.0" in="blurOut2" result="blurOut3"/><feBlend in="SourceGraphic" in2="blurOut3" mode="normal"/></filter></defs><g><!--MD5=[a97cfd095b0077d714bcddc8cbc855aa]
class Layer--><rect codeLine="6" fill="#FEFECE" filter="url(#f1a1v2gov0ehov)" height="32" id="Layer" style="stroke:#FF0000;stroke-width:1.5;" width="63" x="30" y="7"/><ellipse cx="45" cy="23" fill="#ADD1B2" rx="11" ry="11" style="stroke:#FF0000;stroke-width:1.0;"/><path d="M47.4731,29.1431 Q46.8921,29.4419 46.2529,29.5913 Q45.6138,29.7407 44.9082,29.7407 Q42.4014,29.7407 41.0815,28.0889 Q39.7617,26.437 39.7617,23.3159 Q39.7617,20.1865 41.0815,18.5347 Q42.4014,16.8828 44.9082,16.8828 Q45.6138,16.8828 46.2612,17.0322 Q46.9087,17.1816 47.4731,17.4805 L47.4731,20.2031 Q46.8423,19.6221 46.2488,19.3523 Q45.6553,19.0825 45.0244,19.0825 Q43.6797,19.0825 42.9949,20.1492 Q42.3101,21.2158 42.3101,23.3159 Q42.3101,25.4077 42.9949,26.4744 Q43.6797,27.541 45.0244,27.541 Q45.6553,27.541 46.2488,27.2712 Q46.8423,27.0015 47.4731,26.4204 Z " fill="#000000"/><text fill="#000000" font-family="sans-serif" font-size="12" lengthAdjust="spacing" textLength="31" x="59" y="27.5352">Layer</text><!--MD5=[7e1de7bacf3ccdcae3e76de04b35f0f9]
class ParallaxLayer--><rect codeLine="8" fill="#FEFECE" filter="url(#f1a1v2gov0ehov)" height="32" id="ParallaxLayer" style="stroke:#FF0000;stroke-width:1.5;" width="109" x="7" y="99"/><ellipse cx="22" cy="115" fill="#ADD1B2" rx="11" ry="11" style="stroke:#FF0000;stroke-width:1.0;"/><path d="M24.4731,121.1431 Q23.8921,121.4419 23.2529,121.5913 Q22.6138,121.7407 21.9082,121.7407 Q19.4014,121.7407 18.0815,120.0889 Q16.7617,118.437 16.7617,115.3159 Q16.7617,112.1865 18.0815,110.5347 Q19.4014,108.8828 21.9082,108.8828 Q22.6138,108.8828 23.2612,109.0322 Q23.9087,109.1816 24.4731,109.4805 L24.4731,112.2031 Q23.8423,111.6221 23.2488,111.3523 Q22.6553,111.0825 22.0244,111.0825 Q20.6797,111.0825 19.9949,112.1492 Q19.3101,113.2158 19.3101,115.3159 Q19.3101,117.4077 19.9949,118.4744 Q20.6797,119.541 22.0244,119.541 Q22.6553,119.541 23.2488,119.2712 Q23.8423,119.0015 24.4731,118.4204 Z " fill="#000000"/><text fill="#000000" font-family="sans-serif" font-size="12" lengthAdjust="spacing" textLength="77" x="36" y="119.5352">ParallaxLayer</text><!--MD5=[b1251b0e9e7de1da016d639708863c3d]
reverse link Layer to ParallaxLayer--><path codeLine="10" d="M61.5,59.61 C61.5,73.31 61.5,88.22 61.5,98.96 " fill="none" id="Layer-backto-ParallaxLayer" style="stroke:#FF0000;stroke-width:1.0;"/><polygon fill="none" points="54.5,59.27,61.5,39.27,68.5,59.27,54.5,59.27" style="stroke:#FF0000;stroke-width:1.0;"/><!--MD5=[b317bbf6b11c44142d9b6f95725adc25]
@startuml
skinparam ClassArrowColor #ff0000
skinparam ClassBorderColor #ff0000
skinparam BackgroundColor transparent
hide empty methods
hide empty fields
class "Layer" {
}
class "ParallaxLayer" {
}
"Layer" <|- - "ParallaxLayer"
@enduml

PlantUML version 1.2021.14(Fri Nov 12 11:46:50 EST 2021)
(GPL source distribution)
Java Runtime: Java(TM) SE Runtime Environment
JVM: Java HotSpot(TM) 64-Bit Server VM
Default Encoding: UTF-8
Language: en
Country: US
--></g></svg>