<?xml version="1.0" encoding="UTF-8" standalone="no"?><svg xmlns="http://www.w3.org/2000/svg" xmlns:xlink="http://www.w3.org/1999/xlink" contentScriptType="application/ecmascript" contentStyleType="text/css" height="145px" preserveAspectRatio="none" style="width:98px;height:145px;background:#00000000;" version="1.1" viewBox="0 0 98 145" width="98px" zoomAndPan="magnify"><defs><filter height="300%" id="fjlozxj08npn" width="300%" x="-1" y="-1"><feGaussianBlur result="blurOut" stdDeviation="2.0"/><feColorMatrix in="blurOut" result="blurOut2" type="matrix" values="0 0 0 0 0 0 0 0 0 0 0 0 0 0 0 0 0 0 .4 0"/><feOffset dx="4.0" dy="4.0" in="blurOut2" result="blurOut3"/><feBlend in="SourceGraphic" in2="blurOut3" mode="normal"/></filter></defs><g><!--MD5=[736dfa021baaf4f381c9890dd397bfe9]
class Line--><rect codeLine="6" fill="#FEFECE" filter="url(#fjlozxj08npn)" height="32" id="Line" style="stroke:#FF0000;stroke-width:1.5;" width="55" x="18" y="99"/><ellipse cx="33" cy="115" fill="#ADD1B2" rx="11" ry="11" style="stroke:#FF0000;stroke-width:1.0;"/><path d="M35.4731,121.1431 Q34.8921,121.4419 34.2529,121.5913 Q33.6138,121.7407 32.9082,121.7407 Q30.4014,121.7407 29.0815,120.0889 Q27.7617,118.437 27.7617,115.3159 Q27.7617,112.1865 29.0815,110.5347 Q30.4014,108.8828 32.9082,108.8828 Q33.6138,108.8828 34.2612,109.0322 Q34.9087,109.1816 35.4731,109.4805 L35.4731,112.2031 Q34.8423,111.6221 34.2488,111.3523 Q33.6553,111.0825 33.0244,111.0825 Q31.6797,111.0825 30.9949,112.1492 Q30.3101,113.2158 30.3101,115.3159 Q30.3101,117.4077 30.9949,118.4744 Q31.6797,119.541 33.0244,119.541 Q33.6553,119.541 34.2488,119.2712 Q34.8423,119.0015 35.4731,118.4204 Z " fill="#000000"/><text fill="#000000" font-family="sans-serif" font-size="12" lengthAdjust="spacing" textLength="23" x="47" y="119.5352">Line</text><!--MD5=[7340ddc93ee3d3f5fef34806a115f504]
class Graphic--><rect codeLine="8" fill="#FEFECE" filter="url(#fjlozxj08npn)" height="32" id="Graphic" style="stroke:#FF0000;stroke-width:1.5;" width="77" x="7" y="7"/><ellipse cx="22" cy="23" fill="#A9DCDF" rx="11" ry="11" style="stroke:#FF0000;stroke-width:1.0;"/><path d="M21.8633,18.3481 L20.7095,23.4199 L23.0254,23.4199 Z M20.3691,16.1069 L23.3657,16.1069 L26.7109,28.5 L24.2622,28.5 L23.4985,25.437 L20.2197,25.437 L19.4727,28.5 L17.0239,28.5 Z " fill="#000000"/><text fill="#000000" font-family="sans-serif" font-size="12" font-style="italic" lengthAdjust="spacing" textLength="45" x="36" y="27.5352">Graphic</text><!--MD5=[733bd4e9995550c97bb36fa7d0813cc7]
reverse link Graphic to Line--><path codeLine="10" d="M45.5,59.61 C45.5,73.31 45.5,88.22 45.5,98.96 " fill="none" id="Graphic-backto-Line" style="stroke:#FF0000;stroke-width:1.0;"/><polygon fill="none" points="38.5,59.27,45.5,39.27,52.5,59.27,38.5,59.27" style="stroke:#FF0000;stroke-width:1.0;"/><!--MD5=[f482f640cfae37a5f388e606b268cf6d]
@startuml
skinparam ClassArrowColor #ff0000
skinparam ClassBorderColor #ff0000
skinparam BackgroundColor transparent
hide empty methods
hide empty fields
class "Line" {
}
abstract class "Graphic" {
}
"Graphic" <|- - "Line"
@enduml

PlantUML version 1.2021.14(Fri Nov 12 11:46:50 EST 2021)
(GPL source distribution)
Java Runtime: Java(TM) SE Runtime Environment
JVM: Java HotSpot(TM) 64-Bit Server VM
Default Encoding: UTF-8
Language: en
Country: US
--></g></svg>