<?xml version="1.0" encoding="UTF-8" standalone="no"?><svg xmlns="http://www.w3.org/2000/svg" xmlns:xlink="http://www.w3.org/1999/xlink" contentScriptType="application/ecmascript" contentStyleType="text/css" height="145px" preserveAspectRatio="none" style="width:108px;height:145px;background:#00000000;" version="1.1" viewBox="0 0 108 145" width="108px" zoomAndPan="magnify"><defs><filter height="300%" id="f1e6zwcqh3c7ny" width="300%" x="-1" y="-1"><feGaussianBlur result="blurOut" stdDeviation="2.0"/><feColorMatrix in="blurOut" result="blurOut2" type="matrix" values="0 0 0 0 0 0 0 0 0 0 0 0 0 0 0 0 0 0 .4 0"/><feOffset dx="4.0" dy="4.0" in="blurOut2" result="blurOut3"/><feBlend in="SourceGraphic" in2="blurOut3" mode="normal"/></filter></defs><g><!--MD5=[4dcd53ac5be50d67f3d64d956c655d59]
class List<T>--><rect codeLine="6" fill="#FEFECE" filter="url(#f1e6zwcqh3c7ny)" height="32" id="List&lt;T&gt;" style="stroke:#FF0000;stroke-width:1.5;" width="79" x="11" y="99"/><ellipse cx="26" cy="115" fill="#ADD1B2" rx="11" ry="11" style="stroke:#FF0000;stroke-width:1.0;"/><path d="M28.4731,121.1431 Q27.8921,121.4419 27.2529,121.5913 Q26.6138,121.7407 25.9082,121.7407 Q23.4014,121.7407 22.0815,120.0889 Q20.7617,118.437 20.7617,115.3159 Q20.7617,112.1865 22.0815,110.5347 Q23.4014,108.8828 25.9082,108.8828 Q26.6138,108.8828 27.2612,109.0322 Q27.9087,109.1816 28.4731,109.4805 L28.4731,112.2031 Q27.8423,111.6221 27.2488,111.3523 Q26.6553,111.0825 26.0244,111.0825 Q24.6797,111.0825 23.9949,112.1492 Q23.3101,113.2158 23.3101,115.3159 Q23.3101,117.4077 23.9949,118.4744 Q24.6797,119.541 26.0244,119.541 Q26.6553,119.541 27.2488,119.2712 Q27.8423,119.0015 28.4731,118.4204 Z " fill="#000000"/><text fill="#000000" font-family="sans-serif" font-size="12" lengthAdjust="spacing" textLength="47" x="40" y="119.5352">List&lt;T&gt;</text><!--MD5=[c160724f8e3bb89ca8141a12554ac2e3]
class Collection--><rect codeLine="8" fill="#FEFECE" filter="url(#f1e6zwcqh3c7ny)" height="32" id="Collection" style="stroke:#FF0000;stroke-width:1.5;" width="87" x="7" y="7"/><ellipse cx="22" cy="23" fill="#B4A7E5" rx="11" ry="11" style="stroke:#FF0000;stroke-width:1.0;"/><path d="M18.4277,19.2651 L18.4277,17.1069 L25.8071,17.1069 L25.8071,19.2651 L23.3418,19.2651 L23.3418,27.3418 L25.8071,27.3418 L25.8071,29.5 L18.4277,29.5 L18.4277,27.3418 L20.8931,27.3418 L20.8931,19.2651 Z " fill="#000000"/><text fill="#000000" font-family="sans-serif" font-size="12" font-style="italic" lengthAdjust="spacing" textLength="55" x="36" y="27.5352">Collection</text><!--MD5=[4eb1729ebd56ae2608f414e26e76dc86]
reverse link Collection to List<T>--><path codeLine="10" d="M50.5,59.61 C50.5,73.31 50.5,88.22 50.5,98.96 " fill="none" id="Collection-backto-List&lt;T&gt;" style="stroke:#FF0000;stroke-width:1.0;stroke-dasharray:7.0,7.0;"/><polygon fill="none" points="43.5,59.27,50.5,39.27,57.5,59.27,43.5,59.27" style="stroke:#FF0000;stroke-width:1.0;"/><!--MD5=[6b278f6c96b9d36e412334756a67b243]
@startuml
skinparam ClassArrowColor #ff0000
skinparam ClassBorderColor #ff0000
skinparam BackgroundColor transparent
hide empty methods
hide empty fields
class "List<T>" {
}
interface "Collection" {
}
"Collection" <|.. "List<T>"
@enduml

PlantUML version 1.2021.14(Fri Nov 12 11:46:50 EST 2021)
(GPL source distribution)
Java Runtime: Java(TM) SE Runtime Environment
JVM: Java HotSpot(TM) 64-Bit Server VM
Default Encoding: UTF-8
Language: en
Country: US
--></g></svg>