<?xml version="1.0" encoding="UTF-8" standalone="no"?><svg xmlns="http://www.w3.org/2000/svg" xmlns:xlink="http://www.w3.org/1999/xlink" contentScriptType="application/ecmascript" contentStyleType="text/css" height="272px" preserveAspectRatio="none" style="width:205px;height:272px;background:#00000000;" version="1.1" viewBox="0 0 205 272" width="205px" zoomAndPan="magnify"><defs><filter height="300%" id="f15faq6zza3hz2" width="300%" x="-1" y="-1"><feGaussianBlur result="blurOut" stdDeviation="2.0"/><feColorMatrix in="blurOut" result="blurOut2" type="matrix" values="0 0 0 0 0 0 0 0 0 0 0 0 0 0 0 0 0 0 .4 0"/><feOffset dx="4.0" dy="4.0" in="blurOut2" result="blurOut3"/><feBlend in="SourceGraphic" in2="blurOut3" mode="normal"/></filter></defs><g><!--MD5=[4dcd53ac5be50d67f3d64d956c655d59]
class List<T>--><rect codeLine="6" fill="#FEFECE" filter="url(#f15faq6zza3hz2)" height="125.7305" id="List&lt;T&gt;" style="stroke:#FF0000;stroke-width:1.5;" width="184" x="7" y="133"/><ellipse cx="71.25" cy="149" fill="#ADD1B2" rx="11" ry="11" style="stroke:#FF0000;stroke-width:1.0;"/><path d="M73.7231,155.1431 Q73.1421,155.4419 72.5029,155.5913 Q71.8638,155.7407 71.1582,155.7407 Q68.6514,155.7407 67.3315,154.0889 Q66.0117,152.437 66.0117,149.3159 Q66.0117,146.1865 67.3315,144.5347 Q68.6514,142.8828 71.1582,142.8828 Q71.8638,142.8828 72.5112,143.0322 Q73.1587,143.1816 73.7231,143.4805 L73.7231,146.2031 Q73.0923,145.6221 72.4988,145.3523 Q71.9053,145.0825 71.2744,145.0825 Q69.9297,145.0825 69.2449,146.1492 Q68.5601,147.2158 68.5601,149.3159 Q68.5601,151.4077 69.2449,152.4744 Q69.9297,153.541 71.2744,153.541 Q71.9053,153.541 72.4988,153.2712 Q73.0923,153.0015 73.7231,152.4204 Z " fill="#000000"/><text fill="#000000" font-family="sans-serif" font-size="12" lengthAdjust="spacing" textLength="47" x="91.75" y="153.5352">List&lt;T&gt;</text><line style="stroke:#FF0000;stroke-width:1.5;" x1="8" x2="190" y1="165" y2="165"/><rect fill="none" height="6" style="stroke:#C82930;stroke-width:1.0;" width="6" x="15" y="173"/><text fill="#000000" font-family="sans-serif" font-size="11" lengthAdjust="spacing" textLength="102" x="27" y="179.6348">head : ListItem&lt;T&gt;</text><rect fill="none" height="6" style="stroke:#C82930;stroke-width:1.0;" width="6" x="15" y="185.9551"/><text fill="#000000" font-family="sans-serif" font-size="11" lengthAdjust="spacing" textLength="92" x="27" y="192.5898">tail : ListItem&lt;T&gt;</text><rect fill="none" height="6" style="stroke:#C82930;stroke-width:1.0;" width="6" x="15" y="198.9102"/><text fill="#000000" font-family="sans-serif" font-size="11" lengthAdjust="spacing" textLength="78" x="27" y="205.5449">_size : number</text><line style="stroke:#FF0000;stroke-width:1.5;" x1="8" x2="190" y1="211.8652" y2="211.8652"/><ellipse cx="18" cy="222.8652" fill="#84BE84" rx="3" ry="3" style="stroke:#038048;stroke-width:1.0;"/><text fill="#000000" font-family="sans-serif" font-size="11" lengthAdjust="spacing" textLength="101" x="27" y="226.5">add(value: T) : void</text><ellipse cx="18" cy="235.8203" fill="#84BE84" rx="3" ry="3" style="stroke:#038048;stroke-width:1.0;"/><text fill="#000000" font-family="sans-serif" font-size="11" lengthAdjust="spacing" textLength="66" x="27" y="239.4551">clear() : void</text><ellipse cx="18" cy="248.7754" fill="#84BE84" rx="3" ry="3" style="stroke:#038048;stroke-width:1.0;"/><text fill="#000000" font-family="sans-serif" font-size="11" lengthAdjust="spacing" textLength="158" x="27" y="252.4102">forEach(func: Function) : void</text><!--MD5=[c160724f8e3bb89ca8141a12554ac2e3]
class Collection--><rect codeLine="14" fill="#FEFECE" filter="url(#f15faq6zza3hz2)" height="65.9102" id="Collection" style="stroke:#FF0000;stroke-width:1.5;" width="184" x="7" y="7"/><ellipse cx="67.25" cy="23" fill="#B4A7E5" rx="11" ry="11" style="stroke:#FF0000;stroke-width:1.0;"/><path d="M63.6777,19.2651 L63.6777,17.1069 L71.0571,17.1069 L71.0571,19.2651 L68.5918,19.2651 L68.5918,27.3418 L71.0571,27.3418 L71.0571,29.5 L63.6777,29.5 L63.6777,27.3418 L66.1431,27.3418 L66.1431,19.2651 Z " fill="#000000"/><text fill="#000000" font-family="sans-serif" font-size="12" font-style="italic" lengthAdjust="spacing" textLength="55" x="87.75" y="27.5352">Collection</text><line style="stroke:#FF0000;stroke-width:1.5;" x1="8" x2="190" y1="39" y2="39"/><ellipse cx="18" cy="50" fill="#84BE84" rx="3" ry="3" style="stroke:#038048;stroke-width:1.0;"/><text fill="#000000" font-family="sans-serif" font-size="11" lengthAdjust="spacing" textLength="66" x="27" y="53.6348">clear() : void</text><ellipse cx="18" cy="62.9551" fill="#84BE84" rx="3" ry="3" style="stroke:#038048;stroke-width:1.0;"/><text fill="#000000" font-family="sans-serif" font-size="11" lengthAdjust="spacing" textLength="158" x="27" y="66.5898">forEach(func: Function) : void</text><!--MD5=[4eb1729ebd56ae2608f414e26e76dc86]
reverse link Collection to List<T>--><path codeLine="18" d="M99,93.42 C99,106.11 99,119.8 99,132.89 " fill="none" id="Collection-backto-List&lt;T&gt;" style="stroke:#FF0000;stroke-width:1.0;stroke-dasharray:7.0,7.0;"/><polygon fill="none" points="92,93.28,99,73.28,106,93.28,92,93.28" style="stroke:#FF0000;stroke-width:1.0;"/><!--MD5=[2db31bfeedff492570adb4f50387bddd]
@startuml
skinparam ClassArrowColor #ff0000
skinparam ClassBorderColor #ff0000
skinparam BackgroundColor transparent
hide empty methods
hide empty fields
class "List<T>" {
    -head : ListItem<T>
    -tail : ListItem<T>
    -_size : number
    +add(value: T) : void
    +clear() : void
    +forEach(func: Function) : void
}
interface "Collection" {
    +clear() : void
    +forEach(func: Function) : void
}
"Collection" <|.. "List<T>"
@enduml

PlantUML version 1.2021.14(Fri Nov 12 11:46:50 EST 2021)
(GPL source distribution)
Java Runtime: Java(TM) SE Runtime Environment
JVM: Java HotSpot(TM) 64-Bit Server VM
Default Encoding: UTF-8
Language: en
Country: US
--></g></svg>