<?xml version="1.0" encoding="UTF-8" standalone="no"?><svg xmlns="http://www.w3.org/2000/svg" xmlns:xlink="http://www.w3.org/1999/xlink" contentScriptType="application/ecmascript" contentStyleType="text/css" height="237px" preserveAspectRatio="none" style="width:127px;height:237px;background:#00000000;" version="1.1" viewBox="0 0 127 237" width="127px" zoomAndPan="magnify"><defs><filter height="300%" id="f1aktq69arawv9" width="300%" x="-1" y="-1"><feGaussianBlur result="blurOut" stdDeviation="2.0"/><feColorMatrix in="blurOut" result="blurOut2" type="matrix" values="0 0 0 0 0 0 0 0 0 0 0 0 0 0 0 0 0 0 .4 0"/><feOffset dx="4.0" dy="4.0" in="blurOut2" result="blurOut3"/><feBlend in="SourceGraphic" in2="blurOut3" mode="normal"/></filter></defs><g><!--MD5=[8e786d5ad0a1f26ce02b3732d670e3a1]
class Map<T>--><rect codeLine="6" fill="#FEFECE" filter="url(#f1aktq69arawv9)" height="32" id="Map&lt;T&gt;" style="stroke:#FF0000;stroke-width:1.5;" width="85" x="17.5" y="99"/><ellipse cx="32.5" cy="115" fill="#ADD1B2" rx="11" ry="11" style="stroke:#FF0000;stroke-width:1.0;"/><path d="M34.9731,121.1431 Q34.3921,121.4419 33.7529,121.5913 Q33.1138,121.7407 32.4082,121.7407 Q29.9014,121.7407 28.5815,120.0889 Q27.2617,118.437 27.2617,115.3159 Q27.2617,112.1865 28.5815,110.5347 Q29.9014,108.8828 32.4082,108.8828 Q33.1138,108.8828 33.7612,109.0322 Q34.4087,109.1816 34.9731,109.4805 L34.9731,112.2031 Q34.3423,111.6221 33.7488,111.3523 Q33.1553,111.0825 32.5244,111.0825 Q31.1797,111.0825 30.4949,112.1492 Q29.8101,113.2158 29.8101,115.3159 Q29.8101,117.4077 30.4949,118.4744 Q31.1797,119.541 32.5244,119.541 Q33.1553,119.541 33.7488,119.2712 Q34.3423,119.0015 34.9731,118.4204 Z " fill="#000000"/><text fill="#000000" font-family="sans-serif" font-size="12" lengthAdjust="spacing" textLength="53" x="46.5" y="119.5352">Map&lt;T&gt;</text><!--MD5=[c160724f8e3bb89ca8141a12554ac2e3]
class Collection--><rect codeLine="8" fill="#FEFECE" filter="url(#f1aktq69arawv9)" height="32" id="Collection" style="stroke:#FF0000;stroke-width:1.5;" width="87" x="16.5" y="7"/><ellipse cx="31.5" cy="23" fill="#B4A7E5" rx="11" ry="11" style="stroke:#FF0000;stroke-width:1.0;"/><path d="M27.9277,19.2651 L27.9277,17.1069 L35.3071,17.1069 L35.3071,19.2651 L32.8418,19.2651 L32.8418,27.3418 L35.3071,27.3418 L35.3071,29.5 L27.9277,29.5 L27.9277,27.3418 L30.3931,27.3418 L30.3931,19.2651 Z " fill="#000000"/><text fill="#000000" font-family="sans-serif" font-size="12" font-style="italic" lengthAdjust="spacing" textLength="55" x="45.5" y="27.5352">Collection</text><!--MD5=[3abbef31bc9427b4087bd9c2520646fd]
class Registry<T>--><rect codeLine="11" fill="#FEFECE" filter="url(#f1aktq69arawv9)" height="32" id="Registry&lt;T&gt;" style="stroke:#FF0000;stroke-width:1.5;" width="106" x="7" y="191"/><ellipse cx="22" cy="207" fill="#A9DCDF" rx="11" ry="11" style="stroke:#FF0000;stroke-width:1.0;"/><path d="M21.8633,202.3481 L20.7095,207.4199 L23.0254,207.4199 Z M20.3691,200.1069 L23.3657,200.1069 L26.7109,212.5 L24.2622,212.5 L23.4985,209.437 L20.2197,209.437 L19.4727,212.5 L17.0239,212.5 Z " fill="#000000"/><text fill="#000000" font-family="sans-serif" font-size="12" font-style="italic" lengthAdjust="spacing" textLength="74" x="36" y="211.5352">Registry&lt;T&gt;</text><!--MD5=[ddff44a63bd43d18e710a8badc48b93c]
reverse link Collection to Map<T>--><path codeLine="10" d="M60,59.61 C60,73.31 60,88.22 60,98.96 " fill="none" id="Collection-backto-Map&lt;T&gt;" style="stroke:#FF0000;stroke-width:1.0;stroke-dasharray:7.0,7.0;"/><polygon fill="none" points="53,59.27,60,39.27,67,59.27,53,59.27" style="stroke:#FF0000;stroke-width:1.0;"/><!--MD5=[3f1db7996de34e34ad53c7b52ff3c2fd]
reverse link Map<T> to Registry<T>--><path codeLine="13" d="M60,151.61 C60,165.31 60,180.22 60,190.96 " fill="none" id="Map&lt;T&gt;-backto-Registry&lt;T&gt;" style="stroke:#FF0000;stroke-width:1.0;"/><polygon fill="none" points="53,151.27,60,131.27,67,151.27,53,151.27" style="stroke:#FF0000;stroke-width:1.0;"/><!--MD5=[82b42342d753f28d496753b0702ec179]
@startuml
skinparam ClassArrowColor #ff0000
skinparam ClassBorderColor #ff0000
skinparam BackgroundColor transparent
hide empty methods
hide empty fields
class "Map<T>" {
}
interface "Collection" {
}
"Collection" <|.. "Map<T>"
abstract class "Registry<T>" {
}
"Map<T>" <|- - "Registry<T>"
@enduml

PlantUML version 1.2021.14(Fri Nov 12 11:46:50 EST 2021)
(GPL source distribution)
Java Runtime: Java(TM) SE Runtime Environment
JVM: Java HotSpot(TM) 64-Bit Server VM
Default Encoding: UTF-8
Language: en
Country: US
--></g></svg>