<?xml version="1.0" encoding="UTF-8" standalone="no"?><svg xmlns="http://www.w3.org/2000/svg" xmlns:xlink="http://www.w3.org/1999/xlink" contentScriptType="application/ecmascript" contentStyleType="text/css" height="580px" preserveAspectRatio="none" style="width:325px;height:580px;background:#00000000;" version="1.1" viewBox="0 0 325 580" width="325px" zoomAndPan="magnify"><defs><filter height="300%" id="f1nkmay7x54576" width="300%" x="-1" y="-1"><feGaussianBlur result="blurOut" stdDeviation="2.0"/><feColorMatrix in="blurOut" result="blurOut2" type="matrix" values="0 0 0 0 0 0 0 0 0 0 0 0 0 0 0 0 0 0 .4 0"/><feOffset dx="4.0" dy="4.0" in="blurOut2" result="blurOut3"/><feBlend in="SourceGraphic" in2="blurOut3" mode="normal"/></filter></defs><g><!--MD5=[8e786d5ad0a1f26ce02b3732d670e3a1]
class Map<T>--><rect codeLine="6" fill="#FEFECE" filter="url(#f1nkmay7x54576)" height="177.5508" id="Map&lt;T&gt;" style="stroke:#FF0000;stroke-width:1.5;" width="189" x="64.5" y="133"/><ellipse cx="128.25" cy="149" fill="#ADD1B2" rx="11" ry="11" style="stroke:#FF0000;stroke-width:1.0;"/><path d="M130.7231,155.1431 Q130.1421,155.4419 129.5029,155.5913 Q128.8638,155.7407 128.1582,155.7407 Q125.6514,155.7407 124.3315,154.0889 Q123.0117,152.437 123.0117,149.3159 Q123.0117,146.1865 124.3315,144.5347 Q125.6514,142.8828 128.1582,142.8828 Q128.8638,142.8828 129.5112,143.0322 Q130.1587,143.1816 130.7231,143.4805 L130.7231,146.2031 Q130.0923,145.6221 129.4988,145.3523 Q128.9053,145.0825 128.2744,145.0825 Q126.9297,145.0825 126.2449,146.1492 Q125.5601,147.2158 125.5601,149.3159 Q125.5601,151.4077 126.2449,152.4744 Q126.9297,153.541 128.2744,153.541 Q128.9053,153.541 129.4988,153.2712 Q130.0923,153.0015 130.7231,152.4204 Z " fill="#000000"/><text fill="#000000" font-family="sans-serif" font-size="12" lengthAdjust="spacing" textLength="53" x="148.75" y="153.5352">Map&lt;T&gt;</text><line style="stroke:#FF0000;stroke-width:1.5;" x1="65.5" x2="252.5" y1="165" y2="165"/><rect fill="none" height="6" style="stroke:#C82930;stroke-width:1.0;" width="6" x="72.5" y="173"/><text fill="#000000" font-family="sans-serif" font-size="11" lengthAdjust="spacing" textLength="133" x="84.5" y="179.6348">map : Record&lt;string, T&gt;</text><line style="stroke:#FF0000;stroke-width:1.5;" x1="65.5" x2="252.5" y1="185.9551" y2="185.9551"/><ellipse cx="75.5" cy="196.9551" fill="#84BE84" rx="3" ry="3" style="stroke:#038048;stroke-width:1.0;"/><text fill="#000000" font-family="sans-serif" font-size="11" lengthAdjust="spacing" textLength="163" x="84.5" y="200.5898">add(key: string, value: T) : void</text><ellipse cx="75.5" cy="209.9102" fill="#84BE84" rx="3" ry="3" style="stroke:#038048;stroke-width:1.0;"/><text fill="#000000" font-family="sans-serif" font-size="11" lengthAdjust="spacing" textLength="66" x="84.5" y="213.5449">clear() : void</text><ellipse cx="75.5" cy="222.8652" fill="#84BE84" rx="3" ry="3" style="stroke:#038048;stroke-width:1.0;"/><text fill="#000000" font-family="sans-serif" font-size="11" lengthAdjust="spacing" textLength="128" x="84.5" y="226.5">delete(key: string) : void</text><ellipse cx="75.5" cy="235.8203" fill="#84BE84" rx="3" ry="3" style="stroke:#038048;stroke-width:1.0;"/><text fill="#000000" font-family="sans-serif" font-size="11" lengthAdjust="spacing" textLength="158" x="84.5" y="239.4551">forEach(func: Function) : void</text><ellipse cx="75.5" cy="248.7754" fill="#84BE84" rx="3" ry="3" style="stroke:#038048;stroke-width:1.0;"/><text fill="#000000" font-family="sans-serif" font-size="11" lengthAdjust="spacing" textLength="97" x="84.5" y="252.4102">get(key: string) : T</text><ellipse cx="75.5" cy="261.7305" fill="#84BE84" rx="3" ry="3" style="stroke:#038048;stroke-width:1.0;"/><text fill="#000000" font-family="sans-serif" font-size="11" lengthAdjust="spacing" textLength="135" x="84.5" y="265.3652">has(key: string) : boolean</text><ellipse cx="75.5" cy="274.6855" fill="#84BE84" rx="3" ry="3" style="stroke:#038048;stroke-width:1.0;"/><text fill="#000000" font-family="sans-serif" font-size="11" lengthAdjust="spacing" textLength="81" x="84.5" y="278.3203">keys() : string[]</text><ellipse cx="75.5" cy="287.6406" fill="#84BE84" rx="3" ry="3" style="stroke:#038048;stroke-width:1.0;"/><text fill="#000000" font-family="sans-serif" font-size="11" lengthAdjust="spacing" textLength="159" x="84.5" y="291.2754">set(key: string, value: T) : void</text><ellipse cx="75.5" cy="300.5957" fill="#84BE84" rx="3" ry="3" style="stroke:#038048;stroke-width:1.0;"/><text fill="#000000" font-family="sans-serif" font-size="11" lengthAdjust="spacing" textLength="92" x="84.5" y="304.2305">toString() : string</text><!--MD5=[c160724f8e3bb89ca8141a12554ac2e3]
class Collection--><rect codeLine="18" fill="#FEFECE" filter="url(#f1nkmay7x54576)" height="65.9102" id="Collection" style="stroke:#FF0000;stroke-width:1.5;" width="184" x="67" y="7"/><ellipse cx="127.25" cy="23" fill="#B4A7E5" rx="11" ry="11" style="stroke:#FF0000;stroke-width:1.0;"/><path d="M123.6777,19.2651 L123.6777,17.1069 L131.0571,17.1069 L131.0571,19.2651 L128.5918,19.2651 L128.5918,27.3418 L131.0571,27.3418 L131.0571,29.5 L123.6777,29.5 L123.6777,27.3418 L126.1431,27.3418 L126.1431,19.2651 Z " fill="#000000"/><text fill="#000000" font-family="sans-serif" font-size="12" font-style="italic" lengthAdjust="spacing" textLength="55" x="147.75" y="27.5352">Collection</text><line style="stroke:#FF0000;stroke-width:1.5;" x1="68" x2="250" y1="39" y2="39"/><ellipse cx="78" cy="50" fill="#84BE84" rx="3" ry="3" style="stroke:#038048;stroke-width:1.0;"/><text fill="#000000" font-family="sans-serif" font-size="11" lengthAdjust="spacing" textLength="66" x="87" y="53.6348">clear() : void</text><ellipse cx="78" cy="62.9551" fill="#84BE84" rx="3" ry="3" style="stroke:#038048;stroke-width:1.0;"/><text fill="#000000" font-family="sans-serif" font-size="11" lengthAdjust="spacing" textLength="158" x="87" y="66.5898">forEach(func: Function) : void</text><!--MD5=[3abbef31bc9427b4087bd9c2520646fd]
class Registry<T>--><rect codeLine="23" fill="#FEFECE" filter="url(#f1nkmay7x54576)" height="195.4609" id="Registry&lt;T&gt;" style="stroke:#FF0000;stroke-width:1.5;" width="304" x="7" y="371"/><ellipse cx="117.75" cy="387" fill="#A9DCDF" rx="11" ry="11" style="stroke:#FF0000;stroke-width:1.0;"/><path d="M117.6133,382.3481 L116.4595,387.4199 L118.7754,387.4199 Z M116.1191,380.1069 L119.1157,380.1069 L122.4609,392.5 L120.0122,392.5 L119.2485,389.437 L115.9697,389.437 L115.2227,392.5 L112.7739,392.5 Z " fill="#000000"/><text fill="#000000" font-family="sans-serif" font-size="12" font-style="italic" lengthAdjust="spacing" textLength="74" x="138.25" y="391.5352">Registry&lt;T&gt;</text><line style="stroke:#FF0000;stroke-width:1.5;" x1="8" x2="310" y1="403" y2="403"/><ellipse cx="18" cy="414" fill="#84BE84" rx="3" ry="3" style="stroke:#038048;stroke-width:1.0;"/><text fill="#000000" font-family="sans-serif" font-size="11" lengthAdjust="spacing" textLength="163" x="27" y="417.6348">add(key: string, value: T) : void</text><ellipse cx="18" cy="426.9551" fill="#84BE84" rx="3" ry="3" style="stroke:#038048;stroke-width:1.0;"/><text fill="#000000" font-family="sans-serif" font-size="11" lengthAdjust="spacing" textLength="66" x="27" y="430.5898">clear() : void</text><ellipse cx="18" cy="439.9102" fill="#84BE84" rx="3" ry="3" style="stroke:#038048;stroke-width:1.0;"/><text fill="#000000" font-family="sans-serif" font-size="11" lengthAdjust="spacing" textLength="128" x="27" y="443.5449">delete(key: string) : void</text><ellipse cx="18" cy="452.8652" fill="#84BE84" rx="3" ry="3" style="stroke:#038048;stroke-width:1.0;"/><text fill="#000000" font-family="sans-serif" font-size="11" lengthAdjust="spacing" textLength="158" x="27" y="456.5">forEach(func: Function) : void</text><ellipse cx="18" cy="465.8203" fill="#84BE84" rx="3" ry="3" style="stroke:#038048;stroke-width:1.0;"/><text fill="#000000" font-family="sans-serif" font-size="11" lengthAdjust="spacing" textLength="97" x="27" y="469.4551">get(key: string) : T</text><ellipse cx="18" cy="478.7754" fill="#84BE84" rx="3" ry="3" style="stroke:#038048;stroke-width:1.0;"/><text fill="#000000" font-family="sans-serif" font-size="11" lengthAdjust="spacing" textLength="135" x="27" y="482.4102">has(key: string) : boolean</text><ellipse cx="18" cy="491.7305" fill="#84BE84" rx="3" ry="3" style="stroke:#038048;stroke-width:1.0;"/><text fill="#000000" font-family="sans-serif" font-size="11" lengthAdjust="spacing" textLength="81" x="27" y="495.3652">keys() : string[]</text><ellipse cx="18" cy="504.6855" fill="#84BE84" rx="3" ry="3" style="stroke:#038048;stroke-width:1.0;"/><text fill="#000000" font-family="sans-serif" font-size="11" font-style="italic" lengthAdjust="spacing" textLength="81" x="27" y="508.3203">preload() : void</text><ellipse cx="18" cy="517.6406" fill="#84BE84" rx="3" ry="3" style="stroke:#038048;stroke-width:1.0;"/><text fill="#000000" font-family="sans-serif" font-size="11" font-style="italic" lengthAdjust="spacing" textLength="278" x="27" y="521.2754">registerAndPreloadItem(key: string, args: any) : void</text><ellipse cx="18" cy="530.5957" fill="#84BE84" rx="3" ry="3" style="stroke:#038048;stroke-width:1.0;"/><text fill="#000000" font-family="sans-serif" font-size="11" font-style="italic" lengthAdjust="spacing" textLength="216" x="27" y="534.2305">registerItem(key: string, args: any) : void</text><ellipse cx="18" cy="543.5508" fill="#84BE84" rx="3" ry="3" style="stroke:#038048;stroke-width:1.0;"/><text fill="#000000" font-family="sans-serif" font-size="11" lengthAdjust="spacing" textLength="159" x="27" y="547.1855">set(key: string, value: T) : void</text><ellipse cx="18" cy="556.5059" fill="#84BE84" rx="3" ry="3" style="stroke:#038048;stroke-width:1.0;"/><text fill="#000000" font-family="sans-serif" font-size="11" lengthAdjust="spacing" textLength="92" x="27" y="560.1406">toString() : string</text><!--MD5=[ddff44a63bd43d18e710a8badc48b93c]
reverse link Collection to Map<T>--><path codeLine="22" d="M159,93.32 C159,105.69 159,119.23 159,132.72 " fill="none" id="Collection-backto-Map&lt;T&gt;" style="stroke:#FF0000;stroke-width:1.0;stroke-dasharray:7.0,7.0;"/><polygon fill="none" points="152,93.18,159,73.18,166,93.18,152,93.18" style="stroke:#FF0000;stroke-width:1.0;"/><!--MD5=[3f1db7996de34e34ad53c7b52ff3c2fd]
reverse link Map<T> to Registry<T>--><path codeLine="37" d="M159,331.51 C159,344.55 159,357.81 159,370.67 " fill="none" id="Map&lt;T&gt;-backto-Registry&lt;T&gt;" style="stroke:#FF0000;stroke-width:1.0;"/><polygon fill="none" points="152,331.27,159,311.27,166,331.27,152,331.27" style="stroke:#FF0000;stroke-width:1.0;"/><!--MD5=[f5957237e92560c037c0d40939ab694d]
@startuml
skinparam ClassArrowColor #ff0000
skinparam ClassBorderColor #ff0000
skinparam BackgroundColor transparent
hide empty methods
hide empty fields
class "Map<T>" {
    -map : Record<string, T>
    +add(key: string, value: T) : void
    +clear() : void
    +delete(key: string) : void
    +forEach(func: Function) : void
    +get(key: string) : T
    +has(key: string) : boolean
    +keys() : string[]
    +set(key: string, value: T) : void
    +toString() : string
}
interface "Collection" {
    +clear() : void
    +forEach(func: Function) : void
}
"Collection" <|.. "Map<T>"
abstract class "Registry<T>" {
    +add(key: string, value: T) : void
    +clear() : void
    +delete(key: string) : void
    +forEach(func: Function) : void
    +get(key: string) : T
    +has(key: string) : boolean
    +keys() : string[]
    {abstract} +preload() : void
    {abstract} +registerAndPreloadItem(key: string, args: any) : void
    {abstract} +registerItem(key: string, args: any) : void
    +set(key: string, value: T) : void
    +toString() : string
}
"Map<T>" <|- - "Registry<T>"
@enduml

PlantUML version 1.2021.14(Fri Nov 12 11:46:50 EST 2021)
(GPL source distribution)
Java Runtime: Java(TM) SE Runtime Environment
JVM: Java HotSpot(TM) 64-Bit Server VM
Default Encoding: UTF-8
Language: en
Country: US
--></g></svg>