<?xml version="1.0" encoding="UTF-8" standalone="no"?><svg xmlns="http://www.w3.org/2000/svg" xmlns:xlink="http://www.w3.org/1999/xlink" contentScriptType="application/ecmascript" contentStyleType="text/css" height="1243px" preserveAspectRatio="none" style="width:253px;height:1243px;background:#00000000;" version="1.1" viewBox="0 0 253 1243" width="253px" zoomAndPan="magnify"><defs><filter height="300%" id="f1tiysky69gcaf" width="300%" x="-1" y="-1"><feGaussianBlur result="blurOut" stdDeviation="2.0"/><feColorMatrix in="blurOut" result="blurOut2" type="matrix" values="0 0 0 0 0 0 0 0 0 0 0 0 0 0 0 0 0 0 .4 0"/><feOffset dx="4.0" dy="4.0" in="blurOut2" result="blurOut3"/><feBlend in="SourceGraphic" in2="blurOut3" mode="normal"/></filter></defs><g><!--MD5=[7e1de7bacf3ccdcae3e76de04b35f0f9]
class ParallaxLayer--><rect codeLine="6" fill="#FEFECE" filter="url(#f1tiysky69gcaf)" height="371.877" id="ParallaxLayer" style="stroke:#FF0000;stroke-width:1.5;" width="230" x="9" y="426"/><ellipse cx="81.25" cy="442" fill="#ADD1B2" rx="11" ry="11" style="stroke:#FF0000;stroke-width:1.0;"/><path d="M83.7231,448.1431 Q83.1421,448.4419 82.5029,448.5913 Q81.8638,448.7407 81.1582,448.7407 Q78.6514,448.7407 77.3315,447.0889 Q76.0117,445.437 76.0117,442.3159 Q76.0117,439.1865 77.3315,437.5347 Q78.6514,435.8828 81.1582,435.8828 Q81.8638,435.8828 82.5112,436.0322 Q83.1587,436.1816 83.7231,436.4805 L83.7231,439.2031 Q83.0923,438.6221 82.4988,438.3523 Q81.9053,438.0825 81.2744,438.0825 Q79.9297,438.0825 79.2449,439.1492 Q78.5601,440.2158 78.5601,442.3159 Q78.5601,444.4077 79.2449,445.4744 Q79.9297,446.541 81.2744,446.541 Q81.9053,446.541 82.4988,446.2712 Q83.0923,446.0015 83.7231,445.4204 Z " fill="#000000"/><text fill="#000000" font-family="sans-serif" font-size="12" lengthAdjust="spacing" textLength="77" x="101.75" y="446.5352">ParallaxLayer</text><line style="stroke:#FF0000;stroke-width:1.5;" x1="10" x2="238" y1="458" y2="458"/><ellipse cx="20" cy="469" rx="3" ry="3" style="stroke:#038048;stroke-width:1.0;fill:none;"/><text fill="#000000" font-family="sans-serif" font-size="11" lengthAdjust="spacing" textLength="78" x="29" y="472.6348">parallax : Vec2</text><polygon fill="none" points="20,476.9551,24,480.9551,20,484.9551,16,480.9551" style="stroke:#B38D22;stroke-width:1.0;"/><text fill="#000000" font-family="sans-serif" font-size="11" lengthAdjust="spacing" textLength="80" x="29" y="485.5898">alpha : number</text><polygon fill="none" points="20,489.9102,24,493.9102,20,497.9102,16,493.9102" style="stroke:#B38D22;stroke-width:1.0;"/><text fill="#000000" font-family="sans-serif" font-size="11" lengthAdjust="spacing" textLength="82" x="29" y="498.5449">depth : number</text><polygon fill="none" points="20,502.8652,24,506.8652,20,510.8652,16,506.8652" style="stroke:#B38D22;stroke-width:1.0;"/><text fill="#000000" font-family="sans-serif" font-size="11" lengthAdjust="spacing" textLength="89" x="29" y="511.5">hidden : boolean</text><polygon fill="none" points="20,515.8203,24,519.8203,20,523.8203,16,519.8203" style="stroke:#B38D22;stroke-width:1.0;"/><text fill="#000000" font-family="sans-serif" font-size="11" lengthAdjust="spacing" textLength="104" x="29" y="524.4551">items : GameNode[]</text><polygon fill="none" points="20,528.7754,24,532.7754,20,536.7754,16,532.7754" style="stroke:#B38D22;stroke-width:1.0;"/><text fill="#000000" font-family="sans-serif" font-size="11" lengthAdjust="spacing" textLength="70" x="29" y="537.4102">name : string</text><polygon fill="none" points="20,541.7305,24,545.7305,20,549.7305,16,545.7305" style="stroke:#B38D22;stroke-width:1.0;"/><text fill="#000000" font-family="sans-serif" font-size="11" lengthAdjust="spacing" textLength="91" x="29" y="550.3652">paused : boolean</text><polygon fill="none" points="20,554.6855,24,558.6855,20,562.6855,16,558.6855" style="stroke:#B38D22;stroke-width:1.0;"/><text fill="#000000" font-family="sans-serif" font-size="11" lengthAdjust="spacing" textLength="71" x="29" y="563.3203">scene : Scene</text><polygon fill="none" points="20,567.6406,24,571.6406,20,575.6406,16,571.6406" style="stroke:#B38D22;stroke-width:1.0;"/><text fill="#000000" font-family="sans-serif" font-size="11" lengthAdjust="spacing" textLength="80" x="29" y="576.2754">ySort : boolean</text><line style="stroke:#FF0000;stroke-width:1.5;" x1="10" x2="238" y1="582.5957" y2="582.5957"/><ellipse cx="20" cy="593.5957" fill="#84BE84" rx="3" ry="3" style="stroke:#038048;stroke-width:1.0;"/><text fill="#000000" font-family="sans-serif" font-size="11" lengthAdjust="spacing" textLength="179" x="29" y="597.2305">addNode(node: GameNode) : void</text><ellipse cx="20" cy="606.5508" fill="#84BE84" rx="3" ry="3" style="stroke:#038048;stroke-width:1.0;"/><text fill="#000000" font-family="sans-serif" font-size="11" lengthAdjust="spacing" textLength="78" x="29" y="610.1855">disable() : void</text><ellipse cx="20" cy="619.5059" fill="#84BE84" rx="3" ry="3" style="stroke:#038048;stroke-width:1.0;"/><text fill="#000000" font-family="sans-serif" font-size="11" lengthAdjust="spacing" textLength="75" x="29" y="623.1406">enable() : void</text><ellipse cx="20" cy="632.4609" fill="#84BE84" rx="3" ry="3" style="stroke:#038048;stroke-width:1.0;"/><text fill="#000000" font-family="sans-serif" font-size="11" lengthAdjust="spacing" textLength="107" x="29" y="636.0957">getAlpha() : number</text><ellipse cx="20" cy="645.416" fill="#84BE84" rx="3" ry="3" style="stroke:#038048;stroke-width:1.0;"/><text fill="#000000" font-family="sans-serif" font-size="11" lengthAdjust="spacing" textLength="108" x="29" y="649.0508">getDepth() : number</text><ellipse cx="20" cy="658.3711" fill="#84BE84" rx="3" ry="3" style="stroke:#038048;stroke-width:1.0;"/><text fill="#000000" font-family="sans-serif" font-size="11" lengthAdjust="spacing" textLength="129" x="29" y="662.0059">getItems() : GameNode[]</text><ellipse cx="20" cy="671.3262" fill="#84BE84" rx="3" ry="3" style="stroke:#038048;stroke-width:1.0;"/><text fill="#000000" font-family="sans-serif" font-size="11" lengthAdjust="spacing" textLength="96" x="29" y="674.9609">getName() : string</text><ellipse cx="20" cy="684.2813" fill="#84BE84" rx="3" ry="3" style="stroke:#038048;stroke-width:1.0;"/><text fill="#000000" font-family="sans-serif" font-size="11" lengthAdjust="spacing" textLength="106" x="29" y="687.916">getYSort() : boolean</text><ellipse cx="20" cy="697.2363" fill="#84BE84" rx="3" ry="3" style="stroke:#038048;stroke-width:1.0;"/><text fill="#000000" font-family="sans-serif" font-size="11" lengthAdjust="spacing" textLength="107" x="29" y="700.8711">isHidden() : boolean</text><ellipse cx="20" cy="710.1914" fill="#84BE84" rx="3" ry="3" style="stroke:#038048;stroke-width:1.0;"/><text fill="#000000" font-family="sans-serif" font-size="11" lengthAdjust="spacing" textLength="107" x="29" y="713.8262">isPaused() : boolean</text><ellipse cx="20" cy="723.1465" fill="#84BE84" rx="3" ry="3" style="stroke:#038048;stroke-width:1.0;"/><text fill="#000000" font-family="sans-serif" font-size="11" lengthAdjust="spacing" textLength="199" x="29" y="726.7813">removeNode(node: GameNode) : void</text><ellipse cx="20" cy="736.1016" fill="#84BE84" rx="3" ry="3" style="stroke:#038048;stroke-width:1.0;"/><text fill="#000000" font-family="sans-serif" font-size="11" lengthAdjust="spacing" textLength="164" x="29" y="739.7363">setAlpha(alpha: number) : void</text><ellipse cx="20" cy="749.0566" fill="#84BE84" rx="3" ry="3" style="stroke:#038048;stroke-width:1.0;"/><text fill="#000000" font-family="sans-serif" font-size="11" lengthAdjust="spacing" textLength="167" x="29" y="752.6914">setDepth(depth: number) : void</text><ellipse cx="20" cy="762.0117" fill="#84BE84" rx="3" ry="3" style="stroke:#038048;stroke-width:1.0;"/><text fill="#000000" font-family="sans-serif" font-size="11" lengthAdjust="spacing" textLength="180" x="29" y="765.6465">setHidden(hidden: boolean) : void</text><ellipse cx="20" cy="774.9668" fill="#84BE84" rx="3" ry="3" style="stroke:#038048;stroke-width:1.0;"/><text fill="#000000" font-family="sans-serif" font-size="11" lengthAdjust="spacing" textLength="204" x="29" y="778.6016">setPaused(pauseValue: boolean) : void</text><ellipse cx="20" cy="787.9219" fill="#84BE84" rx="3" ry="3" style="stroke:#038048;stroke-width:1.0;"/><text fill="#000000" font-family="sans-serif" font-size="11" lengthAdjust="spacing" textLength="162" x="29" y="791.5566">setYSort(ySort: boolean) : void</text><!--MD5=[a97cfd095b0077d714bcddc8cbc855aa]
class Layer--><rect codeLine="33" fill="#FEFECE" filter="url(#f1tiysky69gcaf)" height="358.9219" id="Layer" style="stroke:#FF0000;stroke-width:1.5;" width="230" x="9" y="7"/><ellipse cx="104.25" cy="23" fill="#ADD1B2" rx="11" ry="11" style="stroke:#FF0000;stroke-width:1.0;"/><path d="M106.7231,29.1431 Q106.1421,29.4419 105.5029,29.5913 Q104.8638,29.7407 104.1582,29.7407 Q101.6514,29.7407 100.3315,28.0889 Q99.0117,26.437 99.0117,23.3159 Q99.0117,20.1865 100.3315,18.5347 Q101.6514,16.8828 104.1582,16.8828 Q104.8638,16.8828 105.5112,17.0322 Q106.1587,17.1816 106.7231,17.4805 L106.7231,20.2031 Q106.0923,19.6221 105.4988,19.3523 Q104.9053,19.0825 104.2744,19.0825 Q102.9297,19.0825 102.2449,20.1492 Q101.5601,21.2158 101.5601,23.3159 Q101.5601,25.4077 102.2449,26.4744 Q102.9297,27.541 104.2744,27.541 Q104.9053,27.541 105.4988,27.2712 Q106.0923,27.0015 106.7231,26.4204 Z " fill="#000000"/><text fill="#000000" font-family="sans-serif" font-size="12" lengthAdjust="spacing" textLength="31" x="124.75" y="27.5352">Layer</text><line style="stroke:#FF0000;stroke-width:1.5;" x1="10" x2="238" y1="39" y2="39"/><polygon fill="none" points="20,45,24,49,20,53,16,49" style="stroke:#B38D22;stroke-width:1.0;"/><text fill="#000000" font-family="sans-serif" font-size="11" lengthAdjust="spacing" textLength="80" x="29" y="53.6348">alpha : number</text><polygon fill="none" points="20,57.9551,24,61.9551,20,65.9551,16,61.9551" style="stroke:#B38D22;stroke-width:1.0;"/><text fill="#000000" font-family="sans-serif" font-size="11" lengthAdjust="spacing" textLength="82" x="29" y="66.5898">depth : number</text><polygon fill="none" points="20,70.9102,24,74.9102,20,78.9102,16,74.9102" style="stroke:#B38D22;stroke-width:1.0;"/><text fill="#000000" font-family="sans-serif" font-size="11" lengthAdjust="spacing" textLength="89" x="29" y="79.5449">hidden : boolean</text><polygon fill="none" points="20,83.8652,24,87.8652,20,91.8652,16,87.8652" style="stroke:#B38D22;stroke-width:1.0;"/><text fill="#000000" font-family="sans-serif" font-size="11" lengthAdjust="spacing" textLength="104" x="29" y="92.5">items : GameNode[]</text><polygon fill="none" points="20,96.8203,24,100.8203,20,104.8203,16,100.8203" style="stroke:#B38D22;stroke-width:1.0;"/><text fill="#000000" font-family="sans-serif" font-size="11" lengthAdjust="spacing" textLength="70" x="29" y="105.4551">name : string</text><polygon fill="none" points="20,109.7754,24,113.7754,20,117.7754,16,113.7754" style="stroke:#B38D22;stroke-width:1.0;"/><text fill="#000000" font-family="sans-serif" font-size="11" lengthAdjust="spacing" textLength="91" x="29" y="118.4102">paused : boolean</text><polygon fill="none" points="20,122.7305,24,126.7305,20,130.7305,16,126.7305" style="stroke:#B38D22;stroke-width:1.0;"/><text fill="#000000" font-family="sans-serif" font-size="11" lengthAdjust="spacing" textLength="71" x="29" y="131.3652">scene : Scene</text><polygon fill="none" points="20,135.6855,24,139.6855,20,143.6855,16,139.6855" style="stroke:#B38D22;stroke-width:1.0;"/><text fill="#000000" font-family="sans-serif" font-size="11" lengthAdjust="spacing" textLength="80" x="29" y="144.3203">ySort : boolean</text><line style="stroke:#FF0000;stroke-width:1.5;" x1="10" x2="238" y1="150.6406" y2="150.6406"/><ellipse cx="20" cy="161.6406" fill="#84BE84" rx="3" ry="3" style="stroke:#038048;stroke-width:1.0;"/><text fill="#000000" font-family="sans-serif" font-size="11" lengthAdjust="spacing" textLength="179" x="29" y="165.2754">addNode(node: GameNode) : void</text><ellipse cx="20" cy="174.5957" fill="#84BE84" rx="3" ry="3" style="stroke:#038048;stroke-width:1.0;"/><text fill="#000000" font-family="sans-serif" font-size="11" lengthAdjust="spacing" textLength="78" x="29" y="178.2305">disable() : void</text><ellipse cx="20" cy="187.5508" fill="#84BE84" rx="3" ry="3" style="stroke:#038048;stroke-width:1.0;"/><text fill="#000000" font-family="sans-serif" font-size="11" lengthAdjust="spacing" textLength="75" x="29" y="191.1855">enable() : void</text><ellipse cx="20" cy="200.5059" fill="#84BE84" rx="3" ry="3" style="stroke:#038048;stroke-width:1.0;"/><text fill="#000000" font-family="sans-serif" font-size="11" lengthAdjust="spacing" textLength="107" x="29" y="204.1406">getAlpha() : number</text><ellipse cx="20" cy="213.4609" fill="#84BE84" rx="3" ry="3" style="stroke:#038048;stroke-width:1.0;"/><text fill="#000000" font-family="sans-serif" font-size="11" lengthAdjust="spacing" textLength="108" x="29" y="217.0957">getDepth() : number</text><ellipse cx="20" cy="226.416" fill="#84BE84" rx="3" ry="3" style="stroke:#038048;stroke-width:1.0;"/><text fill="#000000" font-family="sans-serif" font-size="11" lengthAdjust="spacing" textLength="129" x="29" y="230.0508">getItems() : GameNode[]</text><ellipse cx="20" cy="239.3711" fill="#84BE84" rx="3" ry="3" style="stroke:#038048;stroke-width:1.0;"/><text fill="#000000" font-family="sans-serif" font-size="11" lengthAdjust="spacing" textLength="96" x="29" y="243.0059">getName() : string</text><ellipse cx="20" cy="252.3262" fill="#84BE84" rx="3" ry="3" style="stroke:#038048;stroke-width:1.0;"/><text fill="#000000" font-family="sans-serif" font-size="11" lengthAdjust="spacing" textLength="106" x="29" y="255.9609">getYSort() : boolean</text><ellipse cx="20" cy="265.2813" fill="#84BE84" rx="3" ry="3" style="stroke:#038048;stroke-width:1.0;"/><text fill="#000000" font-family="sans-serif" font-size="11" lengthAdjust="spacing" textLength="107" x="29" y="268.916">isHidden() : boolean</text><ellipse cx="20" cy="278.2363" fill="#84BE84" rx="3" ry="3" style="stroke:#038048;stroke-width:1.0;"/><text fill="#000000" font-family="sans-serif" font-size="11" lengthAdjust="spacing" textLength="107" x="29" y="281.8711">isPaused() : boolean</text><ellipse cx="20" cy="291.1914" fill="#84BE84" rx="3" ry="3" style="stroke:#038048;stroke-width:1.0;"/><text fill="#000000" font-family="sans-serif" font-size="11" lengthAdjust="spacing" textLength="199" x="29" y="294.8262">removeNode(node: GameNode) : void</text><ellipse cx="20" cy="304.1465" fill="#84BE84" rx="3" ry="3" style="stroke:#038048;stroke-width:1.0;"/><text fill="#000000" font-family="sans-serif" font-size="11" lengthAdjust="spacing" textLength="164" x="29" y="307.7813">setAlpha(alpha: number) : void</text><ellipse cx="20" cy="317.1016" fill="#84BE84" rx="3" ry="3" style="stroke:#038048;stroke-width:1.0;"/><text fill="#000000" font-family="sans-serif" font-size="11" lengthAdjust="spacing" textLength="167" x="29" y="320.7363">setDepth(depth: number) : void</text><ellipse cx="20" cy="330.0566" fill="#84BE84" rx="3" ry="3" style="stroke:#038048;stroke-width:1.0;"/><text fill="#000000" font-family="sans-serif" font-size="11" lengthAdjust="spacing" textLength="180" x="29" y="333.6914">setHidden(hidden: boolean) : void</text><ellipse cx="20" cy="343.0117" fill="#84BE84" rx="3" ry="3" style="stroke:#038048;stroke-width:1.0;"/><text fill="#000000" font-family="sans-serif" font-size="11" lengthAdjust="spacing" textLength="204" x="29" y="346.6465">setPaused(pauseValue: boolean) : void</text><ellipse cx="20" cy="355.9668" fill="#84BE84" rx="3" ry="3" style="stroke:#038048;stroke-width:1.0;"/><text fill="#000000" font-family="sans-serif" font-size="11" lengthAdjust="spacing" textLength="162" x="29" y="359.6016">setYSort(ySort: boolean) : void</text><!--MD5=[110796ac762d88922b6a06576bff2f7f]
class UILayer--><rect codeLine="60" fill="#FEFECE" filter="url(#f1tiysky69gcaf)" height="371.877" id="UILayer" style="stroke:#FF0000;stroke-width:1.5;" width="230" x="9" y="858"/><ellipse cx="98.75" cy="874" fill="#ADD1B2" rx="11" ry="11" style="stroke:#FF0000;stroke-width:1.0;"/><path d="M101.2231,880.1431 Q100.6421,880.4419 100.0029,880.5913 Q99.3638,880.7407 98.6582,880.7407 Q96.1514,880.7407 94.8315,879.0889 Q93.5117,877.437 93.5117,874.3159 Q93.5117,871.1865 94.8315,869.5347 Q96.1514,867.8828 98.6582,867.8828 Q99.3638,867.8828 100.0112,868.0322 Q100.6587,868.1816 101.2231,868.4805 L101.2231,871.2031 Q100.5923,870.6221 99.9988,870.3523 Q99.4053,870.0825 98.7744,870.0825 Q97.4297,870.0825 96.7449,871.1492 Q96.0601,872.2158 96.0601,874.3159 Q96.0601,876.4077 96.7449,877.4744 Q97.4297,878.541 98.7744,878.541 Q99.4053,878.541 99.9988,878.2712 Q100.5923,878.0015 101.2231,877.4204 Z " fill="#000000"/><text fill="#000000" font-family="sans-serif" font-size="12" lengthAdjust="spacing" textLength="42" x="119.25" y="878.5352">UILayer</text><line style="stroke:#FF0000;stroke-width:1.5;" x1="10" x2="238" y1="890" y2="890"/><ellipse cx="20" cy="901" rx="3" ry="3" style="stroke:#038048;stroke-width:1.0;fill:none;"/><text fill="#000000" font-family="sans-serif" font-size="11" lengthAdjust="spacing" textLength="78" x="29" y="904.6348">parallax : Vec2</text><polygon fill="none" points="20,908.9551,24,912.9551,20,916.9551,16,912.9551" style="stroke:#B38D22;stroke-width:1.0;"/><text fill="#000000" font-family="sans-serif" font-size="11" lengthAdjust="spacing" textLength="80" x="29" y="917.5898">alpha : number</text><polygon fill="none" points="20,921.9102,24,925.9102,20,929.9102,16,925.9102" style="stroke:#B38D22;stroke-width:1.0;"/><text fill="#000000" font-family="sans-serif" font-size="11" lengthAdjust="spacing" textLength="82" x="29" y="930.5449">depth : number</text><polygon fill="none" points="20,934.8652,24,938.8652,20,942.8652,16,938.8652" style="stroke:#B38D22;stroke-width:1.0;"/><text fill="#000000" font-family="sans-serif" font-size="11" lengthAdjust="spacing" textLength="89" x="29" y="943.5">hidden : boolean</text><polygon fill="none" points="20,947.8203,24,951.8203,20,955.8203,16,951.8203" style="stroke:#B38D22;stroke-width:1.0;"/><text fill="#000000" font-family="sans-serif" font-size="11" lengthAdjust="spacing" textLength="104" x="29" y="956.4551">items : GameNode[]</text><polygon fill="none" points="20,960.7754,24,964.7754,20,968.7754,16,964.7754" style="stroke:#B38D22;stroke-width:1.0;"/><text fill="#000000" font-family="sans-serif" font-size="11" lengthAdjust="spacing" textLength="70" x="29" y="969.4102">name : string</text><polygon fill="none" points="20,973.7305,24,977.7305,20,981.7305,16,977.7305" style="stroke:#B38D22;stroke-width:1.0;"/><text fill="#000000" font-family="sans-serif" font-size="11" lengthAdjust="spacing" textLength="91" x="29" y="982.3652">paused : boolean</text><polygon fill="none" points="20,986.6855,24,990.6855,20,994.6855,16,990.6855" style="stroke:#B38D22;stroke-width:1.0;"/><text fill="#000000" font-family="sans-serif" font-size="11" lengthAdjust="spacing" textLength="71" x="29" y="995.3203">scene : Scene</text><polygon fill="none" points="20,999.6406,24,1003.6406,20,1007.6406,16,1003.6406" style="stroke:#B38D22;stroke-width:1.0;"/><text fill="#000000" font-family="sans-serif" font-size="11" lengthAdjust="spacing" textLength="80" x="29" y="1008.2754">ySort : boolean</text><line style="stroke:#FF0000;stroke-width:1.5;" x1="10" x2="238" y1="1014.5957" y2="1014.5957"/><ellipse cx="20" cy="1025.5957" fill="#84BE84" rx="3" ry="3" style="stroke:#038048;stroke-width:1.0;"/><text fill="#000000" font-family="sans-serif" font-size="11" lengthAdjust="spacing" textLength="179" x="29" y="1029.2305">addNode(node: GameNode) : void</text><ellipse cx="20" cy="1038.5508" fill="#84BE84" rx="3" ry="3" style="stroke:#038048;stroke-width:1.0;"/><text fill="#000000" font-family="sans-serif" font-size="11" lengthAdjust="spacing" textLength="78" x="29" y="1042.1855">disable() : void</text><ellipse cx="20" cy="1051.5059" fill="#84BE84" rx="3" ry="3" style="stroke:#038048;stroke-width:1.0;"/><text fill="#000000" font-family="sans-serif" font-size="11" lengthAdjust="spacing" textLength="75" x="29" y="1055.1406">enable() : void</text><ellipse cx="20" cy="1064.4609" fill="#84BE84" rx="3" ry="3" style="stroke:#038048;stroke-width:1.0;"/><text fill="#000000" font-family="sans-serif" font-size="11" lengthAdjust="spacing" textLength="107" x="29" y="1068.0957">getAlpha() : number</text><ellipse cx="20" cy="1077.416" fill="#84BE84" rx="3" ry="3" style="stroke:#038048;stroke-width:1.0;"/><text fill="#000000" font-family="sans-serif" font-size="11" lengthAdjust="spacing" textLength="108" x="29" y="1081.0508">getDepth() : number</text><ellipse cx="20" cy="1090.3711" fill="#84BE84" rx="3" ry="3" style="stroke:#038048;stroke-width:1.0;"/><text fill="#000000" font-family="sans-serif" font-size="11" lengthAdjust="spacing" textLength="129" x="29" y="1094.0059">getItems() : GameNode[]</text><ellipse cx="20" cy="1103.3262" fill="#84BE84" rx="3" ry="3" style="stroke:#038048;stroke-width:1.0;"/><text fill="#000000" font-family="sans-serif" font-size="11" lengthAdjust="spacing" textLength="96" x="29" y="1106.9609">getName() : string</text><ellipse cx="20" cy="1116.2813" fill="#84BE84" rx="3" ry="3" style="stroke:#038048;stroke-width:1.0;"/><text fill="#000000" font-family="sans-serif" font-size="11" lengthAdjust="spacing" textLength="106" x="29" y="1119.916">getYSort() : boolean</text><ellipse cx="20" cy="1129.2363" fill="#84BE84" rx="3" ry="3" style="stroke:#038048;stroke-width:1.0;"/><text fill="#000000" font-family="sans-serif" font-size="11" lengthAdjust="spacing" textLength="107" x="29" y="1132.8711">isHidden() : boolean</text><ellipse cx="20" cy="1142.1914" fill="#84BE84" rx="3" ry="3" style="stroke:#038048;stroke-width:1.0;"/><text fill="#000000" font-family="sans-serif" font-size="11" lengthAdjust="spacing" textLength="107" x="29" y="1145.8262">isPaused() : boolean</text><ellipse cx="20" cy="1155.1465" fill="#84BE84" rx="3" ry="3" style="stroke:#038048;stroke-width:1.0;"/><text fill="#000000" font-family="sans-serif" font-size="11" lengthAdjust="spacing" textLength="199" x="29" y="1158.7813">removeNode(node: GameNode) : void</text><ellipse cx="20" cy="1168.1016" fill="#84BE84" rx="3" ry="3" style="stroke:#038048;stroke-width:1.0;"/><text fill="#000000" font-family="sans-serif" font-size="11" lengthAdjust="spacing" textLength="164" x="29" y="1171.7363">setAlpha(alpha: number) : void</text><ellipse cx="20" cy="1181.0566" fill="#84BE84" rx="3" ry="3" style="stroke:#038048;stroke-width:1.0;"/><text fill="#000000" font-family="sans-serif" font-size="11" lengthAdjust="spacing" textLength="167" x="29" y="1184.6914">setDepth(depth: number) : void</text><ellipse cx="20" cy="1194.0117" fill="#84BE84" rx="3" ry="3" style="stroke:#038048;stroke-width:1.0;"/><text fill="#000000" font-family="sans-serif" font-size="11" lengthAdjust="spacing" textLength="180" x="29" y="1197.6465">setHidden(hidden: boolean) : void</text><ellipse cx="20" cy="1206.9668" fill="#84BE84" rx="3" ry="3" style="stroke:#038048;stroke-width:1.0;"/><text fill="#000000" font-family="sans-serif" font-size="11" lengthAdjust="spacing" textLength="204" x="29" y="1210.6016">setPaused(pauseValue: boolean) : void</text><ellipse cx="20" cy="1219.9219" fill="#84BE84" rx="3" ry="3" style="stroke:#038048;stroke-width:1.0;"/><text fill="#000000" font-family="sans-serif" font-size="11" lengthAdjust="spacing" textLength="162" x="29" y="1223.5566">setYSort(ySort: boolean) : void</text><!--MD5=[b1251b0e9e7de1da016d639708863c3d]
reverse link Layer to ParallaxLayer--><path codeLine="59" d="M124,386.21 C124,399.46 124,412.77 124,425.95 " fill="none" id="Layer-backto-ParallaxLayer" style="stroke:#FF0000;stroke-width:1.0;"/><polygon fill="none" points="117,386.18,124,366.18,131,386.18,117,386.18" style="stroke:#FF0000;stroke-width:1.0;"/><!--MD5=[5ee82f7e945f78be041e2097083ae5af]
reverse link ParallaxLayer to UILayer--><path codeLine="87" d="M124,818.2 C124,831.44 124,844.74 124,857.88 " fill="none" id="ParallaxLayer-backto-UILayer" style="stroke:#FF0000;stroke-width:1.0;"/><polygon fill="none" points="117,818.17,124,798.17,131,818.17,117,818.17" style="stroke:#FF0000;stroke-width:1.0;"/><!--MD5=[cdcfe2e5b11c743693f0ae6016c375c8]
@startuml
skinparam ClassArrowColor #ff0000
skinparam ClassBorderColor #ff0000
skinparam BackgroundColor transparent
hide empty methods
hide empty fields
class "ParallaxLayer" {
    +parallax : Vec2
    #alpha : number
    #depth : number
    #hidden : boolean
    #items : GameNode[]
    #name : string
    #paused : boolean
    #scene : Scene
    #ySort : boolean
    +addNode(node: GameNode) : void
    +disable() : void
    +enable() : void
    +getAlpha() : number
    +getDepth() : number
    +getItems() : GameNode[]
    +getName() : string
    +getYSort() : boolean
    +isHidden() : boolean
    +isPaused() : boolean
    +removeNode(node: GameNode) : void
    +setAlpha(alpha: number) : void
    +setDepth(depth: number) : void
    +setHidden(hidden: boolean) : void
    +setPaused(pauseValue: boolean) : void
    +setYSort(ySort: boolean) : void
}
class "Layer" {
    #alpha : number
    #depth : number
    #hidden : boolean
    #items : GameNode[]
    #name : string
    #paused : boolean
    #scene : Scene
    #ySort : boolean
    +addNode(node: GameNode) : void
    +disable() : void
    +enable() : void
    +getAlpha() : number
    +getDepth() : number
    +getItems() : GameNode[]
    +getName() : string
    +getYSort() : boolean
    +isHidden() : boolean
    +isPaused() : boolean
    +removeNode(node: GameNode) : void
    +setAlpha(alpha: number) : void
    +setDepth(depth: number) : void
    +setHidden(hidden: boolean) : void
    +setPaused(pauseValue: boolean) : void
    +setYSort(ySort: boolean) : void
}
"Layer" <|- - "ParallaxLayer"
class "UILayer" {
    +parallax : Vec2
    #alpha : number
    #depth : number
    #hidden : boolean
    #items : GameNode[]
    #name : string
    #paused : boolean
    #scene : Scene
    #ySort : boolean
    +addNode(node: GameNode) : void
    +disable() : void
    +enable() : void
    +getAlpha() : number
    +getDepth() : number
    +getItems() : GameNode[]
    +getName() : string
    +getYSort() : boolean
    +isHidden() : boolean
    +isPaused() : boolean
    +removeNode(node: GameNode) : void
    +setAlpha(alpha: number) : void
    +setDepth(depth: number) : void
    +setHidden(hidden: boolean) : void
    +setPaused(pauseValue: boolean) : void
    +setYSort(ySort: boolean) : void
}
"ParallaxLayer" <|- - "UILayer"
@enduml

PlantUML version 1.2021.14(Fri Nov 12 11:46:50 EST 2021)
(GPL source distribution)
Java Runtime: Java(TM) SE Runtime Environment
JVM: Java HotSpot(TM) 64-Bit Server VM
Default Encoding: UTF-8
Language: en
Country: US
--></g></svg>