<?xml version="1.0" encoding="UTF-8" standalone="no"?><svg xmlns="http://www.w3.org/2000/svg" xmlns:xlink="http://www.w3.org/1999/xlink" contentScriptType="application/ecmascript" contentStyleType="text/css" height="145px" preserveAspectRatio="none" style="width:135px;height:145px;background:#00000000;" version="1.1" viewBox="0 0 135 145" width="135px" zoomAndPan="magnify"><defs><filter height="300%" id="f3nrqdxc1qgp2" width="300%" x="-1" y="-1"><feGaussianBlur result="blurOut" stdDeviation="2.0"/><feColorMatrix in="blurOut" result="blurOut2" type="matrix" values="0 0 0 0 0 0 0 0 0 0 0 0 0 0 0 0 0 0 .4 0"/><feOffset dx="4.0" dy="4.0" in="blurOut2" result="blurOut3"/><feBlend in="SourceGraphic" in2="blurOut3" mode="normal"/></filter></defs><g><!--MD5=[a5d571cdf103920f667847300ea9d1e8]
class ParticleSystem--><rect codeLine="6" fill="#FEFECE" filter="url(#f3nrqdxc1qgp2)" height="32" id="ParticleSystem" style="stroke:#FF0000;stroke-width:1.5;" width="114" x="7" y="99"/><ellipse cx="22" cy="115" fill="#ADD1B2" rx="11" ry="11" style="stroke:#FF0000;stroke-width:1.0;"/><path d="M24.4731,121.1431 Q23.8921,121.4419 23.2529,121.5913 Q22.6138,121.7407 21.9082,121.7407 Q19.4014,121.7407 18.0815,120.0889 Q16.7617,118.437 16.7617,115.3159 Q16.7617,112.1865 18.0815,110.5347 Q19.4014,108.8828 21.9082,108.8828 Q22.6138,108.8828 23.2612,109.0322 Q23.9087,109.1816 24.4731,109.4805 L24.4731,112.2031 Q23.8423,111.6221 23.2488,111.3523 Q22.6553,111.0825 22.0244,111.0825 Q20.6797,111.0825 19.9949,112.1492 Q19.3101,113.2158 19.3101,115.3159 Q19.3101,117.4077 19.9949,118.4744 Q20.6797,119.541 22.0244,119.541 Q22.6553,119.541 23.2488,119.2712 Q23.8423,119.0015 24.4731,118.4204 Z " fill="#000000"/><text fill="#000000" font-family="sans-serif" font-size="12" lengthAdjust="spacing" textLength="82" x="36" y="119.5352">ParticleSystem</text><!--MD5=[8336922478991a54f539d469b4e48cc0]
class Updateable--><rect codeLine="8" fill="#FEFECE" filter="url(#f3nrqdxc1qgp2)" height="32" id="Updateable" style="stroke:#FF0000;stroke-width:1.5;" width="99" x="14.5" y="7"/><ellipse cx="29.5" cy="23" fill="#B4A7E5" rx="11" ry="11" style="stroke:#FF0000;stroke-width:1.0;"/><path d="M25.9277,19.2651 L25.9277,17.1069 L33.3071,17.1069 L33.3071,19.2651 L30.8418,19.2651 L30.8418,27.3418 L33.3071,27.3418 L33.3071,29.5 L25.9277,29.5 L25.9277,27.3418 L28.3931,27.3418 L28.3931,19.2651 Z " fill="#000000"/><text fill="#000000" font-family="sans-serif" font-size="12" font-style="italic" lengthAdjust="spacing" textLength="67" x="43.5" y="27.5352">Updateable</text><!--MD5=[2c81f38aa7c645692de43af99970730f]
reverse link Updateable to ParticleSystem--><path codeLine="10" d="M64,59.61 C64,73.31 64,88.22 64,98.96 " fill="none" id="Updateable-backto-ParticleSystem" style="stroke:#FF0000;stroke-width:1.0;stroke-dasharray:7.0,7.0;"/><polygon fill="none" points="57,59.27,64,39.27,71,59.27,57,59.27" style="stroke:#FF0000;stroke-width:1.0;"/><!--MD5=[ec554e500d8d85085da5902c35521dec]
@startuml
skinparam ClassArrowColor #ff0000
skinparam ClassBorderColor #ff0000
skinparam BackgroundColor transparent
hide empty methods
hide empty fields
class "ParticleSystem" {
}
interface "Updateable" {
}
"Updateable" <|.. "ParticleSystem"
@enduml

PlantUML version 1.2021.14(Fri Nov 12 11:46:50 EST 2021)
(GPL source distribution)
Java Runtime: Java(TM) SE Runtime Environment
JVM: Java HotSpot(TM) 64-Bit Server VM
Default Encoding: UTF-8
Language: en
Country: US
--></g></svg>