<?xml version="1.0" encoding="UTF-8" standalone="no"?><svg xmlns="http://www.w3.org/2000/svg" xmlns:xlink="http://www.w3.org/1999/xlink" contentScriptType="application/ecmascript" contentStyleType="text/css" height="389px" preserveAspectRatio="none" style="width:395px;height:389px;background:#00000000;" version="1.1" viewBox="0 0 395 389" width="395px" zoomAndPan="magnify"><defs><filter height="300%" id="f1wxpz710g1kiu" width="300%" x="-1" y="-1"><feGaussianBlur result="blurOut" stdDeviation="2.0"/><feColorMatrix in="blurOut" result="blurOut2" type="matrix" values="0 0 0 0 0 0 0 0 0 0 0 0 0 0 0 0 0 0 .4 0"/><feOffset dx="4.0" dy="4.0" in="blurOut2" result="blurOut3"/><feBlend in="SourceGraphic" in2="blurOut3" mode="normal"/></filter></defs><g><!--MD5=[a5d571cdf103920f667847300ea9d1e8]
class ParticleSystem--><rect codeLine="6" fill="#FEFECE" filter="url(#f1wxpz710g1kiu)" height="255.2813" id="ParticleSystem" style="stroke:#FF0000;stroke-width:1.5;" width="372" x="9" y="120"/><ellipse cx="149.75" cy="136" fill="#ADD1B2" rx="11" ry="11" style="stroke:#FF0000;stroke-width:1.0;"/><path d="M152.2231,142.1431 Q151.6421,142.4419 151.0029,142.5913 Q150.3638,142.7407 149.6582,142.7407 Q147.1514,142.7407 145.8315,141.0889 Q144.5117,139.437 144.5117,136.3159 Q144.5117,133.1865 145.8315,131.5347 Q147.1514,129.8828 149.6582,129.8828 Q150.3638,129.8828 151.0112,130.0322 Q151.6587,130.1816 152.2231,130.4805 L152.2231,133.2031 Q151.5923,132.6221 150.9988,132.3523 Q150.4053,132.0825 149.7744,132.0825 Q148.4297,132.0825 147.7449,133.1492 Q147.0601,134.2158 147.0601,136.3159 Q147.0601,138.4077 147.7449,139.4744 Q148.4297,140.541 149.7744,140.541 Q150.4053,140.541 150.9988,140.2712 Q151.5923,140.0015 152.2231,139.4204 Z " fill="#000000"/><text fill="#000000" font-family="sans-serif" font-size="12" lengthAdjust="spacing" textLength="82" x="170.25" y="140.5352">ParticleSystem</text><line style="stroke:#FF0000;stroke-width:1.5;" x1="10" x2="380" y1="152" y2="152"/><polygon fill="none" points="20,158,24,162,20,166,16,162" style="stroke:#B38D22;stroke-width:1.0;"/><text fill="#000000" font-family="sans-serif" font-size="11" lengthAdjust="spacing" textLength="67" x="29" y="166.6348">color : Color</text><polygon fill="none" points="20,170.9551,24,174.9551,20,178.9551,16,174.9551" style="stroke:#B38D22;stroke-width:1.0;"/><text fill="#000000" font-family="sans-serif" font-size="11" lengthAdjust="spacing" textLength="90" x="29" y="179.5898">lifetime : number</text><polygon fill="none" points="20,183.9102,24,187.9102,20,191.9102,16,187.9102" style="stroke:#B38D22;stroke-width:1.0;"/><text fill="#000000" font-family="sans-serif" font-size="11" lengthAdjust="spacing" textLength="118" x="29" y="192.5449">particleMass : number</text><polygon fill="none" points="20,196.8652,24,200.8652,20,204.8652,16,200.8652" style="stroke:#B38D22;stroke-width:1.0;"/><text fill="#000000" font-family="sans-serif" font-size="11" lengthAdjust="spacing" textLength="119" x="29" y="205.5">particlePool : Particle[]</text><polygon fill="none" points="20,209.8203,24,213.8203,20,217.8203,16,213.8203" style="stroke:#B38D22;stroke-width:1.0;"/><text fill="#000000" font-family="sans-serif" font-size="11" lengthAdjust="spacing" textLength="96" x="29" y="218.4551">particleSize : Vec2</text><polygon fill="none" points="20,222.7754,24,226.7754,20,230.7754,16,226.7754" style="stroke:#B38D22;stroke-width:1.0;"/><text fill="#000000" font-family="sans-serif" font-size="11" lengthAdjust="spacing" textLength="147" x="29" y="231.4102">particlesPerFrame : number</text><polygon fill="none" points="20,235.7305,24,239.7305,20,243.7305,16,239.7305" style="stroke:#B38D22;stroke-width:1.0;"/><text fill="#000000" font-family="sans-serif" font-size="11" lengthAdjust="spacing" textLength="149" x="29" y="244.3652">particlesToRender : number</text><polygon fill="none" points="20,248.6855,24,252.6855,20,256.6855,16,252.6855" style="stroke:#B38D22;stroke-width:1.0;"/><text fill="#000000" font-family="sans-serif" font-size="11" lengthAdjust="spacing" textLength="99" x="29" y="257.3203">sourcePoint : Vec2</text><polygon fill="none" points="20,261.6406,24,265.6406,20,269.6406,16,265.6406" style="stroke:#B38D22;stroke-width:1.0;"/><text fill="#000000" font-family="sans-serif" font-size="11" lengthAdjust="spacing" textLength="120" x="29" y="270.2754">systemLifetime : Timer</text><polygon fill="none" points="20,274.5957,24,278.5957,20,282.5957,16,278.5957" style="stroke:#B38D22;stroke-width:1.0;"/><text fill="#000000" font-family="sans-serif" font-size="11" lengthAdjust="spacing" textLength="135" x="29" y="283.2305">systemRunning : boolean</text><line style="stroke:#FF0000;stroke-width:1.5;" x1="10" x2="380" y1="289.5508" y2="289.5508"/><ellipse cx="20" cy="300.5508" fill="#84BE84" rx="3" ry="3" style="stroke:#038048;stroke-width:1.0;"/><text fill="#000000" font-family="sans-serif" font-size="11" lengthAdjust="spacing" textLength="173" x="29" y="304.1855">changeColor(color: Color) : void</text><ellipse cx="20" cy="313.5059" fill="#84BE84" rx="3" ry="3" style="stroke:#038048;stroke-width:1.0;"/><text fill="#000000" font-family="sans-serif" font-size="11" lengthAdjust="spacing" textLength="245" x="29" y="317.1406">initializePool(scene: Scene, layer: string) : void</text><ellipse cx="20" cy="326.4609" fill="#84BE84" rx="3" ry="3" style="stroke:#038048;stroke-width:1.0;"/><text fill="#000000" font-family="sans-serif" font-size="11" lengthAdjust="spacing" textLength="235" x="29" y="330.0957">setParticleAnimation(particle: Particle) : void</text><ellipse cx="20" cy="339.416" fill="#84BE84" rx="3" ry="3" style="stroke:#038048;stroke-width:1.0;"/><text fill="#000000" font-family="sans-serif" font-size="11" lengthAdjust="spacing" textLength="346" x="29" y="343.0508">startSystem(time: number, mass: number, startPoint: Vec2) : void</text><ellipse cx="20" cy="352.3711" fill="#84BE84" rx="3" ry="3" style="stroke:#038048;stroke-width:1.0;"/><text fill="#000000" font-family="sans-serif" font-size="11" lengthAdjust="spacing" textLength="102" x="29" y="356.0059">stopSystem() : void</text><ellipse cx="20" cy="365.3262" fill="#84BE84" rx="3" ry="3" style="stroke:#038048;stroke-width:1.0;"/><text fill="#000000" font-family="sans-serif" font-size="11" lengthAdjust="spacing" textLength="158" x="29" y="368.9609">update(deltaT: number) : void</text><!--MD5=[8336922478991a54f539d469b4e48cc0]
class Updateable--><rect codeLine="24" fill="#FEFECE" filter="url(#f1wxpz710g1kiu)" height="52.9551" id="Updateable" style="stroke:#FF0000;stroke-width:1.5;" width="184" x="103" y="7"/><ellipse cx="157.25" cy="23" fill="#B4A7E5" rx="11" ry="11" style="stroke:#FF0000;stroke-width:1.0;"/><path d="M153.6777,19.2651 L153.6777,17.1069 L161.0571,17.1069 L161.0571,19.2651 L158.5918,19.2651 L158.5918,27.3418 L161.0571,27.3418 L161.0571,29.5 L153.6777,29.5 L153.6777,27.3418 L156.1431,27.3418 L156.1431,19.2651 Z " fill="#000000"/><text fill="#000000" font-family="sans-serif" font-size="12" font-style="italic" lengthAdjust="spacing" textLength="67" x="177.75" y="27.5352">Updateable</text><line style="stroke:#FF0000;stroke-width:1.5;" x1="104" x2="286" y1="39" y2="39"/><ellipse cx="114" cy="50" fill="#84BE84" rx="3" ry="3" style="stroke:#038048;stroke-width:1.0;"/><text fill="#000000" font-family="sans-serif" font-size="11" lengthAdjust="spacing" textLength="158" x="123" y="53.6348">update(deltaT: number) : void</text><!--MD5=[2c81f38aa7c645692de43af99970730f]
reverse link Updateable to ParticleSystem--><path codeLine="27" d="M195,80.28 C195,92.21 195,105.67 195,119.64 " fill="none" id="Updateable-backto-ParticleSystem" style="stroke:#FF0000;stroke-width:1.0;stroke-dasharray:7.0,7.0;"/><polygon fill="none" points="188,80.07,195,60.07,202,80.07,188,80.07" style="stroke:#FF0000;stroke-width:1.0;"/><!--MD5=[34fe111798ea526725a5d1b0eeb84a34]
@startuml
skinparam ClassArrowColor #ff0000
skinparam ClassBorderColor #ff0000
skinparam BackgroundColor transparent
hide empty methods
hide empty fields
class "ParticleSystem" {
    #color : Color
    #lifetime : number
    #particleMass : number
    #particlePool : Particle[]
    #particleSize : Vec2
    #particlesPerFrame : number
    #particlesToRender : number
    #sourcePoint : Vec2
    #systemLifetime : Timer
    #systemRunning : boolean
    +changeColor(color: Color) : void
    +initializePool(scene: Scene, layer: string) : void
    +setParticleAnimation(particle: Particle) : void
    +startSystem(time: number, mass: number, startPoint: Vec2) : void
    +stopSystem() : void
    +update(deltaT: number) : void
}
interface "Updateable" {
    +update(deltaT: number) : void
}
"Updateable" <|.. "ParticleSystem"
@enduml

PlantUML version 1.2021.14(Fri Nov 12 11:46:50 EST 2021)
(GPL source distribution)
Java Runtime: Java(TM) SE Runtime Environment
JVM: Java HotSpot(TM) 64-Bit Server VM
Default Encoding: UTF-8
Language: en
Country: US
--></g></svg>