<?xml version="1.0" encoding="UTF-8" standalone="no"?><svg xmlns="http://www.w3.org/2000/svg" xmlns:xlink="http://www.w3.org/1999/xlink" contentScriptType="application/ecmascript" contentStyleType="text/css" height="272px" preserveAspectRatio="none" style="width:342px;height:272px;background:#00000000;" version="1.1" viewBox="0 0 342 272" width="342px" zoomAndPan="magnify"><defs><filter height="300%" id="fd6zvk62j2qct" width="300%" x="-1" y="-1"><feGaussianBlur result="blurOut" stdDeviation="2.0"/><feColorMatrix in="blurOut" result="blurOut2" type="matrix" values="0 0 0 0 0 0 0 0 0 0 0 0 0 0 0 0 0 0 .4 0"/><feOffset dx="4.0" dy="4.0" in="blurOut2" result="blurOut3"/><feBlend in="SourceGraphic" in2="blurOut3" mode="normal"/></filter></defs><g><!--MD5=[91f96034cbab5b6284938c248b674893]
class ParticleSystemManager--><rect codeLine="6" fill="#FEFECE" filter="url(#fd6zvk62j2qct)" height="138.6855" id="ParticleSystemManager" style="stroke:#FF0000;stroke-width:1.5;" width="319" x="9" y="120"/><ellipse cx="98.25" cy="136" fill="#ADD1B2" rx="11" ry="11" style="stroke:#FF0000;stroke-width:1.0;"/><path d="M100.7231,142.1431 Q100.1421,142.4419 99.5029,142.5913 Q98.8638,142.7407 98.1582,142.7407 Q95.6514,142.7407 94.3315,141.0889 Q93.0117,139.437 93.0117,136.3159 Q93.0117,133.1865 94.3315,131.5347 Q95.6514,129.8828 98.1582,129.8828 Q98.8638,129.8828 99.5112,130.0322 Q100.1587,130.1816 100.7231,130.4805 L100.7231,133.2031 Q100.0923,132.6221 99.4988,132.3523 Q98.9053,132.0825 98.2744,132.0825 Q96.9297,132.0825 96.2449,133.1492 Q95.5601,134.2158 95.5601,136.3159 Q95.5601,138.4077 96.2449,139.4744 Q96.9297,140.541 98.2744,140.541 Q98.9053,140.541 99.4988,140.2712 Q100.0923,140.0015 100.7231,139.4204 Z " fill="#000000"/><text fill="#000000" font-family="sans-serif" font-size="12" lengthAdjust="spacing" textLength="132" x="118.75" y="140.5352">ParticleSystemManager</text><line style="stroke:#FF0000;stroke-width:1.5;" x1="10" x2="327" y1="152" y2="152"/><polygon fill="none" points="20,158,24,162,20,166,16,162" style="stroke:#B38D22;stroke-width:1.0;"/><text fill="#000000" font-family="sans-serif" font-size="11" lengthAdjust="spacing" textLength="178" x="29" y="166.6348">particleSystems : ParticleSystem[]</text><rect fill="none" height="6" style="stroke:#C82930;stroke-width:1.0;" width="6" x="17" y="172.9551"/><text fill="#000000" font-family="sans-serif" font-size="11" lengthAdjust="spacing" text-decoration="underline" textLength="177" x="29" y="179.5898">instance : ParticleSystemManager</text><line style="stroke:#FF0000;stroke-width:1.5;" x1="10" x2="327" y1="185.9102" y2="185.9102"/><ellipse cx="20" cy="196.9102" fill="#84BE84" rx="3" ry="3" style="stroke:#038048;stroke-width:1.0;"/><text fill="#000000" font-family="sans-serif" font-size="11" lengthAdjust="spacing" textLength="149" x="29" y="200.5449">clearParticleSystems() : void</text><ellipse cx="20" cy="209.8652" fill="#84BE84" rx="3" ry="3" style="stroke:#038048;stroke-width:1.0;"/><text fill="#000000" font-family="sans-serif" font-size="11" lengthAdjust="spacing" textLength="293" x="29" y="213.5">deregisterParticleSystem(system: ParticleSystem) : void</text><ellipse cx="20" cy="222.8203" fill="#84BE84" rx="3" ry="3" style="stroke:#038048;stroke-width:1.0;"/><text fill="#000000" font-family="sans-serif" font-size="11" lengthAdjust="spacing" text-decoration="underline" textLength="202" x="29" y="226.4551">getInstance() : ParticleSystemManager</text><ellipse cx="20" cy="235.7754" fill="#84BE84" rx="3" ry="3" style="stroke:#038048;stroke-width:1.0;"/><text fill="#000000" font-family="sans-serif" font-size="11" lengthAdjust="spacing" textLength="280" x="29" y="239.4102">registerParticleSystem(system: ParticleSystem) : void</text><ellipse cx="20" cy="248.7305" fill="#84BE84" rx="3" ry="3" style="stroke:#038048;stroke-width:1.0;"/><text fill="#000000" font-family="sans-serif" font-size="11" lengthAdjust="spacing" textLength="158" x="29" y="252.3652">update(deltaT: number) : void</text><!--MD5=[8336922478991a54f539d469b4e48cc0]
class Updateable--><rect codeLine="15" fill="#FEFECE" filter="url(#fd6zvk62j2qct)" height="52.9551" id="Updateable" style="stroke:#FF0000;stroke-width:1.5;" width="184" x="76.5" y="7"/><ellipse cx="130.75" cy="23" fill="#B4A7E5" rx="11" ry="11" style="stroke:#FF0000;stroke-width:1.0;"/><path d="M127.1777,19.2651 L127.1777,17.1069 L134.5571,17.1069 L134.5571,19.2651 L132.0918,19.2651 L132.0918,27.3418 L134.5571,27.3418 L134.5571,29.5 L127.1777,29.5 L127.1777,27.3418 L129.6431,27.3418 L129.6431,19.2651 Z " fill="#000000"/><text fill="#000000" font-family="sans-serif" font-size="12" font-style="italic" lengthAdjust="spacing" textLength="67" x="151.25" y="27.5352">Updateable</text><line style="stroke:#FF0000;stroke-width:1.5;" x1="77.5" x2="259.5" y1="39" y2="39"/><ellipse cx="87.5" cy="50" fill="#84BE84" rx="3" ry="3" style="stroke:#038048;stroke-width:1.0;"/><text fill="#000000" font-family="sans-serif" font-size="11" lengthAdjust="spacing" textLength="158" x="96.5" y="53.6348">update(deltaT: number) : void</text><!--MD5=[fb9ed3900386e42c86f62469b304d261]
reverse link Updateable to ParticleSystemManager--><path codeLine="18" d="M168.5,80.71 C168.5,93.01 168.5,106.56 168.5,119.78 " fill="none" id="Updateable-backto-ParticleSystemManager" style="stroke:#FF0000;stroke-width:1.0;stroke-dasharray:7.0,7.0;"/><polygon fill="none" points="161.5,80.28,168.5,60.28,175.5,80.28,161.5,80.28" style="stroke:#FF0000;stroke-width:1.0;"/><!--MD5=[5680b8bc52319e873993d1203e0d00e9]
@startuml
skinparam ClassArrowColor #ff0000
skinparam ClassBorderColor #ff0000
skinparam BackgroundColor transparent
hide empty methods
hide empty fields
class "ParticleSystemManager" {
    #particleSystems : ParticleSystem[]
    {static} -instance : ParticleSystemManager
    +clearParticleSystems() : void
    +deregisterParticleSystem(system: ParticleSystem) : void
    {static} +getInstance() : ParticleSystemManager
    +registerParticleSystem(system: ParticleSystem) : void
    +update(deltaT: number) : void
}
interface "Updateable" {
    +update(deltaT: number) : void
}
"Updateable" <|.. "ParticleSystemManager"
@enduml

PlantUML version 1.2021.14(Fri Nov 12 11:46:50 EST 2021)
(GPL source distribution)
Java Runtime: Java(TM) SE Runtime Environment
JVM: Java HotSpot(TM) 64-Bit Server VM
Default Encoding: UTF-8
Language: en
Country: US
--></g></svg>