<?xml version="1.0" encoding="UTF-8" standalone="no"?><svg xmlns="http://www.w3.org/2000/svg" xmlns:xlink="http://www.w3.org/1999/xlink" contentScriptType="application/ecmascript" contentStyleType="text/css" height="145px" preserveAspectRatio="none" style="width:95px;height:145px;background:#00000000;" version="1.1" viewBox="0 0 95 145" width="95px" zoomAndPan="magnify"><defs><filter height="300%" id="f126fqwgzqufhh" width="300%" x="-1" y="-1"><feGaussianBlur result="blurOut" stdDeviation="2.0"/><feColorMatrix in="blurOut" result="blurOut2" type="matrix" values="0 0 0 0 0 0 0 0 0 0 0 0 0 0 0 0 0 0 .4 0"/><feOffset dx="4.0" dy="4.0" in="blurOut2" result="blurOut3"/><feBlend in="SourceGraphic" in2="blurOut3" mode="normal"/></filter></defs><g><!--MD5=[9a39ccbd4d35b899d18dc162d69b1d63]
class Particle--><rect codeLine="6" fill="#FEFECE" filter="url(#f126fqwgzqufhh)" height="32" id="Particle" style="stroke:#FF0000;stroke-width:1.5;" width="74" x="7" y="99"/><ellipse cx="22" cy="115" fill="#ADD1B2" rx="11" ry="11" style="stroke:#FF0000;stroke-width:1.0;"/><path d="M24.4731,121.1431 Q23.8921,121.4419 23.2529,121.5913 Q22.6138,121.7407 21.9082,121.7407 Q19.4014,121.7407 18.0815,120.0889 Q16.7617,118.437 16.7617,115.3159 Q16.7617,112.1865 18.0815,110.5347 Q19.4014,108.8828 21.9082,108.8828 Q22.6138,108.8828 23.2612,109.0322 Q23.9087,109.1816 24.4731,109.4805 L24.4731,112.2031 Q23.8423,111.6221 23.2488,111.3523 Q22.6553,111.0825 22.0244,111.0825 Q20.6797,111.0825 19.9949,112.1492 Q19.3101,113.2158 19.3101,115.3159 Q19.3101,117.4077 19.9949,118.4744 Q20.6797,119.541 22.0244,119.541 Q22.6553,119.541 23.2488,119.2712 Q23.8423,119.0015 24.4731,118.4204 Z " fill="#000000"/><text fill="#000000" font-family="sans-serif" font-size="12" lengthAdjust="spacing" textLength="42" x="36" y="119.5352">Particle</text><!--MD5=[972bde5337b4335dd91fa5354c932445]
class Point--><rect codeLine="8" fill="#FEFECE" filter="url(#f126fqwgzqufhh)" height="32" id="Point" style="stroke:#FF0000;stroke-width:1.5;" width="60" x="14" y="7"/><ellipse cx="29" cy="23" fill="#ADD1B2" rx="11" ry="11" style="stroke:#FF0000;stroke-width:1.0;"/><path d="M31.4731,29.1431 Q30.8921,29.4419 30.2529,29.5913 Q29.6138,29.7407 28.9082,29.7407 Q26.4014,29.7407 25.0815,28.0889 Q23.7617,26.437 23.7617,23.3159 Q23.7617,20.1865 25.0815,18.5347 Q26.4014,16.8828 28.9082,16.8828 Q29.6138,16.8828 30.2612,17.0322 Q30.9087,17.1816 31.4731,17.4805 L31.4731,20.2031 Q30.8423,19.6221 30.2488,19.3523 Q29.6553,19.0825 29.0244,19.0825 Q27.6797,19.0825 26.9949,20.1492 Q26.3101,21.2158 26.3101,23.3159 Q26.3101,25.4077 26.9949,26.4744 Q27.6797,27.541 29.0244,27.541 Q29.6553,27.541 30.2488,27.2712 Q30.8423,27.0015 31.4731,26.4204 Z " fill="#000000"/><text fill="#000000" font-family="sans-serif" font-size="12" lengthAdjust="spacing" textLength="28" x="43" y="27.5352">Point</text><!--MD5=[bdb7d88cba7d4433736673012d14b47a]
reverse link Point to Particle--><path codeLine="10" d="M44,59.61 C44,73.31 44,88.22 44,98.96 " fill="none" id="Point-backto-Particle" style="stroke:#FF0000;stroke-width:1.0;"/><polygon fill="none" points="37,59.27,44,39.27,51,59.27,37,59.27" style="stroke:#FF0000;stroke-width:1.0;"/><!--MD5=[bbbd6e9976af88cc3b96d7f4adfa19f1]
@startuml
skinparam ClassArrowColor #ff0000
skinparam ClassBorderColor #ff0000
skinparam BackgroundColor transparent
hide empty methods
hide empty fields
class "Particle" {
}
class "Point" {
}
"Point" <|- - "Particle"
@enduml

PlantUML version 1.2021.14(Fri Nov 12 11:46:50 EST 2021)
(GPL source distribution)
Java Runtime: Java(TM) SE Runtime Environment
JVM: Java HotSpot(TM) 64-Bit Server VM
Default Encoding: UTF-8
Language: en
Country: US
--></g></svg>