<?xml version="1.0" encoding="UTF-8" standalone="no"?><svg xmlns="http://www.w3.org/2000/svg" xmlns:xlink="http://www.w3.org/1999/xlink" contentScriptType="application/ecmascript" contentStyleType="text/css" height="730px" preserveAspectRatio="none" style="width:620px;height:730px;background:#00000000;" version="1.1" viewBox="0 0 620 730" width="620px" zoomAndPan="magnify"><defs><filter height="300%" id="fzsbm3qzlpcfz" width="300%" x="-1" y="-1"><feGaussianBlur result="blurOut" stdDeviation="2.0"/><feColorMatrix in="blurOut" result="blurOut2" type="matrix" values="0 0 0 0 0 0 0 0 0 0 0 0 0 0 0 0 0 0 .4 0"/><feOffset dx="4.0" dy="4.0" in="blurOut2" result="blurOut3"/><feBlend in="SourceGraphic" in2="blurOut3" mode="normal"/></filter></defs><g><!--MD5=[84ad90da8a72978c983c597bd934c6f7]
class PhysicsManager--><rect codeLine="6" fill="#FEFECE" filter="url(#fzsbm3qzlpcfz)" height="229.3711" id="PhysicsManager" style="stroke:#FF0000;stroke-width:1.5;" width="269" x="173" y="120"/><ellipse cx="257.75" cy="136" fill="#A9DCDF" rx="11" ry="11" style="stroke:#FF0000;stroke-width:1.0;"/><path d="M257.6133,131.3481 L256.4595,136.4199 L258.7754,136.4199 Z M256.1191,129.1069 L259.1157,129.1069 L262.4609,141.5 L260.0122,141.5 L259.2485,138.437 L255.9697,138.437 L255.2227,141.5 L252.7739,141.5 Z " fill="#000000"/><text fill="#000000" font-family="sans-serif" font-size="12" font-style="italic" lengthAdjust="spacing" textLength="91" x="278.25" y="140.5352">PhysicsManager</text><line style="stroke:#FF0000;stroke-width:1.5;" x1="174" x2="441" y1="152" y2="152"/><polygon fill="none" points="184,158,188,162,184,166,180,162" style="stroke:#B38D22;stroke-width:1.0;"/><text fill="#000000" font-family="sans-serif" font-size="11" lengthAdjust="spacing" text-decoration="underline" textLength="134" x="193" y="166.6348">DEFAULT_GROUP : string</text><polygon fill="none" points="184,170.9551,188,174.9551,184,178.9551,180,174.9551" style="stroke:#B38D22;stroke-width:1.0;"/><text fill="#000000" font-family="sans-serif" font-size="11" lengthAdjust="spacing" textLength="85" x="193" y="179.5898">emitter : Emitter</text><polygon fill="none" points="184,183.9102,188,187.9102,184,191.9102,180,187.9102" style="stroke:#B38D22;stroke-width:1.0;"/><text fill="#000000" font-family="sans-serif" font-size="11" lengthAdjust="spacing" textLength="146" x="193" y="192.5449">groupMap : Map&lt;number&gt;</text><polygon fill="none" points="184,196.8652,188,200.8652,184,204.8652,180,200.8652" style="stroke:#B38D22;stroke-width:1.0;"/><text fill="#000000" font-family="sans-serif" font-size="11" lengthAdjust="spacing" textLength="118" x="193" y="205.5">groupNames : string[]</text><polygon fill="none" points="184,209.8203,188,213.8203,184,217.8203,180,213.8203" style="stroke:#B38D22;stroke-width:1.0;"/><text fill="#000000" font-family="sans-serif" font-size="11" lengthAdjust="spacing" textLength="97" x="193" y="218.4551">receiver : Receiver</text><line style="stroke:#FF0000;stroke-width:1.5;" x1="174" x2="441" y1="224.7754" y2="224.7754"/><ellipse cx="184" cy="235.7754" fill="#84BE84" rx="3" ry="3" style="stroke:#038048;stroke-width:1.0;"/><text fill="#000000" font-family="sans-serif" font-size="11" font-style="italic" lengthAdjust="spacing" textLength="212" x="193" y="239.4102">deregisterObject(object: Physical) : void</text><ellipse cx="184" cy="248.7305" fill="#84BE84" rx="3" ry="3" style="stroke:#038048;stroke-width:1.0;"/><text fill="#000000" font-family="sans-serif" font-size="11" font-style="italic" lengthAdjust="spacing" textLength="224" x="193" y="252.3652">deregisterTilemap(tilemap: Tilemap) : void</text><ellipse cx="184" cy="261.6855" fill="#84BE84" rx="3" ry="3" style="stroke:#038048;stroke-width:1.0;"/><text fill="#000000" font-family="sans-serif" font-size="11" lengthAdjust="spacing" textLength="81" x="193" y="265.3203">destroy() : void</text><ellipse cx="184" cy="274.6406" fill="#84BE84" rx="3" ry="3" style="stroke:#038048;stroke-width:1.0;"/><text fill="#000000" font-family="sans-serif" font-size="11" lengthAdjust="spacing" textLength="231" x="193" y="278.2754">getGroupNames(groups: number) : string[]</text><ellipse cx="184" cy="287.5957" fill="#84BE84" rx="3" ry="3" style="stroke:#038048;stroke-width:1.0;"/><text fill="#000000" font-family="sans-serif" font-size="11" lengthAdjust="spacing" textLength="224" x="193" y="291.2305">getGroupNumber(group: string) : number</text><ellipse cx="184" cy="300.5508" fill="#84BE84" rx="3" ry="3" style="stroke:#038048;stroke-width:1.0;"/><text fill="#000000" font-family="sans-serif" font-size="11" font-style="italic" lengthAdjust="spacing" textLength="199" x="193" y="304.1855">registerObject(object: Physical) : void</text><ellipse cx="184" cy="313.5059" fill="#84BE84" rx="3" ry="3" style="stroke:#038048;stroke-width:1.0;"/><text fill="#000000" font-family="sans-serif" font-size="11" font-style="italic" lengthAdjust="spacing" textLength="211" x="193" y="317.1406">registerTilemap(tilemap: Tilemap) : void</text><ellipse cx="184" cy="326.4609" fill="#84BE84" rx="3" ry="3" style="stroke:#038048;stroke-width:1.0;"/><text fill="#000000" font-family="sans-serif" font-size="11" lengthAdjust="spacing" textLength="243" x="193" y="330.0957">setGroup(node: Physical, group: string) : void</text><ellipse cx="184" cy="339.416" fill="#84BE84" rx="3" ry="3" style="stroke:#038048;stroke-width:1.0;"/><text fill="#000000" font-family="sans-serif" font-size="11" font-style="italic" lengthAdjust="spacing" textLength="158" x="193" y="343.0508">update(deltaT: number) : void</text><!--MD5=[8336922478991a54f539d469b4e48cc0]
class Updateable--><rect codeLine="22" fill="#FEFECE" filter="url(#fzsbm3qzlpcfz)" height="52.9551" id="Updateable" style="stroke:#FF0000;stroke-width:1.5;" width="184" x="215.5" y="7"/><ellipse cx="269.75" cy="23" fill="#B4A7E5" rx="11" ry="11" style="stroke:#FF0000;stroke-width:1.0;"/><path d="M266.1777,19.2651 L266.1777,17.1069 L273.5571,17.1069 L273.5571,19.2651 L271.0918,19.2651 L271.0918,27.3418 L273.5571,27.3418 L273.5571,29.5 L266.1777,29.5 L266.1777,27.3418 L268.6431,27.3418 L268.6431,19.2651 Z " fill="#000000"/><text fill="#000000" font-family="sans-serif" font-size="12" font-style="italic" lengthAdjust="spacing" textLength="67" x="290.25" y="27.5352">Updateable</text><line style="stroke:#FF0000;stroke-width:1.5;" x1="216.5" x2="398.5" y1="39" y2="39"/><ellipse cx="226.5" cy="50" fill="#84BE84" rx="3" ry="3" style="stroke:#038048;stroke-width:1.0;"/><text fill="#000000" font-family="sans-serif" font-size="11" lengthAdjust="spacing" textLength="158" x="235.5" y="53.6348">update(deltaT: number) : void</text><!--MD5=[cbe10c17c990c7b68ebcbaea045134a5]
class BasicPhysicsManager--><rect codeLine="26" fill="#FEFECE" filter="url(#fzsbm3qzlpcfz)" height="307.1016" id="BasicPhysicsManager" style="stroke:#FF0000;stroke-width:1.5;" width="597" x="9" y="409"/><ellipse cx="243.25" cy="425" fill="#ADD1B2" rx="11" ry="11" style="stroke:#FF0000;stroke-width:1.0;"/><path d="M245.7231,431.1431 Q245.1421,431.4419 244.5029,431.5913 Q243.8638,431.7407 243.1582,431.7407 Q240.6514,431.7407 239.3315,430.0889 Q238.0117,428.437 238.0117,425.3159 Q238.0117,422.1865 239.3315,420.5347 Q240.6514,418.8828 243.1582,418.8828 Q243.8638,418.8828 244.5112,419.0322 Q245.1587,419.1816 245.7231,419.4805 L245.7231,422.2031 Q245.0923,421.6221 244.4988,421.3523 Q243.9053,421.0825 243.2744,421.0825 Q241.9297,421.0825 241.2449,422.1492 Q240.5601,423.2158 240.5601,425.3159 Q240.5601,427.4077 241.2449,428.4744 Q241.9297,429.541 243.2744,429.541 Q243.9053,429.541 244.4988,429.2712 Q245.0923,429.0015 245.7231,428.4204 Z " fill="#000000"/><text fill="#000000" font-family="sans-serif" font-size="12" lengthAdjust="spacing" textLength="120" x="263.75" y="429.5352">BasicPhysicsManager</text><line style="stroke:#FF0000;stroke-width:1.5;" x1="10" x2="605" y1="441" y2="441"/><polygon fill="none" points="20,447,24,451,20,455,16,451" style="stroke:#B38D22;stroke-width:1.0;"/><text fill="#000000" font-family="sans-serif" font-size="11" lengthAdjust="spacing" textLength="137" x="29" y="455.6348">collisionMasks : number[]</text><polygon fill="none" points="20,459.9551,24,463.9551,20,467.9551,16,463.9551" style="stroke:#B38D22;stroke-width:1.0;"/><text fill="#000000" font-family="sans-serif" font-size="11" lengthAdjust="spacing" text-decoration="underline" textLength="134" x="29" y="468.5898">DEFAULT_GROUP : string</text><polygon fill="none" points="20,472.9102,24,476.9102,20,480.9102,16,476.9102" style="stroke:#B38D22;stroke-width:1.0;"/><text fill="#000000" font-family="sans-serif" font-size="11" lengthAdjust="spacing" textLength="139" x="29" y="481.5449">dynamicNodes : Physical[]</text><polygon fill="none" points="20,485.8652,24,489.8652,20,493.8652,16,489.8652" style="stroke:#B38D22;stroke-width:1.0;"/><text fill="#000000" font-family="sans-serif" font-size="11" lengthAdjust="spacing" textLength="85" x="29" y="494.5">emitter : Emitter</text><polygon fill="none" points="20,498.8203,24,502.8203,20,506.8203,16,502.8203" style="stroke:#B38D22;stroke-width:1.0;"/><text fill="#000000" font-family="sans-serif" font-size="11" lengthAdjust="spacing" textLength="146" x="29" y="507.4551">groupMap : Map&lt;number&gt;</text><polygon fill="none" points="20,511.7754,24,515.7754,20,519.7754,16,515.7754" style="stroke:#B38D22;stroke-width:1.0;"/><text fill="#000000" font-family="sans-serif" font-size="11" lengthAdjust="spacing" textLength="118" x="29" y="520.4102">groupNames : string[]</text><polygon fill="none" points="20,524.7305,24,528.7305,20,532.7305,16,528.7305" style="stroke:#B38D22;stroke-width:1.0;"/><text fill="#000000" font-family="sans-serif" font-size="11" lengthAdjust="spacing" textLength="97" x="29" y="533.3652">receiver : Receiver</text><polygon fill="none" points="20,537.6855,24,541.6855,20,545.6855,16,541.6855" style="stroke:#B38D22;stroke-width:1.0;"/><text fill="#000000" font-family="sans-serif" font-size="11" lengthAdjust="spacing" textLength="123" x="29" y="546.3203">staticNodes : Physical[]</text><polygon fill="none" points="20,550.6406,24,554.6406,20,558.6406,16,554.6406" style="stroke:#B38D22;stroke-width:1.0;"/><text fill="#000000" font-family="sans-serif" font-size="11" lengthAdjust="spacing" textLength="104" x="29" y="559.2754">tilemaps : Tilemap[]</text><line style="stroke:#FF0000;stroke-width:1.5;" x1="10" x2="605" y1="565.5957" y2="565.5957"/><ellipse cx="20" cy="576.5957" fill="#84BE84" rx="3" ry="3" style="stroke:#038048;stroke-width:1.0;"/><text fill="#000000" font-family="sans-serif" font-size="11" lengthAdjust="spacing" textLength="206" x="29" y="580.2305">deregisterObject(node: Physical) : void</text><ellipse cx="20" cy="589.5508" fill="#84BE84" rx="3" ry="3" style="stroke:#038048;stroke-width:1.0;"/><text fill="#000000" font-family="sans-serif" font-size="11" lengthAdjust="spacing" textLength="224" x="29" y="593.1855">deregisterTilemap(tilemap: Tilemap) : void</text><ellipse cx="20" cy="602.5059" fill="#84BE84" rx="3" ry="3" style="stroke:#038048;stroke-width:1.0;"/><text fill="#000000" font-family="sans-serif" font-size="11" lengthAdjust="spacing" textLength="81" x="29" y="606.1406">destroy() : void</text><ellipse cx="20" cy="615.4609" fill="#84BE84" rx="3" ry="3" style="stroke:#038048;stroke-width:1.0;"/><text fill="#000000" font-family="sans-serif" font-size="11" lengthAdjust="spacing" textLength="231" x="29" y="619.0957">getGroupNames(groups: number) : string[]</text><ellipse cx="20" cy="628.416" fill="#84BE84" rx="3" ry="3" style="stroke:#038048;stroke-width:1.0;"/><text fill="#000000" font-family="sans-serif" font-size="11" lengthAdjust="spacing" textLength="224" x="29" y="632.0508">getGroupNumber(group: string) : number</text><ellipse cx="20" cy="641.3711" fill="#84BE84" rx="3" ry="3" style="stroke:#038048;stroke-width:1.0;"/><text fill="#000000" font-family="sans-serif" font-size="11" lengthAdjust="spacing" textLength="193" x="29" y="645.0059">registerObject(node: Physical) : void</text><ellipse cx="20" cy="654.3262" fill="#84BE84" rx="3" ry="3" style="stroke:#038048;stroke-width:1.0;"/><text fill="#000000" font-family="sans-serif" font-size="11" lengthAdjust="spacing" textLength="211" x="29" y="657.9609">registerTilemap(tilemap: Tilemap) : void</text><ellipse cx="20" cy="667.2813" fill="#84BE84" rx="3" ry="3" style="stroke:#038048;stroke-width:1.0;"/><text fill="#000000" font-family="sans-serif" font-size="11" lengthAdjust="spacing" textLength="243" x="29" y="670.916">setGroup(node: Physical, group: string) : void</text><ellipse cx="20" cy="680.2363" fill="#84BE84" rx="3" ry="3" style="stroke:#038048;stroke-width:1.0;"/><text fill="#000000" font-family="sans-serif" font-size="11" lengthAdjust="spacing" textLength="158" x="29" y="683.8711">update(deltaT: number) : void</text><polygon fill="#FFFF44" points="20,688.1914,24,692.1914,20,696.1914,16,692.1914" style="stroke:#B38D22;stroke-width:1.0;"/><text fill="#000000" font-family="sans-serif" font-size="11" lengthAdjust="spacing" textLength="571" x="29" y="696.8262">collideWithOrthogonalTilemap(node: Physical, tilemap: OrthogonalTilemap, overlaps: AreaCollision[]) : void</text><polygon fill="#FFFF44" points="20,701.1465,24,705.1465,20,709.1465,16,705.1465" style="stroke:#B38D22;stroke-width:1.0;"/><text fill="#000000" font-family="sans-serif" font-size="11" lengthAdjust="spacing" textLength="273" x="29" y="709.7813">parseOptions(options: Record&lt;string, any&gt;) : void</text><!--MD5=[c2b150d3c5ac8bfe69c3f1fa48cf54bb]
reverse link Updateable to PhysicsManager--><path codeLine="25" d="M307.5,80.42 C307.5,92.39 307.5,105.83 307.5,119.65 " fill="none" id="Updateable-backto-PhysicsManager" style="stroke:#FF0000;stroke-width:1.0;stroke-dasharray:7.0,7.0;"/><polygon fill="none" points="300.5,80.11,307.5,60.11,314.5,80.11,300.5,80.11" style="stroke:#FF0000;stroke-width:1.0;"/><!--MD5=[b6c5e88c8b62f078bd21ec84262eab21]
reverse link PhysicsManager to BasicPhysicsManager--><path codeLine="48" d="M307.5,369.27 C307.5,382.3 307.5,395.58 307.5,408.78 " fill="none" id="PhysicsManager-backto-BasicPhysicsManager" style="stroke:#FF0000;stroke-width:1.0;"/><polygon fill="none" points="300.5,369.06,307.5,349.06,314.5,369.06,300.5,369.06" style="stroke:#FF0000;stroke-width:1.0;"/><!--MD5=[a405ea4a60e28c2f33382f7d47e21332]
@startuml
skinparam ClassArrowColor #ff0000
skinparam ClassBorderColor #ff0000
skinparam BackgroundColor transparent
hide empty methods
hide empty fields
abstract class "PhysicsManager" {
    {static} #DEFAULT_GROUP : string
    #emitter : Emitter
    #groupMap : Map<number>
    #groupNames : string[]
    #receiver : Receiver
    {abstract} +deregisterObject(object: Physical) : void
    {abstract} +deregisterTilemap(tilemap: Tilemap) : void
    +destroy() : void
    +getGroupNames(groups: number) : string[]
    +getGroupNumber(group: string) : number
    {abstract} +registerObject(object: Physical) : void
    {abstract} +registerTilemap(tilemap: Tilemap) : void
    +setGroup(node: Physical, group: string) : void
    {abstract} +update(deltaT: number) : void
}
interface "Updateable" {
    +update(deltaT: number) : void
}
"Updateable" <|.. "PhysicsManager"
class "BasicPhysicsManager" {
    #collisionMasks : number[]
    {static} #DEFAULT_GROUP : string
    #dynamicNodes : Physical[]
    #emitter : Emitter
    #groupMap : Map<number>
    #groupNames : string[]
    #receiver : Receiver
    #staticNodes : Physical[]
    #tilemaps : Tilemap[]
    +deregisterObject(node: Physical) : void
    +deregisterTilemap(tilemap: Tilemap) : void
    +destroy() : void
    +getGroupNames(groups: number) : string[]
    +getGroupNumber(group: string) : number
    +registerObject(node: Physical) : void
    +registerTilemap(tilemap: Tilemap) : void
    +setGroup(node: Physical, group: string) : void
    +update(deltaT: number) : void
    #collideWithOrthogonalTilemap(node: Physical, tilemap: OrthogonalTilemap, overlaps: AreaCollision[]) : void
    #parseOptions(options: Record<string, any>) : void
}
"PhysicsManager" <|- - "BasicPhysicsManager"
@enduml

PlantUML version 1.2021.14(Fri Nov 12 11:46:50 EST 2021)
(GPL source distribution)
Java Runtime: Java(TM) SE Runtime Environment
JVM: Java HotSpot(TM) 64-Bit Server VM
Default Encoding: UTF-8
Language: en
Country: US
--></g></svg>