<?xml version="1.0" encoding="UTF-8" standalone="no"?><svg xmlns="http://www.w3.org/2000/svg" xmlns:xlink="http://www.w3.org/1999/xlink" contentScriptType="application/ecmascript" contentStyleType="text/css" height="237px" preserveAspectRatio="none" style="width:98px;height:237px;background:#00000000;" version="1.1" viewBox="0 0 98 237" width="98px" zoomAndPan="magnify"><defs><filter height="300%" id="f6s7jma3d0k6c" width="300%" x="-1" y="-1"><feGaussianBlur result="blurOut" stdDeviation="2.0"/><feColorMatrix in="blurOut" result="blurOut2" type="matrix" values="0 0 0 0 0 0 0 0 0 0 0 0 0 0 0 0 0 0 .4 0"/><feOffset dx="4.0" dy="4.0" in="blurOut2" result="blurOut3"/><feBlend in="SourceGraphic" in2="blurOut3" mode="normal"/></filter></defs><g><!--MD5=[972bde5337b4335dd91fa5354c932445]
class Point--><rect codeLine="6" fill="#FEFECE" filter="url(#f6s7jma3d0k6c)" height="32" id="Point" style="stroke:#FF0000;stroke-width:1.5;" width="60" x="15.5" y="99"/><ellipse cx="30.5" cy="115" fill="#ADD1B2" rx="11" ry="11" style="stroke:#FF0000;stroke-width:1.0;"/><path d="M32.9731,121.1431 Q32.3921,121.4419 31.7529,121.5913 Q31.1138,121.7407 30.4082,121.7407 Q27.9014,121.7407 26.5815,120.0889 Q25.2617,118.437 25.2617,115.3159 Q25.2617,112.1865 26.5815,110.5347 Q27.9014,108.8828 30.4082,108.8828 Q31.1138,108.8828 31.7612,109.0322 Q32.4087,109.1816 32.9731,109.4805 L32.9731,112.2031 Q32.3423,111.6221 31.7488,111.3523 Q31.1553,111.0825 30.5244,111.0825 Q29.1797,111.0825 28.4949,112.1492 Q27.8101,113.2158 27.8101,115.3159 Q27.8101,117.4077 28.4949,118.4744 Q29.1797,119.541 30.5244,119.541 Q31.1553,119.541 31.7488,119.2712 Q32.3423,119.0015 32.9731,118.4204 Z " fill="#000000"/><text fill="#000000" font-family="sans-serif" font-size="12" lengthAdjust="spacing" textLength="28" x="44.5" y="119.5352">Point</text><!--MD5=[7340ddc93ee3d3f5fef34806a115f504]
class Graphic--><rect codeLine="8" fill="#FEFECE" filter="url(#f6s7jma3d0k6c)" height="32" id="Graphic" style="stroke:#FF0000;stroke-width:1.5;" width="77" x="7" y="7"/><ellipse cx="22" cy="23" fill="#A9DCDF" rx="11" ry="11" style="stroke:#FF0000;stroke-width:1.0;"/><path d="M21.8633,18.3481 L20.7095,23.4199 L23.0254,23.4199 Z M20.3691,16.1069 L23.3657,16.1069 L26.7109,28.5 L24.2622,28.5 L23.4985,25.437 L20.2197,25.437 L19.4727,28.5 L17.0239,28.5 Z " fill="#000000"/><text fill="#000000" font-family="sans-serif" font-size="12" font-style="italic" lengthAdjust="spacing" textLength="45" x="36" y="27.5352">Graphic</text><!--MD5=[9a39ccbd4d35b899d18dc162d69b1d63]
class Particle--><rect codeLine="11" fill="#FEFECE" filter="url(#f6s7jma3d0k6c)" height="32" id="Particle" style="stroke:#FF0000;stroke-width:1.5;" width="74" x="8.5" y="191"/><ellipse cx="23.5" cy="207" fill="#ADD1B2" rx="11" ry="11" style="stroke:#FF0000;stroke-width:1.0;"/><path d="M25.9731,213.1431 Q25.3921,213.4419 24.7529,213.5913 Q24.1138,213.7407 23.4082,213.7407 Q20.9014,213.7407 19.5815,212.0889 Q18.2617,210.437 18.2617,207.3159 Q18.2617,204.1865 19.5815,202.5347 Q20.9014,200.8828 23.4082,200.8828 Q24.1138,200.8828 24.7612,201.0322 Q25.4087,201.1816 25.9731,201.4805 L25.9731,204.2031 Q25.3423,203.6221 24.7488,203.3523 Q24.1553,203.0825 23.5244,203.0825 Q22.1797,203.0825 21.4949,204.1492 Q20.8101,205.2158 20.8101,207.3159 Q20.8101,209.4077 21.4949,210.4744 Q22.1797,211.541 23.5244,211.541 Q24.1553,211.541 24.7488,211.2712 Q25.3423,211.0015 25.9731,210.4204 Z " fill="#000000"/><text fill="#000000" font-family="sans-serif" font-size="12" lengthAdjust="spacing" textLength="42" x="37.5" y="211.5352">Particle</text><!--MD5=[a2cbc0813eaaca3822c909d1bb909502]
reverse link Graphic to Point--><path codeLine="10" d="M45.5,59.61 C45.5,73.31 45.5,88.22 45.5,98.96 " fill="none" id="Graphic-backto-Point" style="stroke:#FF0000;stroke-width:1.0;"/><polygon fill="none" points="38.5,59.27,45.5,39.27,52.5,59.27,38.5,59.27" style="stroke:#FF0000;stroke-width:1.0;"/><!--MD5=[bdb7d88cba7d4433736673012d14b47a]
reverse link Point to Particle--><path codeLine="13" d="M45.5,151.61 C45.5,165.31 45.5,180.22 45.5,190.96 " fill="none" id="Point-backto-Particle" style="stroke:#FF0000;stroke-width:1.0;"/><polygon fill="none" points="38.5,151.27,45.5,131.27,52.5,151.27,38.5,151.27" style="stroke:#FF0000;stroke-width:1.0;"/><!--MD5=[e32cb8afa242223a8cff96573ee6c4f7]
@startuml
skinparam ClassArrowColor #ff0000
skinparam ClassBorderColor #ff0000
skinparam BackgroundColor transparent
hide empty methods
hide empty fields
class "Point" {
}
abstract class "Graphic" {
}
"Graphic" <|- - "Point"
class "Particle" {
}
"Point" <|- - "Particle"
@enduml

PlantUML version 1.2021.14(Fri Nov 12 11:46:50 EST 2021)
(GPL source distribution)
Java Runtime: Java(TM) SE Runtime Environment
JVM: Java HotSpot(TM) 64-Bit Server VM
Default Encoding: UTF-8
Language: en
Country: US
--></g></svg>