<?xml version="1.0" encoding="UTF-8" standalone="no"?><svg xmlns="http://www.w3.org/2000/svg" xmlns:xlink="http://www.w3.org/1999/xlink" contentScriptType="application/ecmascript" contentStyleType="text/css" height="145px" preserveAspectRatio="none" style="width:150px;height:145px;background:#00000000;" version="1.1" viewBox="0 0 150 145" width="150px" zoomAndPan="magnify"><defs><filter height="300%" id="fj6liq9siklv5" width="300%" x="-1" y="-1"><feGaussianBlur result="blurOut" stdDeviation="2.0"/><feColorMatrix in="blurOut" result="blurOut2" type="matrix" values="0 0 0 0 0 0 0 0 0 0 0 0 0 0 0 0 0 0 .4 0"/><feOffset dx="4.0" dy="4.0" in="blurOut2" result="blurOut3"/><feBlend in="SourceGraphic" in2="blurOut3" mode="normal"/></filter></defs><g><!--MD5=[7f4652fd4e94a9ca0d88a5de6f2f5d71]
class PointShaderType--><rect codeLine="6" fill="#FEFECE" filter="url(#fj6liq9siklv5)" height="32" id="PointShaderType" style="stroke:#FF0000;stroke-width:1.5;" width="129" x="7" y="99"/><ellipse cx="22" cy="115" fill="#ADD1B2" rx="11" ry="11" style="stroke:#FF0000;stroke-width:1.0;"/><path d="M24.4731,121.1431 Q23.8921,121.4419 23.2529,121.5913 Q22.6138,121.7407 21.9082,121.7407 Q19.4014,121.7407 18.0815,120.0889 Q16.7617,118.437 16.7617,115.3159 Q16.7617,112.1865 18.0815,110.5347 Q19.4014,108.8828 21.9082,108.8828 Q22.6138,108.8828 23.2612,109.0322 Q23.9087,109.1816 24.4731,109.4805 L24.4731,112.2031 Q23.8423,111.6221 23.2488,111.3523 Q22.6553,111.0825 22.0244,111.0825 Q20.6797,111.0825 19.9949,112.1492 Q19.3101,113.2158 19.3101,115.3159 Q19.3101,117.4077 19.9949,118.4744 Q20.6797,119.541 22.0244,119.541 Q22.6553,119.541 23.2488,119.2712 Q23.8423,119.0015 24.4731,118.4204 Z " fill="#000000"/><text fill="#000000" font-family="sans-serif" font-size="12" lengthAdjust="spacing" textLength="97" x="36" y="119.5352">PointShaderType</text><!--MD5=[22fd9abb6b5f6baa829d9b24081553a5]
class ShaderType--><rect codeLine="8" fill="#FEFECE" filter="url(#fj6liq9siklv5)" height="32" id="ShaderType" style="stroke:#FF0000;stroke-width:1.5;" width="101" x="21" y="7"/><ellipse cx="36" cy="23" fill="#A9DCDF" rx="11" ry="11" style="stroke:#FF0000;stroke-width:1.0;"/><path d="M35.8633,18.3481 L34.7095,23.4199 L37.0254,23.4199 Z M34.3691,16.1069 L37.3657,16.1069 L40.7109,28.5 L38.2622,28.5 L37.4985,25.437 L34.2197,25.437 L33.4727,28.5 L31.0239,28.5 Z " fill="#000000"/><text fill="#000000" font-family="sans-serif" font-size="12" font-style="italic" lengthAdjust="spacing" textLength="69" x="50" y="27.5352">ShaderType</text><!--MD5=[131c144c9451913a8ecb16e04bde4db5]
reverse link ShaderType to PointShaderType--><path codeLine="10" d="M71.5,59.61 C71.5,73.31 71.5,88.22 71.5,98.96 " fill="none" id="ShaderType-backto-PointShaderType" style="stroke:#FF0000;stroke-width:1.0;"/><polygon fill="none" points="64.5,59.27,71.5,39.27,78.5,59.27,64.5,59.27" style="stroke:#FF0000;stroke-width:1.0;"/><!--MD5=[44048107e270ea12404b70ad55653240]
@startuml
skinparam ClassArrowColor #ff0000
skinparam ClassBorderColor #ff0000
skinparam BackgroundColor transparent
hide empty methods
hide empty fields
class "PointShaderType" {
}
abstract class "ShaderType" {
}
"ShaderType" <|- - "PointShaderType"
@enduml

PlantUML version 1.2021.14(Fri Nov 12 11:46:50 EST 2021)
(GPL source distribution)
Java Runtime: Java(TM) SE Runtime Environment
JVM: Java HotSpot(TM) 64-Bit Server VM
Default Encoding: UTF-8
Language: en
Country: US
--></g></svg>