<?xml version="1.0" encoding="UTF-8" standalone="no"?><svg xmlns="http://www.w3.org/2000/svg" xmlns:xlink="http://www.w3.org/1999/xlink" contentScriptType="application/ecmascript" contentStyleType="text/css" height="345px" preserveAspectRatio="none" style="width:441px;height:345px;background:#00000000;" version="1.1" viewBox="0 0 441 345" width="441px" zoomAndPan="magnify"><defs><filter height="300%" id="ffgc9pjpjf2e2" width="300%" x="-1" y="-1"><feGaussianBlur result="blurOut" stdDeviation="2.0"/><feColorMatrix in="blurOut" result="blurOut2" type="matrix" values="0 0 0 0 0 0 0 0 0 0 0 0 0 0 0 0 0 0 .4 0"/><feOffset dx="4.0" dy="4.0" in="blurOut2" result="blurOut3"/><feBlend in="SourceGraphic" in2="blurOut3" mode="normal"/></filter></defs><g><!--MD5=[7f4652fd4e94a9ca0d88a5de6f2f5d71]
class PointShaderType--><rect codeLine="6" fill="#FEFECE" filter="url(#ffgc9pjpjf2e2)" height="138.6855" id="PointShaderType" style="stroke:#FF0000;stroke-width:1.5;" width="418" x="9" y="193"/><ellipse cx="165.25" cy="209" fill="#ADD1B2" rx="11" ry="11" style="stroke:#FF0000;stroke-width:1.0;"/><path d="M167.7231,215.1431 Q167.1421,215.4419 166.5029,215.5913 Q165.8638,215.7407 165.1582,215.7407 Q162.6514,215.7407 161.3315,214.0889 Q160.0117,212.437 160.0117,209.3159 Q160.0117,206.1865 161.3315,204.5347 Q162.6514,202.8828 165.1582,202.8828 Q165.8638,202.8828 166.5112,203.0322 Q167.1587,203.1816 167.7231,203.4805 L167.7231,206.2031 Q167.0923,205.6221 166.4988,205.3523 Q165.9053,205.0825 165.2744,205.0825 Q163.9297,205.0825 163.2449,206.1492 Q162.5601,207.2158 162.5601,209.3159 Q162.5601,211.4077 163.2449,212.4744 Q163.9297,213.541 165.2744,213.541 Q165.9053,213.541 166.4988,213.2712 Q167.0923,213.0015 167.7231,212.4204 Z " fill="#000000"/><text fill="#000000" font-family="sans-serif" font-size="12" lengthAdjust="spacing" textLength="97" x="185.75" y="213.5352">PointShaderType</text><line style="stroke:#FF0000;stroke-width:1.5;" x1="10" x2="426" y1="225" y2="225"/><polygon fill="none" points="20,231,24,235,20,239,16,235" style="stroke:#B38D22;stroke-width:1.0;"/><text fill="#000000" font-family="sans-serif" font-size="11" lengthAdjust="spacing" textLength="128" x="29" y="239.6348">bufferObjectKey : string</text><polygon fill="none" points="20,243.9551,24,247.9551,20,251.9551,16,247.9551" style="stroke:#B38D22;stroke-width:1.0;"/><text fill="#000000" font-family="sans-serif" font-size="11" lengthAdjust="spacing" textLength="70" x="29" y="252.5898">name : string</text><polygon fill="none" points="20,256.9102,24,260.9102,20,264.9102,16,260.9102" style="stroke:#B38D22;stroke-width:1.0;"/><text fill="#000000" font-family="sans-serif" font-size="11" lengthAdjust="spacing" textLength="107" x="29" y="265.5449">programKey : string</text><polygon fill="none" points="20,269.8652,24,273.8652,20,277.8652,16,273.8652" style="stroke:#B38D22;stroke-width:1.0;"/><text fill="#000000" font-family="sans-serif" font-size="11" lengthAdjust="spacing" textLength="199" x="29" y="278.5">resourceManager : ResourceManager</text><line style="stroke:#FF0000;stroke-width:1.5;" x1="10" x2="426" y1="284.8203" y2="284.8203"/><ellipse cx="20" cy="295.8203" fill="#84BE84" rx="3" ry="3" style="stroke:#038048;stroke-width:1.0;"/><text fill="#000000" font-family="sans-serif" font-size="11" lengthAdjust="spacing" textLength="251" x="29" y="299.4551">getOptions(point: Point) : Record&lt;string, any&gt;</text><ellipse cx="20" cy="308.7754" fill="#84BE84" rx="3" ry="3" style="stroke:#038048;stroke-width:1.0;"/><text fill="#000000" font-family="sans-serif" font-size="11" lengthAdjust="spacing" textLength="124" x="29" y="312.4102">initBufferObject() : void</text><ellipse cx="20" cy="321.7305" fill="#84BE84" rx="3" ry="3" style="stroke:#038048;stroke-width:1.0;"/><text fill="#000000" font-family="sans-serif" font-size="11" lengthAdjust="spacing" textLength="392" x="29" y="325.3652">render(gl: WebGLRenderingContext, options: Record&lt;string, any&gt;) : void</text><!--MD5=[22fd9abb6b5f6baa829d9b24081553a5]
class ShaderType--><rect codeLine="15" fill="#FEFECE" filter="url(#ffgc9pjpjf2e2)" height="125.7305" id="ShaderType" style="stroke:#FF0000;stroke-width:1.5;" width="418" x="9" y="7"/><ellipse cx="179.25" cy="23" fill="#A9DCDF" rx="11" ry="11" style="stroke:#FF0000;stroke-width:1.0;"/><path d="M179.1133,18.3481 L177.9595,23.4199 L180.2754,23.4199 Z M177.6191,16.1069 L180.6157,16.1069 L183.9609,28.5 L181.5122,28.5 L180.7485,25.437 L177.4697,25.437 L176.7227,28.5 L174.2739,28.5 Z " fill="#000000"/><text fill="#000000" font-family="sans-serif" font-size="12" font-style="italic" lengthAdjust="spacing" textLength="69" x="199.75" y="27.5352">ShaderType</text><line style="stroke:#FF0000;stroke-width:1.5;" x1="10" x2="426" y1="39" y2="39"/><polygon fill="none" points="20,45,24,49,20,53,16,49" style="stroke:#B38D22;stroke-width:1.0;"/><text fill="#000000" font-family="sans-serif" font-size="11" lengthAdjust="spacing" textLength="70" x="29" y="53.6348">name : string</text><polygon fill="none" points="20,57.9551,24,61.9551,20,65.9551,16,61.9551" style="stroke:#B38D22;stroke-width:1.0;"/><text fill="#000000" font-family="sans-serif" font-size="11" lengthAdjust="spacing" textLength="107" x="29" y="66.5898">programKey : string</text><polygon fill="none" points="20,70.9102,24,74.9102,20,78.9102,16,74.9102" style="stroke:#B38D22;stroke-width:1.0;"/><text fill="#000000" font-family="sans-serif" font-size="11" lengthAdjust="spacing" textLength="199" x="29" y="79.5449">resourceManager : ResourceManager</text><line style="stroke:#FF0000;stroke-width:1.5;" x1="10" x2="426" y1="85.8652" y2="85.8652"/><ellipse cx="20" cy="96.8652" fill="#84BE84" rx="3" ry="3" style="stroke:#038048;stroke-width:1.0;"/><text fill="#000000" font-family="sans-serif" font-size="11" lengthAdjust="spacing" textLength="290" x="29" y="100.5">getOptions(node: CanvasNode) : Record&lt;string, any&gt;</text><ellipse cx="20" cy="109.8203" fill="#84BE84" rx="3" ry="3" style="stroke:#038048;stroke-width:1.0;"/><text fill="#000000" font-family="sans-serif" font-size="11" font-style="italic" lengthAdjust="spacing" textLength="124" x="29" y="113.4551">initBufferObject() : void</text><ellipse cx="20" cy="122.7754" fill="#84BE84" rx="3" ry="3" style="stroke:#038048;stroke-width:1.0;"/><text fill="#000000" font-family="sans-serif" font-size="11" font-style="italic" lengthAdjust="spacing" textLength="392" x="29" y="126.4102">render(gl: WebGLRenderingContext, options: Record&lt;string, any&gt;) : void</text><!--MD5=[131c144c9451913a8ecb16e04bde4db5]
reverse link ShaderType to PointShaderType--><path codeLine="23" d="M218,153.39 C218,166.57 218,180.08 218,192.88 " fill="none" id="ShaderType-backto-PointShaderType" style="stroke:#FF0000;stroke-width:1.0;"/><polygon fill="none" points="211,153.11,218,133.11,225,153.11,211,153.11" style="stroke:#FF0000;stroke-width:1.0;"/><!--MD5=[9758561441c660f9c2406eae748005b4]
@startuml
skinparam ClassArrowColor #ff0000
skinparam ClassBorderColor #ff0000
skinparam BackgroundColor transparent
hide empty methods
hide empty fields
class "PointShaderType" {
    #bufferObjectKey : string
    #name : string
    #programKey : string
    #resourceManager : ResourceManager
    +getOptions(point: Point) : Record<string, any>
    +initBufferObject() : void
    +render(gl: WebGLRenderingContext, options: Record<string, any>) : void
}
abstract class "ShaderType" {
    #name : string
    #programKey : string
    #resourceManager : ResourceManager
    +getOptions(node: CanvasNode) : Record<string, any>
    {abstract} +initBufferObject() : void
    {abstract} +render(gl: WebGLRenderingContext, options: Record<string, any>) : void
}
"ShaderType" <|- - "PointShaderType"
@enduml

PlantUML version 1.2021.14(Fri Nov 12 11:46:50 EST 2021)
(GPL source distribution)
Java Runtime: Java(TM) SE Runtime Environment
JVM: Java HotSpot(TM) 64-Bit Server VM
Default Encoding: UTF-8
Language: en
Country: US
--></g></svg>