<?xml version="1.0" encoding="UTF-8" standalone="no"?><svg xmlns="http://www.w3.org/2000/svg" xmlns:xlink="http://www.w3.org/1999/xlink" contentScriptType="application/ecmascript" contentStyleType="text/css" height="145px" preserveAspectRatio="none" style="width:261px;height:145px;background:#00000000;" version="1.1" viewBox="0 0 261 145" width="261px" zoomAndPan="magnify"><defs><filter height="300%" id="f11jp5o1l39qj2" width="300%" x="-1" y="-1"><feGaussianBlur result="blurOut" stdDeviation="2.0"/><feColorMatrix in="blurOut" result="blurOut2" type="matrix" values="0 0 0 0 0 0 0 0 0 0 0 0 0 0 0 0 0 0 .4 0"/><feOffset dx="4.0" dy="4.0" in="blurOut2" result="blurOut3"/><feBlend in="SourceGraphic" in2="blurOut3" mode="normal"/></filter></defs><g><!--MD5=[0461493972edc2eae6aadcaef93917de]
class PositionGraph--><rect codeLine="6" fill="#FEFECE" filter="url(#f11jp5o1l39qj2)" height="32" id="PositionGraph" style="stroke:#FF0000;stroke-width:1.5;" width="112" x="54" y="99"/><ellipse cx="69" cy="115" fill="#ADD1B2" rx="11" ry="11" style="stroke:#FF0000;stroke-width:1.0;"/><path d="M71.4731,121.1431 Q70.8921,121.4419 70.2529,121.5913 Q69.6138,121.7407 68.9082,121.7407 Q66.4014,121.7407 65.0815,120.0889 Q63.7617,118.437 63.7617,115.3159 Q63.7617,112.1865 65.0815,110.5347 Q66.4014,108.8828 68.9082,108.8828 Q69.6138,108.8828 70.2612,109.0322 Q70.9087,109.1816 71.4731,109.4805 L71.4731,112.2031 Q70.8423,111.6221 70.2488,111.3523 Q69.6553,111.0825 69.0244,111.0825 Q67.6797,111.0825 66.9949,112.1492 Q66.3101,113.2158 66.3101,115.3159 Q66.3101,117.4077 66.9949,118.4744 Q67.6797,119.541 69.0244,119.541 Q69.6553,119.541 70.2488,119.2712 Q70.8423,119.0015 71.4731,118.4204 Z " fill="#000000"/><text fill="#000000" font-family="sans-serif" font-size="12" lengthAdjust="spacing" textLength="80" x="83" y="119.5352">PositionGraph</text><!--MD5=[706e73df52f3df32f52be1ce9adb217e]
class Graph--><rect codeLine="8" fill="#FEFECE" filter="url(#f11jp5o1l39qj2)" height="32" id="Graph" style="stroke:#FF0000;stroke-width:1.5;" width="68" x="7" y="7"/><ellipse cx="22" cy="23" fill="#ADD1B2" rx="11" ry="11" style="stroke:#FF0000;stroke-width:1.0;"/><path d="M24.4731,29.1431 Q23.8921,29.4419 23.2529,29.5913 Q22.6138,29.7407 21.9082,29.7407 Q19.4014,29.7407 18.0815,28.0889 Q16.7617,26.437 16.7617,23.3159 Q16.7617,20.1865 18.0815,18.5347 Q19.4014,16.8828 21.9082,16.8828 Q22.6138,16.8828 23.2612,17.0322 Q23.9087,17.1816 24.4731,17.4805 L24.4731,20.2031 Q23.8423,19.6221 23.2488,19.3523 Q22.6553,19.0825 22.0244,19.0825 Q20.6797,19.0825 19.9949,20.1492 Q19.3101,21.2158 19.3101,23.3159 Q19.3101,25.4077 19.9949,26.4744 Q20.6797,27.541 22.0244,27.541 Q22.6553,27.541 23.2488,27.2712 Q23.8423,27.0015 24.4731,26.4204 Z " fill="#000000"/><text fill="#000000" font-family="sans-serif" font-size="12" lengthAdjust="spacing" textLength="36" x="36" y="27.5352">Graph</text><!--MD5=[412067033dd25c37850800261ed04026]
class DebugRenderable--><rect codeLine="11" fill="#FEFECE" filter="url(#f11jp5o1l39qj2)" height="32" id="DebugRenderable" style="stroke:#FF0000;stroke-width:1.5;" width="137" x="110.5" y="7"/><ellipse cx="125.5" cy="23" fill="#B4A7E5" rx="11" ry="11" style="stroke:#FF0000;stroke-width:1.0;"/><path d="M121.9277,19.2651 L121.9277,17.1069 L129.3071,17.1069 L129.3071,19.2651 L126.8418,19.2651 L126.8418,27.3418 L129.3071,27.3418 L129.3071,29.5 L121.9277,29.5 L121.9277,27.3418 L124.3931,27.3418 L124.3931,19.2651 Z " fill="#000000"/><text fill="#000000" font-family="sans-serif" font-size="12" font-style="italic" lengthAdjust="spacing" textLength="105" x="139.5" y="27.5352">DebugRenderable</text><!--MD5=[1c5a24189b0869533cedb34256f8a4cc]
reverse link Graph to PositionGraph--><path codeLine="10" d="M64.93,55.21 C76.29,70.03 89.34,87.06 98.47,98.96 " fill="none" id="Graph-backto-PositionGraph" style="stroke:#FF0000;stroke-width:1.0;"/><polygon fill="none" points="59.32,59.4,52.7,39.27,70.43,50.88,59.32,59.4" style="stroke:#FF0000;stroke-width:1.0;"/><!--MD5=[b51fbd1b94acc6a3cab3e95dd21a3d46]
reverse link DebugRenderable to PositionGraph--><path codeLine="13" d="M155.07,55.21 C143.71,70.03 130.66,87.06 121.53,98.96 " fill="none" id="DebugRenderable-backto-PositionGraph" style="stroke:#FF0000;stroke-width:1.0;stroke-dasharray:7.0,7.0;"/><polygon fill="none" points="149.57,50.88,167.3,39.27,160.68,59.4,149.57,50.88" style="stroke:#FF0000;stroke-width:1.0;"/><!--MD5=[cc4b30db55f0bc41fb216c2ea66bd112]
@startuml
skinparam ClassArrowColor #ff0000
skinparam ClassBorderColor #ff0000
skinparam BackgroundColor transparent
hide empty methods
hide empty fields
class "PositionGraph" {
}
class "Graph" {
}
"Graph" <|- - "PositionGraph"
interface "DebugRenderable" {
}
"DebugRenderable" <|.. "PositionGraph"
@enduml

PlantUML version 1.2021.14(Fri Nov 12 11:46:50 EST 2021)
(GPL source distribution)
Java Runtime: Java(TM) SE Runtime Environment
JVM: Java HotSpot(TM) 64-Bit Server VM
Default Encoding: UTF-8
Language: en
Country: US
--></g></svg>