<?xml version="1.0" encoding="UTF-8" standalone="no"?><svg xmlns="http://www.w3.org/2000/svg" xmlns:xlink="http://www.w3.org/1999/xlink" contentScriptType="application/ecmascript" contentStyleType="text/css" height="635px" preserveAspectRatio="none" style="width:1347px;height:635px;background:#00000000;" version="1.1" viewBox="0 0 1347 635" width="1347px" zoomAndPan="magnify"><defs><filter height="300%" id="f1e42zubx2q700" width="300%" x="-1" y="-1"><feGaussianBlur result="blurOut" stdDeviation="2.0"/><feColorMatrix in="blurOut" result="blurOut2" type="matrix" values="0 0 0 0 0 0 0 0 0 0 0 0 0 0 0 0 0 0 .4 0"/><feOffset dx="4.0" dy="4.0" in="blurOut2" result="blurOut3"/><feBlend in="SourceGraphic" in2="blurOut3" mode="normal"/></filter></defs><g><!--MD5=[a20a8f5c719dd0b14625af93e214cb5b]
class QuadShaderType--><rect codeLine="6" fill="#FEFECE" filter="url(#f1e42zubx2q700)" height="177.5508" id="QuadShaderType" style="stroke:#FF0000;stroke-width:1.5;" width="418" x="462" y="193"/><ellipse cx="616.75" cy="209" fill="#A9DCDF" rx="11" ry="11" style="stroke:#FF0000;stroke-width:1.0;"/><path d="M616.6133,204.3481 L615.4595,209.4199 L617.7754,209.4199 Z M615.1191,202.1069 L618.1157,202.1069 L621.4609,214.5 L619.0122,214.5 L618.2485,211.437 L614.9697,211.437 L614.2227,214.5 L611.7739,214.5 Z " fill="#000000"/><text fill="#000000" font-family="sans-serif" font-size="12" font-style="italic" lengthAdjust="spacing" textLength="100" x="637.25" y="213.5352">QuadShaderType</text><line style="stroke:#FF0000;stroke-width:1.5;" x1="463" x2="879" y1="225" y2="225"/><polygon fill="none" points="473,231,477,235,473,239,469,235" style="stroke:#B38D22;stroke-width:1.0;"/><text fill="#000000" font-family="sans-serif" font-size="11" lengthAdjust="spacing" textLength="128" x="482" y="239.6348">bufferObjectKey : string</text><polygon fill="none" points="473,243.9551,477,247.9551,473,251.9551,469,247.9551" style="stroke:#B38D22;stroke-width:1.0;"/><text fill="#000000" font-family="sans-serif" font-size="11" lengthAdjust="spacing" textLength="70" x="482" y="252.5898">name : string</text><polygon fill="none" points="473,256.9102,477,260.9102,473,264.9102,469,260.9102" style="stroke:#B38D22;stroke-width:1.0;"/><text fill="#000000" font-family="sans-serif" font-size="11" lengthAdjust="spacing" textLength="107" x="482" y="265.5449">programKey : string</text><polygon fill="none" points="473,269.8652,477,273.8652,473,277.8652,469,273.8652" style="stroke:#B38D22;stroke-width:1.0;"/><text fill="#000000" font-family="sans-serif" font-size="11" lengthAdjust="spacing" textLength="199" x="482" y="278.5">resourceManager : ResourceManager</text><polygon fill="none" points="473,282.8203,477,286.8203,473,290.8203,469,286.8203" style="stroke:#B38D22;stroke-width:1.0;"/><text fill="#000000" font-family="sans-serif" font-size="11" lengthAdjust="spacing" textLength="92" x="482" y="291.4551">rotation : Mat4x4</text><polygon fill="none" points="473,295.7754,477,299.7754,473,303.7754,469,299.7754" style="stroke:#B38D22;stroke-width:1.0;"/><text fill="#000000" font-family="sans-serif" font-size="11" lengthAdjust="spacing" textLength="76" x="482" y="304.4102">scale : Mat4x4</text><polygon fill="none" points="473,308.7305,477,312.7305,473,316.7305,469,312.7305" style="stroke:#B38D22;stroke-width:1.0;"/><text fill="#000000" font-family="sans-serif" font-size="11" lengthAdjust="spacing" textLength="107" x="482" y="317.3652">translation : Mat4x4</text><line style="stroke:#FF0000;stroke-width:1.5;" x1="463" x2="879" y1="323.6855" y2="323.6855"/><ellipse cx="473" cy="334.6855" fill="#84BE84" rx="3" ry="3" style="stroke:#038048;stroke-width:1.0;"/><text fill="#000000" font-family="sans-serif" font-size="11" lengthAdjust="spacing" textLength="290" x="482" y="338.3203">getOptions(node: CanvasNode) : Record&lt;string, any&gt;</text><ellipse cx="473" cy="347.6406" fill="#84BE84" rx="3" ry="3" style="stroke:#038048;stroke-width:1.0;"/><text fill="#000000" font-family="sans-serif" font-size="11" font-style="italic" lengthAdjust="spacing" textLength="124" x="482" y="351.2754">initBufferObject() : void</text><ellipse cx="473" cy="360.5957" fill="#84BE84" rx="3" ry="3" style="stroke:#038048;stroke-width:1.0;"/><text fill="#000000" font-family="sans-serif" font-size="11" font-style="italic" lengthAdjust="spacing" textLength="392" x="482" y="364.2305">render(gl: WebGLRenderingContext, options: Record&lt;string, any&gt;) : void</text><!--MD5=[22fd9abb6b5f6baa829d9b24081553a5]
class ShaderType--><rect codeLine="18" fill="#FEFECE" filter="url(#f1e42zubx2q700)" height="125.7305" id="ShaderType" style="stroke:#FF0000;stroke-width:1.5;" width="418" x="462" y="7"/><ellipse cx="632.25" cy="23" fill="#A9DCDF" rx="11" ry="11" style="stroke:#FF0000;stroke-width:1.0;"/><path d="M632.1133,18.3481 L630.9595,23.4199 L633.2754,23.4199 Z M630.6191,16.1069 L633.6157,16.1069 L636.9609,28.5 L634.5122,28.5 L633.7485,25.437 L630.4697,25.437 L629.7227,28.5 L627.2739,28.5 Z " fill="#000000"/><text fill="#000000" font-family="sans-serif" font-size="12" font-style="italic" lengthAdjust="spacing" textLength="69" x="652.75" y="27.5352">ShaderType</text><line style="stroke:#FF0000;stroke-width:1.5;" x1="463" x2="879" y1="39" y2="39"/><polygon fill="none" points="473,45,477,49,473,53,469,49" style="stroke:#B38D22;stroke-width:1.0;"/><text fill="#000000" font-family="sans-serif" font-size="11" lengthAdjust="spacing" textLength="70" x="482" y="53.6348">name : string</text><polygon fill="none" points="473,57.9551,477,61.9551,473,65.9551,469,61.9551" style="stroke:#B38D22;stroke-width:1.0;"/><text fill="#000000" font-family="sans-serif" font-size="11" lengthAdjust="spacing" textLength="107" x="482" y="66.5898">programKey : string</text><polygon fill="none" points="473,70.9102,477,74.9102,473,78.9102,469,74.9102" style="stroke:#B38D22;stroke-width:1.0;"/><text fill="#000000" font-family="sans-serif" font-size="11" lengthAdjust="spacing" textLength="199" x="482" y="79.5449">resourceManager : ResourceManager</text><line style="stroke:#FF0000;stroke-width:1.5;" x1="463" x2="879" y1="85.8652" y2="85.8652"/><ellipse cx="473" cy="96.8652" fill="#84BE84" rx="3" ry="3" style="stroke:#038048;stroke-width:1.0;"/><text fill="#000000" font-family="sans-serif" font-size="11" lengthAdjust="spacing" textLength="290" x="482" y="100.5">getOptions(node: CanvasNode) : Record&lt;string, any&gt;</text><ellipse cx="473" cy="109.8203" fill="#84BE84" rx="3" ry="3" style="stroke:#038048;stroke-width:1.0;"/><text fill="#000000" font-family="sans-serif" font-size="11" font-style="italic" lengthAdjust="spacing" textLength="124" x="482" y="113.4551">initBufferObject() : void</text><ellipse cx="473" cy="122.7754" fill="#84BE84" rx="3" ry="3" style="stroke:#038048;stroke-width:1.0;"/><text fill="#000000" font-family="sans-serif" font-size="11" font-style="italic" lengthAdjust="spacing" textLength="392" x="482" y="126.4102">render(gl: WebGLRenderingContext, options: Record&lt;string, any&gt;) : void</text><!--MD5=[4907cf6d5446b10e82631247fe678365]
class LabelShaderType--><rect codeLine="27" fill="#FEFECE" filter="url(#f1e42zubx2q700)" height="190.5059" id="LabelShaderType" style="stroke:#FF0000;stroke-width:1.5;" width="418" x="9" y="431"/><ellipse cx="163.75" cy="447" fill="#ADD1B2" rx="11" ry="11" style="stroke:#FF0000;stroke-width:1.0;"/><path d="M166.2231,453.1431 Q165.6421,453.4419 165.0029,453.5913 Q164.3638,453.7407 163.6582,453.7407 Q161.1514,453.7407 159.8315,452.0889 Q158.5117,450.437 158.5117,447.3159 Q158.5117,444.1865 159.8315,442.5347 Q161.1514,440.8828 163.6582,440.8828 Q164.3638,440.8828 165.0112,441.0322 Q165.6587,441.1816 166.2231,441.4805 L166.2231,444.2031 Q165.5923,443.6221 164.9988,443.3523 Q164.4053,443.0825 163.7744,443.0825 Q162.4297,443.0825 161.7449,444.1492 Q161.0601,445.2158 161.0601,447.3159 Q161.0601,449.4077 161.7449,450.4744 Q162.4297,451.541 163.7744,451.541 Q164.4053,451.541 164.9988,451.2712 Q165.5923,451.0015 166.2231,450.4204 Z " fill="#000000"/><text fill="#000000" font-family="sans-serif" font-size="12" lengthAdjust="spacing" textLength="100" x="184.25" y="451.5352">LabelShaderType</text><line style="stroke:#FF0000;stroke-width:1.5;" x1="10" x2="426" y1="463" y2="463"/><polygon fill="none" points="20,469,24,473,20,477,16,473" style="stroke:#B38D22;stroke-width:1.0;"/><text fill="#000000" font-family="sans-serif" font-size="11" lengthAdjust="spacing" textLength="128" x="29" y="477.6348">bufferObjectKey : string</text><polygon fill="none" points="20,481.9551,24,485.9551,20,489.9551,16,485.9551" style="stroke:#B38D22;stroke-width:1.0;"/><text fill="#000000" font-family="sans-serif" font-size="11" lengthAdjust="spacing" textLength="70" x="29" y="490.5898">name : string</text><polygon fill="none" points="20,494.9102,24,498.9102,20,502.9102,16,498.9102" style="stroke:#B38D22;stroke-width:1.0;"/><text fill="#000000" font-family="sans-serif" font-size="11" lengthAdjust="spacing" textLength="107" x="29" y="503.5449">programKey : string</text><polygon fill="none" points="20,507.8652,24,511.8652,20,515.8652,16,511.8652" style="stroke:#B38D22;stroke-width:1.0;"/><text fill="#000000" font-family="sans-serif" font-size="11" lengthAdjust="spacing" textLength="199" x="29" y="516.5">resourceManager : ResourceManager</text><polygon fill="none" points="20,520.8203,24,524.8203,20,528.8203,16,524.8203" style="stroke:#B38D22;stroke-width:1.0;"/><text fill="#000000" font-family="sans-serif" font-size="11" lengthAdjust="spacing" textLength="92" x="29" y="529.4551">rotation : Mat4x4</text><polygon fill="none" points="20,533.7754,24,537.7754,20,541.7754,16,537.7754" style="stroke:#B38D22;stroke-width:1.0;"/><text fill="#000000" font-family="sans-serif" font-size="11" lengthAdjust="spacing" textLength="76" x="29" y="542.4102">scale : Mat4x4</text><polygon fill="none" points="20,546.7305,24,550.7305,20,554.7305,16,550.7305" style="stroke:#B38D22;stroke-width:1.0;"/><text fill="#000000" font-family="sans-serif" font-size="11" lengthAdjust="spacing" textLength="107" x="29" y="555.3652">translation : Mat4x4</text><line style="stroke:#FF0000;stroke-width:1.5;" x1="10" x2="426" y1="561.6855" y2="561.6855"/><ellipse cx="20" cy="572.6855" fill="#84BE84" rx="3" ry="3" style="stroke:#038048;stroke-width:1.0;"/><text fill="#000000" font-family="sans-serif" font-size="11" lengthAdjust="spacing" textLength="245" x="29" y="576.3203">getOptions(rect: Label) : Record&lt;string, any&gt;</text><ellipse cx="20" cy="585.6406" fill="#84BE84" rx="3" ry="3" style="stroke:#038048;stroke-width:1.0;"/><text fill="#000000" font-family="sans-serif" font-size="11" lengthAdjust="spacing" textLength="264" x="29" y="589.2754">getVertices(w: number, h: number) : Float32Array</text><ellipse cx="20" cy="598.5957" fill="#84BE84" rx="3" ry="3" style="stroke:#038048;stroke-width:1.0;"/><text fill="#000000" font-family="sans-serif" font-size="11" lengthAdjust="spacing" textLength="124" x="29" y="602.2305">initBufferObject() : void</text><ellipse cx="20" cy="611.5508" fill="#84BE84" rx="3" ry="3" style="stroke:#038048;stroke-width:1.0;"/><text fill="#000000" font-family="sans-serif" font-size="11" lengthAdjust="spacing" textLength="392" x="29" y="615.1855">render(gl: WebGLRenderingContext, options: Record&lt;string, any&gt;) : void</text><!--MD5=[9a3a5f724f0e03cd0a7102b6c7d474ce]
class RectShaderType--><rect codeLine="41" fill="#FEFECE" filter="url(#f1e42zubx2q700)" height="190.5059" id="RectShaderType" style="stroke:#FF0000;stroke-width:1.5;" width="418" x="462" y="431"/><ellipse cx="619.75" cy="447" fill="#ADD1B2" rx="11" ry="11" style="stroke:#FF0000;stroke-width:1.0;"/><path d="M622.2231,453.1431 Q621.6421,453.4419 621.0029,453.5913 Q620.3638,453.7407 619.6582,453.7407 Q617.1514,453.7407 615.8315,452.0889 Q614.5117,450.437 614.5117,447.3159 Q614.5117,444.1865 615.8315,442.5347 Q617.1514,440.8828 619.6582,440.8828 Q620.3638,440.8828 621.0112,441.0322 Q621.6587,441.1816 622.2231,441.4805 L622.2231,444.2031 Q621.5923,443.6221 620.9988,443.3523 Q620.4053,443.0825 619.7744,443.0825 Q618.4297,443.0825 617.7449,444.1492 Q617.0601,445.2158 617.0601,447.3159 Q617.0601,449.4077 617.7449,450.4744 Q618.4297,451.541 619.7744,451.541 Q620.4053,451.541 620.9988,451.2712 Q621.5923,451.0015 622.2231,450.4204 Z " fill="#000000"/><text fill="#000000" font-family="sans-serif" font-size="12" lengthAdjust="spacing" textLength="94" x="640.25" y="451.5352">RectShaderType</text><line style="stroke:#FF0000;stroke-width:1.5;" x1="463" x2="879" y1="463" y2="463"/><polygon fill="none" points="473,469,477,473,473,477,469,473" style="stroke:#B38D22;stroke-width:1.0;"/><text fill="#000000" font-family="sans-serif" font-size="11" lengthAdjust="spacing" textLength="128" x="482" y="477.6348">bufferObjectKey : string</text><polygon fill="none" points="473,481.9551,477,485.9551,473,489.9551,469,485.9551" style="stroke:#B38D22;stroke-width:1.0;"/><text fill="#000000" font-family="sans-serif" font-size="11" lengthAdjust="spacing" textLength="70" x="482" y="490.5898">name : string</text><polygon fill="none" points="473,494.9102,477,498.9102,473,502.9102,469,498.9102" style="stroke:#B38D22;stroke-width:1.0;"/><text fill="#000000" font-family="sans-serif" font-size="11" lengthAdjust="spacing" textLength="107" x="482" y="503.5449">programKey : string</text><polygon fill="none" points="473,507.8652,477,511.8652,473,515.8652,469,511.8652" style="stroke:#B38D22;stroke-width:1.0;"/><text fill="#000000" font-family="sans-serif" font-size="11" lengthAdjust="spacing" textLength="199" x="482" y="516.5">resourceManager : ResourceManager</text><polygon fill="none" points="473,520.8203,477,524.8203,473,528.8203,469,524.8203" style="stroke:#B38D22;stroke-width:1.0;"/><text fill="#000000" font-family="sans-serif" font-size="11" lengthAdjust="spacing" textLength="92" x="482" y="529.4551">rotation : Mat4x4</text><polygon fill="none" points="473,533.7754,477,537.7754,473,541.7754,469,537.7754" style="stroke:#B38D22;stroke-width:1.0;"/><text fill="#000000" font-family="sans-serif" font-size="11" lengthAdjust="spacing" textLength="76" x="482" y="542.4102">scale : Mat4x4</text><polygon fill="none" points="473,546.7305,477,550.7305,473,554.7305,469,550.7305" style="stroke:#B38D22;stroke-width:1.0;"/><text fill="#000000" font-family="sans-serif" font-size="11" lengthAdjust="spacing" textLength="107" x="482" y="555.3652">translation : Mat4x4</text><line style="stroke:#FF0000;stroke-width:1.5;" x1="463" x2="879" y1="561.6855" y2="561.6855"/><ellipse cx="473" cy="572.6855" fill="#84BE84" rx="3" ry="3" style="stroke:#038048;stroke-width:1.0;"/><text fill="#000000" font-family="sans-serif" font-size="11" lengthAdjust="spacing" textLength="240" x="482" y="576.3203">getOptions(rect: Rect) : Record&lt;string, any&gt;</text><ellipse cx="473" cy="585.6406" fill="#84BE84" rx="3" ry="3" style="stroke:#038048;stroke-width:1.0;"/><text fill="#000000" font-family="sans-serif" font-size="11" lengthAdjust="spacing" textLength="264" x="482" y="589.2754">getVertices(w: number, h: number) : Float32Array</text><ellipse cx="473" cy="598.5957" fill="#84BE84" rx="3" ry="3" style="stroke:#038048;stroke-width:1.0;"/><text fill="#000000" font-family="sans-serif" font-size="11" lengthAdjust="spacing" textLength="124" x="482" y="602.2305">initBufferObject() : void</text><ellipse cx="473" cy="611.5508" fill="#84BE84" rx="3" ry="3" style="stroke:#038048;stroke-width:1.0;"/><text fill="#000000" font-family="sans-serif" font-size="11" lengthAdjust="spacing" textLength="392" x="482" y="615.1855">render(gl: WebGLRenderingContext, options: Record&lt;string, any&gt;) : void</text><!--MD5=[835d8d7276faa0dadf5f3e9090d823c5]
class SpriteShaderType--><rect codeLine="55" fill="#FEFECE" filter="url(#f1e42zubx2q700)" height="190.5059" id="SpriteShaderType" style="stroke:#FF0000;stroke-width:1.5;" width="418" x="915" y="431"/><ellipse cx="1068.75" cy="447" fill="#ADD1B2" rx="11" ry="11" style="stroke:#FF0000;stroke-width:1.0;"/><path d="M1071.2231,453.1431 Q1070.6421,453.4419 1070.0029,453.5913 Q1069.3638,453.7407 1068.6582,453.7407 Q1066.1514,453.7407 1064.8315,452.0889 Q1063.5117,450.437 1063.5117,447.3159 Q1063.5117,444.1865 1064.8315,442.5347 Q1066.1514,440.8828 1068.6582,440.8828 Q1069.3638,440.8828 1070.0112,441.0322 Q1070.6587,441.1816 1071.2231,441.4805 L1071.2231,444.2031 Q1070.5923,443.6221 1069.9988,443.3523 Q1069.4053,443.0825 1068.7744,443.0825 Q1067.4297,443.0825 1066.7449,444.1492 Q1066.0601,445.2158 1066.0601,447.3159 Q1066.0601,449.4077 1066.7449,450.4744 Q1067.4297,451.541 1068.7744,451.541 Q1069.4053,451.541 1069.9988,451.2712 Q1070.5923,451.0015 1071.2231,450.4204 Z " fill="#000000"/><text fill="#000000" font-family="sans-serif" font-size="12" lengthAdjust="spacing" textLength="102" x="1089.25" y="451.5352">SpriteShaderType</text><line style="stroke:#FF0000;stroke-width:1.5;" x1="916" x2="1332" y1="463" y2="463"/><polygon fill="none" points="926,469,930,473,926,477,922,473" style="stroke:#B38D22;stroke-width:1.0;"/><text fill="#000000" font-family="sans-serif" font-size="11" lengthAdjust="spacing" textLength="128" x="935" y="477.6348">bufferObjectKey : string</text><polygon fill="none" points="926,481.9551,930,485.9551,926,489.9551,922,485.9551" style="stroke:#B38D22;stroke-width:1.0;"/><text fill="#000000" font-family="sans-serif" font-size="11" lengthAdjust="spacing" textLength="70" x="935" y="490.5898">name : string</text><polygon fill="none" points="926,494.9102,930,498.9102,926,502.9102,922,498.9102" style="stroke:#B38D22;stroke-width:1.0;"/><text fill="#000000" font-family="sans-serif" font-size="11" lengthAdjust="spacing" textLength="107" x="935" y="503.5449">programKey : string</text><polygon fill="none" points="926,507.8652,930,511.8652,926,515.8652,922,511.8652" style="stroke:#B38D22;stroke-width:1.0;"/><text fill="#000000" font-family="sans-serif" font-size="11" lengthAdjust="spacing" textLength="199" x="935" y="516.5">resourceManager : ResourceManager</text><polygon fill="none" points="926,520.8203,930,524.8203,926,528.8203,922,524.8203" style="stroke:#B38D22;stroke-width:1.0;"/><text fill="#000000" font-family="sans-serif" font-size="11" lengthAdjust="spacing" textLength="92" x="935" y="529.4551">rotation : Mat4x4</text><polygon fill="none" points="926,533.7754,930,537.7754,926,541.7754,922,537.7754" style="stroke:#B38D22;stroke-width:1.0;"/><text fill="#000000" font-family="sans-serif" font-size="11" lengthAdjust="spacing" textLength="76" x="935" y="542.4102">scale : Mat4x4</text><polygon fill="none" points="926,546.7305,930,550.7305,926,554.7305,922,550.7305" style="stroke:#B38D22;stroke-width:1.0;"/><text fill="#000000" font-family="sans-serif" font-size="11" lengthAdjust="spacing" textLength="107" x="935" y="555.3652">translation : Mat4x4</text><line style="stroke:#FF0000;stroke-width:1.5;" x1="916" x2="1332" y1="561.6855" y2="561.6855"/><ellipse cx="926" cy="572.6855" fill="#84BE84" rx="3" ry="3" style="stroke:#038048;stroke-width:1.0;"/><text fill="#000000" font-family="sans-serif" font-size="11" lengthAdjust="spacing" textLength="258" x="935" y="576.3203">getOptions(sprite: Sprite) : Record&lt;string, any&gt;</text><ellipse cx="926" cy="585.6406" fill="#84BE84" rx="3" ry="3" style="stroke:#038048;stroke-width:1.0;"/><text fill="#000000" font-family="sans-serif" font-size="11" lengthAdjust="spacing" textLength="373" x="935" y="589.2754">getVertices(w: number, h: number, scale: Float32Array) : Float32Array</text><ellipse cx="926" cy="598.5957" fill="#84BE84" rx="3" ry="3" style="stroke:#038048;stroke-width:1.0;"/><text fill="#000000" font-family="sans-serif" font-size="11" lengthAdjust="spacing" textLength="124" x="935" y="602.2305">initBufferObject() : void</text><ellipse cx="926" cy="611.5508" fill="#84BE84" rx="3" ry="3" style="stroke:#038048;stroke-width:1.0;"/><text fill="#000000" font-family="sans-serif" font-size="11" lengthAdjust="spacing" textLength="392" x="935" y="615.1855">render(gl: WebGLRenderingContext, options: Record&lt;string, any&gt;) : void</text><!--MD5=[07878e31c987d625e9411fa2067689fe]
reverse link ShaderType to QuadShaderType--><path codeLine="26" d="M671,153.61 C671,166.52 671,179.91 671,192.94 " fill="none" id="ShaderType-backto-QuadShaderType" style="stroke:#FF0000;stroke-width:1.0;"/><polygon fill="none" points="664,153.15,671,133.15,678,153.15,664,153.15" style="stroke:#FF0000;stroke-width:1.0;"/><!--MD5=[41ad66983abf82946cfbe229c70ab90c]
reverse link QuadShaderType to LabelShaderType--><path codeLine="40" d="M488.45,380.72 C457.55,397.26 425.52,414.41 394.77,430.87 " fill="none" id="QuadShaderType-backto-LabelShaderType" style="stroke:#FF0000;stroke-width:1.0;"/><polygon fill="none" points="485.56,374.33,506.5,371.06,492.17,386.67,485.56,374.33" style="stroke:#FF0000;stroke-width:1.0;"/><!--MD5=[25891842fa83f61bd67aa3cd1853c2e6]
reverse link QuadShaderType to RectShaderType--><path codeLine="54" d="M671,391.55 C671,404.63 671,417.92 671,430.79 " fill="none" id="QuadShaderType-backto-RectShaderType" style="stroke:#FF0000;stroke-width:1.0;"/><polygon fill="none" points="664,391.23,671,371.23,678,391.23,664,391.23" style="stroke:#FF0000;stroke-width:1.0;"/><!--MD5=[0e57cfa1031b10ba44119775eb1e59af]
reverse link QuadShaderType to SpriteShaderType--><path codeLine="68" d="M853.55,380.72 C884.45,397.26 916.48,414.41 947.23,430.87 " fill="none" id="QuadShaderType-backto-SpriteShaderType" style="stroke:#FF0000;stroke-width:1.0;"/><polygon fill="none" points="849.83,386.67,835.5,371.06,856.44,374.33,849.83,386.67" style="stroke:#FF0000;stroke-width:1.0;"/><!--MD5=[b439db0234836e67ab21d8fb0966e3cf]
@startuml
skinparam ClassArrowColor #ff0000
skinparam ClassBorderColor #ff0000
skinparam BackgroundColor transparent
hide empty methods
hide empty fields
abstract class "QuadShaderType" {
    #bufferObjectKey : string
    #name : string
    #programKey : string
    #resourceManager : ResourceManager
    #rotation : Mat4x4
    #scale : Mat4x4
    #translation : Mat4x4
    +getOptions(node: CanvasNode) : Record<string, any>
    {abstract} +initBufferObject() : void
    {abstract} +render(gl: WebGLRenderingContext, options: Record<string, any>) : void
}
abstract class "ShaderType" {
    #name : string
    #programKey : string
    #resourceManager : ResourceManager
    +getOptions(node: CanvasNode) : Record<string, any>
    {abstract} +initBufferObject() : void
    {abstract} +render(gl: WebGLRenderingContext, options: Record<string, any>) : void
}
"ShaderType" <|- - "QuadShaderType"
class "LabelShaderType" {
    #bufferObjectKey : string
    #name : string
    #programKey : string
    #resourceManager : ResourceManager
    #rotation : Mat4x4
    #scale : Mat4x4
    #translation : Mat4x4
    +getOptions(rect: Label) : Record<string, any>
    +getVertices(w: number, h: number) : Float32Array
    +initBufferObject() : void
    +render(gl: WebGLRenderingContext, options: Record<string, any>) : void
}
"QuadShaderType" <|- - "LabelShaderType"
class "RectShaderType" {
    #bufferObjectKey : string
    #name : string
    #programKey : string
    #resourceManager : ResourceManager
    #rotation : Mat4x4
    #scale : Mat4x4
    #translation : Mat4x4
    +getOptions(rect: Rect) : Record<string, any>
    +getVertices(w: number, h: number) : Float32Array
    +initBufferObject() : void
    +render(gl: WebGLRenderingContext, options: Record<string, any>) : void
}
"QuadShaderType" <|- - "RectShaderType"
class "SpriteShaderType" {
    #bufferObjectKey : string
    #name : string
    #programKey : string
    #resourceManager : ResourceManager
    #rotation : Mat4x4
    #scale : Mat4x4
    #translation : Mat4x4
    +getOptions(sprite: Sprite) : Record<string, any>
    +getVertices(w: number, h: number, scale: Float32Array) : Float32Array
    +initBufferObject() : void
    +render(gl: WebGLRenderingContext, options: Record<string, any>) : void
}
"QuadShaderType" <|- - "SpriteShaderType"
@enduml

PlantUML version 1.2021.14(Fri Nov 12 11:46:50 EST 2021)
(GPL source distribution)
Java Runtime: Java(TM) SE Runtime Environment
JVM: Java HotSpot(TM) 64-Bit Server VM
Default Encoding: UTF-8
Language: en
Country: US
--></g></svg>