<?xml version="1.0" encoding="UTF-8" standalone="no"?><svg xmlns="http://www.w3.org/2000/svg" xmlns:xlink="http://www.w3.org/1999/xlink" contentScriptType="application/ecmascript" contentStyleType="text/css" height="402px" preserveAspectRatio="none" style="width:336px;height:402px;background:#00000000;" version="1.1" viewBox="0 0 336 402" width="336px" zoomAndPan="magnify"><defs><filter height="300%" id="f13ca8jds1aqxz" width="300%" x="-1" y="-1"><feGaussianBlur result="blurOut" stdDeviation="2.0"/><feColorMatrix in="blurOut" result="blurOut2" type="matrix" values="0 0 0 0 0 0 0 0 0 0 0 0 0 0 0 0 0 0 .4 0"/><feOffset dx="4.0" dy="4.0" in="blurOut2" result="blurOut3"/><feBlend in="SourceGraphic" in2="blurOut3" mode="normal"/></filter></defs><g><!--MD5=[51b30b53d746c08f9b2f1f5a55712f3a]
class QuadTree<T>--><rect codeLine="6" fill="#FEFECE" filter="url(#f13ca8jds1aqxz)" height="255.2813" id="QuadTree&lt;T&gt;" style="stroke:#FF0000;stroke-width:1.5;" width="313" x="9" y="133"/><ellipse cx="118.25" cy="149" fill="#ADD1B2" rx="11" ry="11" style="stroke:#FF0000;stroke-width:1.0;"/><path d="M120.7231,155.1431 Q120.1421,155.4419 119.5029,155.5913 Q118.8638,155.7407 118.1582,155.7407 Q115.6514,155.7407 114.3315,154.0889 Q113.0117,152.437 113.0117,149.3159 Q113.0117,146.1865 114.3315,144.5347 Q115.6514,142.8828 118.1582,142.8828 Q118.8638,142.8828 119.5112,143.0322 Q120.1587,143.1816 120.7231,143.4805 L120.7231,146.2031 Q120.0923,145.6221 119.4988,145.3523 Q118.9053,145.0825 118.2744,145.0825 Q116.9297,145.0825 116.2449,146.1492 Q115.5601,147.2158 115.5601,149.3159 Q115.5601,151.4077 116.2449,152.4744 Q116.9297,153.541 118.2744,153.541 Q118.9053,153.541 119.4988,153.2712 Q120.0923,153.0015 120.7231,152.4204 Z " fill="#000000"/><text fill="#000000" font-family="sans-serif" font-size="12" lengthAdjust="spacing" textLength="86" x="138.75" y="153.5352">QuadTree&lt;T&gt;</text><line style="stroke:#FF0000;stroke-width:1.5;" x1="10" x2="321" y1="165" y2="165"/><polygon fill="none" points="20,171,24,175,20,179,16,175" style="stroke:#B38D22;stroke-width:1.0;"/><text fill="#000000" font-family="sans-serif" font-size="11" lengthAdjust="spacing" textLength="89" x="29" y="179.6348">boundary : AABB</text><polygon fill="none" points="20,183.9551,24,187.9551,20,191.9551,16,187.9551" style="stroke:#B38D22;stroke-width:1.0;"/><text fill="#000000" font-family="sans-serif" font-size="11" lengthAdjust="spacing" textLength="95" x="29" y="192.5898">capacity : number</text><polygon fill="none" points="20,196.9102,24,200.9102,20,204.9102,16,200.9102" style="stroke:#B38D22;stroke-width:1.0;"/><text fill="#000000" font-family="sans-serif" font-size="11" lengthAdjust="spacing" textLength="91" x="29" y="205.5449">divided : boolean</text><polygon fill="none" points="20,209.8652,24,213.8652,20,217.8652,16,213.8652" style="stroke:#B38D22;stroke-width:1.0;"/><text fill="#000000" font-family="sans-serif" font-size="11" lengthAdjust="spacing" textLength="53" x="29" y="218.5">items : T[]</text><polygon fill="none" points="20,222.8203,24,226.8203,20,230.8203,16,226.8203" style="stroke:#B38D22;stroke-width:1.0;"/><text fill="#000000" font-family="sans-serif" font-size="11" lengthAdjust="spacing" textLength="106" x="29" y="231.4551">maxDepth : number</text><polygon fill="none" points="20,235.7754,24,239.7754,20,243.7754,16,239.7754" style="stroke:#B38D22;stroke-width:1.0;"/><text fill="#000000" font-family="sans-serif" font-size="11" lengthAdjust="spacing" textLength="100" x="29" y="244.4102">ne : QuadTree&lt;T&gt;</text><polygon fill="none" points="20,248.7305,24,252.7305,20,256.7305,16,252.7305" style="stroke:#B38D22;stroke-width:1.0;"/><text fill="#000000" font-family="sans-serif" font-size="11" lengthAdjust="spacing" textLength="102" x="29" y="257.3652">nw : QuadTree&lt;T&gt;</text><polygon fill="none" points="20,261.6855,24,265.6855,20,269.6855,16,265.6855" style="stroke:#B38D22;stroke-width:1.0;"/><text fill="#000000" font-family="sans-serif" font-size="11" lengthAdjust="spacing" textLength="99" x="29" y="270.3203">se : QuadTree&lt;T&gt;</text><polygon fill="none" points="20,274.6406,24,278.6406,20,282.6406,16,278.6406" style="stroke:#B38D22;stroke-width:1.0;"/><text fill="#000000" font-family="sans-serif" font-size="11" lengthAdjust="spacing" textLength="101" x="29" y="283.2754">sw : QuadTree&lt;T&gt;</text><line style="stroke:#FF0000;stroke-width:1.5;" x1="10" x2="321" y1="289.5957" y2="289.5957"/><ellipse cx="20" cy="300.5957" fill="#84BE84" rx="3" ry="3" style="stroke:#038048;stroke-width:1.0;"/><text fill="#000000" font-family="sans-serif" font-size="11" lengthAdjust="spacing" textLength="66" x="29" y="304.2305">clear() : void</text><ellipse cx="20" cy="313.5508" fill="#84BE84" rx="3" ry="3" style="stroke:#038048;stroke-width:1.0;"/><text fill="#000000" font-family="sans-serif" font-size="11" lengthAdjust="spacing" textLength="158" x="29" y="317.1855">forEach(func: Function) : void</text><ellipse cx="20" cy="326.5059" fill="#84BE84" rx="3" ry="3" style="stroke:#038048;stroke-width:1.0;"/><text fill="#000000" font-family="sans-serif" font-size="11" lengthAdjust="spacing" textLength="107" x="29" y="330.1406">insert(item: T) : void</text><ellipse cx="20" cy="339.4609" fill="#84BE84" rx="3" ry="3" style="stroke:#038048;stroke-width:1.0;"/><text fill="#000000" font-family="sans-serif" font-size="11" lengthAdjust="spacing" textLength="287" x="29" y="343.0957">render_demo(ctx: CanvasRenderingContext2D) : void</text><polygon fill="#FFFF44" points="20,347.416,24,351.416,20,355.416,16,351.416" style="stroke:#B38D22;stroke-width:1.0;"/><text fill="#000000" font-family="sans-serif" font-size="11" lengthAdjust="spacing" textLength="135" x="29" y="356.0508">deferInsert(item: T) : void</text><polygon fill="#FFFF44" points="20,360.3711,24,364.3711,20,368.3711,16,364.3711" style="stroke:#B38D22;stroke-width:1.0;"/><text fill="#000000" font-family="sans-serif" font-size="11" lengthAdjust="spacing" textLength="121" x="29" y="369.0059">distributeItems() : void</text><polygon fill="#FFFF44" points="20,373.3262,24,377.3262,20,381.3262,16,377.3262" style="stroke:#B38D22;stroke-width:1.0;"/><text fill="#000000" font-family="sans-serif" font-size="11" lengthAdjust="spacing" textLength="92" x="29" y="381.9609">subdivide() : void</text><!--MD5=[c160724f8e3bb89ca8141a12554ac2e3]
class Collection--><rect codeLine="24" fill="#FEFECE" filter="url(#f13ca8jds1aqxz)" height="65.9102" id="Collection" style="stroke:#FF0000;stroke-width:1.5;" width="184" x="73.5" y="7"/><ellipse cx="133.75" cy="23" fill="#B4A7E5" rx="11" ry="11" style="stroke:#FF0000;stroke-width:1.0;"/><path d="M130.1777,19.2651 L130.1777,17.1069 L137.5571,17.1069 L137.5571,19.2651 L135.0918,19.2651 L135.0918,27.3418 L137.5571,27.3418 L137.5571,29.5 L130.1777,29.5 L130.1777,27.3418 L132.6431,27.3418 L132.6431,19.2651 Z " fill="#000000"/><text fill="#000000" font-family="sans-serif" font-size="12" font-style="italic" lengthAdjust="spacing" textLength="55" x="154.25" y="27.5352">Collection</text><line style="stroke:#FF0000;stroke-width:1.5;" x1="74.5" x2="256.5" y1="39" y2="39"/><ellipse cx="84.5" cy="50" fill="#84BE84" rx="3" ry="3" style="stroke:#038048;stroke-width:1.0;"/><text fill="#000000" font-family="sans-serif" font-size="11" lengthAdjust="spacing" textLength="66" x="93.5" y="53.6348">clear() : void</text><ellipse cx="84.5" cy="62.9551" fill="#84BE84" rx="3" ry="3" style="stroke:#038048;stroke-width:1.0;"/><text fill="#000000" font-family="sans-serif" font-size="11" lengthAdjust="spacing" textLength="158" x="93.5" y="66.5898">forEach(func: Function) : void</text><!--MD5=[21eceea7aaf237daefa3b2a5e48b6806]
reverse link Collection to QuadTree<T>--><path codeLine="28" d="M165.5,93.46 C165.5,105.57 165.5,118.98 165.5,132.76 " fill="none" id="Collection-backto-QuadTree&lt;T&gt;" style="stroke:#FF0000;stroke-width:1.0;stroke-dasharray:7.0,7.0;"/><polygon fill="none" points="158.5,93.24,165.5,73.24,172.5,93.24,158.5,93.24" style="stroke:#FF0000;stroke-width:1.0;"/><!--MD5=[bc167cd8b46f74913d3a63d9f387c386]
@startuml
skinparam ClassArrowColor #ff0000
skinparam ClassBorderColor #ff0000
skinparam BackgroundColor transparent
hide empty methods
hide empty fields
class "QuadTree<T>" {
    #boundary : AABB
    #capacity : number
    #divided : boolean
    #items : T[]
    #maxDepth : number
    #ne : QuadTree<T>
    #nw : QuadTree<T>
    #se : QuadTree<T>
    #sw : QuadTree<T>
    +clear() : void
    +forEach(func: Function) : void
    +insert(item: T) : void
    +render_demo(ctx: CanvasRenderingContext2D) : void
    #deferInsert(item: T) : void
    #distributeItems() : void
    #subdivide() : void
}
interface "Collection" {
    +clear() : void
    +forEach(func: Function) : void
}
"Collection" <|.. "QuadTree<T>"
@enduml

PlantUML version 1.2021.14(Fri Nov 12 11:46:50 EST 2021)
(GPL source distribution)
Java Runtime: Java(TM) SE Runtime Environment
JVM: Java HotSpot(TM) 64-Bit Server VM
Default Encoding: UTF-8
Language: en
Country: US
--></g></svg>