<?xml version="1.0" encoding="UTF-8" standalone="no"?><svg xmlns="http://www.w3.org/2000/svg" xmlns:xlink="http://www.w3.org/1999/xlink" contentScriptType="application/ecmascript" contentStyleType="text/css" height="237px" preserveAspectRatio="none" style="width:483px;height:237px;background:#00000000;" version="1.1" viewBox="0 0 483 237" width="483px" zoomAndPan="magnify"><defs><filter height="300%" id="f1hjgwi5yc9iy4" width="300%" x="-1" y="-1"><feGaussianBlur result="blurOut" stdDeviation="2.0"/><feColorMatrix in="blurOut" result="blurOut2" type="matrix" values="0 0 0 0 0 0 0 0 0 0 0 0 0 0 0 0 0 0 .4 0"/><feOffset dx="4.0" dy="4.0" in="blurOut2" result="blurOut3"/><feBlend in="SourceGraphic" in2="blurOut3" mode="normal"/></filter></defs><g><!--MD5=[a20a8f5c719dd0b14625af93e214cb5b]
class QuadShaderType--><rect codeLine="6" fill="#FEFECE" filter="url(#f1hjgwi5yc9iy4)" height="32" id="QuadShaderType" style="stroke:#FF0000;stroke-width:1.5;" width="132" x="171" y="99"/><ellipse cx="186" cy="115" fill="#A9DCDF" rx="11" ry="11" style="stroke:#FF0000;stroke-width:1.0;"/><path d="M185.8633,110.3481 L184.7095,115.4199 L187.0254,115.4199 Z M184.3691,108.1069 L187.3657,108.1069 L190.7109,120.5 L188.2622,120.5 L187.4985,117.437 L184.2197,117.437 L183.4727,120.5 L181.0239,120.5 Z " fill="#000000"/><text fill="#000000" font-family="sans-serif" font-size="12" font-style="italic" lengthAdjust="spacing" textLength="100" x="200" y="119.5352">QuadShaderType</text><!--MD5=[22fd9abb6b5f6baa829d9b24081553a5]
class ShaderType--><rect codeLine="8" fill="#FEFECE" filter="url(#f1hjgwi5yc9iy4)" height="32" id="ShaderType" style="stroke:#FF0000;stroke-width:1.5;" width="101" x="186.5" y="7"/><ellipse cx="201.5" cy="23" fill="#A9DCDF" rx="11" ry="11" style="stroke:#FF0000;stroke-width:1.0;"/><path d="M201.3633,18.3481 L200.2095,23.4199 L202.5254,23.4199 Z M199.8691,16.1069 L202.8657,16.1069 L206.2109,28.5 L203.7622,28.5 L202.9985,25.437 L199.7197,25.437 L198.9727,28.5 L196.5239,28.5 Z " fill="#000000"/><text fill="#000000" font-family="sans-serif" font-size="12" font-style="italic" lengthAdjust="spacing" textLength="69" x="215.5" y="27.5352">ShaderType</text><!--MD5=[4907cf6d5446b10e82631247fe678365]
class LabelShaderType--><rect codeLine="11" fill="#FEFECE" filter="url(#f1hjgwi5yc9iy4)" height="32" id="LabelShaderType" style="stroke:#FF0000;stroke-width:1.5;" width="132" x="7" y="191"/><ellipse cx="22" cy="207" fill="#ADD1B2" rx="11" ry="11" style="stroke:#FF0000;stroke-width:1.0;"/><path d="M24.4731,213.1431 Q23.8921,213.4419 23.2529,213.5913 Q22.6138,213.7407 21.9082,213.7407 Q19.4014,213.7407 18.0815,212.0889 Q16.7617,210.437 16.7617,207.3159 Q16.7617,204.1865 18.0815,202.5347 Q19.4014,200.8828 21.9082,200.8828 Q22.6138,200.8828 23.2612,201.0322 Q23.9087,201.1816 24.4731,201.4805 L24.4731,204.2031 Q23.8423,203.6221 23.2488,203.3523 Q22.6553,203.0825 22.0244,203.0825 Q20.6797,203.0825 19.9949,204.1492 Q19.3101,205.2158 19.3101,207.3159 Q19.3101,209.4077 19.9949,210.4744 Q20.6797,211.541 22.0244,211.541 Q22.6553,211.541 23.2488,211.2712 Q23.8423,211.0015 24.4731,210.4204 Z " fill="#000000"/><text fill="#000000" font-family="sans-serif" font-size="12" lengthAdjust="spacing" textLength="100" x="36" y="211.5352">LabelShaderType</text><!--MD5=[9a3a5f724f0e03cd0a7102b6c7d474ce]
class RectShaderType--><rect codeLine="14" fill="#FEFECE" filter="url(#f1hjgwi5yc9iy4)" height="32" id="RectShaderType" style="stroke:#FF0000;stroke-width:1.5;" width="126" x="174" y="191"/><ellipse cx="189" cy="207" fill="#ADD1B2" rx="11" ry="11" style="stroke:#FF0000;stroke-width:1.0;"/><path d="M191.4731,213.1431 Q190.8921,213.4419 190.2529,213.5913 Q189.6138,213.7407 188.9082,213.7407 Q186.4014,213.7407 185.0815,212.0889 Q183.7617,210.437 183.7617,207.3159 Q183.7617,204.1865 185.0815,202.5347 Q186.4014,200.8828 188.9082,200.8828 Q189.6138,200.8828 190.2612,201.0322 Q190.9087,201.1816 191.4731,201.4805 L191.4731,204.2031 Q190.8423,203.6221 190.2488,203.3523 Q189.6553,203.0825 189.0244,203.0825 Q187.6797,203.0825 186.9949,204.1492 Q186.3101,205.2158 186.3101,207.3159 Q186.3101,209.4077 186.9949,210.4744 Q187.6797,211.541 189.0244,211.541 Q189.6553,211.541 190.2488,211.2712 Q190.8423,211.0015 191.4731,210.4204 Z " fill="#000000"/><text fill="#000000" font-family="sans-serif" font-size="12" lengthAdjust="spacing" textLength="94" x="203" y="211.5352">RectShaderType</text><!--MD5=[835d8d7276faa0dadf5f3e9090d823c5]
class SpriteShaderType--><rect codeLine="17" fill="#FEFECE" filter="url(#f1hjgwi5yc9iy4)" height="32" id="SpriteShaderType" style="stroke:#FF0000;stroke-width:1.5;" width="134" x="335" y="191"/><ellipse cx="350" cy="207" fill="#ADD1B2" rx="11" ry="11" style="stroke:#FF0000;stroke-width:1.0;"/><path d="M352.4731,213.1431 Q351.8921,213.4419 351.2529,213.5913 Q350.6138,213.7407 349.9082,213.7407 Q347.4014,213.7407 346.0815,212.0889 Q344.7617,210.437 344.7617,207.3159 Q344.7617,204.1865 346.0815,202.5347 Q347.4014,200.8828 349.9082,200.8828 Q350.6138,200.8828 351.2612,201.0322 Q351.9087,201.1816 352.4731,201.4805 L352.4731,204.2031 Q351.8423,203.6221 351.2488,203.3523 Q350.6553,203.0825 350.0244,203.0825 Q348.6797,203.0825 347.9949,204.1492 Q347.3101,205.2158 347.3101,207.3159 Q347.3101,209.4077 347.9949,210.4744 Q348.6797,211.541 350.0244,211.541 Q350.6553,211.541 351.2488,211.2712 Q351.8423,211.0015 352.4731,210.4204 Z " fill="#000000"/><text fill="#000000" font-family="sans-serif" font-size="12" lengthAdjust="spacing" textLength="102" x="364" y="211.5352">SpriteShaderType</text><!--MD5=[07878e31c987d625e9411fa2067689fe]
reverse link ShaderType to QuadShaderType--><path codeLine="10" d="M237,59.61 C237,73.31 237,88.22 237,98.96 " fill="none" id="ShaderType-backto-QuadShaderType" style="stroke:#FF0000;stroke-width:1.0;"/><polygon fill="none" points="230,59.27,237,39.27,244,59.27,230,59.27" style="stroke:#FF0000;stroke-width:1.0;"/><!--MD5=[41ad66983abf82946cfbe229c70ab90c]
reverse link QuadShaderType to LabelShaderType--><path codeLine="13" d="M191.68,140.87 C162.46,156.91 125.4,177.24 100.54,190.89 " fill="none" id="QuadShaderType-backto-LabelShaderType" style="stroke:#FF0000;stroke-width:1.0;"/><polygon fill="none" points="188.65,134.55,209.55,131.06,195.38,146.82,188.65,134.55" style="stroke:#FF0000;stroke-width:1.0;"/><!--MD5=[25891842fa83f61bd67aa3cd1853c2e6]
reverse link QuadShaderType to RectShaderType--><path codeLine="16" d="M237,151.61 C237,165.31 237,180.22 237,190.96 " fill="none" id="QuadShaderType-backto-RectShaderType" style="stroke:#FF0000;stroke-width:1.0;"/><polygon fill="none" points="230,151.27,237,131.27,244,151.27,230,151.27" style="stroke:#FF0000;stroke-width:1.0;"/><!--MD5=[0e57cfa1031b10ba44119775eb1e59af]
reverse link QuadShaderType to SpriteShaderType--><path codeLine="19" d="M282.59,140.87 C312,156.91 349.28,177.24 374.29,190.89 " fill="none" id="QuadShaderType-backto-SpriteShaderType" style="stroke:#FF0000;stroke-width:1.0;"/><polygon fill="none" points="278.82,146.79,264.62,131.06,285.53,134.5,278.82,146.79" style="stroke:#FF0000;stroke-width:1.0;"/><!--MD5=[40816c18960dec3c49e784175de3689d]
@startuml
skinparam ClassArrowColor #ff0000
skinparam ClassBorderColor #ff0000
skinparam BackgroundColor transparent
hide empty methods
hide empty fields
abstract class "QuadShaderType" {
}
abstract class "ShaderType" {
}
"ShaderType" <|- - "QuadShaderType"
class "LabelShaderType" {
}
"QuadShaderType" <|- - "LabelShaderType"
class "RectShaderType" {
}
"QuadShaderType" <|- - "RectShaderType"
class "SpriteShaderType" {
}
"QuadShaderType" <|- - "SpriteShaderType"
@enduml

PlantUML version 1.2021.14(Fri Nov 12 11:46:50 EST 2021)
(GPL source distribution)
Java Runtime: Java(TM) SE Runtime Environment
JVM: Java HotSpot(TM) 64-Bit Server VM
Default Encoding: UTF-8
Language: en
Country: US
--></g></svg>