<?xml version="1.0" encoding="UTF-8" standalone="no"?><svg xmlns="http://www.w3.org/2000/svg" xmlns:xlink="http://www.w3.org/1999/xlink" contentScriptType="application/ecmascript" contentStyleType="text/css" height="363px" preserveAspectRatio="none" style="width:205px;height:363px;background:#00000000;" version="1.1" viewBox="0 0 205 363" width="205px" zoomAndPan="magnify"><defs><filter height="300%" id="f19jbo20klnffu" width="300%" x="-1" y="-1"><feGaussianBlur result="blurOut" stdDeviation="2.0"/><feColorMatrix in="blurOut" result="blurOut2" type="matrix" values="0 0 0 0 0 0 0 0 0 0 0 0 0 0 0 0 0 0 .4 0"/><feOffset dx="4.0" dy="4.0" in="blurOut2" result="blurOut3"/><feBlend in="SourceGraphic" in2="blurOut3" mode="normal"/></filter></defs><g><!--MD5=[4cf8791f059241ba487a2a3cb7a4983d]
class Queue<T>--><rect codeLine="6" fill="#FEFECE" filter="url(#f19jbo20klnffu)" height="216.416" id="Queue&lt;T&gt;" style="stroke:#FF0000;stroke-width:1.5;" width="184" x="7" y="133"/><ellipse cx="62.25" cy="149" fill="#ADD1B2" rx="11" ry="11" style="stroke:#FF0000;stroke-width:1.0;"/><path d="M64.7231,155.1431 Q64.1421,155.4419 63.5029,155.5913 Q62.8638,155.7407 62.1582,155.7407 Q59.6514,155.7407 58.3315,154.0889 Q57.0117,152.437 57.0117,149.3159 Q57.0117,146.1865 58.3315,144.5347 Q59.6514,142.8828 62.1582,142.8828 Q62.8638,142.8828 63.5112,143.0322 Q64.1587,143.1816 64.7231,143.4805 L64.7231,146.2031 Q64.0923,145.6221 63.4988,145.3523 Q62.9053,145.0825 62.2744,145.0825 Q60.9297,145.0825 60.2449,146.1492 Q59.5601,147.2158 59.5601,149.3159 Q59.5601,151.4077 60.2449,152.4744 Q60.9297,153.541 62.2744,153.541 Q62.9053,153.541 63.4988,153.2712 Q64.0923,153.0015 64.7231,152.4204 Z " fill="#000000"/><text fill="#000000" font-family="sans-serif" font-size="12" lengthAdjust="spacing" textLength="65" x="82.75" y="153.5352">Queue&lt;T&gt;</text><line style="stroke:#FF0000;stroke-width:1.5;" x1="8" x2="190" y1="165" y2="165"/><rect fill="none" height="6" style="stroke:#C82930;stroke-width:1.0;" width="6" x="15" y="173"/><text fill="#000000" font-family="sans-serif" font-size="11" lengthAdjust="spacing" textLength="77" x="27" y="179.6348">head : number</text><rect fill="none" height="6" style="stroke:#C82930;stroke-width:1.0;" width="6" x="15" y="185.9551"/><text fill="#000000" font-family="sans-serif" font-size="11" lengthAdjust="spacing" textLength="135" x="27" y="192.5898">MAX_ELEMENTS : number</text><rect fill="none" height="6" style="stroke:#C82930;stroke-width:1.0;" width="6" x="15" y="198.9102"/><text fill="#000000" font-family="sans-serif" font-size="11" lengthAdjust="spacing" textLength="31" x="27" y="205.5449">q : T[]</text><rect fill="none" height="6" style="stroke:#C82930;stroke-width:1.0;" width="6" x="15" y="211.8652"/><text fill="#000000" font-family="sans-serif" font-size="11" lengthAdjust="spacing" textLength="72" x="27" y="218.5">size : number</text><rect fill="none" height="6" style="stroke:#C82930;stroke-width:1.0;" width="6" x="15" y="224.8203"/><text fill="#000000" font-family="sans-serif" font-size="11" lengthAdjust="spacing" textLength="67" x="27" y="231.4551">tail : number</text><line style="stroke:#FF0000;stroke-width:1.5;" x1="8" x2="190" y1="237.7754" y2="237.7754"/><ellipse cx="18" cy="248.7754" fill="#84BE84" rx="3" ry="3" style="stroke:#038048;stroke-width:1.0;"/><text fill="#000000" font-family="sans-serif" font-size="11" lengthAdjust="spacing" textLength="66" x="27" y="252.4102">clear() : void</text><ellipse cx="18" cy="261.7305" fill="#84BE84" rx="3" ry="3" style="stroke:#038048;stroke-width:1.0;"/><text fill="#000000" font-family="sans-serif" font-size="11" lengthAdjust="spacing" textLength="70" x="27" y="265.3652">dequeue() : T</text><ellipse cx="18" cy="274.6855" fill="#84BE84" rx="3" ry="3" style="stroke:#038048;stroke-width:1.0;"/><text fill="#000000" font-family="sans-serif" font-size="11" lengthAdjust="spacing" textLength="122" x="27" y="278.3203">enqueue(item: T) : void</text><ellipse cx="18" cy="287.6406" fill="#84BE84" rx="3" ry="3" style="stroke:#038048;stroke-width:1.0;"/><text fill="#000000" font-family="sans-serif" font-size="11" lengthAdjust="spacing" textLength="158" x="27" y="291.2754">forEach(func: Function) : void</text><ellipse cx="18" cy="300.5957" fill="#84BE84" rx="3" ry="3" style="stroke:#038048;stroke-width:1.0;"/><text fill="#000000" font-family="sans-serif" font-size="11" lengthAdjust="spacing" textLength="97" x="27" y="304.2305">getSize() : number</text><ellipse cx="18" cy="313.5508" fill="#84BE84" rx="3" ry="3" style="stroke:#038048;stroke-width:1.0;"/><text fill="#000000" font-family="sans-serif" font-size="11" lengthAdjust="spacing" textLength="108" x="27" y="317.1855">hasItems() : boolean</text><ellipse cx="18" cy="326.5059" fill="#84BE84" rx="3" ry="3" style="stroke:#038048;stroke-width:1.0;"/><text fill="#000000" font-family="sans-serif" font-size="11" lengthAdjust="spacing" textLength="74" x="27" y="330.1406">peekNext() : T</text><ellipse cx="18" cy="339.4609" fill="#84BE84" rx="3" ry="3" style="stroke:#038048;stroke-width:1.0;"/><text fill="#000000" font-family="sans-serif" font-size="11" lengthAdjust="spacing" textLength="92" x="27" y="343.0957">toString() : string</text><!--MD5=[c160724f8e3bb89ca8141a12554ac2e3]
class Collection--><rect codeLine="21" fill="#FEFECE" filter="url(#f19jbo20klnffu)" height="65.9102" id="Collection" style="stroke:#FF0000;stroke-width:1.5;" width="184" x="7" y="7"/><ellipse cx="67.25" cy="23" fill="#B4A7E5" rx="11" ry="11" style="stroke:#FF0000;stroke-width:1.0;"/><path d="M63.6777,19.2651 L63.6777,17.1069 L71.0571,17.1069 L71.0571,19.2651 L68.5918,19.2651 L68.5918,27.3418 L71.0571,27.3418 L71.0571,29.5 L63.6777,29.5 L63.6777,27.3418 L66.1431,27.3418 L66.1431,19.2651 Z " fill="#000000"/><text fill="#000000" font-family="sans-serif" font-size="12" font-style="italic" lengthAdjust="spacing" textLength="55" x="87.75" y="27.5352">Collection</text><line style="stroke:#FF0000;stroke-width:1.5;" x1="8" x2="190" y1="39" y2="39"/><ellipse cx="18" cy="50" fill="#84BE84" rx="3" ry="3" style="stroke:#038048;stroke-width:1.0;"/><text fill="#000000" font-family="sans-serif" font-size="11" lengthAdjust="spacing" textLength="66" x="27" y="53.6348">clear() : void</text><ellipse cx="18" cy="62.9551" fill="#84BE84" rx="3" ry="3" style="stroke:#038048;stroke-width:1.0;"/><text fill="#000000" font-family="sans-serif" font-size="11" lengthAdjust="spacing" textLength="158" x="27" y="66.5898">forEach(func: Function) : void</text><!--MD5=[af29c0f9b332e8adfb7dde84f08603cf]
reverse link Collection to Queue<T>--><path codeLine="25" d="M99,93.73 C99,105.86 99,119.19 99,132.71 " fill="none" id="Collection-backto-Queue&lt;T&gt;" style="stroke:#FF0000;stroke-width:1.0;stroke-dasharray:7.0,7.0;"/><polygon fill="none" points="92,93.42,99,73.42,106,93.42,92,93.42" style="stroke:#FF0000;stroke-width:1.0;"/><!--MD5=[90481344f9bae070e836366c8f4d433a]
@startuml
skinparam ClassArrowColor #ff0000
skinparam ClassBorderColor #ff0000
skinparam BackgroundColor transparent
hide empty methods
hide empty fields
class "Queue<T>" {
    -head : number
    -MAX_ELEMENTS : number
    -q : T[]
    -size : number
    -tail : number
    +clear() : void
    +dequeue() : T
    +enqueue(item: T) : void
    +forEach(func: Function) : void
    +getSize() : number
    +hasItems() : boolean
    +peekNext() : T
    +toString() : string
}
interface "Collection" {
    +clear() : void
    +forEach(func: Function) : void
}
"Collection" <|.. "Queue<T>"
@enduml

PlantUML version 1.2021.14(Fri Nov 12 11:46:50 EST 2021)
(GPL source distribution)
Java Runtime: Java(TM) SE Runtime Environment
JVM: Java HotSpot(TM) 64-Bit Server VM
Default Encoding: UTF-8
Language: en
Country: US
--></g></svg>