<?xml version="1.0" encoding="UTF-8" standalone="no"?><svg xmlns="http://www.w3.org/2000/svg" xmlns:xlink="http://www.w3.org/1999/xlink" contentScriptType="application/ecmascript" contentStyleType="text/css" height="145px" preserveAspectRatio="none" style="width:153px;height:145px;background:#00000000;" version="1.1" viewBox="0 0 153 145" width="153px" zoomAndPan="magnify"><defs><filter height="300%" id="fzw4tvnz9l5b5" width="300%" x="-1" y="-1"><feGaussianBlur result="blurOut" stdDeviation="2.0"/><feColorMatrix in="blurOut" result="blurOut2" type="matrix" values="0 0 0 0 0 0 0 0 0 0 0 0 0 0 0 0 0 0 .4 0"/><feOffset dx="4.0" dy="4.0" in="blurOut2" result="blurOut3"/><feBlend in="SourceGraphic" in2="blurOut3" mode="normal"/></filter></defs><g><!--MD5=[9a3a5f724f0e03cd0a7102b6c7d474ce]
class RectShaderType--><rect codeLine="6" fill="#FEFECE" filter="url(#fzw4tvnz9l5b5)" height="32" id="RectShaderType" style="stroke:#FF0000;stroke-width:1.5;" width="126" x="10" y="99"/><ellipse cx="25" cy="115" fill="#ADD1B2" rx="11" ry="11" style="stroke:#FF0000;stroke-width:1.0;"/><path d="M27.4731,121.1431 Q26.8921,121.4419 26.2529,121.5913 Q25.6138,121.7407 24.9082,121.7407 Q22.4014,121.7407 21.0815,120.0889 Q19.7617,118.437 19.7617,115.3159 Q19.7617,112.1865 21.0815,110.5347 Q22.4014,108.8828 24.9082,108.8828 Q25.6138,108.8828 26.2612,109.0322 Q26.9087,109.1816 27.4731,109.4805 L27.4731,112.2031 Q26.8423,111.6221 26.2488,111.3523 Q25.6553,111.0825 25.0244,111.0825 Q23.6797,111.0825 22.9949,112.1492 Q22.3101,113.2158 22.3101,115.3159 Q22.3101,117.4077 22.9949,118.4744 Q23.6797,119.541 25.0244,119.541 Q25.6553,119.541 26.2488,119.2712 Q26.8423,119.0015 27.4731,118.4204 Z " fill="#000000"/><text fill="#000000" font-family="sans-serif" font-size="12" lengthAdjust="spacing" textLength="94" x="39" y="119.5352">RectShaderType</text><!--MD5=[a20a8f5c719dd0b14625af93e214cb5b]
class QuadShaderType--><rect codeLine="8" fill="#FEFECE" filter="url(#fzw4tvnz9l5b5)" height="32" id="QuadShaderType" style="stroke:#FF0000;stroke-width:1.5;" width="132" x="7" y="7"/><ellipse cx="22" cy="23" fill="#A9DCDF" rx="11" ry="11" style="stroke:#FF0000;stroke-width:1.0;"/><path d="M21.8633,18.3481 L20.7095,23.4199 L23.0254,23.4199 Z M20.3691,16.1069 L23.3657,16.1069 L26.7109,28.5 L24.2622,28.5 L23.4985,25.437 L20.2197,25.437 L19.4727,28.5 L17.0239,28.5 Z " fill="#000000"/><text fill="#000000" font-family="sans-serif" font-size="12" font-style="italic" lengthAdjust="spacing" textLength="100" x="36" y="27.5352">QuadShaderType</text><!--MD5=[25891842fa83f61bd67aa3cd1853c2e6]
reverse link QuadShaderType to RectShaderType--><path codeLine="10" d="M73,59.61 C73,73.31 73,88.22 73,98.96 " fill="none" id="QuadShaderType-backto-RectShaderType" style="stroke:#FF0000;stroke-width:1.0;"/><polygon fill="none" points="66,59.27,73,39.27,80,59.27,66,59.27" style="stroke:#FF0000;stroke-width:1.0;"/><!--MD5=[6417834ab1de20da1cea24c1507060e8]
@startuml
skinparam ClassArrowColor #ff0000
skinparam ClassBorderColor #ff0000
skinparam BackgroundColor transparent
hide empty methods
hide empty fields
class "RectShaderType" {
}
abstract class "QuadShaderType" {
}
"QuadShaderType" <|- - "RectShaderType"
@enduml

PlantUML version 1.2021.14(Fri Nov 12 11:46:50 EST 2021)
(GPL source distribution)
Java Runtime: Java(TM) SE Runtime Environment
JVM: Java HotSpot(TM) 64-Bit Server VM
Default Encoding: UTF-8
Language: en
Country: US
--></g></svg>