<?xml version="1.0" encoding="UTF-8" standalone="no"?><svg xmlns="http://www.w3.org/2000/svg" xmlns:xlink="http://www.w3.org/1999/xlink" contentScriptType="application/ecmascript" contentStyleType="text/css" height="454px" preserveAspectRatio="none" style="width:490px;height:454px;background:#00000000;" version="1.1" viewBox="0 0 490 454" width="490px" zoomAndPan="magnify"><defs><filter height="300%" id="f11ydnemkieayt" width="300%" x="-1" y="-1"><feGaussianBlur result="blurOut" stdDeviation="2.0"/><feColorMatrix in="blurOut" result="blurOut2" type="matrix" values="0 0 0 0 0 0 0 0 0 0 0 0 0 0 0 0 0 0 .4 0"/><feOffset dx="4.0" dy="4.0" in="blurOut2" result="blurOut3"/><feBlend in="SourceGraphic" in2="blurOut3" mode="normal"/></filter></defs><g><!--MD5=[436d0f1cf037ffca600a8f8d2870c506]
class RegionQuadTree<T>--><rect codeLine="6" fill="#FEFECE" filter="url(#f11ydnemkieayt)" height="307.1016" id="RegionQuadTree&lt;T&gt;" style="stroke:#FF0000;stroke-width:1.5;" width="467" x="9" y="133"/><ellipse cx="175.75" cy="149" fill="#ADD1B2" rx="11" ry="11" style="stroke:#FF0000;stroke-width:1.0;"/><path d="M178.2231,155.1431 Q177.6421,155.4419 177.0029,155.5913 Q176.3638,155.7407 175.6582,155.7407 Q173.1514,155.7407 171.8315,154.0889 Q170.5117,152.437 170.5117,149.3159 Q170.5117,146.1865 171.8315,144.5347 Q173.1514,142.8828 175.6582,142.8828 Q176.3638,142.8828 177.0112,143.0322 Q177.6587,143.1816 178.2231,143.4805 L178.2231,146.2031 Q177.5923,145.6221 176.9988,145.3523 Q176.4053,145.0825 175.7744,145.0825 Q174.4297,145.0825 173.7449,146.1492 Q173.0601,147.2158 173.0601,149.3159 Q173.0601,151.4077 173.7449,152.4744 Q174.4297,153.541 175.7744,153.541 Q176.4053,153.541 176.9988,153.2712 Q177.5923,153.0015 178.2231,152.4204 Z " fill="#000000"/><text fill="#000000" font-family="sans-serif" font-size="12" lengthAdjust="spacing" textLength="125" x="196.25" y="153.5352">RegionQuadTree&lt;T&gt;</text><line style="stroke:#FF0000;stroke-width:1.5;" x1="10" x2="475" y1="165" y2="165"/><polygon fill="none" points="20,171,24,175,20,179,16,175" style="stroke:#B38D22;stroke-width:1.0;"/><text fill="#000000" font-family="sans-serif" font-size="11" lengthAdjust="spacing" textLength="89" x="29" y="179.6348">boundary : AABB</text><polygon fill="none" points="20,183.9551,24,187.9551,20,191.9551,16,187.9551" style="stroke:#B38D22;stroke-width:1.0;"/><text fill="#000000" font-family="sans-serif" font-size="11" lengthAdjust="spacing" textLength="95" x="29" y="192.5898">capacity : number</text><polygon fill="none" points="20,196.9102,24,200.9102,20,204.9102,16,200.9102" style="stroke:#B38D22;stroke-width:1.0;"/><text fill="#000000" font-family="sans-serif" font-size="11" lengthAdjust="spacing" textLength="91" x="29" y="205.5449">divided : boolean</text><polygon fill="none" points="20,209.8652,24,213.8652,20,217.8652,16,213.8652" style="stroke:#B38D22;stroke-width:1.0;"/><text fill="#000000" font-family="sans-serif" font-size="11" lengthAdjust="spacing" textLength="53" x="29" y="218.5">items : T[]</text><polygon fill="none" points="20,222.8203,24,226.8203,20,230.8203,16,226.8203" style="stroke:#B38D22;stroke-width:1.0;"/><text fill="#000000" font-family="sans-serif" font-size="11" lengthAdjust="spacing" textLength="106" x="29" y="231.4551">maxDepth : number</text><polygon fill="none" points="20,235.7754,24,239.7754,20,243.7754,16,239.7754" style="stroke:#B38D22;stroke-width:1.0;"/><text fill="#000000" font-family="sans-serif" font-size="11" lengthAdjust="spacing" textLength="137" x="29" y="244.4102">ne : RegionQuadTree&lt;T&gt;</text><polygon fill="none" points="20,248.7305,24,252.7305,20,256.7305,16,252.7305" style="stroke:#B38D22;stroke-width:1.0;"/><text fill="#000000" font-family="sans-serif" font-size="11" lengthAdjust="spacing" textLength="139" x="29" y="257.3652">nw : RegionQuadTree&lt;T&gt;</text><polygon fill="none" points="20,261.6855,24,265.6855,20,269.6855,16,265.6855" style="stroke:#B38D22;stroke-width:1.0;"/><text fill="#000000" font-family="sans-serif" font-size="11" lengthAdjust="spacing" textLength="136" x="29" y="270.3203">se : RegionQuadTree&lt;T&gt;</text><polygon fill="none" points="20,274.6406,24,278.6406,20,282.6406,16,278.6406" style="stroke:#B38D22;stroke-width:1.0;"/><text fill="#000000" font-family="sans-serif" font-size="11" lengthAdjust="spacing" textLength="138" x="29" y="283.2754">sw : RegionQuadTree&lt;T&gt;</text><line style="stroke:#FF0000;stroke-width:1.5;" x1="10" x2="475" y1="289.5957" y2="289.5957"/><ellipse cx="20" cy="300.5957" fill="#84BE84" rx="3" ry="3" style="stroke:#038048;stroke-width:1.0;"/><text fill="#000000" font-family="sans-serif" font-size="11" lengthAdjust="spacing" textLength="66" x="29" y="304.2305">clear() : void</text><ellipse cx="20" cy="313.5508" fill="#84BE84" rx="3" ry="3" style="stroke:#038048;stroke-width:1.0;"/><text fill="#000000" font-family="sans-serif" font-size="11" lengthAdjust="spacing" textLength="158" x="29" y="317.1855">forEach(func: Function) : void</text><ellipse cx="20" cy="326.5059" fill="#84BE84" rx="3" ry="3" style="stroke:#038048;stroke-width:1.0;"/><text fill="#000000" font-family="sans-serif" font-size="11" lengthAdjust="spacing" textLength="107" x="29" y="330.1406">insert(item: T) : void</text><ellipse cx="20" cy="339.4609" fill="#84BE84" rx="3" ry="3" style="stroke:#038048;stroke-width:1.0;"/><text fill="#000000" font-family="sans-serif" font-size="11" lengthAdjust="spacing" textLength="150" x="29" y="343.0957">queryPoint(point: Vec2) : T[]</text><ellipse cx="20" cy="352.416" fill="#84BE84" rx="3" ry="3" style="stroke:#038048;stroke-width:1.0;"/><text fill="#000000" font-family="sans-serif" font-size="11" lengthAdjust="spacing" textLength="186" x="29" y="356.0508">queryRegion(boundary: AABB) : T[]</text><ellipse cx="20" cy="365.3711" fill="#84BE84" rx="3" ry="3" style="stroke:#038048;stroke-width:1.0;"/><text fill="#000000" font-family="sans-serif" font-size="11" lengthAdjust="spacing" textLength="441" x="29" y="369.0059">render_demo(ctx: CanvasRenderingContext2D, origin: Vec2, zoom: number) : void</text><polygon fill="#FFFF44" points="20,373.3262,24,377.3262,20,381.3262,16,377.3262" style="stroke:#B38D22;stroke-width:1.0;"/><text fill="#000000" font-family="sans-serif" font-size="11" lengthAdjust="spacing" textLength="135" x="29" y="381.9609">deferInsert(item: T) : void</text><polygon fill="#FFFF44" points="20,386.2813,24,390.2813,20,394.2813,16,390.2813" style="stroke:#B38D22;stroke-width:1.0;"/><text fill="#000000" font-family="sans-serif" font-size="11" lengthAdjust="spacing" textLength="121" x="29" y="394.916">distributeItems() : void</text><polygon fill="#FFFF44" points="20,399.2363,24,403.2363,20,407.2363,16,403.2363" style="stroke:#B38D22;stroke-width:1.0;"/><text fill="#000000" font-family="sans-serif" font-size="11" lengthAdjust="spacing" textLength="92" x="29" y="407.8711">subdivide() : void</text><polygon fill="#FFFF44" points="20,412.1914,24,416.1914,20,420.1914,16,416.1914" style="stroke:#B38D22;stroke-width:1.0;"/><text fill="#000000" font-family="sans-serif" font-size="11" lengthAdjust="spacing" textLength="346" x="29" y="420.8262">_queryPoint(point: Vec2, results: T[], uniqueMap: Map&lt;T&gt;) : void</text><polygon fill="#FFFF44" points="20,425.1465,24,429.1465,20,433.1465,16,429.1465" style="stroke:#B38D22;stroke-width:1.0;"/><text fill="#000000" font-family="sans-serif" font-size="11" lengthAdjust="spacing" textLength="386" x="29" y="433.7813">_queryRegion(boundary: AABB, results: T[], uniqueMap: boolean[]) : void</text><!--MD5=[c160724f8e3bb89ca8141a12554ac2e3]
class Collection--><rect codeLine="28" fill="#FEFECE" filter="url(#f11ydnemkieayt)" height="65.9102" id="Collection" style="stroke:#FF0000;stroke-width:1.5;" width="184" x="150.5" y="7"/><ellipse cx="210.75" cy="23" fill="#B4A7E5" rx="11" ry="11" style="stroke:#FF0000;stroke-width:1.0;"/><path d="M207.1777,19.2651 L207.1777,17.1069 L214.5571,17.1069 L214.5571,19.2651 L212.0918,19.2651 L212.0918,27.3418 L214.5571,27.3418 L214.5571,29.5 L207.1777,29.5 L207.1777,27.3418 L209.6431,27.3418 L209.6431,19.2651 Z " fill="#000000"/><text fill="#000000" font-family="sans-serif" font-size="12" font-style="italic" lengthAdjust="spacing" textLength="55" x="231.25" y="27.5352">Collection</text><line style="stroke:#FF0000;stroke-width:1.5;" x1="151.5" x2="333.5" y1="39" y2="39"/><ellipse cx="161.5" cy="50" fill="#84BE84" rx="3" ry="3" style="stroke:#038048;stroke-width:1.0;"/><text fill="#000000" font-family="sans-serif" font-size="11" lengthAdjust="spacing" textLength="66" x="170.5" y="53.6348">clear() : void</text><ellipse cx="161.5" cy="62.9551" fill="#84BE84" rx="3" ry="3" style="stroke:#038048;stroke-width:1.0;"/><text fill="#000000" font-family="sans-serif" font-size="11" lengthAdjust="spacing" textLength="158" x="170.5" y="66.5898">forEach(func: Function) : void</text><!--MD5=[24ee9484d373c81dcf9aa3a2df39bef6]
reverse link Collection to RegionQuadTree<T>--><path codeLine="32" d="M242.5,93.28 C242.5,105.34 242.5,118.77 242.5,132.78 " fill="none" id="Collection-backto-RegionQuadTree&lt;T&gt;" style="stroke:#FF0000;stroke-width:1.0;stroke-dasharray:7.0,7.0;"/><polygon fill="none" points="235.5,93.22,242.5,73.22,249.5,93.22,235.5,93.22" style="stroke:#FF0000;stroke-width:1.0;"/><!--MD5=[c226089987662f6cc65d97c559f0106f]
@startuml
skinparam ClassArrowColor #ff0000
skinparam ClassBorderColor #ff0000
skinparam BackgroundColor transparent
hide empty methods
hide empty fields
class "RegionQuadTree<T>" {
    #boundary : AABB
    #capacity : number
    #divided : boolean
    #items : T[]
    #maxDepth : number
    #ne : RegionQuadTree<T>
    #nw : RegionQuadTree<T>
    #se : RegionQuadTree<T>
    #sw : RegionQuadTree<T>
    +clear() : void
    +forEach(func: Function) : void
    +insert(item: T) : void
    +queryPoint(point: Vec2) : T[]
    +queryRegion(boundary: AABB) : T[]
    +render_demo(ctx: CanvasRenderingContext2D, origin: Vec2, zoom: number) : void
    #deferInsert(item: T) : void
    #distributeItems() : void
    #subdivide() : void
    #_queryPoint(point: Vec2, results: T[], uniqueMap: Map<T>) : void
    #_queryRegion(boundary: AABB, results: T[], uniqueMap: boolean[]) : void
}
interface "Collection" {
    +clear() : void
    +forEach(func: Function) : void
}
"Collection" <|.. "RegionQuadTree<T>"
@enduml

PlantUML version 1.2021.14(Fri Nov 12 11:46:50 EST 2021)
(GPL source distribution)
Java Runtime: Java(TM) SE Runtime Environment
JVM: Java HotSpot(TM) 64-Bit Server VM
Default Encoding: UTF-8
Language: en
Country: US
--></g></svg>