<?xml version="1.0" encoding="UTF-8" standalone="no"?><svg xmlns="http://www.w3.org/2000/svg" xmlns:xlink="http://www.w3.org/1999/xlink" contentScriptType="application/ecmascript" contentStyleType="text/css" height="145px" preserveAspectRatio="none" style="width:125px;height:145px;background:#00000000;" version="1.1" viewBox="0 0 125 145" width="125px" zoomAndPan="magnify"><defs><filter height="300%" id="fhs8m5vkl305a" width="300%" x="-1" y="-1"><feGaussianBlur result="blurOut" stdDeviation="2.0"/><feColorMatrix in="blurOut" result="blurOut2" type="matrix" values="0 0 0 0 0 0 0 0 0 0 0 0 0 0 0 0 0 0 .4 0"/><feOffset dx="4.0" dy="4.0" in="blurOut2" result="blurOut3"/><feBlend in="SourceGraphic" in2="blurOut3" mode="normal"/></filter></defs><g><!--MD5=[bdb7a498ae268604f9dee9fee1851af7]
class Region--><rect codeLine="6" fill="#FEFECE" filter="url(#fhs8m5vkl305a)" height="32" id="Region" style="stroke:#FF0000;stroke-width:1.5;" width="71" x="23.5" y="7"/><ellipse cx="38.5" cy="23" fill="#B4A7E5" rx="11" ry="11" style="stroke:#FF0000;stroke-width:1.0;"/><path d="M34.9277,19.2651 L34.9277,17.1069 L42.3071,17.1069 L42.3071,19.2651 L39.8418,19.2651 L39.8418,27.3418 L42.3071,27.3418 L42.3071,29.5 L34.9277,29.5 L34.9277,27.3418 L37.3931,27.3418 L37.3931,19.2651 Z " fill="#000000"/><text fill="#000000" font-family="sans-serif" font-size="12" font-style="italic" lengthAdjust="spacing" textLength="39" x="52.5" y="27.5352">Region</text><!--MD5=[2e70b9baf931f95a6b812c993ae5d283]
class CanvasNode--><rect codeLine="8" fill="#FEFECE" filter="url(#fhs8m5vkl305a)" height="32" id="CanvasNode" style="stroke:#FF0000;stroke-width:1.5;" width="104" x="7" y="99"/><ellipse cx="22" cy="115" fill="#A9DCDF" rx="11" ry="11" style="stroke:#FF0000;stroke-width:1.0;"/><path d="M21.8633,110.3481 L20.7095,115.4199 L23.0254,115.4199 Z M20.3691,108.1069 L23.3657,108.1069 L26.7109,120.5 L24.2622,120.5 L23.4985,117.437 L20.2197,117.437 L19.4727,120.5 L17.0239,120.5 Z " fill="#000000"/><text fill="#000000" font-family="sans-serif" font-size="12" font-style="italic" lengthAdjust="spacing" textLength="72" x="36" y="119.5352">CanvasNode</text><!--MD5=[1830a1c93c686b40a255a995f84bd3e3]
reverse link Region to CanvasNode--><path codeLine="10" d="M59,59.61 C59,73.31 59,88.22 59,98.96 " fill="none" id="Region-backto-CanvasNode" style="stroke:#FF0000;stroke-width:1.0;stroke-dasharray:7.0,7.0;"/><polygon fill="none" points="52,59.27,59,39.27,66,59.27,52,59.27" style="stroke:#FF0000;stroke-width:1.0;"/><!--MD5=[9ed615262e977c641e2891002f9a1ca8]
@startuml
skinparam ClassArrowColor #ff0000
skinparam ClassBorderColor #ff0000
skinparam BackgroundColor transparent
hide empty methods
hide empty fields
interface "Region" {
}
abstract class "CanvasNode" {
}
"Region" <|.. "CanvasNode"
@enduml

PlantUML version 1.2021.14(Fri Nov 12 11:46:50 EST 2021)
(GPL source distribution)
Java Runtime: Java(TM) SE Runtime Environment
JVM: Java HotSpot(TM) 64-Bit Server VM
Default Encoding: UTF-8
Language: en
Country: US
--></g></svg>