<?xml version="1.0" encoding="UTF-8" standalone="no"?><svg xmlns="http://www.w3.org/2000/svg" xmlns:xlink="http://www.w3.org/1999/xlink" contentScriptType="application/ecmascript" contentStyleType="text/css" height="237px" preserveAspectRatio="none" style="width:139px;height:237px;background:#00000000;" version="1.1" viewBox="0 0 139 237" width="139px" zoomAndPan="magnify"><defs><filter height="300%" id="f1e20hzlnh8nt9" width="300%" x="-1" y="-1"><feGaussianBlur result="blurOut" stdDeviation="2.0"/><feColorMatrix in="blurOut" result="blurOut2" type="matrix" values="0 0 0 0 0 0 0 0 0 0 0 0 0 0 0 0 0 0 .4 0"/><feOffset dx="4.0" dy="4.0" in="blurOut2" result="blurOut3"/><feBlend in="SourceGraphic" in2="blurOut3" mode="normal"/></filter></defs><g><!--MD5=[3abbef31bc9427b4087bd9c2520646fd]
class Registry<T>--><rect codeLine="6" fill="#FEFECE" filter="url(#f1e20hzlnh8nt9)" height="32" id="Registry&lt;T&gt;" style="stroke:#FF0000;stroke-width:1.5;" width="106" x="13" y="99"/><ellipse cx="28" cy="115" fill="#A9DCDF" rx="11" ry="11" style="stroke:#FF0000;stroke-width:1.0;"/><path d="M27.8633,110.3481 L26.7095,115.4199 L29.0254,115.4199 Z M26.3691,108.1069 L29.3657,108.1069 L32.7109,120.5 L30.2622,120.5 L29.4985,117.437 L26.2197,117.437 L25.4727,120.5 L23.0239,120.5 Z " fill="#000000"/><text fill="#000000" font-family="sans-serif" font-size="12" font-style="italic" lengthAdjust="spacing" textLength="74" x="42" y="119.5352">Registry&lt;T&gt;</text><!--MD5=[8e786d5ad0a1f26ce02b3732d670e3a1]
class Map<T>--><rect codeLine="8" fill="#FEFECE" filter="url(#f1e20hzlnh8nt9)" height="32" id="Map&lt;T&gt;" style="stroke:#FF0000;stroke-width:1.5;" width="85" x="23.5" y="7"/><ellipse cx="38.5" cy="23" fill="#ADD1B2" rx="11" ry="11" style="stroke:#FF0000;stroke-width:1.0;"/><path d="M40.9731,29.1431 Q40.3921,29.4419 39.7529,29.5913 Q39.1138,29.7407 38.4082,29.7407 Q35.9014,29.7407 34.5815,28.0889 Q33.2617,26.437 33.2617,23.3159 Q33.2617,20.1865 34.5815,18.5347 Q35.9014,16.8828 38.4082,16.8828 Q39.1138,16.8828 39.7612,17.0322 Q40.4087,17.1816 40.9731,17.4805 L40.9731,20.2031 Q40.3423,19.6221 39.7488,19.3523 Q39.1553,19.0825 38.5244,19.0825 Q37.1797,19.0825 36.4949,20.1492 Q35.8101,21.2158 35.8101,23.3159 Q35.8101,25.4077 36.4949,26.4744 Q37.1797,27.541 38.5244,27.541 Q39.1553,27.541 39.7488,27.2712 Q40.3423,27.0015 40.9731,26.4204 Z " fill="#000000"/><text fill="#000000" font-family="sans-serif" font-size="12" lengthAdjust="spacing" textLength="53" x="52.5" y="27.5352">Map&lt;T&gt;</text><!--MD5=[bc0008100b09d00eabbab68c5031d12a]
class ShaderRegistry--><rect codeLine="11" fill="#FEFECE" filter="url(#f1e20hzlnh8nt9)" height="32" id="ShaderRegistry" style="stroke:#FF0000;stroke-width:1.5;" width="118" x="7" y="191"/><ellipse cx="22" cy="207" fill="#ADD1B2" rx="11" ry="11" style="stroke:#FF0000;stroke-width:1.0;"/><path d="M24.4731,213.1431 Q23.8921,213.4419 23.2529,213.5913 Q22.6138,213.7407 21.9082,213.7407 Q19.4014,213.7407 18.0815,212.0889 Q16.7617,210.437 16.7617,207.3159 Q16.7617,204.1865 18.0815,202.5347 Q19.4014,200.8828 21.9082,200.8828 Q22.6138,200.8828 23.2612,201.0322 Q23.9087,201.1816 24.4731,201.4805 L24.4731,204.2031 Q23.8423,203.6221 23.2488,203.3523 Q22.6553,203.0825 22.0244,203.0825 Q20.6797,203.0825 19.9949,204.1492 Q19.3101,205.2158 19.3101,207.3159 Q19.3101,209.4077 19.9949,210.4744 Q20.6797,211.541 22.0244,211.541 Q22.6553,211.541 23.2488,211.2712 Q23.8423,211.0015 24.4731,210.4204 Z " fill="#000000"/><text fill="#000000" font-family="sans-serif" font-size="12" lengthAdjust="spacing" textLength="86" x="36" y="211.5352">ShaderRegistry</text><!--MD5=[3f1db7996de34e34ad53c7b52ff3c2fd]
reverse link Map<T> to Registry<T>--><path codeLine="10" d="M66,59.61 C66,73.31 66,88.22 66,98.96 " fill="none" id="Map&lt;T&gt;-backto-Registry&lt;T&gt;" style="stroke:#FF0000;stroke-width:1.0;"/><polygon fill="none" points="59,59.27,66,39.27,73,59.27,59,59.27" style="stroke:#FF0000;stroke-width:1.0;"/><!--MD5=[410b1d715fcc40c87652d76dda7224aa]
reverse link Registry<T> to ShaderRegistry--><path codeLine="13" d="M66,151.61 C66,165.31 66,180.22 66,190.96 " fill="none" id="Registry&lt;T&gt;-backto-ShaderRegistry" style="stroke:#FF0000;stroke-width:1.0;"/><polygon fill="none" points="59,151.27,66,131.27,73,151.27,59,151.27" style="stroke:#FF0000;stroke-width:1.0;"/><!--MD5=[78e68647f8a550d0dae9d9d9ccc78dd5]
@startuml
skinparam ClassArrowColor #ff0000
skinparam ClassBorderColor #ff0000
skinparam BackgroundColor transparent
hide empty methods
hide empty fields
abstract class "Registry<T>" {
}
class "Map<T>" {
}
"Map<T>" <|- - "Registry<T>"
class "ShaderRegistry" {
}
"Registry<T>" <|- - "ShaderRegistry"
@enduml

PlantUML version 1.2021.14(Fri Nov 12 11:46:50 EST 2021)
(GPL source distribution)
Java Runtime: Java(TM) SE Runtime Environment
JVM: Java HotSpot(TM) 64-Bit Server VM
Default Encoding: UTF-8
Language: en
Country: US
--></g></svg>