<?xml version="1.0" encoding="UTF-8" standalone="no"?><svg xmlns="http://www.w3.org/2000/svg" xmlns:xlink="http://www.w3.org/1999/xlink" contentScriptType="application/ecmascript" contentStyleType="text/css" height="145px" preserveAspectRatio="none" style="width:309px;height:145px;background:#00000000;" version="1.1" viewBox="0 0 309 145" width="309px" zoomAndPan="magnify"><defs><filter height="300%" id="f18oaokisqbkq9" width="300%" x="-1" y="-1"><feGaussianBlur result="blurOut" stdDeviation="2.0"/><feColorMatrix in="blurOut" result="blurOut2" type="matrix" values="0 0 0 0 0 0 0 0 0 0 0 0 0 0 0 0 0 0 .4 0"/><feOffset dx="4.0" dy="4.0" in="blurOut2" result="blurOut3"/><feBlend in="SourceGraphic" in2="blurOut3" mode="normal"/></filter></defs><g><!--MD5=[b2ada768cd946f90616e4aa0cdf316b8]
class RenderingManager--><rect codeLine="6" fill="#FEFECE" filter="url(#f18oaokisqbkq9)" height="32" id="RenderingManager" style="stroke:#FF0000;stroke-width:1.5;" width="141" x="81" y="7"/><ellipse cx="96" cy="23" fill="#A9DCDF" rx="11" ry="11" style="stroke:#FF0000;stroke-width:1.0;"/><path d="M95.8633,18.3481 L94.7095,23.4199 L97.0254,23.4199 Z M94.3691,16.1069 L97.3657,16.1069 L100.7109,28.5 L98.2622,28.5 L97.4985,25.437 L94.2197,25.437 L93.4727,28.5 L91.0239,28.5 Z " fill="#000000"/><text fill="#000000" font-family="sans-serif" font-size="12" font-style="italic" lengthAdjust="spacing" textLength="109" x="110" y="27.5352">RenderingManager</text><!--MD5=[fa8ecb3e39b35324ad6f36cae2f42f75]
class CanvasRenderer--><rect codeLine="8" fill="#FEFECE" filter="url(#f18oaokisqbkq9)" height="32" id="CanvasRenderer" style="stroke:#FF0000;stroke-width:1.5;" width="127" x="7" y="99"/><ellipse cx="22" cy="115" fill="#ADD1B2" rx="11" ry="11" style="stroke:#FF0000;stroke-width:1.0;"/><path d="M24.4731,121.1431 Q23.8921,121.4419 23.2529,121.5913 Q22.6138,121.7407 21.9082,121.7407 Q19.4014,121.7407 18.0815,120.0889 Q16.7617,118.437 16.7617,115.3159 Q16.7617,112.1865 18.0815,110.5347 Q19.4014,108.8828 21.9082,108.8828 Q22.6138,108.8828 23.2612,109.0322 Q23.9087,109.1816 24.4731,109.4805 L24.4731,112.2031 Q23.8423,111.6221 23.2488,111.3523 Q22.6553,111.0825 22.0244,111.0825 Q20.6797,111.0825 19.9949,112.1492 Q19.3101,113.2158 19.3101,115.3159 Q19.3101,117.4077 19.9949,118.4744 Q20.6797,119.541 22.0244,119.541 Q22.6553,119.541 23.2488,119.2712 Q23.8423,119.0015 24.4731,118.4204 Z " fill="#000000"/><text fill="#000000" font-family="sans-serif" font-size="12" lengthAdjust="spacing" textLength="95" x="36" y="119.5352">CanvasRenderer</text><!--MD5=[fe4e906ea959869ecb07c630817d3df6]
class WebGLRenderer--><rect codeLine="11" fill="#FEFECE" filter="url(#f18oaokisqbkq9)" height="32" id="WebGLRenderer" style="stroke:#FF0000;stroke-width:1.5;" width="126" x="169.5" y="99"/><ellipse cx="184.5" cy="115" fill="#ADD1B2" rx="11" ry="11" style="stroke:#FF0000;stroke-width:1.0;"/><path d="M186.9731,121.1431 Q186.3921,121.4419 185.7529,121.5913 Q185.1138,121.7407 184.4082,121.7407 Q181.9014,121.7407 180.5815,120.0889 Q179.2617,118.437 179.2617,115.3159 Q179.2617,112.1865 180.5815,110.5347 Q181.9014,108.8828 184.4082,108.8828 Q185.1138,108.8828 185.7612,109.0322 Q186.4087,109.1816 186.9731,109.4805 L186.9731,112.2031 Q186.3423,111.6221 185.7488,111.3523 Q185.1553,111.0825 184.5244,111.0825 Q183.1797,111.0825 182.4949,112.1492 Q181.8101,113.2158 181.8101,115.3159 Q181.8101,117.4077 182.4949,118.4744 Q183.1797,119.541 184.5244,119.541 Q185.1553,119.541 185.7488,119.2712 Q186.3423,119.0015 186.9731,118.4204 Z " fill="#000000"/><text fill="#000000" font-family="sans-serif" font-size="12" lengthAdjust="spacing" textLength="94" x="198.5" y="119.5352">WebGLRenderer</text><!--MD5=[5f169679acda06eae839159278597325]
reverse link RenderingManager to CanvasRenderer--><path codeLine="10" d="M124.28,54.25 C110.74,69.29 94.98,86.8 84.04,98.96 " fill="none" id="RenderingManager-backto-CanvasRenderer" style="stroke:#FF0000;stroke-width:1.0;"/><polygon fill="none" points="119.18,49.45,137.76,39.27,129.58,58.82,119.18,49.45" style="stroke:#FF0000;stroke-width:1.0;"/><!--MD5=[d1b389ee114d1787f568943d693e92dc]
reverse link RenderingManager to WebGLRenderer--><path codeLine="13" d="M178.72,54.25 C192.26,69.29 208.02,86.8 218.96,98.96 " fill="none" id="RenderingManager-backto-WebGLRenderer" style="stroke:#FF0000;stroke-width:1.0;"/><polygon fill="none" points="173.42,58.82,165.24,39.27,183.82,49.45,173.42,58.82" style="stroke:#FF0000;stroke-width:1.0;"/><!--MD5=[bcd383784d1ce823467bdf646d627b51]
@startuml
skinparam ClassArrowColor #ff0000
skinparam ClassBorderColor #ff0000
skinparam BackgroundColor transparent
hide empty methods
hide empty fields
abstract class "RenderingManager" {
}
class "CanvasRenderer" {
}
"RenderingManager" <|- - "CanvasRenderer"
class "WebGLRenderer" {
}
"RenderingManager" <|- - "WebGLRenderer"
@enduml

PlantUML version 1.2021.14(Fri Nov 12 11:46:50 EST 2021)
(GPL source distribution)
Java Runtime: Java(TM) SE Runtime Environment
JVM: Java HotSpot(TM) 64-Bit Server VM
Default Encoding: UTF-8
Language: en
Country: US
--></g></svg>