<?xml version="1.0" encoding="UTF-8" standalone="no"?><svg xmlns="http://www.w3.org/2000/svg" xmlns:xlink="http://www.w3.org/1999/xlink" contentScriptType="application/ecmascript" contentStyleType="text/css" height="145px" preserveAspectRatio="none" style="width:120px;height:145px;background:#00000000;" version="1.1" viewBox="0 0 120 145" width="120px" zoomAndPan="magnify"><defs><filter height="300%" id="f1m9w47tsqz2r2" width="300%" x="-1" y="-1"><feGaussianBlur result="blurOut" stdDeviation="2.0"/><feColorMatrix in="blurOut" result="blurOut2" type="matrix" values="0 0 0 0 0 0 0 0 0 0 0 0 0 0 0 0 0 0 .4 0"/><feOffset dx="4.0" dy="4.0" in="blurOut2" result="blurOut3"/><feBlend in="SourceGraphic" in2="blurOut3" mode="normal"/></filter></defs><g><!--MD5=[e4faacc5b8aef66b11ab0c816bbbc7f8]
class Scene--><rect codeLine="6" fill="#FEFECE" filter="url(#f1m9w47tsqz2r2)" height="32" id="Scene" style="stroke:#FF0000;stroke-width:1.5;" width="65" x="24" y="99"/><ellipse cx="39" cy="115" fill="#ADD1B2" rx="11" ry="11" style="stroke:#FF0000;stroke-width:1.0;"/><path d="M41.4731,121.1431 Q40.8921,121.4419 40.2529,121.5913 Q39.6138,121.7407 38.9082,121.7407 Q36.4014,121.7407 35.0815,120.0889 Q33.7617,118.437 33.7617,115.3159 Q33.7617,112.1865 35.0815,110.5347 Q36.4014,108.8828 38.9082,108.8828 Q39.6138,108.8828 40.2612,109.0322 Q40.9087,109.1816 41.4731,109.4805 L41.4731,112.2031 Q40.8423,111.6221 40.2488,111.3523 Q39.6553,111.0825 39.0244,111.0825 Q37.6797,111.0825 36.9949,112.1492 Q36.3101,113.2158 36.3101,115.3159 Q36.3101,117.4077 36.9949,118.4744 Q37.6797,119.541 39.0244,119.541 Q39.6553,119.541 40.2488,119.2712 Q40.8423,119.0015 41.4731,118.4204 Z " fill="#000000"/><text fill="#000000" font-family="sans-serif" font-size="12" lengthAdjust="spacing" textLength="33" x="53" y="119.5352">Scene</text><!--MD5=[8336922478991a54f539d469b4e48cc0]
class Updateable--><rect codeLine="8" fill="#FEFECE" filter="url(#f1m9w47tsqz2r2)" height="32" id="Updateable" style="stroke:#FF0000;stroke-width:1.5;" width="99" x="7" y="7"/><ellipse cx="22" cy="23" fill="#B4A7E5" rx="11" ry="11" style="stroke:#FF0000;stroke-width:1.0;"/><path d="M18.4277,19.2651 L18.4277,17.1069 L25.8071,17.1069 L25.8071,19.2651 L23.3418,19.2651 L23.3418,27.3418 L25.8071,27.3418 L25.8071,29.5 L18.4277,29.5 L18.4277,27.3418 L20.8931,27.3418 L20.8931,19.2651 Z " fill="#000000"/><text fill="#000000" font-family="sans-serif" font-size="12" font-style="italic" lengthAdjust="spacing" textLength="67" x="36" y="27.5352">Updateable</text><!--MD5=[07a461f2143bf4eaf21886bcd04fe725]
reverse link Updateable to Scene--><path codeLine="10" d="M56.5,59.61 C56.5,73.31 56.5,88.22 56.5,98.96 " fill="none" id="Updateable-backto-Scene" style="stroke:#FF0000;stroke-width:1.0;stroke-dasharray:7.0,7.0;"/><polygon fill="none" points="49.5,59.27,56.5,39.27,63.5,59.27,49.5,59.27" style="stroke:#FF0000;stroke-width:1.0;"/><!--MD5=[eb5914d87206abc93c8ebb26e45f5c64]
@startuml
skinparam ClassArrowColor #ff0000
skinparam ClassBorderColor #ff0000
skinparam BackgroundColor transparent
hide empty methods
hide empty fields
class "Scene" {
}
interface "Updateable" {
}
"Updateable" <|.. "Scene"
@enduml

PlantUML version 1.2021.14(Fri Nov 12 11:46:50 EST 2021)
(GPL source distribution)
Java Runtime: Java(TM) SE Runtime Environment
JVM: Java HotSpot(TM) 64-Bit Server VM
Default Encoding: UTF-8
Language: en
Country: US
--></g></svg>