<?xml version="1.0" encoding="UTF-8" standalone="no"?><svg xmlns="http://www.w3.org/2000/svg" xmlns:xlink="http://www.w3.org/1999/xlink" contentScriptType="application/ecmascript" contentStyleType="text/css" height="777px" preserveAspectRatio="none" style="width:461px;height:777px;background:#00000000;" version="1.1" viewBox="0 0 461 777" width="461px" zoomAndPan="magnify"><defs><filter height="300%" id="f1nxm7mmn0lz23" width="300%" x="-1" y="-1"><feGaussianBlur result="blurOut" stdDeviation="2.0"/><feColorMatrix in="blurOut" result="blurOut2" type="matrix" values="0 0 0 0 0 0 0 0 0 0 0 0 0 0 0 0 0 0 .4 0"/><feOffset dx="4.0" dy="4.0" in="blurOut2" result="blurOut3"/><feBlend in="SourceGraphic" in2="blurOut3" mode="normal"/></filter></defs><g><!--MD5=[e4faacc5b8aef66b11ab0c816bbbc7f8]
class Scene--><rect codeLine="6" fill="#FEFECE" filter="url(#f1nxm7mmn0lz23)" height="643.9336" id="Scene" style="stroke:#FF0000;stroke-width:1.5;" width="438" x="9" y="120"/><ellipse cx="207.25" cy="136" fill="#ADD1B2" rx="11" ry="11" style="stroke:#FF0000;stroke-width:1.0;"/><path d="M209.7231,142.1431 Q209.1421,142.4419 208.5029,142.5913 Q207.8638,142.7407 207.1582,142.7407 Q204.6514,142.7407 203.3315,141.0889 Q202.0117,139.437 202.0117,136.3159 Q202.0117,133.1865 203.3315,131.5347 Q204.6514,129.8828 207.1582,129.8828 Q207.8638,129.8828 208.5112,130.0322 Q209.1587,130.1816 209.7231,130.4805 L209.7231,133.2031 Q209.0923,132.6221 208.4988,132.3523 Q207.9053,132.0825 207.2744,132.0825 Q205.9297,132.0825 205.2449,133.1492 Q204.5601,134.2158 204.5601,136.3159 Q204.5601,138.4077 205.2449,139.4744 Q205.9297,140.541 207.2744,140.541 Q207.9053,140.541 208.4988,140.2712 Q209.0923,140.0015 209.7231,139.4204 Z " fill="#000000"/><text fill="#000000" font-family="sans-serif" font-size="12" lengthAdjust="spacing" textLength="33" x="227.75" y="140.5352">Scene</text><line style="stroke:#FF0000;stroke-width:1.5;" x1="10" x2="446" y1="152" y2="152"/><ellipse cx="20" cy="163" rx="3" ry="3" style="stroke:#038048;stroke-width:1.0;fill:none;"/><text fill="#000000" font-family="sans-serif" font-size="11" lengthAdjust="spacing" textLength="115" x="29" y="166.6348">add : FactoryManager</text><ellipse cx="20" cy="175.9551" rx="3" ry="3" style="stroke:#038048;stroke-width:1.0;fill:none;"/><text fill="#000000" font-family="sans-serif" font-size="11" lengthAdjust="spacing" textLength="128" x="29" y="179.5898">load : ResourceManager</text><ellipse cx="20" cy="188.9102" rx="3" ry="3" style="stroke:#038048;stroke-width:1.0;fill:none;"/><text fill="#000000" font-family="sans-serif" font-size="11" lengthAdjust="spacing" textLength="199" x="29" y="192.5449">resourceManager : ResourceManager</text><ellipse cx="20" cy="201.8652" rx="3" ry="3" style="stroke:#038048;stroke-width:1.0;fill:none;"/><text fill="#000000" font-family="sans-serif" font-size="11" lengthAdjust="spacing" textLength="157" x="29" y="205.5">sceneOptions : SceneOptions</text><polygon fill="none" points="20,209.8203,24,213.8203,20,217.8203,16,213.8203" style="stroke:#B38D22;stroke-width:1.0;"/><text fill="#000000" font-family="sans-serif" font-size="11" lengthAdjust="spacing" textLength="121" x="29" y="218.4551">aiManager : AIManager</text><polygon fill="none" points="20,222.7754,24,226.7754,20,230.7754,16,226.7754" style="stroke:#B38D22;stroke-width:1.0;"/><text fill="#000000" font-family="sans-serif" font-size="11" lengthAdjust="spacing" textLength="85" x="29" y="231.4102">emitter : Emitter</text><polygon fill="none" points="20,235.7305,24,239.7305,20,243.7305,16,239.7305" style="stroke:#B38D22;stroke-width:1.0;"/><text fill="#000000" font-family="sans-serif" font-size="11" lengthAdjust="spacing" textLength="110" x="29" y="244.3652">layers : Map&lt;Layer&gt;</text><polygon fill="none" points="20,248.6855,24,252.6855,20,256.6855,16,252.6855" style="stroke:#B38D22;stroke-width:1.0;"/><text fill="#000000" font-family="sans-serif" font-size="11" lengthAdjust="spacing" textLength="177" x="29" y="257.3203">navManager : NavigationManager</text><polygon fill="none" points="20,261.6406,24,265.6406,20,269.6406,16,265.6406" style="stroke:#B38D22;stroke-width:1.0;"/><text fill="#000000" font-family="sans-serif" font-size="11" lengthAdjust="spacing" textLength="198" x="29" y="270.2754">parallaxLayers : Map&lt;ParallaxLayer&gt;</text><polygon fill="none" points="20,274.5957,24,278.5957,20,282.5957,16,278.5957" style="stroke:#B38D22;stroke-width:1.0;"/><text fill="#000000" font-family="sans-serif" font-size="11" lengthAdjust="spacing" textLength="182" x="29" y="283.2305">physicsManager : PhysicsManager</text><polygon fill="none" points="20,287.5508,24,291.5508,20,295.5508,16,291.5508" style="stroke:#B38D22;stroke-width:1.0;"/><text fill="#000000" font-family="sans-serif" font-size="11" lengthAdjust="spacing" textLength="97" x="29" y="296.1855">receiver : Receiver</text><polygon fill="none" points="20,300.5059,24,304.5059,20,308.5059,16,304.5059" style="stroke:#B38D22;stroke-width:1.0;"/><text fill="#000000" font-family="sans-serif" font-size="11" lengthAdjust="spacing" textLength="209" x="29" y="309.1406">renderingManager : RenderingManager</text><polygon fill="none" points="20,313.4609,24,317.4609,20,321.4609,16,317.4609" style="stroke:#B38D22;stroke-width:1.0;"/><text fill="#000000" font-family="sans-serif" font-size="11" lengthAdjust="spacing" textLength="95" x="29" y="322.0957">running : boolean</text><polygon fill="none" points="20,326.416,24,330.416,20,334.416,16,330.416" style="stroke:#B38D22;stroke-width:1.0;"/><text fill="#000000" font-family="sans-serif" font-size="11" lengthAdjust="spacing" textLength="137" x="29" y="335.0508">sceneGraph : SceneGraph</text><polygon fill="none" points="20,339.3711,24,343.3711,20,347.3711,16,343.3711" style="stroke:#B38D22;stroke-width:1.0;"/><text fill="#000000" font-family="sans-serif" font-size="11" lengthAdjust="spacing" textLength="163" x="29" y="348.0059">sceneManager : SceneManager</text><polygon fill="none" points="20,352.3262,24,356.3262,20,360.3262,16,356.3262" style="stroke:#B38D22;stroke-width:1.0;"/><text fill="#000000" font-family="sans-serif" font-size="11" lengthAdjust="spacing" textLength="104" x="29" y="360.9609">tilemaps : Tilemap[]</text><polygon fill="none" points="20,365.2813,24,369.2813,20,373.2813,16,369.2813" style="stroke:#B38D22;stroke-width:1.0;"/><text fill="#000000" font-family="sans-serif" font-size="11" lengthAdjust="spacing" textLength="134" x="29" y="373.916">uiLayers : Map&lt;UILayer&gt;</text><polygon fill="none" points="20,378.2363,24,382.2363,20,386.2363,16,382.2363" style="stroke:#B38D22;stroke-width:1.0;"/><text fill="#000000" font-family="sans-serif" font-size="11" lengthAdjust="spacing" textLength="102" x="29" y="386.8711">viewport : Viewport</text><polygon fill="none" points="20,391.1914,24,395.1914,20,399.1914,16,395.1914" style="stroke:#B38D22;stroke-width:1.0;"/><text fill="#000000" font-family="sans-serif" font-size="11" lengthAdjust="spacing" textLength="86" x="29" y="399.8262">worldSize : Vec2</text><line style="stroke:#FF0000;stroke-width:1.5;" x1="10" x2="446" y1="406.1465" y2="406.1465"/><ellipse cx="20" cy="417.1465" fill="#84BE84" rx="3" ry="3" style="stroke:#038048;stroke-width:1.0;"/><text fill="#000000" font-family="sans-serif" font-size="11" lengthAdjust="spacing" textLength="247" x="29" y="420.7813">addLayer(name: string, depth: number) : Layer</text><ellipse cx="20" cy="430.1016" fill="#84BE84" rx="3" ry="3" style="stroke:#038048;stroke-width:1.0;"/><text fill="#000000" font-family="sans-serif" font-size="11" lengthAdjust="spacing" textLength="412" x="29" y="433.7363">addParallaxLayer(name: string, parallax: Vec2, depth: number) : ParallaxLayer</text><ellipse cx="20" cy="443.0566" fill="#84BE84" rx="3" ry="3" style="stroke:#038048;stroke-width:1.0;"/><text fill="#000000" font-family="sans-serif" font-size="11" lengthAdjust="spacing" textLength="184" x="29" y="446.6914">addUILayer(name: string) : UILayer</text><ellipse cx="20" cy="456.0117" fill="#84BE84" rx="3" ry="3" style="stroke:#038048;stroke-width:1.0;"/><text fill="#000000" font-family="sans-serif" font-size="11" lengthAdjust="spacing" textLength="81" x="29" y="459.6465">destroy() : void</text><ellipse cx="20" cy="468.9668" fill="#84BE84" rx="3" ry="3" style="stroke:#038048;stroke-width:1.0;"/><text fill="#000000" font-family="sans-serif" font-size="11" lengthAdjust="spacing" textLength="116" x="29" y="472.6016">generateId() : number</text><ellipse cx="20" cy="481.9219" fill="#84BE84" rx="3" ry="3" style="stroke:#038048;stroke-width:1.0;"/><text fill="#000000" font-family="sans-serif" font-size="11" lengthAdjust="spacing" textLength="148" x="29" y="485.5566">getAIManager() : AIManager</text><ellipse cx="20" cy="494.877" fill="#84BE84" rx="3" ry="3" style="stroke:#038048;stroke-width:1.0;"/><text fill="#000000" font-family="sans-serif" font-size="11" lengthAdjust="spacing" textLength="159" x="29" y="498.5117">getLayer(name: string) : Layer</text><ellipse cx="20" cy="507.832" fill="#84BE84" rx="3" ry="3" style="stroke:#038048;stroke-width:1.0;"/><text fill="#000000" font-family="sans-serif" font-size="11" lengthAdjust="spacing" textLength="240" x="29" y="511.4668">getNavigationManager() : NavigationManager</text><ellipse cx="20" cy="520.7871" fill="#84BE84" rx="3" ry="3" style="stroke:#038048;stroke-width:1.0;"/><text fill="#000000" font-family="sans-serif" font-size="11" lengthAdjust="spacing" textLength="206" x="29" y="524.4219">getPhysicsManager() : PhysicsManager</text><ellipse cx="20" cy="533.7422" fill="#84BE84" rx="3" ry="3" style="stroke:#038048;stroke-width:1.0;"/><text fill="#000000" font-family="sans-serif" font-size="11" lengthAdjust="spacing" textLength="162" x="29" y="537.377">getSceneGraph() : SceneGraph</text><ellipse cx="20" cy="546.6973" fill="#84BE84" rx="3" ry="3" style="stroke:#038048;stroke-width:1.0;"/><text fill="#000000" font-family="sans-serif" font-size="11" lengthAdjust="spacing" textLength="185" x="29" y="550.332">getTilemap(name: string) : Tilemap</text><ellipse cx="20" cy="559.6523" fill="#84BE84" rx="3" ry="3" style="stroke:#038048;stroke-width:1.0;"/><text fill="#000000" font-family="sans-serif" font-size="11" lengthAdjust="spacing" textLength="128" x="29" y="563.2871">getViewport() : Viewport</text><ellipse cx="20" cy="572.6074" fill="#84BE84" rx="3" ry="3" style="stroke:#038048;stroke-width:1.0;"/><text fill="#000000" font-family="sans-serif" font-size="11" lengthAdjust="spacing" textLength="127" x="29" y="576.2422">getViewScale() : number</text><ellipse cx="20" cy="585.5625" fill="#84BE84" rx="3" ry="3" style="stroke:#038048;stroke-width:1.0;"/><text fill="#000000" font-family="sans-serif" font-size="11" lengthAdjust="spacing" textLength="236" x="29" y="589.1973">getViewTranslation(node: GameNode) : Vec2</text><ellipse cx="20" cy="598.5176" fill="#84BE84" rx="3" ry="3" style="stroke:#038048;stroke-width:1.0;"/><text fill="#000000" font-family="sans-serif" font-size="11" lengthAdjust="spacing" textLength="112" x="29" y="602.1523">getWorldSize() : Vec2</text><ellipse cx="20" cy="611.4727" fill="#84BE84" rx="3" ry="3" style="stroke:#038048;stroke-width:1.0;"/><text fill="#000000" font-family="sans-serif" font-size="11" lengthAdjust="spacing" textLength="224" x="29" y="615.1074">initScene(init: Record&lt;string, any&gt;) : void</text><ellipse cx="20" cy="624.4277" fill="#84BE84" rx="3" ry="3" style="stroke:#038048;stroke-width:1.0;"/><text fill="#000000" font-family="sans-serif" font-size="11" lengthAdjust="spacing" textLength="207" x="29" y="628.0625">isParallaxLayer(name: string) : boolean</text><ellipse cx="20" cy="637.3828" fill="#84BE84" rx="3" ry="3" style="stroke:#038048;stroke-width:1.0;"/><text fill="#000000" font-family="sans-serif" font-size="11" lengthAdjust="spacing" textLength="114" x="29" y="641.0176">isRunning() : boolean</text><ellipse cx="20" cy="650.3379" fill="#84BE84" rx="3" ry="3" style="stroke:#038048;stroke-width:1.0;"/><text fill="#000000" font-family="sans-serif" font-size="11" lengthAdjust="spacing" textLength="176" x="29" y="653.9727">isUILayer(name: string) : boolean</text><ellipse cx="20" cy="663.293" fill="#84BE84" rx="3" ry="3" style="stroke:#038048;stroke-width:1.0;"/><text fill="#000000" font-family="sans-serif" font-size="11" lengthAdjust="spacing" textLength="94" x="29" y="666.9277">loadScene() : void</text><ellipse cx="20" cy="676.248" fill="#84BE84" rx="3" ry="3" style="stroke:#038048;stroke-width:1.0;"/><text fill="#000000" font-family="sans-serif" font-size="11" lengthAdjust="spacing" textLength="171" x="29" y="679.8828">remove(node: GameNode) : void</text><ellipse cx="20" cy="689.2031" fill="#84BE84" rx="3" ry="3" style="stroke:#038048;stroke-width:1.0;"/><text fill="#000000" font-family="sans-serif" font-size="11" lengthAdjust="spacing" textLength="76" x="29" y="692.8379">render() : void</text><ellipse cx="20" cy="702.1582" fill="#84BE84" rx="3" ry="3" style="stroke:#038048;stroke-width:1.0;"/><text fill="#000000" font-family="sans-serif" font-size="11" lengthAdjust="spacing" textLength="193" x="29" y="705.793">setRunning(running: boolean) : void</text><ellipse cx="20" cy="715.1133" fill="#84BE84" rx="3" ry="3" style="stroke:#038048;stroke-width:1.0;"/><text fill="#000000" font-family="sans-serif" font-size="11" lengthAdjust="spacing" textLength="96" x="29" y="718.748">startScene() : void</text><ellipse cx="20" cy="728.0684" fill="#84BE84" rx="3" ry="3" style="stroke:#038048;stroke-width:1.0;"/><text fill="#000000" font-family="sans-serif" font-size="11" lengthAdjust="spacing" textLength="108" x="29" y="731.7031">unloadScene() : void</text><ellipse cx="20" cy="741.0234" fill="#84BE84" rx="3" ry="3" style="stroke:#038048;stroke-width:1.0;"/><text fill="#000000" font-family="sans-serif" font-size="11" lengthAdjust="spacing" textLength="158" x="29" y="744.6582">update(deltaT: number) : void</text><ellipse cx="20" cy="753.9785" fill="#84BE84" rx="3" ry="3" style="stroke:#038048;stroke-width:1.0;"/><text fill="#000000" font-family="sans-serif" font-size="11" lengthAdjust="spacing" textLength="189" x="29" y="757.6133">updateScene(deltaT: number) : void</text><!--MD5=[8336922478991a54f539d469b4e48cc0]
class Updateable--><rect codeLine="54" fill="#FEFECE" filter="url(#f1nxm7mmn0lz23)" height="52.9551" id="Updateable" style="stroke:#FF0000;stroke-width:1.5;" width="184" x="136" y="7"/><ellipse cx="190.25" cy="23" fill="#B4A7E5" rx="11" ry="11" style="stroke:#FF0000;stroke-width:1.0;"/><path d="M186.6777,19.2651 L186.6777,17.1069 L194.0571,17.1069 L194.0571,19.2651 L191.5918,19.2651 L191.5918,27.3418 L194.0571,27.3418 L194.0571,29.5 L186.6777,29.5 L186.6777,27.3418 L189.1431,27.3418 L189.1431,19.2651 Z " fill="#000000"/><text fill="#000000" font-family="sans-serif" font-size="12" font-style="italic" lengthAdjust="spacing" textLength="67" x="210.75" y="27.5352">Updateable</text><line style="stroke:#FF0000;stroke-width:1.5;" x1="137" x2="319" y1="39" y2="39"/><ellipse cx="147" cy="50" fill="#84BE84" rx="3" ry="3" style="stroke:#038048;stroke-width:1.0;"/><text fill="#000000" font-family="sans-serif" font-size="11" lengthAdjust="spacing" textLength="158" x="156" y="53.6348">update(deltaT: number) : void</text><!--MD5=[07a461f2143bf4eaf21886bcd04fe725]
reverse link Updateable to Scene--><path codeLine="57" d="M228,80.61 C228,92.07 228,105.23 228,119.61 " fill="none" id="Updateable-backto-Scene" style="stroke:#FF0000;stroke-width:1.0;stroke-dasharray:7.0,7.0;"/><polygon fill="none" points="221,80.24,228,60.24,235,80.24,221,80.24" style="stroke:#FF0000;stroke-width:1.0;"/><!--MD5=[285bdfdf85b6bf33005c81622d7c3eff]
@startuml
skinparam ClassArrowColor #ff0000
skinparam ClassBorderColor #ff0000
skinparam BackgroundColor transparent
hide empty methods
hide empty fields
class "Scene" {
    +add : FactoryManager
    +load : ResourceManager
    +resourceManager : ResourceManager
    +sceneOptions : SceneOptions
    #aiManager : AIManager
    #emitter : Emitter
    #layers : Map<Layer>
    #navManager : NavigationManager
    #parallaxLayers : Map<ParallaxLayer>
    #physicsManager : PhysicsManager
    #receiver : Receiver
    #renderingManager : RenderingManager
    #running : boolean
    #sceneGraph : SceneGraph
    #sceneManager : SceneManager
    #tilemaps : Tilemap[]
    #uiLayers : Map<UILayer>
    #viewport : Viewport
    #worldSize : Vec2
    +addLayer(name: string, depth: number) : Layer
    +addParallaxLayer(name: string, parallax: Vec2, depth: number) : ParallaxLayer
    +addUILayer(name: string) : UILayer
    +destroy() : void
    +generateId() : number
    +getAIManager() : AIManager
    +getLayer(name: string) : Layer
    +getNavigationManager() : NavigationManager
    +getPhysicsManager() : PhysicsManager
    +getSceneGraph() : SceneGraph
    +getTilemap(name: string) : Tilemap
    +getViewport() : Viewport
    +getViewScale() : number
    +getViewTranslation(node: GameNode) : Vec2
    +getWorldSize() : Vec2
    +initScene(init: Record<string, any>) : void
    +isParallaxLayer(name: string) : boolean
    +isRunning() : boolean
    +isUILayer(name: string) : boolean
    +loadScene() : void
    +remove(node: GameNode) : void
    +render() : void
    +setRunning(running: boolean) : void
    +startScene() : void
    +unloadScene() : void
    +update(deltaT: number) : void
    +updateScene(deltaT: number) : void
}
interface "Updateable" {
    +update(deltaT: number) : void
}
"Updateable" <|.. "Scene"
@enduml

PlantUML version 1.2021.14(Fri Nov 12 11:46:50 EST 2021)
(GPL source distribution)
Java Runtime: Java(TM) SE Runtime Environment
JVM: Java HotSpot(TM) 64-Bit Server VM
Default Encoding: UTF-8
Language: en
Country: US
--></g></svg>