<?xml version="1.0" encoding="UTF-8" standalone="no"?><svg xmlns="http://www.w3.org/2000/svg" xmlns:xlink="http://www.w3.org/1999/xlink" contentScriptType="application/ecmascript" contentStyleType="text/css" height="617px" preserveAspectRatio="none" style="width:387px;height:617px;background:#00000000;" version="1.1" viewBox="0 0 387 617" width="387px" zoomAndPan="magnify"><defs><filter height="300%" id="f1bo0fc95yelpq" width="300%" x="-1" y="-1"><feGaussianBlur result="blurOut" stdDeviation="2.0"/><feColorMatrix in="blurOut" result="blurOut2" type="matrix" values="0 0 0 0 0 0 0 0 0 0 0 0 0 0 0 0 0 0 .4 0"/><feOffset dx="4.0" dy="4.0" in="blurOut2" result="blurOut3"/><feBlend in="SourceGraphic" in2="blurOut3" mode="normal"/></filter></defs><g><!--MD5=[74b469c5eca7313c02b2fcb4e1d50bbf]
class SceneGraphQuadTree--><rect codeLine="6" fill="#FEFECE" filter="url(#f1bo0fc95yelpq)" height="281.1914" id="SceneGraphQuadTree" style="stroke:#FF0000;stroke-width:1.5;" width="364" x="9" y="322"/><ellipse cx="123.25" cy="338" fill="#ADD1B2" rx="11" ry="11" style="stroke:#FF0000;stroke-width:1.0;"/><path d="M125.7231,344.1431 Q125.1421,344.4419 124.5029,344.5913 Q123.8638,344.7407 123.1582,344.7407 Q120.6514,344.7407 119.3315,343.0889 Q118.0117,341.437 118.0117,338.3159 Q118.0117,335.1865 119.3315,333.5347 Q120.6514,331.8828 123.1582,331.8828 Q123.8638,331.8828 124.5112,332.0322 Q125.1587,332.1816 125.7231,332.4805 L125.7231,335.2031 Q125.0923,334.6221 124.4988,334.3523 Q123.9053,334.0825 123.2744,334.0825 Q121.9297,334.0825 121.2449,335.1492 Q120.5601,336.2158 120.5601,338.3159 Q120.5601,340.4077 121.2449,341.4744 Q121.9297,342.541 123.2744,342.541 Q123.9053,342.541 124.4988,342.2712 Q125.0923,342.0015 125.7231,341.4204 Z " fill="#000000"/><text fill="#000000" font-family="sans-serif" font-size="12" lengthAdjust="spacing" textLength="127" x="143.75" y="342.5352">SceneGraphQuadTree</text><line style="stroke:#FF0000;stroke-width:1.5;" x1="10" x2="372" y1="354" y2="354"/><polygon fill="none" points="20,360,24,364,20,368,16,364" style="stroke:#B38D22;stroke-width:1.0;"/><text fill="#000000" font-family="sans-serif" font-size="11" lengthAdjust="spacing" textLength="105" x="29" y="368.6348">idCounter : number</text><polygon fill="none" points="20,372.9551,24,376.9551,20,380.9551,16,376.9551" style="stroke:#B38D22;stroke-width:1.0;"/><text fill="#000000" font-family="sans-serif" font-size="11" lengthAdjust="spacing" textLength="133" x="29" y="381.5898">nodeMap : CanvasNode[]</text><polygon fill="none" points="20,385.9102,24,389.9102,20,393.9102,16,389.9102" style="stroke:#B38D22;stroke-width:1.0;"/><text fill="#000000" font-family="sans-serif" font-size="11" lengthAdjust="spacing" textLength="71" x="29" y="394.5449">scene : Scene</text><polygon fill="none" points="20,398.8652,24,402.8652,20,406.8652,16,402.8652" style="stroke:#B38D22;stroke-width:1.0;"/><text fill="#000000" font-family="sans-serif" font-size="11" lengthAdjust="spacing" textLength="102" x="29" y="407.5">viewport : Viewport</text><rect fill="none" height="6" style="stroke:#C82930;stroke-width:1.0;" width="6" x="17" y="413.8203"/><text fill="#000000" font-family="sans-serif" font-size="11" lengthAdjust="spacing" textLength="117" x="29" y="420.4551">nodes : CanvasNode[]</text><rect fill="none" height="6" style="stroke:#C82930;stroke-width:1.0;" width="6" x="17" y="426.7754"/><text fill="#000000" font-family="sans-serif" font-size="11" lengthAdjust="spacing" textLength="195" x="29" y="433.4102">qt : RegionQuadTree&lt;CanvasNode&gt;</text><line style="stroke:#FF0000;stroke-width:1.5;" x1="10" x2="372" y1="439.7305" y2="439.7305"/><ellipse cx="20" cy="450.7305" fill="#84BE84" rx="3" ry="3" style="stroke:#038048;stroke-width:1.0;"/><text fill="#000000" font-family="sans-serif" font-size="11" lengthAdjust="spacing" textLength="207" x="29" y="454.3652">addNode(node: CanvasNode) : number</text><ellipse cx="20" cy="463.6855" fill="#84BE84" rx="3" ry="3" style="stroke:#038048;stroke-width:1.0;"/><text fill="#000000" font-family="sans-serif" font-size="11" lengthAdjust="spacing" textLength="157" x="29" y="467.3203">getAllNodes() : CanvasNode[]</text><ellipse cx="20" cy="476.6406" fill="#84BE84" rx="3" ry="3" style="stroke:#038048;stroke-width:1.0;"/><text fill="#000000" font-family="sans-serif" font-size="11" lengthAdjust="spacing" textLength="187" x="29" y="480.2754">getNode(id: number) : CanvasNode</text><ellipse cx="20" cy="489.5957" fill="#84BE84" rx="3" ry="3" style="stroke:#038048;stroke-width:1.0;"/><text fill="#000000" font-family="sans-serif" font-size="11" lengthAdjust="spacing" textLength="338" x="29" y="493.2305">getNodesAt(vecOrX: number | Vec2, y: number) : CanvasNode[]</text><ellipse cx="20" cy="502.5508" fill="#84BE84" rx="3" ry="3" style="stroke:#038048;stroke-width:1.0;"/><text fill="#000000" font-family="sans-serif" font-size="11" lengthAdjust="spacing" textLength="310" x="29" y="506.1855">getNodesAtCoords(x: number, y: number) : CanvasNode[]</text><ellipse cx="20" cy="515.5059" fill="#84BE84" rx="3" ry="3" style="stroke:#038048;stroke-width:1.0;"/><text fill="#000000" font-family="sans-serif" font-size="11" lengthAdjust="spacing" textLength="276" x="29" y="519.1406">getNodesInRegion(boundary: AABB) : CanvasNode[]</text><ellipse cx="20" cy="528.4609" fill="#84BE84" rx="3" ry="3" style="stroke:#038048;stroke-width:1.0;"/><text fill="#000000" font-family="sans-serif" font-size="11" lengthAdjust="spacing" textLength="160" x="29" y="532.0957">getVisibleSet() : CanvasNode[]</text><ellipse cx="20" cy="541.416" fill="#84BE84" rx="3" ry="3" style="stroke:#038048;stroke-width:1.0;"/><text fill="#000000" font-family="sans-serif" font-size="11" lengthAdjust="spacing" textLength="208" x="29" y="545.0508">removeNode(node: CanvasNode) : void</text><ellipse cx="20" cy="554.3711" fill="#84BE84" rx="3" ry="3" style="stroke:#038048;stroke-width:1.0;"/><text fill="#000000" font-family="sans-serif" font-size="11" lengthAdjust="spacing" textLength="251" x="29" y="558.0059">render(ctx: CanvasRenderingContext2D) : void</text><ellipse cx="20" cy="567.3262" fill="#84BE84" rx="3" ry="3" style="stroke:#038048;stroke-width:1.0;"/><text fill="#000000" font-family="sans-serif" font-size="11" lengthAdjust="spacing" textLength="158" x="29" y="570.9609">update(deltaT: number) : void</text><polygon fill="#FFFF44" points="20,575.2813,24,579.2813,20,583.2813,16,579.2813" style="stroke:#B38D22;stroke-width:1.0;"/><text fill="#000000" font-family="sans-serif" font-size="11" lengthAdjust="spacing" textLength="293" x="29" y="583.916">addNodeSpecific(node: CanvasNode, id: number) : void</text><polygon fill="#FFFF44" points="20,588.2363,24,592.2363,20,596.2363,16,592.2363" style="stroke:#B38D22;stroke-width:1.0;"/><text fill="#000000" font-family="sans-serif" font-size="11" lengthAdjust="spacing" textLength="313" x="29" y="596.8711">removeNodeSpecific(node: CanvasNode, id: number) : void</text><!--MD5=[93ca02bfebc1c9dff24063aaf9eca20f]
class SceneGraph--><rect codeLine="26" fill="#FEFECE" filter="url(#f1bo0fc95yelpq)" height="255.2813" id="SceneGraph" style="stroke:#FF0000;stroke-width:1.5;" width="364" x="9" y="7"/><ellipse cx="152.25" cy="23" fill="#A9DCDF" rx="11" ry="11" style="stroke:#FF0000;stroke-width:1.0;"/><path d="M152.1133,18.3481 L150.9595,23.4199 L153.2754,23.4199 Z M150.6191,16.1069 L153.6157,16.1069 L156.9609,28.5 L154.5122,28.5 L153.7485,25.437 L150.4697,25.437 L149.7227,28.5 L147.2739,28.5 Z " fill="#000000"/><text fill="#000000" font-family="sans-serif" font-size="12" font-style="italic" lengthAdjust="spacing" textLength="69" x="172.75" y="27.5352">SceneGraph</text><line style="stroke:#FF0000;stroke-width:1.5;" x1="10" x2="372" y1="39" y2="39"/><polygon fill="none" points="20,45,24,49,20,53,16,49" style="stroke:#B38D22;stroke-width:1.0;"/><text fill="#000000" font-family="sans-serif" font-size="11" lengthAdjust="spacing" textLength="105" x="29" y="53.6348">idCounter : number</text><polygon fill="none" points="20,57.9551,24,61.9551,20,65.9551,16,61.9551" style="stroke:#B38D22;stroke-width:1.0;"/><text fill="#000000" font-family="sans-serif" font-size="11" lengthAdjust="spacing" textLength="133" x="29" y="66.5898">nodeMap : CanvasNode[]</text><polygon fill="none" points="20,70.9102,24,74.9102,20,78.9102,16,74.9102" style="stroke:#B38D22;stroke-width:1.0;"/><text fill="#000000" font-family="sans-serif" font-size="11" lengthAdjust="spacing" textLength="71" x="29" y="79.5449">scene : Scene</text><polygon fill="none" points="20,83.8652,24,87.8652,20,91.8652,16,87.8652" style="stroke:#B38D22;stroke-width:1.0;"/><text fill="#000000" font-family="sans-serif" font-size="11" lengthAdjust="spacing" textLength="102" x="29" y="92.5">viewport : Viewport</text><line style="stroke:#FF0000;stroke-width:1.5;" x1="10" x2="372" y1="98.8203" y2="98.8203"/><ellipse cx="20" cy="109.8203" fill="#84BE84" rx="3" ry="3" style="stroke:#038048;stroke-width:1.0;"/><text fill="#000000" font-family="sans-serif" font-size="11" lengthAdjust="spacing" textLength="207" x="29" y="113.4551">addNode(node: CanvasNode) : number</text><ellipse cx="20" cy="122.7754" fill="#84BE84" rx="3" ry="3" style="stroke:#038048;stroke-width:1.0;"/><text fill="#000000" font-family="sans-serif" font-size="11" lengthAdjust="spacing" textLength="157" x="29" y="126.4102">getAllNodes() : CanvasNode[]</text><ellipse cx="20" cy="135.7305" fill="#84BE84" rx="3" ry="3" style="stroke:#038048;stroke-width:1.0;"/><text fill="#000000" font-family="sans-serif" font-size="11" lengthAdjust="spacing" textLength="187" x="29" y="139.3652">getNode(id: number) : CanvasNode</text><ellipse cx="20" cy="148.6855" fill="#84BE84" rx="3" ry="3" style="stroke:#038048;stroke-width:1.0;"/><text fill="#000000" font-family="sans-serif" font-size="11" lengthAdjust="spacing" textLength="338" x="29" y="152.3203">getNodesAt(vecOrX: number | Vec2, y: number) : CanvasNode[]</text><ellipse cx="20" cy="161.6406" fill="#84BE84" rx="3" ry="3" style="stroke:#038048;stroke-width:1.0;"/><text fill="#000000" font-family="sans-serif" font-size="11" font-style="italic" lengthAdjust="spacing" textLength="276" x="29" y="165.2754">getNodesInRegion(boundary: AABB) : CanvasNode[]</text><ellipse cx="20" cy="174.5957" fill="#84BE84" rx="3" ry="3" style="stroke:#038048;stroke-width:1.0;"/><text fill="#000000" font-family="sans-serif" font-size="11" font-style="italic" lengthAdjust="spacing" textLength="160" x="29" y="178.2305">getVisibleSet() : CanvasNode[]</text><ellipse cx="20" cy="187.5508" fill="#84BE84" rx="3" ry="3" style="stroke:#038048;stroke-width:1.0;"/><text fill="#000000" font-family="sans-serif" font-size="11" lengthAdjust="spacing" textLength="208" x="29" y="191.1855">removeNode(node: CanvasNode) : void</text><ellipse cx="20" cy="200.5059" fill="#84BE84" rx="3" ry="3" style="stroke:#038048;stroke-width:1.0;"/><text fill="#000000" font-family="sans-serif" font-size="11" font-style="italic" lengthAdjust="spacing" textLength="251" x="29" y="204.1406">render(ctx: CanvasRenderingContext2D) : void</text><ellipse cx="20" cy="213.4609" fill="#84BE84" rx="3" ry="3" style="stroke:#038048;stroke-width:1.0;"/><text fill="#000000" font-family="sans-serif" font-size="11" font-style="italic" lengthAdjust="spacing" textLength="158" x="29" y="217.0957">update(deltaT: number) : void</text><polygon fill="#FFFF44" points="20,221.416,24,225.416,20,229.416,16,225.416" style="stroke:#B38D22;stroke-width:1.0;"/><text fill="#000000" font-family="sans-serif" font-size="11" font-style="italic" lengthAdjust="spacing" textLength="293" x="29" y="230.0508">addNodeSpecific(node: CanvasNode, id: number) : void</text><polygon fill="#FFFF44" points="20,234.3711,24,238.3711,20,242.3711,16,238.3711" style="stroke:#B38D22;stroke-width:1.0;"/><text fill="#000000" font-family="sans-serif" font-size="11" font-style="italic" lengthAdjust="spacing" textLength="310" x="29" y="243.0059">getNodesAtCoords(x: number, y: number) : CanvasNode[]</text><polygon fill="#FFFF44" points="20,247.3262,24,251.3262,20,255.3262,16,251.3262" style="stroke:#B38D22;stroke-width:1.0;"/><text fill="#000000" font-family="sans-serif" font-size="11" font-style="italic" lengthAdjust="spacing" textLength="313" x="29" y="255.9609">removeNodeSpecific(node: CanvasNode, id: number) : void</text><!--MD5=[a119e7d1a23fb99b22e019d11415f26f]
reverse link SceneGraph to SceneGraphQuadTree--><path codeLine="44" d="M191,282.43 C191,295.53 191,308.77 191,321.81 " fill="none" id="SceneGraph-backto-SceneGraphQuadTree" style="stroke:#FF0000;stroke-width:1.0;"/><polygon fill="none" points="184,282.01,191,262.01,198,282.01,184,282.01" style="stroke:#FF0000;stroke-width:1.0;"/><!--MD5=[27651679b1ef07992c96a0b04091ff05]
@startuml
skinparam ClassArrowColor #ff0000
skinparam ClassBorderColor #ff0000
skinparam BackgroundColor transparent
hide empty methods
hide empty fields
class "SceneGraphQuadTree" {
    #idCounter : number
    #nodeMap : CanvasNode[]
    #scene : Scene
    #viewport : Viewport
    -nodes : CanvasNode[]
    -qt : RegionQuadTree<CanvasNode>
    +addNode(node: CanvasNode) : number
    +getAllNodes() : CanvasNode[]
    +getNode(id: number) : CanvasNode
    +getNodesAt(vecOrX: number | Vec2, y: number) : CanvasNode[]
    +getNodesAtCoords(x: number, y: number) : CanvasNode[]
    +getNodesInRegion(boundary: AABB) : CanvasNode[]
    +getVisibleSet() : CanvasNode[]
    +removeNode(node: CanvasNode) : void
    +render(ctx: CanvasRenderingContext2D) : void
    +update(deltaT: number) : void
    #addNodeSpecific(node: CanvasNode, id: number) : void
    #removeNodeSpecific(node: CanvasNode, id: number) : void
}
abstract class "SceneGraph" {
    #idCounter : number
    #nodeMap : CanvasNode[]
    #scene : Scene
    #viewport : Viewport
    +addNode(node: CanvasNode) : number
    +getAllNodes() : CanvasNode[]
    +getNode(id: number) : CanvasNode
    +getNodesAt(vecOrX: number | Vec2, y: number) : CanvasNode[]
    {abstract} +getNodesInRegion(boundary: AABB) : CanvasNode[]
    {abstract} +getVisibleSet() : CanvasNode[]
    +removeNode(node: CanvasNode) : void
    {abstract} +render(ctx: CanvasRenderingContext2D) : void
    {abstract} +update(deltaT: number) : void
    {abstract} #addNodeSpecific(node: CanvasNode, id: number) : void
    {abstract} #getNodesAtCoords(x: number, y: number) : CanvasNode[]
    {abstract} #removeNodeSpecific(node: CanvasNode, id: number) : void
}
"SceneGraph" <|- - "SceneGraphQuadTree"
@enduml

PlantUML version 1.2021.14(Fri Nov 12 11:46:50 EST 2021)
(GPL source distribution)
Java Runtime: Java(TM) SE Runtime Environment
JVM: Java HotSpot(TM) 64-Bit Server VM
Default Encoding: UTF-8
Language: en
Country: US
--></g></svg>