<?xml version="1.0" encoding="UTF-8" standalone="no"?><svg xmlns="http://www.w3.org/2000/svg" xmlns:xlink="http://www.w3.org/1999/xlink" contentScriptType="application/ecmascript" contentStyleType="text/css" height="617px" preserveAspectRatio="none" style="width:786px;height:617px;background:#00000000;" version="1.1" viewBox="0 0 786 617" width="786px" zoomAndPan="magnify"><defs><filter height="300%" id="f1mnkzmfjzc9zr" width="300%" x="-1" y="-1"><feGaussianBlur result="blurOut" stdDeviation="2.0"/><feColorMatrix in="blurOut" result="blurOut2" type="matrix" values="0 0 0 0 0 0 0 0 0 0 0 0 0 0 0 0 0 0 .4 0"/><feOffset dx="4.0" dy="4.0" in="blurOut2" result="blurOut3"/><feBlend in="SourceGraphic" in2="blurOut3" mode="normal"/></filter></defs><g><!--MD5=[93ca02bfebc1c9dff24063aaf9eca20f]
class SceneGraph--><rect codeLine="6" fill="#FEFECE" filter="url(#f1mnkzmfjzc9zr)" height="255.2813" id="SceneGraph" style="stroke:#FF0000;stroke-width:1.5;" width="364" x="208" y="7"/><ellipse cx="351.25" cy="23" fill="#A9DCDF" rx="11" ry="11" style="stroke:#FF0000;stroke-width:1.0;"/><path d="M351.1133,18.3481 L349.9595,23.4199 L352.2754,23.4199 Z M349.6191,16.1069 L352.6157,16.1069 L355.9609,28.5 L353.5122,28.5 L352.7485,25.437 L349.4697,25.437 L348.7227,28.5 L346.2739,28.5 Z " fill="#000000"/><text fill="#000000" font-family="sans-serif" font-size="12" font-style="italic" lengthAdjust="spacing" textLength="69" x="371.75" y="27.5352">SceneGraph</text><line style="stroke:#FF0000;stroke-width:1.5;" x1="209" x2="571" y1="39" y2="39"/><polygon fill="none" points="219,45,223,49,219,53,215,49" style="stroke:#B38D22;stroke-width:1.0;"/><text fill="#000000" font-family="sans-serif" font-size="11" lengthAdjust="spacing" textLength="105" x="228" y="53.6348">idCounter : number</text><polygon fill="none" points="219,57.9551,223,61.9551,219,65.9551,215,61.9551" style="stroke:#B38D22;stroke-width:1.0;"/><text fill="#000000" font-family="sans-serif" font-size="11" lengthAdjust="spacing" textLength="133" x="228" y="66.5898">nodeMap : CanvasNode[]</text><polygon fill="none" points="219,70.9102,223,74.9102,219,78.9102,215,74.9102" style="stroke:#B38D22;stroke-width:1.0;"/><text fill="#000000" font-family="sans-serif" font-size="11" lengthAdjust="spacing" textLength="71" x="228" y="79.5449">scene : Scene</text><polygon fill="none" points="219,83.8652,223,87.8652,219,91.8652,215,87.8652" style="stroke:#B38D22;stroke-width:1.0;"/><text fill="#000000" font-family="sans-serif" font-size="11" lengthAdjust="spacing" textLength="102" x="228" y="92.5">viewport : Viewport</text><line style="stroke:#FF0000;stroke-width:1.5;" x1="209" x2="571" y1="98.8203" y2="98.8203"/><ellipse cx="219" cy="109.8203" fill="#84BE84" rx="3" ry="3" style="stroke:#038048;stroke-width:1.0;"/><text fill="#000000" font-family="sans-serif" font-size="11" lengthAdjust="spacing" textLength="207" x="228" y="113.4551">addNode(node: CanvasNode) : number</text><ellipse cx="219" cy="122.7754" fill="#84BE84" rx="3" ry="3" style="stroke:#038048;stroke-width:1.0;"/><text fill="#000000" font-family="sans-serif" font-size="11" lengthAdjust="spacing" textLength="157" x="228" y="126.4102">getAllNodes() : CanvasNode[]</text><ellipse cx="219" cy="135.7305" fill="#84BE84" rx="3" ry="3" style="stroke:#038048;stroke-width:1.0;"/><text fill="#000000" font-family="sans-serif" font-size="11" lengthAdjust="spacing" textLength="187" x="228" y="139.3652">getNode(id: number) : CanvasNode</text><ellipse cx="219" cy="148.6855" fill="#84BE84" rx="3" ry="3" style="stroke:#038048;stroke-width:1.0;"/><text fill="#000000" font-family="sans-serif" font-size="11" lengthAdjust="spacing" textLength="338" x="228" y="152.3203">getNodesAt(vecOrX: number | Vec2, y: number) : CanvasNode[]</text><ellipse cx="219" cy="161.6406" fill="#84BE84" rx="3" ry="3" style="stroke:#038048;stroke-width:1.0;"/><text fill="#000000" font-family="sans-serif" font-size="11" font-style="italic" lengthAdjust="spacing" textLength="276" x="228" y="165.2754">getNodesInRegion(boundary: AABB) : CanvasNode[]</text><ellipse cx="219" cy="174.5957" fill="#84BE84" rx="3" ry="3" style="stroke:#038048;stroke-width:1.0;"/><text fill="#000000" font-family="sans-serif" font-size="11" font-style="italic" lengthAdjust="spacing" textLength="160" x="228" y="178.2305">getVisibleSet() : CanvasNode[]</text><ellipse cx="219" cy="187.5508" fill="#84BE84" rx="3" ry="3" style="stroke:#038048;stroke-width:1.0;"/><text fill="#000000" font-family="sans-serif" font-size="11" lengthAdjust="spacing" textLength="208" x="228" y="191.1855">removeNode(node: CanvasNode) : void</text><ellipse cx="219" cy="200.5059" fill="#84BE84" rx="3" ry="3" style="stroke:#038048;stroke-width:1.0;"/><text fill="#000000" font-family="sans-serif" font-size="11" font-style="italic" lengthAdjust="spacing" textLength="251" x="228" y="204.1406">render(ctx: CanvasRenderingContext2D) : void</text><ellipse cx="219" cy="213.4609" fill="#84BE84" rx="3" ry="3" style="stroke:#038048;stroke-width:1.0;"/><text fill="#000000" font-family="sans-serif" font-size="11" font-style="italic" lengthAdjust="spacing" textLength="158" x="228" y="217.0957">update(deltaT: number) : void</text><polygon fill="#FFFF44" points="219,221.416,223,225.416,219,229.416,215,225.416" style="stroke:#B38D22;stroke-width:1.0;"/><text fill="#000000" font-family="sans-serif" font-size="11" font-style="italic" lengthAdjust="spacing" textLength="293" x="228" y="230.0508">addNodeSpecific(node: CanvasNode, id: number) : void</text><polygon fill="#FFFF44" points="219,234.3711,223,238.3711,219,242.3711,215,238.3711" style="stroke:#B38D22;stroke-width:1.0;"/><text fill="#000000" font-family="sans-serif" font-size="11" font-style="italic" lengthAdjust="spacing" textLength="310" x="228" y="243.0059">getNodesAtCoords(x: number, y: number) : CanvasNode[]</text><polygon fill="#FFFF44" points="219,247.3262,223,251.3262,219,255.3262,215,251.3262" style="stroke:#B38D22;stroke-width:1.0;"/><text fill="#000000" font-family="sans-serif" font-size="11" font-style="italic" lengthAdjust="spacing" textLength="313" x="228" y="255.9609">removeNodeSpecific(node: CanvasNode, id: number) : void</text><!--MD5=[067bea429084057d2f31aa67a4c51783]
class SceneGraphArray--><rect codeLine="24" fill="#FEFECE" filter="url(#f1mnkzmfjzc9zr)" height="268.2363" id="SceneGraphArray" style="stroke:#FF0000;stroke-width:1.5;" width="364" x="9" y="328.5"/><ellipse cx="136.75" cy="344.5" fill="#ADD1B2" rx="11" ry="11" style="stroke:#FF0000;stroke-width:1.0;"/><path d="M139.2231,350.6431 Q138.6421,350.9419 138.0029,351.0913 Q137.3638,351.2407 136.6582,351.2407 Q134.1514,351.2407 132.8315,349.5889 Q131.5117,347.937 131.5117,344.8159 Q131.5117,341.6865 132.8315,340.0347 Q134.1514,338.3828 136.6582,338.3828 Q137.3638,338.3828 138.0112,338.5322 Q138.6587,338.6816 139.2231,338.9805 L139.2231,341.7031 Q138.5923,341.1221 137.9988,340.8523 Q137.4053,340.5825 136.7744,340.5825 Q135.4297,340.5825 134.7449,341.6492 Q134.0601,342.7158 134.0601,344.8159 Q134.0601,346.9077 134.7449,347.9744 Q135.4297,349.041 136.7744,349.041 Q137.4053,349.041 137.9988,348.7712 Q138.5923,348.5015 139.2231,347.9204 Z " fill="#000000"/><text fill="#000000" font-family="sans-serif" font-size="12" lengthAdjust="spacing" textLength="100" x="157.25" y="349.0352">SceneGraphArray</text><line style="stroke:#FF0000;stroke-width:1.5;" x1="10" x2="372" y1="360.5" y2="360.5"/><polygon fill="none" points="20,366.5,24,370.5,20,374.5,16,370.5" style="stroke:#B38D22;stroke-width:1.0;"/><text fill="#000000" font-family="sans-serif" font-size="11" lengthAdjust="spacing" textLength="105" x="29" y="375.1348">idCounter : number</text><polygon fill="none" points="20,379.4551,24,383.4551,20,387.4551,16,383.4551" style="stroke:#B38D22;stroke-width:1.0;"/><text fill="#000000" font-family="sans-serif" font-size="11" lengthAdjust="spacing" textLength="133" x="29" y="388.0898">nodeMap : CanvasNode[]</text><polygon fill="none" points="20,392.4102,24,396.4102,20,400.4102,16,396.4102" style="stroke:#B38D22;stroke-width:1.0;"/><text fill="#000000" font-family="sans-serif" font-size="11" lengthAdjust="spacing" textLength="71" x="29" y="401.0449">scene : Scene</text><polygon fill="none" points="20,405.3652,24,409.3652,20,413.3652,16,409.3652" style="stroke:#B38D22;stroke-width:1.0;"/><text fill="#000000" font-family="sans-serif" font-size="11" lengthAdjust="spacing" textLength="102" x="29" y="414">viewport : Viewport</text><rect fill="none" height="6" style="stroke:#C82930;stroke-width:1.0;" width="6" x="17" y="420.3203"/><text fill="#000000" font-family="sans-serif" font-size="11" lengthAdjust="spacing" textLength="130" x="29" y="426.9551">nodeList : CanvasNode[]</text><line style="stroke:#FF0000;stroke-width:1.5;" x1="10" x2="372" y1="433.2754" y2="433.2754"/><ellipse cx="20" cy="444.2754" fill="#84BE84" rx="3" ry="3" style="stroke:#038048;stroke-width:1.0;"/><text fill="#000000" font-family="sans-serif" font-size="11" lengthAdjust="spacing" textLength="207" x="29" y="447.9102">addNode(node: CanvasNode) : number</text><ellipse cx="20" cy="457.2305" fill="#84BE84" rx="3" ry="3" style="stroke:#038048;stroke-width:1.0;"/><text fill="#000000" font-family="sans-serif" font-size="11" lengthAdjust="spacing" textLength="157" x="29" y="460.8652">getAllNodes() : CanvasNode[]</text><ellipse cx="20" cy="470.1855" fill="#84BE84" rx="3" ry="3" style="stroke:#038048;stroke-width:1.0;"/><text fill="#000000" font-family="sans-serif" font-size="11" lengthAdjust="spacing" textLength="187" x="29" y="473.8203">getNode(id: number) : CanvasNode</text><ellipse cx="20" cy="483.1406" fill="#84BE84" rx="3" ry="3" style="stroke:#038048;stroke-width:1.0;"/><text fill="#000000" font-family="sans-serif" font-size="11" lengthAdjust="spacing" textLength="338" x="29" y="486.7754">getNodesAt(vecOrX: number | Vec2, y: number) : CanvasNode[]</text><ellipse cx="20" cy="496.0957" fill="#84BE84" rx="3" ry="3" style="stroke:#038048;stroke-width:1.0;"/><text fill="#000000" font-family="sans-serif" font-size="11" lengthAdjust="spacing" textLength="310" x="29" y="499.7305">getNodesAtCoords(x: number, y: number) : CanvasNode[]</text><ellipse cx="20" cy="509.0508" fill="#84BE84" rx="3" ry="3" style="stroke:#038048;stroke-width:1.0;"/><text fill="#000000" font-family="sans-serif" font-size="11" lengthAdjust="spacing" textLength="276" x="29" y="512.6855">getNodesInRegion(boundary: AABB) : CanvasNode[]</text><ellipse cx="20" cy="522.0059" fill="#84BE84" rx="3" ry="3" style="stroke:#038048;stroke-width:1.0;"/><text fill="#000000" font-family="sans-serif" font-size="11" lengthAdjust="spacing" textLength="160" x="29" y="525.6406">getVisibleSet() : CanvasNode[]</text><ellipse cx="20" cy="534.9609" fill="#84BE84" rx="3" ry="3" style="stroke:#038048;stroke-width:1.0;"/><text fill="#000000" font-family="sans-serif" font-size="11" lengthAdjust="spacing" textLength="208" x="29" y="538.5957">removeNode(node: CanvasNode) : void</text><ellipse cx="20" cy="547.916" fill="#84BE84" rx="3" ry="3" style="stroke:#038048;stroke-width:1.0;"/><text fill="#000000" font-family="sans-serif" font-size="11" lengthAdjust="spacing" textLength="251" x="29" y="551.5508">render(ctx: CanvasRenderingContext2D) : void</text><ellipse cx="20" cy="560.8711" fill="#84BE84" rx="3" ry="3" style="stroke:#038048;stroke-width:1.0;"/><text fill="#000000" font-family="sans-serif" font-size="11" lengthAdjust="spacing" textLength="158" x="29" y="564.5059">update(deltaT: number) : void</text><polygon fill="#FFFF44" points="20,568.8262,24,572.8262,20,576.8262,16,572.8262" style="stroke:#B38D22;stroke-width:1.0;"/><text fill="#000000" font-family="sans-serif" font-size="11" lengthAdjust="spacing" textLength="293" x="29" y="577.4609">addNodeSpecific(node: CanvasNode, id: number) : void</text><polygon fill="#FFFF44" points="20,581.7813,24,585.7813,20,589.7813,16,585.7813" style="stroke:#B38D22;stroke-width:1.0;"/><text fill="#000000" font-family="sans-serif" font-size="11" lengthAdjust="spacing" textLength="313" x="29" y="590.416">removeNodeSpecific(node: CanvasNode, id: number) : void</text><!--MD5=[74b469c5eca7313c02b2fcb4e1d50bbf]
class SceneGraphQuadTree--><rect codeLine="44" fill="#FEFECE" filter="url(#f1mnkzmfjzc9zr)" height="281.1914" id="SceneGraphQuadTree" style="stroke:#FF0000;stroke-width:1.5;" width="364" x="408" y="322"/><ellipse cx="522.25" cy="338" fill="#ADD1B2" rx="11" ry="11" style="stroke:#FF0000;stroke-width:1.0;"/><path d="M524.7231,344.1431 Q524.1421,344.4419 523.5029,344.5913 Q522.8638,344.7407 522.1582,344.7407 Q519.6514,344.7407 518.3315,343.0889 Q517.0117,341.437 517.0117,338.3159 Q517.0117,335.1865 518.3315,333.5347 Q519.6514,331.8828 522.1582,331.8828 Q522.8638,331.8828 523.5112,332.0322 Q524.1587,332.1816 524.7231,332.4805 L524.7231,335.2031 Q524.0923,334.6221 523.4988,334.3523 Q522.9053,334.0825 522.2744,334.0825 Q520.9297,334.0825 520.2449,335.1492 Q519.5601,336.2158 519.5601,338.3159 Q519.5601,340.4077 520.2449,341.4744 Q520.9297,342.541 522.2744,342.541 Q522.9053,342.541 523.4988,342.2712 Q524.0923,342.0015 524.7231,341.4204 Z " fill="#000000"/><text fill="#000000" font-family="sans-serif" font-size="12" lengthAdjust="spacing" textLength="127" x="542.75" y="342.5352">SceneGraphQuadTree</text><line style="stroke:#FF0000;stroke-width:1.5;" x1="409" x2="771" y1="354" y2="354"/><polygon fill="none" points="419,360,423,364,419,368,415,364" style="stroke:#B38D22;stroke-width:1.0;"/><text fill="#000000" font-family="sans-serif" font-size="11" lengthAdjust="spacing" textLength="105" x="428" y="368.6348">idCounter : number</text><polygon fill="none" points="419,372.9551,423,376.9551,419,380.9551,415,376.9551" style="stroke:#B38D22;stroke-width:1.0;"/><text fill="#000000" font-family="sans-serif" font-size="11" lengthAdjust="spacing" textLength="133" x="428" y="381.5898">nodeMap : CanvasNode[]</text><polygon fill="none" points="419,385.9102,423,389.9102,419,393.9102,415,389.9102" style="stroke:#B38D22;stroke-width:1.0;"/><text fill="#000000" font-family="sans-serif" font-size="11" lengthAdjust="spacing" textLength="71" x="428" y="394.5449">scene : Scene</text><polygon fill="none" points="419,398.8652,423,402.8652,419,406.8652,415,402.8652" style="stroke:#B38D22;stroke-width:1.0;"/><text fill="#000000" font-family="sans-serif" font-size="11" lengthAdjust="spacing" textLength="102" x="428" y="407.5">viewport : Viewport</text><rect fill="none" height="6" style="stroke:#C82930;stroke-width:1.0;" width="6" x="416" y="413.8203"/><text fill="#000000" font-family="sans-serif" font-size="11" lengthAdjust="spacing" textLength="117" x="428" y="420.4551">nodes : CanvasNode[]</text><rect fill="none" height="6" style="stroke:#C82930;stroke-width:1.0;" width="6" x="416" y="426.7754"/><text fill="#000000" font-family="sans-serif" font-size="11" lengthAdjust="spacing" textLength="195" x="428" y="433.4102">qt : RegionQuadTree&lt;CanvasNode&gt;</text><line style="stroke:#FF0000;stroke-width:1.5;" x1="409" x2="771" y1="439.7305" y2="439.7305"/><ellipse cx="419" cy="450.7305" fill="#84BE84" rx="3" ry="3" style="stroke:#038048;stroke-width:1.0;"/><text fill="#000000" font-family="sans-serif" font-size="11" lengthAdjust="spacing" textLength="207" x="428" y="454.3652">addNode(node: CanvasNode) : number</text><ellipse cx="419" cy="463.6855" fill="#84BE84" rx="3" ry="3" style="stroke:#038048;stroke-width:1.0;"/><text fill="#000000" font-family="sans-serif" font-size="11" lengthAdjust="spacing" textLength="157" x="428" y="467.3203">getAllNodes() : CanvasNode[]</text><ellipse cx="419" cy="476.6406" fill="#84BE84" rx="3" ry="3" style="stroke:#038048;stroke-width:1.0;"/><text fill="#000000" font-family="sans-serif" font-size="11" lengthAdjust="spacing" textLength="187" x="428" y="480.2754">getNode(id: number) : CanvasNode</text><ellipse cx="419" cy="489.5957" fill="#84BE84" rx="3" ry="3" style="stroke:#038048;stroke-width:1.0;"/><text fill="#000000" font-family="sans-serif" font-size="11" lengthAdjust="spacing" textLength="338" x="428" y="493.2305">getNodesAt(vecOrX: number | Vec2, y: number) : CanvasNode[]</text><ellipse cx="419" cy="502.5508" fill="#84BE84" rx="3" ry="3" style="stroke:#038048;stroke-width:1.0;"/><text fill="#000000" font-family="sans-serif" font-size="11" lengthAdjust="spacing" textLength="310" x="428" y="506.1855">getNodesAtCoords(x: number, y: number) : CanvasNode[]</text><ellipse cx="419" cy="515.5059" fill="#84BE84" rx="3" ry="3" style="stroke:#038048;stroke-width:1.0;"/><text fill="#000000" font-family="sans-serif" font-size="11" lengthAdjust="spacing" textLength="276" x="428" y="519.1406">getNodesInRegion(boundary: AABB) : CanvasNode[]</text><ellipse cx="419" cy="528.4609" fill="#84BE84" rx="3" ry="3" style="stroke:#038048;stroke-width:1.0;"/><text fill="#000000" font-family="sans-serif" font-size="11" lengthAdjust="spacing" textLength="160" x="428" y="532.0957">getVisibleSet() : CanvasNode[]</text><ellipse cx="419" cy="541.416" fill="#84BE84" rx="3" ry="3" style="stroke:#038048;stroke-width:1.0;"/><text fill="#000000" font-family="sans-serif" font-size="11" lengthAdjust="spacing" textLength="208" x="428" y="545.0508">removeNode(node: CanvasNode) : void</text><ellipse cx="419" cy="554.3711" fill="#84BE84" rx="3" ry="3" style="stroke:#038048;stroke-width:1.0;"/><text fill="#000000" font-family="sans-serif" font-size="11" lengthAdjust="spacing" textLength="251" x="428" y="558.0059">render(ctx: CanvasRenderingContext2D) : void</text><ellipse cx="419" cy="567.3262" fill="#84BE84" rx="3" ry="3" style="stroke:#038048;stroke-width:1.0;"/><text fill="#000000" font-family="sans-serif" font-size="11" lengthAdjust="spacing" textLength="158" x="428" y="570.9609">update(deltaT: number) : void</text><polygon fill="#FFFF44" points="419,575.2813,423,579.2813,419,583.2813,415,579.2813" style="stroke:#B38D22;stroke-width:1.0;"/><text fill="#000000" font-family="sans-serif" font-size="11" lengthAdjust="spacing" textLength="293" x="428" y="583.916">addNodeSpecific(node: CanvasNode, id: number) : void</text><polygon fill="#FFFF44" points="419,588.2363,423,592.2363,419,596.2363,415,592.2363" style="stroke:#B38D22;stroke-width:1.0;"/><text fill="#000000" font-family="sans-serif" font-size="11" lengthAdjust="spacing" textLength="313" x="428" y="596.8711">removeNodeSpecific(node: CanvasNode, id: number) : void</text><!--MD5=[19ec4ac8484d03ecce3c33406fc4129a]
reverse link SceneGraph to SceneGraphArray--><path codeLine="43" d="M302.26,279.24 C292.29,295.56 282.17,312.15 272.29,328.33 " fill="none" id="SceneGraph-backto-SceneGraphArray" style="stroke:#FF0000;stroke-width:1.0;"/><polygon fill="none" points="296.38,275.43,312.78,262.01,308.33,282.72,296.38,275.43" style="stroke:#FF0000;stroke-width:1.0;"/><!--MD5=[a119e7d1a23fb99b22e019d11415f26f]
reverse link SceneGraph to SceneGraphQuadTree--><path codeLine="64" d="M478.13,279.16 C486.82,293.32 495.64,307.69 504.3,321.81 " fill="none" id="SceneGraph-backto-SceneGraphQuadTree" style="stroke:#FF0000;stroke-width:1.0;"/><polygon fill="none" points="472.1,282.71,467.61,262.01,484.04,275.39,472.1,282.71" style="stroke:#FF0000;stroke-width:1.0;"/><!--MD5=[cd29e9baba81678c5a09c89c0d2cd57a]
@startuml
skinparam ClassArrowColor #ff0000
skinparam ClassBorderColor #ff0000
skinparam BackgroundColor transparent
hide empty methods
hide empty fields
abstract class "SceneGraph" {
    #idCounter : number
    #nodeMap : CanvasNode[]
    #scene : Scene
    #viewport : Viewport
    +addNode(node: CanvasNode) : number
    +getAllNodes() : CanvasNode[]
    +getNode(id: number) : CanvasNode
    +getNodesAt(vecOrX: number | Vec2, y: number) : CanvasNode[]
    {abstract} +getNodesInRegion(boundary: AABB) : CanvasNode[]
    {abstract} +getVisibleSet() : CanvasNode[]
    +removeNode(node: CanvasNode) : void
    {abstract} +render(ctx: CanvasRenderingContext2D) : void
    {abstract} +update(deltaT: number) : void
    {abstract} #addNodeSpecific(node: CanvasNode, id: number) : void
    {abstract} #getNodesAtCoords(x: number, y: number) : CanvasNode[]
    {abstract} #removeNodeSpecific(node: CanvasNode, id: number) : void
}
class "SceneGraphArray" {
    #idCounter : number
    #nodeMap : CanvasNode[]
    #scene : Scene
    #viewport : Viewport
    -nodeList : CanvasNode[]
    +addNode(node: CanvasNode) : number
    +getAllNodes() : CanvasNode[]
    +getNode(id: number) : CanvasNode
    +getNodesAt(vecOrX: number | Vec2, y: number) : CanvasNode[]
    +getNodesAtCoords(x: number, y: number) : CanvasNode[]
    +getNodesInRegion(boundary: AABB) : CanvasNode[]
    +getVisibleSet() : CanvasNode[]
    +removeNode(node: CanvasNode) : void
    +render(ctx: CanvasRenderingContext2D) : void
    +update(deltaT: number) : void
    #addNodeSpecific(node: CanvasNode, id: number) : void
    #removeNodeSpecific(node: CanvasNode, id: number) : void
}
"SceneGraph" <|- - "SceneGraphArray"
class "SceneGraphQuadTree" {
    #idCounter : number
    #nodeMap : CanvasNode[]
    #scene : Scene
    #viewport : Viewport
    -nodes : CanvasNode[]
    -qt : RegionQuadTree<CanvasNode>
    +addNode(node: CanvasNode) : number
    +getAllNodes() : CanvasNode[]
    +getNode(id: number) : CanvasNode
    +getNodesAt(vecOrX: number | Vec2, y: number) : CanvasNode[]
    +getNodesAtCoords(x: number, y: number) : CanvasNode[]
    +getNodesInRegion(boundary: AABB) : CanvasNode[]
    +getVisibleSet() : CanvasNode[]
    +removeNode(node: CanvasNode) : void
    +render(ctx: CanvasRenderingContext2D) : void
    +update(deltaT: number) : void
    #addNodeSpecific(node: CanvasNode, id: number) : void
    #removeNodeSpecific(node: CanvasNode, id: number) : void
}
"SceneGraph" <|- - "SceneGraphQuadTree"
@enduml

PlantUML version 1.2021.14(Fri Nov 12 11:46:50 EST 2021)
(GPL source distribution)
Java Runtime: Java(TM) SE Runtime Environment
JVM: Java HotSpot(TM) 64-Bit Server VM
Default Encoding: UTF-8
Language: en
Country: US
--></g></svg>