<?xml version="1.0" encoding="UTF-8" standalone="no"?><svg xmlns="http://www.w3.org/2000/svg" xmlns:xlink="http://www.w3.org/1999/xlink" contentScriptType="application/ecmascript" contentStyleType="text/css" height="145px" preserveAspectRatio="none" style="width:188px;height:145px;background:#00000000;" version="1.1" viewBox="0 0 188 145" width="188px" zoomAndPan="magnify"><defs><filter height="300%" id="f10r6ang8g4v29" width="300%" x="-1" y="-1"><feGaussianBlur result="blurOut" stdDeviation="2.0"/><feColorMatrix in="blurOut" result="blurOut2" type="matrix" values="0 0 0 0 0 0 0 0 0 0 0 0 0 0 0 0 0 0 .4 0"/><feOffset dx="4.0" dy="4.0" in="blurOut2" result="blurOut3"/><feBlend in="SourceGraphic" in2="blurOut3" mode="normal"/></filter></defs><g><!--MD5=[bc0008100b09d00eabbab68c5031d12a]
class ShaderRegistry--><rect codeLine="6" fill="#FEFECE" filter="url(#f10r6ang8g4v29)" height="32" id="ShaderRegistry" style="stroke:#FF0000;stroke-width:1.5;" width="118" x="31.5" y="99"/><ellipse cx="46.5" cy="115" fill="#ADD1B2" rx="11" ry="11" style="stroke:#FF0000;stroke-width:1.0;"/><path d="M48.9731,121.1431 Q48.3921,121.4419 47.7529,121.5913 Q47.1138,121.7407 46.4082,121.7407 Q43.9014,121.7407 42.5815,120.0889 Q41.2617,118.437 41.2617,115.3159 Q41.2617,112.1865 42.5815,110.5347 Q43.9014,108.8828 46.4082,108.8828 Q47.1138,108.8828 47.7612,109.0322 Q48.4087,109.1816 48.9731,109.4805 L48.9731,112.2031 Q48.3423,111.6221 47.7488,111.3523 Q47.1553,111.0825 46.5244,111.0825 Q45.1797,111.0825 44.4949,112.1492 Q43.8101,113.2158 43.8101,115.3159 Q43.8101,117.4077 44.4949,118.4744 Q45.1797,119.541 46.5244,119.541 Q47.1553,119.541 47.7488,119.2712 Q48.3423,119.0015 48.9731,118.4204 Z " fill="#000000"/><text fill="#000000" font-family="sans-serif" font-size="12" lengthAdjust="spacing" textLength="86" x="60.5" y="119.5352">ShaderRegistry</text><!--MD5=[89bf1c8003c0effeda5076de74e2aed3]
class Registry<ShaderType>--><rect codeLine="8" fill="#FEFECE" filter="url(#f10r6ang8g4v29)" height="32" id="Registry&lt;ShaderType&gt;" style="stroke:#FF0000;stroke-width:1.5;" width="167" x="7" y="7"/><ellipse cx="22" cy="23" fill="#A9DCDF" rx="11" ry="11" style="stroke:#FF0000;stroke-width:1.0;"/><path d="M21.8633,18.3481 L20.7095,23.4199 L23.0254,23.4199 Z M20.3691,16.1069 L23.3657,16.1069 L26.7109,28.5 L24.2622,28.5 L23.4985,25.437 L20.2197,25.437 L19.4727,28.5 L17.0239,28.5 Z " fill="#000000"/><text fill="#000000" font-family="sans-serif" font-size="12" font-style="italic" lengthAdjust="spacing" textLength="135" x="36" y="27.5352">Registry&lt;ShaderType&gt;</text><!--MD5=[165df857089a18fa297a101ebeae1484]
reverse link Registry<ShaderType> to ShaderRegistry--><path codeLine="10" d="M90.5,59.61 C90.5,73.31 90.5,88.22 90.5,98.96 " fill="none" id="Registry&lt;ShaderType&gt;-backto-ShaderRegistry" style="stroke:#FF0000;stroke-width:1.0;"/><polygon fill="none" points="83.5,59.27,90.5,39.27,97.5,59.27,83.5,59.27" style="stroke:#FF0000;stroke-width:1.0;"/><!--MD5=[dd867dae4a9855017fedfd0faf91b427]
@startuml
skinparam ClassArrowColor #ff0000
skinparam ClassBorderColor #ff0000
skinparam BackgroundColor transparent
hide empty methods
hide empty fields
class "ShaderRegistry" {
}
abstract class "Registry<ShaderType>" {
}
"Registry<ShaderType>" <|- - "ShaderRegistry"
@enduml

PlantUML version 1.2021.14(Fri Nov 12 11:46:50 EST 2021)
(GPL source distribution)
Java Runtime: Java(TM) SE Runtime Environment
JVM: Java HotSpot(TM) 64-Bit Server VM
Default Encoding: UTF-8
Language: en
Country: US
--></g></svg>