<?xml version="1.0" encoding="UTF-8" standalone="no"?><svg xmlns="http://www.w3.org/2000/svg" xmlns:xlink="http://www.w3.org/1999/xlink" contentScriptType="application/ecmascript" contentStyleType="text/css" height="384px" preserveAspectRatio="none" style="width:894px;height:384px;background:#00000000;" version="1.1" viewBox="0 0 894 384" width="894px" zoomAndPan="magnify"><defs><filter height="300%" id="fyn2wwl6zynu1" width="300%" x="-1" y="-1"><feGaussianBlur result="blurOut" stdDeviation="2.0"/><feColorMatrix in="blurOut" result="blurOut2" type="matrix" values="0 0 0 0 0 0 0 0 0 0 0 0 0 0 0 0 0 0 .4 0"/><feOffset dx="4.0" dy="4.0" in="blurOut2" result="blurOut3"/><feBlend in="SourceGraphic" in2="blurOut3" mode="normal"/></filter></defs><g><!--MD5=[22fd9abb6b5f6baa829d9b24081553a5]
class ShaderType--><rect codeLine="6" fill="#FEFECE" filter="url(#fyn2wwl6zynu1)" height="125.7305" id="ShaderType" style="stroke:#FF0000;stroke-width:1.5;" width="418" x="235" y="7"/><ellipse cx="405.25" cy="23" fill="#A9DCDF" rx="11" ry="11" style="stroke:#FF0000;stroke-width:1.0;"/><path d="M405.1133,18.3481 L403.9595,23.4199 L406.2754,23.4199 Z M403.6191,16.1069 L406.6157,16.1069 L409.9609,28.5 L407.5122,28.5 L406.7485,25.437 L403.4697,25.437 L402.7227,28.5 L400.2739,28.5 Z " fill="#000000"/><text fill="#000000" font-family="sans-serif" font-size="12" font-style="italic" lengthAdjust="spacing" textLength="69" x="425.75" y="27.5352">ShaderType</text><line style="stroke:#FF0000;stroke-width:1.5;" x1="236" x2="652" y1="39" y2="39"/><polygon fill="none" points="246,45,250,49,246,53,242,49" style="stroke:#B38D22;stroke-width:1.0;"/><text fill="#000000" font-family="sans-serif" font-size="11" lengthAdjust="spacing" textLength="70" x="255" y="53.6348">name : string</text><polygon fill="none" points="246,57.9551,250,61.9551,246,65.9551,242,61.9551" style="stroke:#B38D22;stroke-width:1.0;"/><text fill="#000000" font-family="sans-serif" font-size="11" lengthAdjust="spacing" textLength="107" x="255" y="66.5898">programKey : string</text><polygon fill="none" points="246,70.9102,250,74.9102,246,78.9102,242,74.9102" style="stroke:#B38D22;stroke-width:1.0;"/><text fill="#000000" font-family="sans-serif" font-size="11" lengthAdjust="spacing" textLength="199" x="255" y="79.5449">resourceManager : ResourceManager</text><line style="stroke:#FF0000;stroke-width:1.5;" x1="236" x2="652" y1="85.8652" y2="85.8652"/><ellipse cx="246" cy="96.8652" fill="#84BE84" rx="3" ry="3" style="stroke:#038048;stroke-width:1.0;"/><text fill="#000000" font-family="sans-serif" font-size="11" lengthAdjust="spacing" textLength="290" x="255" y="100.5">getOptions(node: CanvasNode) : Record&lt;string, any&gt;</text><ellipse cx="246" cy="109.8203" fill="#84BE84" rx="3" ry="3" style="stroke:#038048;stroke-width:1.0;"/><text fill="#000000" font-family="sans-serif" font-size="11" font-style="italic" lengthAdjust="spacing" textLength="124" x="255" y="113.4551">initBufferObject() : void</text><ellipse cx="246" cy="122.7754" fill="#84BE84" rx="3" ry="3" style="stroke:#038048;stroke-width:1.0;"/><text fill="#000000" font-family="sans-serif" font-size="11" font-style="italic" lengthAdjust="spacing" textLength="392" x="255" y="126.4102">render(gl: WebGLRenderingContext, options: Record&lt;string, any&gt;) : void</text><!--MD5=[7f4652fd4e94a9ca0d88a5de6f2f5d71]
class PointShaderType--><rect codeLine="14" fill="#FEFECE" filter="url(#fyn2wwl6zynu1)" height="138.6855" id="PointShaderType" style="stroke:#FF0000;stroke-width:1.5;" width="418" x="9" y="212.5"/><ellipse cx="165.25" cy="228.5" fill="#ADD1B2" rx="11" ry="11" style="stroke:#FF0000;stroke-width:1.0;"/><path d="M167.7231,234.6431 Q167.1421,234.9419 166.5029,235.0913 Q165.8638,235.2407 165.1582,235.2407 Q162.6514,235.2407 161.3315,233.5889 Q160.0117,231.937 160.0117,228.8159 Q160.0117,225.6865 161.3315,224.0347 Q162.6514,222.3828 165.1582,222.3828 Q165.8638,222.3828 166.5112,222.5322 Q167.1587,222.6816 167.7231,222.9805 L167.7231,225.7031 Q167.0923,225.1221 166.4988,224.8523 Q165.9053,224.5825 165.2744,224.5825 Q163.9297,224.5825 163.2449,225.6492 Q162.5601,226.7158 162.5601,228.8159 Q162.5601,230.9077 163.2449,231.9744 Q163.9297,233.041 165.2744,233.041 Q165.9053,233.041 166.4988,232.7712 Q167.0923,232.5015 167.7231,231.9204 Z " fill="#000000"/><text fill="#000000" font-family="sans-serif" font-size="12" lengthAdjust="spacing" textLength="97" x="185.75" y="233.0352">PointShaderType</text><line style="stroke:#FF0000;stroke-width:1.5;" x1="10" x2="426" y1="244.5" y2="244.5"/><polygon fill="none" points="20,250.5,24,254.5,20,258.5,16,254.5" style="stroke:#B38D22;stroke-width:1.0;"/><text fill="#000000" font-family="sans-serif" font-size="11" lengthAdjust="spacing" textLength="128" x="29" y="259.1348">bufferObjectKey : string</text><polygon fill="none" points="20,263.4551,24,267.4551,20,271.4551,16,267.4551" style="stroke:#B38D22;stroke-width:1.0;"/><text fill="#000000" font-family="sans-serif" font-size="11" lengthAdjust="spacing" textLength="70" x="29" y="272.0898">name : string</text><polygon fill="none" points="20,276.4102,24,280.4102,20,284.4102,16,280.4102" style="stroke:#B38D22;stroke-width:1.0;"/><text fill="#000000" font-family="sans-serif" font-size="11" lengthAdjust="spacing" textLength="107" x="29" y="285.0449">programKey : string</text><polygon fill="none" points="20,289.3652,24,293.3652,20,297.3652,16,293.3652" style="stroke:#B38D22;stroke-width:1.0;"/><text fill="#000000" font-family="sans-serif" font-size="11" lengthAdjust="spacing" textLength="199" x="29" y="298">resourceManager : ResourceManager</text><line style="stroke:#FF0000;stroke-width:1.5;" x1="10" x2="426" y1="304.3203" y2="304.3203"/><ellipse cx="20" cy="315.3203" fill="#84BE84" rx="3" ry="3" style="stroke:#038048;stroke-width:1.0;"/><text fill="#000000" font-family="sans-serif" font-size="11" lengthAdjust="spacing" textLength="251" x="29" y="318.9551">getOptions(point: Point) : Record&lt;string, any&gt;</text><ellipse cx="20" cy="328.2754" fill="#84BE84" rx="3" ry="3" style="stroke:#038048;stroke-width:1.0;"/><text fill="#000000" font-family="sans-serif" font-size="11" lengthAdjust="spacing" textLength="124" x="29" y="331.9102">initBufferObject() : void</text><ellipse cx="20" cy="341.2305" fill="#84BE84" rx="3" ry="3" style="stroke:#038048;stroke-width:1.0;"/><text fill="#000000" font-family="sans-serif" font-size="11" lengthAdjust="spacing" textLength="392" x="29" y="344.8652">render(gl: WebGLRenderingContext, options: Record&lt;string, any&gt;) : void</text><!--MD5=[a20a8f5c719dd0b14625af93e214cb5b]
class QuadShaderType--><rect codeLine="24" fill="#FEFECE" filter="url(#fyn2wwl6zynu1)" height="177.5508" id="QuadShaderType" style="stroke:#FF0000;stroke-width:1.5;" width="418" x="462" y="193"/><ellipse cx="616.75" cy="209" fill="#A9DCDF" rx="11" ry="11" style="stroke:#FF0000;stroke-width:1.0;"/><path d="M616.6133,204.3481 L615.4595,209.4199 L617.7754,209.4199 Z M615.1191,202.1069 L618.1157,202.1069 L621.4609,214.5 L619.0122,214.5 L618.2485,211.437 L614.9697,211.437 L614.2227,214.5 L611.7739,214.5 Z " fill="#000000"/><text fill="#000000" font-family="sans-serif" font-size="12" font-style="italic" lengthAdjust="spacing" textLength="100" x="637.25" y="213.5352">QuadShaderType</text><line style="stroke:#FF0000;stroke-width:1.5;" x1="463" x2="879" y1="225" y2="225"/><polygon fill="none" points="473,231,477,235,473,239,469,235" style="stroke:#B38D22;stroke-width:1.0;"/><text fill="#000000" font-family="sans-serif" font-size="11" lengthAdjust="spacing" textLength="128" x="482" y="239.6348">bufferObjectKey : string</text><polygon fill="none" points="473,243.9551,477,247.9551,473,251.9551,469,247.9551" style="stroke:#B38D22;stroke-width:1.0;"/><text fill="#000000" font-family="sans-serif" font-size="11" lengthAdjust="spacing" textLength="70" x="482" y="252.5898">name : string</text><polygon fill="none" points="473,256.9102,477,260.9102,473,264.9102,469,260.9102" style="stroke:#B38D22;stroke-width:1.0;"/><text fill="#000000" font-family="sans-serif" font-size="11" lengthAdjust="spacing" textLength="107" x="482" y="265.5449">programKey : string</text><polygon fill="none" points="473,269.8652,477,273.8652,473,277.8652,469,273.8652" style="stroke:#B38D22;stroke-width:1.0;"/><text fill="#000000" font-family="sans-serif" font-size="11" lengthAdjust="spacing" textLength="199" x="482" y="278.5">resourceManager : ResourceManager</text><polygon fill="none" points="473,282.8203,477,286.8203,473,290.8203,469,286.8203" style="stroke:#B38D22;stroke-width:1.0;"/><text fill="#000000" font-family="sans-serif" font-size="11" lengthAdjust="spacing" textLength="92" x="482" y="291.4551">rotation : Mat4x4</text><polygon fill="none" points="473,295.7754,477,299.7754,473,303.7754,469,299.7754" style="stroke:#B38D22;stroke-width:1.0;"/><text fill="#000000" font-family="sans-serif" font-size="11" lengthAdjust="spacing" textLength="76" x="482" y="304.4102">scale : Mat4x4</text><polygon fill="none" points="473,308.7305,477,312.7305,473,316.7305,469,312.7305" style="stroke:#B38D22;stroke-width:1.0;"/><text fill="#000000" font-family="sans-serif" font-size="11" lengthAdjust="spacing" textLength="107" x="482" y="317.3652">translation : Mat4x4</text><line style="stroke:#FF0000;stroke-width:1.5;" x1="463" x2="879" y1="323.6855" y2="323.6855"/><ellipse cx="473" cy="334.6855" fill="#84BE84" rx="3" ry="3" style="stroke:#038048;stroke-width:1.0;"/><text fill="#000000" font-family="sans-serif" font-size="11" lengthAdjust="spacing" textLength="290" x="482" y="338.3203">getOptions(node: CanvasNode) : Record&lt;string, any&gt;</text><ellipse cx="473" cy="347.6406" fill="#84BE84" rx="3" ry="3" style="stroke:#038048;stroke-width:1.0;"/><text fill="#000000" font-family="sans-serif" font-size="11" font-style="italic" lengthAdjust="spacing" textLength="124" x="482" y="351.2754">initBufferObject() : void</text><ellipse cx="473" cy="360.5957" fill="#84BE84" rx="3" ry="3" style="stroke:#038048;stroke-width:1.0;"/><text fill="#000000" font-family="sans-serif" font-size="11" font-style="italic" lengthAdjust="spacing" textLength="392" x="482" y="364.2305">render(gl: WebGLRenderingContext, options: Record&lt;string, any&gt;) : void</text><!--MD5=[131c144c9451913a8ecb16e04bde4db5]
reverse link ShaderType to PointShaderType--><path codeLine="23" d="M362.3,146.92 C339.27,168.31 314.37,191.46 291.83,212.39 " fill="none" id="ShaderType-backto-PointShaderType" style="stroke:#FF0000;stroke-width:1.0;"/><polygon fill="none" points="357.69,141.64,377.11,133.15,367.22,151.9,357.69,141.64" style="stroke:#FF0000;stroke-width:1.0;"/><!--MD5=[07878e31c987d625e9411fa2067689fe]
reverse link ShaderType to QuadShaderType--><path codeLine="36" d="M526.28,147.12 C542.36,162 559.35,177.71 575.81,192.94 " fill="none" id="ShaderType-backto-QuadShaderType" style="stroke:#FF0000;stroke-width:1.0;"/><polygon fill="none" points="521.11,151.87,511.19,133.15,530.62,141.6,521.11,151.87" style="stroke:#FF0000;stroke-width:1.0;"/><!--MD5=[7320fa1a331b9cefd0b10543743e589c]
@startuml
skinparam ClassArrowColor #ff0000
skinparam ClassBorderColor #ff0000
skinparam BackgroundColor transparent
hide empty methods
hide empty fields
abstract class "ShaderType" {
    #name : string
    #programKey : string
    #resourceManager : ResourceManager
    +getOptions(node: CanvasNode) : Record<string, any>
    {abstract} +initBufferObject() : void
    {abstract} +render(gl: WebGLRenderingContext, options: Record<string, any>) : void
}
class "PointShaderType" {
    #bufferObjectKey : string
    #name : string
    #programKey : string
    #resourceManager : ResourceManager
    +getOptions(point: Point) : Record<string, any>
    +initBufferObject() : void
    +render(gl: WebGLRenderingContext, options: Record<string, any>) : void
}
"ShaderType" <|- - "PointShaderType"
abstract class "QuadShaderType" {
    #bufferObjectKey : string
    #name : string
    #programKey : string
    #resourceManager : ResourceManager
    #rotation : Mat4x4
    #scale : Mat4x4
    #translation : Mat4x4
    +getOptions(node: CanvasNode) : Record<string, any>
    {abstract} +initBufferObject() : void
    {abstract} +render(gl: WebGLRenderingContext, options: Record<string, any>) : void
}
"ShaderType" <|- - "QuadShaderType"
@enduml

PlantUML version 1.2021.14(Fri Nov 12 11:46:50 EST 2021)
(GPL source distribution)
Java Runtime: Java(TM) SE Runtime Environment
JVM: Java HotSpot(TM) 64-Bit Server VM
Default Encoding: UTF-8
Language: en
Country: US
--></g></svg>