<?xml version="1.0" encoding="UTF-8" standalone="no"?><svg xmlns="http://www.w3.org/2000/svg" xmlns:xlink="http://www.w3.org/1999/xlink" contentScriptType="application/ecmascript" contentStyleType="text/css" height="145px" preserveAspectRatio="none" style="width:182px;height:145px;background:#00000000;" version="1.1" viewBox="0 0 182 145" width="182px" zoomAndPan="magnify"><defs><filter height="300%" id="f5qxi59py70an" width="300%" x="-1" y="-1"><feGaussianBlur result="blurOut" stdDeviation="2.0"/><feColorMatrix in="blurOut" result="blurOut2" type="matrix" values="0 0 0 0 0 0 0 0 0 0 0 0 0 0 0 0 0 0 .4 0"/><feOffset dx="4.0" dy="4.0" in="blurOut2" result="blurOut3"/><feBlend in="SourceGraphic" in2="blurOut3" mode="normal"/></filter></defs><g><!--MD5=[426e75666daf533f17226ff4c87e20fd]
class Shape--><rect codeLine="6" fill="#FEFECE" filter="url(#f5qxi59py70an)" height="32" id="Shape" style="stroke:#FF0000;stroke-width:1.5;" width="67" x="53.5" y="7"/><ellipse cx="68.5" cy="23" fill="#A9DCDF" rx="11" ry="11" style="stroke:#FF0000;stroke-width:1.0;"/><path d="M68.3633,18.3481 L67.2095,23.4199 L69.5254,23.4199 Z M66.8691,16.1069 L69.8657,16.1069 L73.2109,28.5 L70.7622,28.5 L69.9985,25.437 L66.7197,25.437 L65.9727,28.5 L63.5239,28.5 Z " fill="#000000"/><text fill="#000000" font-family="sans-serif" font-size="12" font-style="italic" lengthAdjust="spacing" textLength="35" x="82.5" y="27.5352">Shape</text><!--MD5=[6a27c20b92d3f9c7e017ccad1b71cd6d]
class AABB--><rect codeLine="8" fill="#FEFECE" filter="url(#f5qxi59py70an)" height="32" id="AABB" style="stroke:#FF0000;stroke-width:1.5;" width="62" x="7" y="99"/><ellipse cx="22" cy="115" fill="#ADD1B2" rx="11" ry="11" style="stroke:#FF0000;stroke-width:1.0;"/><path d="M24.4731,121.1431 Q23.8921,121.4419 23.2529,121.5913 Q22.6138,121.7407 21.9082,121.7407 Q19.4014,121.7407 18.0815,120.0889 Q16.7617,118.437 16.7617,115.3159 Q16.7617,112.1865 18.0815,110.5347 Q19.4014,108.8828 21.9082,108.8828 Q22.6138,108.8828 23.2612,109.0322 Q23.9087,109.1816 24.4731,109.4805 L24.4731,112.2031 Q23.8423,111.6221 23.2488,111.3523 Q22.6553,111.0825 22.0244,111.0825 Q20.6797,111.0825 19.9949,112.1492 Q19.3101,113.2158 19.3101,115.3159 Q19.3101,117.4077 19.9949,118.4744 Q20.6797,119.541 22.0244,119.541 Q22.6553,119.541 23.2488,119.2712 Q23.8423,119.0015 24.4731,118.4204 Z " fill="#000000"/><text fill="#000000" font-family="sans-serif" font-size="12" lengthAdjust="spacing" textLength="30" x="36" y="119.5352">AABB</text><!--MD5=[a7f9118cae7621dd25d25149752faef0]
class Circle--><rect codeLine="11" fill="#FEFECE" filter="url(#f5qxi59py70an)" height="32" id="Circle" style="stroke:#FF0000;stroke-width:1.5;" width="64" x="104" y="99"/><ellipse cx="119" cy="115" fill="#ADD1B2" rx="11" ry="11" style="stroke:#FF0000;stroke-width:1.0;"/><path d="M121.4731,121.1431 Q120.8921,121.4419 120.2529,121.5913 Q119.6138,121.7407 118.9082,121.7407 Q116.4014,121.7407 115.0815,120.0889 Q113.7617,118.437 113.7617,115.3159 Q113.7617,112.1865 115.0815,110.5347 Q116.4014,108.8828 118.9082,108.8828 Q119.6138,108.8828 120.2612,109.0322 Q120.9087,109.1816 121.4731,109.4805 L121.4731,112.2031 Q120.8423,111.6221 120.2488,111.3523 Q119.6553,111.0825 119.0244,111.0825 Q117.6797,111.0825 116.9949,112.1492 Q116.3101,113.2158 116.3101,115.3159 Q116.3101,117.4077 116.9949,118.4744 Q117.6797,119.541 119.0244,119.541 Q119.6553,119.541 120.2488,119.2712 Q120.8423,119.0015 121.4731,118.4204 Z " fill="#000000"/><text fill="#000000" font-family="sans-serif" font-size="12" lengthAdjust="spacing" textLength="32" x="133" y="119.5352">Circle</text><!--MD5=[351ce946835daa7178fb606e6b9f9bff]
reverse link Shape to AABB--><path codeLine="10" d="M68.95,57.15 C61.14,71.5 52.39,87.57 46.19,98.96 " fill="none" id="Shape-backto-AABB" style="stroke:#FF0000;stroke-width:1.0;"/><polygon fill="none" points="62.98,53.49,78.69,39.27,75.27,60.18,62.98,53.49" style="stroke:#FF0000;stroke-width:1.0;"/><!--MD5=[d637a7d0c5b779627461b5a6979d5756]
reverse link Shape to Circle--><path codeLine="13" d="M105.05,57.15 C112.86,71.5 121.61,87.57 127.81,98.96 " fill="none" id="Shape-backto-Circle" style="stroke:#FF0000;stroke-width:1.0;"/><polygon fill="none" points="98.73,60.18,95.31,39.27,111.02,53.49,98.73,60.18" style="stroke:#FF0000;stroke-width:1.0;"/><!--MD5=[37afa5bd360fed874ac85295d5cb5c81]
@startuml
skinparam ClassArrowColor #ff0000
skinparam ClassBorderColor #ff0000
skinparam BackgroundColor transparent
hide empty methods
hide empty fields
abstract class "Shape" {
}
class "AABB" {
}
"Shape" <|- - "AABB"
class "Circle" {
}
"Shape" <|- - "Circle"
@enduml

PlantUML version 1.2021.14(Fri Nov 12 11:46:50 EST 2021)
(GPL source distribution)
Java Runtime: Java(TM) SE Runtime Environment
JVM: Java HotSpot(TM) 64-Bit Server VM
Default Encoding: UTF-8
Language: en
Country: US
--></g></svg>