<?xml version="1.0" encoding="UTF-8" standalone="no"?><svg xmlns="http://www.w3.org/2000/svg" xmlns:xlink="http://www.w3.org/1999/xlink" contentScriptType="application/ecmascript" contentStyleType="text/css" height="506px" preserveAspectRatio="none" style="width:1110px;height:506px;background:#00000000;" version="1.1" viewBox="0 0 1110 506" width="1110px" zoomAndPan="magnify"><defs><filter height="300%" id="f381mtbo9fs1y" width="300%" x="-1" y="-1"><feGaussianBlur result="blurOut" stdDeviation="2.0"/><feColorMatrix in="blurOut" result="blurOut2" type="matrix" values="0 0 0 0 0 0 0 0 0 0 0 0 0 0 0 0 0 0 .4 0"/><feOffset dx="4.0" dy="4.0" in="blurOut2" result="blurOut3"/><feBlend in="SourceGraphic" in2="blurOut3" mode="normal"/></filter></defs><g><!--MD5=[426e75666daf533f17226ff4c87e20fd]
class Shape--><rect codeLine="6" fill="#FEFECE" filter="url(#f381mtbo9fs1y)" height="130.6855" id="Shape" style="stroke:#FF0000;stroke-width:1.5;" width="590" x="257" y="7"/><ellipse cx="530.25" cy="23" fill="#A9DCDF" rx="11" ry="11" style="stroke:#FF0000;stroke-width:1.0;"/><path d="M530.1133,18.3481 L528.9595,23.4199 L531.2754,23.4199 Z M528.6191,16.1069 L531.6157,16.1069 L534.9609,28.5 L532.5122,28.5 L531.7485,25.437 L528.4697,25.437 L527.7227,28.5 L525.2739,28.5 Z " fill="#000000"/><text fill="#000000" font-family="sans-serif" font-size="12" font-style="italic" lengthAdjust="spacing" textLength="35" x="550.75" y="27.5352">Shape</text><line style="stroke:#FF0000;stroke-width:1.5;" x1="258" x2="846" y1="39" y2="39"/><ellipse cx="268" cy="50" fill="#84BE84" rx="3" ry="3" style="stroke:#038048;stroke-width:1.0;"/><text fill="#000000" font-family="sans-serif" font-size="11" font-style="italic" lengthAdjust="spacing" textLength="78" x="277" y="53.6348">clone() : Shape</text><ellipse cx="268" cy="62.9551" fill="#84BE84" rx="3" ry="3" style="stroke:#038048;stroke-width:1.0;"/><text fill="#000000" font-family="sans-serif" font-size="11" font-style="italic" lengthAdjust="spacing" textLength="193" x="277" y="66.5898">containsPoint(point: Vec2) : boolean</text><ellipse cx="268" cy="75.9102" fill="#84BE84" rx="3" ry="3" style="stroke:#038048;stroke-width:1.0;"/><text fill="#000000" font-family="sans-serif" font-size="11" font-style="italic" lengthAdjust="spacing" textLength="147" x="277" y="79.5449">getBoundingCircle() : Circle</text><ellipse cx="268" cy="88.8652" fill="#84BE84" rx="3" ry="3" style="stroke:#038048;stroke-width:1.0;"/><text fill="#000000" font-family="sans-serif" font-size="11" font-style="italic" lengthAdjust="spacing" textLength="136" x="277" y="92.5">getBoundingRect() : AABB</text><ellipse cx="268" cy="101.8203" fill="#84BE84" rx="3" ry="3" style="stroke:#038048;stroke-width:1.0;"/><text fill="#000000" font-family="sans-serif" font-size="11" lengthAdjust="spacing" text-decoration="underline" textLength="500" x="277" y="105.4551">getTimeOfCollision(A: Shape, velA: Vec2, B: Shape, velB: Vec2) : [Vec2, Vec2, boolean, boolean]</text><ellipse cx="268" cy="114.7754" fill="#84BE84" rx="3" ry="3" style="stroke:#038048;stroke-width:1.0;"/><text fill="#000000" font-family="sans-serif" font-size="11" font-style="italic" lengthAdjust="spacing" textLength="173" x="277" y="118.4102">overlaps(other: Shape) : boolean</text><rect fill="#F24D5C" height="6" style="stroke:#C82930;stroke-width:1.0;" width="6" x="265" y="124.7305"/><text fill="#000000" font-family="sans-serif" font-size="11" lengthAdjust="spacing" text-decoration="underline" textLength="564" x="277" y="131.3652">getTimeOfCollision_AABB_AABB(A: AABB, velA: Vec2, B: Shape, velB: Vec2) : [Vec2, Vec2, boolean, boolean]</text><!--MD5=[6a27c20b92d3f9c7e017ccad1b71cd6d]
class AABB--><rect codeLine="15" fill="#FEFECE" filter="url(#f381mtbo9fs1y)" height="294.1465" id="AABB" style="stroke:#FF0000;stroke-width:1.5;" width="526" x="9" y="198"/><ellipse cx="252.75" cy="214" fill="#ADD1B2" rx="11" ry="11" style="stroke:#FF0000;stroke-width:1.0;"/><path d="M255.2231,220.1431 Q254.6421,220.4419 254.0029,220.5913 Q253.3638,220.7407 252.6582,220.7407 Q250.1514,220.7407 248.8315,219.0889 Q247.5117,217.437 247.5117,214.3159 Q247.5117,211.1865 248.8315,209.5347 Q250.1514,207.8828 252.6582,207.8828 Q253.3638,207.8828 254.0112,208.0322 Q254.6587,208.1816 255.2231,208.4805 L255.2231,211.2031 Q254.5923,210.6221 253.9988,210.3523 Q253.4053,210.0825 252.7744,210.0825 Q251.4297,210.0825 250.7449,211.1492 Q250.0601,212.2158 250.0601,214.3159 Q250.0601,216.4077 250.7449,217.4744 Q251.4297,218.541 252.7744,218.541 Q253.4053,218.541 253.9988,218.2712 Q254.5923,218.0015 255.2231,217.4204 Z " fill="#000000"/><text fill="#000000" font-family="sans-serif" font-size="12" lengthAdjust="spacing" textLength="30" x="273.25" y="218.5352">AABB</text><line style="stroke:#FF0000;stroke-width:1.5;" x1="10" x2="534" y1="230" y2="230"/><ellipse cx="20" cy="241" rx="3" ry="3" style="stroke:#038048;stroke-width:1.0;fill:none;"/><text fill="#000000" font-family="sans-serif" font-size="11" lengthAdjust="spacing" textLength="69" x="29" y="244.6348">center : Vec2</text><ellipse cx="20" cy="253.9551" rx="3" ry="3" style="stroke:#038048;stroke-width:1.0;fill:none;"/><text fill="#000000" font-family="sans-serif" font-size="11" lengthAdjust="spacing" textLength="76" x="29" y="257.5898">halfSize : Vec2</text><line style="stroke:#FF0000;stroke-width:1.5;" x1="10" x2="534" y1="263.9102" y2="263.9102"/><ellipse cx="20" cy="274.9102" fill="#84BE84" rx="3" ry="3" style="stroke:#038048;stroke-width:1.0;"/><text fill="#000000" font-family="sans-serif" font-size="11" lengthAdjust="spacing" textLength="74" x="29" y="278.5449">clone() : AABB</text><ellipse cx="20" cy="287.8652" fill="#84BE84" rx="3" ry="3" style="stroke:#038048;stroke-width:1.0;"/><text fill="#000000" font-family="sans-serif" font-size="11" lengthAdjust="spacing" textLength="193" x="29" y="291.5">containsPoint(point: Vec2) : boolean</text><ellipse cx="20" cy="300.8203" fill="#84BE84" rx="3" ry="3" style="stroke:#038048;stroke-width:1.0;"/><text fill="#000000" font-family="sans-serif" font-size="11" lengthAdjust="spacing" textLength="214" x="29" y="304.4551">containsPointSoft(point: Vec2) : boolean</text><ellipse cx="20" cy="313.7754" fill="#84BE84" rx="3" ry="3" style="stroke:#038048;stroke-width:1.0;"/><text fill="#000000" font-family="sans-serif" font-size="11" lengthAdjust="spacing" textLength="147" x="29" y="317.4102">getBoundingCircle() : Circle</text><ellipse cx="20" cy="326.7305" fill="#84BE84" rx="3" ry="3" style="stroke:#038048;stroke-width:1.0;"/><text fill="#000000" font-family="sans-serif" font-size="11" lengthAdjust="spacing" textLength="136" x="29" y="330.3652">getBoundingRect() : AABB</text><ellipse cx="20" cy="339.6855" fill="#84BE84" rx="3" ry="3" style="stroke:#038048;stroke-width:1.0;"/><text fill="#000000" font-family="sans-serif" font-size="11" lengthAdjust="spacing" textLength="102" x="29" y="343.3203">getHalfSize() : Vec2</text><ellipse cx="20" cy="352.6406" fill="#84BE84" rx="3" ry="3" style="stroke:#038048;stroke-width:1.0;"/><text fill="#000000" font-family="sans-serif" font-size="11" lengthAdjust="spacing" text-decoration="underline" textLength="500" x="29" y="356.2754">getTimeOfCollision(A: Shape, velA: Vec2, B: Shape, velB: Vec2) : [Vec2, Vec2, boolean, boolean]</text><ellipse cx="20" cy="365.5957" fill="#84BE84" rx="3" ry="3" style="stroke:#038048;stroke-width:1.0;"/><text fill="#000000" font-family="sans-serif" font-size="11" lengthAdjust="spacing" textLength="194" x="29" y="369.2305">intersectPoint(point: Vec2) : boolean</text><ellipse cx="20" cy="378.5508" fill="#84BE84" rx="3" ry="3" style="stroke:#038048;stroke-width:1.0;"/><text fill="#000000" font-family="sans-serif" font-size="11" lengthAdjust="spacing" textLength="331" x="29" y="382.1855">intersectSegment(point: Vec2, delta: Vec2, padding: Vec2) : Hit</text><ellipse cx="20" cy="391.5059" fill="#84BE84" rx="3" ry="3" style="stroke:#038048;stroke-width:1.0;"/><text fill="#000000" font-family="sans-serif" font-size="11" lengthAdjust="spacing" textLength="187" x="29" y="395.1406">overlapArea(other: AABB) : number</text><ellipse cx="20" cy="404.4609" fill="#84BE84" rx="3" ry="3" style="stroke:#038048;stroke-width:1.0;"/><text fill="#000000" font-family="sans-serif" font-size="11" lengthAdjust="spacing" textLength="173" x="29" y="408.0957">overlaps(other: Shape) : boolean</text><ellipse cx="20" cy="417.416" fill="#84BE84" rx="3" ry="3" style="stroke:#038048;stroke-width:1.0;"/><text fill="#000000" font-family="sans-serif" font-size="11" lengthAdjust="spacing" textLength="171" x="29" y="421.0508">setHalfSize(halfSize: Vec2) : void</text><ellipse cx="20" cy="430.3711" fill="#84BE84" rx="3" ry="3" style="stroke:#038048;stroke-width:1.0;"/><text fill="#000000" font-family="sans-serif" font-size="11" lengthAdjust="spacing" textLength="332" x="29" y="434.0059">sweep(velocity: Vec2, fromPosition: Vec2, halfSize: Vec2) : void</text><ellipse cx="20" cy="443.3262" fill="#84BE84" rx="3" ry="3" style="stroke:#038048;stroke-width:1.0;"/><text fill="#000000" font-family="sans-serif" font-size="11" lengthAdjust="spacing" textLength="92" x="29" y="446.9609">toString() : string</text><ellipse cx="20" cy="456.2813" fill="#84BE84" rx="3" ry="3" style="stroke:#038048;stroke-width:1.0;"/><text fill="#000000" font-family="sans-serif" font-size="11" lengthAdjust="spacing" textLength="177" x="29" y="459.916">touchesAABB(other: AABB) : Vec2</text><ellipse cx="20" cy="469.2363" fill="#84BE84" rx="3" ry="3" style="stroke:#038048;stroke-width:1.0;"/><text fill="#000000" font-family="sans-serif" font-size="11" lengthAdjust="spacing" textLength="262" x="29" y="472.8711">touchesAABBWithoutCorners(other: AABB) : Vec2</text><polygon fill="#FFFF44" points="20,477.1914,24,481.1914,20,485.1914,16,481.1914" style="stroke:#B38D22;stroke-width:1.0;"/><text fill="#000000" font-family="sans-serif" font-size="11" lengthAdjust="spacing" textLength="197" x="29" y="485.8262">overlapsAABB(other: AABB) : boolean</text><!--MD5=[a7f9118cae7621dd25d25149752faef0]
class Circle--><rect codeLine="37" fill="#FEFECE" filter="url(#f381mtbo9fs1y)" height="164.5957" id="Circle" style="stroke:#FF0000;stroke-width:1.5;" width="526" x="570" y="262.5"/><ellipse cx="812.75" cy="278.5" fill="#ADD1B2" rx="11" ry="11" style="stroke:#FF0000;stroke-width:1.0;"/><path d="M815.2231,284.6431 Q814.6421,284.9419 814.0029,285.0913 Q813.3638,285.2407 812.6582,285.2407 Q810.1514,285.2407 808.8315,283.5889 Q807.5117,281.937 807.5117,278.8159 Q807.5117,275.6865 808.8315,274.0347 Q810.1514,272.3828 812.6582,272.3828 Q813.3638,272.3828 814.0112,272.5322 Q814.6587,272.6816 815.2231,272.9805 L815.2231,275.7031 Q814.5923,275.1221 813.9988,274.8523 Q813.4053,274.5825 812.7744,274.5825 Q811.4297,274.5825 810.7449,275.6492 Q810.0601,276.7158 810.0601,278.8159 Q810.0601,280.9077 810.7449,281.9744 Q811.4297,283.041 812.7744,283.041 Q813.4053,283.041 813.9988,282.7712 Q814.5923,282.5015 815.2231,281.9204 Z " fill="#000000"/><text fill="#000000" font-family="sans-serif" font-size="12" lengthAdjust="spacing" textLength="32" x="833.25" y="283.0352">Circle</text><line style="stroke:#FF0000;stroke-width:1.5;" x1="571" x2="1095" y1="294.5" y2="294.5"/><ellipse cx="581" cy="305.5" rx="3" ry="3" style="stroke:#038048;stroke-width:1.0;fill:none;"/><text fill="#000000" font-family="sans-serif" font-size="11" lengthAdjust="spacing" textLength="85" x="590" y="309.1348">radius : number</text><rect fill="none" height="6" style="stroke:#C82930;stroke-width:1.0;" width="6" x="578" y="315.4551"/><text fill="#000000" font-family="sans-serif" font-size="11" lengthAdjust="spacing" textLength="75" x="590" y="322.0898">_center : Vec2</text><line style="stroke:#FF0000;stroke-width:1.5;" x1="571" x2="1095" y1="328.4102" y2="328.4102"/><ellipse cx="581" cy="339.4102" fill="#84BE84" rx="3" ry="3" style="stroke:#038048;stroke-width:1.0;"/><text fill="#000000" font-family="sans-serif" font-size="11" lengthAdjust="spacing" textLength="77" x="590" y="343.0449">clone() : Circle</text><ellipse cx="581" cy="352.3652" fill="#84BE84" rx="3" ry="3" style="stroke:#038048;stroke-width:1.0;"/><text fill="#000000" font-family="sans-serif" font-size="11" lengthAdjust="spacing" textLength="193" x="590" y="356">containsPoint(point: Vec2) : boolean</text><ellipse cx="581" cy="365.3203" fill="#84BE84" rx="3" ry="3" style="stroke:#038048;stroke-width:1.0;"/><text fill="#000000" font-family="sans-serif" font-size="11" lengthAdjust="spacing" textLength="147" x="590" y="368.9551">getBoundingCircle() : Circle</text><ellipse cx="581" cy="378.2754" fill="#84BE84" rx="3" ry="3" style="stroke:#038048;stroke-width:1.0;"/><text fill="#000000" font-family="sans-serif" font-size="11" lengthAdjust="spacing" textLength="136" x="590" y="381.9102">getBoundingRect() : AABB</text><ellipse cx="581" cy="391.2305" fill="#84BE84" rx="3" ry="3" style="stroke:#038048;stroke-width:1.0;"/><text fill="#000000" font-family="sans-serif" font-size="11" lengthAdjust="spacing" text-decoration="underline" textLength="500" x="590" y="394.8652">getTimeOfCollision(A: Shape, velA: Vec2, B: Shape, velB: Vec2) : [Vec2, Vec2, boolean, boolean]</text><ellipse cx="581" cy="404.1855" fill="#84BE84" rx="3" ry="3" style="stroke:#038048;stroke-width:1.0;"/><text fill="#000000" font-family="sans-serif" font-size="11" lengthAdjust="spacing" textLength="173" x="590" y="407.8203">overlaps(other: Shape) : boolean</text><ellipse cx="581" cy="417.1406" fill="#84BE84" rx="3" ry="3" style="stroke:#038048;stroke-width:1.0;"/><text fill="#000000" font-family="sans-serif" font-size="11" lengthAdjust="spacing" textLength="92" x="590" y="420.7754">toString() : string</text><!--MD5=[351ce946835daa7178fb606e6b9f9bff]
reverse link Shape to AABB--><path codeLine="36" d="M470.37,152.36 C455.41,166.81 439.38,182.3 423.14,197.99 " fill="none" id="Shape-backto-AABB" style="stroke:#FF0000;stroke-width:1.0;"/><polygon fill="none" points="465.69,147.15,484.93,138.29,475.41,157.22,465.69,147.15" style="stroke:#FF0000;stroke-width:1.0;"/><!--MD5=[d637a7d0c5b779627461b5a6979d5756]
reverse link Shape to Circle--><path codeLine="48" d="M633.76,152.21 C669.68,186.78 711.84,227.37 748.1,262.28 " fill="none" id="Shape-backto-Circle" style="stroke:#FF0000;stroke-width:1.0;"/><polygon fill="none" points="628.86,157.2,619.31,138.29,638.57,147.12,628.86,157.2" style="stroke:#FF0000;stroke-width:1.0;"/><!--MD5=[fb2a5655ca20ee265bdc2a487e1f5bde]
@startuml
skinparam ClassArrowColor #ff0000
skinparam ClassBorderColor #ff0000
skinparam BackgroundColor transparent
hide empty methods
hide empty fields
abstract class "Shape" {
    {abstract} +clone() : Shape
    {abstract} +containsPoint(point: Vec2) : boolean
    {abstract} +getBoundingCircle() : Circle
    {abstract} +getBoundingRect() : AABB
    {static} +getTimeOfCollision(A: Shape, velA: Vec2, B: Shape, velB: Vec2) : [Vec2, Vec2, boolean, boolean]
    {abstract} +overlaps(other: Shape) : boolean
    {static} -getTimeOfCollision_AABB_AABB(A: AABB, velA: Vec2, B: Shape, velB: Vec2) : [Vec2, Vec2, boolean, boolean]
}
class "AABB" {
    +center : Vec2
    +halfSize : Vec2
    +clone() : AABB
    +containsPoint(point: Vec2) : boolean
    +containsPointSoft(point: Vec2) : boolean
    +getBoundingCircle() : Circle
    +getBoundingRect() : AABB
    +getHalfSize() : Vec2
    {static} +getTimeOfCollision(A: Shape, velA: Vec2, B: Shape, velB: Vec2) : [Vec2, Vec2, boolean, boolean]
    +intersectPoint(point: Vec2) : boolean
    +intersectSegment(point: Vec2, delta: Vec2, padding: Vec2) : Hit
    +overlapArea(other: AABB) : number
    +overlaps(other: Shape) : boolean
    +setHalfSize(halfSize: Vec2) : void
    +sweep(velocity: Vec2, fromPosition: Vec2, halfSize: Vec2) : void
    +toString() : string
    +touchesAABB(other: AABB) : Vec2
    +touchesAABBWithoutCorners(other: AABB) : Vec2
    #overlapsAABB(other: AABB) : boolean
}
"Shape" <|- - "AABB"
class "Circle" {
    +radius : number
    -_center : Vec2
    +clone() : Circle
    +containsPoint(point: Vec2) : boolean
    +getBoundingCircle() : Circle
    +getBoundingRect() : AABB
    {static} +getTimeOfCollision(A: Shape, velA: Vec2, B: Shape, velB: Vec2) : [Vec2, Vec2, boolean, boolean]
    +overlaps(other: Shape) : boolean
    +toString() : string
}
"Shape" <|- - "Circle"
@enduml

PlantUML version 1.2021.14(Fri Nov 12 11:46:50 EST 2021)
(GPL source distribution)
Java Runtime: Java(TM) SE Runtime Environment
JVM: Java HotSpot(TM) 64-Bit Server VM
Default Encoding: UTF-8
Language: en
Country: US
--></g></svg>