<?xml version="1.0" encoding="UTF-8" standalone="no"?><svg xmlns="http://www.w3.org/2000/svg" xmlns:xlink="http://www.w3.org/1999/xlink" contentScriptType="application/ecmascript" contentStyleType="text/css" height="145px" preserveAspectRatio="none" style="width:110px;height:145px;background:#00000000;" version="1.1" viewBox="0 0 110 145" width="110px" zoomAndPan="magnify"><defs><filter height="300%" id="fuvi45j1xxewb" width="300%" x="-1" y="-1"><feGaussianBlur result="blurOut" stdDeviation="2.0"/><feColorMatrix in="blurOut" result="blurOut2" type="matrix" values="0 0 0 0 0 0 0 0 0 0 0 0 0 0 0 0 0 0 .4 0"/><feOffset dx="4.0" dy="4.0" in="blurOut2" result="blurOut3"/><feBlend in="SourceGraphic" in2="blurOut3" mode="normal"/></filter></defs><g><!--MD5=[5b63724585581d1714c92cb3ec182af9]
class Slider--><rect codeLine="6" fill="#FEFECE" filter="url(#fuvi45j1xxewb)" height="32" id="Slider" style="stroke:#FF0000;stroke-width:1.5;" width="64" x="19.5" y="99"/><ellipse cx="34.5" cy="115" fill="#ADD1B2" rx="11" ry="11" style="stroke:#FF0000;stroke-width:1.0;"/><path d="M36.9731,121.1431 Q36.3921,121.4419 35.7529,121.5913 Q35.1138,121.7407 34.4082,121.7407 Q31.9014,121.7407 30.5815,120.0889 Q29.2617,118.437 29.2617,115.3159 Q29.2617,112.1865 30.5815,110.5347 Q31.9014,108.8828 34.4082,108.8828 Q35.1138,108.8828 35.7612,109.0322 Q36.4087,109.1816 36.9731,109.4805 L36.9731,112.2031 Q36.3423,111.6221 35.7488,111.3523 Q35.1553,111.0825 34.5244,111.0825 Q33.1797,111.0825 32.4949,112.1492 Q31.8101,113.2158 31.8101,115.3159 Q31.8101,117.4077 32.4949,118.4744 Q33.1797,119.541 34.5244,119.541 Q35.1553,119.541 35.7488,119.2712 Q36.3423,119.0015 36.9731,118.4204 Z " fill="#000000"/><text fill="#000000" font-family="sans-serif" font-size="12" lengthAdjust="spacing" textLength="32" x="48.5" y="119.5352">Slider</text><!--MD5=[a49b7276910d6619e9702881d69ae75a]
class UIElement--><rect codeLine="8" fill="#FEFECE" filter="url(#fuvi45j1xxewb)" height="32" id="UIElement" style="stroke:#FF0000;stroke-width:1.5;" width="89" x="7" y="7"/><ellipse cx="22" cy="23" fill="#A9DCDF" rx="11" ry="11" style="stroke:#FF0000;stroke-width:1.0;"/><path d="M21.8633,18.3481 L20.7095,23.4199 L23.0254,23.4199 Z M20.3691,16.1069 L23.3657,16.1069 L26.7109,28.5 L24.2622,28.5 L23.4985,25.437 L20.2197,25.437 L19.4727,28.5 L17.0239,28.5 Z " fill="#000000"/><text fill="#000000" font-family="sans-serif" font-size="12" font-style="italic" lengthAdjust="spacing" textLength="57" x="36" y="27.5352">UIElement</text><!--MD5=[ea6870916ccb65937e93e5bbd5b34197]
reverse link UIElement to Slider--><path codeLine="10" d="M51.5,59.61 C51.5,73.31 51.5,88.22 51.5,98.96 " fill="none" id="UIElement-backto-Slider" style="stroke:#FF0000;stroke-width:1.0;"/><polygon fill="none" points="44.5,59.27,51.5,39.27,58.5,59.27,44.5,59.27" style="stroke:#FF0000;stroke-width:1.0;"/><!--MD5=[d10826fa48084bcee76665ff827344e3]
@startuml
skinparam ClassArrowColor #ff0000
skinparam ClassBorderColor #ff0000
skinparam BackgroundColor transparent
hide empty methods
hide empty fields
class "Slider" {
}
abstract class "UIElement" {
}
"UIElement" <|- - "Slider"
@enduml

PlantUML version 1.2021.14(Fri Nov 12 11:46:50 EST 2021)
(GPL source distribution)
Java Runtime: Java(TM) SE Runtime Environment
JVM: Java HotSpot(TM) 64-Bit Server VM
Default Encoding: UTF-8
Language: en
Country: US
--></g></svg>