<?xml version="1.0" encoding="UTF-8" standalone="no"?><svg xmlns="http://www.w3.org/2000/svg" xmlns:xlink="http://www.w3.org/1999/xlink" contentScriptType="application/ecmascript" contentStyleType="text/css" height="237px" preserveAspectRatio="none" style="width:141px;height:237px;background:#00000000;" version="1.1" viewBox="0 0 141 237" width="141px" zoomAndPan="magnify"><defs><filter height="300%" id="fkbzk5p6b8m11" width="300%" x="-1" y="-1"><feGaussianBlur result="blurOut" stdDeviation="2.0"/><feColorMatrix in="blurOut" result="blurOut2" type="matrix" values="0 0 0 0 0 0 0 0 0 0 0 0 0 0 0 0 0 0 .4 0"/><feOffset dx="4.0" dy="4.0" in="blurOut2" result="blurOut3"/><feBlend in="SourceGraphic" in2="blurOut3" mode="normal"/></filter></defs><g><!--MD5=[85c2ed8dbf494cb60783de624603a7dd]
class Sprite--><rect codeLine="6" fill="#FEFECE" filter="url(#fkbzk5p6b8m11)" height="32" id="Sprite" style="stroke:#FF0000;stroke-width:1.5;" width="65" x="34.5" y="99"/><ellipse cx="49.5" cy="115" fill="#ADD1B2" rx="11" ry="11" style="stroke:#FF0000;stroke-width:1.0;"/><path d="M51.9731,121.1431 Q51.3921,121.4419 50.7529,121.5913 Q50.1138,121.7407 49.4082,121.7407 Q46.9014,121.7407 45.5815,120.0889 Q44.2617,118.437 44.2617,115.3159 Q44.2617,112.1865 45.5815,110.5347 Q46.9014,108.8828 49.4082,108.8828 Q50.1138,108.8828 50.7612,109.0322 Q51.4087,109.1816 51.9731,109.4805 L51.9731,112.2031 Q51.3423,111.6221 50.7488,111.3523 Q50.1553,111.0825 49.5244,111.0825 Q48.1797,111.0825 47.4949,112.1492 Q46.8101,113.2158 46.8101,115.3159 Q46.8101,117.4077 47.4949,118.4744 Q48.1797,119.541 49.5244,119.541 Q50.1553,119.541 50.7488,119.2712 Q51.3423,119.0015 51.9731,118.4204 Z " fill="#000000"/><text fill="#000000" font-family="sans-serif" font-size="12" lengthAdjust="spacing" textLength="33" x="63.5" y="119.5352">Sprite</text><!--MD5=[2e70b9baf931f95a6b812c993ae5d283]
class CanvasNode--><rect codeLine="8" fill="#FEFECE" filter="url(#fkbzk5p6b8m11)" height="32" id="CanvasNode" style="stroke:#FF0000;stroke-width:1.5;" width="104" x="15" y="7"/><ellipse cx="30" cy="23" fill="#A9DCDF" rx="11" ry="11" style="stroke:#FF0000;stroke-width:1.0;"/><path d="M29.8633,18.3481 L28.7095,23.4199 L31.0254,23.4199 Z M28.3691,16.1069 L31.3657,16.1069 L34.7109,28.5 L32.2622,28.5 L31.4985,25.437 L28.2197,25.437 L27.4727,28.5 L25.0239,28.5 Z " fill="#000000"/><text fill="#000000" font-family="sans-serif" font-size="12" font-style="italic" lengthAdjust="spacing" textLength="72" x="44" y="27.5352">CanvasNode</text><!--MD5=[288382eacf2ecdd5e3362f03f07f6090]
class AnimatedSprite--><rect codeLine="11" fill="#FEFECE" filter="url(#fkbzk5p6b8m11)" height="32" id="AnimatedSprite" style="stroke:#FF0000;stroke-width:1.5;" width="120" x="7" y="191"/><ellipse cx="22" cy="207" fill="#ADD1B2" rx="11" ry="11" style="stroke:#FF0000;stroke-width:1.0;"/><path d="M24.4731,213.1431 Q23.8921,213.4419 23.2529,213.5913 Q22.6138,213.7407 21.9082,213.7407 Q19.4014,213.7407 18.0815,212.0889 Q16.7617,210.437 16.7617,207.3159 Q16.7617,204.1865 18.0815,202.5347 Q19.4014,200.8828 21.9082,200.8828 Q22.6138,200.8828 23.2612,201.0322 Q23.9087,201.1816 24.4731,201.4805 L24.4731,204.2031 Q23.8423,203.6221 23.2488,203.3523 Q22.6553,203.0825 22.0244,203.0825 Q20.6797,203.0825 19.9949,204.1492 Q19.3101,205.2158 19.3101,207.3159 Q19.3101,209.4077 19.9949,210.4744 Q20.6797,211.541 22.0244,211.541 Q22.6553,211.541 23.2488,211.2712 Q23.8423,211.0015 24.4731,210.4204 Z " fill="#000000"/><text fill="#000000" font-family="sans-serif" font-size="12" lengthAdjust="spacing" textLength="88" x="36" y="211.5352">AnimatedSprite</text><!--MD5=[ac1e2172c441ef3447e8a56f16d2940c]
reverse link CanvasNode to Sprite--><path codeLine="10" d="M67,59.61 C67,73.31 67,88.22 67,98.96 " fill="none" id="CanvasNode-backto-Sprite" style="stroke:#FF0000;stroke-width:1.0;"/><polygon fill="none" points="60,59.27,67,39.27,74,59.27,60,59.27" style="stroke:#FF0000;stroke-width:1.0;"/><!--MD5=[a8db93a174326cef329e858715e554ba]
reverse link Sprite to AnimatedSprite--><path codeLine="13" d="M67,151.61 C67,165.31 67,180.22 67,190.96 " fill="none" id="Sprite-backto-AnimatedSprite" style="stroke:#FF0000;stroke-width:1.0;"/><polygon fill="none" points="60,151.27,67,131.27,74,151.27,60,151.27" style="stroke:#FF0000;stroke-width:1.0;"/><!--MD5=[f43a4a0c4bdf0738e6d021ec7ea4f238]
@startuml
skinparam ClassArrowColor #ff0000
skinparam ClassBorderColor #ff0000
skinparam BackgroundColor transparent
hide empty methods
hide empty fields
class "Sprite" {
}
abstract class "CanvasNode" {
}
"CanvasNode" <|- - "Sprite"
class "AnimatedSprite" {
}
"Sprite" <|- - "AnimatedSprite"
@enduml

PlantUML version 1.2021.14(Fri Nov 12 11:46:50 EST 2021)
(GPL source distribution)
Java Runtime: Java(TM) SE Runtime Environment
JVM: Java HotSpot(TM) 64-Bit Server VM
Default Encoding: UTF-8
Language: en
Country: US
--></g></svg>