<?xml version="1.0" encoding="UTF-8" standalone="no"?><svg xmlns="http://www.w3.org/2000/svg" xmlns:xlink="http://www.w3.org/1999/xlink" contentScriptType="application/ecmascript" contentStyleType="text/css" height="145px" preserveAspectRatio="none" style="width:111px;height:145px;background:#00000000;" version="1.1" viewBox="0 0 111 145" width="111px" zoomAndPan="magnify"><defs><filter height="300%" id="fxsuhp2b250so" width="300%" x="-1" y="-1"><feGaussianBlur result="blurOut" stdDeviation="2.0"/><feColorMatrix in="blurOut" result="blurOut2" type="matrix" values="0 0 0 0 0 0 0 0 0 0 0 0 0 0 0 0 0 0 .4 0"/><feOffset dx="4.0" dy="4.0" in="blurOut2" result="blurOut3"/><feBlend in="SourceGraphic" in2="blurOut3" mode="normal"/></filter></defs><g><!--MD5=[fb7006540e733b1a9ab65208252ddbb8]
class Stack<T>--><rect codeLine="6" fill="#FEFECE" filter="url(#fxsuhp2b250so)" height="32" id="Stack&lt;T&gt;" style="stroke:#FF0000;stroke-width:1.5;" width="90" x="7" y="99"/><ellipse cx="22" cy="115" fill="#ADD1B2" rx="11" ry="11" style="stroke:#FF0000;stroke-width:1.0;"/><path d="M24.4731,121.1431 Q23.8921,121.4419 23.2529,121.5913 Q22.6138,121.7407 21.9082,121.7407 Q19.4014,121.7407 18.0815,120.0889 Q16.7617,118.437 16.7617,115.3159 Q16.7617,112.1865 18.0815,110.5347 Q19.4014,108.8828 21.9082,108.8828 Q22.6138,108.8828 23.2612,109.0322 Q23.9087,109.1816 24.4731,109.4805 L24.4731,112.2031 Q23.8423,111.6221 23.2488,111.3523 Q22.6553,111.0825 22.0244,111.0825 Q20.6797,111.0825 19.9949,112.1492 Q19.3101,113.2158 19.3101,115.3159 Q19.3101,117.4077 19.9949,118.4744 Q20.6797,119.541 22.0244,119.541 Q22.6553,119.541 23.2488,119.2712 Q23.8423,119.0015 24.4731,118.4204 Z " fill="#000000"/><text fill="#000000" font-family="sans-serif" font-size="12" lengthAdjust="spacing" textLength="58" x="36" y="119.5352">Stack&lt;T&gt;</text><!--MD5=[c160724f8e3bb89ca8141a12554ac2e3]
class Collection--><rect codeLine="8" fill="#FEFECE" filter="url(#fxsuhp2b250so)" height="32" id="Collection" style="stroke:#FF0000;stroke-width:1.5;" width="87" x="8.5" y="7"/><ellipse cx="23.5" cy="23" fill="#B4A7E5" rx="11" ry="11" style="stroke:#FF0000;stroke-width:1.0;"/><path d="M19.9277,19.2651 L19.9277,17.1069 L27.3071,17.1069 L27.3071,19.2651 L24.8418,19.2651 L24.8418,27.3418 L27.3071,27.3418 L27.3071,29.5 L19.9277,29.5 L19.9277,27.3418 L22.3931,27.3418 L22.3931,19.2651 Z " fill="#000000"/><text fill="#000000" font-family="sans-serif" font-size="12" font-style="italic" lengthAdjust="spacing" textLength="55" x="37.5" y="27.5352">Collection</text><!--MD5=[61f25ba62b4e6d47c88d6f463867a92a]
reverse link Collection to Stack<T>--><path codeLine="10" d="M52,59.61 C52,73.31 52,88.22 52,98.96 " fill="none" id="Collection-backto-Stack&lt;T&gt;" style="stroke:#FF0000;stroke-width:1.0;stroke-dasharray:7.0,7.0;"/><polygon fill="none" points="45,59.27,52,39.27,59,59.27,45,59.27" style="stroke:#FF0000;stroke-width:1.0;"/><!--MD5=[18ba7a7e7930412392b0ac7df68387f9]
@startuml
skinparam ClassArrowColor #ff0000
skinparam ClassBorderColor #ff0000
skinparam BackgroundColor transparent
hide empty methods
hide empty fields
class "Stack<T>" {
}
interface "Collection" {
}
"Collection" <|.. "Stack<T>"
@enduml

PlantUML version 1.2021.14(Fri Nov 12 11:46:50 EST 2021)
(GPL source distribution)
Java Runtime: Java(TM) SE Runtime Environment
JVM: Java HotSpot(TM) 64-Bit Server VM
Default Encoding: UTF-8
Language: en
Country: US
--></g></svg>