<?xml version="1.0" encoding="UTF-8" standalone="no"?><svg xmlns="http://www.w3.org/2000/svg" xmlns:xlink="http://www.w3.org/1999/xlink" contentScriptType="application/ecmascript" contentStyleType="text/css" height="643px" preserveAspectRatio="none" style="width:404px;height:643px;background:#00000000;" version="1.1" viewBox="0 0 404 643" width="404px" zoomAndPan="magnify"><defs><filter height="300%" id="f19iqt17valyol" width="300%" x="-1" y="-1"><feGaussianBlur result="blurOut" stdDeviation="2.0"/><feColorMatrix in="blurOut" result="blurOut2" type="matrix" values="0 0 0 0 0 0 0 0 0 0 0 0 0 0 0 0 0 0 .4 0"/><feOffset dx="4.0" dy="4.0" in="blurOut2" result="blurOut3"/><feBlend in="SourceGraphic" in2="blurOut3" mode="normal"/></filter></defs><g><!--MD5=[0cdd0e7ebd704d8f60acc0b0008ba0ae]
class StateMachineAI--><rect codeLine="6" fill="#FEFECE" filter="url(#f19iqt17valyol)" height="307.1016" id="StateMachineAI" style="stroke:#FF0000;stroke-width:1.5;" width="381" x="9" y="322"/><ellipse cx="152.25" cy="338" fill="#ADD1B2" rx="11" ry="11" style="stroke:#FF0000;stroke-width:1.0;"/><path d="M154.7231,344.1431 Q154.1421,344.4419 153.5029,344.5913 Q152.8638,344.7407 152.1582,344.7407 Q149.6514,344.7407 148.3315,343.0889 Q147.0117,341.437 147.0117,338.3159 Q147.0117,335.1865 148.3315,333.5347 Q149.6514,331.8828 152.1582,331.8828 Q152.8638,331.8828 153.5112,332.0322 Q154.1587,332.1816 154.7231,332.4805 L154.7231,335.2031 Q154.0923,334.6221 153.4988,334.3523 Q152.9053,334.0825 152.2744,334.0825 Q150.9297,334.0825 150.2449,335.1492 Q149.5601,336.2158 149.5601,338.3159 Q149.5601,340.4077 150.2449,341.4744 Q150.9297,342.541 152.2744,342.541 Q152.9053,342.541 153.4988,342.2712 Q154.0923,342.0015 154.7231,341.4204 Z " fill="#000000"/><text fill="#000000" font-family="sans-serif" font-size="12" lengthAdjust="spacing" textLength="86" x="172.75" y="342.5352">StateMachineAI</text><line style="stroke:#FF0000;stroke-width:1.5;" x1="10" x2="389" y1="354" y2="354"/><polygon fill="none" points="20,360,24,364,20,368,16,364" style="stroke:#B38D22;stroke-width:1.0;"/><text fill="#000000" font-family="sans-serif" font-size="11" lengthAdjust="spacing" textLength="83" x="29" y="368.6348">active : boolean</text><polygon fill="none" points="20,372.9551,24,376.9551,20,380.9551,16,376.9551" style="stroke:#B38D22;stroke-width:1.0;"/><text fill="#000000" font-family="sans-serif" font-size="11" lengthAdjust="spacing" textLength="101" x="29" y="381.5898">currentState : State</text><polygon fill="none" points="20,385.9102,24,389.9102,20,393.9102,16,389.9102" style="stroke:#B38D22;stroke-width:1.0;"/><text fill="#000000" font-family="sans-serif" font-size="11" lengthAdjust="spacing" textLength="187" x="29" y="394.5449">emitEventOnStateChange : boolean</text><polygon fill="none" points="20,398.8652,24,402.8652,20,406.8652,16,402.8652" style="stroke:#B38D22;stroke-width:1.0;"/><text fill="#000000" font-family="sans-serif" font-size="11" lengthAdjust="spacing" textLength="85" x="29" y="407.5">emitter : Emitter</text><polygon fill="none" points="20,411.8203,24,415.8203,20,419.8203,16,415.8203" style="stroke:#B38D22;stroke-width:1.0;"/><text fill="#000000" font-family="sans-serif" font-size="11" lengthAdjust="spacing" textLength="100" x="29" y="420.4551">owner : GameNode</text><polygon fill="none" points="20,424.7754,24,428.7754,20,432.7754,16,428.7754" style="stroke:#B38D22;stroke-width:1.0;"/><text fill="#000000" font-family="sans-serif" font-size="11" lengthAdjust="spacing" textLength="97" x="29" y="433.4102">receiver : Receiver</text><polygon fill="none" points="20,437.7305,24,441.7305,20,445.7305,16,441.7305" style="stroke:#B38D22;stroke-width:1.0;"/><text fill="#000000" font-family="sans-serif" font-size="11" lengthAdjust="spacing" textLength="109" x="29" y="446.3652">stack : Stack&lt;State&gt;</text><polygon fill="none" points="20,450.6855,24,454.6855,20,458.6855,16,454.6855" style="stroke:#B38D22;stroke-width:1.0;"/><text fill="#000000" font-family="sans-serif" font-size="11" lengthAdjust="spacing" textLength="167" x="29" y="459.3203">stateChangeEventName : string</text><polygon fill="none" points="20,463.6406,24,467.6406,20,471.6406,16,467.6406" style="stroke:#B38D22;stroke-width:1.0;"/><text fill="#000000" font-family="sans-serif" font-size="11" lengthAdjust="spacing" textLength="123" x="29" y="472.2754">stateMap : Map&lt;State&gt;</text><line style="stroke:#FF0000;stroke-width:1.5;" x1="10" x2="389" y1="478.5957" y2="478.5957"/><ellipse cx="20" cy="489.5957" fill="#84BE84" rx="3" ry="3" style="stroke:#038048;stroke-width:1.0;"/><text fill="#000000" font-family="sans-serif" font-size="11" lengthAdjust="spacing" textLength="241" x="29" y="493.2305">activate(options: Record&lt;string, any&gt;) : void</text><ellipse cx="20" cy="502.5508" fill="#84BE84" rx="3" ry="3" style="stroke:#038048;stroke-width:1.0;"/><text fill="#000000" font-family="sans-serif" font-size="11" lengthAdjust="spacing" textLength="244" x="29" y="506.1855">addState(stateName: string, state: State) : void</text><ellipse cx="20" cy="515.5059" fill="#84BE84" rx="3" ry="3" style="stroke:#038048;stroke-width:1.0;"/><text fill="#000000" font-family="sans-serif" font-size="11" lengthAdjust="spacing" textLength="209" x="29" y="519.1406">cancelEmitEventOnStateChange() : void</text><ellipse cx="20" cy="528.4609" fill="#84BE84" rx="3" ry="3" style="stroke:#038048;stroke-width:1.0;"/><text fill="#000000" font-family="sans-serif" font-size="11" lengthAdjust="spacing" textLength="169" x="29" y="532.0957">changeState(state: string) : void</text><ellipse cx="20" cy="541.416" fill="#84BE84" rx="3" ry="3" style="stroke:#038048;stroke-width:1.0;"/><text fill="#000000" font-family="sans-serif" font-size="11" lengthAdjust="spacing" textLength="81" x="29" y="545.0508">destroy() : void</text><ellipse cx="20" cy="554.3711" fill="#84BE84" rx="3" ry="3" style="stroke:#038048;stroke-width:1.0;"/><text fill="#000000" font-family="sans-serif" font-size="11" lengthAdjust="spacing" textLength="199" x="29" y="558.0059">handleEvent(event: GameEvent) : void</text><ellipse cx="20" cy="567.3262" fill="#84BE84" rx="3" ry="3" style="stroke:#038048;stroke-width:1.0;"/><text fill="#000000" font-family="sans-serif" font-size="11" lengthAdjust="spacing" textLength="343" x="29" y="570.9609">initialize(initialState: string, options: Record&lt;string, any&gt;) : void</text><ellipse cx="20" cy="580.2813" fill="#84BE84" rx="3" ry="3" style="stroke:#038048;stroke-width:1.0;"/><text fill="#000000" font-family="sans-serif" font-size="11" lengthAdjust="spacing" textLength="351" x="29" y="583.916">initializeAI(owner: GameNode, config: Record&lt;string, any&gt;) : void</text><ellipse cx="20" cy="593.2363" fill="#84BE84" rx="3" ry="3" style="stroke:#038048;stroke-width:1.0;"/><text fill="#000000" font-family="sans-serif" font-size="11" lengthAdjust="spacing" textLength="158" x="29" y="596.8711">setActive(flag: boolean) : void</text><ellipse cx="20" cy="606.1914" fill="#84BE84" rx="3" ry="3" style="stroke:#038048;stroke-width:1.0;"/><text fill="#000000" font-family="sans-serif" font-size="11" lengthAdjust="spacing" textLength="355" x="29" y="609.8262">setEmitEventOnStateChange(stateChangeEventName: string) : void</text><ellipse cx="20" cy="619.1465" fill="#84BE84" rx="3" ry="3" style="stroke:#038048;stroke-width:1.0;"/><text fill="#000000" font-family="sans-serif" font-size="11" lengthAdjust="spacing" textLength="158" x="29" y="622.7813">update(deltaT: number) : void</text><!--MD5=[3626c233e602113c8cf5977cfac9c02f]
class StateMachine--><rect codeLine="28" fill="#FEFECE" filter="url(#f19iqt17valyol)" height="255.2813" id="StateMachine" style="stroke:#FF0000;stroke-width:1.5;" width="381" x="9" y="7"/><ellipse cx="157.75" cy="23" fill="#ADD1B2" rx="11" ry="11" style="stroke:#FF0000;stroke-width:1.0;"/><path d="M160.2231,29.1431 Q159.6421,29.4419 159.0029,29.5913 Q158.3638,29.7407 157.6582,29.7407 Q155.1514,29.7407 153.8315,28.0889 Q152.5117,26.437 152.5117,23.3159 Q152.5117,20.1865 153.8315,18.5347 Q155.1514,16.8828 157.6582,16.8828 Q158.3638,16.8828 159.0112,17.0322 Q159.6587,17.1816 160.2231,17.4805 L160.2231,20.2031 Q159.5923,19.6221 158.9988,19.3523 Q158.4053,19.0825 157.7744,19.0825 Q156.4297,19.0825 155.7449,20.1492 Q155.0601,21.2158 155.0601,23.3159 Q155.0601,25.4077 155.7449,26.4744 Q156.4297,27.541 157.7744,27.541 Q158.4053,27.541 158.9988,27.2712 Q159.5923,27.0015 160.2231,26.4204 Z " fill="#000000"/><text fill="#000000" font-family="sans-serif" font-size="12" lengthAdjust="spacing" textLength="75" x="178.25" y="27.5352">StateMachine</text><line style="stroke:#FF0000;stroke-width:1.5;" x1="10" x2="389" y1="39" y2="39"/><polygon fill="none" points="20,45,24,49,20,53,16,49" style="stroke:#B38D22;stroke-width:1.0;"/><text fill="#000000" font-family="sans-serif" font-size="11" lengthAdjust="spacing" textLength="83" x="29" y="53.6348">active : boolean</text><polygon fill="none" points="20,57.9551,24,61.9551,20,65.9551,16,61.9551" style="stroke:#B38D22;stroke-width:1.0;"/><text fill="#000000" font-family="sans-serif" font-size="11" lengthAdjust="spacing" textLength="101" x="29" y="66.5898">currentState : State</text><polygon fill="none" points="20,70.9102,24,74.9102,20,78.9102,16,74.9102" style="stroke:#B38D22;stroke-width:1.0;"/><text fill="#000000" font-family="sans-serif" font-size="11" lengthAdjust="spacing" textLength="187" x="29" y="79.5449">emitEventOnStateChange : boolean</text><polygon fill="none" points="20,83.8652,24,87.8652,20,91.8652,16,87.8652" style="stroke:#B38D22;stroke-width:1.0;"/><text fill="#000000" font-family="sans-serif" font-size="11" lengthAdjust="spacing" textLength="85" x="29" y="92.5">emitter : Emitter</text><polygon fill="none" points="20,96.8203,24,100.8203,20,104.8203,16,100.8203" style="stroke:#B38D22;stroke-width:1.0;"/><text fill="#000000" font-family="sans-serif" font-size="11" lengthAdjust="spacing" textLength="97" x="29" y="105.4551">receiver : Receiver</text><polygon fill="none" points="20,109.7754,24,113.7754,20,117.7754,16,113.7754" style="stroke:#B38D22;stroke-width:1.0;"/><text fill="#000000" font-family="sans-serif" font-size="11" lengthAdjust="spacing" textLength="109" x="29" y="118.4102">stack : Stack&lt;State&gt;</text><polygon fill="none" points="20,122.7305,24,126.7305,20,130.7305,16,126.7305" style="stroke:#B38D22;stroke-width:1.0;"/><text fill="#000000" font-family="sans-serif" font-size="11" lengthAdjust="spacing" textLength="167" x="29" y="131.3652">stateChangeEventName : string</text><polygon fill="none" points="20,135.6855,24,139.6855,20,143.6855,16,139.6855" style="stroke:#B38D22;stroke-width:1.0;"/><text fill="#000000" font-family="sans-serif" font-size="11" lengthAdjust="spacing" textLength="123" x="29" y="144.3203">stateMap : Map&lt;State&gt;</text><line style="stroke:#FF0000;stroke-width:1.5;" x1="10" x2="389" y1="150.6406" y2="150.6406"/><ellipse cx="20" cy="161.6406" fill="#84BE84" rx="3" ry="3" style="stroke:#038048;stroke-width:1.0;"/><text fill="#000000" font-family="sans-serif" font-size="11" lengthAdjust="spacing" textLength="244" x="29" y="165.2754">addState(stateName: string, state: State) : void</text><ellipse cx="20" cy="174.5957" fill="#84BE84" rx="3" ry="3" style="stroke:#038048;stroke-width:1.0;"/><text fill="#000000" font-family="sans-serif" font-size="11" lengthAdjust="spacing" textLength="209" x="29" y="178.2305">cancelEmitEventOnStateChange() : void</text><ellipse cx="20" cy="187.5508" fill="#84BE84" rx="3" ry="3" style="stroke:#038048;stroke-width:1.0;"/><text fill="#000000" font-family="sans-serif" font-size="11" lengthAdjust="spacing" textLength="169" x="29" y="191.1855">changeState(state: string) : void</text><ellipse cx="20" cy="200.5059" fill="#84BE84" rx="3" ry="3" style="stroke:#038048;stroke-width:1.0;"/><text fill="#000000" font-family="sans-serif" font-size="11" lengthAdjust="spacing" textLength="199" x="29" y="204.1406">handleEvent(event: GameEvent) : void</text><ellipse cx="20" cy="213.4609" fill="#84BE84" rx="3" ry="3" style="stroke:#038048;stroke-width:1.0;"/><text fill="#000000" font-family="sans-serif" font-size="11" lengthAdjust="spacing" textLength="343" x="29" y="217.0957">initialize(initialState: string, options: Record&lt;string, any&gt;) : void</text><ellipse cx="20" cy="226.416" fill="#84BE84" rx="3" ry="3" style="stroke:#038048;stroke-width:1.0;"/><text fill="#000000" font-family="sans-serif" font-size="11" lengthAdjust="spacing" textLength="158" x="29" y="230.0508">setActive(flag: boolean) : void</text><ellipse cx="20" cy="239.3711" fill="#84BE84" rx="3" ry="3" style="stroke:#038048;stroke-width:1.0;"/><text fill="#000000" font-family="sans-serif" font-size="11" lengthAdjust="spacing" textLength="355" x="29" y="243.0059">setEmitEventOnStateChange(stateChangeEventName: string) : void</text><ellipse cx="20" cy="252.3262" fill="#84BE84" rx="3" ry="3" style="stroke:#038048;stroke-width:1.0;"/><text fill="#000000" font-family="sans-serif" font-size="11" lengthAdjust="spacing" textLength="158" x="29" y="255.9609">update(deltaT: number) : void</text><!--MD5=[8df072bc8d0febbe952f573e65e91354]
reverse link StateMachine to StateMachineAI--><path codeLine="46" d="M199.5,282.53 C199.5,295.58 199.5,308.81 199.5,321.9 " fill="none" id="StateMachine-backto-StateMachineAI" style="stroke:#FF0000;stroke-width:1.0;"/><polygon fill="none" points="192.5,282.21,199.5,262.21,206.5,282.21,192.5,282.21" style="stroke:#FF0000;stroke-width:1.0;"/><!--MD5=[90d93c0cbee99b770ed560828740b20d]
@startuml
skinparam ClassArrowColor #ff0000
skinparam ClassBorderColor #ff0000
skinparam BackgroundColor transparent
hide empty methods
hide empty fields
class "StateMachineAI" {
    #active : boolean
    #currentState : State
    #emitEventOnStateChange : boolean
    #emitter : Emitter
    #owner : GameNode
    #receiver : Receiver
    #stack : Stack<State>
    #stateChangeEventName : string
    #stateMap : Map<State>
    +activate(options: Record<string, any>) : void
    +addState(stateName: string, state: State) : void
    +cancelEmitEventOnStateChange() : void
    +changeState(state: string) : void
    +destroy() : void
    +handleEvent(event: GameEvent) : void
    +initialize(initialState: string, options: Record<string, any>) : void
    +initializeAI(owner: GameNode, config: Record<string, any>) : void
    +setActive(flag: boolean) : void
    +setEmitEventOnStateChange(stateChangeEventName: string) : void
    +update(deltaT: number) : void
}
class "StateMachine" {
    #active : boolean
    #currentState : State
    #emitEventOnStateChange : boolean
    #emitter : Emitter
    #receiver : Receiver
    #stack : Stack<State>
    #stateChangeEventName : string
    #stateMap : Map<State>
    +addState(stateName: string, state: State) : void
    +cancelEmitEventOnStateChange() : void
    +changeState(state: string) : void
    +handleEvent(event: GameEvent) : void
    +initialize(initialState: string, options: Record<string, any>) : void
    +setActive(flag: boolean) : void
    +setEmitEventOnStateChange(stateChangeEventName: string) : void
    +update(deltaT: number) : void
}
"StateMachine" <|- - "StateMachineAI"
@enduml

PlantUML version 1.2021.14(Fri Nov 12 11:46:50 EST 2021)
(GPL source distribution)
Java Runtime: Java(TM) SE Runtime Environment
JVM: Java HotSpot(TM) 64-Bit Server VM
Default Encoding: UTF-8
Language: en
Country: US
--></g></svg>