<?xml version="1.0" encoding="UTF-8" standalone="no"?><svg xmlns="http://www.w3.org/2000/svg" xmlns:xlink="http://www.w3.org/1999/xlink" contentScriptType="application/ecmascript" contentStyleType="text/css" height="145px" preserveAspectRatio="none" style="width:120px;height:145px;background:#00000000;" version="1.1" viewBox="0 0 120 145" width="120px" zoomAndPan="magnify"><defs><filter height="300%" id="f1o3p3txkpjyew" width="300%" x="-1" y="-1"><feGaussianBlur result="blurOut" stdDeviation="2.0"/><feColorMatrix in="blurOut" result="blurOut2" type="matrix" values="0 0 0 0 0 0 0 0 0 0 0 0 0 0 0 0 0 0 .4 0"/><feOffset dx="4.0" dy="4.0" in="blurOut2" result="blurOut3"/><feBlend in="SourceGraphic" in2="blurOut3" mode="normal"/></filter></defs><g><!--MD5=[60d6b92408f98aed8df94d5c6e04aa63]
class State--><rect codeLine="6" fill="#FEFECE" filter="url(#f1o3p3txkpjyew)" height="32" id="State" style="stroke:#FF0000;stroke-width:1.5;" width="60" x="26.5" y="99"/><ellipse cx="41.5" cy="115" fill="#A9DCDF" rx="11" ry="11" style="stroke:#FF0000;stroke-width:1.0;"/><path d="M41.3633,110.3481 L40.2095,115.4199 L42.5254,115.4199 Z M39.8691,108.1069 L42.8657,108.1069 L46.2109,120.5 L43.7622,120.5 L42.9985,117.437 L39.7197,117.437 L38.9727,120.5 L36.5239,120.5 Z " fill="#000000"/><text fill="#000000" font-family="sans-serif" font-size="12" font-style="italic" lengthAdjust="spacing" textLength="28" x="55.5" y="119.5352">State</text><!--MD5=[8336922478991a54f539d469b4e48cc0]
class Updateable--><rect codeLine="8" fill="#FEFECE" filter="url(#f1o3p3txkpjyew)" height="32" id="Updateable" style="stroke:#FF0000;stroke-width:1.5;" width="99" x="7" y="7"/><ellipse cx="22" cy="23" fill="#B4A7E5" rx="11" ry="11" style="stroke:#FF0000;stroke-width:1.0;"/><path d="M18.4277,19.2651 L18.4277,17.1069 L25.8071,17.1069 L25.8071,19.2651 L23.3418,19.2651 L23.3418,27.3418 L25.8071,27.3418 L25.8071,29.5 L18.4277,29.5 L18.4277,27.3418 L20.8931,27.3418 L20.8931,19.2651 Z " fill="#000000"/><text fill="#000000" font-family="sans-serif" font-size="12" font-style="italic" lengthAdjust="spacing" textLength="67" x="36" y="27.5352">Updateable</text><!--MD5=[e69b222742f49335ab86287f8b6feabb]
reverse link Updateable to State--><path codeLine="10" d="M56.5,59.61 C56.5,73.31 56.5,88.22 56.5,98.96 " fill="none" id="Updateable-backto-State" style="stroke:#FF0000;stroke-width:1.0;stroke-dasharray:7.0,7.0;"/><polygon fill="none" points="49.5,59.27,56.5,39.27,63.5,59.27,49.5,59.27" style="stroke:#FF0000;stroke-width:1.0;"/><!--MD5=[f182f1adf629426c24164893626bde8d]
@startuml
skinparam ClassArrowColor #ff0000
skinparam ClassBorderColor #ff0000
skinparam BackgroundColor transparent
hide empty methods
hide empty fields
abstract class "State" {
}
interface "Updateable" {
}
"Updateable" <|.. "State"
@enduml

PlantUML version 1.2021.14(Fri Nov 12 11:46:50 EST 2021)
(GPL source distribution)
Java Runtime: Java(TM) SE Runtime Environment
JVM: Java HotSpot(TM) 64-Bit Server VM
Default Encoding: UTF-8
Language: en
Country: US
--></g></svg>