<?xml version="1.0" encoding="UTF-8" standalone="no"?><svg xmlns="http://www.w3.org/2000/svg" xmlns:xlink="http://www.w3.org/1999/xlink" contentScriptType="application/ecmascript" contentStyleType="text/css" height="272px" preserveAspectRatio="none" style="width:291px;height:272px;background:#00000000;" version="1.1" viewBox="0 0 291 272" width="291px" zoomAndPan="magnify"><defs><filter height="300%" id="f1wkd9cbmy9tkp" width="300%" x="-1" y="-1"><feGaussianBlur result="blurOut" stdDeviation="2.0"/><feColorMatrix in="blurOut" result="blurOut2" type="matrix" values="0 0 0 0 0 0 0 0 0 0 0 0 0 0 0 0 0 0 .4 0"/><feOffset dx="4.0" dy="4.0" in="blurOut2" result="blurOut3"/><feBlend in="SourceGraphic" in2="blurOut3" mode="normal"/></filter></defs><g><!--MD5=[60d6b92408f98aed8df94d5c6e04aa63]
class State--><rect codeLine="6" fill="#FEFECE" filter="url(#f1wkd9cbmy9tkp)" height="138.6855" id="State" style="stroke:#FF0000;stroke-width:1.5;" width="268" x="9" y="120"/><ellipse cx="124.75" cy="136" fill="#A9DCDF" rx="11" ry="11" style="stroke:#FF0000;stroke-width:1.0;"/><path d="M124.6133,131.3481 L123.4595,136.4199 L125.7754,136.4199 Z M123.1191,129.1069 L126.1157,129.1069 L129.4609,141.5 L127.0122,141.5 L126.2485,138.437 L122.9697,138.437 L122.2227,141.5 L119.7739,141.5 Z " fill="#000000"/><text fill="#000000" font-family="sans-serif" font-size="12" font-style="italic" lengthAdjust="spacing" textLength="28" x="145.25" y="140.5352">State</text><line style="stroke:#FF0000;stroke-width:1.5;" x1="10" x2="276" y1="152" y2="152"/><polygon fill="none" points="20,158,24,162,20,166,16,162" style="stroke:#B38D22;stroke-width:1.0;"/><text fill="#000000" font-family="sans-serif" font-size="11" lengthAdjust="spacing" textLength="85" x="29" y="166.6348">emitter : Emitter</text><polygon fill="none" points="20,170.9551,24,174.9551,20,178.9551,16,174.9551" style="stroke:#B38D22;stroke-width:1.0;"/><text fill="#000000" font-family="sans-serif" font-size="11" lengthAdjust="spacing" textLength="114" x="29" y="179.5898">parent : StateMachine</text><line style="stroke:#FF0000;stroke-width:1.5;" x1="10" x2="276" y1="185.9102" y2="185.9102"/><ellipse cx="20" cy="196.9102" fill="#84BE84" rx="3" ry="3" style="stroke:#038048;stroke-width:1.0;"/><text fill="#000000" font-family="sans-serif" font-size="11" font-style="italic" lengthAdjust="spacing" textLength="198" x="29" y="200.5449">handleInput(event: GameEvent) : void</text><ellipse cx="20" cy="209.8652" fill="#84BE84" rx="3" ry="3" style="stroke:#038048;stroke-width:1.0;"/><text fill="#000000" font-family="sans-serif" font-size="11" font-style="italic" lengthAdjust="spacing" textLength="242" x="29" y="213.5">onEnter(options: Record&lt;string, any&gt;) : void</text><ellipse cx="20" cy="222.8203" fill="#84BE84" rx="3" ry="3" style="stroke:#038048;stroke-width:1.0;"/><text fill="#000000" font-family="sans-serif" font-size="11" font-style="italic" lengthAdjust="spacing" textLength="164" x="29" y="226.4551">onExit() : Record&lt;string, any&gt;</text><ellipse cx="20" cy="235.7754" fill="#84BE84" rx="3" ry="3" style="stroke:#038048;stroke-width:1.0;"/><text fill="#000000" font-family="sans-serif" font-size="11" font-style="italic" lengthAdjust="spacing" textLength="158" x="29" y="239.4102">update(deltaT: number) : void</text><polygon fill="#FFFF44" points="20,243.7305,24,247.7305,20,251.7305,16,247.7305" style="stroke:#B38D22;stroke-width:1.0;"/><text fill="#000000" font-family="sans-serif" font-size="11" lengthAdjust="spacing" textLength="177" x="29" y="252.3652">finished(stateName: string) : void</text><!--MD5=[8336922478991a54f539d469b4e48cc0]
class Updateable--><rect codeLine="15" fill="#FEFECE" filter="url(#f1wkd9cbmy9tkp)" height="52.9551" id="Updateable" style="stroke:#FF0000;stroke-width:1.5;" width="184" x="51" y="7"/><ellipse cx="105.25" cy="23" fill="#B4A7E5" rx="11" ry="11" style="stroke:#FF0000;stroke-width:1.0;"/><path d="M101.6777,19.2651 L101.6777,17.1069 L109.0571,17.1069 L109.0571,19.2651 L106.5918,19.2651 L106.5918,27.3418 L109.0571,27.3418 L109.0571,29.5 L101.6777,29.5 L101.6777,27.3418 L104.1431,27.3418 L104.1431,19.2651 Z " fill="#000000"/><text fill="#000000" font-family="sans-serif" font-size="12" font-style="italic" lengthAdjust="spacing" textLength="67" x="125.75" y="27.5352">Updateable</text><line style="stroke:#FF0000;stroke-width:1.5;" x1="52" x2="234" y1="39" y2="39"/><ellipse cx="62" cy="50" fill="#84BE84" rx="3" ry="3" style="stroke:#038048;stroke-width:1.0;"/><text fill="#000000" font-family="sans-serif" font-size="11" lengthAdjust="spacing" textLength="158" x="71" y="53.6348">update(deltaT: number) : void</text><!--MD5=[e69b222742f49335ab86287f8b6feabb]
reverse link Updateable to State--><path codeLine="18" d="M143,80.71 C143,93.01 143,106.56 143,119.78 " fill="none" id="Updateable-backto-State" style="stroke:#FF0000;stroke-width:1.0;stroke-dasharray:7.0,7.0;"/><polygon fill="none" points="136,80.28,143,60.28,150,80.28,136,80.28" style="stroke:#FF0000;stroke-width:1.0;"/><!--MD5=[2c5f23034e815cd554cdb2fbf6f3b6a4]
@startuml
skinparam ClassArrowColor #ff0000
skinparam ClassBorderColor #ff0000
skinparam BackgroundColor transparent
hide empty methods
hide empty fields
abstract class "State" {
    #emitter : Emitter
    #parent : StateMachine
    {abstract} +handleInput(event: GameEvent) : void
    {abstract} +onEnter(options: Record<string, any>) : void
    {abstract} +onExit() : Record<string, any>
    {abstract} +update(deltaT: number) : void
    #finished(stateName: string) : void
}
interface "Updateable" {
    +update(deltaT: number) : void
}
"Updateable" <|.. "State"
@enduml

PlantUML version 1.2021.14(Fri Nov 12 11:46:50 EST 2021)
(GPL source distribution)
Java Runtime: Java(TM) SE Runtime Environment
JVM: Java HotSpot(TM) 64-Bit Server VM
Default Encoding: UTF-8
Language: en
Country: US
--></g></svg>