<?xml version="1.0" encoding="UTF-8" standalone="no"?><svg xmlns="http://www.w3.org/2000/svg" xmlns:xlink="http://www.w3.org/1999/xlink" contentScriptType="application/ecmascript" contentStyleType="text/css" height="237px" preserveAspectRatio="none" style="width:323px;height:237px;background:#00000000;" version="1.1" viewBox="0 0 323 237" width="323px" zoomAndPan="magnify"><defs><filter height="300%" id="f7o4via0155vs" width="300%" x="-1" y="-1"><feGaussianBlur result="blurOut" stdDeviation="2.0"/><feColorMatrix in="blurOut" result="blurOut2" type="matrix" values="0 0 0 0 0 0 0 0 0 0 0 0 0 0 0 0 0 0 .4 0"/><feOffset dx="4.0" dy="4.0" in="blurOut2" result="blurOut3"/><feBlend in="SourceGraphic" in2="blurOut3" mode="normal"/></filter></defs><g><!--MD5=[3626c233e602113c8cf5977cfac9c02f]
class StateMachine--><rect codeLine="6" fill="#FEFECE" filter="url(#f7o4via0155vs)" height="32" id="StateMachine" style="stroke:#FF0000;stroke-width:1.5;" width="107" x="96.5" y="99"/><ellipse cx="111.5" cy="115" fill="#ADD1B2" rx="11" ry="11" style="stroke:#FF0000;stroke-width:1.0;"/><path d="M113.9731,121.1431 Q113.3921,121.4419 112.7529,121.5913 Q112.1138,121.7407 111.4082,121.7407 Q108.9014,121.7407 107.5815,120.0889 Q106.2617,118.437 106.2617,115.3159 Q106.2617,112.1865 107.5815,110.5347 Q108.9014,108.8828 111.4082,108.8828 Q112.1138,108.8828 112.7612,109.0322 Q113.4087,109.1816 113.9731,109.4805 L113.9731,112.2031 Q113.3423,111.6221 112.7488,111.3523 Q112.1553,111.0825 111.5244,111.0825 Q110.1797,111.0825 109.4949,112.1492 Q108.8101,113.2158 108.8101,115.3159 Q108.8101,117.4077 109.4949,118.4744 Q110.1797,119.541 111.5244,119.541 Q112.1553,119.541 112.7488,119.2712 Q113.3423,119.0015 113.9731,118.4204 Z " fill="#000000"/><text fill="#000000" font-family="sans-serif" font-size="12" lengthAdjust="spacing" textLength="75" x="125.5" y="119.5352">StateMachine</text><!--MD5=[8336922478991a54f539d469b4e48cc0]
class Updateable--><rect codeLine="8" fill="#FEFECE" filter="url(#f7o4via0155vs)" height="32" id="Updateable" style="stroke:#FF0000;stroke-width:1.5;" width="99" x="100.5" y="7"/><ellipse cx="115.5" cy="23" fill="#B4A7E5" rx="11" ry="11" style="stroke:#FF0000;stroke-width:1.0;"/><path d="M111.9277,19.2651 L111.9277,17.1069 L119.3071,17.1069 L119.3071,19.2651 L116.8418,19.2651 L116.8418,27.3418 L119.3071,27.3418 L119.3071,29.5 L111.9277,29.5 L111.9277,27.3418 L114.3931,27.3418 L114.3931,19.2651 Z " fill="#000000"/><text fill="#000000" font-family="sans-serif" font-size="12" font-style="italic" lengthAdjust="spacing" textLength="67" x="129.5" y="27.5352">Updateable</text><!--MD5=[0cdd0e7ebd704d8f60acc0b0008ba0ae]
class StateMachineAI--><rect codeLine="11" fill="#FEFECE" filter="url(#f7o4via0155vs)" height="32" id="StateMachineAI" style="stroke:#FF0000;stroke-width:1.5;" width="118" x="7" y="191"/><ellipse cx="22" cy="207" fill="#ADD1B2" rx="11" ry="11" style="stroke:#FF0000;stroke-width:1.0;"/><path d="M24.4731,213.1431 Q23.8921,213.4419 23.2529,213.5913 Q22.6138,213.7407 21.9082,213.7407 Q19.4014,213.7407 18.0815,212.0889 Q16.7617,210.437 16.7617,207.3159 Q16.7617,204.1865 18.0815,202.5347 Q19.4014,200.8828 21.9082,200.8828 Q22.6138,200.8828 23.2612,201.0322 Q23.9087,201.1816 24.4731,201.4805 L24.4731,204.2031 Q23.8423,203.6221 23.2488,203.3523 Q22.6553,203.0825 22.0244,203.0825 Q20.6797,203.0825 19.9949,204.1492 Q19.3101,205.2158 19.3101,207.3159 Q19.3101,209.4077 19.9949,210.4744 Q20.6797,211.541 22.0244,211.541 Q22.6553,211.541 23.2488,211.2712 Q23.8423,211.0015 24.4731,210.4204 Z " fill="#000000"/><text fill="#000000" font-family="sans-serif" font-size="12" lengthAdjust="spacing" textLength="86" x="36" y="211.5352">StateMachineAI</text><!--MD5=[211aa72133353d37f87d1079ee8085e3]
class StateMachineGoapAI--><rect codeLine="14" fill="#FEFECE" filter="url(#f7o4via0155vs)" height="32" id="StateMachineGoapAI" style="stroke:#FF0000;stroke-width:1.5;" width="149" x="160.5" y="191"/><ellipse cx="175.5" cy="207" fill="#ADD1B2" rx="11" ry="11" style="stroke:#FF0000;stroke-width:1.0;"/><path d="M177.9731,213.1431 Q177.3921,213.4419 176.7529,213.5913 Q176.1138,213.7407 175.4082,213.7407 Q172.9014,213.7407 171.5815,212.0889 Q170.2617,210.437 170.2617,207.3159 Q170.2617,204.1865 171.5815,202.5347 Q172.9014,200.8828 175.4082,200.8828 Q176.1138,200.8828 176.7612,201.0322 Q177.4087,201.1816 177.9731,201.4805 L177.9731,204.2031 Q177.3423,203.6221 176.7488,203.3523 Q176.1553,203.0825 175.5244,203.0825 Q174.1797,203.0825 173.4949,204.1492 Q172.8101,205.2158 172.8101,207.3159 Q172.8101,209.4077 173.4949,210.4744 Q174.1797,211.541 175.5244,211.541 Q176.1553,211.541 176.7488,211.2712 Q177.3423,211.0015 177.9731,210.4204 Z " fill="#000000"/><text fill="#000000" font-family="sans-serif" font-size="12" lengthAdjust="spacing" textLength="117" x="189.5" y="211.5352">StateMachineGoapAI</text><!--MD5=[3bc2cdcd3300b9dedc3e2850aa3bb253]
reverse link Updateable to StateMachine--><path codeLine="10" d="M150,59.61 C150,73.31 150,88.22 150,98.96 " fill="none" id="Updateable-backto-StateMachine" style="stroke:#FF0000;stroke-width:1.0;stroke-dasharray:7.0,7.0;"/><polygon fill="none" points="143,59.27,150,39.27,157,59.27,143,59.27" style="stroke:#FF0000;stroke-width:1.0;"/><!--MD5=[8df072bc8d0febbe952f573e65e91354]
reverse link StateMachine to StateMachineAI--><path codeLine="13" d="M121.77,146.25 C107.73,161.29 91.39,178.8 80.04,190.96 " fill="none" id="StateMachine-backto-StateMachineAI" style="stroke:#FF0000;stroke-width:1.0;"/><polygon fill="none" points="116.99,141.11,135.75,131.27,127.22,150.66,116.99,141.11" style="stroke:#FF0000;stroke-width:1.0;"/><!--MD5=[23639ed3241a153fcf2fe8084763e730]
reverse link StateMachine to StateMachineGoapAI--><path codeLine="16" d="M178.57,146.25 C192.77,161.29 209.31,178.8 220.79,190.96 " fill="none" id="StateMachine-backto-StateMachineGoapAI" style="stroke:#FF0000;stroke-width:1.0;"/><polygon fill="none" points="173.06,150.61,164.42,131.27,183.24,141,173.06,150.61" style="stroke:#FF0000;stroke-width:1.0;"/><!--MD5=[535466547802367db4f90e895f6a4f2c]
@startuml
skinparam ClassArrowColor #ff0000
skinparam ClassBorderColor #ff0000
skinparam BackgroundColor transparent
hide empty methods
hide empty fields
class "StateMachine" {
}
interface "Updateable" {
}
"Updateable" <|.. "StateMachine"
class "StateMachineAI" {
}
"StateMachine" <|- - "StateMachineAI"
class "StateMachineGoapAI" {
}
"StateMachine" <|- - "StateMachineGoapAI"
@enduml

PlantUML version 1.2021.14(Fri Nov 12 11:46:50 EST 2021)
(GPL source distribution)
Java Runtime: Java(TM) SE Runtime Environment
JVM: Java HotSpot(TM) 64-Bit Server VM
Default Encoding: UTF-8
Language: en
Country: US
--></g></svg>