<?xml version="1.0" encoding="UTF-8" standalone="no"?><svg xmlns="http://www.w3.org/2000/svg" xmlns:xlink="http://www.w3.org/1999/xlink" contentScriptType="application/ecmascript" contentStyleType="text/css" height="833px" preserveAspectRatio="none" style="width:820px;height:833px;background:#00000000;" version="1.1" viewBox="0 0 820 833" width="820px" zoomAndPan="magnify"><defs><filter height="300%" id="fxrsryv7wf9vu" width="300%" x="-1" y="-1"><feGaussianBlur result="blurOut" stdDeviation="2.0"/><feColorMatrix in="blurOut" result="blurOut2" type="matrix" values="0 0 0 0 0 0 0 0 0 0 0 0 0 0 0 0 0 0 .4 0"/><feOffset dx="4.0" dy="4.0" in="blurOut2" result="blurOut3"/><feBlend in="SourceGraphic" in2="blurOut3" mode="normal"/></filter></defs><g><!--MD5=[3626c233e602113c8cf5977cfac9c02f]
class StateMachine--><rect codeLine="6" fill="#FEFECE" filter="url(#fxrsryv7wf9vu)" height="255.2813" id="StateMachine" style="stroke:#FF0000;stroke-width:1.5;" width="381" x="217" y="120"/><ellipse cx="365.75" cy="136" fill="#ADD1B2" rx="11" ry="11" style="stroke:#FF0000;stroke-width:1.0;"/><path d="M368.2231,142.1431 Q367.6421,142.4419 367.0029,142.5913 Q366.3638,142.7407 365.6582,142.7407 Q363.1514,142.7407 361.8315,141.0889 Q360.5117,139.437 360.5117,136.3159 Q360.5117,133.1865 361.8315,131.5347 Q363.1514,129.8828 365.6582,129.8828 Q366.3638,129.8828 367.0112,130.0322 Q367.6587,130.1816 368.2231,130.4805 L368.2231,133.2031 Q367.5923,132.6221 366.9988,132.3523 Q366.4053,132.0825 365.7744,132.0825 Q364.4297,132.0825 363.7449,133.1492 Q363.0601,134.2158 363.0601,136.3159 Q363.0601,138.4077 363.7449,139.4744 Q364.4297,140.541 365.7744,140.541 Q366.4053,140.541 366.9988,140.2712 Q367.5923,140.0015 368.2231,139.4204 Z " fill="#000000"/><text fill="#000000" font-family="sans-serif" font-size="12" lengthAdjust="spacing" textLength="75" x="386.25" y="140.5352">StateMachine</text><line style="stroke:#FF0000;stroke-width:1.5;" x1="218" x2="597" y1="152" y2="152"/><polygon fill="none" points="228,158,232,162,228,166,224,162" style="stroke:#B38D22;stroke-width:1.0;"/><text fill="#000000" font-family="sans-serif" font-size="11" lengthAdjust="spacing" textLength="83" x="237" y="166.6348">active : boolean</text><polygon fill="none" points="228,170.9551,232,174.9551,228,178.9551,224,174.9551" style="stroke:#B38D22;stroke-width:1.0;"/><text fill="#000000" font-family="sans-serif" font-size="11" lengthAdjust="spacing" textLength="101" x="237" y="179.5898">currentState : State</text><polygon fill="none" points="228,183.9102,232,187.9102,228,191.9102,224,187.9102" style="stroke:#B38D22;stroke-width:1.0;"/><text fill="#000000" font-family="sans-serif" font-size="11" lengthAdjust="spacing" textLength="187" x="237" y="192.5449">emitEventOnStateChange : boolean</text><polygon fill="none" points="228,196.8652,232,200.8652,228,204.8652,224,200.8652" style="stroke:#B38D22;stroke-width:1.0;"/><text fill="#000000" font-family="sans-serif" font-size="11" lengthAdjust="spacing" textLength="85" x="237" y="205.5">emitter : Emitter</text><polygon fill="none" points="228,209.8203,232,213.8203,228,217.8203,224,213.8203" style="stroke:#B38D22;stroke-width:1.0;"/><text fill="#000000" font-family="sans-serif" font-size="11" lengthAdjust="spacing" textLength="97" x="237" y="218.4551">receiver : Receiver</text><polygon fill="none" points="228,222.7754,232,226.7754,228,230.7754,224,226.7754" style="stroke:#B38D22;stroke-width:1.0;"/><text fill="#000000" font-family="sans-serif" font-size="11" lengthAdjust="spacing" textLength="109" x="237" y="231.4102">stack : Stack&lt;State&gt;</text><polygon fill="none" points="228,235.7305,232,239.7305,228,243.7305,224,239.7305" style="stroke:#B38D22;stroke-width:1.0;"/><text fill="#000000" font-family="sans-serif" font-size="11" lengthAdjust="spacing" textLength="167" x="237" y="244.3652">stateChangeEventName : string</text><polygon fill="none" points="228,248.6855,232,252.6855,228,256.6855,224,252.6855" style="stroke:#B38D22;stroke-width:1.0;"/><text fill="#000000" font-family="sans-serif" font-size="11" lengthAdjust="spacing" textLength="123" x="237" y="257.3203">stateMap : Map&lt;State&gt;</text><line style="stroke:#FF0000;stroke-width:1.5;" x1="218" x2="597" y1="263.6406" y2="263.6406"/><ellipse cx="228" cy="274.6406" fill="#84BE84" rx="3" ry="3" style="stroke:#038048;stroke-width:1.0;"/><text fill="#000000" font-family="sans-serif" font-size="11" lengthAdjust="spacing" textLength="244" x="237" y="278.2754">addState(stateName: string, state: State) : void</text><ellipse cx="228" cy="287.5957" fill="#84BE84" rx="3" ry="3" style="stroke:#038048;stroke-width:1.0;"/><text fill="#000000" font-family="sans-serif" font-size="11" lengthAdjust="spacing" textLength="209" x="237" y="291.2305">cancelEmitEventOnStateChange() : void</text><ellipse cx="228" cy="300.5508" fill="#84BE84" rx="3" ry="3" style="stroke:#038048;stroke-width:1.0;"/><text fill="#000000" font-family="sans-serif" font-size="11" lengthAdjust="spacing" textLength="169" x="237" y="304.1855">changeState(state: string) : void</text><ellipse cx="228" cy="313.5059" fill="#84BE84" rx="3" ry="3" style="stroke:#038048;stroke-width:1.0;"/><text fill="#000000" font-family="sans-serif" font-size="11" lengthAdjust="spacing" textLength="199" x="237" y="317.1406">handleEvent(event: GameEvent) : void</text><ellipse cx="228" cy="326.4609" fill="#84BE84" rx="3" ry="3" style="stroke:#038048;stroke-width:1.0;"/><text fill="#000000" font-family="sans-serif" font-size="11" lengthAdjust="spacing" textLength="343" x="237" y="330.0957">initialize(initialState: string, options: Record&lt;string, any&gt;) : void</text><ellipse cx="228" cy="339.416" fill="#84BE84" rx="3" ry="3" style="stroke:#038048;stroke-width:1.0;"/><text fill="#000000" font-family="sans-serif" font-size="11" lengthAdjust="spacing" textLength="158" x="237" y="343.0508">setActive(flag: boolean) : void</text><ellipse cx="228" cy="352.3711" fill="#84BE84" rx="3" ry="3" style="stroke:#038048;stroke-width:1.0;"/><text fill="#000000" font-family="sans-serif" font-size="11" lengthAdjust="spacing" textLength="355" x="237" y="356.0059">setEmitEventOnStateChange(stateChangeEventName: string) : void</text><ellipse cx="228" cy="365.3262" fill="#84BE84" rx="3" ry="3" style="stroke:#038048;stroke-width:1.0;"/><text fill="#000000" font-family="sans-serif" font-size="11" lengthAdjust="spacing" textLength="158" x="237" y="368.9609">update(deltaT: number) : void</text><!--MD5=[8336922478991a54f539d469b4e48cc0]
class Updateable--><rect codeLine="24" fill="#FEFECE" filter="url(#fxrsryv7wf9vu)" height="52.9551" id="Updateable" style="stroke:#FF0000;stroke-width:1.5;" width="184" x="315.5" y="7"/><ellipse cx="369.75" cy="23" fill="#B4A7E5" rx="11" ry="11" style="stroke:#FF0000;stroke-width:1.0;"/><path d="M366.1777,19.2651 L366.1777,17.1069 L373.5571,17.1069 L373.5571,19.2651 L371.0918,19.2651 L371.0918,27.3418 L373.5571,27.3418 L373.5571,29.5 L366.1777,29.5 L366.1777,27.3418 L368.6431,27.3418 L368.6431,19.2651 Z " fill="#000000"/><text fill="#000000" font-family="sans-serif" font-size="12" font-style="italic" lengthAdjust="spacing" textLength="67" x="390.25" y="27.5352">Updateable</text><line style="stroke:#FF0000;stroke-width:1.5;" x1="316.5" x2="498.5" y1="39" y2="39"/><ellipse cx="326.5" cy="50" fill="#84BE84" rx="3" ry="3" style="stroke:#038048;stroke-width:1.0;"/><text fill="#000000" font-family="sans-serif" font-size="11" lengthAdjust="spacing" textLength="158" x="335.5" y="53.6348">update(deltaT: number) : void</text><!--MD5=[0cdd0e7ebd704d8f60acc0b0008ba0ae]
class StateMachineAI--><rect codeLine="28" fill="#FEFECE" filter="url(#fxrsryv7wf9vu)" height="307.1016" id="StateMachineAI" style="stroke:#FF0000;stroke-width:1.5;" width="381" x="9" y="474"/><ellipse cx="152.25" cy="490" fill="#ADD1B2" rx="11" ry="11" style="stroke:#FF0000;stroke-width:1.0;"/><path d="M154.7231,496.1431 Q154.1421,496.4419 153.5029,496.5913 Q152.8638,496.7407 152.1582,496.7407 Q149.6514,496.7407 148.3315,495.0889 Q147.0117,493.437 147.0117,490.3159 Q147.0117,487.1865 148.3315,485.5347 Q149.6514,483.8828 152.1582,483.8828 Q152.8638,483.8828 153.5112,484.0322 Q154.1587,484.1816 154.7231,484.4805 L154.7231,487.2031 Q154.0923,486.6221 153.4988,486.3523 Q152.9053,486.0825 152.2744,486.0825 Q150.9297,486.0825 150.2449,487.1492 Q149.5601,488.2158 149.5601,490.3159 Q149.5601,492.4077 150.2449,493.4744 Q150.9297,494.541 152.2744,494.541 Q152.9053,494.541 153.4988,494.2712 Q154.0923,494.0015 154.7231,493.4204 Z " fill="#000000"/><text fill="#000000" font-family="sans-serif" font-size="12" lengthAdjust="spacing" textLength="86" x="172.75" y="494.5352">StateMachineAI</text><line style="stroke:#FF0000;stroke-width:1.5;" x1="10" x2="389" y1="506" y2="506"/><polygon fill="none" points="20,512,24,516,20,520,16,516" style="stroke:#B38D22;stroke-width:1.0;"/><text fill="#000000" font-family="sans-serif" font-size="11" lengthAdjust="spacing" textLength="83" x="29" y="520.6348">active : boolean</text><polygon fill="none" points="20,524.9551,24,528.9551,20,532.9551,16,528.9551" style="stroke:#B38D22;stroke-width:1.0;"/><text fill="#000000" font-family="sans-serif" font-size="11" lengthAdjust="spacing" textLength="101" x="29" y="533.5898">currentState : State</text><polygon fill="none" points="20,537.9102,24,541.9102,20,545.9102,16,541.9102" style="stroke:#B38D22;stroke-width:1.0;"/><text fill="#000000" font-family="sans-serif" font-size="11" lengthAdjust="spacing" textLength="187" x="29" y="546.5449">emitEventOnStateChange : boolean</text><polygon fill="none" points="20,550.8652,24,554.8652,20,558.8652,16,554.8652" style="stroke:#B38D22;stroke-width:1.0;"/><text fill="#000000" font-family="sans-serif" font-size="11" lengthAdjust="spacing" textLength="85" x="29" y="559.5">emitter : Emitter</text><polygon fill="none" points="20,563.8203,24,567.8203,20,571.8203,16,567.8203" style="stroke:#B38D22;stroke-width:1.0;"/><text fill="#000000" font-family="sans-serif" font-size="11" lengthAdjust="spacing" textLength="100" x="29" y="572.4551">owner : GameNode</text><polygon fill="none" points="20,576.7754,24,580.7754,20,584.7754,16,580.7754" style="stroke:#B38D22;stroke-width:1.0;"/><text fill="#000000" font-family="sans-serif" font-size="11" lengthAdjust="spacing" textLength="97" x="29" y="585.4102">receiver : Receiver</text><polygon fill="none" points="20,589.7305,24,593.7305,20,597.7305,16,593.7305" style="stroke:#B38D22;stroke-width:1.0;"/><text fill="#000000" font-family="sans-serif" font-size="11" lengthAdjust="spacing" textLength="109" x="29" y="598.3652">stack : Stack&lt;State&gt;</text><polygon fill="none" points="20,602.6855,24,606.6855,20,610.6855,16,606.6855" style="stroke:#B38D22;stroke-width:1.0;"/><text fill="#000000" font-family="sans-serif" font-size="11" lengthAdjust="spacing" textLength="167" x="29" y="611.3203">stateChangeEventName : string</text><polygon fill="none" points="20,615.6406,24,619.6406,20,623.6406,16,619.6406" style="stroke:#B38D22;stroke-width:1.0;"/><text fill="#000000" font-family="sans-serif" font-size="11" lengthAdjust="spacing" textLength="123" x="29" y="624.2754">stateMap : Map&lt;State&gt;</text><line style="stroke:#FF0000;stroke-width:1.5;" x1="10" x2="389" y1="630.5957" y2="630.5957"/><ellipse cx="20" cy="641.5957" fill="#84BE84" rx="3" ry="3" style="stroke:#038048;stroke-width:1.0;"/><text fill="#000000" font-family="sans-serif" font-size="11" lengthAdjust="spacing" textLength="241" x="29" y="645.2305">activate(options: Record&lt;string, any&gt;) : void</text><ellipse cx="20" cy="654.5508" fill="#84BE84" rx="3" ry="3" style="stroke:#038048;stroke-width:1.0;"/><text fill="#000000" font-family="sans-serif" font-size="11" lengthAdjust="spacing" textLength="244" x="29" y="658.1855">addState(stateName: string, state: State) : void</text><ellipse cx="20" cy="667.5059" fill="#84BE84" rx="3" ry="3" style="stroke:#038048;stroke-width:1.0;"/><text fill="#000000" font-family="sans-serif" font-size="11" lengthAdjust="spacing" textLength="209" x="29" y="671.1406">cancelEmitEventOnStateChange() : void</text><ellipse cx="20" cy="680.4609" fill="#84BE84" rx="3" ry="3" style="stroke:#038048;stroke-width:1.0;"/><text fill="#000000" font-family="sans-serif" font-size="11" lengthAdjust="spacing" textLength="169" x="29" y="684.0957">changeState(state: string) : void</text><ellipse cx="20" cy="693.416" fill="#84BE84" rx="3" ry="3" style="stroke:#038048;stroke-width:1.0;"/><text fill="#000000" font-family="sans-serif" font-size="11" lengthAdjust="spacing" textLength="81" x="29" y="697.0508">destroy() : void</text><ellipse cx="20" cy="706.3711" fill="#84BE84" rx="3" ry="3" style="stroke:#038048;stroke-width:1.0;"/><text fill="#000000" font-family="sans-serif" font-size="11" lengthAdjust="spacing" textLength="199" x="29" y="710.0059">handleEvent(event: GameEvent) : void</text><ellipse cx="20" cy="719.3262" fill="#84BE84" rx="3" ry="3" style="stroke:#038048;stroke-width:1.0;"/><text fill="#000000" font-family="sans-serif" font-size="11" lengthAdjust="spacing" textLength="343" x="29" y="722.9609">initialize(initialState: string, options: Record&lt;string, any&gt;) : void</text><ellipse cx="20" cy="732.2813" fill="#84BE84" rx="3" ry="3" style="stroke:#038048;stroke-width:1.0;"/><text fill="#000000" font-family="sans-serif" font-size="11" lengthAdjust="spacing" textLength="351" x="29" y="735.916">initializeAI(owner: GameNode, config: Record&lt;string, any&gt;) : void</text><ellipse cx="20" cy="745.2363" fill="#84BE84" rx="3" ry="3" style="stroke:#038048;stroke-width:1.0;"/><text fill="#000000" font-family="sans-serif" font-size="11" lengthAdjust="spacing" textLength="158" x="29" y="748.8711">setActive(flag: boolean) : void</text><ellipse cx="20" cy="758.1914" fill="#84BE84" rx="3" ry="3" style="stroke:#038048;stroke-width:1.0;"/><text fill="#000000" font-family="sans-serif" font-size="11" lengthAdjust="spacing" textLength="355" x="29" y="761.8262">setEmitEventOnStateChange(stateChangeEventName: string) : void</text><ellipse cx="20" cy="771.1465" fill="#84BE84" rx="3" ry="3" style="stroke:#038048;stroke-width:1.0;"/><text fill="#000000" font-family="sans-serif" font-size="11" lengthAdjust="spacing" textLength="158" x="29" y="774.7813">update(deltaT: number) : void</text><!--MD5=[211aa72133353d37f87d1079ee8085e3]
class StateMachineGoapAI--><rect codeLine="51" fill="#FEFECE" filter="url(#fxrsryv7wf9vu)" height="384.832" id="StateMachineGoapAI" style="stroke:#FF0000;stroke-width:1.5;" width="381" x="425" y="435"/><ellipse cx="552.75" cy="451" fill="#ADD1B2" rx="11" ry="11" style="stroke:#FF0000;stroke-width:1.0;"/><path d="M555.2231,457.1431 Q554.6421,457.4419 554.0029,457.5913 Q553.3638,457.7407 552.6582,457.7407 Q550.1514,457.7407 548.8315,456.0889 Q547.5117,454.437 547.5117,451.3159 Q547.5117,448.1865 548.8315,446.5347 Q550.1514,444.8828 552.6582,444.8828 Q553.3638,444.8828 554.0112,445.0322 Q554.6587,445.1816 555.2231,445.4805 L555.2231,448.2031 Q554.5923,447.6221 553.9988,447.3523 Q553.4053,447.0825 552.7744,447.0825 Q551.4297,447.0825 550.7449,448.1492 Q550.0601,449.2158 550.0601,451.3159 Q550.0601,453.4077 550.7449,454.4744 Q551.4297,455.541 552.7744,455.541 Q553.4053,455.541 553.9988,455.2712 Q554.5923,455.0015 555.2231,454.4204 Z " fill="#000000"/><text fill="#000000" font-family="sans-serif" font-size="12" lengthAdjust="spacing" textLength="117" x="573.25" y="455.5352">StateMachineGoapAI</text><line style="stroke:#FF0000;stroke-width:1.5;" x1="426" x2="805" y1="467" y2="467"/><ellipse cx="436" cy="478" rx="3" ry="3" style="stroke:#038048;stroke-width:1.0;fill:none;"/><text fill="#000000" font-family="sans-serif" font-size="11" lengthAdjust="spacing" textLength="122" x="445" y="481.6348">currentStatus : string[]</text><ellipse cx="436" cy="490.9551" rx="3" ry="3" style="stroke:#038048;stroke-width:1.0;fill:none;"/><text fill="#000000" font-family="sans-serif" font-size="11" lengthAdjust="spacing" textLength="64" x="445" y="494.5898">goal : string</text><ellipse cx="436" cy="503.9102" rx="3" ry="3" style="stroke:#038048;stroke-width:1.0;fill:none;"/><text fill="#000000" font-family="sans-serif" font-size="11" lengthAdjust="spacing" textLength="141" x="445" y="507.5449">plan : Stack&lt;GoapAction&gt;</text><ellipse cx="436" cy="516.8652" rx="3" ry="3" style="stroke:#038048;stroke-width:1.0;fill:none;"/><text fill="#000000" font-family="sans-serif" font-size="11" lengthAdjust="spacing" textLength="153" x="445" y="520.5">planner : GoapActionPlanner</text><ellipse cx="436" cy="529.8203" rx="3" ry="3" style="stroke:#038048;stroke-width:1.0;fill:none;"/><text fill="#000000" font-family="sans-serif" font-size="11" lengthAdjust="spacing" textLength="166" x="445" y="533.4551">possibleActions : GoapAction[]</text><polygon fill="none" points="436,537.7754,440,541.7754,436,545.7754,432,541.7754" style="stroke:#B38D22;stroke-width:1.0;"/><text fill="#000000" font-family="sans-serif" font-size="11" lengthAdjust="spacing" textLength="83" x="445" y="546.4102">active : boolean</text><polygon fill="none" points="436,550.7305,440,554.7305,436,558.7305,432,554.7305" style="stroke:#B38D22;stroke-width:1.0;"/><text fill="#000000" font-family="sans-serif" font-size="11" lengthAdjust="spacing" textLength="101" x="445" y="559.3652">currentState : State</text><polygon fill="none" points="436,563.6855,440,567.6855,436,571.6855,432,567.6855" style="stroke:#B38D22;stroke-width:1.0;"/><text fill="#000000" font-family="sans-serif" font-size="11" lengthAdjust="spacing" textLength="187" x="445" y="572.3203">emitEventOnStateChange : boolean</text><polygon fill="none" points="436,576.6406,440,580.6406,436,584.6406,432,580.6406" style="stroke:#B38D22;stroke-width:1.0;"/><text fill="#000000" font-family="sans-serif" font-size="11" lengthAdjust="spacing" textLength="85" x="445" y="585.2754">emitter : Emitter</text><polygon fill="none" points="436,589.5957,440,593.5957,436,597.5957,432,593.5957" style="stroke:#B38D22;stroke-width:1.0;"/><text fill="#000000" font-family="sans-serif" font-size="11" lengthAdjust="spacing" textLength="100" x="445" y="598.2305">owner : GameNode</text><polygon fill="none" points="436,602.5508,440,606.5508,436,610.5508,432,606.5508" style="stroke:#B38D22;stroke-width:1.0;"/><text fill="#000000" font-family="sans-serif" font-size="11" lengthAdjust="spacing" textLength="97" x="445" y="611.1855">receiver : Receiver</text><polygon fill="none" points="436,615.5059,440,619.5059,436,623.5059,432,619.5059" style="stroke:#B38D22;stroke-width:1.0;"/><text fill="#000000" font-family="sans-serif" font-size="11" lengthAdjust="spacing" textLength="109" x="445" y="624.1406">stack : Stack&lt;State&gt;</text><polygon fill="none" points="436,628.4609,440,632.4609,436,636.4609,432,632.4609" style="stroke:#B38D22;stroke-width:1.0;"/><text fill="#000000" font-family="sans-serif" font-size="11" lengthAdjust="spacing" textLength="167" x="445" y="637.0957">stateChangeEventName : string</text><polygon fill="none" points="436,641.416,440,645.416,436,649.416,432,645.416" style="stroke:#B38D22;stroke-width:1.0;"/><text fill="#000000" font-family="sans-serif" font-size="11" lengthAdjust="spacing" textLength="123" x="445" y="650.0508">stateMap : Map&lt;State&gt;</text><line style="stroke:#FF0000;stroke-width:1.5;" x1="426" x2="805" y1="656.3711" y2="656.3711"/><ellipse cx="436" cy="667.3711" fill="#84BE84" rx="3" ry="3" style="stroke:#038048;stroke-width:1.0;"/><text fill="#000000" font-family="sans-serif" font-size="11" lengthAdjust="spacing" textLength="241" x="445" y="671.0059">activate(options: Record&lt;string, any&gt;) : void</text><ellipse cx="436" cy="680.3262" fill="#84BE84" rx="3" ry="3" style="stroke:#038048;stroke-width:1.0;"/><text fill="#000000" font-family="sans-serif" font-size="11" lengthAdjust="spacing" textLength="244" x="445" y="683.9609">addState(stateName: string, state: State) : void</text><ellipse cx="436" cy="693.2813" fill="#84BE84" rx="3" ry="3" style="stroke:#038048;stroke-width:1.0;"/><text fill="#000000" font-family="sans-serif" font-size="11" lengthAdjust="spacing" textLength="209" x="445" y="696.916">cancelEmitEventOnStateChange() : void</text><ellipse cx="436" cy="706.2363" fill="#84BE84" rx="3" ry="3" style="stroke:#038048;stroke-width:1.0;"/><text fill="#000000" font-family="sans-serif" font-size="11" lengthAdjust="spacing" textLength="164" x="445" y="709.8711">changeGoal(goal: string) : void</text><ellipse cx="436" cy="719.1914" fill="#84BE84" rx="3" ry="3" style="stroke:#038048;stroke-width:1.0;"/><text fill="#000000" font-family="sans-serif" font-size="11" lengthAdjust="spacing" textLength="169" x="445" y="722.8262">changeState(state: string) : void</text><ellipse cx="436" cy="732.1465" fill="#84BE84" rx="3" ry="3" style="stroke:#038048;stroke-width:1.0;"/><text fill="#000000" font-family="sans-serif" font-size="11" lengthAdjust="spacing" textLength="81" x="445" y="735.7813">destroy() : void</text><ellipse cx="436" cy="745.1016" fill="#84BE84" rx="3" ry="3" style="stroke:#038048;stroke-width:1.0;"/><text fill="#000000" font-family="sans-serif" font-size="11" lengthAdjust="spacing" textLength="199" x="445" y="748.7363">handleEvent(event: GameEvent) : void</text><ellipse cx="436" cy="758.0566" fill="#84BE84" rx="3" ry="3" style="stroke:#038048;stroke-width:1.0;"/><text fill="#000000" font-family="sans-serif" font-size="11" lengthAdjust="spacing" textLength="343" x="445" y="761.6914">initialize(initialState: string, options: Record&lt;string, any&gt;) : void</text><ellipse cx="436" cy="771.0117" fill="#84BE84" rx="3" ry="3" style="stroke:#038048;stroke-width:1.0;"/><text fill="#000000" font-family="sans-serif" font-size="11" lengthAdjust="spacing" textLength="351" x="445" y="774.6465">initializeAI(owner: GameNode, config: Record&lt;string, any&gt;) : void</text><ellipse cx="436" cy="783.9668" fill="#84BE84" rx="3" ry="3" style="stroke:#038048;stroke-width:1.0;"/><text fill="#000000" font-family="sans-serif" font-size="11" lengthAdjust="spacing" textLength="158" x="445" y="787.6016">setActive(flag: boolean) : void</text><ellipse cx="436" cy="796.9219" fill="#84BE84" rx="3" ry="3" style="stroke:#038048;stroke-width:1.0;"/><text fill="#000000" font-family="sans-serif" font-size="11" lengthAdjust="spacing" textLength="355" x="445" y="800.5566">setEmitEventOnStateChange(stateChangeEventName: string) : void</text><ellipse cx="436" cy="809.877" fill="#84BE84" rx="3" ry="3" style="stroke:#038048;stroke-width:1.0;"/><text fill="#000000" font-family="sans-serif" font-size="11" lengthAdjust="spacing" textLength="158" x="445" y="813.5117">update(deltaT: number) : void</text><!--MD5=[3bc2cdcd3300b9dedc3e2850aa3bb253]
reverse link Updateable to StateMachine--><path codeLine="27" d="M407.5,80.28 C407.5,92.21 407.5,105.67 407.5,119.64 " fill="none" id="Updateable-backto-StateMachine" style="stroke:#FF0000;stroke-width:1.0;stroke-dasharray:7.0,7.0;"/><polygon fill="none" points="400.5,80.07,407.5,60.07,414.5,80.07,400.5,80.07" style="stroke:#FF0000;stroke-width:1.0;"/><!--MD5=[8df072bc8d0febbe952f573e65e91354]
reverse link StateMachine to StateMachineAI--><path codeLine="50" d="M328.08,392.83 C313.49,419.34 298.22,447.09 283.51,473.83 " fill="none" id="StateMachine-backto-StateMachineAI" style="stroke:#FF0000;stroke-width:1.0;"/><polygon fill="none" points="322.03,389.3,337.81,375.16,334.3,396.05,322.03,389.3" style="stroke:#FF0000;stroke-width:1.0;"/><!--MD5=[23639ed3241a153fcf2fe8084763e730]
reverse link StateMachine to StateMachineGoapAI--><path codeLine="79" d="M486.99,392.95 C494.53,406.65 502.25,420.69 509.98,434.74 " fill="none" id="StateMachine-backto-StateMachineGoapAI" style="stroke:#FF0000;stroke-width:1.0;"/><polygon fill="none" points="480.7,396.05,477.19,375.16,492.97,389.3,480.7,396.05" style="stroke:#FF0000;stroke-width:1.0;"/><!--MD5=[b30ccb80072cf0e7b561e5bbc0ee6240]
@startuml
skinparam ClassArrowColor #ff0000
skinparam ClassBorderColor #ff0000
skinparam BackgroundColor transparent
hide empty methods
hide empty fields
class "StateMachine" {
    #active : boolean
    #currentState : State
    #emitEventOnStateChange : boolean
    #emitter : Emitter
    #receiver : Receiver
    #stack : Stack<State>
    #stateChangeEventName : string
    #stateMap : Map<State>
    +addState(stateName: string, state: State) : void
    +cancelEmitEventOnStateChange() : void
    +changeState(state: string) : void
    +handleEvent(event: GameEvent) : void
    +initialize(initialState: string, options: Record<string, any>) : void
    +setActive(flag: boolean) : void
    +setEmitEventOnStateChange(stateChangeEventName: string) : void
    +update(deltaT: number) : void
}
interface "Updateable" {
    +update(deltaT: number) : void
}
"Updateable" <|.. "StateMachine"
class "StateMachineAI" {
    #active : boolean
    #currentState : State
    #emitEventOnStateChange : boolean
    #emitter : Emitter
    #owner : GameNode
    #receiver : Receiver
    #stack : Stack<State>
    #stateChangeEventName : string
    #stateMap : Map<State>
    +activate(options: Record<string, any>) : void
    +addState(stateName: string, state: State) : void
    +cancelEmitEventOnStateChange() : void
    +changeState(state: string) : void
    +destroy() : void
    +handleEvent(event: GameEvent) : void
    +initialize(initialState: string, options: Record<string, any>) : void
    +initializeAI(owner: GameNode, config: Record<string, any>) : void
    +setActive(flag: boolean) : void
    +setEmitEventOnStateChange(stateChangeEventName: string) : void
    +update(deltaT: number) : void
}
"StateMachine" <|- - "StateMachineAI"
class "StateMachineGoapAI" {
    +currentStatus : string[]
    +goal : string
    +plan : Stack<GoapAction>
    +planner : GoapActionPlanner
    +possibleActions : GoapAction[]
    #active : boolean
    #currentState : State
    #emitEventOnStateChange : boolean
    #emitter : Emitter
    #owner : GameNode
    #receiver : Receiver
    #stack : Stack<State>
    #stateChangeEventName : string
    #stateMap : Map<State>
    +activate(options: Record<string, any>) : void
    +addState(stateName: string, state: State) : void
    +cancelEmitEventOnStateChange() : void
    +changeGoal(goal: string) : void
    +changeState(state: string) : void
    +destroy() : void
    +handleEvent(event: GameEvent) : void
    +initialize(initialState: string, options: Record<string, any>) : void
    +initializeAI(owner: GameNode, config: Record<string, any>) : void
    +setActive(flag: boolean) : void
    +setEmitEventOnStateChange(stateChangeEventName: string) : void
    +update(deltaT: number) : void
}
"StateMachine" <|- - "StateMachineGoapAI"
@enduml

PlantUML version 1.2021.14(Fri Nov 12 11:46:50 EST 2021)
(GPL source distribution)
Java Runtime: Java(TM) SE Runtime Environment
JVM: Java HotSpot(TM) 64-Bit Server VM
Default Encoding: UTF-8
Language: en
Country: US
--></g></svg>