<?xml version="1.0" encoding="UTF-8" standalone="no"?><svg xmlns="http://www.w3.org/2000/svg" xmlns:xlink="http://www.w3.org/1999/xlink" contentScriptType="application/ecmascript" contentStyleType="text/css" height="145px" preserveAspectRatio="none" style="width:139px;height:145px;background:#00000000;" version="1.1" viewBox="0 0 139 145" width="139px" zoomAndPan="magnify"><defs><filter height="300%" id="fp0lt8sjpouiv" width="300%" x="-1" y="-1"><feGaussianBlur result="blurOut" stdDeviation="2.0"/><feColorMatrix in="blurOut" result="blurOut2" type="matrix" values="0 0 0 0 0 0 0 0 0 0 0 0 0 0 0 0 0 0 .4 0"/><feOffset dx="4.0" dy="4.0" in="blurOut2" result="blurOut3"/><feBlend in="SourceGraphic" in2="blurOut3" mode="normal"/></filter></defs><g><!--MD5=[0cdd0e7ebd704d8f60acc0b0008ba0ae]
class StateMachineAI--><rect codeLine="6" fill="#FEFECE" filter="url(#fp0lt8sjpouiv)" height="32" id="StateMachineAI" style="stroke:#FF0000;stroke-width:1.5;" width="118" x="7" y="99"/><ellipse cx="22" cy="115" fill="#ADD1B2" rx="11" ry="11" style="stroke:#FF0000;stroke-width:1.0;"/><path d="M24.4731,121.1431 Q23.8921,121.4419 23.2529,121.5913 Q22.6138,121.7407 21.9082,121.7407 Q19.4014,121.7407 18.0815,120.0889 Q16.7617,118.437 16.7617,115.3159 Q16.7617,112.1865 18.0815,110.5347 Q19.4014,108.8828 21.9082,108.8828 Q22.6138,108.8828 23.2612,109.0322 Q23.9087,109.1816 24.4731,109.4805 L24.4731,112.2031 Q23.8423,111.6221 23.2488,111.3523 Q22.6553,111.0825 22.0244,111.0825 Q20.6797,111.0825 19.9949,112.1492 Q19.3101,113.2158 19.3101,115.3159 Q19.3101,117.4077 19.9949,118.4744 Q20.6797,119.541 22.0244,119.541 Q22.6553,119.541 23.2488,119.2712 Q23.8423,119.0015 24.4731,118.4204 Z " fill="#000000"/><text fill="#000000" font-family="sans-serif" font-size="12" lengthAdjust="spacing" textLength="86" x="36" y="119.5352">StateMachineAI</text><!--MD5=[3626c233e602113c8cf5977cfac9c02f]
class StateMachine--><rect codeLine="8" fill="#FEFECE" filter="url(#fp0lt8sjpouiv)" height="32" id="StateMachine" style="stroke:#FF0000;stroke-width:1.5;" width="107" x="12.5" y="7"/><ellipse cx="27.5" cy="23" fill="#ADD1B2" rx="11" ry="11" style="stroke:#FF0000;stroke-width:1.0;"/><path d="M29.9731,29.1431 Q29.3921,29.4419 28.7529,29.5913 Q28.1138,29.7407 27.4082,29.7407 Q24.9014,29.7407 23.5815,28.0889 Q22.2617,26.437 22.2617,23.3159 Q22.2617,20.1865 23.5815,18.5347 Q24.9014,16.8828 27.4082,16.8828 Q28.1138,16.8828 28.7612,17.0322 Q29.4087,17.1816 29.9731,17.4805 L29.9731,20.2031 Q29.3423,19.6221 28.7488,19.3523 Q28.1553,19.0825 27.5244,19.0825 Q26.1797,19.0825 25.4949,20.1492 Q24.8101,21.2158 24.8101,23.3159 Q24.8101,25.4077 25.4949,26.4744 Q26.1797,27.541 27.5244,27.541 Q28.1553,27.541 28.7488,27.2712 Q29.3423,27.0015 29.9731,26.4204 Z " fill="#000000"/><text fill="#000000" font-family="sans-serif" font-size="12" lengthAdjust="spacing" textLength="75" x="41.5" y="27.5352">StateMachine</text><!--MD5=[8df072bc8d0febbe952f573e65e91354]
reverse link StateMachine to StateMachineAI--><path codeLine="10" d="M66,59.61 C66,73.31 66,88.22 66,98.96 " fill="none" id="StateMachine-backto-StateMachineAI" style="stroke:#FF0000;stroke-width:1.0;"/><polygon fill="none" points="59,59.27,66,39.27,73,59.27,59,59.27" style="stroke:#FF0000;stroke-width:1.0;"/><!--MD5=[23d48532fcb1b518bdfc7f08b86ef0b7]
@startuml
skinparam ClassArrowColor #ff0000
skinparam ClassBorderColor #ff0000
skinparam BackgroundColor transparent
hide empty methods
hide empty fields
class "StateMachineAI" {
}
class "StateMachine" {
}
"StateMachine" <|- - "StateMachineAI"
@enduml

PlantUML version 1.2021.14(Fri Nov 12 11:46:50 EST 2021)
(GPL source distribution)
Java Runtime: Java(TM) SE Runtime Environment
JVM: Java HotSpot(TM) 64-Bit Server VM
Default Encoding: UTF-8
Language: en
Country: US
--></g></svg>