<?xml version="1.0" encoding="UTF-8" standalone="no"?><svg xmlns="http://www.w3.org/2000/svg" xmlns:xlink="http://www.w3.org/1999/xlink" contentScriptType="application/ecmascript" contentStyleType="text/css" height="145px" preserveAspectRatio="none" style="width:108px;height:145px;background:#00000000;" version="1.1" viewBox="0 0 108 145" width="108px" zoomAndPan="magnify"><defs><filter height="300%" id="fmd10f12pw5uf" width="300%" x="-1" y="-1"><feGaussianBlur result="blurOut" stdDeviation="2.0"/><feColorMatrix in="blurOut" result="blurOut2" type="matrix" values="0 0 0 0 0 0 0 0 0 0 0 0 0 0 0 0 0 0 .4 0"/><feOffset dx="4.0" dy="4.0" in="blurOut2" result="blurOut3"/><feBlend in="SourceGraphic" in2="blurOut3" mode="normal"/></filter></defs><g><!--MD5=[fcea0092393042f826e3b3f0c822b801]
class TextInput--><rect codeLine="6" fill="#FEFECE" filter="url(#fmd10f12pw5uf)" height="32" id="TextInput" style="stroke:#FF0000;stroke-width:1.5;" width="87" x="7" y="99"/><ellipse cx="22" cy="115" fill="#ADD1B2" rx="11" ry="11" style="stroke:#FF0000;stroke-width:1.0;"/><path d="M24.4731,121.1431 Q23.8921,121.4419 23.2529,121.5913 Q22.6138,121.7407 21.9082,121.7407 Q19.4014,121.7407 18.0815,120.0889 Q16.7617,118.437 16.7617,115.3159 Q16.7617,112.1865 18.0815,110.5347 Q19.4014,108.8828 21.9082,108.8828 Q22.6138,108.8828 23.2612,109.0322 Q23.9087,109.1816 24.4731,109.4805 L24.4731,112.2031 Q23.8423,111.6221 23.2488,111.3523 Q22.6553,111.0825 22.0244,111.0825 Q20.6797,111.0825 19.9949,112.1492 Q19.3101,113.2158 19.3101,115.3159 Q19.3101,117.4077 19.9949,118.4744 Q20.6797,119.541 22.0244,119.541 Q22.6553,119.541 23.2488,119.2712 Q23.8423,119.0015 24.4731,118.4204 Z " fill="#000000"/><text fill="#000000" font-family="sans-serif" font-size="12" lengthAdjust="spacing" textLength="55" x="36" y="119.5352">TextInput</text><!--MD5=[e84c991d4d3bbf916ee1653c86a9249d]
class Label--><rect codeLine="8" fill="#FEFECE" filter="url(#fmd10f12pw5uf)" height="32" id="Label" style="stroke:#FF0000;stroke-width:1.5;" width="63" x="19" y="7"/><ellipse cx="34" cy="23" fill="#ADD1B2" rx="11" ry="11" style="stroke:#FF0000;stroke-width:1.0;"/><path d="M36.4731,29.1431 Q35.8921,29.4419 35.2529,29.5913 Q34.6138,29.7407 33.9082,29.7407 Q31.4014,29.7407 30.0815,28.0889 Q28.7617,26.437 28.7617,23.3159 Q28.7617,20.1865 30.0815,18.5347 Q31.4014,16.8828 33.9082,16.8828 Q34.6138,16.8828 35.2612,17.0322 Q35.9087,17.1816 36.4731,17.4805 L36.4731,20.2031 Q35.8423,19.6221 35.2488,19.3523 Q34.6553,19.0825 34.0244,19.0825 Q32.6797,19.0825 31.9949,20.1492 Q31.3101,21.2158 31.3101,23.3159 Q31.3101,25.4077 31.9949,26.4744 Q32.6797,27.541 34.0244,27.541 Q34.6553,27.541 35.2488,27.2712 Q35.8423,27.0015 36.4731,26.4204 Z " fill="#000000"/><text fill="#000000" font-family="sans-serif" font-size="12" lengthAdjust="spacing" textLength="31" x="48" y="27.5352">Label</text><!--MD5=[c76cb81d8ca0421b9314a47e227d6e62]
reverse link Label to TextInput--><path codeLine="10" d="M50.5,59.61 C50.5,73.31 50.5,88.22 50.5,98.96 " fill="none" id="Label-backto-TextInput" style="stroke:#FF0000;stroke-width:1.0;"/><polygon fill="none" points="43.5,59.27,50.5,39.27,57.5,59.27,43.5,59.27" style="stroke:#FF0000;stroke-width:1.0;"/><!--MD5=[ad40a7c52cc0cb8e7cbe056da03bae07]
@startuml
skinparam ClassArrowColor #ff0000
skinparam ClassBorderColor #ff0000
skinparam BackgroundColor transparent
hide empty methods
hide empty fields
class "TextInput" {
}
class "Label" {
}
"Label" <|- - "TextInput"
@enduml

PlantUML version 1.2021.14(Fri Nov 12 11:46:50 EST 2021)
(GPL source distribution)
Java Runtime: Java(TM) SE Runtime Environment
JVM: Java HotSpot(TM) 64-Bit Server VM
Default Encoding: UTF-8
Language: en
Country: US
--></g></svg>