<?xml version="1.0" encoding="UTF-8" standalone="no"?><svg xmlns="http://www.w3.org/2000/svg" xmlns:xlink="http://www.w3.org/1999/xlink" contentScriptType="application/ecmascript" contentStyleType="text/css" height="237px" preserveAspectRatio="none" style="width:163px;height:237px;background:#00000000;" version="1.1" viewBox="0 0 163 237" width="163px" zoomAndPan="magnify"><defs><filter height="300%" id="f1kt1bpvkhmb9g" width="300%" x="-1" y="-1"><feGaussianBlur result="blurOut" stdDeviation="2.0"/><feColorMatrix in="blurOut" result="blurOut2" type="matrix" values="0 0 0 0 0 0 0 0 0 0 0 0 0 0 0 0 0 0 .4 0"/><feOffset dx="4.0" dy="4.0" in="blurOut2" result="blurOut3"/><feBlend in="SourceGraphic" in2="blurOut3" mode="normal"/></filter></defs><g><!--MD5=[7364a416b8b32844308807b3cb580f4a]
class Tilemap--><rect codeLine="6" fill="#FEFECE" filter="url(#f1kt1bpvkhmb9g)" height="32" id="Tilemap" style="stroke:#FF0000;stroke-width:1.5;" width="79" x="38.5" y="99"/><ellipse cx="53.5" cy="115" fill="#A9DCDF" rx="11" ry="11" style="stroke:#FF0000;stroke-width:1.0;"/><path d="M53.3633,110.3481 L52.2095,115.4199 L54.5254,115.4199 Z M51.8691,108.1069 L54.8657,108.1069 L58.2109,120.5 L55.7622,120.5 L54.9985,117.437 L51.7197,117.437 L50.9727,120.5 L48.5239,120.5 Z " fill="#000000"/><text fill="#000000" font-family="sans-serif" font-size="12" font-style="italic" lengthAdjust="spacing" textLength="47" x="67.5" y="119.5352">Tilemap</text><!--MD5=[2e70b9baf931f95a6b812c993ae5d283]
class CanvasNode--><rect codeLine="8" fill="#FEFECE" filter="url(#f1kt1bpvkhmb9g)" height="32" id="CanvasNode" style="stroke:#FF0000;stroke-width:1.5;" width="104" x="26" y="7"/><ellipse cx="41" cy="23" fill="#A9DCDF" rx="11" ry="11" style="stroke:#FF0000;stroke-width:1.0;"/><path d="M40.8633,18.3481 L39.7095,23.4199 L42.0254,23.4199 Z M39.3691,16.1069 L42.3657,16.1069 L45.7109,28.5 L43.2622,28.5 L42.4985,25.437 L39.2197,25.437 L38.4727,28.5 L36.0239,28.5 Z " fill="#000000"/><text fill="#000000" font-family="sans-serif" font-size="12" font-style="italic" lengthAdjust="spacing" textLength="72" x="55" y="27.5352">CanvasNode</text><!--MD5=[e2fbf275ce3af306358fb45da218f007]
class OrthogonalTilemap--><rect codeLine="11" fill="#FEFECE" filter="url(#f1kt1bpvkhmb9g)" height="32" id="OrthogonalTilemap" style="stroke:#FF0000;stroke-width:1.5;" width="142" x="7" y="191"/><ellipse cx="22" cy="207" fill="#ADD1B2" rx="11" ry="11" style="stroke:#FF0000;stroke-width:1.0;"/><path d="M24.4731,213.1431 Q23.8921,213.4419 23.2529,213.5913 Q22.6138,213.7407 21.9082,213.7407 Q19.4014,213.7407 18.0815,212.0889 Q16.7617,210.437 16.7617,207.3159 Q16.7617,204.1865 18.0815,202.5347 Q19.4014,200.8828 21.9082,200.8828 Q22.6138,200.8828 23.2612,201.0322 Q23.9087,201.1816 24.4731,201.4805 L24.4731,204.2031 Q23.8423,203.6221 23.2488,203.3523 Q22.6553,203.0825 22.0244,203.0825 Q20.6797,203.0825 19.9949,204.1492 Q19.3101,205.2158 19.3101,207.3159 Q19.3101,209.4077 19.9949,210.4744 Q20.6797,211.541 22.0244,211.541 Q22.6553,211.541 23.2488,211.2712 Q23.8423,211.0015 24.4731,210.4204 Z " fill="#000000"/><text fill="#000000" font-family="sans-serif" font-size="12" lengthAdjust="spacing" textLength="110" x="36" y="211.5352">OrthogonalTilemap</text><!--MD5=[1977314f01eff6be06d0263f5e169415]
reverse link CanvasNode to Tilemap--><path codeLine="10" d="M78,59.61 C78,73.31 78,88.22 78,98.96 " fill="none" id="CanvasNode-backto-Tilemap" style="stroke:#FF0000;stroke-width:1.0;"/><polygon fill="none" points="71,59.27,78,39.27,85,59.27,71,59.27" style="stroke:#FF0000;stroke-width:1.0;"/><!--MD5=[7eda4054f4d61df1c79572283f7e87cb]
reverse link Tilemap to OrthogonalTilemap--><path codeLine="13" d="M78,151.61 C78,165.31 78,180.22 78,190.96 " fill="none" id="Tilemap-backto-OrthogonalTilemap" style="stroke:#FF0000;stroke-width:1.0;"/><polygon fill="none" points="71,151.27,78,131.27,85,151.27,71,151.27" style="stroke:#FF0000;stroke-width:1.0;"/><!--MD5=[c0bee41f6a547629e9655b5bbb603ab1]
@startuml
skinparam ClassArrowColor #ff0000
skinparam ClassBorderColor #ff0000
skinparam BackgroundColor transparent
hide empty methods
hide empty fields
abstract class "Tilemap" {
}
abstract class "CanvasNode" {
}
"CanvasNode" <|- - "Tilemap"
class "OrthogonalTilemap" {
}
"Tilemap" <|- - "OrthogonalTilemap"
@enduml

PlantUML version 1.2021.14(Fri Nov 12 11:46:50 EST 2021)
(GPL source distribution)
Java Runtime: Java(TM) SE Runtime Environment
JVM: Java HotSpot(TM) 64-Bit Server VM
Default Encoding: UTF-8
Language: en
Country: US
--></g></svg>