<?xml version="1.0" encoding="UTF-8" standalone="no"?><svg xmlns="http://www.w3.org/2000/svg" xmlns:xlink="http://www.w3.org/1999/xlink" contentScriptType="application/ecmascript" contentStyleType="text/css" height="145px" preserveAspectRatio="none" style="width:120px;height:145px;background:#00000000;" version="1.1" viewBox="0 0 120 145" width="120px" zoomAndPan="magnify"><defs><filter height="300%" id="f169j5ldu8b80e" width="300%" x="-1" y="-1"><feGaussianBlur result="blurOut" stdDeviation="2.0"/><feColorMatrix in="blurOut" result="blurOut2" type="matrix" values="0 0 0 0 0 0 0 0 0 0 0 0 0 0 0 0 0 0 .4 0"/><feOffset dx="4.0" dy="4.0" in="blurOut2" result="blurOut3"/><feBlend in="SourceGraphic" in2="blurOut3" mode="normal"/></filter></defs><g><!--MD5=[1b844c90688aafb95cd8c95626c3b83a]
class Timer--><rect codeLine="6" fill="#FEFECE" filter="url(#f169j5ldu8b80e)" height="32" id="Timer" style="stroke:#FF0000;stroke-width:1.5;" width="66" x="23.5" y="99"/><ellipse cx="38.5" cy="115" fill="#ADD1B2" rx="11" ry="11" style="stroke:#FF0000;stroke-width:1.0;"/><path d="M40.9731,121.1431 Q40.3921,121.4419 39.7529,121.5913 Q39.1138,121.7407 38.4082,121.7407 Q35.9014,121.7407 34.5815,120.0889 Q33.2617,118.437 33.2617,115.3159 Q33.2617,112.1865 34.5815,110.5347 Q35.9014,108.8828 38.4082,108.8828 Q39.1138,108.8828 39.7612,109.0322 Q40.4087,109.1816 40.9731,109.4805 L40.9731,112.2031 Q40.3423,111.6221 39.7488,111.3523 Q39.1553,111.0825 38.5244,111.0825 Q37.1797,111.0825 36.4949,112.1492 Q35.8101,113.2158 35.8101,115.3159 Q35.8101,117.4077 36.4949,118.4744 Q37.1797,119.541 38.5244,119.541 Q39.1553,119.541 39.7488,119.2712 Q40.3423,119.0015 40.9731,118.4204 Z " fill="#000000"/><text fill="#000000" font-family="sans-serif" font-size="12" lengthAdjust="spacing" textLength="34" x="52.5" y="119.5352">Timer</text><!--MD5=[8336922478991a54f539d469b4e48cc0]
class Updateable--><rect codeLine="8" fill="#FEFECE" filter="url(#f169j5ldu8b80e)" height="32" id="Updateable" style="stroke:#FF0000;stroke-width:1.5;" width="99" x="7" y="7"/><ellipse cx="22" cy="23" fill="#B4A7E5" rx="11" ry="11" style="stroke:#FF0000;stroke-width:1.0;"/><path d="M18.4277,19.2651 L18.4277,17.1069 L25.8071,17.1069 L25.8071,19.2651 L23.3418,19.2651 L23.3418,27.3418 L25.8071,27.3418 L25.8071,29.5 L18.4277,29.5 L18.4277,27.3418 L20.8931,27.3418 L20.8931,19.2651 Z " fill="#000000"/><text fill="#000000" font-family="sans-serif" font-size="12" font-style="italic" lengthAdjust="spacing" textLength="67" x="36" y="27.5352">Updateable</text><!--MD5=[d858eeb92a897e4330e7c0f0f0660963]
reverse link Updateable to Timer--><path codeLine="10" d="M56.5,59.61 C56.5,73.31 56.5,88.22 56.5,98.96 " fill="none" id="Updateable-backto-Timer" style="stroke:#FF0000;stroke-width:1.0;stroke-dasharray:7.0,7.0;"/><polygon fill="none" points="49.5,59.27,56.5,39.27,63.5,59.27,49.5,59.27" style="stroke:#FF0000;stroke-width:1.0;"/><!--MD5=[d8a3a22769d2014bd927288a6b0e98f2]
@startuml
skinparam ClassArrowColor #ff0000
skinparam ClassBorderColor #ff0000
skinparam BackgroundColor transparent
hide empty methods
hide empty fields
class "Timer" {
}
interface "Updateable" {
}
"Updateable" <|.. "Timer"
@enduml

PlantUML version 1.2021.14(Fri Nov 12 11:46:50 EST 2021)
(GPL source distribution)
Java Runtime: Java(TM) SE Runtime Environment
JVM: Java HotSpot(TM) 64-Bit Server VM
Default Encoding: UTF-8
Language: en
Country: US
--></g></svg>