<?xml version="1.0" encoding="UTF-8" standalone="no"?><svg xmlns="http://www.w3.org/2000/svg" xmlns:xlink="http://www.w3.org/1999/xlink" contentScriptType="application/ecmascript" contentStyleType="text/css" height="145px" preserveAspectRatio="none" style="width:137px;height:145px;background:#00000000;" version="1.1" viewBox="0 0 137 145" width="137px" zoomAndPan="magnify"><defs><filter height="300%" id="fhthzb7jv37is" width="300%" x="-1" y="-1"><feGaussianBlur result="blurOut" stdDeviation="2.0"/><feColorMatrix in="blurOut" result="blurOut2" type="matrix" values="0 0 0 0 0 0 0 0 0 0 0 0 0 0 0 0 0 0 .4 0"/><feOffset dx="4.0" dy="4.0" in="blurOut2" result="blurOut3"/><feBlend in="SourceGraphic" in2="blurOut3" mode="normal"/></filter></defs><g><!--MD5=[404759703514bcddc843241aa50f0a33]
class TimerManager--><rect codeLine="6" fill="#FEFECE" filter="url(#fhthzb7jv37is)" height="32" id="TimerManager" style="stroke:#FF0000;stroke-width:1.5;" width="116" x="7" y="99"/><ellipse cx="22" cy="115" fill="#ADD1B2" rx="11" ry="11" style="stroke:#FF0000;stroke-width:1.0;"/><path d="M24.4731,121.1431 Q23.8921,121.4419 23.2529,121.5913 Q22.6138,121.7407 21.9082,121.7407 Q19.4014,121.7407 18.0815,120.0889 Q16.7617,118.437 16.7617,115.3159 Q16.7617,112.1865 18.0815,110.5347 Q19.4014,108.8828 21.9082,108.8828 Q22.6138,108.8828 23.2612,109.0322 Q23.9087,109.1816 24.4731,109.4805 L24.4731,112.2031 Q23.8423,111.6221 23.2488,111.3523 Q22.6553,111.0825 22.0244,111.0825 Q20.6797,111.0825 19.9949,112.1492 Q19.3101,113.2158 19.3101,115.3159 Q19.3101,117.4077 19.9949,118.4744 Q20.6797,119.541 22.0244,119.541 Q22.6553,119.541 23.2488,119.2712 Q23.8423,119.0015 24.4731,118.4204 Z " fill="#000000"/><text fill="#000000" font-family="sans-serif" font-size="12" lengthAdjust="spacing" textLength="84" x="36" y="119.5352">TimerManager</text><!--MD5=[8336922478991a54f539d469b4e48cc0]
class Updateable--><rect codeLine="8" fill="#FEFECE" filter="url(#fhthzb7jv37is)" height="32" id="Updateable" style="stroke:#FF0000;stroke-width:1.5;" width="99" x="15.5" y="7"/><ellipse cx="30.5" cy="23" fill="#B4A7E5" rx="11" ry="11" style="stroke:#FF0000;stroke-width:1.0;"/><path d="M26.9277,19.2651 L26.9277,17.1069 L34.3071,17.1069 L34.3071,19.2651 L31.8418,19.2651 L31.8418,27.3418 L34.3071,27.3418 L34.3071,29.5 L26.9277,29.5 L26.9277,27.3418 L29.3931,27.3418 L29.3931,19.2651 Z " fill="#000000"/><text fill="#000000" font-family="sans-serif" font-size="12" font-style="italic" lengthAdjust="spacing" textLength="67" x="44.5" y="27.5352">Updateable</text><!--MD5=[82ffbed68aa78aa624da5b0f3a7d1628]
reverse link Updateable to TimerManager--><path codeLine="10" d="M65,59.61 C65,73.31 65,88.22 65,98.96 " fill="none" id="Updateable-backto-TimerManager" style="stroke:#FF0000;stroke-width:1.0;stroke-dasharray:7.0,7.0;"/><polygon fill="none" points="58,59.27,65,39.27,72,59.27,58,59.27" style="stroke:#FF0000;stroke-width:1.0;"/><!--MD5=[b4a7990de62f3bcc7999ca2f4b860d65]
@startuml
skinparam ClassArrowColor #ff0000
skinparam ClassBorderColor #ff0000
skinparam BackgroundColor transparent
hide empty methods
hide empty fields
class "TimerManager" {
}
interface "Updateable" {
}
"Updateable" <|.. "TimerManager"
@enduml

PlantUML version 1.2021.14(Fri Nov 12 11:46:50 EST 2021)
(GPL source distribution)
Java Runtime: Java(TM) SE Runtime Environment
JVM: Java HotSpot(TM) 64-Bit Server VM
Default Encoding: UTF-8
Language: en
Country: US
--></g></svg>