<?xml version="1.0" encoding="UTF-8" standalone="no"?><svg xmlns="http://www.w3.org/2000/svg" xmlns:xlink="http://www.w3.org/1999/xlink" contentScriptType="application/ecmascript" contentStyleType="text/css" height="376px" preserveAspectRatio="none" style="width:207px;height:376px;background:#00000000;" version="1.1" viewBox="0 0 207 376" width="207px" zoomAndPan="magnify"><defs><filter height="300%" id="f1am98fqj9jpjq" width="300%" x="-1" y="-1"><feGaussianBlur result="blurOut" stdDeviation="2.0"/><feColorMatrix in="blurOut" result="blurOut2" type="matrix" values="0 0 0 0 0 0 0 0 0 0 0 0 0 0 0 0 0 0 .4 0"/><feOffset dx="4.0" dy="4.0" in="blurOut2" result="blurOut3"/><feBlend in="SourceGraphic" in2="blurOut3" mode="normal"/></filter></defs><g><!--MD5=[1b844c90688aafb95cd8c95626c3b83a]
class Timer--><rect codeLine="6" fill="#FEFECE" filter="url(#f1am98fqj9jpjq)" height="242.3262" id="Timer" style="stroke:#FF0000;stroke-width:1.5;" width="184" x="9" y="120"/><ellipse cx="79.75" cy="136" fill="#ADD1B2" rx="11" ry="11" style="stroke:#FF0000;stroke-width:1.0;"/><path d="M82.2231,142.1431 Q81.6421,142.4419 81.0029,142.5913 Q80.3638,142.7407 79.6582,142.7407 Q77.1514,142.7407 75.8315,141.0889 Q74.5117,139.437 74.5117,136.3159 Q74.5117,133.1865 75.8315,131.5347 Q77.1514,129.8828 79.6582,129.8828 Q80.3638,129.8828 81.0112,130.0322 Q81.6587,130.1816 82.2231,130.4805 L82.2231,133.2031 Q81.5923,132.6221 80.9988,132.3523 Q80.4053,132.0825 79.7744,132.0825 Q78.4297,132.0825 77.7449,133.1492 Q77.0601,134.2158 77.0601,136.3159 Q77.0601,138.4077 77.7449,139.4744 Q78.4297,140.541 79.7744,140.541 Q80.4053,140.541 80.9988,140.2712 Q81.5923,140.0015 82.2231,139.4204 Z " fill="#000000"/><text fill="#000000" font-family="sans-serif" font-size="12" lengthAdjust="spacing" textLength="34" x="100.25" y="140.5352">Timer</text><line style="stroke:#FF0000;stroke-width:1.5;" x1="10" x2="192" y1="152" y2="152"/><polygon fill="none" points="20,158,24,162,20,166,16,162" style="stroke:#B38D22;stroke-width:1.0;"/><text fill="#000000" font-family="sans-serif" font-size="11" lengthAdjust="spacing" textLength="76" x="29" y="166.6348">loop : boolean</text><polygon fill="none" points="20,170.9551,24,174.9551,20,178.9551,16,174.9551" style="stroke:#B38D22;stroke-width:1.0;"/><text fill="#000000" font-family="sans-serif" font-size="11" lengthAdjust="spacing" textLength="102" x="29" y="179.5898">numRuns : number</text><polygon fill="none" points="20,183.9102,24,187.9102,20,191.9102,16,187.9102" style="stroke:#B38D22;stroke-width:1.0;"/><text fill="#000000" font-family="sans-serif" font-size="11" lengthAdjust="spacing" textLength="90" x="29" y="192.5449">onEnd : Function</text><polygon fill="none" points="20,196.8652,24,200.8652,20,204.8652,16,200.8652" style="stroke:#B38D22;stroke-width:1.0;"/><text fill="#000000" font-family="sans-serif" font-size="11" lengthAdjust="spacing" textLength="92" x="29" y="205.5">state : TimerState</text><polygon fill="none" points="20,209.8203,24,213.8203,20,217.8203,16,213.8203" style="stroke:#B38D22;stroke-width:1.0;"/><text fill="#000000" font-family="sans-serif" font-size="11" lengthAdjust="spacing" textLength="94" x="29" y="218.4551">timeLeft : number</text><polygon fill="none" points="20,222.7754,24,226.7754,20,230.7754,16,226.7754" style="stroke:#B38D22;stroke-width:1.0;"/><text fill="#000000" font-family="sans-serif" font-size="11" lengthAdjust="spacing" textLength="101" x="29" y="231.4102">totalTime : number</text><line style="stroke:#FF0000;stroke-width:1.5;" x1="10" x2="192" y1="237.7305" y2="237.7305"/><ellipse cx="20" cy="248.7305" fill="#84BE84" rx="3" ry="3" style="stroke:#038048;stroke-width:1.0;"/><text fill="#000000" font-family="sans-serif" font-size="11" lengthAdjust="spacing" textLength="100" x="29" y="252.3652">hasRun() : boolean</text><ellipse cx="20" cy="261.6855" fill="#84BE84" rx="3" ry="3" style="stroke:#038048;stroke-width:1.0;"/><text fill="#000000" font-family="sans-serif" font-size="11" lengthAdjust="spacing" textLength="107" x="29" y="265.3203">isPaused() : boolean</text><ellipse cx="20" cy="274.6406" fill="#84BE84" rx="3" ry="3" style="stroke:#038048;stroke-width:1.0;"/><text fill="#000000" font-family="sans-serif" font-size="11" lengthAdjust="spacing" textLength="113" x="29" y="278.2754">isStopped() : boolean</text><ellipse cx="20" cy="287.5957" fill="#84BE84" rx="3" ry="3" style="stroke:#038048;stroke-width:1.0;"/><text fill="#000000" font-family="sans-serif" font-size="11" lengthAdjust="spacing" textLength="72" x="29" y="291.2305">pause() : void</text><ellipse cx="20" cy="300.5508" fill="#84BE84" rx="3" ry="3" style="stroke:#038048;stroke-width:1.0;"/><text fill="#000000" font-family="sans-serif" font-size="11" lengthAdjust="spacing" textLength="67" x="29" y="304.1855">reset() : void</text><ellipse cx="20" cy="313.5059" fill="#84BE84" rx="3" ry="3" style="stroke:#038048;stroke-width:1.0;"/><text fill="#000000" font-family="sans-serif" font-size="11" lengthAdjust="spacing" textLength="136" x="29" y="317.1406">start(time: number) : void</text><ellipse cx="20" cy="326.4609" fill="#84BE84" rx="3" ry="3" style="stroke:#038048;stroke-width:1.0;"/><text fill="#000000" font-family="sans-serif" font-size="11" lengthAdjust="spacing" textLength="92" x="29" y="330.0957">toString() : string</text><ellipse cx="20" cy="339.416" fill="#84BE84" rx="3" ry="3" style="stroke:#038048;stroke-width:1.0;"/><text fill="#000000" font-family="sans-serif" font-size="11" lengthAdjust="spacing" textLength="158" x="29" y="343.0508">update(deltaT: number) : void</text><polygon fill="#FFFF44" points="20,347.3711,24,351.3711,20,355.3711,16,351.3711" style="stroke:#B38D22;stroke-width:1.0;"/><text fill="#000000" font-family="sans-serif" font-size="11" lengthAdjust="spacing" textLength="60" x="29" y="356.0059">end() : void</text><!--MD5=[8336922478991a54f539d469b4e48cc0]
class Updateable--><rect codeLine="23" fill="#FEFECE" filter="url(#f1am98fqj9jpjq)" height="52.9551" id="Updateable" style="stroke:#FF0000;stroke-width:1.5;" width="184" x="9" y="7"/><ellipse cx="63.25" cy="23" fill="#B4A7E5" rx="11" ry="11" style="stroke:#FF0000;stroke-width:1.0;"/><path d="M59.6777,19.2651 L59.6777,17.1069 L67.0571,17.1069 L67.0571,19.2651 L64.5918,19.2651 L64.5918,27.3418 L67.0571,27.3418 L67.0571,29.5 L59.6777,29.5 L59.6777,27.3418 L62.1431,27.3418 L62.1431,19.2651 Z " fill="#000000"/><text fill="#000000" font-family="sans-serif" font-size="12" font-style="italic" lengthAdjust="spacing" textLength="67" x="83.75" y="27.5352">Updateable</text><line style="stroke:#FF0000;stroke-width:1.5;" x1="10" x2="192" y1="39" y2="39"/><ellipse cx="20" cy="50" fill="#84BE84" rx="3" ry="3" style="stroke:#038048;stroke-width:1.0;"/><text fill="#000000" font-family="sans-serif" font-size="11" lengthAdjust="spacing" textLength="158" x="29" y="53.6348">update(deltaT: number) : void</text><!--MD5=[d858eeb92a897e4330e7c0f0f0660963]
reverse link Updateable to Timer--><path codeLine="26" d="M101,80.39 C101,92.36 101,105.82 101,119.73 " fill="none" id="Updateable-backto-Timer" style="stroke:#FF0000;stroke-width:1.0;stroke-dasharray:7.0,7.0;"/><polygon fill="none" points="94,80.11,101,60.11,108,80.11,94,80.11" style="stroke:#FF0000;stroke-width:1.0;"/><!--MD5=[d57d57aef36b27e737f519433eed65ba]
@startuml
skinparam ClassArrowColor #ff0000
skinparam ClassBorderColor #ff0000
skinparam BackgroundColor transparent
hide empty methods
hide empty fields
class "Timer" {
    #loop : boolean
    #numRuns : number
    #onEnd : Function
    #state : TimerState
    #timeLeft : number
    #totalTime : number
    +hasRun() : boolean
    +isPaused() : boolean
    +isStopped() : boolean
    +pause() : void
    +reset() : void
    +start(time: number) : void
    +toString() : string
    +update(deltaT: number) : void
    #end() : void
}
interface "Updateable" {
    +update(deltaT: number) : void
}
"Updateable" <|.. "Timer"
@enduml

PlantUML version 1.2021.14(Fri Nov 12 11:46:50 EST 2021)
(GPL source distribution)
Java Runtime: Java(TM) SE Runtime Environment
JVM: Java HotSpot(TM) 64-Bit Server VM
Default Encoding: UTF-8
Language: en
Country: US
--></g></svg>