<?xml version="1.0" encoding="UTF-8" standalone="no"?><svg xmlns="http://www.w3.org/2000/svg" xmlns:xlink="http://www.w3.org/1999/xlink" contentScriptType="application/ecmascript" contentStyleType="text/css" height="259px" preserveAspectRatio="none" style="width:207px;height:259px;background:#00000000;" version="1.1" viewBox="0 0 207 259" width="207px" zoomAndPan="magnify"><defs><filter height="300%" id="flp7exe2ylj5r" width="300%" x="-1" y="-1"><feGaussianBlur result="blurOut" stdDeviation="2.0"/><feColorMatrix in="blurOut" result="blurOut2" type="matrix" values="0 0 0 0 0 0 0 0 0 0 0 0 0 0 0 0 0 0 .4 0"/><feOffset dx="4.0" dy="4.0" in="blurOut2" result="blurOut3"/><feBlend in="SourceGraphic" in2="blurOut3" mode="normal"/></filter></defs><g><!--MD5=[404759703514bcddc843241aa50f0a33]
class TimerManager--><rect codeLine="6" fill="#FEFECE" filter="url(#flp7exe2ylj5r)" height="125.7305" id="TimerManager" style="stroke:#FF0000;stroke-width:1.5;" width="184" x="9" y="120"/><ellipse cx="54.75" cy="136" fill="#ADD1B2" rx="11" ry="11" style="stroke:#FF0000;stroke-width:1.0;"/><path d="M57.2231,142.1431 Q56.6421,142.4419 56.0029,142.5913 Q55.3638,142.7407 54.6582,142.7407 Q52.1514,142.7407 50.8315,141.0889 Q49.5117,139.437 49.5117,136.3159 Q49.5117,133.1865 50.8315,131.5347 Q52.1514,129.8828 54.6582,129.8828 Q55.3638,129.8828 56.0112,130.0322 Q56.6587,130.1816 57.2231,130.4805 L57.2231,133.2031 Q56.5923,132.6221 55.9988,132.3523 Q55.4053,132.0825 54.7744,132.0825 Q53.4297,132.0825 52.7449,133.1492 Q52.0601,134.2158 52.0601,136.3159 Q52.0601,138.4077 52.7449,139.4744 Q53.4297,140.541 54.7744,140.541 Q55.4053,140.541 55.9988,140.2712 Q56.5923,140.0015 57.2231,139.4204 Z " fill="#000000"/><text fill="#000000" font-family="sans-serif" font-size="12" lengthAdjust="spacing" textLength="84" x="75.25" y="140.5352">TimerManager</text><line style="stroke:#FF0000;stroke-width:1.5;" x1="10" x2="192" y1="152" y2="152"/><polygon fill="none" points="20,158,24,162,20,166,16,162" style="stroke:#B38D22;stroke-width:1.0;"/><text fill="#000000" font-family="sans-serif" font-size="11" lengthAdjust="spacing" text-decoration="underline" textLength="131" x="29" y="166.6348">instance : TimerManager</text><polygon fill="none" points="20,170.9551,24,174.9551,20,178.9551,16,174.9551" style="stroke:#B38D22;stroke-width:1.0;"/><text fill="#000000" font-family="sans-serif" font-size="11" lengthAdjust="spacing" textLength="82" x="29" y="179.5898">timers : Timer[]</text><line style="stroke:#FF0000;stroke-width:1.5;" x1="10" x2="192" y1="185.9102" y2="185.9102"/><ellipse cx="20" cy="196.9102" fill="#84BE84" rx="3" ry="3" style="stroke:#038048;stroke-width:1.0;"/><text fill="#000000" font-family="sans-serif" font-size="11" lengthAdjust="spacing" textLength="156" x="29" y="200.5449">addTimer(timer: Timer) : void</text><ellipse cx="20" cy="209.8652" fill="#84BE84" rx="3" ry="3" style="stroke:#038048;stroke-width:1.0;"/><text fill="#000000" font-family="sans-serif" font-size="11" lengthAdjust="spacing" textLength="103" x="29" y="213.5">clearTimers() : void</text><ellipse cx="20" cy="222.8203" fill="#84BE84" rx="3" ry="3" style="stroke:#038048;stroke-width:1.0;"/><text fill="#000000" font-family="sans-serif" font-size="11" lengthAdjust="spacing" text-decoration="underline" textLength="156" x="29" y="226.4551">getInstance() : TimerManager</text><ellipse cx="20" cy="235.7754" fill="#84BE84" rx="3" ry="3" style="stroke:#038048;stroke-width:1.0;"/><text fill="#000000" font-family="sans-serif" font-size="11" lengthAdjust="spacing" textLength="158" x="29" y="239.4102">update(deltaT: number) : void</text><!--MD5=[8336922478991a54f539d469b4e48cc0]
class Updateable--><rect codeLine="14" fill="#FEFECE" filter="url(#flp7exe2ylj5r)" height="52.9551" id="Updateable" style="stroke:#FF0000;stroke-width:1.5;" width="184" x="9" y="7"/><ellipse cx="63.25" cy="23" fill="#B4A7E5" rx="11" ry="11" style="stroke:#FF0000;stroke-width:1.0;"/><path d="M59.6777,19.2651 L59.6777,17.1069 L67.0571,17.1069 L67.0571,19.2651 L64.5918,19.2651 L64.5918,27.3418 L67.0571,27.3418 L67.0571,29.5 L59.6777,29.5 L59.6777,27.3418 L62.1431,27.3418 L62.1431,19.2651 Z " fill="#000000"/><text fill="#000000" font-family="sans-serif" font-size="12" font-style="italic" lengthAdjust="spacing" textLength="67" x="83.75" y="27.5352">Updateable</text><line style="stroke:#FF0000;stroke-width:1.5;" x1="10" x2="192" y1="39" y2="39"/><ellipse cx="20" cy="50" fill="#84BE84" rx="3" ry="3" style="stroke:#038048;stroke-width:1.0;"/><text fill="#000000" font-family="sans-serif" font-size="11" lengthAdjust="spacing" textLength="158" x="29" y="53.6348">update(deltaT: number) : void</text><!--MD5=[82ffbed68aa78aa624da5b0f3a7d1628]
reverse link Updateable to TimerManager--><path codeLine="17" d="M101,80.33 C101,92.83 101,106.58 101,119.82 " fill="none" id="Updateable-backto-TimerManager" style="stroke:#FF0000;stroke-width:1.0;stroke-dasharray:7.0,7.0;"/><polygon fill="none" points="94,80.19,101,60.19,108,80.19,94,80.19" style="stroke:#FF0000;stroke-width:1.0;"/><!--MD5=[e3bce3e9664066be277b376689c0c54f]
@startuml
skinparam ClassArrowColor #ff0000
skinparam ClassBorderColor #ff0000
skinparam BackgroundColor transparent
hide empty methods
hide empty fields
class "TimerManager" {
    {static} #instance : TimerManager
    #timers : Timer[]
    +addTimer(timer: Timer) : void
    +clearTimers() : void
    {static} +getInstance() : TimerManager
    +update(deltaT: number) : void
}
interface "Updateable" {
    +update(deltaT: number) : void
}
"Updateable" <|.. "TimerManager"
@enduml

PlantUML version 1.2021.14(Fri Nov 12 11:46:50 EST 2021)
(GPL source distribution)
Java Runtime: Java(TM) SE Runtime Environment
JVM: Java HotSpot(TM) 64-Bit Server VM
Default Encoding: UTF-8
Language: en
Country: US
--></g></svg>