<?xml version="1.0" encoding="UTF-8" standalone="no"?><svg xmlns="http://www.w3.org/2000/svg" xmlns:xlink="http://www.w3.org/1999/xlink" contentScriptType="application/ecmascript" contentStyleType="text/css" height="272px" preserveAspectRatio="none" style="width:381px;height:272px;background:#00000000;" version="1.1" viewBox="0 0 381 272" width="381px" zoomAndPan="magnify"><defs><filter height="300%" id="fuuasjn4z8e8j" width="300%" x="-1" y="-1"><feGaussianBlur result="blurOut" stdDeviation="2.0"/><feColorMatrix in="blurOut" result="blurOut2" type="matrix" values="0 0 0 0 0 0 0 0 0 0 0 0 0 0 0 0 0 0 .4 0"/><feOffset dx="4.0" dy="4.0" in="blurOut2" result="blurOut3"/><feBlend in="SourceGraphic" in2="blurOut3" mode="normal"/></filter></defs><g><!--MD5=[5ae3b1e655ba73d3c2cb391889291456]
class TweenManager--><rect codeLine="6" fill="#FEFECE" filter="url(#fuuasjn4z8e8j)" height="138.6855" id="TweenManager" style="stroke:#FF0000;stroke-width:1.5;" width="358" x="9" y="120"/><ellipse cx="139.75" cy="136" fill="#ADD1B2" rx="11" ry="11" style="stroke:#FF0000;stroke-width:1.0;"/><path d="M142.2231,142.1431 Q141.6421,142.4419 141.0029,142.5913 Q140.3638,142.7407 139.6582,142.7407 Q137.1514,142.7407 135.8315,141.0889 Q134.5117,139.437 134.5117,136.3159 Q134.5117,133.1865 135.8315,131.5347 Q137.1514,129.8828 139.6582,129.8828 Q140.3638,129.8828 141.0112,130.0322 Q141.6587,130.1816 142.2231,130.4805 L142.2231,133.2031 Q141.5923,132.6221 140.9988,132.3523 Q140.4053,132.0825 139.7744,132.0825 Q138.4297,132.0825 137.7449,133.1492 Q137.0601,134.2158 137.0601,136.3159 Q137.0601,138.4077 137.7449,139.4744 Q138.4297,140.541 139.7744,140.541 Q140.4053,140.541 140.9988,140.2712 Q141.5923,140.0015 142.2231,139.4204 Z " fill="#000000"/><text fill="#000000" font-family="sans-serif" font-size="12" lengthAdjust="spacing" textLength="88" x="160.25" y="140.5352">TweenManager</text><line style="stroke:#FF0000;stroke-width:1.5;" x1="10" x2="366" y1="152" y2="152"/><polygon fill="none" points="20,158,24,162,20,166,16,162" style="stroke:#B38D22;stroke-width:1.0;"/><text fill="#000000" font-family="sans-serif" font-size="11" lengthAdjust="spacing" textLength="198" x="29" y="166.6348">tweenControllers : TweenController[]</text><rect fill="none" height="6" style="stroke:#C82930;stroke-width:1.0;" width="6" x="17" y="172.9551"/><text fill="#000000" font-family="sans-serif" font-size="11" lengthAdjust="spacing" text-decoration="underline" textLength="134" x="29" y="179.5898">instance : TweenManager</text><line style="stroke:#FF0000;stroke-width:1.5;" x1="10" x2="366" y1="185.9102" y2="185.9102"/><ellipse cx="20" cy="196.9102" fill="#84BE84" rx="3" ry="3" style="stroke:#038048;stroke-width:1.0;"/><text fill="#000000" font-family="sans-serif" font-size="11" lengthAdjust="spacing" textLength="161" x="29" y="200.5449">clearTweenControllers() : void</text><ellipse cx="20" cy="209.8652" fill="#84BE84" rx="3" ry="3" style="stroke:#038048;stroke-width:1.0;"/><text fill="#000000" font-family="sans-serif" font-size="11" lengthAdjust="spacing" textLength="332" x="29" y="213.5">deregisterTweenController(controller: TweenController) : void</text><ellipse cx="20" cy="222.8203" fill="#84BE84" rx="3" ry="3" style="stroke:#038048;stroke-width:1.0;"/><text fill="#000000" font-family="sans-serif" font-size="11" lengthAdjust="spacing" text-decoration="underline" textLength="159" x="29" y="226.4551">getInstance() : TweenManager</text><ellipse cx="20" cy="235.7754" fill="#84BE84" rx="3" ry="3" style="stroke:#038048;stroke-width:1.0;"/><text fill="#000000" font-family="sans-serif" font-size="11" lengthAdjust="spacing" textLength="319" x="29" y="239.4102">registerTweenController(controller: TweenController) : void</text><ellipse cx="20" cy="248.7305" fill="#84BE84" rx="3" ry="3" style="stroke:#038048;stroke-width:1.0;"/><text fill="#000000" font-family="sans-serif" font-size="11" lengthAdjust="spacing" textLength="158" x="29" y="252.3652">update(deltaT: number) : void</text><!--MD5=[8336922478991a54f539d469b4e48cc0]
class Updateable--><rect codeLine="15" fill="#FEFECE" filter="url(#fuuasjn4z8e8j)" height="52.9551" id="Updateable" style="stroke:#FF0000;stroke-width:1.5;" width="184" x="96" y="7"/><ellipse cx="150.25" cy="23" fill="#B4A7E5" rx="11" ry="11" style="stroke:#FF0000;stroke-width:1.0;"/><path d="M146.6777,19.2651 L146.6777,17.1069 L154.0571,17.1069 L154.0571,19.2651 L151.5918,19.2651 L151.5918,27.3418 L154.0571,27.3418 L154.0571,29.5 L146.6777,29.5 L146.6777,27.3418 L149.1431,27.3418 L149.1431,19.2651 Z " fill="#000000"/><text fill="#000000" font-family="sans-serif" font-size="12" font-style="italic" lengthAdjust="spacing" textLength="67" x="170.75" y="27.5352">Updateable</text><line style="stroke:#FF0000;stroke-width:1.5;" x1="97" x2="279" y1="39" y2="39"/><ellipse cx="107" cy="50" fill="#84BE84" rx="3" ry="3" style="stroke:#038048;stroke-width:1.0;"/><text fill="#000000" font-family="sans-serif" font-size="11" lengthAdjust="spacing" textLength="158" x="116" y="53.6348">update(deltaT: number) : void</text><!--MD5=[edf8cc892da7335a6d2af022deeec4a2]
reverse link Updateable to TweenManager--><path codeLine="18" d="M188,80.71 C188,93.01 188,106.56 188,119.78 " fill="none" id="Updateable-backto-TweenManager" style="stroke:#FF0000;stroke-width:1.0;stroke-dasharray:7.0,7.0;"/><polygon fill="none" points="181,80.28,188,60.28,195,80.28,181,80.28" style="stroke:#FF0000;stroke-width:1.0;"/><!--MD5=[10986e89899ca79b2d65b98cd17a2e51]
@startuml
skinparam ClassArrowColor #ff0000
skinparam ClassBorderColor #ff0000
skinparam BackgroundColor transparent
hide empty methods
hide empty fields
class "TweenManager" {
    #tweenControllers : TweenController[]
    {static} -instance : TweenManager
    +clearTweenControllers() : void
    +deregisterTweenController(controller: TweenController) : void
    {static} +getInstance() : TweenManager
    +registerTweenController(controller: TweenController) : void
    +update(deltaT: number) : void
}
interface "Updateable" {
    +update(deltaT: number) : void
}
"Updateable" <|.. "TweenManager"
@enduml

PlantUML version 1.2021.14(Fri Nov 12 11:46:50 EST 2021)
(GPL source distribution)
Java Runtime: Java(TM) SE Runtime Environment
JVM: Java HotSpot(TM) 64-Bit Server VM
Default Encoding: UTF-8
Language: en
Country: US
--></g></svg>