<?xml version="1.0" encoding="UTF-8" standalone="no"?><svg xmlns="http://www.w3.org/2000/svg" xmlns:xlink="http://www.w3.org/1999/xlink" contentScriptType="application/ecmascript" contentStyleType="text/css" height="237px" preserveAspectRatio="none" style="width:183px;height:237px;background:#00000000;" version="1.1" viewBox="0 0 183 237" width="183px" zoomAndPan="magnify"><defs><filter height="300%" id="f1i8tscjx2rtfl" width="300%" x="-1" y="-1"><feGaussianBlur result="blurOut" stdDeviation="2.0"/><feColorMatrix in="blurOut" result="blurOut2" type="matrix" values="0 0 0 0 0 0 0 0 0 0 0 0 0 0 0 0 0 0 .4 0"/><feOffset dx="4.0" dy="4.0" in="blurOut2" result="blurOut3"/><feBlend in="SourceGraphic" in2="blurOut3" mode="normal"/></filter></defs><g><!--MD5=[a49b7276910d6619e9702881d69ae75a]
class UIElement--><rect codeLine="6" fill="#FEFECE" filter="url(#f1i8tscjx2rtfl)" height="32" id="UIElement" style="stroke:#FF0000;stroke-width:1.5;" width="89" x="43" y="99"/><ellipse cx="58" cy="115" fill="#A9DCDF" rx="11" ry="11" style="stroke:#FF0000;stroke-width:1.0;"/><path d="M57.8633,110.3481 L56.7095,115.4199 L59.0254,115.4199 Z M56.3691,108.1069 L59.3657,108.1069 L62.7109,120.5 L60.2622,120.5 L59.4985,117.437 L56.2197,117.437 L55.4727,120.5 L53.0239,120.5 Z " fill="#000000"/><text fill="#000000" font-family="sans-serif" font-size="12" font-style="italic" lengthAdjust="spacing" textLength="57" x="72" y="119.5352">UIElement</text><!--MD5=[2e70b9baf931f95a6b812c993ae5d283]
class CanvasNode--><rect codeLine="8" fill="#FEFECE" filter="url(#f1i8tscjx2rtfl)" height="32" id="CanvasNode" style="stroke:#FF0000;stroke-width:1.5;" width="104" x="35.5" y="7"/><ellipse cx="50.5" cy="23" fill="#A9DCDF" rx="11" ry="11" style="stroke:#FF0000;stroke-width:1.0;"/><path d="M50.3633,18.3481 L49.2095,23.4199 L51.5254,23.4199 Z M48.8691,16.1069 L51.8657,16.1069 L55.2109,28.5 L52.7622,28.5 L51.9985,25.437 L48.7197,25.437 L47.9727,28.5 L45.5239,28.5 Z " fill="#000000"/><text fill="#000000" font-family="sans-serif" font-size="12" font-style="italic" lengthAdjust="spacing" textLength="72" x="64.5" y="27.5352">CanvasNode</text><!--MD5=[e84c991d4d3bbf916ee1653c86a9249d]
class Label--><rect codeLine="11" fill="#FEFECE" filter="url(#f1i8tscjx2rtfl)" height="32" id="Label" style="stroke:#FF0000;stroke-width:1.5;" width="63" x="7" y="191"/><ellipse cx="22" cy="207" fill="#ADD1B2" rx="11" ry="11" style="stroke:#FF0000;stroke-width:1.0;"/><path d="M24.4731,213.1431 Q23.8921,213.4419 23.2529,213.5913 Q22.6138,213.7407 21.9082,213.7407 Q19.4014,213.7407 18.0815,212.0889 Q16.7617,210.437 16.7617,207.3159 Q16.7617,204.1865 18.0815,202.5347 Q19.4014,200.8828 21.9082,200.8828 Q22.6138,200.8828 23.2612,201.0322 Q23.9087,201.1816 24.4731,201.4805 L24.4731,204.2031 Q23.8423,203.6221 23.2488,203.3523 Q22.6553,203.0825 22.0244,203.0825 Q20.6797,203.0825 19.9949,204.1492 Q19.3101,205.2158 19.3101,207.3159 Q19.3101,209.4077 19.9949,210.4744 Q20.6797,211.541 22.0244,211.541 Q22.6553,211.541 23.2488,211.2712 Q23.8423,211.0015 24.4731,210.4204 Z " fill="#000000"/><text fill="#000000" font-family="sans-serif" font-size="12" lengthAdjust="spacing" textLength="31" x="36" y="211.5352">Label</text><!--MD5=[5b63724585581d1714c92cb3ec182af9]
class Slider--><rect codeLine="14" fill="#FEFECE" filter="url(#f1i8tscjx2rtfl)" height="32" id="Slider" style="stroke:#FF0000;stroke-width:1.5;" width="64" x="105.5" y="191"/><ellipse cx="120.5" cy="207" fill="#ADD1B2" rx="11" ry="11" style="stroke:#FF0000;stroke-width:1.0;"/><path d="M122.9731,213.1431 Q122.3921,213.4419 121.7529,213.5913 Q121.1138,213.7407 120.4082,213.7407 Q117.9014,213.7407 116.5815,212.0889 Q115.2617,210.437 115.2617,207.3159 Q115.2617,204.1865 116.5815,202.5347 Q117.9014,200.8828 120.4082,200.8828 Q121.1138,200.8828 121.7612,201.0322 Q122.4087,201.1816 122.9731,201.4805 L122.9731,204.2031 Q122.3423,203.6221 121.7488,203.3523 Q121.1553,203.0825 120.5244,203.0825 Q119.1797,203.0825 118.4949,204.1492 Q117.8101,205.2158 117.8101,207.3159 Q117.8101,209.4077 118.4949,210.4744 Q119.1797,211.541 120.5244,211.541 Q121.1553,211.541 121.7488,211.2712 Q122.3423,211.0015 122.9731,210.4204 Z " fill="#000000"/><text fill="#000000" font-family="sans-serif" font-size="12" lengthAdjust="spacing" textLength="32" x="134.5" y="211.5352">Slider</text><!--MD5=[b1aed5b7c77024fa1b37236a68add774]
reverse link CanvasNode to UIElement--><path codeLine="10" d="M87.5,59.61 C87.5,73.31 87.5,88.22 87.5,98.96 " fill="none" id="CanvasNode-backto-UIElement" style="stroke:#FF0000;stroke-width:1.0;"/><polygon fill="none" points="80.5,59.27,87.5,39.27,94.5,59.27,80.5,59.27" style="stroke:#FF0000;stroke-width:1.0;"/><!--MD5=[797316f0eefbfe1ff2d2a5a8a9b2a433]
reverse link UIElement to Label--><path codeLine="13" d="M69.45,149.15 C61.64,163.5 52.89,179.57 46.69,190.96 " fill="none" id="UIElement-backto-Label" style="stroke:#FF0000;stroke-width:1.0;"/><polygon fill="none" points="63.48,145.49,79.19,131.27,75.77,152.18,63.48,145.49" style="stroke:#FF0000;stroke-width:1.0;"/><!--MD5=[ea6870916ccb65937e93e5bbd5b34197]
reverse link UIElement to Slider--><path codeLine="16" d="M105.92,149.15 C113.89,163.5 122.82,179.57 129.14,190.96 " fill="none" id="UIElement-backto-Slider" style="stroke:#FF0000;stroke-width:1.0;"/><polygon fill="none" points="99.58,152.15,95.98,131.27,111.81,145.35,99.58,152.15" style="stroke:#FF0000;stroke-width:1.0;"/><!--MD5=[bd27437c8b49b529e817bd68e9bf1c08]
@startuml
skinparam ClassArrowColor #ff0000
skinparam ClassBorderColor #ff0000
skinparam BackgroundColor transparent
hide empty methods
hide empty fields
abstract class "UIElement" {
}
abstract class "CanvasNode" {
}
"CanvasNode" <|- - "UIElement"
class "Label" {
}
"UIElement" <|- - "Label"
class "Slider" {
}
"UIElement" <|- - "Slider"
@enduml

PlantUML version 1.2021.14(Fri Nov 12 11:46:50 EST 2021)
(GPL source distribution)
Java Runtime: Java(TM) SE Runtime Environment
JVM: Java HotSpot(TM) 64-Bit Server VM
Default Encoding: UTF-8
Language: en
Country: US
--></g></svg>