<?xml version="1.0" encoding="UTF-8" standalone="no"?><svg xmlns="http://www.w3.org/2000/svg" xmlns:xlink="http://www.w3.org/1999/xlink" contentScriptType="application/ecmascript" contentStyleType="text/css" height="145px" preserveAspectRatio="none" style="width:130px;height:145px;background:#00000000;" version="1.1" viewBox="0 0 130 145" width="130px" zoomAndPan="magnify"><defs><filter height="300%" id="f1jmyolkzakufx" width="300%" x="-1" y="-1"><feGaussianBlur result="blurOut" stdDeviation="2.0"/><feColorMatrix in="blurOut" result="blurOut2" type="matrix" values="0 0 0 0 0 0 0 0 0 0 0 0 0 0 0 0 0 0 .4 0"/><feOffset dx="4.0" dy="4.0" in="blurOut2" result="blurOut3"/><feBlend in="SourceGraphic" in2="blurOut3" mode="normal"/></filter></defs><g><!--MD5=[110796ac762d88922b6a06576bff2f7f]
class UILayer--><rect codeLine="6" fill="#FEFECE" filter="url(#f1jmyolkzakufx)" height="32" id="UILayer" style="stroke:#FF0000;stroke-width:1.5;" width="74" x="24.5" y="99"/><ellipse cx="39.5" cy="115" fill="#ADD1B2" rx="11" ry="11" style="stroke:#FF0000;stroke-width:1.0;"/><path d="M41.9731,121.1431 Q41.3921,121.4419 40.7529,121.5913 Q40.1138,121.7407 39.4082,121.7407 Q36.9014,121.7407 35.5815,120.0889 Q34.2617,118.437 34.2617,115.3159 Q34.2617,112.1865 35.5815,110.5347 Q36.9014,108.8828 39.4082,108.8828 Q40.1138,108.8828 40.7612,109.0322 Q41.4087,109.1816 41.9731,109.4805 L41.9731,112.2031 Q41.3423,111.6221 40.7488,111.3523 Q40.1553,111.0825 39.5244,111.0825 Q38.1797,111.0825 37.4949,112.1492 Q36.8101,113.2158 36.8101,115.3159 Q36.8101,117.4077 37.4949,118.4744 Q38.1797,119.541 39.5244,119.541 Q40.1553,119.541 40.7488,119.2712 Q41.3423,119.0015 41.9731,118.4204 Z " fill="#000000"/><text fill="#000000" font-family="sans-serif" font-size="12" lengthAdjust="spacing" textLength="42" x="53.5" y="119.5352">UILayer</text><!--MD5=[7e1de7bacf3ccdcae3e76de04b35f0f9]
class ParallaxLayer--><rect codeLine="8" fill="#FEFECE" filter="url(#f1jmyolkzakufx)" height="32" id="ParallaxLayer" style="stroke:#FF0000;stroke-width:1.5;" width="109" x="7" y="7"/><ellipse cx="22" cy="23" fill="#ADD1B2" rx="11" ry="11" style="stroke:#FF0000;stroke-width:1.0;"/><path d="M24.4731,29.1431 Q23.8921,29.4419 23.2529,29.5913 Q22.6138,29.7407 21.9082,29.7407 Q19.4014,29.7407 18.0815,28.0889 Q16.7617,26.437 16.7617,23.3159 Q16.7617,20.1865 18.0815,18.5347 Q19.4014,16.8828 21.9082,16.8828 Q22.6138,16.8828 23.2612,17.0322 Q23.9087,17.1816 24.4731,17.4805 L24.4731,20.2031 Q23.8423,19.6221 23.2488,19.3523 Q22.6553,19.0825 22.0244,19.0825 Q20.6797,19.0825 19.9949,20.1492 Q19.3101,21.2158 19.3101,23.3159 Q19.3101,25.4077 19.9949,26.4744 Q20.6797,27.541 22.0244,27.541 Q22.6553,27.541 23.2488,27.2712 Q23.8423,27.0015 24.4731,26.4204 Z " fill="#000000"/><text fill="#000000" font-family="sans-serif" font-size="12" lengthAdjust="spacing" textLength="77" x="36" y="27.5352">ParallaxLayer</text><!--MD5=[5ee82f7e945f78be041e2097083ae5af]
reverse link ParallaxLayer to UILayer--><path codeLine="10" d="M61.5,59.61 C61.5,73.31 61.5,88.22 61.5,98.96 " fill="none" id="ParallaxLayer-backto-UILayer" style="stroke:#FF0000;stroke-width:1.0;"/><polygon fill="none" points="54.5,59.27,61.5,39.27,68.5,59.27,54.5,59.27" style="stroke:#FF0000;stroke-width:1.0;"/><!--MD5=[6ed10d8bbb228ff4c96d7ac74d5404f4]
@startuml
skinparam ClassArrowColor #ff0000
skinparam ClassBorderColor #ff0000
skinparam BackgroundColor transparent
hide empty methods
hide empty fields
class "UILayer" {
}
class "ParallaxLayer" {
}
"ParallaxLayer" <|- - "UILayer"
@enduml

PlantUML version 1.2021.14(Fri Nov 12 11:46:50 EST 2021)
(GPL source distribution)
Java Runtime: Java(TM) SE Runtime Environment
JVM: Java HotSpot(TM) 64-Bit Server VM
Default Encoding: UTF-8
Language: en
Country: US
--></g></svg>