<?xml version="1.0" encoding="UTF-8" standalone="no"?><svg xmlns="http://www.w3.org/2000/svg" xmlns:xlink="http://www.w3.org/1999/xlink" contentScriptType="application/ecmascript" contentStyleType="text/css" height="824px" preserveAspectRatio="none" style="width:253px;height:824px;background:#00000000;" version="1.1" viewBox="0 0 253 824" width="253px" zoomAndPan="magnify"><defs><filter height="300%" id="f1vckp4htlauoz" width="300%" x="-1" y="-1"><feGaussianBlur result="blurOut" stdDeviation="2.0"/><feColorMatrix in="blurOut" result="blurOut2" type="matrix" values="0 0 0 0 0 0 0 0 0 0 0 0 0 0 0 0 0 0 .4 0"/><feOffset dx="4.0" dy="4.0" in="blurOut2" result="blurOut3"/><feBlend in="SourceGraphic" in2="blurOut3" mode="normal"/></filter></defs><g><!--MD5=[110796ac762d88922b6a06576bff2f7f]
class UILayer--><rect codeLine="6" fill="#FEFECE" filter="url(#f1vckp4htlauoz)" height="371.877" id="UILayer" style="stroke:#FF0000;stroke-width:1.5;" width="230" x="9" y="439"/><ellipse cx="98.75" cy="455" fill="#ADD1B2" rx="11" ry="11" style="stroke:#FF0000;stroke-width:1.0;"/><path d="M101.2231,461.1431 Q100.6421,461.4419 100.0029,461.5913 Q99.3638,461.7407 98.6582,461.7407 Q96.1514,461.7407 94.8315,460.0889 Q93.5117,458.437 93.5117,455.3159 Q93.5117,452.1865 94.8315,450.5347 Q96.1514,448.8828 98.6582,448.8828 Q99.3638,448.8828 100.0112,449.0322 Q100.6587,449.1816 101.2231,449.4805 L101.2231,452.2031 Q100.5923,451.6221 99.9988,451.3523 Q99.4053,451.0825 98.7744,451.0825 Q97.4297,451.0825 96.7449,452.1492 Q96.0601,453.2158 96.0601,455.3159 Q96.0601,457.4077 96.7449,458.4744 Q97.4297,459.541 98.7744,459.541 Q99.4053,459.541 99.9988,459.2712 Q100.5923,459.0015 101.2231,458.4204 Z " fill="#000000"/><text fill="#000000" font-family="sans-serif" font-size="12" lengthAdjust="spacing" textLength="42" x="119.25" y="459.5352">UILayer</text><line style="stroke:#FF0000;stroke-width:1.5;" x1="10" x2="238" y1="471" y2="471"/><ellipse cx="20" cy="482" rx="3" ry="3" style="stroke:#038048;stroke-width:1.0;fill:none;"/><text fill="#000000" font-family="sans-serif" font-size="11" lengthAdjust="spacing" textLength="78" x="29" y="485.6348">parallax : Vec2</text><polygon fill="none" points="20,489.9551,24,493.9551,20,497.9551,16,493.9551" style="stroke:#B38D22;stroke-width:1.0;"/><text fill="#000000" font-family="sans-serif" font-size="11" lengthAdjust="spacing" textLength="80" x="29" y="498.5898">alpha : number</text><polygon fill="none" points="20,502.9102,24,506.9102,20,510.9102,16,506.9102" style="stroke:#B38D22;stroke-width:1.0;"/><text fill="#000000" font-family="sans-serif" font-size="11" lengthAdjust="spacing" textLength="82" x="29" y="511.5449">depth : number</text><polygon fill="none" points="20,515.8652,24,519.8652,20,523.8652,16,519.8652" style="stroke:#B38D22;stroke-width:1.0;"/><text fill="#000000" font-family="sans-serif" font-size="11" lengthAdjust="spacing" textLength="89" x="29" y="524.5">hidden : boolean</text><polygon fill="none" points="20,528.8203,24,532.8203,20,536.8203,16,532.8203" style="stroke:#B38D22;stroke-width:1.0;"/><text fill="#000000" font-family="sans-serif" font-size="11" lengthAdjust="spacing" textLength="104" x="29" y="537.4551">items : GameNode[]</text><polygon fill="none" points="20,541.7754,24,545.7754,20,549.7754,16,545.7754" style="stroke:#B38D22;stroke-width:1.0;"/><text fill="#000000" font-family="sans-serif" font-size="11" lengthAdjust="spacing" textLength="70" x="29" y="550.4102">name : string</text><polygon fill="none" points="20,554.7305,24,558.7305,20,562.7305,16,558.7305" style="stroke:#B38D22;stroke-width:1.0;"/><text fill="#000000" font-family="sans-serif" font-size="11" lengthAdjust="spacing" textLength="91" x="29" y="563.3652">paused : boolean</text><polygon fill="none" points="20,567.6855,24,571.6855,20,575.6855,16,571.6855" style="stroke:#B38D22;stroke-width:1.0;"/><text fill="#000000" font-family="sans-serif" font-size="11" lengthAdjust="spacing" textLength="71" x="29" y="576.3203">scene : Scene</text><polygon fill="none" points="20,580.6406,24,584.6406,20,588.6406,16,584.6406" style="stroke:#B38D22;stroke-width:1.0;"/><text fill="#000000" font-family="sans-serif" font-size="11" lengthAdjust="spacing" textLength="80" x="29" y="589.2754">ySort : boolean</text><line style="stroke:#FF0000;stroke-width:1.5;" x1="10" x2="238" y1="595.5957" y2="595.5957"/><ellipse cx="20" cy="606.5957" fill="#84BE84" rx="3" ry="3" style="stroke:#038048;stroke-width:1.0;"/><text fill="#000000" font-family="sans-serif" font-size="11" lengthAdjust="spacing" textLength="179" x="29" y="610.2305">addNode(node: GameNode) : void</text><ellipse cx="20" cy="619.5508" fill="#84BE84" rx="3" ry="3" style="stroke:#038048;stroke-width:1.0;"/><text fill="#000000" font-family="sans-serif" font-size="11" lengthAdjust="spacing" textLength="78" x="29" y="623.1855">disable() : void</text><ellipse cx="20" cy="632.5059" fill="#84BE84" rx="3" ry="3" style="stroke:#038048;stroke-width:1.0;"/><text fill="#000000" font-family="sans-serif" font-size="11" lengthAdjust="spacing" textLength="75" x="29" y="636.1406">enable() : void</text><ellipse cx="20" cy="645.4609" fill="#84BE84" rx="3" ry="3" style="stroke:#038048;stroke-width:1.0;"/><text fill="#000000" font-family="sans-serif" font-size="11" lengthAdjust="spacing" textLength="107" x="29" y="649.0957">getAlpha() : number</text><ellipse cx="20" cy="658.416" fill="#84BE84" rx="3" ry="3" style="stroke:#038048;stroke-width:1.0;"/><text fill="#000000" font-family="sans-serif" font-size="11" lengthAdjust="spacing" textLength="108" x="29" y="662.0508">getDepth() : number</text><ellipse cx="20" cy="671.3711" fill="#84BE84" rx="3" ry="3" style="stroke:#038048;stroke-width:1.0;"/><text fill="#000000" font-family="sans-serif" font-size="11" lengthAdjust="spacing" textLength="129" x="29" y="675.0059">getItems() : GameNode[]</text><ellipse cx="20" cy="684.3262" fill="#84BE84" rx="3" ry="3" style="stroke:#038048;stroke-width:1.0;"/><text fill="#000000" font-family="sans-serif" font-size="11" lengthAdjust="spacing" textLength="96" x="29" y="687.9609">getName() : string</text><ellipse cx="20" cy="697.2813" fill="#84BE84" rx="3" ry="3" style="stroke:#038048;stroke-width:1.0;"/><text fill="#000000" font-family="sans-serif" font-size="11" lengthAdjust="spacing" textLength="106" x="29" y="700.916">getYSort() : boolean</text><ellipse cx="20" cy="710.2363" fill="#84BE84" rx="3" ry="3" style="stroke:#038048;stroke-width:1.0;"/><text fill="#000000" font-family="sans-serif" font-size="11" lengthAdjust="spacing" textLength="107" x="29" y="713.8711">isHidden() : boolean</text><ellipse cx="20" cy="723.1914" fill="#84BE84" rx="3" ry="3" style="stroke:#038048;stroke-width:1.0;"/><text fill="#000000" font-family="sans-serif" font-size="11" lengthAdjust="spacing" textLength="107" x="29" y="726.8262">isPaused() : boolean</text><ellipse cx="20" cy="736.1465" fill="#84BE84" rx="3" ry="3" style="stroke:#038048;stroke-width:1.0;"/><text fill="#000000" font-family="sans-serif" font-size="11" lengthAdjust="spacing" textLength="199" x="29" y="739.7813">removeNode(node: GameNode) : void</text><ellipse cx="20" cy="749.1016" fill="#84BE84" rx="3" ry="3" style="stroke:#038048;stroke-width:1.0;"/><text fill="#000000" font-family="sans-serif" font-size="11" lengthAdjust="spacing" textLength="164" x="29" y="752.7363">setAlpha(alpha: number) : void</text><ellipse cx="20" cy="762.0566" fill="#84BE84" rx="3" ry="3" style="stroke:#038048;stroke-width:1.0;"/><text fill="#000000" font-family="sans-serif" font-size="11" lengthAdjust="spacing" textLength="167" x="29" y="765.6914">setDepth(depth: number) : void</text><ellipse cx="20" cy="775.0117" fill="#84BE84" rx="3" ry="3" style="stroke:#038048;stroke-width:1.0;"/><text fill="#000000" font-family="sans-serif" font-size="11" lengthAdjust="spacing" textLength="180" x="29" y="778.6465">setHidden(hidden: boolean) : void</text><ellipse cx="20" cy="787.9668" fill="#84BE84" rx="3" ry="3" style="stroke:#038048;stroke-width:1.0;"/><text fill="#000000" font-family="sans-serif" font-size="11" lengthAdjust="spacing" textLength="204" x="29" y="791.6016">setPaused(pauseValue: boolean) : void</text><ellipse cx="20" cy="800.9219" fill="#84BE84" rx="3" ry="3" style="stroke:#038048;stroke-width:1.0;"/><text fill="#000000" font-family="sans-serif" font-size="11" lengthAdjust="spacing" textLength="162" x="29" y="804.5566">setYSort(ySort: boolean) : void</text><!--MD5=[7e1de7bacf3ccdcae3e76de04b35f0f9]
class ParallaxLayer--><rect codeLine="33" fill="#FEFECE" filter="url(#f1vckp4htlauoz)" height="371.877" id="ParallaxLayer" style="stroke:#FF0000;stroke-width:1.5;" width="230" x="9" y="7"/><ellipse cx="81.25" cy="23" fill="#ADD1B2" rx="11" ry="11" style="stroke:#FF0000;stroke-width:1.0;"/><path d="M83.7231,29.1431 Q83.1421,29.4419 82.5029,29.5913 Q81.8638,29.7407 81.1582,29.7407 Q78.6514,29.7407 77.3315,28.0889 Q76.0117,26.437 76.0117,23.3159 Q76.0117,20.1865 77.3315,18.5347 Q78.6514,16.8828 81.1582,16.8828 Q81.8638,16.8828 82.5112,17.0322 Q83.1587,17.1816 83.7231,17.4805 L83.7231,20.2031 Q83.0923,19.6221 82.4988,19.3523 Q81.9053,19.0825 81.2744,19.0825 Q79.9297,19.0825 79.2449,20.1492 Q78.5601,21.2158 78.5601,23.3159 Q78.5601,25.4077 79.2449,26.4744 Q79.9297,27.541 81.2744,27.541 Q81.9053,27.541 82.4988,27.2712 Q83.0923,27.0015 83.7231,26.4204 Z " fill="#000000"/><text fill="#000000" font-family="sans-serif" font-size="12" lengthAdjust="spacing" textLength="77" x="101.75" y="27.5352">ParallaxLayer</text><line style="stroke:#FF0000;stroke-width:1.5;" x1="10" x2="238" y1="39" y2="39"/><ellipse cx="20" cy="50" rx="3" ry="3" style="stroke:#038048;stroke-width:1.0;fill:none;"/><text fill="#000000" font-family="sans-serif" font-size="11" lengthAdjust="spacing" textLength="78" x="29" y="53.6348">parallax : Vec2</text><polygon fill="none" points="20,57.9551,24,61.9551,20,65.9551,16,61.9551" style="stroke:#B38D22;stroke-width:1.0;"/><text fill="#000000" font-family="sans-serif" font-size="11" lengthAdjust="spacing" textLength="80" x="29" y="66.5898">alpha : number</text><polygon fill="none" points="20,70.9102,24,74.9102,20,78.9102,16,74.9102" style="stroke:#B38D22;stroke-width:1.0;"/><text fill="#000000" font-family="sans-serif" font-size="11" lengthAdjust="spacing" textLength="82" x="29" y="79.5449">depth : number</text><polygon fill="none" points="20,83.8652,24,87.8652,20,91.8652,16,87.8652" style="stroke:#B38D22;stroke-width:1.0;"/><text fill="#000000" font-family="sans-serif" font-size="11" lengthAdjust="spacing" textLength="89" x="29" y="92.5">hidden : boolean</text><polygon fill="none" points="20,96.8203,24,100.8203,20,104.8203,16,100.8203" style="stroke:#B38D22;stroke-width:1.0;"/><text fill="#000000" font-family="sans-serif" font-size="11" lengthAdjust="spacing" textLength="104" x="29" y="105.4551">items : GameNode[]</text><polygon fill="none" points="20,109.7754,24,113.7754,20,117.7754,16,113.7754" style="stroke:#B38D22;stroke-width:1.0;"/><text fill="#000000" font-family="sans-serif" font-size="11" lengthAdjust="spacing" textLength="70" x="29" y="118.4102">name : string</text><polygon fill="none" points="20,122.7305,24,126.7305,20,130.7305,16,126.7305" style="stroke:#B38D22;stroke-width:1.0;"/><text fill="#000000" font-family="sans-serif" font-size="11" lengthAdjust="spacing" textLength="91" x="29" y="131.3652">paused : boolean</text><polygon fill="none" points="20,135.6855,24,139.6855,20,143.6855,16,139.6855" style="stroke:#B38D22;stroke-width:1.0;"/><text fill="#000000" font-family="sans-serif" font-size="11" lengthAdjust="spacing" textLength="71" x="29" y="144.3203">scene : Scene</text><polygon fill="none" points="20,148.6406,24,152.6406,20,156.6406,16,152.6406" style="stroke:#B38D22;stroke-width:1.0;"/><text fill="#000000" font-family="sans-serif" font-size="11" lengthAdjust="spacing" textLength="80" x="29" y="157.2754">ySort : boolean</text><line style="stroke:#FF0000;stroke-width:1.5;" x1="10" x2="238" y1="163.5957" y2="163.5957"/><ellipse cx="20" cy="174.5957" fill="#84BE84" rx="3" ry="3" style="stroke:#038048;stroke-width:1.0;"/><text fill="#000000" font-family="sans-serif" font-size="11" lengthAdjust="spacing" textLength="179" x="29" y="178.2305">addNode(node: GameNode) : void</text><ellipse cx="20" cy="187.5508" fill="#84BE84" rx="3" ry="3" style="stroke:#038048;stroke-width:1.0;"/><text fill="#000000" font-family="sans-serif" font-size="11" lengthAdjust="spacing" textLength="78" x="29" y="191.1855">disable() : void</text><ellipse cx="20" cy="200.5059" fill="#84BE84" rx="3" ry="3" style="stroke:#038048;stroke-width:1.0;"/><text fill="#000000" font-family="sans-serif" font-size="11" lengthAdjust="spacing" textLength="75" x="29" y="204.1406">enable() : void</text><ellipse cx="20" cy="213.4609" fill="#84BE84" rx="3" ry="3" style="stroke:#038048;stroke-width:1.0;"/><text fill="#000000" font-family="sans-serif" font-size="11" lengthAdjust="spacing" textLength="107" x="29" y="217.0957">getAlpha() : number</text><ellipse cx="20" cy="226.416" fill="#84BE84" rx="3" ry="3" style="stroke:#038048;stroke-width:1.0;"/><text fill="#000000" font-family="sans-serif" font-size="11" lengthAdjust="spacing" textLength="108" x="29" y="230.0508">getDepth() : number</text><ellipse cx="20" cy="239.3711" fill="#84BE84" rx="3" ry="3" style="stroke:#038048;stroke-width:1.0;"/><text fill="#000000" font-family="sans-serif" font-size="11" lengthAdjust="spacing" textLength="129" x="29" y="243.0059">getItems() : GameNode[]</text><ellipse cx="20" cy="252.3262" fill="#84BE84" rx="3" ry="3" style="stroke:#038048;stroke-width:1.0;"/><text fill="#000000" font-family="sans-serif" font-size="11" lengthAdjust="spacing" textLength="96" x="29" y="255.9609">getName() : string</text><ellipse cx="20" cy="265.2813" fill="#84BE84" rx="3" ry="3" style="stroke:#038048;stroke-width:1.0;"/><text fill="#000000" font-family="sans-serif" font-size="11" lengthAdjust="spacing" textLength="106" x="29" y="268.916">getYSort() : boolean</text><ellipse cx="20" cy="278.2363" fill="#84BE84" rx="3" ry="3" style="stroke:#038048;stroke-width:1.0;"/><text fill="#000000" font-family="sans-serif" font-size="11" lengthAdjust="spacing" textLength="107" x="29" y="281.8711">isHidden() : boolean</text><ellipse cx="20" cy="291.1914" fill="#84BE84" rx="3" ry="3" style="stroke:#038048;stroke-width:1.0;"/><text fill="#000000" font-family="sans-serif" font-size="11" lengthAdjust="spacing" textLength="107" x="29" y="294.8262">isPaused() : boolean</text><ellipse cx="20" cy="304.1465" fill="#84BE84" rx="3" ry="3" style="stroke:#038048;stroke-width:1.0;"/><text fill="#000000" font-family="sans-serif" font-size="11" lengthAdjust="spacing" textLength="199" x="29" y="307.7813">removeNode(node: GameNode) : void</text><ellipse cx="20" cy="317.1016" fill="#84BE84" rx="3" ry="3" style="stroke:#038048;stroke-width:1.0;"/><text fill="#000000" font-family="sans-serif" font-size="11" lengthAdjust="spacing" textLength="164" x="29" y="320.7363">setAlpha(alpha: number) : void</text><ellipse cx="20" cy="330.0566" fill="#84BE84" rx="3" ry="3" style="stroke:#038048;stroke-width:1.0;"/><text fill="#000000" font-family="sans-serif" font-size="11" lengthAdjust="spacing" textLength="167" x="29" y="333.6914">setDepth(depth: number) : void</text><ellipse cx="20" cy="343.0117" fill="#84BE84" rx="3" ry="3" style="stroke:#038048;stroke-width:1.0;"/><text fill="#000000" font-family="sans-serif" font-size="11" lengthAdjust="spacing" textLength="180" x="29" y="346.6465">setHidden(hidden: boolean) : void</text><ellipse cx="20" cy="355.9668" fill="#84BE84" rx="3" ry="3" style="stroke:#038048;stroke-width:1.0;"/><text fill="#000000" font-family="sans-serif" font-size="11" lengthAdjust="spacing" textLength="204" x="29" y="359.6016">setPaused(pauseValue: boolean) : void</text><ellipse cx="20" cy="368.9219" fill="#84BE84" rx="3" ry="3" style="stroke:#038048;stroke-width:1.0;"/><text fill="#000000" font-family="sans-serif" font-size="11" lengthAdjust="spacing" textLength="162" x="29" y="372.5566">setYSort(ySort: boolean) : void</text><!--MD5=[5ee82f7e945f78be041e2097083ae5af]
reverse link ParallaxLayer to UILayer--><path codeLine="60" d="M124,399.2 C124,412.44 124,425.74 124,438.88 " fill="none" id="ParallaxLayer-backto-UILayer" style="stroke:#FF0000;stroke-width:1.0;"/><polygon fill="none" points="117,399.17,124,379.17,131,399.17,117,399.17" style="stroke:#FF0000;stroke-width:1.0;"/><!--MD5=[98af903d95f301ac57e26378d231cf6f]
@startuml
skinparam ClassArrowColor #ff0000
skinparam ClassBorderColor #ff0000
skinparam BackgroundColor transparent
hide empty methods
hide empty fields
class "UILayer" {
    +parallax : Vec2
    #alpha : number
    #depth : number
    #hidden : boolean
    #items : GameNode[]
    #name : string
    #paused : boolean
    #scene : Scene
    #ySort : boolean
    +addNode(node: GameNode) : void
    +disable() : void
    +enable() : void
    +getAlpha() : number
    +getDepth() : number
    +getItems() : GameNode[]
    +getName() : string
    +getYSort() : boolean
    +isHidden() : boolean
    +isPaused() : boolean
    +removeNode(node: GameNode) : void
    +setAlpha(alpha: number) : void
    +setDepth(depth: number) : void
    +setHidden(hidden: boolean) : void
    +setPaused(pauseValue: boolean) : void
    +setYSort(ySort: boolean) : void
}
class "ParallaxLayer" {
    +parallax : Vec2
    #alpha : number
    #depth : number
    #hidden : boolean
    #items : GameNode[]
    #name : string
    #paused : boolean
    #scene : Scene
    #ySort : boolean
    +addNode(node: GameNode) : void
    +disable() : void
    +enable() : void
    +getAlpha() : number
    +getDepth() : number
    +getItems() : GameNode[]
    +getName() : string
    +getYSort() : boolean
    +isHidden() : boolean
    +isPaused() : boolean
    +removeNode(node: GameNode) : void
    +setAlpha(alpha: number) : void
    +setDepth(depth: number) : void
    +setHidden(hidden: boolean) : void
    +setPaused(pauseValue: boolean) : void
    +setYSort(ySort: boolean) : void
}
"ParallaxLayer" <|- - "UILayer"
@enduml

PlantUML version 1.2021.14(Fri Nov 12 11:46:50 EST 2021)
(GPL source distribution)
Java Runtime: Java(TM) SE Runtime Environment
JVM: Java HotSpot(TM) 64-Bit Server VM
Default Encoding: UTF-8
Language: en
Country: US
--></g></svg>