<?xml version="1.0" encoding="UTF-8" standalone="no"?><svg xmlns="http://www.w3.org/2000/svg" xmlns:xlink="http://www.w3.org/1999/xlink" contentScriptType="application/ecmascript" contentStyleType="text/css" height="145px" preserveAspectRatio="none" style="width:118px;height:145px;background:#00000000;" version="1.1" viewBox="0 0 118 145" width="118px" zoomAndPan="magnify"><defs><filter height="300%" id="faixe93l67isi" width="300%" x="-1" y="-1"><feGaussianBlur result="blurOut" stdDeviation="2.0"/><feColorMatrix in="blurOut" result="blurOut2" type="matrix" values="0 0 0 0 0 0 0 0 0 0 0 0 0 0 0 0 0 0 .4 0"/><feOffset dx="4.0" dy="4.0" in="blurOut2" result="blurOut3"/><feBlend in="SourceGraphic" in2="blurOut3" mode="normal"/></filter></defs><g><!--MD5=[791f77162237d0bfa3ea62b7dc12691d]
class Unique--><rect codeLine="6" fill="#FEFECE" filter="url(#faixe93l67isi)" height="32" id="Unique" style="stroke:#FF0000;stroke-width:1.5;" width="72" x="19.5" y="7"/><ellipse cx="34.5" cy="23" fill="#B4A7E5" rx="11" ry="11" style="stroke:#FF0000;stroke-width:1.0;"/><path d="M30.9277,19.2651 L30.9277,17.1069 L38.3071,17.1069 L38.3071,19.2651 L35.8418,19.2651 L35.8418,27.3418 L38.3071,27.3418 L38.3071,29.5 L30.9277,29.5 L30.9277,27.3418 L33.3931,27.3418 L33.3931,19.2651 Z " fill="#000000"/><text fill="#000000" font-family="sans-serif" font-size="12" font-style="italic" lengthAdjust="spacing" textLength="40" x="48.5" y="27.5352">Unique</text><!--MD5=[372f7354164cd38fc5cfe01cbfd4962a]
class GameNode--><rect codeLine="8" fill="#FEFECE" filter="url(#faixe93l67isi)" height="32" id="GameNode" style="stroke:#FF0000;stroke-width:1.5;" width="97" x="7" y="99"/><ellipse cx="22" cy="115" fill="#A9DCDF" rx="11" ry="11" style="stroke:#FF0000;stroke-width:1.0;"/><path d="M21.8633,110.3481 L20.7095,115.4199 L23.0254,115.4199 Z M20.3691,108.1069 L23.3657,108.1069 L26.7109,120.5 L24.2622,120.5 L23.4985,117.437 L20.2197,117.437 L19.4727,120.5 L17.0239,120.5 Z " fill="#000000"/><text fill="#000000" font-family="sans-serif" font-size="12" font-style="italic" lengthAdjust="spacing" textLength="65" x="36" y="119.5352">GameNode</text><!--MD5=[fc11cd5f43146ebdedae4dd40e58c8e2]
reverse link Unique to GameNode--><path codeLine="10" d="M55.5,59.61 C55.5,73.31 55.5,88.22 55.5,98.96 " fill="none" id="Unique-backto-GameNode" style="stroke:#FF0000;stroke-width:1.0;stroke-dasharray:7.0,7.0;"/><polygon fill="none" points="48.5,59.27,55.5,39.27,62.5,59.27,48.5,59.27" style="stroke:#FF0000;stroke-width:1.0;"/><!--MD5=[9a7de2b6347a734453b18381ed848ef0]
@startuml
skinparam ClassArrowColor #ff0000
skinparam ClassBorderColor #ff0000
skinparam BackgroundColor transparent
hide empty methods
hide empty fields
interface "Unique" {
}
abstract class "GameNode" {
}
"Unique" <|.. "GameNode"
@enduml

PlantUML version 1.2021.14(Fri Nov 12 11:46:50 EST 2021)
(GPL source distribution)
Java Runtime: Java(TM) SE Runtime Environment
JVM: Java HotSpot(TM) 64-Bit Server VM
Default Encoding: UTF-8
Language: en
Country: US
--></g></svg>