<?xml version="1.0" encoding="UTF-8" standalone="no"?><svg xmlns="http://www.w3.org/2000/svg" xmlns:xlink="http://www.w3.org/1999/xlink" contentScriptType="application/ecmascript" contentStyleType="text/css" height="924px" preserveAspectRatio="none" style="width:344px;height:924px;background:#00000000;" version="1.1" viewBox="0 0 344 924" width="344px" zoomAndPan="magnify"><defs><filter height="300%" id="f1xlcfczfznctq" width="300%" x="-1" y="-1"><feGaussianBlur result="blurOut" stdDeviation="2.0"/><feColorMatrix in="blurOut" result="blurOut2" type="matrix" values="0 0 0 0 0 0 0 0 0 0 0 0 0 0 0 0 0 0 .4 0"/><feOffset dx="4.0" dy="4.0" in="blurOut2" result="blurOut3"/><feBlend in="SourceGraphic" in2="blurOut3" mode="normal"/></filter></defs><g><!--MD5=[8336922478991a54f539d469b4e48cc0]
class Updateable--><rect codeLine="7" fill="#FEFECE" filter="url(#f1xlcfczfznctq)" height="32" id="Updateable" style="stroke:#FF0000;stroke-width:1.5;" width="99" x="7" y="443"/><ellipse cx="22" cy="459" fill="#B4A7E5" rx="11" ry="11" style="stroke:#FF0000;stroke-width:1.0;"/><path d="M18.4277,455.2651 L18.4277,453.1069 L25.8071,453.1069 L25.8071,455.2651 L23.3418,455.2651 L23.3418,463.3418 L25.8071,463.3418 L25.8071,465.5 L18.4277,465.5 L18.4277,463.3418 L20.8931,463.3418 L20.8931,455.2651 Z " fill="#000000"/><text fill="#000000" font-family="sans-serif" font-size="12" font-style="italic" lengthAdjust="spacing" textLength="67" x="36" y="463.5352">Updateable</text><!--MD5=[d755c5174fbc4166a0b82a39f0ad1a0e]
class AI--><rect codeLine="9" fill="#FEFECE" filter="url(#f1xlcfczfznctq)" height="32" id="AI" style="stroke:#FF0000;stroke-width:1.5;" width="43" x="226.5" y="7"/><ellipse cx="241.5" cy="23" fill="#B4A7E5" rx="11" ry="11" style="stroke:#FF0000;stroke-width:1.0;"/><path d="M237.9277,19.2651 L237.9277,17.1069 L245.3071,17.1069 L245.3071,19.2651 L242.8418,19.2651 L242.8418,27.3418 L245.3071,27.3418 L245.3071,29.5 L237.9277,29.5 L237.9277,27.3418 L240.3931,27.3418 L240.3931,19.2651 Z " fill="#000000"/><text fill="#000000" font-family="sans-serif" font-size="12" font-style="italic" lengthAdjust="spacing" textLength="11" x="255.5" y="27.5352">AI</text><!--MD5=[3fb99073a4a5a190dfd5e05004425094]
class GoapAI--><rect codeLine="12" fill="#FEFECE" filter="url(#f1xlcfczfznctq)" height="32" id="GoapAI" style="stroke:#FF0000;stroke-width:1.5;" width="74" x="211" y="74"/><ellipse cx="226" cy="90" fill="#B4A7E5" rx="11" ry="11" style="stroke:#FF0000;stroke-width:1.0;"/><path d="M222.4277,86.2651 L222.4277,84.1069 L229.8071,84.1069 L229.8071,86.2651 L227.3418,86.2651 L227.3418,94.3418 L229.8071,94.3418 L229.8071,96.5 L222.4277,96.5 L222.4277,94.3418 L224.8931,94.3418 L224.8931,86.2651 Z " fill="#000000"/><text fill="#000000" font-family="sans-serif" font-size="12" font-style="italic" lengthAdjust="spacing" textLength="42" x="240" y="94.5352">GoapAI</text><!--MD5=[2f952d4aa9e2b4b658a5bf7b7ae30090]
class AIManager--><rect codeLine="15" fill="#FEFECE" filter="url(#f1xlcfczfznctq)" height="32" id="AIManager" style="stroke:#FF0000;stroke-width:1.5;" width="93" x="201.5" y="141"/><ellipse cx="216.5" cy="157" fill="#ADD1B2" rx="11" ry="11" style="stroke:#FF0000;stroke-width:1.0;"/><path d="M218.9731,163.1431 Q218.3921,163.4419 217.7529,163.5913 Q217.1138,163.7407 216.4082,163.7407 Q213.9014,163.7407 212.5815,162.0889 Q211.2617,160.437 211.2617,157.3159 Q211.2617,154.1865 212.5815,152.5347 Q213.9014,150.8828 216.4082,150.8828 Q217.1138,150.8828 217.7612,151.0322 Q218.4087,151.1816 218.9731,151.4805 L218.9731,154.2031 Q218.3423,153.6221 217.7488,153.3523 Q217.1553,153.0825 216.5244,153.0825 Q215.1797,153.0825 214.4949,154.1492 Q213.8101,155.2158 213.8101,157.3159 Q213.8101,159.4077 214.4949,160.4744 Q215.1797,161.541 216.5244,161.541 Q217.1553,161.541 217.7488,161.2712 Q218.3423,161.0015 218.9731,160.4204 Z " fill="#000000"/><text fill="#000000" font-family="sans-serif" font-size="12" lengthAdjust="spacing" textLength="61" x="230.5" y="161.5352">AIManager</text><!--MD5=[ae502c27f70242ed1e04d7ee725c894e]
class BattleSystem--><rect codeLine="18" fill="#FEFECE" filter="url(#f1xlcfczfznctq)" height="32" id="BattleSystem" style="stroke:#FF0000;stroke-width:1.5;" width="104" x="196" y="208"/><ellipse cx="211" cy="224" fill="#A9DCDF" rx="11" ry="11" style="stroke:#FF0000;stroke-width:1.0;"/><path d="M210.8633,219.3481 L209.7095,224.4199 L212.0254,224.4199 Z M209.3691,217.1069 L212.3657,217.1069 L215.7109,229.5 L213.2622,229.5 L212.4985,226.437 L209.2197,226.437 L208.4727,229.5 L206.0239,229.5 Z " fill="#000000"/><text fill="#000000" font-family="sans-serif" font-size="12" font-style="italic" lengthAdjust="spacing" textLength="72" x="225" y="228.5352">BattleSystem</text><!--MD5=[372f7354164cd38fc5cfe01cbfd4962a]
class GameNode--><rect codeLine="21" fill="#FEFECE" filter="url(#f1xlcfczfznctq)" height="32" id="GameNode" style="stroke:#FF0000;stroke-width:1.5;" width="97" x="199.5" y="275"/><ellipse cx="214.5" cy="291" fill="#A9DCDF" rx="11" ry="11" style="stroke:#FF0000;stroke-width:1.0;"/><path d="M214.3633,286.3481 L213.2095,291.4199 L215.5254,291.4199 Z M212.8691,284.1069 L215.8657,284.1069 L219.2109,296.5 L216.7622,296.5 L215.9985,293.437 L212.7197,293.437 L211.9727,296.5 L209.5239,296.5 Z " fill="#000000"/><text fill="#000000" font-family="sans-serif" font-size="12" font-style="italic" lengthAdjust="spacing" textLength="65" x="228.5" y="295.5352">GameNode</text><!--MD5=[a5d571cdf103920f667847300ea9d1e8]
class ParticleSystem--><rect codeLine="24" fill="#FEFECE" filter="url(#f1xlcfczfznctq)" height="32" id="ParticleSystem" style="stroke:#FF0000;stroke-width:1.5;" width="114" x="191" y="342"/><ellipse cx="206" cy="358" fill="#ADD1B2" rx="11" ry="11" style="stroke:#FF0000;stroke-width:1.0;"/><path d="M208.4731,364.1431 Q207.8921,364.4419 207.2529,364.5913 Q206.6138,364.7407 205.9082,364.7407 Q203.4014,364.7407 202.0815,363.0889 Q200.7617,361.437 200.7617,358.3159 Q200.7617,355.1865 202.0815,353.5347 Q203.4014,351.8828 205.9082,351.8828 Q206.6138,351.8828 207.2612,352.0322 Q207.9087,352.1816 208.4731,352.4805 L208.4731,355.2031 Q207.8423,354.6221 207.2488,354.3523 Q206.6553,354.0825 206.0244,354.0825 Q204.6797,354.0825 203.9949,355.1492 Q203.3101,356.2158 203.3101,358.3159 Q203.3101,360.4077 203.9949,361.4744 Q204.6797,362.541 206.0244,362.541 Q206.6553,362.541 207.2488,362.2712 Q207.8423,362.0015 208.4731,361.4204 Z " fill="#000000"/><text fill="#000000" font-family="sans-serif" font-size="12" lengthAdjust="spacing" textLength="82" x="220" y="362.5352">ParticleSystem</text><!--MD5=[91f96034cbab5b6284938c248b674893]
class ParticleSystemManager--><rect codeLine="27" fill="#FEFECE" filter="url(#f1xlcfczfznctq)" height="32" id="ParticleSystemManager" style="stroke:#FF0000;stroke-width:1.5;" width="164" x="166" y="409"/><ellipse cx="181" cy="425" fill="#ADD1B2" rx="11" ry="11" style="stroke:#FF0000;stroke-width:1.0;"/><path d="M183.4731,431.1431 Q182.8921,431.4419 182.2529,431.5913 Q181.6138,431.7407 180.9082,431.7407 Q178.4014,431.7407 177.0815,430.0889 Q175.7617,428.437 175.7617,425.3159 Q175.7617,422.1865 177.0815,420.5347 Q178.4014,418.8828 180.9082,418.8828 Q181.6138,418.8828 182.2612,419.0322 Q182.9087,419.1816 183.4731,419.4805 L183.4731,422.2031 Q182.8423,421.6221 182.2488,421.3523 Q181.6553,421.0825 181.0244,421.0825 Q179.6797,421.0825 178.9949,422.1492 Q178.3101,423.2158 178.3101,425.3159 Q178.3101,427.4077 178.9949,428.4744 Q179.6797,429.541 181.0244,429.541 Q181.6553,429.541 182.2488,429.2712 Q182.8423,429.0015 183.4731,428.4204 Z " fill="#000000"/><text fill="#000000" font-family="sans-serif" font-size="12" lengthAdjust="spacing" textLength="132" x="195" y="429.5352">ParticleSystemManager</text><!--MD5=[84ad90da8a72978c983c597bd934c6f7]
class PhysicsManager--><rect codeLine="30" fill="#FEFECE" filter="url(#f1xlcfczfznctq)" height="32" id="PhysicsManager" style="stroke:#FF0000;stroke-width:1.5;" width="123" x="186.5" y="476"/><ellipse cx="201.5" cy="492" fill="#A9DCDF" rx="11" ry="11" style="stroke:#FF0000;stroke-width:1.0;"/><path d="M201.3633,487.3481 L200.2095,492.4199 L202.5254,492.4199 Z M199.8691,485.1069 L202.8657,485.1069 L206.2109,497.5 L203.7622,497.5 L202.9985,494.437 L199.7197,494.437 L198.9727,497.5 L196.5239,497.5 Z " fill="#000000"/><text fill="#000000" font-family="sans-serif" font-size="12" font-style="italic" lengthAdjust="spacing" textLength="91" x="215.5" y="496.5352">PhysicsManager</text><!--MD5=[e4faacc5b8aef66b11ab0c816bbbc7f8]
class Scene--><rect codeLine="33" fill="#FEFECE" filter="url(#f1xlcfczfznctq)" height="32" id="Scene" style="stroke:#FF0000;stroke-width:1.5;" width="65" x="215.5" y="543"/><ellipse cx="230.5" cy="559" fill="#ADD1B2" rx="11" ry="11" style="stroke:#FF0000;stroke-width:1.0;"/><path d="M232.9731,565.1431 Q232.3921,565.4419 231.7529,565.5913 Q231.1138,565.7407 230.4082,565.7407 Q227.9014,565.7407 226.5815,564.0889 Q225.2617,562.437 225.2617,559.3159 Q225.2617,556.1865 226.5815,554.5347 Q227.9014,552.8828 230.4082,552.8828 Q231.1138,552.8828 231.7612,553.0322 Q232.4087,553.1816 232.9731,553.4805 L232.9731,556.2031 Q232.3423,555.6221 231.7488,555.3523 Q231.1553,555.0825 230.5244,555.0825 Q229.1797,555.0825 228.4949,556.1492 Q227.8101,557.2158 227.8101,559.3159 Q227.8101,561.4077 228.4949,562.4744 Q229.1797,563.541 230.5244,563.541 Q231.1553,563.541 231.7488,563.2712 Q232.3423,563.0015 232.9731,562.4204 Z " fill="#000000"/><text fill="#000000" font-family="sans-serif" font-size="12" lengthAdjust="spacing" textLength="33" x="244.5" y="563.5352">Scene</text><!--MD5=[60d6b92408f98aed8df94d5c6e04aa63]
class State--><rect codeLine="36" fill="#FEFECE" filter="url(#f1xlcfczfznctq)" height="32" id="State" style="stroke:#FF0000;stroke-width:1.5;" width="60" x="218" y="610"/><ellipse cx="233" cy="626" fill="#A9DCDF" rx="11" ry="11" style="stroke:#FF0000;stroke-width:1.0;"/><path d="M232.8633,621.3481 L231.7095,626.4199 L234.0254,626.4199 Z M231.3691,619.1069 L234.3657,619.1069 L237.7109,631.5 L235.2622,631.5 L234.4985,628.437 L231.2197,628.437 L230.4727,631.5 L228.0239,631.5 Z " fill="#000000"/><text fill="#000000" font-family="sans-serif" font-size="12" font-style="italic" lengthAdjust="spacing" textLength="28" x="247" y="630.5352">State</text><!--MD5=[3626c233e602113c8cf5977cfac9c02f]
class StateMachine--><rect codeLine="39" fill="#FEFECE" filter="url(#f1xlcfczfznctq)" height="32" id="StateMachine" style="stroke:#FF0000;stroke-width:1.5;" width="107" x="194.5" y="677"/><ellipse cx="209.5" cy="693" fill="#ADD1B2" rx="11" ry="11" style="stroke:#FF0000;stroke-width:1.0;"/><path d="M211.9731,699.1431 Q211.3921,699.4419 210.7529,699.5913 Q210.1138,699.7407 209.4082,699.7407 Q206.9014,699.7407 205.5815,698.0889 Q204.2617,696.437 204.2617,693.3159 Q204.2617,690.1865 205.5815,688.5347 Q206.9014,686.8828 209.4082,686.8828 Q210.1138,686.8828 210.7612,687.0322 Q211.4087,687.1816 211.9731,687.4805 L211.9731,690.2031 Q211.3423,689.6221 210.7488,689.3523 Q210.1553,689.0825 209.5244,689.0825 Q208.1797,689.0825 207.4949,690.1492 Q206.8101,691.2158 206.8101,693.3159 Q206.8101,695.4077 207.4949,696.4744 Q208.1797,697.541 209.5244,697.541 Q210.1553,697.541 210.7488,697.2712 Q211.3423,697.0015 211.9731,696.4204 Z " fill="#000000"/><text fill="#000000" font-family="sans-serif" font-size="12" lengthAdjust="spacing" textLength="75" x="223.5" y="697.5352">StateMachine</text><!--MD5=[1b844c90688aafb95cd8c95626c3b83a]
class Timer--><rect codeLine="42" fill="#FEFECE" filter="url(#f1xlcfczfznctq)" height="32" id="Timer" style="stroke:#FF0000;stroke-width:1.5;" width="66" x="215" y="744"/><ellipse cx="230" cy="760" fill="#ADD1B2" rx="11" ry="11" style="stroke:#FF0000;stroke-width:1.0;"/><path d="M232.4731,766.1431 Q231.8921,766.4419 231.2529,766.5913 Q230.6138,766.7407 229.9082,766.7407 Q227.4014,766.7407 226.0815,765.0889 Q224.7617,763.437 224.7617,760.3159 Q224.7617,757.1865 226.0815,755.5347 Q227.4014,753.8828 229.9082,753.8828 Q230.6138,753.8828 231.2612,754.0322 Q231.9087,754.1816 232.4731,754.4805 L232.4731,757.2031 Q231.8423,756.6221 231.2488,756.3523 Q230.6553,756.0825 230.0244,756.0825 Q228.6797,756.0825 227.9949,757.1492 Q227.3101,758.2158 227.3101,760.3159 Q227.3101,762.4077 227.9949,763.4744 Q228.6797,764.541 230.0244,764.541 Q230.6553,764.541 231.2488,764.2712 Q231.8423,764.0015 232.4731,763.4204 Z " fill="#000000"/><text fill="#000000" font-family="sans-serif" font-size="12" lengthAdjust="spacing" textLength="34" x="244" y="764.5352">Timer</text><!--MD5=[404759703514bcddc843241aa50f0a33]
class TimerManager--><rect codeLine="45" fill="#FEFECE" filter="url(#f1xlcfczfznctq)" height="32" id="TimerManager" style="stroke:#FF0000;stroke-width:1.5;" width="116" x="190" y="811"/><ellipse cx="205" cy="827" fill="#ADD1B2" rx="11" ry="11" style="stroke:#FF0000;stroke-width:1.0;"/><path d="M207.4731,833.1431 Q206.8921,833.4419 206.2529,833.5913 Q205.6138,833.7407 204.9082,833.7407 Q202.4014,833.7407 201.0815,832.0889 Q199.7617,830.437 199.7617,827.3159 Q199.7617,824.1865 201.0815,822.5347 Q202.4014,820.8828 204.9082,820.8828 Q205.6138,820.8828 206.2612,821.0322 Q206.9087,821.1816 207.4731,821.4805 L207.4731,824.2031 Q206.8423,823.6221 206.2488,823.3523 Q205.6553,823.0825 205.0244,823.0825 Q203.6797,823.0825 202.9949,824.1492 Q202.3101,825.2158 202.3101,827.3159 Q202.3101,829.4077 202.9949,830.4744 Q203.6797,831.541 205.0244,831.541 Q205.6553,831.541 206.2488,831.2712 Q206.8423,831.0015 207.4731,830.4204 Z " fill="#000000"/><text fill="#000000" font-family="sans-serif" font-size="12" lengthAdjust="spacing" textLength="84" x="219" y="831.5352">TimerManager</text><!--MD5=[5ae3b1e655ba73d3c2cb391889291456]
class TweenManager--><rect codeLine="48" fill="#FEFECE" filter="url(#f1xlcfczfznctq)" height="32" id="TweenManager" style="stroke:#FF0000;stroke-width:1.5;" width="120" x="188" y="878"/><ellipse cx="203" cy="894" fill="#ADD1B2" rx="11" ry="11" style="stroke:#FF0000;stroke-width:1.0;"/><path d="M205.4731,900.1431 Q204.8921,900.4419 204.2529,900.5913 Q203.6138,900.7407 202.9082,900.7407 Q200.4014,900.7407 199.0815,899.0889 Q197.7617,897.437 197.7617,894.3159 Q197.7617,891.1865 199.0815,889.5347 Q200.4014,887.8828 202.9082,887.8828 Q203.6138,887.8828 204.2612,888.0322 Q204.9087,888.1816 205.4731,888.4805 L205.4731,891.2031 Q204.8423,890.6221 204.2488,890.3523 Q203.6553,890.0825 203.0244,890.0825 Q201.6797,890.0825 200.9949,891.1492 Q200.3101,892.2158 200.3101,894.3159 Q200.3101,896.4077 200.9949,897.4744 Q201.6797,898.541 203.0244,898.541 Q203.6553,898.541 204.2488,898.2712 Q204.8423,898.0015 205.4731,897.4204 Z " fill="#000000"/><text fill="#000000" font-family="sans-serif" font-size="12" lengthAdjust="spacing" textLength="88" x="217" y="898.5352">TweenManager</text><!--MD5=[c5e8ac391f407d9b8396aceaeb34a98c]
reverse link Updateable to AI--><path codeLine="11" d="M57.07,422.36 C58.12,345 71.24,163.29 166,56 C181.58,38.36 207.99,29.98 226.4,26.12 " fill="none" id="Updateable-backto-AI" style="stroke:#FF0000;stroke-width:1.0;"/><polygon fill="none" points="64.07,422.83,57.05,442.82,50.07,422.82,64.07,422.83" style="stroke:#FF0000;stroke-width:1.0;"/><!--MD5=[c0768d1f10b828a0078072e007f6536b]
reverse link Updateable to GoapAI--><path codeLine="14" d="M59.42,422.99 C64.87,355.58 85.81,209.4 166,123 C177.78,110.31 195.13,102.38 210.75,97.48 " fill="none" id="Updateable-backto-GoapAI" style="stroke:#FF0000;stroke-width:1.0;"/><polygon fill="none" points="66.4,423.48,58.08,442.97,52.43,422.55,66.4,423.48" style="stroke:#FF0000;stroke-width:1.0;"/><!--MD5=[52c0d270cfdc9e964512c93fec264120]
reverse link Updateable to AIManager--><path codeLine="17" d="M62.81,423.21 C73,366.53 100.4,255.83 166,190 C175.65,180.32 188.52,173.37 201.16,168.42 " fill="none" id="Updateable-backto-AIManager" style="stroke:#FF0000;stroke-width:1.0;stroke-dasharray:7.0,7.0;"/><polygon fill="none" points="69.71,424.39,59.57,443,55.89,422.13,69.71,424.39" style="stroke:#FF0000;stroke-width:1.0;"/><!--MD5=[116a87e6de8842d7780aca7d13997841]
reverse link Updateable to BattleSystem--><path codeLine="20" d="M68.23,423.41 C83.33,378.91 114.86,302.99 166,257 C174.58,249.28 185.21,243.24 195.91,238.56 " fill="none" id="Updateable-backto-BattleSystem" style="stroke:#FF0000;stroke-width:1.0;stroke-dasharray:7.0,7.0;"/><polygon fill="none" points="74.81,425.81,62.05,442.73,61.48,421.54,74.81,425.81" style="stroke:#FF0000;stroke-width:1.0;"/><!--MD5=[6b79549698de2a4321184331f92f8fc2]
reverse link Updateable to GameNode--><path codeLine="23" d="M77.4,425.52 C96.75,395.44 128.64,351.84 166,324 C175.98,316.56 187.88,310.5 199.45,305.7 " fill="none" id="Updateable-backto-GameNode" style="stroke:#FF0000;stroke-width:1.0;stroke-dasharray:7.0,7.0;"/><polygon fill="none" points="83.29,429.32,66.8,442.63,71.38,421.94,83.29,429.32" style="stroke:#FF0000;stroke-width:1.0;"/><!--MD5=[2c81f38aa7c645692de43af99970730f]
reverse link Updateable to ParticleSystem--><path codeLine="26" d="M97.4,431.67 C117.49,418.52 142.52,403.03 166,391 C177.89,384.91 191.18,379.11 203.5,374.11 " fill="none" id="Updateable-backto-ParticleSystem" style="stroke:#FF0000;stroke-width:1.0;stroke-dasharray:7.0,7.0;"/><polygon fill="none" points="101.04,437.66,80.52,442.93,93.27,426.01,101.04,437.66" style="stroke:#FF0000;stroke-width:1.0;"/><!--MD5=[fb9ed3900386e42c86f62469b304d261]
reverse link Updateable to ParticleSystemManager--><path codeLine="29" d="M126.31,446.65 C139.09,444.36 152.55,441.95 165.65,439.6 " fill="none" id="Updateable-backto-ParticleSystemManager" style="stroke:#FF0000;stroke-width:1.0;stroke-dasharray:7.0,7.0;"/><polygon fill="none" points="127.22,453.6,106.3,450.24,124.75,439.82,127.22,453.6" style="stroke:#FF0000;stroke-width:1.0;"/><!--MD5=[c2b150d3c5ac8bfe69c3f1fa48cf54bb]
reverse link Updateable to PhysicsManager--><path codeLine="32" d="M126.13,470.95 C145.88,474.39 167.28,478.12 186.5,481.46 " fill="none" id="Updateable-backto-PhysicsManager" style="stroke:#FF0000;stroke-width:1.0;stroke-dasharray:7.0,7.0;"/><polygon fill="none" points="124.8,477.83,106.3,467.5,127.21,464.03,124.8,477.83" style="stroke:#FF0000;stroke-width:1.0;"/><!--MD5=[07a461f2143bf4eaf21886bcd04fe725]
reverse link Updateable to Scene--><path codeLine="35" d="M98.33,485.83 C118.33,498.44 143,513.26 166,525 C181.89,533.11 200.18,540.91 215.35,546.99 " fill="none" id="Updateable-backto-Scene" style="stroke:#FF0000;stroke-width:1.0;stroke-dasharray:7.0,7.0;"/><polygon fill="none" points="94.52,491.7,81.47,475.01,102.08,479.91,94.52,491.7" style="stroke:#FF0000;stroke-width:1.0;"/><!--MD5=[e69b222742f49335ab86287f8b6feabb]
reverse link Updateable to State--><path codeLine="38" d="M77.86,492.3 C97.36,521.85 129.19,564.48 166,592 C181.51,603.6 201.57,612.06 217.84,617.64 " fill="none" id="Updateable-backto-State" style="stroke:#FF0000;stroke-width:1.0;stroke-dasharray:7.0,7.0;"/><polygon fill="none" points="71.72,495.7,66.9,475.07,83.54,488.19,71.72,495.7" style="stroke:#FF0000;stroke-width:1.0;"/><!--MD5=[3bc2cdcd3300b9dedc3e2850aa3bb253]
reverse link Updateable to StateMachine--><path codeLine="41" d="M68.4,494.15 C83.68,538.13 115.4,613.2 166,659 C174.14,666.37 184.11,672.28 194.24,676.97 " fill="none" id="Updateable-backto-StateMachine" style="stroke:#FF0000;stroke-width:1.0;stroke-dasharray:7.0,7.0;"/><polygon fill="none" points="61.73,496.26,62.13,475.07,75.03,491.89,61.73,496.26" style="stroke:#FF0000;stroke-width:1.0;"/><!--MD5=[d858eeb92a897e4330e7c0f0f0660963]
reverse link Updateable to Timer--><path codeLine="44" d="M63.11,495.23 C73.63,551.61 101.38,660.64 166,726 C179.19,739.34 198.4,747.71 214.81,752.81 " fill="none" id="Updateable-backto-Timer" style="stroke:#FF0000;stroke-width:1.0;stroke-dasharray:7.0,7.0;"/><polygon fill="none" points="56.15,496.07,59.69,475.17,69.96,493.71,56.15,496.07" style="stroke:#FF0000;stroke-width:1.0;"/><!--MD5=[82ffbed68aa78aa624da5b0f3a7d1628]
reverse link Updateable to TimerManager--><path codeLine="47" d="M59.64,495.63 C65.47,562.91 86.98,707.11 166,793 C172.81,800.41 181.5,806.26 190.64,810.86 " fill="none" id="Updateable-backto-TimerManager" style="stroke:#FF0000;stroke-width:1.0;stroke-dasharray:7.0,7.0;"/><polygon fill="none" points="52.63,495.72,58.17,475.27,66.6,494.71,52.63,495.72" style="stroke:#FF0000;stroke-width:1.0;"/><!--MD5=[edf8cc892da7335a6d2af022deeec4a2]
reverse link Updateable to TweenManager--><path codeLine="50" d="M57.21,495.38 C58.55,572.22 72.17,752.77 166,860 C172.53,867.46 180.96,873.32 189.92,877.92 " fill="none" id="Updateable-backto-TweenManager" style="stroke:#FF0000;stroke-width:1.0;stroke-dasharray:7.0,7.0;"/><polygon fill="none" points="50.21,495.09,57.12,475.06,64.21,495.03,50.21,495.09" style="stroke:#FF0000;stroke-width:1.0;"/><!--MD5=[dcb88cc3e9ffd9547fbe71844bc874a3]
@startuml
skinparam ClassArrowColor #ff0000
skinparam ClassBorderColor #ff0000
skinparam BackgroundColor transparent
left to right direction
hide empty methods
hide empty fields
interface "Updateable" {
}
interface "AI" {
}
"Updateable" <|- - "AI"
interface "GoapAI" {
}
"Updateable" <|- - "GoapAI"
class "AIManager" {
}
"Updateable" <|.. "AIManager"
abstract class "BattleSystem" {
}
"Updateable" <|.. "BattleSystem"
abstract class "GameNode" {
}
"Updateable" <|.. "GameNode"
class "ParticleSystem" {
}
"Updateable" <|.. "ParticleSystem"
class "ParticleSystemManager" {
}
"Updateable" <|.. "ParticleSystemManager"
abstract class "PhysicsManager" {
}
"Updateable" <|.. "PhysicsManager"
class "Scene" {
}
"Updateable" <|.. "Scene"
abstract class "State" {
}
"Updateable" <|.. "State"
class "StateMachine" {
}
"Updateable" <|.. "StateMachine"
class "Timer" {
}
"Updateable" <|.. "Timer"
class "TimerManager" {
}
"Updateable" <|.. "TimerManager"
class "TweenManager" {
}
"Updateable" <|.. "TweenManager"
@enduml

PlantUML version 1.2021.14(Fri Nov 12 11:46:50 EST 2021)
(GPL source distribution)
Java Runtime: Java(TM) SE Runtime Environment
JVM: Java HotSpot(TM) 64-Bit Server VM
Default Encoding: UTF-8
Language: en
Country: US
--></g></svg>