<?xml version="1.0" encoding="UTF-8" standalone="no"?><svg xmlns="http://www.w3.org/2000/svg" xmlns:xlink="http://www.w3.org/1999/xlink" contentScriptType="application/ecmascript" contentStyleType="text/css" height="566px" preserveAspectRatio="none" style="width:608px;height:566px;background:#00000000;" version="1.1" viewBox="0 0 608 566" width="608px" zoomAndPan="magnify"><defs><filter height="300%" id="f1fuvb7nctj6bz" width="300%" x="-1" y="-1"><feGaussianBlur result="blurOut" stdDeviation="2.0"/><feColorMatrix in="blurOut" result="blurOut2" type="matrix" values="0 0 0 0 0 0 0 0 0 0 0 0 0 0 0 0 0 0 .4 0"/><feOffset dx="4.0" dy="4.0" in="blurOut2" result="blurOut3"/><feBlend in="SourceGraphic" in2="blurOut3" mode="normal"/></filter></defs><g><!--MD5=[fe4e906ea959869ecb07c630817d3df6]
class WebGLRenderer--><rect codeLine="6" fill="#FEFECE" filter="url(#f1fuvb7nctj6bz)" height="294.1465" id="WebGLRenderer" style="stroke:#FF0000;stroke-width:1.5;" width="585" x="9" y="258"/><ellipse cx="250.25" cy="274" fill="#ADD1B2" rx="11" ry="11" style="stroke:#FF0000;stroke-width:1.0;"/><path d="M252.7231,280.1431 Q252.1421,280.4419 251.5029,280.5913 Q250.8638,280.7407 250.1582,280.7407 Q247.6514,280.7407 246.3315,279.0889 Q245.0117,277.437 245.0117,274.3159 Q245.0117,271.1865 246.3315,269.5347 Q247.6514,267.8828 250.1582,267.8828 Q250.8638,267.8828 251.5112,268.0322 Q252.1587,268.1816 252.7231,268.4805 L252.7231,271.2031 Q252.0923,270.6221 251.4988,270.3523 Q250.9053,270.0825 250.2744,270.0825 Q248.9297,270.0825 248.2449,271.1492 Q247.5601,272.2158 247.5601,274.3159 Q247.5601,276.4077 248.2449,277.4744 Q248.9297,278.541 250.2744,278.541 Q250.9053,278.541 251.4988,278.2712 Q252.0923,278.0015 252.7231,277.4204 Z " fill="#000000"/><text fill="#000000" font-family="sans-serif" font-size="12" lengthAdjust="spacing" textLength="94" x="270.75" y="278.5352">WebGLRenderer</text><line style="stroke:#FF0000;stroke-width:1.5;" x1="10" x2="593" y1="290" y2="290"/><polygon fill="none" points="20,296,24,300,20,304,16,300" style="stroke:#B38D22;stroke-width:1.0;"/><text fill="#000000" font-family="sans-serif" font-size="11" lengthAdjust="spacing" textLength="153" x="29" y="304.6348">gl : WebGLRenderingContext</text><polygon fill="none" points="20,308.9551,24,312.9551,20,316.9551,16,312.9551" style="stroke:#B38D22;stroke-width:1.0;"/><text fill="#000000" font-family="sans-serif" font-size="11" lengthAdjust="spacing" textLength="67" x="29" y="317.5898">origin : Vec2</text><polygon fill="none" points="20,321.9102,24,325.9102,20,329.9102,16,325.9102" style="stroke:#B38D22;stroke-width:1.0;"/><text fill="#000000" font-family="sans-serif" font-size="11" lengthAdjust="spacing" textLength="199" x="29" y="330.5449">resourceManager : ResourceManager</text><polygon fill="none" points="20,334.8652,24,338.8652,20,342.8652,16,338.8652" style="stroke:#B38D22;stroke-width:1.0;"/><text fill="#000000" font-family="sans-serif" font-size="11" lengthAdjust="spacing" textLength="71" x="29" y="343.5">scene : Scene</text><polygon fill="none" points="20,347.8203,24,351.8203,20,355.8203,16,351.8203" style="stroke:#B38D22;stroke-width:1.0;"/><text fill="#000000" font-family="sans-serif" font-size="11" lengthAdjust="spacing" textLength="201" x="29" y="356.4551">textCtx : CanvasRenderingContext2D</text><polygon fill="none" points="20,360.7754,24,364.7754,20,368.7754,16,364.7754" style="stroke:#B38D22;stroke-width:1.0;"/><text fill="#000000" font-family="sans-serif" font-size="11" lengthAdjust="spacing" textLength="86" x="29" y="369.4102">worldSize : Vec2</text><polygon fill="none" points="20,373.7305,24,377.7305,20,381.7305,16,377.7305" style="stroke:#B38D22;stroke-width:1.0;"/><text fill="#000000" font-family="sans-serif" font-size="11" lengthAdjust="spacing" textLength="81" x="29" y="382.3652">zoom : number</text><line style="stroke:#FF0000;stroke-width:1.5;" x1="10" x2="593" y1="388.6855" y2="388.6855"/><ellipse cx="20" cy="399.6855" fill="#84BE84" rx="3" ry="3" style="stroke:#038048;stroke-width:1.0;"/><text fill="#000000" font-family="sans-serif" font-size="11" lengthAdjust="spacing" textLength="130" x="29" y="403.3203">clear(color: Color) : void</text><ellipse cx="20" cy="412.6406" fill="#84BE84" rx="3" ry="3" style="stroke:#038048;stroke-width:1.0;"/><text fill="#000000" font-family="sans-serif" font-size="11" lengthAdjust="spacing" textLength="559" x="29" y="416.2754">initializeCanvas(canvas: HTMLCanvasElement, width: number, height: number) : WebGLRenderingContext</text><ellipse cx="20" cy="425.5957" fill="#84BE84" rx="3" ry="3" style="stroke:#038048;stroke-width:1.0;"/><text fill="#000000" font-family="sans-serif" font-size="11" lengthAdjust="spacing" textLength="451" x="29" y="429.2305">render(visibleSet: CanvasNode[], tilemaps: Tilemap[], uiLayers: Map&lt;UILayer&gt;) : void</text><ellipse cx="20" cy="438.5508" fill="#84BE84" rx="3" ry="3" style="stroke:#038048;stroke-width:1.0;"/><text fill="#000000" font-family="sans-serif" font-size="11" lengthAdjust="spacing" textLength="155" x="29" y="442.1855">setScene(scene: Scene) : void</text><polygon fill="#FFFF44" points="20,446.5059,24,450.5059,20,454.5059,16,450.5059" style="stroke:#B38D22;stroke-width:1.0;"/><text fill="#000000" font-family="sans-serif" font-size="11" lengthAdjust="spacing" textLength="459" x="29" y="455.1406">addOptions(options: Record&lt;string, any&gt;, node: CanvasNode) : Record&lt;string, any&gt;</text><polygon fill="#FFFF44" points="20,459.4609,24,463.4609,20,467.4609,16,463.4609" style="stroke:#B38D22;stroke-width:1.0;"/><text fill="#000000" font-family="sans-serif" font-size="11" lengthAdjust="spacing" textLength="277" x="29" y="468.0957">renderAnimatedSprite(sprite: AnimatedSprite) : void</text><polygon fill="#FFFF44" points="20,472.416,24,476.416,20,480.416,16,476.416" style="stroke:#B38D22;stroke-width:1.0;"/><text fill="#000000" font-family="sans-serif" font-size="11" lengthAdjust="spacing" textLength="218" x="29" y="481.0508">renderCustom(node: CanvasNode) : void</text><polygon fill="#FFFF44" points="20,485.3711,24,489.3711,20,493.3711,16,489.3711" style="stroke:#B38D22;stroke-width:1.0;"/><text fill="#000000" font-family="sans-serif" font-size="11" lengthAdjust="spacing" textLength="207" x="29" y="494.0059">renderGraphic(graphic: Graphic) : void</text><polygon fill="#FFFF44" points="20,498.3262,24,502.3262,20,506.3262,16,502.3262" style="stroke:#B38D22;stroke-width:1.0;"/><text fill="#000000" font-family="sans-serif" font-size="11" lengthAdjust="spacing" textLength="204" x="29" y="506.9609">renderNode(node: CanvasNode) : void</text><polygon fill="#FFFF44" points="20,511.2813,24,515.2813,20,519.2813,16,515.2813" style="stroke:#B38D22;stroke-width:1.0;"/><text fill="#000000" font-family="sans-serif" font-size="11" lengthAdjust="spacing" textLength="175" x="29" y="519.916">renderSprite(sprite: Sprite) : void</text><polygon fill="#FFFF44" points="20,524.2363,24,528.2363,20,532.2363,16,528.2363" style="stroke:#B38D22;stroke-width:1.0;"/><text fill="#000000" font-family="sans-serif" font-size="11" lengthAdjust="spacing" textLength="205" x="29" y="532.8711">renderTilemap(tilemap: Tilemap) : void</text><polygon fill="#FFFF44" points="20,537.1914,24,541.1914,20,545.1914,16,541.1914" style="stroke:#B38D22;stroke-width:1.0;"/><text fill="#000000" font-family="sans-serif" font-size="11" lengthAdjust="spacing" textLength="240" x="29" y="545.8262">renderUIElement(uiElement: UIElement) : void</text><!--MD5=[b2ada768cd946f90616e4aa0cdf316b8]
class RenderingManager--><rect codeLine="27" fill="#FEFECE" filter="url(#f1fuvb7nctj6bz)" height="190.5059" id="RenderingManager" style="stroke:#FF0000;stroke-width:1.5;" width="477" x="63" y="7"/><ellipse cx="242.75" cy="23" fill="#A9DCDF" rx="11" ry="11" style="stroke:#FF0000;stroke-width:1.0;"/><path d="M242.6133,18.3481 L241.4595,23.4199 L243.7754,23.4199 Z M241.1191,16.1069 L244.1157,16.1069 L247.4609,28.5 L245.0122,28.5 L244.2485,25.437 L240.9697,25.437 L240.2227,28.5 L237.7739,28.5 Z " fill="#000000"/><text fill="#000000" font-family="sans-serif" font-size="12" font-style="italic" lengthAdjust="spacing" textLength="109" x="263.25" y="27.5352">RenderingManager</text><line style="stroke:#FF0000;stroke-width:1.5;" x1="64" x2="539" y1="39" y2="39"/><polygon fill="none" points="74,45,78,49,74,53,70,49" style="stroke:#B38D22;stroke-width:1.0;"/><text fill="#000000" font-family="sans-serif" font-size="11" lengthAdjust="spacing" textLength="199" x="83" y="53.6348">resourceManager : ResourceManager</text><polygon fill="none" points="74,57.9551,78,61.9551,74,65.9551,70,61.9551" style="stroke:#B38D22;stroke-width:1.0;"/><text fill="#000000" font-family="sans-serif" font-size="11" lengthAdjust="spacing" textLength="71" x="83" y="66.5898">scene : Scene</text><line style="stroke:#FF0000;stroke-width:1.5;" x1="64" x2="539" y1="72.9102" y2="72.9102"/><ellipse cx="74" cy="83.9102" fill="#84BE84" rx="3" ry="3" style="stroke:#038048;stroke-width:1.0;"/><text fill="#000000" font-family="sans-serif" font-size="11" font-style="italic" lengthAdjust="spacing" textLength="130" x="83" y="87.5449">clear(color: Color) : void</text><ellipse cx="74" cy="96.8652" fill="#84BE84" rx="3" ry="3" style="stroke:#038048;stroke-width:1.0;"/><text fill="#000000" font-family="sans-serif" font-size="11" font-style="italic" lengthAdjust="spacing" textLength="444" x="83" y="100.5">initializeCanvas(canvas: HTMLCanvasElement, width: number, height: number) : any</text><ellipse cx="74" cy="109.8203" fill="#84BE84" rx="3" ry="3" style="stroke:#038048;stroke-width:1.0;"/><text fill="#000000" font-family="sans-serif" font-size="11" font-style="italic" lengthAdjust="spacing" textLength="451" x="83" y="113.4551">render(visibleSet: CanvasNode[], tilemaps: Tilemap[], uiLayers: Map&lt;UILayer&gt;) : void</text><ellipse cx="74" cy="122.7754" fill="#84BE84" rx="3" ry="3" style="stroke:#038048;stroke-width:1.0;"/><text fill="#000000" font-family="sans-serif" font-size="11" lengthAdjust="spacing" textLength="155" x="83" y="126.4102">setScene(scene: Scene) : void</text><polygon fill="#FFFF44" points="74,130.7305,78,134.7305,74,138.7305,70,134.7305" style="stroke:#B38D22;stroke-width:1.0;"/><text fill="#000000" font-family="sans-serif" font-size="11" font-style="italic" lengthAdjust="spacing" textLength="277" x="83" y="139.3652">renderAnimatedSprite(sprite: AnimatedSprite) : void</text><polygon fill="#FFFF44" points="74,143.6855,78,147.6855,74,151.6855,70,147.6855" style="stroke:#B38D22;stroke-width:1.0;"/><text fill="#000000" font-family="sans-serif" font-size="11" font-style="italic" lengthAdjust="spacing" textLength="207" x="83" y="152.3203">renderGraphic(graphic: Graphic) : void</text><polygon fill="#FFFF44" points="74,156.6406,78,160.6406,74,164.6406,70,160.6406" style="stroke:#B38D22;stroke-width:1.0;"/><text fill="#000000" font-family="sans-serif" font-size="11" font-style="italic" lengthAdjust="spacing" textLength="175" x="83" y="165.2754">renderSprite(sprite: Sprite) : void</text><polygon fill="#FFFF44" points="74,169.5957,78,173.5957,74,177.5957,70,173.5957" style="stroke:#B38D22;stroke-width:1.0;"/><text fill="#000000" font-family="sans-serif" font-size="11" font-style="italic" lengthAdjust="spacing" textLength="205" x="83" y="178.2305">renderTilemap(tilemap: Tilemap) : void</text><polygon fill="#FFFF44" points="74,182.5508,78,186.5508,74,190.5508,70,186.5508" style="stroke:#B38D22;stroke-width:1.0;"/><text fill="#000000" font-family="sans-serif" font-size="11" font-style="italic" lengthAdjust="spacing" textLength="240" x="83" y="191.1855">renderUIElement(uiElement: UIElement) : void</text><!--MD5=[d1b389ee114d1787f568943d693e92dc]
reverse link RenderingManager to WebGLRenderer--><path codeLine="40" d="M301.5,218.2 C301.5,231.19 301.5,244.54 301.5,257.86 " fill="none" id="RenderingManager-backto-WebGLRenderer" style="stroke:#FF0000;stroke-width:1.0;"/><polygon fill="none" points="294.5,218.17,301.5,198.17,308.5,218.17,294.5,218.17" style="stroke:#FF0000;stroke-width:1.0;"/><!--MD5=[c8ad7ab1500a47b97b691dea10a7be30]
@startuml
skinparam ClassArrowColor #ff0000
skinparam ClassBorderColor #ff0000
skinparam BackgroundColor transparent
hide empty methods
hide empty fields
class "WebGLRenderer" {
    #gl : WebGLRenderingContext
    #origin : Vec2
    #resourceManager : ResourceManager
    #scene : Scene
    #textCtx : CanvasRenderingContext2D
    #worldSize : Vec2
    #zoom : number
    +clear(color: Color) : void
    +initializeCanvas(canvas: HTMLCanvasElement, width: number, height: number) : WebGLRenderingContext
    +render(visibleSet: CanvasNode[], tilemaps: Tilemap[], uiLayers: Map<UILayer>) : void
    +setScene(scene: Scene) : void
    #addOptions(options: Record<string, any>, node: CanvasNode) : Record<string, any>
    #renderAnimatedSprite(sprite: AnimatedSprite) : void
    #renderCustom(node: CanvasNode) : void
    #renderGraphic(graphic: Graphic) : void
    #renderNode(node: CanvasNode) : void
    #renderSprite(sprite: Sprite) : void
    #renderTilemap(tilemap: Tilemap) : void
    #renderUIElement(uiElement: UIElement) : void
}
abstract class "RenderingManager" {
    #resourceManager : ResourceManager
    #scene : Scene
    {abstract} +clear(color: Color) : void
    {abstract} +initializeCanvas(canvas: HTMLCanvasElement, width: number, height: number) : any
    {abstract} +render(visibleSet: CanvasNode[], tilemaps: Tilemap[], uiLayers: Map<UILayer>) : void
    +setScene(scene: Scene) : void
    {abstract} #renderAnimatedSprite(sprite: AnimatedSprite) : void
    {abstract} #renderGraphic(graphic: Graphic) : void
    {abstract} #renderSprite(sprite: Sprite) : void
    {abstract} #renderTilemap(tilemap: Tilemap) : void
    {abstract} #renderUIElement(uiElement: UIElement) : void
}
"RenderingManager" <|- - "WebGLRenderer"
@enduml

PlantUML version 1.2021.14(Fri Nov 12 11:46:50 EST 2021)
(GPL source distribution)
Java Runtime: Java(TM) SE Runtime Environment
JVM: Java HotSpot(TM) 64-Bit Server VM
Default Encoding: UTF-8
Language: en
Country: US
--></g></svg>